<svg width="456" height="425" viewBox="0 0 456 425" fill="none" xmlns="http://www.w3.org/2000/svg">
<path d="M22.0436 196.467C25.9222 196.186 33.5532 191.949 33.5532 191.939C33.5532 191.93 29.2383 187.77 28.928 187.537C25.3695 184.89 16.9434 181.865 12.9 184.745C12.2392 185.241 11.6906 185.872 11.29 186.595C10.8895 187.318 10.6461 188.117 10.5756 188.941C10.5051 189.765 10.6092 190.594 10.8811 191.374C11.153 192.155 11.5865 192.87 12.1534 193.471C14.4708 196.099 18.7469 196.71 22.0436 196.467Z" fill="#369AFE"/>
<path d="M36.4812 217.412C40.001 216.161 45.8382 210.537 46.2939 210.091C49.5047 213.431 52.9317 216.557 56.5526 219.448C58.6567 221.135 60.8287 222.783 63.0201 224.393C61.9147 223.811 60.9063 223.288 60.7609 223.229C56.6302 221.62 47.6999 220.922 44.5583 224.771C44.0546 225.425 43.6942 226.177 43.5006 226.979C43.307 227.781 43.2844 228.615 43.4345 229.426C43.5845 230.238 43.9037 231.008 44.3713 231.688C44.8389 232.368 45.4444 232.942 46.1485 233.372C49.0574 235.311 53.3625 234.768 56.4848 233.663C59.607 232.557 64.717 227.845 66.0454 226.584L68.5858 228.427C72.668 231.336 76.7598 234.244 80.6772 237.202C82.0637 238.249 83.3921 239.325 84.7205 240.402C83.7509 239.878 82.8879 239.432 82.7813 239.432C78.6506 237.813 69.7203 237.124 66.5787 240.974C66.0765 241.628 65.7174 242.38 65.5246 243.182C65.3318 243.984 65.3097 244.817 65.4596 245.628C65.6095 246.439 65.9282 247.209 66.3949 247.889C66.8616 248.569 67.466 249.143 68.1689 249.574C71.0778 251.514 75.383 250.971 78.5052 249.865C81.6274 248.76 86.2623 244.503 87.8331 243.01C89.1518 244.154 90.4899 245.298 91.7116 246.462C92.5358 247.276 93.3891 248.004 94.1648 248.867L96.521 251.359C97.9658 253.007 99.4299 254.684 100.826 256.323C101.796 257.448 102.668 258.544 103.57 259.649C102.213 258.592 99.4978 256.585 99.2457 256.439C95.4156 254.219 86.6889 252.183 83.0043 255.47C82.4096 256.039 81.9411 256.727 81.6291 257.488C81.3172 258.25 81.1687 259.069 81.1934 259.891C81.2181 260.714 81.4154 261.523 81.7724 262.264C82.1295 263.006 82.6384 263.664 83.2661 264.197C85.8647 266.543 90.1796 266.659 93.4376 266.039C97.0252 265.36 103.396 260.9 104.191 260.337C105.674 262.16 107.1 263.954 108.428 265.661C111.977 270.257 114.934 274.387 117.232 277.636L120.141 276.094C117.717 272.768 114.556 268.57 110.716 263.838C109.223 261.976 107.585 260.017 105.868 258.02C107.49 256.112 108.999 254.111 110.387 252.028C113.926 253.278 121.189 253.094 122.129 253.065C122.352 255.402 122.556 257.681 122.711 259.853C123.137 265.476 123.341 270.402 123.448 274.349L126.628 272.681C126.425 268.977 126.124 264.565 125.659 259.6C125.436 257.215 125.145 254.684 124.825 252.076C125.746 251.814 133.231 249.623 136.005 247.228C138.526 245.075 141.134 241.633 140.93 238.133C140.909 237.308 140.714 236.496 140.359 235.751C140.003 235.006 139.494 234.345 138.866 233.81C138.237 233.274 137.503 232.878 136.711 232.645C135.919 232.413 135.087 232.35 134.269 232.46C129.421 233.255 125.542 241.333 124.834 245.715C124.834 245.977 124.679 248.828 124.64 250.631C124.505 249.565 124.379 248.537 124.233 247.441C123.942 245.279 123.584 243.126 123.264 240.819C123.05 239.704 122.827 238.579 122.604 237.454C122.381 236.329 122.051 235.156 121.78 233.992C121.092 231.316 120.267 228.64 119.375 225.954C121.315 225.702 127.976 224.684 130.807 222.929C133.639 221.174 136.722 218.178 137.052 214.687C137.155 213.868 137.085 213.037 136.847 212.247C136.608 211.457 136.206 210.726 135.667 210.101C135.127 209.477 134.462 208.973 133.715 208.622C132.968 208.271 132.156 208.081 131.331 208.064C126.366 208.064 121.315 215.511 119.996 219.7C119.909 219.962 119.307 223.103 119.026 224.839C118.474 223.229 117.931 221.62 117.329 219.991C115.574 215.346 113.654 210.702 111.754 206.057C111.172 204.642 110.619 203.216 110.047 201.791C110.716 201.704 118.726 200.676 121.887 198.707C124.708 196.962 127.811 193.956 128.131 190.465C128.235 189.647 128.165 188.816 127.926 188.027C127.687 187.237 127.285 186.507 126.746 185.883C126.206 185.259 125.541 184.756 124.794 184.406C124.047 184.056 123.235 183.868 122.41 183.853C117.446 183.853 112.404 191.29 111.075 195.488C110.978 195.808 110.106 200.336 109.941 201.49C108.69 198.358 107.478 195.226 106.402 192.085C104.914 187.916 103.693 183.658 102.746 179.334C103.056 179.334 111.415 178.248 114.663 176.241C117.475 174.496 120.578 171.49 120.898 167.999C121.003 167.181 120.934 166.35 120.697 165.56C120.459 164.77 120.058 164.039 119.519 163.414C118.981 162.789 118.316 162.285 117.57 161.934C116.823 161.583 116.011 161.393 115.186 161.376C110.212 161.376 105.17 168.823 103.842 173.012C103.745 173.351 102.814 178.219 102.707 179.111C102.649 178.859 102.572 178.597 102.523 178.345C101.73 173.922 101.334 169.438 101.34 164.945C101.34 162.462 101.418 160.097 101.573 157.779C103.153 157.779 110.3 157.508 113.47 156.024C116.641 154.541 119.88 151.952 120.578 148.509C120.771 147.708 120.793 146.874 120.643 146.063C120.493 145.252 120.174 144.482 119.707 143.802C119.24 143.123 118.634 142.549 117.931 142.119C117.227 141.689 116.441 141.411 115.623 141.305C110.678 140.801 104.85 147.608 103.076 151.67C102.979 151.884 102.242 154.24 101.728 155.966C101.815 154.928 101.883 153.852 101.99 152.853C102.368 149.12 102.959 145.717 103.483 142.711C103.803 141.004 104.133 139.472 104.453 138.037C105.985 137.194 112.103 133.732 114.149 131.027C116.195 128.322 117.96 124.462 117 121.088C116.803 120.283 116.437 119.528 115.928 118.874C115.418 118.219 114.776 117.68 114.044 117.292C113.311 116.904 112.504 116.675 111.677 116.621C110.849 116.566 110.02 116.688 109.243 116.977C104.617 118.8 102.581 127.526 102.872 131.948C102.872 132.336 103.978 138.27 104.065 138.231L104.152 138.173C103.822 139.55 103.483 141.082 103.182 142.653C102.581 145.649 101.922 149.043 101.456 152.785C100.904 156.814 100.58 160.87 100.487 164.935C100.388 169.478 100.693 174.021 101.398 178.51V178.665C100.749 177.366 98.79 173.817 98.6154 173.536C96.0556 169.909 88.9869 164.402 84.2454 165.885C83.4657 166.153 82.751 166.582 82.1477 167.144C81.5443 167.706 81.0658 168.389 80.7431 169.148C80.4204 169.906 80.2607 170.724 80.2744 171.549C80.2881 172.373 80.4749 173.186 80.8226 173.933C82.1995 177.162 86.078 179.072 89.2875 179.877C92.914 180.779 100.923 179.305 101.515 179.189C102.345 183.745 103.479 188.242 104.908 192.647C105.733 195.226 106.634 197.786 107.575 200.346C106.974 199.241 106.421 198.261 106.334 198.126C103.774 194.499 96.7149 189.001 91.9734 190.475C91.1928 190.742 90.4771 191.17 89.8729 191.732C89.2687 192.294 88.7896 192.976 88.4667 193.736C88.1438 194.495 87.9844 195.313 87.9989 196.138C88.0133 196.963 88.2013 197.776 88.5506 198.523C89.9178 201.752 93.7963 203.662 97.0058 204.467C100.215 205.272 107.09 204.157 108.884 203.837C109.252 204.806 109.621 205.776 109.989 206.746C111.783 211.439 113.596 216.103 115.235 220.747C115.817 222.376 116.321 224.005 116.835 225.595C116.302 224.626 115.865 223.792 115.759 223.656C113.208 220.03 106.14 214.522 101.398 216.006C100.617 216.271 99.9 216.699 99.2949 217.26C98.6899 217.822 98.2101 218.505 97.8871 219.264C97.564 220.024 97.4049 220.843 97.4201 221.668C97.4354 222.494 97.6246 223.306 97.9755 224.054C99.3523 227.273 103.221 229.193 106.431 229.988C109.64 230.783 115.846 229.794 117.989 229.425C118.464 231.103 118.958 232.79 119.337 234.448C119.569 235.583 119.88 236.659 120.054 237.813C120.229 238.967 120.452 240.072 120.646 241.187C120.946 243.349 121.256 245.58 121.499 247.693C121.673 249.167 121.809 250.602 121.955 251.989C121.402 250.36 120.238 247.141 120.112 246.927C118.247 243.499 115.533 240.608 112.229 238.53C112.044 238.137 111.82 237.764 111.56 237.415C111.086 236.733 110.474 236.159 109.763 235.731C109.052 235.303 108.258 235.03 107.434 234.93C106.61 234.83 105.774 234.906 104.981 235.152C104.188 235.398 103.456 235.809 102.833 236.358C99.1875 239.723 100.419 248.595 102.281 252.619C102.387 252.861 103.871 255.305 104.831 256.827C104.123 256.013 103.454 255.218 102.727 254.394C101.292 252.755 99.8178 251.155 98.2276 249.429L95.8132 246.985C95.0278 246.152 94.0872 245.376 93.2243 244.552C91.1783 242.7 89.0063 240.925 86.7859 239.18C88.2209 237.919 93.2533 233.362 94.6496 230.347C96.0459 227.331 96.967 223.123 95.309 220.03C94.9435 219.29 94.4264 218.635 93.7914 218.108C93.1564 217.58 92.4176 217.193 91.623 216.97C90.8284 216.746 89.9957 216.693 89.1791 216.813C88.3624 216.932 87.5801 217.222 86.8828 217.664C82.7716 220.437 82.6455 229.396 83.877 233.653C83.9448 233.924 85.1763 236.882 85.8841 238.501C84.5363 237.464 83.1982 236.426 81.8116 235.418C77.7877 232.509 73.6182 229.697 69.4779 226.875L65.6963 224.257C66.2102 223.811 72.3189 218.536 73.88 215.152C75.2569 212.147 76.1878 207.929 74.5297 204.835C74.1518 204.122 73.6309 203.494 72.9996 202.991C72.3683 202.488 71.6401 202.12 70.8604 201.911C70.0807 201.702 69.2662 201.655 68.4678 201.775C67.6694 201.894 66.9042 202.177 66.2199 202.605C62.0989 205.378 61.9729 214.338 63.2043 218.595C63.3013 218.915 65.066 223.171 65.5702 224.228C62.8068 222.289 60.0627 220.35 57.435 218.342C53.8706 215.627 50.4889 212.679 47.312 209.519C47.5447 209.315 53.9443 203.837 55.5442 200.375C56.9308 197.36 57.852 193.142 56.2036 190.049C55.8381 189.309 55.321 188.654 54.686 188.126C54.051 187.599 53.3122 187.212 52.5176 186.988C51.723 186.765 50.8903 186.712 50.0737 186.831C49.2571 186.951 48.4747 187.241 47.7774 187.683C43.6565 190.465 43.5304 199.415 44.7619 203.682C44.8588 204.011 46.769 208.588 47.1763 209.393C46.992 209.209 46.7787 209.044 46.6042 208.85C43.5004 205.6 40.6935 202.079 38.2168 198.329C36.8206 196.274 35.6085 194.237 34.4644 192.221C35.7637 191.328 41.6397 187.159 43.4141 184.192C45.1885 181.225 46.5072 177.269 45.2079 174.011C44.9259 173.235 44.4839 172.527 43.9106 171.933C43.3373 171.34 42.6455 170.873 41.8802 170.564C41.1148 170.255 40.293 170.11 39.4681 170.139C38.6432 170.169 37.8337 170.371 37.0921 170.733C32.6996 173.041 31.5845 181.933 32.3408 186.248C32.3408 186.49 33.0681 188.856 33.5917 190.582C33.0875 189.661 32.5542 188.73 32.0984 187.838C30.3531 184.512 28.9568 181.361 27.7448 178.558C27.0757 176.958 26.4939 175.494 25.9703 174.127C26.7751 172.576 29.9749 166.312 30.1883 162.928C30.4016 159.544 29.7325 155.355 27.0757 153.067C26.4683 152.505 25.749 152.077 24.9649 151.812C24.1808 151.547 23.3496 151.451 22.5257 151.53C21.7018 151.609 20.9039 151.86 20.1841 152.269C19.4643 152.678 18.839 153.234 18.349 153.901C15.508 157.973 18.6205 166.37 21.2579 169.9C21.4906 170.21 25.6698 174.563 25.7085 174.476V174.389C26.1934 175.717 26.7267 177.133 27.3375 178.675C28.4817 181.516 29.8101 184.706 31.4876 188.08C33.3025 191.744 35.3292 195.299 37.5575 198.727C39.9869 202.576 42.7514 206.204 45.8188 209.567L45.9351 209.674C44.6746 208.956 41.087 207.056 40.7767 206.94C36.646 205.33 27.7157 204.632 24.5741 208.481C24.0579 209.135 23.6866 209.891 23.4849 210.7C23.2833 211.508 23.2558 212.35 23.4044 213.17C23.5529 213.99 23.8741 214.768 24.3466 215.455C24.819 216.141 25.432 216.719 26.1449 217.15C29.0732 219.089 33.359 218.517 36.4812 217.412Z" fill="#369AFE"/>
<path d="M100.962 157.032C101.059 157.032 99.6726 151.215 99.5369 150.807C98.034 146.638 92.6719 139.463 87.7074 139.628C86.8836 139.68 86.0799 139.904 85.3487 140.287C84.6174 140.67 83.9749 141.203 83.4628 141.85C82.9507 142.498 82.5806 143.246 82.3763 144.045C82.1721 144.845 82.1384 145.679 82.2774 146.493C82.7525 149.964 85.9814 152.834 88.8709 154.453C92.2646 156.402 100.962 157.032 100.962 157.032Z" fill="#369AFE"/>
<path d="M398.922 344.637C396.013 344.424 390.37 341.282 390.37 341.273C390.37 341.263 393.579 338.17 393.812 337.995C396.449 336.056 402.723 333.777 405.729 335.92C406.217 336.29 406.623 336.758 406.919 337.295C407.215 337.832 407.395 338.425 407.447 339.036C407.499 339.646 407.423 340.261 407.222 340.84C407.021 341.42 406.7 341.95 406.281 342.397C404.555 344.366 401.385 344.812 398.922 344.637Z" fill="#369AFE"/>
<path d="M388.198 360.21C385.579 359.241 381.245 355.1 380.896 354.771C378.511 357.253 375.965 359.575 373.275 361.723C371.714 362.983 370.094 364.195 368.427 365.398C369.251 364.961 369.997 364.574 370.104 364.535C373.178 363.332 379.8 362.818 382.147 365.679C382.522 366.165 382.791 366.724 382.935 367.32C383.08 367.917 383.098 368.537 382.987 369.14C382.876 369.744 382.64 370.317 382.293 370.824C381.946 371.33 381.497 371.757 380.974 372.078C378.792 373.514 375.612 373.106 373.285 372.292C370.957 371.477 367.166 367.967 366.177 367.027L364.325 368.413C361.29 370.585 358.255 372.738 355.337 374.939C354.309 375.715 353.32 376.519 352.34 377.315C353.068 376.927 353.698 376.607 353.795 376.568C356.869 375.366 363.491 374.852 365.838 377.712C366.212 378.198 366.48 378.758 366.624 379.355C366.768 379.952 366.785 380.572 366.674 381.176C366.562 381.779 366.325 382.353 365.977 382.859C365.629 383.364 365.178 383.791 364.655 384.112C362.483 385.547 359.293 385.139 356.975 384.325C354.658 383.51 351.216 380.34 350.042 379.234C349.073 380.078 348.103 380.931 347.133 381.794C346.523 382.395 345.883 382.938 345.301 383.578L343.555 385.44C342.479 386.652 341.374 387.913 340.356 389.125C339.648 389.968 338.979 390.783 338.31 391.597C339.328 390.812 341.345 389.319 341.529 389.212C344.38 387.564 350.867 386.041 353.611 388.523C354.054 388.947 354.404 389.459 354.636 390.027C354.869 390.594 354.979 391.204 354.96 391.817C354.941 392.43 354.792 393.032 354.525 393.584C354.257 394.136 353.876 394.625 353.407 395.02C351.468 396.765 348.268 396.853 345.844 396.397C343.187 395.883 338.446 392.577 337.854 392.15C336.749 393.507 335.692 394.846 334.712 396.116C332.065 399.529 329.864 402.564 328.158 405.017L325.986 403.873C327.799 401.391 330.145 398.268 332.996 394.758C334.111 393.372 335.323 391.917 336.594 390.434C335.408 389.01 334.307 387.517 333.297 385.964C330.669 386.933 325.268 386.759 324.57 386.73C324.396 388.475 324.24 390.172 324.124 391.772C323.814 395.951 323.659 399.616 323.581 402.554L321.215 401.313C321.37 398.55 321.593 395.272 321.952 391.617C322.117 389.842 322.33 387.961 322.563 386.022C321.884 385.828 316.318 384.199 314.253 382.434C312.382 380.834 310.442 378.284 310.598 375.647C310.613 375.034 310.757 374.431 311.02 373.877C311.284 373.323 311.661 372.831 312.128 372.433C312.595 372.035 313.14 371.74 313.728 371.567C314.317 371.394 314.935 371.347 315.543 371.429C319.189 372.02 322.059 378.022 322.563 381.29C322.563 381.474 322.67 383.598 322.699 384.936C322.805 384.15 322.893 383.384 323.009 382.57C323.222 380.96 323.484 379.36 323.765 377.644C323.92 376.82 324.085 375.986 324.25 375.143C324.415 374.299 324.657 373.436 324.861 372.573C325.375 370.585 325.986 368.588 326.655 366.6C325.239 366.406 320.255 365.63 318.151 364.351C316.047 363.071 313.759 360.811 313.516 358.222C313.439 357.614 313.49 356.996 313.667 356.409C313.843 355.821 314.142 355.278 314.542 354.813C314.943 354.349 315.436 353.974 315.991 353.712C316.546 353.451 317.15 353.309 317.763 353.297C321.458 353.297 325.21 358.833 326.189 361.975C326.257 362.179 326.703 364.515 326.926 365.805C327.333 364.603 327.741 363.41 328.187 362.217C329.496 358.765 330.921 355.313 332.327 351.862C332.763 350.805 333.18 349.748 333.607 348.691C333.103 348.623 327.149 347.857 324.803 346.403C322.708 345.103 320.401 342.863 320.158 340.274C320.082 339.666 320.135 339.047 320.313 338.46C320.49 337.873 320.79 337.329 321.191 336.865C321.592 336.4 322.087 336.026 322.642 335.764C323.197 335.503 323.801 335.362 324.415 335.349C328.1 335.349 331.852 340.885 332.841 344.075C332.909 344.308 333.559 347.673 333.685 348.536C334.606 346.209 335.517 343.872 336.312 341.545C337.408 338.4 338.296 335.187 338.969 331.926C338.736 331.926 332.531 331.121 330.116 329.628C328.022 328.329 325.714 326.098 325.472 323.5C325.396 322.891 325.448 322.273 325.626 321.685C325.804 321.098 326.103 320.554 326.505 320.09C326.906 319.626 327.4 319.251 327.956 318.99C328.511 318.729 329.115 318.587 329.729 318.574C333.423 318.574 337.175 324.111 338.155 327.301C338.232 327.543 338.921 331.179 339.008 331.829C339.008 331.645 339.105 331.451 339.134 331.257C339.725 327.971 340.021 324.638 340.016 321.299C340.016 319.447 339.958 317.682 339.842 315.966C338.669 315.966 333.316 315.772 330.999 314.666C328.681 313.561 326.238 311.631 325.714 309.081C325.57 308.485 325.553 307.865 325.665 307.261C325.776 306.658 326.014 306.085 326.361 305.579C326.709 305.073 327.159 304.646 327.682 304.326C328.205 304.005 328.79 303.799 329.399 303.719C333.074 303.351 337.408 308.403 338.727 311.428C338.804 311.593 339.347 313.367 339.696 314.618C339.638 313.852 339.58 313.047 339.502 312.31C339.221 309.527 338.795 307.006 338.397 304.766C338.155 303.506 337.912 302.362 337.68 301.295C336.545 300.665 331.997 298.095 330.475 296.078C328.953 294.062 327.644 291.23 328.352 288.69C328.5 288.095 328.771 287.537 329.148 287.054C329.525 286.571 330 286.172 330.541 285.884C331.083 285.596 331.679 285.425 332.29 285.382C332.902 285.339 333.516 285.426 334.092 285.636C337.524 286.993 339.047 293.48 338.824 296.767C338.824 297.058 338 301.47 337.941 301.441H337.873C338.126 302.459 338.378 303.554 338.63 304.766C339.076 306.997 339.599 309.518 339.91 312.3C340.311 315.294 340.538 318.308 340.588 321.328C340.666 324.712 340.442 328.097 339.919 331.441V331.557C340.404 330.588 341.859 327.941 341.994 327.747C343.934 325.051 349.15 320.959 352.66 322.055C353.241 322.253 353.773 322.572 354.222 322.989C354.671 323.407 355.028 323.914 355.268 324.478C355.509 325.042 355.628 325.651 355.618 326.264C355.608 326.877 355.469 327.482 355.211 328.038C354.183 330.433 351.332 331.858 348.918 332.459C346.222 333.128 340.298 332.033 339.832 331.945C339.209 335.333 338.364 338.676 337.301 341.952C336.69 343.891 336.021 345.772 335.362 347.673C335.808 346.858 336.215 346.121 336.283 346.024C338.222 343.329 343.439 339.237 346.949 340.333C347.53 340.532 348.062 340.851 348.512 341.27C348.961 341.688 349.317 342.196 349.558 342.761C349.798 343.326 349.917 343.935 349.907 344.549C349.897 345.163 349.758 345.768 349.499 346.325C348.472 348.72 345.621 350.145 343.206 350.737C340.792 351.328 335.711 350.514 334.373 350.271L333.559 352.453C332.22 355.944 330.873 359.415 329.68 362.857C329.244 364.069 328.866 365.281 328.487 366.493C328.885 365.766 329.224 365.155 329.292 365.068C331.183 362.372 336.438 358.281 339.958 359.376C340.538 359.576 341.069 359.895 341.517 360.313C341.965 360.731 342.321 361.238 342.56 361.802C342.8 362.366 342.918 362.974 342.907 363.587C342.897 364.2 342.758 364.803 342.499 365.359C341.48 367.764 338.62 369.179 336.206 369.78C333.791 370.382 329.215 369.625 327.615 369.354C327.266 370.605 326.907 371.855 326.645 373.087C326.471 373.931 326.238 374.735 326.112 375.589C325.986 376.442 325.821 377.276 325.675 378.1C325.452 379.71 325.22 381.368 325.045 382.948C324.909 384.044 324.812 385.091 324.706 386.138C325.113 384.926 325.976 382.57 326.063 382.376C327.454 379.828 329.473 377.678 331.93 376.132C332.029 375.808 332.162 375.496 332.327 375.201C332.678 374.698 333.131 374.276 333.656 373.96C334.182 373.645 334.768 373.443 335.376 373.369C335.984 373.295 336.601 373.35 337.187 373.53C337.773 373.71 338.314 374.012 338.775 374.415C341.49 376.917 340.579 383.51 339.192 386.507C339.115 386.681 338.009 388.494 337.301 389.629C337.815 389.028 338.319 388.436 338.862 387.825C339.929 386.604 341.025 385.411 342.208 384.131L344.002 382.318C344.583 381.697 345.281 381.115 345.941 380.505C347.463 379.128 349.073 377.809 350.731 376.51C349.664 375.54 345.883 372.195 344.913 369.945C343.943 367.696 343.187 364.574 344.418 362.275C344.689 361.724 345.073 361.237 345.545 360.844C346.017 360.451 346.567 360.163 347.158 359.997C347.749 359.831 348.369 359.792 348.976 359.883C349.583 359.973 350.165 360.19 350.682 360.52C353.746 362.576 353.834 369.247 352.922 372.408C352.864 372.602 351.953 374.803 351.429 375.996C352.399 375.23 353.426 374.454 354.454 373.707C357.45 371.545 360.544 369.451 363.627 367.356L366.439 365.417C366.051 365.087 361.513 361.17 360.359 358.63C359.322 356.399 358.633 353.258 359.865 350.96C360.135 350.409 360.519 349.921 360.991 349.528C361.463 349.136 362.013 348.847 362.604 348.682C363.195 348.516 363.815 348.477 364.422 348.567C365.03 348.657 365.611 348.875 366.129 349.205C369.193 351.27 369.28 357.932 368.368 361.093C368.301 361.335 366.982 364.496 366.604 365.281C368.669 363.846 370.705 362.372 372.654 360.899C375.306 358.88 377.823 356.691 380.188 354.344C380.004 354.189 375.253 350.116 374.06 347.556C373.032 345.317 372.344 342.175 373.575 339.887C373.846 339.336 374.23 338.848 374.702 338.455C375.174 338.063 375.723 337.774 376.314 337.607C376.905 337.441 377.524 337.401 378.131 337.489C378.739 337.578 379.321 337.793 379.839 338.122C382.894 340.187 382.991 346.849 382.079 350.01C382.002 350.262 380.586 353.665 380.285 354.257L380.712 353.859C383.014 351.438 385.101 348.819 386.947 346.034C387.974 344.512 388.886 342.989 389.73 341.496C388.76 340.827 384.406 337.724 383.078 335.523C381.749 333.322 380.78 330.374 381.749 327.96C381.958 327.383 382.286 326.856 382.712 326.414C383.137 325.972 383.651 325.624 384.22 325.393C384.789 325.163 385.4 325.055 386.013 325.076C386.627 325.097 387.229 325.247 387.781 325.517C391.048 327.233 391.872 333.846 391.31 337.094C391.31 337.269 390.767 339.033 390.34 340.313C390.719 339.625 391.106 338.936 391.455 338.267C392.755 335.795 393.783 333.419 394.684 331.373C395.189 330.181 395.654 329.095 396.013 328.076C395.412 326.932 393.036 322.259 392.871 319.757C392.706 317.255 393.211 314.123 395.189 312.427C395.639 312.011 396.172 311.695 396.752 311.499C397.333 311.302 397.948 311.231 398.559 311.289C399.169 311.346 399.76 311.532 400.294 311.833C400.827 312.134 401.292 312.545 401.656 313.037C403.77 316.072 401.452 322.317 399.465 324.935C399.29 325.168 396.187 328.406 396.149 328.338V328.27C395.79 329.24 395.392 330.316 394.936 331.46C394.083 333.565 393.094 335.94 391.843 338.452C390.529 341.171 389.059 343.813 387.441 346.364C385.637 349.228 383.58 351.925 381.294 354.421L381.206 354.509C382.176 353.975 384.823 352.569 385.085 352.472C388.149 351.27 394.781 350.756 397.128 353.617C397.502 354.103 397.771 354.663 397.915 355.259C398.059 355.856 398.075 356.477 397.964 357.08C397.852 357.684 397.615 358.257 397.267 358.763C396.919 359.269 396.469 359.696 395.945 360.016C393.705 361.432 390.505 361.025 388.198 360.21Z" fill="#369AFE"/>
<path d="M340.258 315.354C340.19 315.354 341.228 310.991 341.315 310.72C342.44 307.626 346.425 302.284 350.11 302.42C350.722 302.457 351.32 302.623 351.864 302.907C352.408 303.191 352.886 303.587 353.266 304.068C353.647 304.549 353.922 305.106 354.073 305.7C354.224 306.295 354.248 306.915 354.143 307.52C353.794 310.099 351.39 312.232 349.247 313.435C346.726 314.85 340.258 315.354 340.258 315.354Z" fill="#369AFE"/>
<path d="M396.516 181.188C415.661 179.657 429.939 162.895 428.407 143.751C426.876 124.606 410.114 110.328 390.97 111.859C371.825 113.391 357.547 130.152 359.078 149.297C360.61 168.442 377.371 182.72 396.516 181.188Z" stroke="#263238" stroke-width="0.72648" stroke-linecap="round" stroke-linejoin="round"/>
<path d="M391.882 156.064C390.028 156.064 388.249 155.327 386.938 154.016C385.627 152.705 384.891 150.927 384.891 149.073V126.868C384.889 125.949 385.069 125.039 385.42 124.19C385.771 123.34 386.286 122.568 386.935 121.918C387.584 121.268 388.355 120.752 389.204 120.4C390.053 120.048 390.963 119.867 391.882 119.867V119.867C392.801 119.867 393.711 120.048 394.561 120.4C395.41 120.752 396.182 121.268 396.832 121.918C397.482 122.568 397.998 123.34 398.35 124.189C398.701 125.038 398.882 125.949 398.882 126.868V149.044C398.886 149.965 398.708 150.878 398.358 151.73C398.008 152.582 397.492 153.357 396.842 154.009C396.191 154.662 395.418 155.179 394.567 155.532C393.716 155.884 392.803 156.065 391.882 156.064Z" stroke="#263238" stroke-miterlimit="10"/>
<path d="M391.94 161.067C388.662 161.064 385.519 159.761 383.201 157.443C380.883 155.125 379.58 151.982 379.577 148.704V138.29C379.577 137.951 379.712 137.625 379.952 137.385C380.192 137.145 380.518 137.01 380.857 137.01C381.196 137.01 381.522 137.145 381.762 137.385C382.002 137.625 382.137 137.951 382.137 138.29V148.704C382.217 151.252 383.286 153.669 385.116 155.442C386.947 157.216 389.396 158.208 391.945 158.208C394.494 158.208 396.943 157.216 398.774 155.442C400.604 153.669 401.673 151.252 401.753 148.704V138.29C401.753 137.951 401.888 137.625 402.128 137.385C402.368 137.145 402.693 137.01 403.033 137.01C403.372 137.01 403.698 137.145 403.938 137.385C404.178 137.625 404.313 137.951 404.313 138.29V148.704C404.307 151.983 403.002 155.126 400.682 157.444C398.363 159.761 395.219 161.064 391.94 161.067V161.067Z" stroke="#263238" stroke-miterlimit="10"/>
<path d="M391.939 174.38C391.6 174.38 391.274 174.245 391.034 174.005C390.794 173.765 390.659 173.439 390.659 173.1V159.787C390.659 159.447 390.794 159.122 391.034 158.882C391.274 158.642 391.6 158.507 391.939 158.507C392.279 158.507 392.604 158.642 392.844 158.882C393.084 159.122 393.219 159.447 393.219 159.787V173.1C393.219 173.439 393.084 173.765 392.844 174.005C392.604 174.245 392.279 174.38 391.939 174.38V174.38Z" stroke="#263238" stroke-miterlimit="10"/>
<path d="M400.472 175.059H383.407C383.067 175.059 382.742 174.924 382.502 174.684C382.262 174.444 382.127 174.118 382.127 173.779C382.127 173.439 382.262 173.114 382.502 172.874C382.742 172.634 383.067 172.499 383.407 172.499H400.472C400.641 172.499 400.807 172.532 400.962 172.596C401.118 172.661 401.259 172.755 401.378 172.874C401.496 172.993 401.591 173.134 401.655 173.289C401.719 173.444 401.752 173.611 401.752 173.779C401.752 173.947 401.719 174.113 401.655 174.269C401.591 174.424 401.496 174.565 401.378 174.684C401.259 174.803 401.118 174.897 400.962 174.961C400.807 175.026 400.641 175.059 400.472 175.059V175.059Z" stroke="#263238" stroke-miterlimit="10"/>
<path d="M80.4013 83.7603C96.8091 76.9135 104.56 58.062 97.7132 41.6541C90.8665 25.2462 72.0149 17.4954 55.607 24.3421C39.1992 31.1889 31.4483 50.0405 38.2951 66.4483C45.1418 82.8562 63.9934 90.607 80.4013 83.7603Z" stroke="#263238" stroke-width="0.724166" stroke-linecap="round" stroke-linejoin="round"/>
<path d="M87.8622 44.6233L78.4567 50.0533V45.6027C78.4567 44.574 78.0481 43.5875 77.3207 42.8601C76.5934 42.1327 75.6068 41.7241 74.5782 41.7241H53.382C52.3533 41.7241 51.3668 42.1327 50.6394 42.8601C49.912 43.5875 49.5034 44.574 49.5034 45.6027V62.707C49.5034 63.7357 49.912 64.7222 50.6394 65.4496C51.3668 66.1769 52.3533 66.5856 53.382 66.5856H74.617C75.6456 66.5856 76.6321 66.1769 77.3595 65.4496C78.0869 64.7222 78.4955 63.7357 78.4955 62.707V58.2564L87.901 63.6864L87.8622 44.6233Z" stroke="#263238" stroke-miterlimit="10"/>
<path d="M395.275 262.035C405.305 262.035 413.436 253.904 413.436 243.873C413.436 233.843 405.305 225.712 395.275 225.712C385.245 225.712 377.114 233.843 377.114 243.873C377.114 253.904 385.245 262.035 395.275 262.035Z" stroke="#263238" stroke-width="0.724166" stroke-linecap="round" stroke-linejoin="round"/>
<path d="M406.475 238.55L401.171 241.614V239.103C401.171 238.819 401.115 238.538 401.006 238.275C400.897 238.013 400.738 237.775 400.537 237.574C400.337 237.373 400.098 237.214 399.836 237.105C399.573 236.997 399.292 236.941 399.008 236.941H387.024C386.74 236.941 386.458 236.997 386.196 237.105C385.934 237.214 385.695 237.373 385.495 237.574C385.294 237.775 385.135 238.013 385.026 238.275C384.917 238.538 384.861 238.819 384.861 239.103V248.751C384.861 249.035 384.917 249.316 385.026 249.578C385.135 249.841 385.294 250.079 385.495 250.28C385.695 250.481 385.934 250.64 386.196 250.749C386.458 250.857 386.74 250.913 387.024 250.913H399.008C399.292 250.913 399.573 250.857 399.836 250.749C400.098 250.64 400.337 250.481 400.537 250.28C400.738 250.079 400.897 249.841 401.006 249.578C401.115 249.316 401.171 249.035 401.171 248.751V246.239L406.475 249.304V238.55Z" stroke="#263238" stroke-miterlimit="10"/>
<path d="M64.2935 376.885C75.395 374.264 82.2704 363.141 79.6502 352.039C77.0301 340.938 65.9065 334.063 54.805 336.683C43.7036 339.303 36.8282 350.426 39.4484 361.528C42.0685 372.629 53.1921 379.505 64.2935 376.885Z" stroke="#263238" stroke-width="0.724166" stroke-linecap="round" stroke-linejoin="round"/>
<path d="M70.0206 352.414H49.1152C48.5358 352.413 47.9633 352.539 47.4384 352.785C46.9135 353.03 46.4493 353.388 46.0788 353.834C45.7084 354.279 45.4408 354.801 45.2952 355.362C45.1496 355.923 45.1297 356.509 45.2367 357.078L45.8379 360.346C45.8792 360.572 45.9993 360.776 46.1769 360.921C46.3544 361.067 46.5779 361.145 46.8075 361.141H53.0714C53.3285 361.141 53.5751 361.039 53.757 360.857C53.9388 360.675 54.041 360.429 54.041 360.171V356.613H65.0657V360.171C65.0657 360.429 65.1679 360.675 65.3497 360.857C65.5316 361.039 65.7782 361.141 66.0354 361.141H72.338C72.5676 361.145 72.7911 361.067 72.9686 360.921C73.1462 360.776 73.2663 360.572 73.3076 360.346L73.9088 357.078C74.016 356.508 73.9958 355.921 73.8497 355.36C73.7036 354.798 73.4352 354.276 73.0636 353.83C72.6921 353.385 72.2266 353.026 71.7005 352.782C71.1745 352.537 70.6008 352.412 70.0206 352.414V352.414Z" stroke="#263238" stroke-miterlimit="10"/>
<path d="M312.807 20.382H243.352L240.444 25.7344C238.884 28.5468 236.601 30.8906 233.83 32.5226C231.06 34.1546 227.903 35.0152 224.687 35.0152C221.471 35.0152 218.314 34.1546 215.544 32.5226C212.773 30.8906 210.49 28.5468 208.93 25.7344L206.022 20.382H136.615C134.876 20.359 133.149 20.6788 131.533 21.3232C129.917 21.9676 128.444 22.9239 127.198 24.1377C125.952 25.3515 124.957 26.7988 124.27 28.3971C123.583 29.9954 123.218 31.7133 123.195 33.4527V391.112C123.218 392.851 123.583 394.569 124.27 396.167C124.957 397.764 125.952 399.211 127.198 400.424C128.445 401.637 129.918 402.592 131.534 403.236C133.149 403.879 134.876 404.198 136.615 404.173H312.807C314.546 404.196 316.271 403.877 317.886 403.233C319.501 402.589 320.973 401.633 322.218 400.42C323.463 399.208 324.457 397.761 325.143 396.164C325.83 394.567 326.195 392.85 326.217 391.112V33.4527C326.196 31.7137 325.832 29.996 325.146 28.3978C324.461 26.7996 323.467 25.3522 322.221 24.1383C320.976 22.9244 319.503 21.9679 317.888 21.3234C316.273 20.6788 314.546 20.359 312.807 20.382Z" fill="#D6D6D6"/>
<path d="M312.255 25.521H298.253V33.2005H312.255V25.521Z" stroke="#263238" stroke-width="0.821067" stroke-linecap="round" stroke-linejoin="round"/>
<path d="M309.172 25.521H298.253V33.2005H309.172V25.521Z" fill="#263238" stroke="#263238" stroke-width="0.725073" stroke-linecap="round" stroke-linejoin="round"/>
<path d="M314.194 27.6736H312.226V31.0576H314.194V27.6736Z" fill="#263238" stroke="#263238" stroke-width="0.725073" stroke-linecap="round" stroke-linejoin="round"/>
<path d="M137.323 27.9062H134.753V32.3084H137.323V27.9062Z" fill="#263238" stroke="#263238" stroke-width="0.883086" stroke-linecap="round" stroke-linejoin="round"/>
<path d="M141.357 26.3552H138.787V32.2991H141.357V26.3552Z" fill="#263238" stroke="#263238" stroke-width="0.883086" stroke-linecap="round" stroke-linejoin="round"/>
<path d="M145.39 24.5322H142.821V32.3087H145.39V24.5322Z" fill="#263238" stroke="#263238" stroke-width="0.883086" stroke-linecap="round" stroke-linejoin="round"/>
<path d="M129.401 35.8281H319.973" stroke="#263238" stroke-linecap="round" stroke-linejoin="round"/>
<path opacity="0.2" d="M260.99 263.043C260.409 258.67 259.681 253.812 259.109 250.127C264.012 243.633 267.206 236.011 268.398 227.961C268.98 223.491 268.874 215.589 268.457 206.843C269.866 205.76 270.947 204.306 271.579 202.644C273.586 197.796 280.364 182.728 272.548 178.229C271.215 177.328 269.592 176.961 268.001 177.201C268.508 173.911 269.419 170.696 270.716 167.631C274.827 158.487 282.604 149.809 279.443 137.01C276.282 124.21 262.513 117.355 258.343 122.843C254.174 128.331 254.232 132.898 246.465 126.954C238.698 121.011 227.732 112.788 210.821 117.355C193.911 121.922 192.078 126.082 200.311 134.721C200.311 134.721 173.345 133.354 166.49 148.432C161.642 159.02 169.69 163.752 174.741 166.419C174.099 166.714 173.573 167.216 173.248 167.844L159.673 194.16L163.077 158.962C163.166 157.941 162.865 156.925 162.233 156.118C161.602 155.311 160.688 154.773 159.676 154.614C158.663 154.456 157.628 154.687 156.78 155.262C155.932 155.837 155.334 156.712 155.106 157.711L146.981 193.374L144.256 193.025L145.963 157.304C146.016 156.294 145.681 155.301 145.026 154.531C144.371 153.76 143.445 153.27 142.439 153.161C141.434 153.051 140.424 153.331 139.619 153.943C138.813 154.555 138.273 155.453 138.109 156.451L132.62 192.327L127.675 192.046V163.539C127.673 162.975 127.549 162.418 127.313 161.906C127.077 161.394 126.733 160.938 126.306 160.571C125.878 160.203 125.377 159.931 124.835 159.774C124.293 159.617 123.724 159.578 123.166 159.66V282.678L123.835 281.437L126.405 283.424L139.883 264.895L134.637 262.209C139.369 254.287 146.156 242.409 146.156 242.409C146.156 242.409 159.334 240.053 163.125 233.314C166.916 226.575 169.428 218.119 174.024 211.846C178.62 205.572 182.867 203.003 184.544 197.951C184.549 197.903 184.549 197.854 184.544 197.806C186.687 202.877 190.721 207.841 192.495 210.13C194.939 213.271 198.168 214.542 199.574 212.942C199.7 213.911 199.826 214.929 199.962 215.938C201.561 223.918 203.394 231.316 205.295 235.272C207.063 238.687 209.353 241.804 212.082 244.513C211.269 244.028 210.297 243.882 209.378 244.107C208.458 244.332 207.664 244.91 207.166 245.715C206.215 246.854 205.458 248.141 204.926 249.526C201.377 257.952 193.417 267.949 194.076 273.912C194.076 274.087 194.076 274.349 194.134 274.659C184.942 275.454 161.467 277.723 157.908 280.564C155.358 282.61 137.711 299.501 123.157 313.532V383.103L154.049 364.331L159.334 404.202H298.186V268.259C282.671 265.457 262.135 262.829 262.135 262.829L260.99 263.043ZM185.223 186.829C183.284 188.769 182.915 191.251 183.39 193.927C181.791 193.5 179.085 194.412 176.128 196.681C170.649 200.899 165.181 205.524 165.181 205.524L175.372 179.761L175.624 179.974C179.619 182.883 184.457 184.328 186.522 185.724C186.058 186.054 185.623 186.424 185.223 186.829Z" fill="black"/>
<path d="M181.645 407.577H328.593V263.392C312.197 260.425 290.428 257.642 290.428 257.642L222.35 269.85C222.35 269.85 184.787 272.661 180.094 276.424C175.401 280.186 122.265 331.567 122.265 331.567V397.715L176.012 365.058L181.645 407.577Z" fill="white"/>
<path d="M275.011 395.136C274.909 395.238 274.853 395.376 274.853 395.519C274.853 395.663 274.909 395.801 275.011 395.902L283.214 403.659C283.314 403.752 283.446 403.804 283.582 403.805C283.731 403.805 283.874 403.745 283.98 403.64C284.081 403.538 284.138 403.401 284.138 403.257C284.138 403.113 284.081 402.976 283.98 402.874L275.777 395.117C275.726 395.067 275.665 395.027 275.599 395.001C275.532 394.975 275.461 394.962 275.39 394.964C275.318 394.966 275.248 394.982 275.183 395.012C275.118 395.041 275.059 395.084 275.011 395.136Z" fill="#B2B2B2"/>
<path d="M285.425 336.251C285.323 336.149 285.186 336.093 285.042 336.093C284.899 336.093 284.761 336.149 284.659 336.251L279.307 341.981C279.317 341.907 279.311 341.831 279.289 341.759C279.267 341.687 279.23 341.621 279.181 341.564C279.079 341.463 278.941 341.406 278.798 341.406C278.654 341.406 278.516 341.463 278.415 341.564L273.111 346.412C273.012 346.515 272.957 346.653 272.957 346.795C272.957 346.938 273.012 347.075 273.111 347.178C273.213 347.28 273.35 347.336 273.494 347.336C273.637 347.336 273.775 347.28 273.877 347.178L278.182 343.3L277.94 343.562C277.871 343.639 277.826 343.735 277.81 343.838C277.795 343.94 277.808 344.045 277.85 344.14C277.892 344.234 277.96 344.315 278.046 344.373C278.133 344.43 278.234 344.462 278.337 344.463C278.41 344.464 278.482 344.45 278.548 344.422C278.615 344.393 278.675 344.351 278.725 344.299L285.512 337.055C285.565 336.999 285.605 336.933 285.629 336.86C285.654 336.787 285.662 336.709 285.654 336.633C285.645 336.557 285.621 336.483 285.581 336.417C285.542 336.351 285.489 336.294 285.425 336.251Z" fill="#B2B2B2"/>
<path d="M279.684 299.152C279.595 299.041 279.465 298.97 279.324 298.954C279.183 298.937 279.04 298.977 278.928 299.065L271.685 304.883C271.575 304.974 271.506 305.104 271.492 305.245C271.477 305.386 271.519 305.528 271.607 305.639C271.656 305.703 271.72 305.754 271.792 305.79C271.864 305.825 271.944 305.843 272.024 305.843C272.147 305.841 272.266 305.8 272.364 305.726L279.597 299.908C279.708 299.819 279.779 299.69 279.795 299.548C279.812 299.407 279.772 299.265 279.684 299.152Z" fill="#B2B2B2"/>
<path d="M182.188 292.132L188.975 284.899C189.074 284.796 189.129 284.658 189.129 284.516C189.129 284.373 189.074 284.235 188.975 284.132C188.872 284.034 188.735 283.978 188.592 283.978C188.449 283.978 188.312 284.034 188.209 284.132L181.422 291.376C181.371 291.425 181.33 291.483 181.302 291.548C181.275 291.613 181.26 291.683 181.26 291.754C181.26 291.825 181.275 291.894 181.302 291.959C181.33 292.024 181.371 292.083 181.422 292.132C181.518 292.225 181.647 292.278 181.78 292.277C181.855 292.283 181.929 292.273 181.999 292.248C182.07 292.223 182.134 292.183 182.188 292.132Z" fill="#B2B2B2"/>
<path d="M269.125 325.604C269.2 325.604 269.274 325.589 269.343 325.559C269.411 325.529 269.473 325.485 269.523 325.429C269.574 325.38 269.615 325.322 269.642 325.257C269.67 325.192 269.684 325.122 269.684 325.051C269.684 324.98 269.67 324.91 269.642 324.845C269.615 324.78 269.574 324.722 269.523 324.673L261.329 316.916C261.224 316.828 261.088 316.783 260.95 316.791C260.813 316.799 260.683 316.859 260.588 316.959C260.493 317.059 260.44 317.191 260.439 317.329C260.438 317.467 260.489 317.6 260.583 317.701L268.786 325.458C268.879 325.544 268.999 325.596 269.125 325.604Z" fill="#B2B2B2"/>
<path d="M253.204 344.9H253.271C253.342 344.89 253.41 344.867 253.472 344.831C253.533 344.795 253.587 344.747 253.631 344.691C253.674 344.634 253.706 344.569 253.724 344.5C253.742 344.431 253.746 344.36 253.737 344.289L252.292 333.196C252.283 333.126 252.261 333.059 252.226 332.997C252.191 332.936 252.144 332.882 252.088 332.839C252.032 332.796 251.968 332.764 251.9 332.745C251.832 332.727 251.761 332.722 251.691 332.731C251.621 332.74 251.553 332.762 251.492 332.797C251.431 332.832 251.377 332.879 251.334 332.935C251.29 332.991 251.259 333.055 251.24 333.123C251.222 333.191 251.217 333.262 251.225 333.332L252.67 344.434C252.689 344.563 252.753 344.681 252.851 344.766C252.948 344.851 253.074 344.899 253.204 344.9Z" fill="#B2B2B2"/>
<path d="M264.879 382.599L258.091 389.833C258.04 389.881 257.999 389.94 257.972 390.005C257.944 390.07 257.93 390.14 257.93 390.211C257.93 390.281 257.944 390.351 257.972 390.416C257.999 390.481 258.04 390.54 258.091 390.589C258.19 390.684 258.322 390.736 258.46 390.734C258.532 390.734 258.604 390.719 258.67 390.691C258.737 390.663 258.797 390.621 258.847 390.569L265.635 383.326C265.731 383.222 265.782 383.084 265.777 382.942C265.772 382.8 265.71 382.666 265.606 382.57C265.502 382.474 265.363 382.422 265.222 382.428C265.08 382.433 264.946 382.495 264.849 382.599H264.879Z" fill="#B2B2B2"/>
<path d="M180.831 346.829C180.898 346.843 180.967 346.843 181.034 346.829C181.1 346.803 181.161 346.763 181.211 346.713C181.262 346.663 181.302 346.603 181.329 346.537C181.356 346.471 181.37 346.4 181.369 346.329C181.369 346.257 181.354 346.187 181.325 346.121L176.477 334.544C176.419 334.413 176.313 334.31 176.181 334.256C176.05 334.202 175.902 334.201 175.769 334.253C175.637 334.309 175.532 334.414 175.478 334.547C175.423 334.68 175.423 334.828 175.478 334.961L180.326 346.538C180.373 346.63 180.446 346.707 180.535 346.759C180.625 346.81 180.727 346.835 180.831 346.829Z" fill="#B2B2B2"/>
<path d="M286.501 383.985C286.624 383.984 286.743 383.943 286.841 383.869L294.074 378.051C294.14 378.012 294.198 377.958 294.242 377.895C294.286 377.831 294.316 377.759 294.329 377.683C294.343 377.607 294.341 377.529 294.322 377.454C294.303 377.379 294.269 377.309 294.221 377.248C294.173 377.187 294.112 377.138 294.043 377.103C293.975 377.067 293.899 377.047 293.822 377.043C293.745 377.039 293.668 377.052 293.596 377.08C293.524 377.109 293.459 377.152 293.405 377.208L286.162 383.026C286.107 383.07 286.061 383.125 286.027 383.187C285.993 383.249 285.972 383.317 285.965 383.387C285.957 383.458 285.964 383.529 285.985 383.597C286.005 383.664 286.039 383.727 286.084 383.782C286.133 383.846 286.196 383.898 286.269 383.933C286.341 383.969 286.421 383.987 286.501 383.985Z" fill="#B2B2B2"/>
<path d="M285.067 314.239C285.011 314.107 284.905 314.002 284.773 313.948C284.64 313.894 284.491 313.894 284.359 313.948C284.293 313.976 284.234 314.016 284.184 314.067C284.135 314.117 284.096 314.177 284.069 314.243C284.043 314.309 284.03 314.38 284.032 314.451C284.033 314.521 284.049 314.591 284.077 314.656L288.926 326.234C288.967 326.331 289.036 326.414 289.124 326.472C289.212 326.531 289.315 326.562 289.42 326.563C289.491 326.578 289.563 326.578 289.633 326.563C289.764 326.506 289.867 326.4 289.921 326.268C289.975 326.136 289.977 325.988 289.924 325.856L285.067 314.239Z" fill="#B2B2B2"/>
<path d="M287.461 376.742H287.538C287.607 376.732 287.674 376.709 287.735 376.674C287.795 376.639 287.848 376.592 287.89 376.536C287.933 376.48 287.964 376.416 287.981 376.349C287.999 376.281 288.003 376.21 287.994 376.141L286.549 365.038C286.53 364.898 286.456 364.77 286.344 364.683C286.231 364.596 286.089 364.556 285.948 364.573C285.877 364.583 285.809 364.606 285.747 364.642C285.686 364.678 285.632 364.725 285.589 364.782C285.545 364.839 285.514 364.903 285.496 364.972C285.477 365.041 285.473 365.113 285.482 365.184L286.927 376.277C286.946 376.405 287.01 376.523 287.108 376.608C287.205 376.693 287.331 376.741 287.461 376.742Z" fill="#B2B2B2"/>
<path d="M124.253 393.972C124.304 393.924 124.344 393.865 124.372 393.8C124.4 393.735 124.414 393.665 124.414 393.594C124.414 393.524 124.4 393.454 124.372 393.389C124.344 393.324 124.304 393.265 124.253 393.216C124.203 393.166 124.144 393.127 124.079 393.1C124.014 393.073 123.945 393.059 123.874 393.059C123.804 393.059 123.735 393.073 123.67 393.1C123.605 393.127 123.546 393.166 123.496 393.216L122.226 394.37V395.824L124.253 393.972Z" fill="#B2B2B2"/>
<path d="M151.975 337.24C151.925 337.289 151.885 337.348 151.858 337.413C151.831 337.478 151.817 337.548 151.817 337.618C151.817 337.688 151.831 337.758 151.858 337.823C151.885 337.888 151.925 337.946 151.975 337.996L160.178 345.753C160.277 345.847 160.409 345.899 160.546 345.899C160.62 345.899 160.692 345.883 160.759 345.853C160.826 345.823 160.886 345.779 160.934 345.724C160.984 345.674 161.023 345.616 161.05 345.551C161.077 345.486 161.091 345.416 161.091 345.346C161.091 345.276 161.077 345.206 161.05 345.141C161.023 345.076 160.984 345.017 160.934 344.968L152.731 337.211C152.625 337.118 152.488 337.07 152.347 337.075C152.207 337.081 152.073 337.14 151.975 337.24Z" fill="#B2B2B2"/>
<path d="M162.408 313.144C162.359 313.093 162.3 313.052 162.235 313.024C162.17 312.997 162.1 312.982 162.03 312.982C161.959 312.982 161.889 312.997 161.824 313.024C161.759 313.052 161.7 313.093 161.651 313.144L156.338 317.992C156.237 318.094 156.18 318.231 156.18 318.375C156.18 318.519 156.237 318.656 156.338 318.758C156.388 318.813 156.449 318.858 156.518 318.888C156.586 318.918 156.661 318.933 156.735 318.933C156.869 318.933 156.998 318.881 157.094 318.787L162.408 313.939C162.462 313.888 162.506 313.827 162.536 313.758C162.565 313.69 162.581 313.616 162.581 313.541C162.581 313.467 162.565 313.393 162.536 313.325C162.506 313.256 162.462 313.195 162.408 313.144Z" fill="#B2B2B2"/>
<path d="M172.133 297.765C172.173 297.863 172.242 297.947 172.33 298.005C172.418 298.064 172.521 298.095 172.627 298.095C172.694 298.109 172.764 298.109 172.831 298.095C172.897 298.069 172.957 298.029 173.008 297.979C173.059 297.929 173.099 297.869 173.126 297.803C173.153 297.737 173.167 297.666 173.166 297.594C173.165 297.523 173.15 297.453 173.122 297.387L168.778 286.964L167.934 287.749L172.133 297.765Z" fill="#B2B2B2"/>
<path d="M171.115 319.418C171.026 319.307 170.896 319.235 170.755 319.219C170.613 319.203 170.471 319.243 170.359 319.33L163.125 325.148C163.014 325.238 162.943 325.367 162.927 325.508C162.911 325.65 162.951 325.792 163.038 325.904C163.089 325.969 163.154 326.021 163.228 326.056C163.302 326.091 163.383 326.109 163.465 326.108C163.585 326.108 163.701 326.067 163.794 325.992L171.038 320.174C171.093 320.13 171.139 320.075 171.173 320.013C171.206 319.951 171.228 319.882 171.235 319.812C171.242 319.742 171.235 319.67 171.215 319.603C171.194 319.535 171.16 319.472 171.115 319.418Z" fill="#B2B2B2"/>
<path d="M169.854 361.82L164.54 366.668C164.439 366.769 164.382 366.907 164.382 367.051C164.382 367.194 164.439 367.332 164.54 367.434C164.591 367.489 164.652 367.533 164.721 367.563C164.789 367.593 164.863 367.609 164.938 367.608C165.072 367.606 165.2 367.555 165.297 367.463L170.61 362.615C170.712 362.513 170.768 362.375 170.768 362.232C170.768 362.088 170.712 361.95 170.61 361.849C170.563 361.797 170.505 361.755 170.441 361.725C170.378 361.696 170.309 361.679 170.238 361.677C170.168 361.674 170.098 361.685 170.032 361.71C169.966 361.734 169.905 361.772 169.854 361.82Z" fill="#B2B2B2"/>
<path d="M144.644 365.165H144.712C144.785 365.157 144.856 365.134 144.92 365.097C144.985 365.06 145.041 365.011 145.085 364.952C145.13 364.893 145.161 364.826 145.179 364.754C145.196 364.682 145.199 364.608 145.187 364.535L143.742 353.442C143.718 353.304 143.642 353.181 143.53 353.098C143.418 353.015 143.278 352.979 143.139 352.996C143.001 353.014 142.874 353.084 142.786 353.192C142.698 353.3 142.655 353.439 142.666 353.578L144.12 364.68C144.13 364.812 144.189 364.936 144.287 365.026C144.384 365.115 144.511 365.165 144.644 365.165Z" fill="#B2B2B2"/>
<path d="M135.49 332.837C135.565 332.838 135.639 332.822 135.707 332.792C135.776 332.762 135.837 332.718 135.887 332.663L142.675 325.429C142.763 325.322 142.807 325.186 142.797 325.048C142.788 324.91 142.726 324.78 142.625 324.686C142.523 324.592 142.389 324.54 142.251 324.542C142.112 324.543 141.98 324.597 141.88 324.692L135.092 331.936C135.042 331.985 135.003 332.044 134.976 332.109C134.949 332.174 134.935 332.243 134.935 332.314C134.935 332.384 134.949 332.454 134.976 332.519C135.003 332.583 135.042 332.642 135.092 332.692C135.146 332.741 135.208 332.779 135.277 332.804C135.345 332.829 135.417 332.84 135.49 332.837Z" fill="#B2B2B2"/>
<path d="M122.265 353.49L124.708 351.551C124.8 351.456 124.854 351.332 124.86 351.2C124.867 351.069 124.825 350.939 124.743 350.836C124.662 350.733 124.545 350.663 124.415 350.639C124.286 350.616 124.152 350.64 124.039 350.708L122.265 352.123V353.49Z" fill="#B2B2B2"/>
<path d="M129.478 365.582C129.412 365.607 129.352 365.646 129.302 365.695C129.251 365.744 129.211 365.804 129.184 365.869C129.157 365.934 129.143 366.004 129.144 366.075C129.144 366.145 129.159 366.215 129.187 366.28L134.036 377.867C134.079 377.965 134.149 378.048 134.239 378.107C134.328 378.165 134.433 378.196 134.54 378.197C134.607 378.21 134.676 378.21 134.743 378.197C134.808 378.17 134.868 378.131 134.918 378.081C134.967 378.032 135.007 377.973 135.034 377.908C135.061 377.843 135.075 377.774 135.075 377.703C135.075 377.633 135.061 377.564 135.034 377.499L130.186 365.911C130.165 365.841 130.129 365.776 130.081 365.72C130.032 365.664 129.973 365.619 129.906 365.588C129.839 365.557 129.767 365.54 129.693 365.539C129.619 365.538 129.546 365.553 129.478 365.582Z" fill="#B2B2B2"/>
<path d="M188.665 396.862C188.765 396.956 188.897 397.008 189.034 397.008C189.106 397.009 189.178 396.994 189.245 396.966C189.312 396.938 189.372 396.896 189.421 396.843L196.209 389.6C196.305 389.496 196.356 389.357 196.351 389.216C196.345 389.074 196.284 388.94 196.18 388.843C196.076 388.747 195.937 388.696 195.796 388.701C195.654 388.707 195.52 388.768 195.423 388.873L188.636 396.106C188.588 396.157 188.551 396.218 188.526 396.284C188.502 396.35 188.49 396.42 188.493 396.49C188.496 396.56 188.512 396.63 188.542 396.693C188.571 396.757 188.613 396.815 188.665 396.862Z" fill="#B2B2B2"/>
<path d="M230.059 398.675C230.003 398.546 229.899 398.443 229.769 398.388C229.638 398.334 229.492 398.333 229.361 398.385C229.294 398.411 229.234 398.451 229.183 398.501C229.133 398.551 229.093 398.611 229.065 398.677C229.038 398.743 229.025 398.814 229.025 398.885C229.026 398.956 229.041 399.027 229.07 399.092L232.599 407.577H233.772L230.059 398.675Z" fill="#B2B2B2"/>
<path d="M206.273 401.381C206.171 401.28 206.034 401.223 205.89 401.223C205.747 401.223 205.609 401.28 205.507 401.381C205.406 401.483 205.349 401.62 205.349 401.764C205.349 401.907 205.406 402.045 205.507 402.147L211.238 407.548H212.809L206.273 401.381Z" fill="#B2B2B2"/>
<path d="M295.558 348.797C295.456 348.696 295.318 348.639 295.175 348.639C295.031 348.639 294.894 348.696 294.792 348.797C294.691 348.899 294.634 349.037 294.634 349.18C294.634 349.324 294.691 349.462 294.792 349.563L302.985 357.32C303.089 357.414 303.224 357.466 303.363 357.466C303.479 357.473 303.594 357.443 303.692 357.38C303.789 357.317 303.864 357.225 303.905 357.117C303.946 357.008 303.952 356.89 303.92 356.778C303.889 356.666 303.823 356.568 303.732 356.496L295.558 348.797Z" fill="#B2B2B2"/>
<path d="M251.157 304.417C251.056 304.319 250.92 304.264 250.779 304.264C250.638 304.264 250.502 304.319 250.401 304.417L243.614 311.66C243.563 311.709 243.522 311.768 243.494 311.833C243.466 311.898 243.452 311.968 243.452 312.038C243.452 312.109 243.466 312.179 243.494 312.244C243.522 312.309 243.563 312.368 243.614 312.417C243.713 312.51 243.845 312.563 243.982 312.562C244.055 312.562 244.128 312.547 244.195 312.517C244.262 312.487 244.321 312.443 244.37 312.387L251.157 305.154C251.25 305.054 251.301 304.922 251.301 304.785C251.301 304.649 251.25 304.517 251.157 304.417Z" fill="#B2B2B2"/>
<path d="M206.884 305.387C206.959 305.387 207.033 305.372 207.102 305.342C207.17 305.312 207.231 305.268 207.282 305.212C207.333 305.164 207.373 305.105 207.401 305.04C207.429 304.975 207.443 304.905 207.443 304.834C207.443 304.764 207.429 304.694 207.401 304.629C207.373 304.564 207.333 304.505 207.282 304.456L199.079 296.699C199.03 296.648 198.971 296.607 198.906 296.58C198.841 296.552 198.771 296.538 198.7 296.538C198.63 296.538 198.56 296.552 198.495 296.58C198.43 296.607 198.371 296.648 198.322 296.699C198.272 296.749 198.233 296.808 198.206 296.872C198.179 296.937 198.165 297.007 198.165 297.077C198.165 297.147 198.179 297.217 198.206 297.282C198.233 297.347 198.272 297.406 198.322 297.455L206.525 305.212C206.618 305.315 206.747 305.377 206.884 305.387Z" fill="#B2B2B2"/>
<path d="M205.439 379.157H205.507C205.578 379.147 205.646 379.124 205.707 379.088C205.769 379.052 205.823 379.005 205.866 378.948C205.909 378.891 205.941 378.827 205.959 378.758C205.978 378.689 205.982 378.617 205.972 378.546L204.528 367.444C204.504 367.306 204.428 367.183 204.316 367.1C204.203 367.017 204.063 366.98 203.925 366.998C203.786 367.015 203.66 367.086 203.572 367.194C203.483 367.302 203.44 367.44 203.451 367.58L204.906 378.682C204.918 378.814 204.98 378.936 205.079 379.024C205.178 379.113 205.307 379.16 205.439 379.157Z" fill="#B2B2B2"/>
<path d="M312.681 373.397L307.368 378.245C307.27 378.313 307.197 378.411 307.162 378.524C307.126 378.637 307.129 378.759 307.17 378.87C307.211 378.981 307.288 379.075 307.389 379.138C307.49 379.201 307.609 379.228 307.726 379.215C307.861 379.215 307.992 379.167 308.095 379.079L313.399 374.231C313.504 374.136 313.568 374.003 313.575 373.861C313.582 373.719 313.533 373.58 313.438 373.475C313.39 373.423 313.334 373.38 313.27 373.35C313.207 373.32 313.138 373.302 313.067 373.299C312.926 373.292 312.787 373.341 312.681 373.436V373.397Z" fill="#B2B2B2"/>
<path d="M319.323 346.111C319.268 345.982 319.164 345.879 319.033 345.824C318.903 345.77 318.757 345.769 318.625 345.821C318.559 345.847 318.499 345.887 318.448 345.937C318.397 345.987 318.357 346.047 318.33 346.113C318.303 346.179 318.289 346.25 318.29 346.321C318.291 346.392 318.306 346.463 318.334 346.528L323.182 358.106C323.224 358.205 323.294 358.29 323.384 358.349C323.474 358.408 323.579 358.438 323.687 358.436C323.754 358.449 323.823 358.449 323.89 358.436C324.022 358.38 324.127 358.274 324.182 358.142C324.236 358.009 324.236 357.86 324.181 357.728L319.323 346.111Z" fill="#B2B2B2"/>
<path d="M313.903 330.995C313.859 330.94 313.804 330.894 313.742 330.86C313.68 330.826 313.612 330.805 313.541 330.798C313.471 330.79 313.4 330.797 313.332 330.818C313.264 330.838 313.201 330.872 313.147 330.917L305.904 336.735C305.848 336.779 305.802 336.834 305.769 336.896C305.735 336.958 305.714 337.027 305.706 337.097C305.699 337.167 305.706 337.239 305.727 337.306C305.747 337.374 305.781 337.437 305.826 337.491C305.875 337.555 305.938 337.607 306.011 337.642C306.083 337.677 306.163 337.695 306.243 337.695C306.366 337.695 306.485 337.654 306.582 337.579L313.816 331.761C313.872 331.717 313.919 331.661 313.954 331.599C313.989 331.536 314.011 331.467 314.019 331.396C314.027 331.325 314.021 331.253 314.001 331.184C313.981 331.115 313.948 331.051 313.903 330.995Z" fill="#B2B2B2"/>
<path d="M298.835 392.111C298.704 392.168 298.601 392.274 298.547 392.406C298.493 392.538 298.492 392.686 298.544 392.819L303.392 404.396C303.432 404.495 303.5 404.58 303.588 404.64C303.676 404.701 303.78 404.734 303.886 404.735C303.957 404.749 304.029 404.749 304.1 404.735C304.229 404.68 304.332 404.576 304.387 404.445C304.441 404.315 304.442 404.169 304.391 404.037L299.542 392.45C299.519 392.381 299.481 392.318 299.433 392.263C299.384 392.209 299.325 392.164 299.259 392.133C299.193 392.101 299.122 392.083 299.049 392.079C298.976 392.076 298.903 392.086 298.835 392.111Z" fill="#B2B2B2"/>
<path d="M203.423 339.421C203.511 339.314 203.555 339.178 203.545 339.04C203.536 338.902 203.474 338.772 203.373 338.678C203.271 338.584 203.137 338.532 202.999 338.533C202.861 338.535 202.728 338.589 202.628 338.684L195.84 345.928C195.791 345.977 195.751 346.036 195.724 346.101C195.697 346.166 195.683 346.235 195.683 346.306C195.683 346.376 195.697 346.446 195.724 346.51C195.751 346.575 195.791 346.634 195.84 346.684C195.941 346.776 196.072 346.828 196.209 346.829C196.284 346.83 196.358 346.814 196.426 346.784C196.495 346.754 196.556 346.71 196.606 346.655L203.423 339.421Z" fill="#B2B2B2"/>
<path d="M231.911 333.409C231.821 333.299 231.692 333.227 231.551 333.211C231.409 333.195 231.267 333.235 231.155 333.322L223.921 339.14C223.826 339.207 223.755 339.303 223.719 339.413C223.683 339.524 223.684 339.644 223.723 339.754C223.761 339.864 223.835 339.958 223.932 340.022C224.029 340.086 224.144 340.117 224.26 340.11C224.38 340.11 224.497 340.069 224.59 339.993L231.833 334.175C231.89 334.131 231.937 334.076 231.972 334.013C232.007 333.95 232.028 333.881 232.036 333.809C232.043 333.737 232.035 333.665 232.014 333.597C231.993 333.528 231.958 333.464 231.911 333.409Z" fill="#B2B2B2"/>
<path d="M230.65 375.812L225.346 380.66C225.256 380.731 225.19 380.829 225.159 380.939C225.128 381.05 225.133 381.168 225.172 381.275C225.212 381.383 225.285 381.476 225.381 381.539C225.477 381.603 225.59 381.634 225.705 381.629C225.837 381.628 225.964 381.58 226.064 381.494L231.368 376.645C231.42 376.598 231.462 376.541 231.493 376.478C231.523 376.414 231.54 376.346 231.544 376.275C231.548 376.205 231.537 376.135 231.514 376.069C231.49 376.002 231.454 375.941 231.407 375.889C231.36 375.837 231.303 375.795 231.239 375.764C231.176 375.734 231.107 375.717 231.037 375.713C230.966 375.71 230.896 375.72 230.83 375.743C230.764 375.767 230.703 375.803 230.65 375.85V375.812Z" fill="#B2B2B2"/>
<path d="M211.228 327.048C211.362 327.048 211.491 326.996 211.587 326.903L216.901 322.055C217.002 321.953 217.059 321.815 217.059 321.672C217.059 321.528 217.002 321.39 216.901 321.289C216.851 321.239 216.792 321.199 216.727 321.172C216.663 321.145 216.593 321.131 216.523 321.131C216.452 321.131 216.383 321.145 216.318 321.172C216.253 321.199 216.194 321.239 216.144 321.289L210.841 326.137C210.75 326.208 210.685 326.306 210.653 326.416C210.622 326.527 210.627 326.645 210.667 326.752C210.706 326.86 210.78 326.953 210.875 327.016C210.971 327.08 211.084 327.111 211.199 327.106L211.228 327.048Z" fill="#B2B2B2"/>
<path d="M236.594 348.206C236.462 348.262 236.357 348.368 236.303 348.5C236.248 348.633 236.249 348.782 236.303 348.914L241.152 360.491C241.192 360.589 241.261 360.673 241.349 360.732C241.437 360.79 241.54 360.822 241.646 360.821C241.713 360.835 241.783 360.835 241.85 360.821C241.916 360.795 241.976 360.755 242.027 360.705C242.078 360.655 242.118 360.595 242.145 360.529C242.172 360.463 242.186 360.392 242.185 360.321C242.184 360.249 242.169 360.179 242.141 360.113L237.292 348.536C237.242 348.401 237.141 348.291 237.01 348.229C236.88 348.167 236.731 348.159 236.594 348.206Z" fill="#B2B2B2"/>
<path d="M217.434 278.887C217.39 278.831 217.336 278.784 217.274 278.749C217.213 278.715 217.145 278.693 217.074 278.684C217.004 278.676 216.932 278.682 216.864 278.702C216.796 278.722 216.733 278.755 216.678 278.8L209.444 284.617C209.333 284.707 209.262 284.836 209.246 284.978C209.229 285.119 209.269 285.261 209.357 285.374C209.408 285.438 209.472 285.49 209.546 285.525C209.62 285.561 209.702 285.578 209.784 285.577C209.904 285.577 210.02 285.536 210.113 285.461L217.356 279.643C217.412 279.599 217.458 279.544 217.491 279.482C217.525 279.42 217.546 279.352 217.554 279.281C217.561 279.211 217.554 279.14 217.533 279.072C217.513 279.004 217.479 278.941 217.434 278.887Z" fill="#B2B2B2"/>
<path d="M222.117 293.683C221.987 293.741 221.884 293.847 221.83 293.979C221.775 294.111 221.774 294.258 221.826 294.391L226.675 305.969C226.715 306.066 226.784 306.15 226.872 306.209C226.96 306.267 227.063 306.299 227.169 306.298C227.236 306.313 227.306 306.313 227.373 306.298C227.439 306.272 227.499 306.232 227.55 306.182C227.601 306.132 227.641 306.072 227.668 306.006C227.695 305.94 227.709 305.869 227.708 305.798C227.707 305.726 227.692 305.656 227.664 305.59L222.815 294.013C222.765 293.878 222.664 293.768 222.534 293.706C222.403 293.644 222.254 293.636 222.117 293.683Z" fill="#B2B2B2"/>
<path d="M217.017 390.259C217.14 390.258 217.259 390.217 217.356 390.143L224.59 384.325C224.7 384.236 224.771 384.107 224.787 383.966C224.802 383.825 224.761 383.684 224.672 383.574C224.583 383.463 224.454 383.392 224.314 383.377C224.173 383.361 224.031 383.402 223.921 383.491L216.678 389.309C216.622 389.353 216.576 389.408 216.543 389.47C216.509 389.532 216.488 389.6 216.48 389.671C216.473 389.741 216.48 389.812 216.501 389.88C216.521 389.948 216.555 390.011 216.6 390.065C216.65 390.127 216.714 390.177 216.786 390.21C216.858 390.244 216.937 390.261 217.017 390.259Z" fill="#B2B2B2"/>
<path d="M190.963 324.634H191.031C191.102 324.625 191.17 324.601 191.232 324.566C191.293 324.53 191.347 324.482 191.39 324.425C191.434 324.369 191.465 324.304 191.483 324.235C191.502 324.166 191.506 324.094 191.497 324.024L190.052 312.931C190.043 312.861 190.02 312.793 189.985 312.732C189.95 312.671 189.903 312.617 189.848 312.574C189.792 312.53 189.728 312.499 189.66 312.48C189.592 312.462 189.521 312.457 189.451 312.465C189.381 312.474 189.313 312.497 189.252 312.532C189.19 312.567 189.137 312.614 189.093 312.67C189.05 312.726 189.018 312.789 189 312.857C188.981 312.926 188.976 312.997 188.985 313.067L190.43 324.169C190.445 324.299 190.507 324.419 190.606 324.505C190.705 324.592 190.832 324.638 190.963 324.634Z" fill="#B2B2B2"/>
<path d="M220.993 359.687C221.093 359.781 221.224 359.833 221.361 359.832C221.435 359.832 221.507 359.817 221.574 359.787C221.641 359.757 221.701 359.713 221.749 359.657C221.799 359.608 221.839 359.549 221.866 359.484C221.893 359.419 221.907 359.35 221.907 359.279C221.907 359.209 221.893 359.139 221.866 359.075C221.839 359.01 221.799 358.951 221.749 358.901L213.546 351.144C213.445 351.046 213.309 350.991 213.168 350.991C213.027 350.991 212.891 351.046 212.79 351.144C212.739 351.193 212.698 351.252 212.67 351.317C212.643 351.382 212.628 351.452 212.628 351.522C212.628 351.593 212.643 351.663 212.67 351.728C212.698 351.793 212.739 351.852 212.79 351.9L220.993 359.687Z" fill="#B2B2B2"/>
<path d="M181.645 407.577H328.593V263.392C312.197 260.425 290.428 257.642 290.428 257.642L222.35 269.85C222.35 269.85 184.787 272.661 180.094 276.424C175.401 280.186 122.265 331.567 122.265 331.567V397.715L176.012 365.058L181.645 407.577Z" stroke="#263238" stroke-linecap="round" stroke-linejoin="round"/>
<path d="M276.815 307.404C276.815 307.404 266.488 326.661 261.3 343.561C256.113 360.462 247.726 408.352 247.726 408.352H293.298C293.298 408.352 297.991 348.235 305.972 327.591C313.952 306.948 314.892 303.186 314.892 303.186L276.815 307.404Z" fill="#369AFE" stroke="#263238" stroke-linecap="round" stroke-linejoin="round"/>
<path d="M231.058 296.389C231.058 296.389 253.36 316.896 278.57 325.167C303.781 333.438 320.875 315.122 322.388 308.819C323.901 302.517 279.646 309.343 260.225 302.866C240.803 296.389 228.896 289.194 231.058 296.389Z" fill="#263238" stroke="#263238" stroke-linecap="round" stroke-linejoin="round"/>
<path d="M237.845 238.86C237.845 238.86 233.617 234.633 229.865 243.553C226.442 251.689 219.364 271.77 219.063 270.791C220.944 276.89 218.093 285.81 234.577 298.483C251.061 311.156 277.115 320.552 291.854 320.552C307.823 320.552 318.615 315.859 322.378 308.82C326.14 301.78 326.596 293.305 326.596 287.691C326.596 282.077 325.19 276.89 322.378 268.909C319.566 260.929 305.477 252.949 298.903 245.435C292.329 237.92 298.389 239.801 284.814 234.604C271.239 229.406 253.786 231.792 248.666 232.723C243.546 233.653 237.845 238.86 237.845 238.86Z" fill="#263238" stroke="#263238" stroke-linecap="round" stroke-linejoin="round"/>
<path d="M236.904 230.88C236.904 230.88 238.785 258.108 240.211 265.632C241.636 273.156 269.794 289.107 279.646 288.166C289.497 287.226 290.913 273.147 289.982 264.226C289.051 255.305 286.22 237.93 286.22 237.93C286.22 237.93 259.933 246.385 250.537 238.899C241.142 231.414 236.904 230.88 236.904 230.88Z" fill="white" stroke="#263238" stroke-linecap="round" stroke-linejoin="round"/>
<path d="M240.443 259.911C252.86 258.181 265.05 255.096 276.795 250.709L287.005 242.952C286.53 239.937 286.2 237.91 286.2 237.91C286.2 237.91 259.914 246.365 250.518 238.88C241.122 231.394 236.943 230.9 236.943 230.9C236.943 230.9 238.213 249.323 239.445 259.989C239.755 259.969 240.094 259.96 240.443 259.911Z" fill="#263238" stroke="#263238" stroke-linecap="round" stroke-linejoin="round"/>
<path d="M319.489 264.168C319.944 268.046 319.615 275.755 310.616 277.83C298.409 280.642 270.241 277.83 250.993 268.434C234.393 260.367 232.454 243.961 232.241 239.529C231.234 240.731 230.431 242.091 229.865 243.553C226.103 252.474 217.687 263.033 218.385 269.375C218.646 271.702 218.123 285.81 234.558 298.464C250.994 311.117 277.096 320.533 291.835 320.533C307.804 320.533 318.596 315.84 322.359 308.8C326.121 301.76 326.577 293.286 326.577 287.672C326.577 282.058 325.171 276.87 322.359 268.89C321.677 267.164 320.707 265.567 319.489 264.168Z" fill="#369AFE" stroke="#263238" stroke-linecap="round" stroke-linejoin="round"/>
<path d="M320.826 286.964C322.129 285.622 323.346 284.2 324.472 282.707" stroke="#263238" stroke-linecap="round" stroke-linejoin="round"/>
<path d="M225.473 252.958C225.473 252.958 220.304 268.027 243.12 288.263C262.736 305.658 295.422 306.822 315.678 291.463" stroke="#263238" stroke-linecap="round" stroke-linejoin="round"/>
<path d="M225.899 264.585C225.899 264.585 225.036 291.269 252.157 309.353" stroke="#263238" stroke-linecap="round" stroke-linejoin="round"/>
<path d="M224.939 122.029C224.939 122.029 196.393 120.575 189.13 136.574C181.868 152.573 202.201 155.966 201.736 158.342C201.27 160.717 193.504 166.099 198.827 169.977C204.15 173.856 210.928 175.291 211.432 177.23C211.936 179.17 215.786 187.392 215.786 187.392C215.786 187.392 220.634 190.301 224.008 188.362C227.383 186.422 226.423 177.696 229.332 173.361C232.24 169.027 232.24 163.665 241.937 156.422C251.633 149.179 274.352 148.665 278.221 150.139C282.089 151.613 287.917 152.078 290.322 155.957C292.726 159.835 292.261 179.654 294.2 179.654C296.139 179.654 295.17 166.593 299.523 156.916C303.877 147.24 312.129 138.047 308.716 124.502C305.302 110.956 290.816 103.703 286.462 109.511C282.109 115.319 282.099 120.177 273.857 113.865C265.615 107.552 253.97 98.8547 236.061 103.645C218.152 108.435 216.232 112.837 224.939 122.029Z" fill="#263238" stroke="#263238" stroke-linecap="round" stroke-linejoin="round"/>
<path d="M239.106 108.687C237.849 108.231 236.55 107.906 235.227 107.717" stroke="#7D7D7D" stroke-linecap="round" stroke-linejoin="round"/>
<path d="M258.236 143.72C258.236 143.72 268.117 138.658 268.117 131.114C268.117 122.388 255.512 115.135 245.815 111.13" stroke="#7D7D7D" stroke-linecap="round" stroke-linejoin="round"/>
<path d="M255.638 144.583C255.638 144.583 258.828 133.558 247.406 128.099C239.271 124.22 229.196 123.765 229.196 123.765" stroke="#7D7D7D" stroke-linecap="round" stroke-linejoin="round"/>
<path d="M200.388 137.175C199.137 137.175 198.042 137.175 197.121 137.175" stroke="#7D7D7D" stroke-linecap="round" stroke-linejoin="round"/>
<path d="M246.998 140.684C246.998 140.684 241.364 134.178 227.052 135.477C218.277 136.282 210.966 136.748 205.42 137" stroke="#7D7D7D" stroke-linecap="round" stroke-linejoin="round"/>
<path d="M291.059 131.172C292.337 130.251 293.537 129.227 294.646 128.108C300.716 122.048 294.646 113.37 294.646 113.37" stroke="#7D7D7D" stroke-linecap="round" stroke-linejoin="round"/>
<path d="M282.08 135.478C284.036 134.998 285.921 134.261 287.684 133.286" stroke="#7D7D7D" stroke-linecap="round" stroke-linejoin="round"/>
<path d="M222.65 154.027C222.65 154.027 211.354 164.063 205.711 165.313" stroke="#7D7D7D" stroke-linecap="round" stroke-linejoin="round"/>
<path d="M291.534 174.273C291.534 174.273 293.066 163.325 301.376 168.086C309.686 172.847 302.51 188.836 300.406 193.927C298.302 199.018 293.861 201.219 292.591 196.545C291.321 191.871 291.534 174.273 291.534 174.273Z" fill="white" stroke="#263238" stroke-linecap="round" stroke-linejoin="round"/>
<path d="M220.101 180.566C220.101 180.566 215.747 170.404 208.969 177.182C202.192 183.959 213.323 197.544 216.726 201.859C220.13 206.174 224.949 207.182 224.949 202.344C224.949 197.505 220.101 180.566 220.101 180.566Z" fill="white" stroke="#263238" stroke-linecap="round" stroke-linejoin="round"/>
<path d="M221.283 173.643C221.283 173.643 224.454 216.374 230.262 228.466C236.07 240.557 256.384 255.557 269.93 255.072C283.476 254.588 295.14 235.68 297.021 220.728C298.902 205.776 293.637 153.959 293.637 153.959C293.637 153.959 289.284 138.959 281.546 137.989C273.808 137.019 265.576 144.777 257.354 145.252C249.131 145.727 242.809 137.495 234.131 140.898C225.453 144.301 221.526 151.564 224.939 154.473C228.352 157.382 231.726 159.796 227.848 165.139C223.969 170.482 221.283 173.643 221.283 173.643Z" fill="white" stroke="#263238" stroke-linecap="round" stroke-linejoin="round"/>
<path d="M290.739 163.151C290.739 163.151 288.315 160.242 282.982 160.242C279.699 160.289 276.502 161.3 273.79 163.151" stroke="#263238" stroke-width="3" stroke-linecap="round" stroke-linejoin="round"/>
<path d="M253.485 167.99C253.485 167.99 243.324 163.636 235.576 172.343" stroke="#263238" stroke-width="3" stroke-linecap="round" stroke-linejoin="round"/>
<path d="M249.131 181.777C249.131 184.318 247.938 186.374 246.464 186.374C244.991 186.374 243.808 184.318 243.808 181.777C243.808 179.237 245 177.181 246.464 177.181C247.929 177.181 249.131 179.237 249.131 181.777Z" fill="#263238"/>
<path d="M280.577 177.909C280.577 180.45 279.384 182.505 277.91 182.505C276.436 182.505 275.253 180.45 275.253 177.909C275.253 175.369 276.446 173.313 277.91 173.313C279.374 173.313 280.577 175.369 280.577 177.909Z" fill="#263238"/>
<path d="M240.415 188.313L250.092 188.798" stroke="#263238" stroke-linecap="round" stroke-linejoin="round"/>
<path d="M278.637 186.859L286.385 182.99" stroke="#263238" stroke-linecap="round" stroke-linejoin="round"/>
<path d="M297.021 220.728C297.778 214.91 297.438 203.585 296.74 191.881C296.466 195.602 295.75 199.277 294.607 202.829C292.183 209.616 292.183 212.021 290.728 213.495C289.274 214.968 287.82 211.555 285.405 208.171C282.991 204.787 261.213 208.171 261.213 208.171C258.789 207.686 247.182 209.626 241.82 211.565C236.458 213.504 235.527 219.788 236.002 222.231C236.477 224.674 230.689 218.847 227.78 210.595C224.871 202.344 221.962 187.857 221.962 187.857C221.962 187.857 223.184 197.554 224.541 208.036C226.228 216.481 228.187 224.316 230.194 228.495C236.012 240.586 256.316 255.586 269.862 255.102C283.408 254.617 295.092 235.719 297.021 220.728Z" fill="#263238" stroke="#263238" stroke-linecap="round" stroke-linejoin="round"/>
<path d="M239.988 239.2C239.988 239.2 245.961 247.025 257.926 252.086" stroke="#7D7D7D" stroke-linecap="round" stroke-linejoin="round"/>
<path d="M255.415 220.728C255.415 220.728 258.799 227.011 266.081 227.981C273.363 228.951 275.273 217.819 275.273 217.819L256.404 218.789C256.404 218.789 254.445 217.819 255.415 220.728Z" fill="white" stroke="#263238" stroke-linecap="round" stroke-linejoin="round"/>
<path d="M253.485 218.789C253.485 218.789 255.424 230.425 265.576 232.364C275.728 234.303 278.181 216.85 278.181 216.85L253.485 218.789Z" fill="white" stroke="#263238" stroke-linecap="round" stroke-linejoin="round"/>
<path d="M260.02 219.225C260.02 219.225 260.99 224.927 265.954 225.877C270.919 226.827 272.131 218.275 272.131 218.275L260.02 219.225Z" fill="#263238" stroke="#263238" stroke-linecap="round" stroke-linejoin="round"/>
<path d="M282.991 215.405C282.991 215.405 270.9 220.728 263.598 220.728C258.517 220.576 253.478 219.761 248.608 218.304C248.608 218.304 262.183 214.425 268.437 214.425C274.691 214.425 282.991 215.405 282.991 215.405Z" fill="white" stroke="#263238" stroke-linecap="round" stroke-linejoin="round"/>
<path d="M272.354 166.05C272.354 166.05 266.536 174.282 267.031 175.747C267.525 177.211 274.788 202.848 271.384 206.717C267.981 210.586 262.658 210.101 258.779 207.686C254.9 205.272 251.022 201.403 252.496 199.464C253.488 198.254 254.851 197.406 256.374 197.05" fill="white"/>
<path d="M272.354 166.05C272.354 166.05 266.536 174.282 267.031 175.747C267.525 177.211 274.788 202.848 271.384 206.717C267.981 210.586 262.658 210.101 258.779 207.686C254.9 205.272 251.022 201.403 252.496 199.464C253.488 198.254 254.851 197.406 256.374 197.05" stroke="#263238" stroke-linecap="round" stroke-linejoin="round"/>
<path d="M127.568 256.711L135.713 236.029C135.713 236.029 136.683 234.09 132.659 228.766C128.635 223.443 130.245 217.489 132.921 206.339C135.19 196.865 138.739 162.269 139.776 152.107C139.857 151.273 140.189 150.482 140.73 149.842C141.27 149.201 141.993 148.74 142.801 148.519C143.42 148.349 144.069 148.324 144.699 148.446C145.328 148.568 145.921 148.833 146.432 149.222C146.942 149.61 147.356 150.111 147.641 150.685C147.926 151.26 148.075 151.892 148.076 152.533V182.718L153.312 183.019L159.13 145.019C159.283 144.082 159.75 143.224 160.455 142.588C161.16 141.952 162.061 141.574 163.009 141.518C163.597 141.486 164.185 141.578 164.736 141.789C165.286 141.999 165.786 142.323 166.203 142.739C166.62 143.155 166.945 143.654 167.156 144.204C167.368 144.754 167.461 145.342 167.43 145.93L165.627 183.746L168.535 184.115L177.117 146.367C177.343 145.334 177.944 144.421 178.803 143.805C179.663 143.189 180.72 142.913 181.771 143.031C182.888 143.156 183.912 143.715 184.621 144.587C185.33 145.46 185.668 146.576 185.562 147.695L181.955 184.958L196.286 157.1C196.644 156.407 197.231 155.86 197.947 155.55C198.663 155.241 199.464 155.189 200.213 155.404C200.666 155.532 201.088 155.754 201.45 156.055C201.811 156.356 202.106 156.73 202.314 157.152C202.523 157.574 202.64 158.036 202.659 158.506C202.678 158.977 202.598 159.446 202.424 159.883L187.754 196.982C187.754 196.982 193.571 192.075 199.341 187.615C205.11 183.155 210.007 183.61 208.252 188.953C206.497 194.296 202.017 196.982 197.111 203.662C192.204 210.343 189.528 219.264 185.475 226.4C181.422 233.537 167.508 236.029 167.508 236.029C167.508 236.029 152.042 263.402 150.704 264.294L127.568 256.711Z" fill="white" stroke="#263238" stroke-linecap="round" stroke-linejoin="round"/>
<path d="M143.673 182.525L184.757 185.395" stroke="#263238" stroke-linecap="round" stroke-linejoin="round"/>
<path d="M156.416 230.928C156.416 230.928 152.091 222.386 162.34 209.461C172.589 196.535 178.388 198.32 178.388 198.32" fill="white"/>
<path d="M156.416 230.928C156.416 230.928 152.091 222.386 162.34 209.461C172.589 196.535 178.388 198.32 178.388 198.32" stroke="#263238" stroke-linecap="round" stroke-linejoin="round"/>
<path d="M120.586 319.97L146.291 273.204L123.117 252.697L120.586 254.733V319.97Z" fill="white"/>
<path d="M122.885 276.385C123.008 276.387 123.128 276.346 123.225 276.269L130.468 270.451C130.567 270.357 130.628 270.229 130.637 270.093C130.647 269.957 130.604 269.822 130.519 269.715C130.433 269.609 130.31 269.538 130.175 269.518C130.04 269.498 129.902 269.53 129.789 269.607L122.555 275.425C122.445 275.515 122.373 275.644 122.357 275.785C122.341 275.927 122.381 276.069 122.468 276.181C122.517 276.245 122.581 276.297 122.653 276.332C122.725 276.367 122.805 276.385 122.885 276.385Z" fill="#B2B2B2"/>
<path d="M135.965 284.802C135.91 284.672 135.806 284.569 135.675 284.515C135.545 284.46 135.399 284.459 135.267 284.511C135.135 284.566 135.03 284.672 134.976 284.805C134.921 284.937 134.921 285.086 134.976 285.219L137.012 290.067L137.672 288.864L135.965 284.802Z" fill="#B2B2B2"/>
<path d="M120.586 319.97L146.291 273.204L123.117 252.697L120.586 254.733V319.97Z" stroke="#263238" stroke-linecap="round" stroke-linejoin="round"/>
<path d="M127.122 242.448L120.586 251.96V259.242L146.737 279.449L161.001 259.834L127.122 242.448Z" fill="white" stroke="#263238" stroke-linecap="round" stroke-linejoin="round"/>
<path d="M177.567 391.082C185.166 390.328 190.715 383.556 189.96 375.957C189.206 368.358 182.434 362.809 174.835 363.563C167.236 364.318 161.687 371.09 162.442 378.689C163.196 386.288 169.968 391.837 177.567 391.082Z" fill="white" stroke="#263238" stroke-width="0.724166" stroke-linecap="round" stroke-linejoin="round"/>
<path d="M176.215 380.737C175.474 380.737 174.764 380.443 174.24 379.919C173.717 379.396 173.422 378.685 173.422 377.945V369.102C173.422 368.361 173.717 367.651 174.24 367.127C174.764 366.603 175.474 366.309 176.215 366.309C176.954 366.312 177.662 366.607 178.183 367.13C178.705 367.654 178.998 368.363 178.998 369.102V377.945C178.998 378.684 178.705 379.393 178.183 379.916C177.662 380.439 176.954 380.735 176.215 380.737Z" fill="#263238"/>
<path d="M176.215 382.744C174.907 382.741 173.653 382.221 172.728 381.296C171.803 380.371 171.282 379.117 171.28 377.808V373.658C171.28 373.522 171.334 373.391 171.43 373.295C171.527 373.199 171.657 373.145 171.794 373.145C171.861 373.145 171.927 373.158 171.989 373.184C172.051 373.21 172.107 373.248 172.154 373.296C172.201 373.343 172.238 373.4 172.262 373.463C172.287 373.525 172.299 373.591 172.298 373.658V377.808C172.298 378.846 172.71 379.841 173.444 380.575C174.178 381.309 175.173 381.721 176.21 381.721C177.248 381.721 178.243 381.309 178.977 380.575C179.711 379.841 180.123 378.846 180.123 377.808V373.658C180.123 373.522 180.177 373.391 180.273 373.295C180.37 373.199 180.5 373.145 180.637 373.145C180.773 373.145 180.904 373.199 181 373.295C181.097 373.391 181.151 373.522 181.151 373.658V377.808C181.148 379.117 180.627 380.371 179.702 381.296C178.777 382.221 177.523 382.741 176.215 382.744Z" fill="#263238"/>
<path d="M176.215 388.049C176.078 388.049 175.948 387.994 175.851 387.898C175.755 387.802 175.701 387.671 175.701 387.535V382.231C175.701 382.094 175.755 381.964 175.851 381.867C175.948 381.771 176.078 381.717 176.215 381.717C176.351 381.717 176.482 381.771 176.578 381.867C176.674 381.964 176.728 382.094 176.728 382.231V387.535C176.728 387.671 176.674 387.802 176.578 387.898C176.482 387.994 176.351 388.049 176.215 388.049Z" fill="#263238"/>
<path d="M179.608 388.32H172.821C172.69 388.312 172.566 388.255 172.476 388.159C172.386 388.064 172.336 387.937 172.336 387.806C172.336 387.739 172.349 387.672 172.375 387.611C172.401 387.549 172.439 387.493 172.487 387.446C172.535 387.399 172.592 387.362 172.654 387.337C172.716 387.312 172.783 387.3 172.85 387.302H179.637C179.771 387.302 179.899 387.355 179.994 387.449C180.088 387.544 180.142 387.672 180.142 387.806C180.143 387.875 180.13 387.944 180.103 388.009C180.077 388.073 180.037 388.131 179.987 388.179C179.937 388.228 179.878 388.265 179.812 388.289C179.747 388.313 179.678 388.324 179.608 388.32Z" fill="#263238"/>
<path d="M270.968 390.739C278.398 388.974 282.989 381.519 281.223 374.09C279.458 366.66 272.003 362.069 264.574 363.835C257.144 365.601 252.553 373.055 254.319 380.484C256.085 387.914 263.539 392.505 270.968 390.739Z" fill="white" stroke="#263238" stroke-width="0.724166" stroke-linecap="round" stroke-linejoin="round"/>
<path d="M276.272 373.261L272.209 375.598V373.659C272.209 373.221 272.035 372.802 271.726 372.493C271.417 372.184 270.998 372.01 270.561 372.01H261.436C260.999 372.01 260.58 372.184 260.271 372.493C259.962 372.802 259.788 373.221 259.788 373.659V381.018C259.788 381.455 259.962 381.875 260.271 382.184C260.58 382.493 260.999 382.667 261.436 382.667H270.561C270.998 382.667 271.417 382.493 271.726 382.184C272.035 381.875 272.209 381.455 272.209 381.018V379.079L276.243 381.416L276.272 373.261Z" fill="#263238"/>
<path d="M225.192 390.746C232.621 388.98 237.212 381.526 235.447 374.096C233.681 366.667 226.226 362.075 218.797 363.841C211.368 365.607 206.776 373.061 208.542 380.491C210.308 387.92 217.762 392.512 225.192 390.746Z" fill="#263238" stroke="#263238" stroke-width="0.724166" stroke-linecap="round" stroke-linejoin="round"/>
<path d="M228.973 374.396H215C214.613 374.395 214.229 374.48 213.878 374.644C213.526 374.808 213.215 375.048 212.967 375.346C212.719 375.644 212.54 375.994 212.442 376.369C212.344 376.745 212.331 377.137 212.402 377.518L212.809 379.7C212.836 379.85 212.915 379.985 213.032 380.083C213.149 380.18 213.297 380.233 213.449 380.233H217.667C217.839 380.233 218.005 380.165 218.126 380.043C218.248 379.921 218.317 379.756 218.317 379.584V377.208H225.666V379.584C225.666 379.756 225.735 379.921 225.857 380.043C225.979 380.165 226.144 380.233 226.316 380.233H230.515C230.667 380.233 230.814 380.18 230.931 380.083C231.048 379.985 231.127 379.85 231.155 379.7L231.562 377.518C231.633 377.138 231.62 376.746 231.522 376.371C231.425 375.997 231.247 375.648 231 375.35C230.753 375.052 230.443 374.812 230.093 374.647C229.742 374.482 229.36 374.397 228.973 374.396Z" fill="#369AFE"/>
<path d="M336.108 143.303C336.295 143.304 336.48 143.268 336.653 143.198C336.826 143.127 336.983 143.023 337.115 142.891C337.248 142.76 337.353 142.603 337.425 142.431C337.496 142.259 337.533 142.074 337.533 141.887V103.751C337.533 103.565 337.496 103.38 337.425 103.207C337.353 103.035 337.248 102.878 337.115 102.747C336.983 102.615 336.826 102.511 336.653 102.441C336.48 102.37 336.295 102.334 336.108 102.336H332.404V29.4966C332.405 27.0917 331.933 24.7101 331.013 22.4879C330.094 20.2657 328.746 18.2465 327.046 16.5455C325.345 14.8445 323.327 13.4952 321.105 12.5746C318.884 11.654 316.502 11.1802 314.097 11.1802H135.316C132.911 11.1802 130.53 11.654 128.308 12.5746C126.086 13.4952 124.068 14.8445 122.368 16.5455C120.668 18.2465 119.319 20.2657 118.4 22.4879C117.481 24.7101 117.008 27.0917 117.009 29.4966V405.376C117.009 410.231 118.938 414.887 122.371 418.32C125.804 421.754 130.461 423.682 135.316 423.682H314.097C318.953 423.682 323.609 421.754 327.042 418.32C330.475 414.887 332.404 410.231 332.404 405.376V176.086H336.108C336.484 176.086 336.845 175.937 337.112 175.672C337.38 175.407 337.531 175.047 337.533 174.67V157.702C337.533 157.515 337.496 157.33 337.425 157.158C337.353 156.985 337.248 156.829 337.115 156.697C336.983 156.566 336.826 156.462 336.653 156.391C336.48 156.32 336.295 156.285 336.108 156.286H332.404V143.303H336.108ZM326.218 391.112C326.195 392.85 325.83 394.567 325.144 396.164C324.457 397.761 323.463 399.208 322.218 400.42C320.973 401.633 319.501 402.589 317.886 403.233C316.272 403.877 314.546 404.196 312.808 404.173H136.615C134.876 404.198 133.15 403.879 131.534 403.236C129.918 402.592 128.445 401.637 127.199 400.424C125.952 399.211 124.957 397.764 124.27 396.167C123.584 394.569 123.218 392.851 123.196 391.112V33.4527C123.218 31.7133 123.584 29.9953 124.27 28.3971C124.957 26.7988 125.952 25.3514 127.198 24.1377C128.444 22.9239 129.917 21.9675 131.533 21.3231C133.149 20.6787 134.876 20.3589 136.615 20.382H206.061L208.969 25.7344C210.529 28.5468 212.812 30.8906 215.583 32.5226C218.353 34.1546 221.51 35.0152 224.726 35.0152C227.942 35.0152 231.099 34.1546 233.869 32.5226C236.64 30.8906 238.924 28.5468 240.483 25.7344L243.392 20.382H312.846C316.352 20.3458 319.728 21.7017 322.235 24.1521C324.742 26.6026 326.174 29.9474 326.218 33.4527V391.112Z" fill="#263238" stroke="#263238" stroke-linecap="round" stroke-linejoin="round"/>
<path d="M229.487 22.428C229.487 21.483 229.207 20.5591 228.682 19.7732C228.157 18.9873 227.411 18.3746 226.538 18.0125C225.665 17.6504 224.705 17.5552 223.778 17.7389C222.851 17.9225 221.999 18.3768 221.33 19.0444C220.661 19.712 220.205 20.5628 220.019 21.4895C219.834 22.4161 219.927 23.377 220.287 24.2506C220.648 25.1243 221.259 25.8715 222.044 26.398C222.829 26.9244 223.752 27.2064 224.697 27.2083C225.325 27.2096 225.948 27.0869 226.529 26.8472C227.11 26.6075 227.638 26.2556 228.083 25.8116C228.528 25.3676 228.881 24.8402 229.122 24.2596C229.363 23.679 229.487 23.0566 229.487 22.428Z" fill="white" stroke="#263238" stroke-linecap="round" stroke-linejoin="round"/>
<path d="M197.063 44.1184H138.061V145.688H197.063V44.1184Z" fill="white" stroke="white" stroke-width="3" stroke-linecap="round" stroke-linejoin="round"/>
<path d="M197.062 145.688V114.659C196.59 114.029 196.032 113.467 195.404 112.992C190.469 109.258 175.129 111.178 172.23 111.343C169.331 111.508 165.055 111.498 165.055 111.498C165.055 111.498 156.522 111.799 149.347 112.099C147.19 112.241 145.092 112.868 143.212 113.934C141.331 115.001 139.716 116.478 138.487 118.257V145.688H197.062Z" fill="#369AFE" stroke="#263238" stroke-linecap="round" stroke-linejoin="round"/>
<path d="M158.763 111.538C156.757 111.891 154.919 112.882 153.522 114.364C152.124 115.845 151.242 117.737 151.006 119.76C149.958 127.091 152.499 131.58 158.481 135.614C162.007 137.993 165.343 140.641 168.459 143.536C168.459 143.536 181.171 132.773 183.11 125.888C185.049 119.004 182.218 113.031 179.077 111.984C175.935 110.937 158.763 111.538 158.763 111.538Z" fill="#A3A3A3" stroke="#263238" stroke-miterlimit="10"/>
<path d="M197.063 145.688V138.426L194.658 139.056L193.834 145.688H197.063Z" fill="#A3A3A3" stroke="#263238" stroke-miterlimit="10"/>
<path d="M144.479 145.688L143.965 143.535L138.487 142.992V145.688H144.479Z" fill="#A3A3A3" stroke="#263238" stroke-miterlimit="10"/>
<path d="M140.979 129.931L144.004 142.924" stroke="#263238" stroke-miterlimit="10"/>
<path d="M194.638 98.8545C195.162 98.4473 196.103 97.8849 197.092 97.1286V68.5437C195.986 67.5741 194.241 67.0117 193.843 65.7706C193.242 63.9283 195.24 61.4654 193.843 59.2062C192.447 56.9469 187.056 59.0025 184.467 58.382C181.878 57.7614 181.277 56.5397 180.288 54.2804C179.299 52.0212 175.469 53.049 174.276 53.2817C173.083 53.5144 177.263 49.4032 175.071 46.9209C172.88 44.4386 165.695 46.7173 164.9 49.1801C164.105 51.643 161.108 49.1801 160.313 47.1245C159.518 45.0689 153.739 43.246 153.739 46.9209C153.723 47.6109 153.845 48.2972 154.1 48.9387C154.355 49.5802 154.737 50.1636 155.223 50.654C153.332 49.4613 150.297 47.9778 148.348 49.1801C145.362 51.0224 149.948 53.4853 149.948 53.4853H144.363C142.305 53.5939 140.298 54.1604 138.487 55.1434V62.7356H138.584H138.487V109.666C140.62 109.666 142.171 109.016 142.171 110.093C142.171 111.731 142.773 114.805 145.963 113.583C149.153 112.362 151.781 110.093 151.781 111.731C151.781 113.37 153.371 116.453 155.368 115.61C157.366 114.766 158.762 110.684 159.955 112.536C161.147 114.388 164.143 117.249 166.141 115.203C168.138 113.157 169.127 111.508 171.522 114.582C173.917 117.656 176.904 118.276 177.699 115.203C178.494 112.129 180.297 113.564 183.284 115.203C186.27 116.841 190.663 116.017 190.663 112.943C190.663 109.87 189.063 107.203 191.06 106.786C193.058 106.369 197.043 105.147 196.044 103.092C195.046 101.036 193.019 100.037 194.638 98.8545Z" fill="#263238"/>
<path d="M194.018 143.516C194.625 138.636 195.239 133.758 195.86 128.884" stroke="#263238" stroke-miterlimit="10"/>
<path d="M159.373 122.455C159.373 122.455 159.819 114.524 159.819 111.789V105.506L174.169 104.604C174.169 104.604 174.916 115.823 177.912 120.458" fill="#A3A3A3"/>
<path d="M159.373 122.455C159.373 122.455 159.819 114.524 159.819 111.789V105.506L174.169 104.604C174.169 104.604 174.916 115.823 177.912 120.458" stroke="#263238" stroke-miterlimit="10"/>
<path d="M149.783 88.6541C149.783 88.6541 146.729 91.9993 146.729 93.1435C146.729 94.2876 148.833 97.342 150.452 97.8171C152.072 98.2922 152.644 97.1577 152.644 96.4887C152.644 95.8196 149.783 88.6541 149.783 88.6541Z" fill="#A3A3A3" stroke="#263238" stroke-linecap="round" stroke-linejoin="round"/>
<path d="M180.307 87.3157C180.307 87.3157 184.428 89.1871 184.884 90.2246C185.34 91.2621 184.603 94.9079 183.294 95.9842C183.129 96.1807 182.916 96.3319 182.677 96.4237C182.437 96.5155 182.178 96.5449 181.924 96.509C181.67 96.4731 181.429 96.3732 181.224 96.2186C181.019 96.064 180.857 95.8599 180.753 95.6254C180.491 95.0243 180.307 87.3157 180.307 87.3157Z" fill="#A3A3A3" stroke="#263238" stroke-miterlimit="10"/>
<path d="M154.428 69.8336C154.428 69.8336 148.891 73.4503 148.251 78.5603C147.611 83.6703 152.13 100.057 154.001 102.801C155.872 105.545 166.344 111.945 169.321 111.528C172.298 111.111 179.328 101.521 180.608 99.3881C181.888 97.2549 180.821 81.3044 179.754 74.4878C178.688 67.6713 171.241 66.1877 164.24 66.1877C157.24 66.1877 154.428 69.8336 154.428 69.8336Z" fill="#A3A3A3" stroke="#263238" stroke-linecap="round" stroke-linejoin="round"/>
<path d="M161.73 86.3557C161.73 87.3253 161.235 88.1592 160.615 88.1592C159.994 88.1592 159.5 87.3447 159.5 86.3557C159.5 85.3667 160.004 84.5425 160.615 84.5425C161.225 84.5425 161.73 85.357 161.73 86.3557Z" fill="#263238"/>
<path d="M173.675 84.9695C173.675 85.9392 173.18 86.7731 172.56 86.7731C171.939 86.7731 171.445 85.9683 171.445 84.9695C171.445 83.9708 171.949 83.166 172.56 83.166C173.171 83.166 173.675 83.9708 173.675 84.9695Z" fill="#263238"/>
<path d="M168.458 83.1951C168.458 83.1951 168.003 88.6638 169.224 89.0129C170.446 89.3619 171.503 92.0478 169.224 92.9593C166.946 93.8708 165.879 92.8138 165.569 91.7472" stroke="#263238" stroke-linecap="round" stroke-linejoin="round"/>
<path d="M157.482 89.1196L161.584 88.9741" stroke="#263238" stroke-width="0.5" stroke-linecap="round" stroke-linejoin="round"/>
<path d="M172.221 87.752L175.722 86.0842" stroke="#263238" stroke-width="0.5" stroke-linecap="round" stroke-linejoin="round"/>
<path d="M152.508 68.1368C152.508 68.1368 156.124 69.1937 154.854 70.9002C153.584 72.6068 151.024 75.3702 152.915 75.7484C154.806 76.1265 155.262 76.6017 153.982 77.0186C152.702 77.4356 150.365 79.3651 153.768 79.7918C157.172 80.2184 158.616 79.3651 159.732 76.3884C160.847 73.4116 160.788 74.2552 163.348 75.7484C165.908 77.2416 167.818 72.5583 166.752 70.9002C165.685 69.2421 163.988 70.4736 164.202 67.9234C164.289 66.4593 164.805 65.0531 165.685 63.8801L168.875 65.8193C168.875 65.8193 166.325 67.9525 168.245 69.8627C170.165 71.7729 172.502 72.2092 171.008 72.6359C169.515 73.0625 167.392 75.6126 170.155 76.0393C172.919 76.4659 174.838 74.546 174.838 72.8395C174.838 71.1329 173.559 69.4361 174.838 68.1658L177.602 65.3927C177.602 65.3927 177.185 62.0087 169.535 60.6803C161.884 59.3519 155.708 62.6195 154.428 63.8801C153.148 65.1406 152.508 68.1368 152.508 68.1368Z" fill="#263238"/>
<path d="M159.731 97.0314C159.731 97.0314 162.912 101.366 164.793 102.413C166.674 103.46 170.427 103.062 172.133 101.686C173.84 100.309 175.149 95.4412 175.149 95.4412C172.575 96.6656 169.79 97.3864 166.946 97.5647C164.528 97.6949 162.104 97.5157 159.731 97.0314Z" fill="#A6A6A6" stroke="#263238" stroke-width="0.5" stroke-miterlimit="10"/>
<path d="M163.145 98.3409C163.692 99.0085 164.38 99.5463 165.16 99.9152C165.939 100.284 166.791 100.475 167.654 100.474C168.896 100.394 170.088 99.9528 171.084 99.2054C172.079 98.4579 172.835 97.4364 173.259 96.2659L161.623 97.3713L163.145 98.3409Z" fill="white" stroke="#263238" stroke-linecap="round" stroke-linejoin="round"/>
<path d="M175.469 94.8013C174.56 95.3983 173.493 95.709 172.405 95.6933C170.965 95.7842 169.538 96.028 168.149 96.4206C166.975 96.1805 165.761 96.2271 164.609 96.5563C162.822 96.8456 161.002 96.8684 159.208 96.6242C159.208 96.6242 161.739 98.3501 167.867 97.8944C174.878 97.3805 175.469 94.8013 175.469 94.8013Z" fill="#808080" stroke="#263238" stroke-width="0.5" stroke-miterlimit="10"/>
<path d="M155.097 82.8172C155.902 81.7704 156.955 80.9406 158.161 80.4028C160.77 79.1325 162.379 79.7628 162.379 79.7628" stroke="#263238" stroke-width="2" stroke-miterlimit="10" stroke-linecap="round"/>
<path d="M169.186 78.0172C169.967 77.594 170.825 77.3314 171.709 77.2448C172.594 77.1583 173.486 77.2494 174.335 77.513C175.194 77.7903 175.957 78.3045 176.536 78.9965" stroke="#263238" stroke-width="2" stroke-miterlimit="10" stroke-linecap="round"/>
<path d="M15.2559 423.682H448.683" stroke="#263238" stroke-linecap="round" stroke-linejoin="round"/>
</svg>
