<svg width="557" height="437" viewBox="0 0 557 437" fill="none" xmlns="http://www.w3.org/2000/svg">
<path d="M539.71 287.93H533.835H267.89H262.015V299.708H267.89V419.417H533.835V299.708H539.71V287.93Z" fill="#FA5087"/>
<path opacity="0.5" d="M539.71 287.93H533.835H267.89H262.015V299.708H267.89V419.417H533.835V299.708H539.71V287.93Z" fill="white"/>
<path d="M275.015 350.444H347.543V311.722H275.015V350.444ZM276.487 313.152H346.07V349.055H276.487V313.152Z" fill="white"/>
<path d="M365.084 350.444H437.626V311.722H365.084V350.444ZM366.584 313.194H436.182V349.055H366.584V313.194Z" fill="white"/>
<path d="M455.168 311.722V350.444H527.696V311.722H455.168ZM526.224 349.055H456.64V313.194H526.224V349.055Z" fill="white"/>
<path d="M275.015 402.5H347.543V363.736H275.015V402.5ZM276.487 365.208H346.07V401.028H276.487V365.208Z" fill="white"/>
<path d="M365.084 402.5H437.626V363.736H365.084V402.5ZM366.584 365.208H436.182V401.028H366.584V365.208Z" fill="white"/>
<path d="M455.168 402.5H527.696V363.736H455.168V402.5ZM456.64 365.208H526.224V401.028H456.64V365.208Z" fill="white"/>
<path d="M312.056 336.014C318.561 336.014 323.834 334.036 323.834 331.597C323.834 329.158 318.561 327.18 312.056 327.18C305.551 327.18 300.278 329.158 300.278 331.597C300.278 334.036 305.551 336.014 312.056 336.014Z" fill="white"/>
<path d="M401.695 336.014C408.2 336.014 413.473 334.036 413.473 331.597C413.473 329.158 408.2 327.18 401.695 327.18C395.191 327.18 389.917 329.158 389.917 331.597C389.917 334.036 395.191 336.014 401.695 336.014Z" fill="white"/>
<path d="M493.932 336.014C500.437 336.014 505.71 334.036 505.71 331.597C505.71 329.158 500.437 327.18 493.932 327.18C487.427 327.18 482.154 329.158 482.154 331.597C482.154 334.036 487.427 336.014 493.932 336.014Z" fill="white"/>
<path d="M312.056 379.195C305.556 379.195 300.278 381.167 300.278 383.611C300.278 386.056 305.556 388.014 312.056 388.014C318.556 388.014 323.834 386.042 323.834 383.611C323.834 381.181 318.556 379.195 312.056 379.195Z" fill="white"/>
<path d="M401.695 379.195C395.195 379.195 389.917 381.167 389.917 383.611C389.917 386.056 395.195 388.014 401.695 388.014C408.195 388.014 413.473 386.042 413.473 383.611C413.473 381.181 408.251 379.195 401.695 379.195Z" fill="white"/>
<path d="M493.931 379.195C487.431 379.195 482.167 381.167 482.167 383.611C482.167 386.056 487.431 388.014 493.931 388.014C500.431 388.014 505.709 386.042 505.709 383.611C505.709 381.181 500.445 379.195 493.931 379.195Z" fill="white"/>
<path d="M229.334 277.639C223.973 285.597 216.501 295.944 212.515 304.25C214.029 298.778 215.515 293.597 216.862 288.972C218.904 284.958 224.376 274.833 230.751 268.139C238.765 259.555 242.196 254.041 237.876 253.569C234.89 253.236 226.14 264.889 220.654 276.458C221.848 272.5 222.793 269.514 223.432 267.722C223.696 266.917 223.946 266.042 224.196 265.111C229.87 257.172 235.038 248.882 239.668 240.291C247.765 225.166 250.376 210.889 244.973 217.027C240.001 222.68 231.348 250.791 224.473 264.014C225.057 261.736 225.612 259.222 226.098 256.736C227.071 254.333 228.348 251.889 229.071 249.666C230.196 246.25 231.182 242.805 231.973 239.291C233.279 233.832 233.941 228.238 233.946 222.625C234.085 216.031 232.289 209.541 228.779 203.958C227.848 202.569 222.154 194.055 220.446 198.402C220.223 199.127 220.18 199.894 220.321 200.639C221.154 207.875 223.779 214.527 225.404 221.569C227.834 232.111 226.223 249.805 225.404 257.333C225.098 258.528 224.709 260 224.251 261.708C225.376 248.597 219.696 233.055 214.432 230.333C207.918 226.972 214.307 240.166 219.334 251.694C221.716 256.739 222.836 262.287 222.598 267.861C221.571 271.639 220.39 275.903 219.168 280.208C218.918 280.792 218.696 281.389 218.473 281.972C219.038 279.162 219.267 276.295 219.154 273.43C218.682 265.903 210.154 250.833 204.487 252.958C198.82 255.083 208.418 263.028 213.543 272.278C216.232 277.393 217.265 283.216 216.501 288.944C216.501 289.292 216.39 289.625 216.348 289.944C215.751 291.917 215.168 293.805 214.612 295.611C213.223 299.778 212.043 303.778 210.862 307.639C212.313 302.037 212.949 296.255 212.751 290.472C212.043 279.444 205.584 269.028 200.251 267.597C194.918 266.167 205.098 284.167 208.515 294.278C210.373 300.183 210.688 306.466 209.432 312.528C207.779 318 206.223 323.403 204.626 329.111C205.072 321.633 204.91 314.132 204.14 306.681C203.098 294.403 195.807 286.569 190.779 286.889C185.751 287.208 191.001 294.18 198.251 309.111C202.079 316.95 203.784 325.657 203.195 334.361C202.543 336.764 201.807 339.236 201.195 341.82C200.418 344.764 199.807 347.972 199.251 351.25C198.529 348.32 197.445 344.042 196.182 339.32C194.71 334.099 193.642 328.773 192.987 323.389C192.307 317.125 190.654 309.306 184.515 306.056C184.098 305.765 183.622 305.569 183.121 305.482C182.62 305.394 182.106 305.418 181.615 305.55C181.124 305.682 180.668 305.921 180.279 306.248C179.89 306.575 179.577 306.983 179.362 307.444C178.799 308.788 178.673 310.275 179.001 311.694C179.816 315.955 181.218 320.083 183.168 323.958C181.962 326.271 181.414 328.87 181.584 331.472C181.584 332.445 181.668 333.417 181.737 334.389C181.195 333.389 180.682 332.472 180.195 331.611C179.313 330.138 178.228 328.797 176.973 327.625C177.288 325.324 177.446 323.003 177.445 320.681C177.445 317.639 173.876 309.875 170.654 315.625C169.362 317.931 169.612 322.444 169.487 325.444C168.612 326.278 168.348 327.972 169.084 330.639C168.584 337.583 168.487 344.695 170.168 351.472L169.056 349.542C167.491 341.507 166.562 333.361 166.279 325.181C165.876 311.667 168.029 300.583 164.348 296.417C160.668 292.25 158.612 306.903 160.181 322.875C160.921 330.163 162.864 337.278 165.931 343.931C162.32 337.445 158.751 330.833 155.376 324.486C153.987 321.083 150.543 311.875 151.39 302.542C152.459 290.778 153.237 281.139 148.765 274.514C144.292 267.889 143.362 272.194 145.556 286C147.056 295.472 148.654 308.139 151.404 316.931C148.793 311.889 146.334 307.097 144.14 302.764C142.89 298.431 139.973 287.305 139.973 278.069C139.973 266.319 138.723 260.014 135.251 262.555C132.834 264.347 134.39 278.847 138.279 291.042C136.459 287.333 135.084 284.486 134.292 282.805C133.931 282.042 133.529 281.222 133.07 280.375C131.799 270.701 129.921 261.118 127.445 251.68C123.042 235.097 115.195 222.875 115.445 231.055C115.667 238.583 128.529 265.028 132.542 279.389C131.404 277.319 130.084 275.111 128.751 272.958C127.82 270.528 127.084 267.875 126.098 265.764C124.584 262.5 122.959 259.305 121.14 256.194C118.361 251.302 115.019 246.753 111.181 242.639C106.736 237.576 100.879 233.959 94.3618 232.25C92.7229 231.861 82.7784 229.472 84.4728 233.916C84.7896 234.594 85.2662 235.185 85.8617 235.639C91.4173 240.361 97.8618 243.43 103.917 247.472C112.89 253.528 123.792 267.555 128.292 273.653L130.431 277.639C122.306 267.278 107.542 259.805 101.848 261.416C94.7923 263.403 108.459 268.68 120.001 273.667C125.187 275.727 129.792 279.021 133.417 283.264C135.251 286.736 137.292 290.639 139.334 294.625C139.57 295.222 139.792 295.805 140.029 296.389C138.528 293.95 136.742 291.698 134.709 289.68C129.223 284.514 112.695 279.305 110.015 284.722C107.334 290.139 119.737 289.417 129.82 292.667C135.251 294.572 139.961 298.108 143.306 302.792C143.501 303.069 143.681 303.361 143.876 303.625C144.792 305.458 145.654 307.25 146.473 308.944C148.362 312.931 150.168 316.667 151.931 320.292C149.178 315.189 145.703 310.511 141.612 306.403C133.556 298.819 121.723 295.625 116.82 298.264C111.917 300.903 131.667 307.056 141.07 312.153C146.46 315.203 150.978 319.583 154.195 324.875C156.723 330 159.265 335.014 162.001 340.278C157.224 334.509 151.989 329.135 146.348 324.208C137.195 315.944 126.515 315.194 123.056 318.861C119.598 322.528 128.195 324.042 143.667 329.972C151.81 333.088 158.993 338.284 164.501 345.042C165.668 347.25 166.862 349.514 168.14 351.875C169.529 354.542 171.293 357.32 173.154 360.084C170.626 358.445 166.904 356.056 162.765 353.472C158.12 350.661 153.704 347.49 149.556 343.986C144.779 339.889 138.237 335.292 131.501 337.111C130.999 337.184 130.52 337.367 130.097 337.646C129.674 337.924 129.317 338.293 129.052 338.725C128.787 339.157 128.62 339.642 128.563 340.145C128.506 340.649 128.561 341.159 128.723 341.639C129.214 343.013 130.134 344.191 131.348 345C137.681 349.903 146.195 352.264 153.57 355.167C160.329 357.826 167.256 360.035 174.306 361.778C176.056 364.292 177.876 366.778 179.709 369.139L176.404 369.236C172.487 369.361 154.82 361.347 145.848 358.778C136.876 356.208 128.487 361.07 137.89 366.125C147.292 371.181 172.862 370.056 172.862 370.056L180.237 369.834C181.973 372.056 183.668 374.167 185.279 376.097H150.237V385.82H157.181L162.737 420.389H209.307L214.932 385.82H221.876V376.097H198.668C198.48 371.896 198.591 367.686 199.001 363.5C200.55 361.926 202.268 360.528 204.126 359.333C214.321 352.292 231.598 351.708 236.196 338.139C237.307 334.875 236.043 330.681 232.14 330.861C229.362 330.986 226.348 333.458 224.598 335.472C218.765 342.208 214.376 349.195 206.793 354.306C204.187 356.309 201.684 358.441 199.293 360.695C199.557 358.486 199.89 356.125 200.32 353.597C202.153 350.347 204.243 347.249 206.57 344.333C212.779 336.625 222.223 332.111 228.932 324.764C230.987 322.514 233.696 314.431 227.418 316.431C224.64 317.319 221.334 321.556 219.084 323.486C212.904 329.042 206.584 334.958 202.557 342.264C202.723 341.542 202.904 340.875 203.07 340.097C207.403 333.149 212.285 326.559 217.668 320.389C226.584 310.25 235.723 303.611 235.876 298.056C236.029 292.5 224.529 301.806 214.765 314.528C210.336 320.364 206.901 326.892 204.598 333.847C206.39 326.653 208.293 319.375 210.154 312.403C211.432 308.931 215.223 299.903 222.209 293.639C231.029 285.764 238.168 279.264 239.432 271.417C240.696 263.569 237.154 266.055 229.334 277.639ZM180.015 366.972C178.695 365.181 177.32 363.236 175.848 361.084C174.971 357.432 174.386 353.717 174.098 349.972C173.92 346.785 174.069 343.588 174.543 340.431C176.913 343.366 179.43 346.18 182.084 348.861C182.021 351.638 181.681 354.402 181.07 357.111C180.55 360.378 180.198 363.669 180.015 366.972ZM187.57 376.125C185.779 374.222 183.82 371.959 181.695 369.181C181.749 366.978 182.052 364.788 182.598 362.653C183.446 359.287 184.667 356.026 186.237 352.931C189.529 356.056 191.945 358.125 191.945 358.125L197.501 363C197.07 367.847 196.82 372.403 196.668 376.097L187.57 376.125ZM197.57 362.153L195.084 359.972C193.695 358.722 191.195 353.889 188.473 348.32C189.634 345.976 190.664 343.57 191.557 341.111C194.501 346.57 197.112 350.833 198.654 353.097C198.209 356.111 197.862 359.181 197.57 362.153Z" fill="#FA5087"/>
<path opacity="0.5" d="M229.334 277.639C223.973 285.597 216.501 295.944 212.515 304.25C214.029 298.778 215.515 293.597 216.862 288.972C218.904 284.958 224.376 274.833 230.751 268.139C238.765 259.555 242.196 254.041 237.876 253.569C234.89 253.236 226.14 264.889 220.654 276.458C221.848 272.5 222.793 269.514 223.432 267.722C223.696 266.917 223.946 266.042 224.196 265.111C229.87 257.172 235.038 248.882 239.668 240.291C247.765 225.166 250.376 210.889 244.973 217.027C240.001 222.68 231.348 250.791 224.473 264.014C225.057 261.736 225.612 259.222 226.098 256.736C227.071 254.333 228.348 251.889 229.071 249.666C230.196 246.25 231.182 242.805 231.973 239.291C233.279 233.832 233.941 228.238 233.946 222.625C234.085 216.031 232.289 209.541 228.779 203.958C227.848 202.569 222.154 194.055 220.446 198.402C220.223 199.127 220.18 199.894 220.321 200.639C221.154 207.875 223.779 214.527 225.404 221.569C227.834 232.111 226.223 249.805 225.404 257.333C225.098 258.528 224.709 260 224.251 261.708C225.376 248.597 219.696 233.055 214.432 230.333C207.918 226.972 214.307 240.166 219.334 251.694C221.716 256.739 222.836 262.287 222.598 267.861C221.571 271.639 220.39 275.903 219.168 280.208C218.918 280.792 218.696 281.389 218.473 281.972C219.038 279.162 219.267 276.295 219.154 273.43C218.682 265.903 210.154 250.833 204.487 252.958C198.82 255.083 208.418 263.028 213.543 272.278C216.232 277.393 217.265 283.216 216.501 288.944C216.501 289.292 216.39 289.625 216.348 289.944C215.751 291.917 215.168 293.805 214.612 295.611C213.223 299.778 212.043 303.778 210.862 307.639C212.313 302.037 212.949 296.255 212.751 290.472C212.043 279.444 205.584 269.028 200.251 267.597C194.918 266.167 205.098 284.167 208.515 294.278C210.373 300.183 210.688 306.466 209.432 312.528C207.779 318 206.223 323.403 204.626 329.111C205.072 321.633 204.91 314.132 204.14 306.681C203.098 294.403 195.807 286.569 190.779 286.889C185.751 287.208 191.001 294.18 198.251 309.111C202.079 316.95 203.784 325.657 203.195 334.361C202.543 336.764 201.807 339.236 201.195 341.82C200.418 344.764 199.807 347.972 199.251 351.25C198.529 348.32 197.445 344.042 196.182 339.32C194.71 334.099 193.642 328.773 192.987 323.389C192.307 317.125 190.654 309.306 184.515 306.056C184.098 305.765 183.622 305.569 183.121 305.482C182.62 305.394 182.106 305.418 181.615 305.55C181.124 305.682 180.668 305.921 180.279 306.248C179.89 306.575 179.577 306.983 179.362 307.444C178.799 308.788 178.673 310.275 179.001 311.694C179.816 315.955 181.218 320.083 183.168 323.958C181.962 326.271 181.414 328.87 181.584 331.472C181.584 332.445 181.668 333.417 181.737 334.389C181.195 333.389 180.682 332.472 180.195 331.611C179.313 330.138 178.228 328.797 176.973 327.625C177.288 325.324 177.446 323.003 177.445 320.681C177.445 317.639 173.876 309.875 170.654 315.625C169.362 317.931 169.612 322.444 169.487 325.444C168.612 326.278 168.348 327.972 169.084 330.639C168.584 337.583 168.487 344.695 170.168 351.472L169.056 349.542C167.491 341.507 166.562 333.361 166.279 325.181C165.876 311.667 168.029 300.583 164.348 296.417C160.668 292.25 158.612 306.903 160.181 322.875C160.921 330.163 162.864 337.278 165.931 343.931C162.32 337.445 158.751 330.833 155.376 324.486C153.987 321.083 150.543 311.875 151.39 302.542C152.459 290.778 153.237 281.139 148.765 274.514C144.292 267.889 143.362 272.194 145.556 286C147.056 295.472 148.654 308.139 151.404 316.931C148.793 311.889 146.334 307.097 144.14 302.764C142.89 298.431 139.973 287.305 139.973 278.069C139.973 266.319 138.723 260.014 135.251 262.555C132.834 264.347 134.39 278.847 138.279 291.042C136.459 287.333 135.084 284.486 134.292 282.805C133.931 282.042 133.529 281.222 133.07 280.375C131.799 270.701 129.921 261.118 127.445 251.68C123.042 235.097 115.195 222.875 115.445 231.055C115.667 238.583 128.529 265.028 132.542 279.389C131.404 277.319 130.084 275.111 128.751 272.958C127.82 270.528 127.084 267.875 126.098 265.764C124.584 262.5 122.959 259.305 121.14 256.194C118.361 251.302 115.019 246.753 111.181 242.639C106.736 237.576 100.879 233.959 94.3618 232.25C92.7229 231.861 82.7784 229.472 84.4728 233.916C84.7896 234.594 85.2662 235.185 85.8617 235.639C91.4173 240.361 97.8618 243.43 103.917 247.472C112.89 253.528 123.792 267.555 128.292 273.653L130.431 277.639C122.306 267.278 107.542 259.805 101.848 261.416C94.7923 263.403 108.459 268.68 120.001 273.667C125.187 275.727 129.792 279.021 133.417 283.264C135.251 286.736 137.292 290.639 139.334 294.625C139.57 295.222 139.792 295.805 140.029 296.389C138.528 293.95 136.742 291.698 134.709 289.68C129.223 284.514 112.695 279.305 110.015 284.722C107.334 290.139 119.737 289.417 129.82 292.667C135.251 294.572 139.961 298.108 143.306 302.792C143.501 303.069 143.681 303.361 143.876 303.625C144.792 305.458 145.654 307.25 146.473 308.944C148.362 312.931 150.168 316.667 151.931 320.292C149.178 315.189 145.703 310.511 141.612 306.403C133.556 298.819 121.723 295.625 116.82 298.264C111.917 300.903 131.667 307.056 141.07 312.153C146.46 315.203 150.978 319.583 154.195 324.875C156.723 330 159.265 335.014 162.001 340.278C157.224 334.509 151.989 329.135 146.348 324.208C137.195 315.944 126.515 315.194 123.056 318.861C119.598 322.528 128.195 324.042 143.667 329.972C151.81 333.088 158.993 338.284 164.501 345.042C165.668 347.25 166.862 349.514 168.14 351.875C169.529 354.542 171.293 357.32 173.154 360.084C170.626 358.445 166.904 356.056 162.765 353.472C158.12 350.661 153.704 347.49 149.556 343.986C144.779 339.889 138.237 335.292 131.501 337.111C130.999 337.184 130.52 337.367 130.097 337.646C129.674 337.924 129.317 338.293 129.052 338.725C128.787 339.157 128.62 339.642 128.563 340.145C128.506 340.649 128.561 341.159 128.723 341.639C129.214 343.013 130.134 344.191 131.348 345C137.681 349.903 146.195 352.264 153.57 355.167C160.329 357.826 167.256 360.035 174.306 361.778C176.056 364.292 177.876 366.778 179.709 369.139L176.404 369.236C172.487 369.361 154.82 361.347 145.848 358.778C136.876 356.208 128.487 361.07 137.89 366.125C147.292 371.181 172.862 370.056 172.862 370.056L180.237 369.834C181.973 372.056 183.668 374.167 185.279 376.097H150.237V385.82H157.181L162.737 420.389H209.307L214.932 385.82H221.876V376.097H198.668C198.48 371.896 198.591 367.686 199.001 363.5C200.55 361.926 202.268 360.528 204.126 359.333C214.321 352.292 231.598 351.708 236.196 338.139C237.307 334.875 236.043 330.681 232.14 330.861C229.362 330.986 226.348 333.458 224.598 335.472C218.765 342.208 214.376 349.195 206.793 354.306C204.187 356.309 201.684 358.441 199.293 360.695C199.557 358.486 199.89 356.125 200.32 353.597C202.153 350.347 204.243 347.249 206.57 344.333C212.779 336.625 222.223 332.111 228.932 324.764C230.987 322.514 233.696 314.431 227.418 316.431C224.64 317.319 221.334 321.556 219.084 323.486C212.904 329.042 206.584 334.958 202.557 342.264C202.723 341.542 202.904 340.875 203.07 340.097C207.403 333.149 212.285 326.559 217.668 320.389C226.584 310.25 235.723 303.611 235.876 298.056C236.029 292.5 224.529 301.806 214.765 314.528C210.336 320.364 206.901 326.892 204.598 333.847C206.39 326.653 208.293 319.375 210.154 312.403C211.432 308.931 215.223 299.903 222.209 293.639C231.029 285.764 238.168 279.264 239.432 271.417C240.696 263.569 237.154 266.055 229.334 277.639ZM180.015 366.972C178.695 365.181 177.32 363.236 175.848 361.084C174.971 357.432 174.386 353.717 174.098 349.972C173.92 346.785 174.069 343.588 174.543 340.431C176.913 343.366 179.43 346.18 182.084 348.861C182.021 351.638 181.681 354.402 181.07 357.111C180.55 360.378 180.198 363.669 180.015 366.972ZM187.57 376.125C185.779 374.222 183.82 371.959 181.695 369.181C181.749 366.978 182.052 364.788 182.598 362.653C183.446 359.287 184.667 356.026 186.237 352.931C189.529 356.056 191.945 358.125 191.945 358.125L197.501 363C197.07 367.847 196.82 372.403 196.668 376.097L187.57 376.125ZM197.57 362.153L195.084 359.972C193.695 358.722 191.195 353.889 188.473 348.32C189.634 345.976 190.664 343.57 191.557 341.111C194.501 346.57 197.112 350.833 198.654 353.097C198.209 356.111 197.862 359.181 197.57 362.153Z" fill="white"/>
<path d="M92.3477 16.0825V156.916H199.292V16.0825H92.3477ZM191.876 147.097H99.8199V25.9159H191.876V147.097Z" fill="#FA5087"/>
<path opacity="0.5" d="M92.3477 16.0825V156.916H199.292V16.0825H92.3477ZM191.876 147.097H99.8199V25.9159H191.876V147.097Z" fill="white"/>
<path d="M466.584 84.7913V188.792H545.585V84.7913H466.584ZM540.071 181.528H472.14V92.1107H540.113L540.071 181.528Z" fill="#FA5087"/>
<path opacity="0.5" d="M466.584 84.7913V188.792H545.585V84.7913H466.584ZM540.071 181.528H472.14V92.1107H540.113L540.071 181.528Z" fill="white"/>
<path d="M14.8887 434.918C18.8748 421.418 60.1666 281.084 60.0277 280.028C59.8888 278.973 63.4027 260.125 71.625 244.417C79.8472 228.709 91.2639 211.209 92.6945 209.07C94.8715 205.584 96.3262 201.697 96.9723 197.639C98.0417 191.931 109.472 176.208 113.042 171.931C116.611 167.653 127.32 145.153 128.042 141.583C128.764 138.014 133.028 135.153 138.75 134.083C144.472 133.014 152.32 131.944 152.32 131.944C153.772 133.653 154.647 135.778 154.82 138.014C154.82 141.222 141.959 217.986 141.25 230.848C140.542 243.709 142.32 250.834 136.611 264.056C130.903 277.278 114.111 285.473 105.903 290.834C97.6945 296.195 98.3195 297.306 98.3195 297.306C98.3195 297.306 102.958 425.82 102.847 435.918" fill="white"/>
<g style="mix-blend-mode:multiply" opacity="0.7">
<path d="M160.042 216.153C158.556 209.5 148.931 213.194 148.931 213.194C142.377 220.307 134.308 225.856 125.32 229.43C110.276 235.119 95.7389 242.065 81.8615 250.194C83.4449 247.014 85.1671 243.806 87.0282 240.472C96.6255 223.5 113.598 200.625 123.139 197.666C129.028 195.861 134.903 199.597 138.57 202.764L138.987 134.013H138.751C133.028 135.083 128.751 137.944 128.042 141.513C127.334 145.083 116.612 167.569 113.042 171.861C109.473 176.152 98.0422 191.861 96.9727 197.569C96.3267 201.627 94.872 205.515 92.6949 209C91.306 211.139 79.8338 228.625 71.6254 244.347C63.417 260.069 59.8892 278.889 60.0281 279.958C60.1254 280.736 44.2364 338.292 34.1392 374.514C42.4725 358.125 55.4309 331.611 63.3059 312.014C66.4032 311.709 72.4032 303.32 77.3754 296.486C83.2782 288.375 92.1255 286.153 109.848 272.875C127.57 259.597 147.473 241.139 150.431 233.764C153.39 226.389 161.515 222.792 160.042 216.153Z" fill="#FA5087"/>
</g>
<path d="M14.8887 434.918C18.8748 421.418 60.1666 281.084 60.0277 280.028C59.8888 278.973 63.4027 260.125 71.625 244.417C79.8472 228.709 91.2639 211.209 92.6945 209.07C94.8715 205.584 96.3262 201.697 96.9723 197.639C98.0417 191.931 109.472 176.208 113.042 171.931C116.611 167.653 127.32 145.153 128.042 141.583C128.764 138.014 133.028 135.153 138.75 134.083C144.472 133.014 152.32 131.944 152.32 131.944C153.772 133.653 154.647 135.778 154.82 138.014C154.82 141.222 141.959 217.986 141.25 230.848C140.542 243.709 142.32 250.834 136.611 264.056C130.903 277.278 114.111 285.473 105.903 290.834C97.6945 296.195 98.3195 297.306 98.3195 297.306C98.3195 297.306 102.958 425.82 102.847 435.918" stroke="#2E353A" stroke-linecap="round" stroke-linejoin="round"/>
<path d="M138.028 219.417C138.028 219.417 134.112 219.055 130.181 211.917" stroke="#2E353A" stroke-linecap="round" stroke-linejoin="round"/>
<path d="M133.751 173.361C133.751 173.361 144.862 175.5 146.251 184.778" stroke="#2E353A" stroke-linecap="round" stroke-linejoin="round"/>
<path d="M137.319 144.43C139.777 146.3 141.811 148.669 143.288 151.381C144.765 154.094 145.651 157.088 145.889 160.167" stroke="#2E353A" stroke-linecap="round" stroke-linejoin="round"/>
<path d="M497.349 219.445L496.474 71.1523C496.47 66.8302 494.751 62.6864 491.693 59.6315C488.636 56.5766 484.49 54.8606 480.168 54.8606H155.653C151.332 54.8606 147.189 56.577 144.133 59.6323C141.078 62.6876 139.362 66.8315 139.362 71.1523L138.473 219.445C138.471 221.606 138.895 223.747 139.722 225.745C140.548 227.743 141.76 229.558 143.289 231.086C144.818 232.615 146.633 233.827 148.631 234.654C150.628 235.48 152.769 235.905 154.931 235.903H480.89C483.052 235.905 485.193 235.48 487.191 234.654C489.189 233.827 491.004 232.615 492.532 231.086C494.061 229.558 495.273 227.743 496.1 225.745C496.926 223.747 497.351 221.606 497.349 219.445Z" fill="#2E353A" stroke="#363636" stroke-width="0.868674" stroke-linecap="round" stroke-linejoin="round"/>
<path d="M479.113 227.847L478.404 62.8328H157.417L156.723 227.847H479.113Z" fill="white" stroke="#363636" stroke-width="0.651505" stroke-linecap="round" stroke-linejoin="round"/>
<path d="M478.404 62.8328H157.417L157.389 71.0689H188.223L196.112 82.3467H478.488L478.404 62.8328Z" fill="#FA5087" stroke="#2E353A" stroke-linecap="round" stroke-linejoin="round"/>
<g style="mix-blend-mode:multiply" opacity="0.5">
<path d="M478.405 95.6663L252.779 227.847H479.113L478.405 95.6663Z" fill="#FA5087"/>
</g>
<path d="M489.868 145.295C489.885 143.922 488.787 142.795 487.414 142.777C486.041 142.76 484.914 143.858 484.896 145.231C484.878 146.604 485.977 147.731 487.35 147.749C488.723 147.767 489.85 146.668 489.868 145.295Z" fill="white"/>
<path d="M182.14 123.124C189.481 123.124 195.432 117.174 195.432 109.833C195.432 102.492 189.481 96.541 182.14 96.541C174.799 96.541 168.848 102.492 168.848 109.833C168.848 117.174 174.799 123.124 182.14 123.124Z" fill="#FA5087" stroke="#2E353A" stroke-linecap="round" stroke-linejoin="round"/>
<path d="M182.14 177.777C189.481 177.777 195.432 171.826 195.432 164.486C195.432 157.145 189.481 151.194 182.14 151.194C174.799 151.194 168.848 157.145 168.848 164.486C168.848 171.826 174.799 177.777 182.14 177.777Z" fill="white" stroke="#2E353A" stroke-linecap="round" stroke-linejoin="round"/>
<path d="M272.973 123.124C280.314 123.124 286.265 117.174 286.265 109.833C286.265 102.492 280.314 96.541 272.973 96.541C265.633 96.541 259.682 102.492 259.682 109.833C259.682 117.174 265.633 123.124 272.973 123.124Z" fill="white" stroke="#2E353A" stroke-linecap="round" stroke-linejoin="round"/>
<path d="M272.973 177.777C280.314 177.777 286.265 171.826 286.265 164.486C286.265 157.145 280.314 151.194 272.973 151.194C265.633 151.194 259.682 157.145 259.682 164.486C259.682 171.826 265.633 177.777 272.973 177.777Z" fill="#FA5087" stroke="#2E353A" stroke-linecap="round" stroke-linejoin="round"/>
<path d="M363.821 123.124C371.162 123.124 377.113 117.174 377.113 109.833C377.113 102.492 371.162 96.541 363.821 96.541C356.48 96.541 350.529 102.492 350.529 109.833C350.529 117.174 356.48 123.124 363.821 123.124Z" fill="#FA5087" stroke="#2E353A" stroke-linecap="round" stroke-linejoin="round"/>
<path d="M363.821 177.777C371.162 177.777 377.113 171.826 377.113 164.486C377.113 157.145 371.162 151.194 363.821 151.194C356.48 151.194 350.529 157.145 350.529 164.486C350.529 171.826 356.48 177.777 363.821 177.777Z" fill="#FA5087" stroke="#2E353A" stroke-width="2" stroke-linecap="round" stroke-linejoin="round"/>
<path d="M454.655 123.124C461.996 123.124 467.947 117.174 467.947 109.833C467.947 102.492 461.996 96.541 454.655 96.541C447.314 96.541 441.363 102.492 441.363 109.833C441.363 117.174 447.314 123.124 454.655 123.124Z" fill="#FA5087" stroke="#2E353A" stroke-linecap="round" stroke-linejoin="round"/>
<path d="M454.655 177.777C461.996 177.777 467.947 171.826 467.947 164.486C467.947 157.145 461.996 151.194 454.655 151.194C447.314 151.194 441.363 157.145 441.363 164.486C441.363 171.826 447.314 177.777 454.655 177.777Z" fill="white" stroke="#2E353A" stroke-linecap="round" stroke-linejoin="round"/>
<path d="M205.237 127.833H248.779" stroke="#2E353A" stroke-linecap="round" stroke-linejoin="round"/>
<path d="M205.237 137.875H248.779" stroke="#2E353A" stroke-linecap="round" stroke-linejoin="round"/>
<path d="M205.237 147.93H248.779" stroke="#2E353A" stroke-linecap="round" stroke-linejoin="round"/>
<path d="M294.834 127.833H338.376" stroke="#2E353A" stroke-linecap="round" stroke-linejoin="round"/>
<path d="M294.834 137.875H338.376" stroke="#2E353A" stroke-linecap="round" stroke-linejoin="round"/>
<path d="M294.834 147.93H338.376" stroke="#2E353A" stroke-linecap="round" stroke-linejoin="round"/>
<path d="M390.293 127.833H433.835" stroke="#2E353A" stroke-linecap="round" stroke-linejoin="round"/>
<path d="M390.293 137.875H433.835" stroke="#2E353A" stroke-linecap="round" stroke-linejoin="round"/>
<path d="M390.293 147.93H433.835" stroke="#2E353A" stroke-linecap="round" stroke-linejoin="round"/>
<path d="M205.237 184.694H248.779" stroke="#2E353A" stroke-linecap="round" stroke-linejoin="round"/>
<path d="M205.237 194.75H248.779" stroke="#2E353A" stroke-linecap="round" stroke-linejoin="round"/>
<path d="M205.237 204.792H248.779" stroke="#2E353A" stroke-linecap="round" stroke-linejoin="round"/>
<path d="M294.834 184.694H338.376" stroke="#2E353A" stroke-linecap="round" stroke-linejoin="round"/>
<path d="M294.834 194.75H338.376" stroke="#2E353A" stroke-linecap="round" stroke-linejoin="round"/>
<path d="M294.834 204.792H338.376" stroke="#2E353A" stroke-linecap="round" stroke-linejoin="round"/>
<path d="M390.293 184.694H433.835" stroke="#2E353A" stroke-linecap="round" stroke-linejoin="round"/>
<path d="M390.293 194.75H433.835" stroke="#2E353A" stroke-linecap="round" stroke-linejoin="round"/>
<path d="M390.293 204.792H433.835" stroke="#2E353A" stroke-linecap="round" stroke-linejoin="round"/>
<path d="M337.598 165.167H345.848" stroke="#2E353A" stroke-linecap="round" stroke-linejoin="round"/>
<path d="M364.696 148.68V138.375" stroke="#2E353A" stroke-linecap="round" stroke-linejoin="round"/>
<path d="M346.432 149.861L351.737 153.986" stroke="#2E353A" stroke-linecap="round" stroke-linejoin="round"/>
<path d="M352.918 175.764L346.432 179.305" stroke="#2E353A" stroke-linecap="round" stroke-linejoin="round"/>
<path d="M392.376 165.167H384.126" stroke="#2E353A" stroke-linecap="round" stroke-linejoin="round"/>
<path d="M383.529 149.861L378.237 153.986" stroke="#2E353A" stroke-linecap="round" stroke-linejoin="round"/>
<path d="M358.279 192.472L365.223 217.278" stroke="#2E353A" stroke-linecap="round" stroke-linejoin="round"/>
<path d="M351.321 189.486L355.294 202.389" stroke="#2E353A" stroke-linecap="round" stroke-linejoin="round"/>
<path d="M522.474 425.723C522.474 425.723 489.487 364.89 484.793 354.223C480.099 343.556 476.557 326.751 475.404 322.14C473.737 316.729 473.583 310.965 474.96 305.473C476.696 297.695 475.668 275.5 476.446 270.403C477.224 265.306 474.071 249.361 472.279 240.431C470.487 231.5 466.432 225.153 460.96 224.459C459.368 224.268 457.754 224.474 456.262 225.058C454.769 225.642 453.444 226.586 452.404 227.806C452.404 227.806 450.126 208.792 447.918 204.847C445.71 200.903 438.515 201.472 434.668 202.417C430.821 203.361 428.973 215.667 428.973 215.667C428.973 215.667 425.64 203.847 425.543 198.57C425.446 193.292 419.029 188.75 414.029 190C409.029 191.25 406.334 193.542 404.973 204.486C403.612 215.431 406.182 232.361 406.182 232.361L403.584 233.417C403.584 233.417 394.223 200.639 391.251 191.986C388.279 183.333 385.418 173.431 383.418 166.986C381.418 160.542 378.445 150.319 370.265 151.889C362.084 153.458 364.098 171.333 364.098 171.333C364.098 171.333 376.89 226.111 377.557 230.431C378.223 234.75 380.334 249.75 379.918 254.75C379.501 259.75 379.515 272.806 379.515 272.806L367.334 258.278C365.833 254.347 363.94 250.578 361.681 247.028C357.515 240.306 348.251 234.042 342.237 235.917C336.223 237.792 340.973 243.986 343.459 247.445C345.945 250.903 347.959 260.612 347.959 265.5C347.959 270.389 352.126 273.834 357.154 282.806C362.181 291.778 387.418 322.778 391.237 328.362C394.066 332.114 397.623 335.255 401.695 337.598C401.695 337.598 416.279 350.306 423.084 366.167C429.89 382.029 450.765 427.57 450.765 427.57" fill="white"/>
<g style="mix-blend-mode:multiply" opacity="0.7">
<path d="M472.529 411.251C479.349 405.001 481.043 354.515 480.182 335.723C480.182 335.57 480.182 335.39 480.182 335.223C477.752 328.945 475.863 323.848 475.432 322.139C473.765 316.729 473.611 310.965 474.988 305.473C476.724 297.695 475.696 275.5 476.474 270.403C476.932 267.389 476.002 260.528 474.807 253.584C469.863 253.153 460.807 257.611 460.807 257.611C460.807 257.611 453.668 247.223 449.015 246.861C444.363 246.5 436.293 253.806 436.293 253.806C436.293 253.806 431.668 238.223 422.168 239.82C412.668 241.417 410.001 239.82 406.251 239.986C402.501 240.153 399.46 231.028 395.71 222.07C391.96 213.111 386.585 179.611 383.404 172.667C383.404 172.667 378.418 158.694 371.96 163.347C365.501 168 371.571 183.208 374.599 192.333C377.626 201.458 379.251 218.792 381.71 227.056C384.487 236.264 383.099 249.945 385.64 259.973C388.182 270 394.71 273.25 391.113 286.362C387.515 299.473 379.654 295.292 370.89 287.584C362.126 279.875 357.793 262.223 352.835 263.973C351.116 264.407 349.457 265.046 347.89 265.875C348.001 270.681 352.057 274.209 357.085 282.987C362.112 291.764 387.418 322.778 391.237 328.362C394.066 332.113 397.623 335.255 401.696 337.598C401.696 337.598 416.279 350.306 423.085 366.167C424.307 369.015 426.251 373.223 428.64 378.223C431.418 380.445 425.529 369.89 426.974 371.64C436.599 382.931 465.724 417.515 472.529 411.251Z" fill="#FA5087"/>
</g>
<path d="M522.474 425.723C522.474 425.723 489.487 364.89 484.793 354.223C480.099 343.556 476.557 326.751 475.404 322.14C473.737 316.729 473.583 310.965 474.96 305.473C476.696 297.695 475.668 275.5 476.446 270.403C477.224 265.306 474.071 249.361 472.279 240.431C470.487 231.5 466.432 225.153 460.96 224.459C459.368 224.268 457.754 224.474 456.262 225.058C454.769 225.642 453.444 226.586 452.404 227.806C452.404 227.806 450.126 208.792 447.918 204.847C445.71 200.903 438.515 201.472 434.668 202.417C430.821 203.361 428.973 215.667 428.973 215.667C428.973 215.667 425.64 203.847 425.543 198.57C425.446 193.292 419.029 188.75 414.029 190C409.029 191.25 406.334 193.542 404.973 204.486C403.612 215.431 406.182 232.361 406.182 232.361L403.584 233.417C403.584 233.417 394.223 200.639 391.251 191.986C388.279 183.333 385.418 173.431 383.418 166.986C381.418 160.542 378.445 150.319 370.265 151.889C362.084 153.458 364.098 171.333 364.098 171.333C364.098 171.333 376.89 226.111 377.557 230.431C378.223 234.75 380.334 249.75 379.918 254.75C379.501 259.75 379.515 272.806 379.515 272.806L367.334 258.278C365.833 254.347 363.94 250.578 361.681 247.028C357.515 240.306 348.251 234.042 342.237 235.917C336.223 237.792 340.973 243.986 343.459 247.445C345.945 250.903 347.959 260.612 347.959 265.5C347.959 270.389 352.126 273.834 357.154 282.806C362.181 291.778 387.418 322.778 391.237 328.362C394.066 332.114 397.623 335.255 401.695 337.598C401.695 337.598 416.279 350.306 423.084 366.167C429.89 382.029 450.765 427.57 450.765 427.57" stroke="#2E353A" stroke-linecap="round" stroke-linejoin="round"/>
<path d="M365.932 155.861C365.932 155.861 367.446 165.25 367.737 166.43C368.39 169.083 379.362 167.819 380.237 165.777C381.015 163.958 380.446 160.013 380.446 160.013" stroke="#2E353A" stroke-linecap="round" stroke-linejoin="round"/>
<path d="M347.14 247.875C348.053 246.948 348.618 245.735 348.742 244.44C348.866 243.145 348.541 241.847 347.821 240.764C345.237 236.917 343.793 236.056 343.793 236.056" stroke="#2E353A" stroke-linecap="round" stroke-linejoin="round"/>
<path d="M378.626 210.264C378.626 210.264 383.529 211.903 388.14 205.861" stroke="#2E353A" stroke-width="0.75" stroke-linecap="round" stroke-linejoin="round"/>
<path d="M379.209 206C379.209 206 385.751 201.097 390.751 201.5" stroke="#2E353A" stroke-width="0.75" stroke-linecap="round" stroke-linejoin="round"/>
<path d="M372.432 180.375C372.432 180.375 377.334 175.486 381.265 176.542" stroke="#2E353A" stroke-width="0.75" stroke-linecap="round" stroke-linejoin="round"/>
<path d="M377.042 179.222C379.058 179.561 381.122 179.466 383.098 178.944" stroke="#2E353A" stroke-width="0.75" stroke-linecap="round" stroke-linejoin="round"/>
<path d="M428.96 215.708L431.543 231" stroke="#2E353A" stroke-linecap="round" stroke-linejoin="round"/>
<path d="M452.39 227.848L455.154 243.903" stroke="#2E353A" stroke-linecap="round" stroke-linejoin="round"/>
<path d="M379.502 272.903C379.502 272.903 378.807 284.917 379.96 289.57" stroke="#2E353A" stroke-linecap="round" stroke-linejoin="round"/>
<path d="M431.557 239.139C431.557 239.139 434.404 246.681 433.71 251.639" stroke="#2E353A" stroke-width="0.75" stroke-linecap="round" stroke-linejoin="round"/>
<path d="M454.849 246.931C454.849 246.931 456.779 250.82 455.626 257.903" stroke="#2E353A" stroke-width="0.75" stroke-linecap="round" stroke-linejoin="round"/>
<path d="M124.82 225.125C124.82 225.125 136.611 222.986 143.028 215.139C149.445 207.291 164.806 197.277 169.806 195.5C174.806 193.722 182.667 193.347 185.528 195.847C188.389 198.347 189.806 204.416 185.528 211.569C181.25 218.722 163.806 225.444 160.167 228.694C156.528 231.944 153.389 234.055 149.056 243.694C144.838 253.032 138.766 261.415 131.208 268.333C124.417 274.403 111.931 284.764 105.5 288.681" fill="white"/>
<g style="mix-blend-mode:multiply" opacity="0.7">
<path d="M160.042 216.153C158.556 209.5 148.931 213.194 148.931 213.194C142.377 220.307 134.308 225.856 125.32 229.43C110.276 235.119 95.7389 242.065 81.8615 250.194C83.4449 247.014 85.1671 243.806 87.0282 240.472C96.6255 223.5 113.598 200.625 123.139 197.666C129.028 195.861 134.903 199.597 138.57 202.764L138.987 134.013H138.751C133.028 135.083 128.751 137.944 128.042 141.513C127.334 145.083 116.612 167.569 113.042 171.861C109.473 176.152 98.0422 191.861 96.9727 197.569C96.3267 201.627 94.872 205.515 92.6949 209C91.306 211.139 79.8338 228.625 71.6254 244.347C63.417 260.069 59.8892 278.889 60.0281 279.958C60.1254 280.736 44.2364 338.292 34.1392 374.514C42.4725 358.125 55.4309 331.611 63.3059 312.014C66.4032 311.709 72.4032 303.32 77.3754 296.486C83.2782 288.375 92.1255 286.153 109.848 272.875C127.57 259.597 147.473 241.139 150.431 233.764C153.39 226.389 161.515 222.792 160.042 216.153Z" fill="#FA5087"/>
</g>
<path d="M124.82 225.125C124.82 225.125 136.611 222.986 143.028 215.139C149.445 207.291 164.806 197.277 169.806 195.5C174.806 193.722 182.667 193.347 185.528 195.847C188.389 198.347 189.806 204.416 185.528 211.569C181.25 218.722 163.806 225.444 160.167 228.694C156.528 231.944 153.389 234.055 149.056 243.694C144.838 253.032 138.766 261.415 131.208 268.333C124.417 274.403 111.931 284.764 105.5 288.681" stroke="#2E353A" stroke-linecap="round" stroke-linejoin="round"/>
<path d="M185.875 208.777C183.736 211.986 178.375 212.347 178.375 212.347C178.375 212.347 176.236 207.708 174.806 204.847C173.692 202.922 172.092 201.322 170.167 200.208C170.167 200.208 171.959 195.569 175.528 195.569" stroke="#2E353A" stroke-linecap="round" stroke-linejoin="round"/>
<path d="M46.0977 297.556C59.2748 294.702 72.7717 293.604 86.2368 294.292C109.029 295.389 114.445 308.403 114.445 308.403L113.362 337.695C113.362 337.695 101.431 329.014 76.4729 325.764C51.5144 322.514 38.5005 324.681 38.5005 324.681L46.0977 297.556Z" fill="white" stroke="#2E353A" stroke-linecap="round" stroke-linejoin="round"/>
<path d="M114.667 434.237L120.542 340.223C82.5697 317.431 38.5001 324.681 38.5001 324.681L1 434.237H114.667Z" fill="#2E353A" stroke="#2E353A" stroke-linecap="round" stroke-linejoin="round"/>
<path d="M411.029 362.015C411.029 362.015 414.737 347.209 435.098 335.167C455.459 323.126 486.029 327.765 486.029 327.765L490.654 339.792C490.654 339.792 465.654 338.876 447.14 349.056C428.626 359.237 419.362 371.279 419.362 371.279L411.029 362.015Z" fill="white" stroke="#2E353A" stroke-linecap="round" stroke-linejoin="round"/>
<path d="M548.877 434.237L493.932 336.014C493.932 336.014 473.099 330.542 448.099 340.723C423.099 350.903 412.904 370.348 412.904 370.348L423.418 434.237H548.877Z" fill="#2E353A" stroke="#2E353A" stroke-linecap="round" stroke-linejoin="round"/>
<path d="M424.835 373.32C425.53 376.306 424.696 379.056 422.946 379.459C421.196 379.862 419.224 377.779 418.53 374.793C417.835 371.806 418.669 369.056 420.405 368.654C422.141 368.251 424.127 370.334 424.835 373.32Z" fill="white"/>
</svg>
