<svg width="611" height="413" viewBox="0 0 611 413" fill="none" xmlns="http://www.w3.org/2000/svg">
<path d="M602.079 250.827H9.84082" stroke="#263238" stroke-linecap="round" stroke-linejoin="round"/>
<path d="M602.079 258.879H9.84082" stroke="#263238" stroke-linecap="round" stroke-linejoin="round"/>
<path d="M490.385 268.067C494.926 268.067 498.607 258.41 498.607 246.497C498.607 234.585 494.926 224.928 490.385 224.928C485.845 224.928 482.164 234.585 482.164 246.497C482.164 258.41 485.845 268.067 490.385 268.067Z" fill="#D28B00" stroke="#263238" stroke-miterlimit="10"/>
<path d="M515.936 233.194C513.369 241.246 508.43 246.945 504.906 245.827C501.381 244.708 500.611 237.238 503.179 229.151C505.746 221.063 510.694 215.401 514.219 216.519C517.743 217.637 518.504 225.107 515.936 233.194Z" fill="#D28B00" stroke="#263238" stroke-miterlimit="10"/>
<path d="M455.594 281.996C447.22 280.574 440.931 276.467 441.548 272.826C442.166 269.185 449.457 267.378 457.822 268.8C466.186 270.223 472.484 274.32 471.867 277.961C471.25 281.602 463.959 283.41 455.594 281.996Z" fill="#D28B00" stroke="#263238" stroke-miterlimit="10"/>
<path d="M523.683 262.046C516.687 268.979 508.475 271.994 505.227 268.764C501.98 265.535 505.102 257.304 512.098 250.371C519.094 243.438 527.351 240.432 530.509 243.67C533.667 246.909 530.67 255.112 523.683 262.046Z" fill="#D28B00" stroke="#263238" stroke-miterlimit="10"/>
<path d="M475.499 243.026C482.263 252.867 484.276 263.182 479.972 266.125C475.669 269.069 466.75 263.513 459.987 253.699C453.223 243.885 451.21 233.552 455.514 230.6C459.817 227.648 468.781 233.221 475.499 243.026Z" fill="#D28B00" stroke="#263238" stroke-miterlimit="10"/>
<path d="M490.958 267.002L491.594 332.623" stroke="#263238" stroke-miterlimit="10" stroke-linecap="round"/>
<path d="M490.189 238.482L490.958 267.002" stroke="#263238" stroke-miterlimit="10" stroke-linecap="round"/>
<path d="M490.252 233.829L490.189 236.012" stroke="#263238" stroke-miterlimit="10" stroke-linecap="round"/>
<path d="M479.972 264.73C484.683 274.472 487.442 285.043 488.095 295.845V336.433" stroke="#263238" stroke-miterlimit="10" stroke-linecap="round"/>
<path d="M465.837 243.115C471.486 249.662 476.24 256.93 479.972 264.729" stroke="#263238" stroke-miterlimit="10" stroke-linecap="round"/>
<path d="M461.4 238.41C461.4 238.41 462.295 239.188 463.645 240.682" stroke="#263238" stroke-miterlimit="10" stroke-linecap="round"/>
<path d="M505.737 267.771C499.968 275.86 495.473 284.784 492.407 294.234" stroke="#263238" stroke-miterlimit="10" stroke-linecap="round"/>
<path d="M515.202 256.902C511.716 260.222 508.547 263.861 505.737 267.771" stroke="#263238" stroke-miterlimit="10" stroke-linecap="round"/>
<path d="M525.303 249.199C522.749 250.653 520.35 252.364 518.146 254.308" stroke="#263238" stroke-miterlimit="10" stroke-linecap="round"/>
<path d="M505.389 243.823C500.835 258.137 494.725 279.348 491.871 297.732" stroke="#263238" stroke-miterlimit="10" stroke-linecap="round"/>
<path d="M508.144 235.315C507.33 237.73 506.355 240.602 505.362 243.823" stroke="#263238" stroke-miterlimit="10" stroke-linecap="round"/>
<path d="M511.016 227.084C511.016 227.084 510.219 229.285 508.931 233.042" stroke="#263238" stroke-miterlimit="10" stroke-linecap="round"/>
<path d="M471.465 275.975C477.154 278.131 484.938 284.152 487.639 292.078" stroke="#263238" stroke-miterlimit="10" stroke-linecap="round"/>
<path d="M460.926 273.837C464.526 274.015 468.079 274.736 471.464 275.975" stroke="#263238" stroke-miterlimit="10" stroke-linecap="round"/>
<path d="M454.118 274.007C454.118 274.007 455.129 273.864 456.802 273.792" stroke="#263238" stroke-miterlimit="10" stroke-linecap="round"/>
<path d="M472.01 313.531C464.316 317.11 456.801 317.324 455.254 313.978C453.706 310.633 458.653 305.032 466.347 301.454C474.041 297.875 481.556 297.67 483.112 301.015C484.669 304.361 479.704 309.944 472.01 313.531Z" fill="#D28B00" stroke="#263238" stroke-miterlimit="10"/>
<path d="M471.769 303.789C474.82 301.901 478.137 300.48 481.609 299.575C482.409 299.086 483.331 298.836 484.267 298.854C485.204 298.871 486.116 299.156 486.897 299.674C487.943 300.362 487.594 305.569 487.594 305.569V332.622" stroke="#263238" stroke-miterlimit="10" stroke-linecap="round"/>
<path d="M466.258 307.806C466.258 307.806 467.009 307.108 468.351 306.106" stroke="#263238" stroke-miterlimit="10" stroke-linecap="round"/>
<path d="M527.226 281.996C535.6 280.574 541.889 276.467 541.272 272.826C540.655 269.185 533.363 267.378 524.999 268.8C516.634 270.223 510.336 274.32 510.953 277.961C511.57 281.602 518.879 283.41 527.226 281.996Z" fill="#D28B00" stroke="#263238" stroke-miterlimit="10"/>
<path d="M511.552 275.877C510.534 276.252 509.539 276.688 508.573 277.183C505.181 278.965 502.344 281.646 500.375 284.933C498.406 288.22 497.379 291.986 497.408 295.818V331.603" stroke="#263238" stroke-miterlimit="10" stroke-linecap="round"/>
<path d="M522.771 273.792C518.945 273.898 515.16 274.601 511.552 275.877" stroke="#263238" stroke-miterlimit="10" stroke-linecap="round"/>
<path d="M528.72 274.007C528.72 274.007 528.058 273.908 526.931 273.837" stroke="#263238" stroke-miterlimit="10" stroke-linecap="round"/>
<path d="M535.494 308.391C537.34 305.189 532.874 299.157 525.52 294.918C518.166 290.678 510.708 289.838 508.863 293.04C507.017 296.242 511.482 302.274 518.837 306.513C526.191 310.752 533.649 311.592 535.494 308.391Z" fill="#D28B00" stroke="#263238" stroke-miterlimit="10"/>
<path d="M520.615 297.348C517.592 294.997 514.221 293.135 510.622 291.828C510.622 291.828 501.497 290.325 499.412 296.22" stroke="#263238" stroke-miterlimit="10" stroke-linecap="round"/>
<path d="M525.052 301.275C525.052 301.275 524.596 300.774 523.755 299.987" stroke="#263238" stroke-miterlimit="10" stroke-linecap="round"/>
<path d="M500.799 296.551C500.799 296.551 490.064 294.467 490.064 301.758C490.064 309.049 497.695 314.936 500.799 323.229C503.903 331.522 509.817 331.898 512.939 323.578C516.061 315.258 511.552 300.031 500.799 296.551Z" fill="#D28B00" stroke="#263238" stroke-miterlimit="10"/>
<path d="M493.517 296.9C493.517 296.9 502.883 300.711 505.657 312.851Z" fill="#D28B00"/>
<path d="M493.517 296.9C493.517 296.9 502.883 300.711 505.657 312.851" stroke="#263238" stroke-miterlimit="10"/>
<path d="M494.215 312.852V332.623" stroke="#263238" stroke-miterlimit="10" stroke-linecap="round"/>
<path d="M511.436 371.118C514.005 362.93 515.309 354.399 515.301 345.818C515.313 340.619 514.791 335.433 513.744 330.341H469.908C468.862 335.433 468.34 340.619 468.352 345.818C468.353 354.4 469.665 362.932 472.243 371.118H511.436Z" fill="#263238"/>
<path d="M468.834 337.605C468.709 338.795 468.619 340.003 468.548 341.184H515.184C515.113 339.967 515.023 338.76 514.898 337.605H468.834Z" fill="#7A7A7A"/>
<path d="M514.692 356.061C514.835 354.863 514.961 353.655 515.059 352.483H468.673C468.772 353.691 468.897 354.898 469.04 356.061H514.692Z" fill="#7A7A7A"/>
<path d="M474.068 346.015C474.088 346.392 473.994 346.766 473.799 347.089C473.604 347.412 473.316 347.669 472.973 347.827C472.631 347.986 472.248 348.037 471.876 347.976C471.504 347.915 471.158 347.743 470.884 347.483C470.61 347.224 470.421 346.888 470.339 346.519C470.258 346.151 470.289 345.766 470.429 345.416C470.568 345.065 470.81 344.764 471.122 344.552C471.434 344.34 471.803 344.226 472.18 344.226C472.667 344.216 473.138 344.398 473.491 344.733C473.844 345.068 474.051 345.528 474.068 346.015Z" fill="#8C8C8C"/>
<path d="M483.506 346.015C483.526 346.392 483.432 346.766 483.237 347.089C483.042 347.412 482.754 347.669 482.412 347.827C482.069 347.986 481.687 348.037 481.314 347.976C480.942 347.915 480.596 347.743 480.322 347.483C480.049 347.224 479.859 346.888 479.778 346.519C479.696 346.151 479.728 345.766 479.867 345.416C480.007 345.065 480.248 344.764 480.56 344.552C480.872 344.34 481.241 344.226 481.618 344.226C482.105 344.216 482.576 344.398 482.929 344.733C483.283 345.068 483.49 345.528 483.506 346.015Z" fill="#8C8C8C"/>
<path d="M492.935 346.015C492.955 346.392 492.861 346.766 492.666 347.089C492.471 347.412 492.184 347.669 491.841 347.827C491.498 347.986 491.116 348.037 490.743 347.976C490.371 347.915 490.026 347.743 489.752 347.483C489.478 347.224 489.288 346.888 489.207 346.519C489.126 346.151 489.157 345.766 489.296 345.416C489.436 345.065 489.677 344.764 489.99 344.552C490.302 344.34 490.67 344.226 491.048 344.226C491.534 344.216 492.005 344.398 492.359 344.733C492.712 345.068 492.919 345.528 492.935 346.015Z" fill="#8C8C8C"/>
<path d="M502.383 346.015C502.402 346.392 502.308 346.766 502.113 347.089C501.918 347.412 501.631 347.669 501.288 347.827C500.945 347.986 500.563 348.037 500.191 347.976C499.818 347.915 499.473 347.743 499.199 347.483C498.925 347.224 498.735 346.888 498.654 346.519C498.573 346.151 498.604 345.766 498.744 345.416C498.883 345.065 499.125 344.764 499.437 344.552C499.749 344.34 500.118 344.226 500.495 344.226C500.982 344.216 501.452 344.398 501.806 344.733C502.159 345.068 502.366 345.528 502.383 346.015Z" fill="#8C8C8C"/>
<path d="M511.821 346.015C511.84 346.392 511.747 346.766 511.552 347.089C511.357 347.412 511.069 347.669 510.726 347.827C510.384 347.986 510.001 348.037 509.629 347.976C509.257 347.915 508.911 347.743 508.637 347.483C508.363 347.224 508.173 346.888 508.092 346.519C508.011 346.151 508.042 345.766 508.182 345.416C508.321 345.065 508.563 344.764 508.875 344.552C509.187 344.34 509.556 344.226 509.933 344.226C510.42 344.216 510.891 344.398 511.244 344.733C511.597 345.068 511.804 345.528 511.821 346.015Z" fill="#8C8C8C"/>
<path d="M350.404 31.5293V197.928H411.283V31.5293H350.404ZM408.215 35.2241V59.7814H382.897V35.2241H408.215ZM379.095 35.2241V59.7814H353.473V35.2241H379.095ZM353.473 63.6819H379.095V88.0513H353.473V63.6819ZM408.215 194.225H353.473V92.2382H408.215V194.225ZM382.897 88.0513V63.6819H408.215V88.0513H382.897Z" stroke="#263238" stroke-linecap="round" stroke-linejoin="round"/>
<path d="M411.042 31.5293V197.928H471.92V31.5293H411.042ZM468.852 35.2241V59.7814H443.516V35.2241H468.852ZM439.732 35.2241V59.7814H414.11V35.2241H439.732ZM414.11 63.6819H439.732V88.0513H414.11V63.6819ZM468.852 194.225H414.11V92.2382H468.852V194.225ZM443.516 88.0513V63.6819H468.852V88.0513H443.516Z" stroke="#263238" stroke-linecap="round" stroke-linejoin="round"/>
<path d="M394.59 119.891L379.31 136.781" stroke="#263238" stroke-linecap="round" stroke-linejoin="round"/>
<path d="M398.383 115.704L395.949 118.388" stroke="#263238" stroke-linecap="round" stroke-linejoin="round"/>
<path d="M362.687 149.1L359.556 152.366" stroke="#263238" stroke-linecap="round" stroke-linejoin="round"/>
<path d="M382.987 127.925L365.031 146.658" stroke="#263238" stroke-linecap="round" stroke-linejoin="round"/>
<path d="M456.166 125.053L440.886 141.943" stroke="#263238" stroke-linecap="round" stroke-linejoin="round"/>
<path d="M459.96 120.857L457.526 123.541" stroke="#263238" stroke-linecap="round" stroke-linejoin="round"/>
<path d="M424.273 154.253L421.142 157.519" stroke="#263238" stroke-linecap="round" stroke-linejoin="round"/>
<path d="M444.563 133.078L426.608 151.811" stroke="#263238" stroke-linecap="round" stroke-linejoin="round"/>
<path d="M480.053 31.5293V197.928H540.887V31.5293H480.053ZM537.863 35.2241V59.7814H512.527V35.2241H537.863ZM508.743 35.2241V59.7814H483.094V35.2241H508.743ZM483.094 63.6819H508.716V88.0513H483.094V63.6819ZM537.836 194.225H483.094V92.2382H537.836V194.225ZM512.527 88.0513V63.6819H537.863V88.0513H512.527Z" stroke="#263238" stroke-linecap="round" stroke-linejoin="round"/>
<path d="M540.689 31.5293V197.928H601.524V31.5293H540.689ZM598.5 35.2241V59.7814H573.164V35.2241H598.5ZM569.38 35.2241V59.7814H543.758V35.2241H569.38ZM543.758 63.6819H569.38V88.0513H543.758V63.6819ZM598.5 194.225H543.758V92.2382H598.5V194.225ZM573.164 88.0513V63.6819H598.5V88.0513H573.164Z" stroke="#263238" stroke-linecap="round" stroke-linejoin="round"/>
<path d="M524.238 119.891L508.958 136.781" stroke="#263238" stroke-linecap="round" stroke-linejoin="round"/>
<path d="M528.031 115.704L525.597 118.388" stroke="#263238" stroke-linecap="round" stroke-linejoin="round"/>
<path d="M492.336 149.1L489.205 152.366" stroke="#263238" stroke-linecap="round" stroke-linejoin="round"/>
<path d="M512.634 127.925L494.679 146.658" stroke="#263238" stroke-linecap="round" stroke-linejoin="round"/>
<path d="M585.814 125.053L570.534 141.943" stroke="#263238" stroke-linecap="round" stroke-linejoin="round"/>
<path d="M589.607 120.857L587.174 123.541" stroke="#263238" stroke-linecap="round" stroke-linejoin="round"/>
<path d="M553.921 154.253L550.79 157.519" stroke="#263238" stroke-linecap="round" stroke-linejoin="round"/>
<path d="M574.211 133.078L556.256 151.811" stroke="#263238" stroke-linecap="round" stroke-linejoin="round"/>
<path d="M305.92 116.242C317.903 104.259 317.903 84.83 305.92 72.8466C293.936 60.8631 274.507 60.8631 262.524 72.8465C250.54 84.83 250.54 104.259 262.524 116.242C274.507 128.226 293.936 128.226 305.92 116.242Z" fill="#263238" stroke="#263238" stroke-linejoin="round"/>
<path d="M305.758 112.523C315.699 100.625 314.113 82.9215 302.215 72.9804C290.317 63.0392 272.613 64.6255 262.672 76.5234C252.731 88.4213 254.317 106.125 266.215 116.066C278.113 126.008 295.817 124.421 305.758 112.523Z" fill="white" stroke="#263238" stroke-linejoin="round"/>
<path d="M286.833 94.5378C286.833 94.0212 286.68 93.5161 286.393 93.0865C286.106 92.6569 285.698 92.3221 285.221 92.1244C284.743 91.9267 284.218 91.8749 283.711 91.9757C283.205 92.0765 282.739 92.3253 282.374 92.6907C282.008 93.056 281.76 93.5215 281.659 94.0282C281.558 94.5349 281.61 95.0602 281.807 95.5375C282.005 96.0148 282.34 96.4228 282.77 96.7099C283.199 96.9969 283.704 97.1501 284.221 97.1501C284.914 97.1501 285.578 96.8749 286.068 96.385C286.558 95.8951 286.833 95.2307 286.833 94.5378Z" fill="#263238" stroke="#263238" stroke-linejoin="round"/>
<path d="M286.359 96.4788L290.447 101.641" stroke="#263238" stroke-linejoin="round"/>
<path d="M286.359 92.614L297.971 76.0457" stroke="#263238" stroke-linejoin="round"/>
<path d="M557.545 367.002H0" stroke="#263238" stroke-linejoin="round"/>
<path d="M585.976 367.002H564.88" stroke="#263238" stroke-linejoin="round"/>
<path d="M241.833 371.323H237.897L237.432 297.794H242.299L241.833 371.323Z" fill="white" stroke="#263238" stroke-linejoin="round"/>
<path d="M237.45 300.908H242.281L242.299 297.794H237.432L237.45 300.908Z" fill="#263238" stroke="#263238" stroke-miterlimit="10"/>
<path d="M247.729 371.323H243.784L243.318 297.794H248.194L247.729 371.323Z" fill="#263238" stroke="#263238" stroke-miterlimit="10"/>
<path d="M316.892 371.323H312.955L312.49 297.794H317.357L316.892 371.323Z" fill="white" stroke="#263238" stroke-linejoin="round"/>
<path d="M312.508 300.908H317.339L317.357 297.794H312.49L312.508 300.908Z" fill="#263238" stroke="#263238" stroke-miterlimit="10"/>
<path d="M310.486 371.323H306.55L306.085 297.794H310.951L310.486 371.323Z" fill="#263238" stroke="#263238" stroke-miterlimit="10"/>
<path d="M319.28 292.669H236.662L247.147 276.539H308.787L319.28 292.669Z" fill="white" stroke="#263238" stroke-linejoin="round"/>
<path d="M319.388 292.668H236.662V298.126H319.388V292.668Z" fill="white" stroke="#263238" stroke-linejoin="round"/>
<path d="M252.748 216.59H302.936C304.419 216.59 305.841 217.179 306.89 218.228C307.938 219.276 308.527 220.699 308.527 222.181V276.538H247.157V222.199C247.154 221.464 247.297 220.735 247.577 220.054C247.857 219.374 248.268 218.755 248.788 218.234C249.307 217.713 249.924 217.3 250.604 217.017C251.284 216.735 252.012 216.59 252.748 216.59Z" fill="white" stroke="#263238" stroke-linejoin="round"/>
<path d="M350.601 371.323H346.665L346.2 297.794H351.066L350.601 371.323Z" fill="white" stroke="#263238" stroke-linejoin="round"/>
<path d="M346.218 300.908H351.049L351.066 297.794H346.2L346.218 300.908Z" fill="#263238" stroke="#263238" stroke-miterlimit="10"/>
<path d="M356.497 371.323H352.551L352.086 297.794H356.953L356.497 371.323Z" fill="#263238" stroke="#263238" stroke-miterlimit="10"/>
<path d="M425.659 371.323H421.723L421.258 297.794H426.125L425.659 371.323Z" fill="white" stroke="#263238" stroke-linejoin="round"/>
<path d="M421.276 300.908H426.107L426.125 297.794H421.258L421.276 300.908Z" fill="#263238" stroke="#263238" stroke-miterlimit="10"/>
<path d="M419.254 371.323H415.317L414.852 297.794H419.719L419.254 371.323Z" fill="#263238" stroke="#263238" stroke-miterlimit="10"/>
<path d="M428.048 292.669H345.43L355.924 276.539H417.554L428.048 292.669Z" fill="white" stroke="#263238" stroke-linejoin="round"/>
<path d="M428.156 292.668H345.43V298.126H428.156V292.668Z" fill="white" stroke="#263238" stroke-linejoin="round"/>
<path d="M361.515 216.59H411.703C413.186 216.59 414.608 217.179 415.657 218.228C416.706 219.276 417.295 220.699 417.295 222.181V276.538H355.924V222.199C355.922 221.464 356.064 220.735 356.344 220.054C356.624 219.374 357.036 218.755 357.555 218.234C358.075 217.713 358.692 217.3 359.371 217.017C360.051 216.735 360.779 216.59 361.515 216.59Z" fill="white" stroke="#263238" stroke-linejoin="round"/>
<path d="M366.212 357.028C364.783 359.255 363.481 361.561 362.311 363.934C361.524 365.884 356.049 370.966 354.752 373.444C353.455 375.922 355.137 378.006 361.265 378.66C367.393 379.313 369.603 375.135 371.034 373.292C372.465 371.449 372.474 368.819 374.165 367.692C375.856 366.564 379.112 363.397 379.372 360.266C379.549 358.468 379.419 356.653 378.987 354.898L366.212 357.028Z" fill="white" stroke="#263238" stroke-miterlimit="10"/>
<path d="M379.372 360.284C379.494 358.891 379.445 357.488 379.229 356.106C379.007 357.098 378.84 358.102 378.728 359.112C378.2 363.675 372.734 365.374 371.571 367.969C370.408 370.563 368.699 375.788 363.877 376.835C360.299 377.604 356.273 375.609 354.394 374.509C354.054 376.504 356.049 378.087 361.274 378.66C367.402 379.304 369.612 375.135 371.043 373.292C372.474 371.449 372.483 368.819 374.174 367.692C375.865 366.564 379.113 363.415 379.372 360.284Z" fill="white" stroke="#263238" stroke-miterlimit="10"/>
<path d="M409.646 357.028C411.078 359.254 412.384 361.56 413.556 363.934C414.334 365.884 419.818 370.966 421.115 373.444C422.412 375.922 420.721 378.006 414.593 378.66C408.465 379.313 406.255 375.135 404.824 373.292C403.393 371.449 403.393 368.819 401.702 367.692C400.011 366.564 396.746 363.397 396.486 360.266C396.314 358.468 396.447 356.653 396.88 354.898L409.646 357.028Z" fill="white" stroke="#263238" stroke-miterlimit="10"/>
<path d="M396.486 360.284C396.369 358.891 396.417 357.488 396.629 356.106C396.859 357.097 397.029 358.101 397.139 359.112C397.658 363.675 403.133 365.374 404.296 367.969C405.459 370.563 407.159 375.788 411.981 376.835C415.56 377.604 419.594 375.609 421.473 374.509C421.804 376.504 419.809 378.087 414.584 378.66C408.465 379.304 406.247 375.135 404.815 373.292C403.384 371.449 403.384 368.819 401.693 367.692C400.002 366.564 396.746 363.415 396.486 360.284Z" fill="white" stroke="#263238" stroke-miterlimit="10"/>
<path d="M429.498 291.747C429.498 287.319 417.286 270.455 417.286 270.455L412.858 260.015L390.313 262.135H385.134L362.589 260.015L358.161 270.455C358.161 270.455 345.949 287.319 345.949 291.747C345.949 296.176 346.477 297.589 346.477 297.589L366.159 351.266L364.566 354.979L365.273 357.815C365.273 357.815 367.751 359.935 372.528 359.935C375.327 359.96 378.037 358.953 380.142 357.108C380.142 357.108 380.669 351.266 380.669 349.137C380.669 347.008 376.778 336.747 376.778 334.626C376.778 332.506 373.056 293.689 373.056 293.689L386.86 283.928H388.587L402.418 293.706C402.418 293.706 398.696 332.479 398.696 334.6C398.696 336.72 394.804 346.99 394.804 349.11C394.804 351.231 395.332 357.081 395.332 357.081C397.437 358.926 400.147 359.933 402.945 359.908C407.723 359.908 410.201 357.788 410.201 357.788L410.916 354.952L409.315 351.239L428.997 297.562C428.997 297.562 429.498 296.167 429.498 291.747Z" fill="#263238" stroke="#263238" stroke-miterlimit="10"/>
<path d="M390.053 281.611C390.053 281.611 397.13 270.992 405.808 267.977" stroke="#7D7D7D" stroke-miterlimit="10"/>
<path d="M397.64 274.883C397.64 274.883 404.189 269.748 410.558 269.041" stroke="#7D7D7D" stroke-miterlimit="10"/>
<path d="M375.337 271.52C375.337 271.52 381.179 275.769 383.827 280.188" stroke="#7D7D7D" stroke-miterlimit="10"/>
<path d="M374.845 192.927L353.249 201.068L357.847 240.539C357.847 240.539 359.44 260.364 361.032 261.115C362.625 261.867 383.335 265.186 387.227 265.007C391.118 264.828 411.829 264.3 414.137 260.579C416.445 256.857 422.806 202.697 422.627 201.283C422.448 199.87 395.547 190.485 395.547 190.485L374.845 192.927Z" fill="#D28B00" stroke="#263238" stroke-linejoin="round"/>
<path d="M379.408 207.617L385.956 215.409L393.212 207.796C393.212 207.796 397.989 195.047 397.81 193.634C397.631 192.22 394.276 189.742 394.276 189.742L382.056 189.385L373.566 193.285L379.408 207.617Z" fill="white" stroke="#263238" stroke-linejoin="round"/>
<path d="M377.636 187.309L373.056 192.4L379.435 207.608L385.625 201.418L393.239 207.787C393.239 207.787 396.951 199.118 397.837 196.81C398.414 195.039 398.715 193.189 398.731 191.326L393.918 186.415L377.636 187.309Z" fill="white" stroke="#263238" stroke-linejoin="round"/>
<path d="M375.865 184.965L376.751 190.807L385.599 201.426L395.511 190.449L396.039 183.901L385.071 189.215L375.865 184.965Z" fill="white" stroke="#263238" stroke-linejoin="round"/>
<path d="M370.73 167.44C370.73 167.44 368.941 167.789 369.138 170.803C369.334 173.818 373.736 177.352 373.736 177.352L372.323 166.554L370.73 167.44Z" fill="white" stroke="#263238" stroke-linejoin="round"/>
<path d="M371.974 165.141C371.974 165.141 373.566 182.836 374.657 184.608C375.749 186.379 382.092 193.285 384.928 193.634C386.431 193.822 396.254 187.086 396.96 184.259C397.667 181.432 398.562 175.939 398.562 175.939C398.562 175.939 400.682 176.109 401.916 171.153C403.151 166.196 401.21 165.311 400.324 165.311H398.911C398.911 165.311 398.562 158.055 398.016 156.642C397.47 155.228 373.942 158.592 371.821 160.355C369.701 162.117 371.974 165.141 371.974 165.141Z" fill="white" stroke="#263238" stroke-linejoin="round"/>
<path d="M391.709 175.581C391.709 176.413 391.351 177.084 390.912 177.084C390.474 177.084 390.116 176.413 390.116 175.581C390.116 174.749 390.474 174.078 390.912 174.078C391.351 174.078 391.709 174.784 391.709 175.581Z" fill="#263238"/>
<path d="M379.667 175.143C379.667 175.966 379.309 176.645 378.871 176.645C378.433 176.645 378.075 175.966 378.075 175.143C378.075 174.319 378.433 173.631 378.871 173.631C379.309 173.631 379.667 174.311 379.667 175.143Z" fill="#263238"/>
<path d="M383.12 180.358C383.12 180.358 382.941 181.95 384.015 182.487C384.375 182.637 384.767 182.698 385.156 182.664C385.545 182.631 385.92 182.505 386.25 182.296C386.579 182.087 386.854 181.802 387.051 181.465C387.247 181.127 387.36 180.748 387.379 180.358" stroke="#263238" stroke-linejoin="round"/>
<path d="M383.648 185.851H386.127" stroke="#263238" stroke-linejoin="round"/>
<path d="M375.158 171.51H381.179" stroke="#263238" stroke-width="2" stroke-linecap="round" stroke-linejoin="round"/>
<path d="M387.37 170.982C387.37 170.982 391.262 168.674 393.391 170.982" stroke="#263238" stroke-width="2" stroke-linecap="round" stroke-linejoin="round"/>
<path d="M376.214 176.824L379.229 177.531" stroke="#263238" stroke-linejoin="round"/>
<path d="M393.74 176.467L390.376 178.059" stroke="#263238" stroke-linejoin="round"/>
<path d="M399.053 149.914C397.864 147.678 386.305 142.838 379.372 146.729C379.372 146.729 370.345 149.914 367.33 157.17C364.977 162.85 365.89 165.597 369.871 166.268L372.823 174.695L372.465 172.217L372.036 166.438C372.608 166.438 373.217 166.438 373.879 166.375C381.143 165.847 387.513 164.255 390.698 162.797C392.48 162.052 394.102 160.971 395.475 159.612C395.381 161.322 395.381 163.037 395.475 164.747C395.654 166.161 397.604 167.753 397.604 167.753L397.774 173.246L398.839 173.067L399.545 166.876L400.44 164.398C401.093 165.302 402.659 156.687 399.053 149.914Z" fill="#263238" stroke="#263238" stroke-linejoin="round"/>
<path d="M406.667 216.474L413.922 225.5" stroke="#263238" stroke-linejoin="round"/>
<path d="M411.972 213.996L414.808 234.876L387.549 238.947L387.728 249.924L392.147 250.281C394.212 251.79 396.678 252.652 399.233 252.76C403.124 252.76 423.128 250.281 426.662 249.396C430.195 248.51 432.333 247.607 432.682 244.261C433.031 240.915 425.427 205.497 424.899 203.198C424.371 200.898 415.694 198.241 415.694 198.241" fill="#D28B00"/>
<path d="M411.972 213.996L414.808 234.876L387.549 238.947L387.728 249.924L392.147 250.281C394.212 251.79 396.678 252.652 399.233 252.76C403.124 252.76 423.128 250.281 426.662 249.396C430.195 248.51 432.333 247.607 432.682 244.261C433.031 240.915 425.427 205.497 424.899 203.198C424.371 200.898 415.694 198.241 415.694 198.241" stroke="#263238" stroke-linejoin="round"/>
<path d="M422.949 236.826C419.943 234.697 414.808 234.876 414.808 234.876C414.808 234.876 419.227 232.935 422.77 234.169" stroke="#263238" stroke-linejoin="round"/>
<path d="M392.147 239.125L392.505 249.396" stroke="#263238" stroke-linejoin="round"/>
<path d="M387.549 238.946L378.701 238.419L367.903 233.104L365.953 234.169C365.953 234.169 361.882 241.782 362.768 242.31C363.653 242.838 364.888 244.439 365.595 244.439C366.301 244.439 367.903 243.196 367.903 243.196C367.903 243.196 372.143 247.445 374.8 247.445C376.45 247.429 378.077 247.066 379.578 246.381L387.898 247.445L387.549 238.946Z" fill="white" stroke="#263238" stroke-linejoin="round"/>
<path d="M367.903 243.196L365.595 241.255L365.067 242.141" stroke="#263238" stroke-linejoin="round"/>
<path d="M383.12 238.061H380.642V247.088H383.12V238.061Z" fill="#263238" stroke="#263238" stroke-miterlimit="10"/>
<path d="M381.886 240.19C383.254 240.19 384.364 239.557 384.364 238.777C384.364 237.996 383.254 237.363 381.886 237.363C380.517 237.363 379.408 237.996 379.408 238.777C379.408 239.557 380.517 240.19 381.886 240.19Z" fill="white" stroke="#263238" stroke-linejoin="round"/>
<path d="M353.204 201.068C353.204 201.068 344.357 250.63 344.357 253.645C344.357 256.66 357.275 269.614 357.275 269.614L363.117 263.951L359.225 246.953L353.204 201.068Z" fill="#D28B00" stroke="#263238" stroke-linejoin="round"/>
<path d="M349.671 248.859C349.671 248.859 354.797 246.032 358.519 246.56" stroke="#263238" stroke-linejoin="round"/>
<path d="M347.193 248.51C347.193 248.51 351.612 244.932 354.976 244.932" stroke="#263238" stroke-linejoin="round"/>
<path d="M354.627 266.93C354.627 266.93 354.448 261.616 362.41 261.438" stroke="#263238" stroke-linejoin="round"/>
<path d="M363.117 263.906L370.855 266.465C371.551 267.748 372.149 269.082 372.645 270.455C373.28 272.379 374.246 274.293 374.246 274.776C374.246 275.259 374.085 275.894 373.441 275.894C372.797 275.894 370.086 273.497 370.086 273.497L368.494 272.692C368.494 272.692 370.569 275.572 371.043 275.733C371.87 276.162 372.671 276.64 373.441 277.165C373.441 277.165 377.601 275.25 377.601 276.852C377.601 278.453 371.526 281.96 371.526 281.96C371.526 281.96 366.409 281.003 365.452 280.367C364.495 279.732 357.275 269.614 357.275 269.614L363.117 263.906Z" fill="white" stroke="#263238" stroke-linejoin="round"/>
<path d="M208.053 37.908H62.5342V366.681H208.053V37.908Z" fill="white" stroke="#263238" stroke-linejoin="round"/>
<path d="M132.592 47.7935H68.8145V117.556H132.592V47.7935Z" fill="white" stroke="#263238" stroke-linejoin="round"/>
<path d="M124.996 56.1133H76.4275V109.236H124.996V56.1133Z" fill="white" stroke="#263238" stroke-linejoin="round"/>
<path d="M76.4277 56.1134L68.8145 47.7935" stroke="#263238" stroke-linejoin="round"/>
<path d="M76.4277 109.236L68.8145 117.556" stroke="#263238" stroke-linejoin="round"/>
<path d="M124.988 56.1134L132.601 47.7935" stroke="#263238" stroke-linejoin="round"/>
<path d="M124.988 109.236L132.601 117.556" stroke="#263238" stroke-linejoin="round"/>
<path d="M201.495 47.7935H137.718V117.556H201.495V47.7935Z" fill="white" stroke="#263238" stroke-linejoin="round"/>
<path d="M193.891 56.1133H145.323V109.236H193.891V56.1133Z" fill="white" stroke="#263238" stroke-linejoin="round"/>
<path d="M145.322 56.1134L137.718 47.7935" stroke="#263238" stroke-linejoin="round"/>
<path d="M145.322 109.236L137.718 117.556" stroke="#263238" stroke-linejoin="round"/>
<path d="M193.891 56.1134L201.496 47.7935" stroke="#263238" stroke-linejoin="round"/>
<path d="M193.891 109.236L201.496 117.556" stroke="#263238" stroke-linejoin="round"/>
<path d="M132.592 124.74H68.8145V194.502H132.592V124.74Z" fill="white" stroke="#263238" stroke-linejoin="round"/>
<path d="M124.996 133.06H76.4275V186.182H124.996V133.06Z" fill="white" stroke="#263238" stroke-linejoin="round"/>
<path d="M76.4277 133.06L68.8145 124.74" stroke="#263238" stroke-linejoin="round"/>
<path d="M76.4277 186.191L68.8145 194.511" stroke="#263238" stroke-linejoin="round"/>
<path d="M124.988 133.06L132.601 124.74" stroke="#263238" stroke-linejoin="round"/>
<path d="M124.988 186.191L132.601 194.511" stroke="#263238" stroke-linejoin="round"/>
<path d="M201.495 124.74H137.718V194.502H201.495V124.74Z" fill="white" stroke="#263238" stroke-linejoin="round"/>
<path d="M193.891 133.06H145.323V186.182H193.891V133.06Z" fill="white" stroke="#263238" stroke-linejoin="round"/>
<path d="M145.322 133.06L137.718 124.74" stroke="#263238" stroke-linejoin="round"/>
<path d="M145.322 186.191L137.718 194.511" stroke="#263238" stroke-linejoin="round"/>
<path d="M193.891 133.06L201.496 124.74" stroke="#263238" stroke-linejoin="round"/>
<path d="M193.891 186.191L201.496 194.511" stroke="#263238" stroke-linejoin="round"/>
<path d="M132.592 209.782H68.8145V279.545H132.592V209.782Z" fill="white" stroke="#263238" stroke-linejoin="round"/>
<path d="M124.996 218.102H76.4275V271.225H124.996V218.102Z" fill="white" stroke="#263238" stroke-linejoin="round"/>
<path d="M76.4277 218.102L68.8145 209.782" stroke="#263238" stroke-linejoin="round"/>
<path d="M76.4277 271.225L68.8145 279.545" stroke="#263238" stroke-linejoin="round"/>
<path d="M124.988 218.102L132.601 209.782" stroke="#263238" stroke-linejoin="round"/>
<path d="M124.988 271.225L132.601 279.545" stroke="#263238" stroke-linejoin="round"/>
<path d="M201.495 209.782H137.718V279.545H201.495V209.782Z" fill="white" stroke="#263238" stroke-linejoin="round"/>
<path d="M193.891 218.102H145.323V271.225H193.891V218.102Z" fill="white" stroke="#263238" stroke-linejoin="round"/>
<path d="M145.322 218.102L137.718 209.782" stroke="#263238" stroke-linejoin="round"/>
<path d="M145.322 271.225L137.718 279.545" stroke="#263238" stroke-linejoin="round"/>
<path d="M193.891 218.102L201.496 209.782" stroke="#263238" stroke-linejoin="round"/>
<path d="M193.891 271.225L201.496 279.545" stroke="#263238" stroke-linejoin="round"/>
<path d="M132.592 286.737H68.8145V356.5H132.592V286.737Z" fill="white" stroke="#263238" stroke-linejoin="round"/>
<path d="M124.996 295.057H76.4275V348.18H124.996V295.057Z" fill="white" stroke="#263238" stroke-linejoin="round"/>
<path d="M76.4277 295.057L68.8145 286.737" stroke="#263238" stroke-linejoin="round"/>
<path d="M76.4277 348.18L68.8145 356.5" stroke="#263238" stroke-linejoin="round"/>
<path d="M124.988 295.057L132.601 286.737" stroke="#263238" stroke-linejoin="round"/>
<path d="M124.988 348.18L132.601 356.5" stroke="#263238" stroke-linejoin="round"/>
<path d="M201.495 286.737H137.718V356.5H201.495V286.737Z" fill="white" stroke="#263238" stroke-linejoin="round"/>
<path d="M193.891 295.057H145.323V348.18H193.891V295.057Z" fill="white" stroke="#263238" stroke-linejoin="round"/>
<path d="M145.322 295.057L137.718 286.737" stroke="#263238" stroke-linejoin="round"/>
<path d="M145.322 348.18L137.718 356.5" stroke="#263238" stroke-linejoin="round"/>
<path d="M193.891 295.057L201.496 286.737" stroke="#263238" stroke-linejoin="round"/>
<path d="M193.891 348.18L201.496 356.5" stroke="#263238" stroke-linejoin="round"/>
<path d="M198.039 208.485C201.629 207.901 204.065 204.518 203.481 200.929C202.897 197.34 199.514 194.903 195.925 195.487C192.336 196.071 189.899 199.454 190.483 203.043C191.067 206.633 194.45 209.069 198.039 208.485Z" fill="white" stroke="#263238" stroke-linejoin="round"/>
<path d="M199.366 201.99C199.366 201.515 199.225 201.051 198.962 200.657C198.698 200.262 198.323 199.955 197.884 199.774C197.445 199.593 196.963 199.546 196.498 199.639C196.032 199.732 195.605 199.961 195.27 200.298C194.935 200.634 194.708 201.062 194.616 201.528C194.525 201.993 194.573 202.476 194.756 202.914C194.939 203.352 195.248 203.725 195.643 203.988C196.039 204.25 196.503 204.389 196.978 204.387C197.612 204.385 198.219 204.131 198.667 203.682C199.115 203.233 199.366 202.624 199.366 201.99Z" fill="white" stroke="#263238" stroke-linejoin="round"/>
</svg>
