<svg width="171" height="167" viewBox="0 0 171 167" fill="none" xmlns="http://www.w3.org/2000/svg">
<path d="M54.9881 0H53.4244V7.00183H54.9881V0Z" fill="#E0E0E0"/>
<path d="M50.7053 2.71911V4.28284H57.7071V2.71911L50.7053 2.71911Z" fill="#E0E0E0"/>
<path d="M93.1873 34.4904H90.792V45.2267H93.1873V34.4904Z" fill="#E0E0E0"/>
<path d="M86.6196 38.6627V41.058H97.3559V38.6627H86.6196Z" fill="#E0E0E0"/>
<path d="M121.908 3.23413H120.345V10.236H121.908V3.23413Z" fill="#E0E0E0"/>
<path d="M117.622 5.94958V7.51331H124.624V5.94958H117.622Z" fill="#E0E0E0"/>
<path d="M157.734 16.1744H155.339V26.9108H157.734V16.1744Z" fill="#E0E0E0"/>
<path d="M151.167 20.3433V22.7385H161.903V20.3433H151.167Z" fill="#E0E0E0"/>
<path d="M169.77 68.3848H121.125V158.371H169.77V68.3848Z" fill="#F5F5F5"/>
<path d="M164.195 155.383H166.613V104.295H164.195V155.383Z" fill="#E0E0E0"/>
<path d="M159.861 155.383H162.278V104.295H159.861V155.383Z" fill="#E0E0E0"/>
<path d="M155.523 155.383H157.94V104.295H155.523V155.383Z" fill="#E0E0E0"/>
<path d="M151.181 155.383H153.599V104.295H151.181V155.383Z" fill="#E0E0E0"/>
<path d="M147.057 155.383H149.474V104.295H147.057V155.383Z" fill="#E0E0E0"/>
<path d="M142.811 155.383H145.228V104.295H142.811V155.383Z" fill="#E0E0E0"/>
<path d="M138.477 155.383H140.894V104.295H138.477V155.383Z" fill="#E0E0E0"/>
<path d="M133.87 155.383H136.287V104.295H133.87V155.383Z" fill="#E0E0E0"/>
<path d="M129.532 155.383H131.949V104.295H129.532V155.383Z" fill="#E0E0E0"/>
<path d="M125.308 155.383H127.725V104.295H125.308V155.383Z" fill="#E0E0E0"/>
<path d="M164.044 101.227H166.462V74.2973H164.044V101.227Z" fill="#E0E0E0"/>
<path d="M159.706 101.227H162.124V74.2973H159.706V101.227Z" fill="#E0E0E0"/>
<path d="M155.368 101.227H157.786V74.2973H155.368V101.227Z" fill="#E0E0E0"/>
<path d="M151.034 101.227H153.452V74.2973H151.034V101.227Z" fill="#E0E0E0"/>
<path d="M146.91 101.227H149.327V74.2973H146.91V101.227Z" fill="#E0E0E0"/>
<path d="M142.66 101.227H145.077V74.2973H142.66V101.227Z" fill="#E0E0E0"/>
<path d="M138.322 101.227H140.739V74.2973H138.322V101.227Z" fill="#E0E0E0"/>
<path d="M133.465 101.227H135.883V74.2973H133.465V101.227Z" fill="#E0E0E0"/>
<path d="M129.127 101.227H131.545V74.2973H129.127V101.227Z" fill="#E0E0E0"/>
<path d="M125.014 101.227H127.431V74.2973H125.014V101.227Z" fill="#E0E0E0"/>
<path d="M119.844 93.1873H85.4532V158.371H119.844V93.1873Z" fill="#F5F5F5"/>
<path d="M114.27 155.383H116.687V104.295H114.27V155.383Z" fill="#E0E0E0"/>
<path d="M109.928 155.383H112.346V104.295H109.928V155.383Z" fill="#E0E0E0"/>
<path d="M105.594 155.383H108.011V104.295H105.594V155.383Z" fill="#E0E0E0"/>
<path d="M101.256 155.383H103.673V104.295H101.256V155.383Z" fill="#E0E0E0"/>
<path d="M97.1315 155.383H99.5489V104.295H97.1315V155.383Z" fill="#E0E0E0"/>
<path d="M92.8855 155.383H95.3029V104.295H92.8855V155.383Z" fill="#E0E0E0"/>
<path d="M88.5439 155.383H90.9612V104.295H88.5439V155.383Z" fill="#E0E0E0"/>
<path d="M114.119 101.227H116.536V96.3956H114.119V101.227Z" fill="#E0E0E0"/>
<path d="M109.781 101.227H112.199V96.3956H109.781V101.227Z" fill="#E0E0E0"/>
<path d="M105.44 101.227H107.857V96.3956H105.44V101.227Z" fill="#E0E0E0"/>
<path d="M101.102 101.227H103.519V96.3956H101.102V101.227Z" fill="#E0E0E0"/>
<path d="M96.9807 101.227H99.398V96.3956H96.9807V101.227Z" fill="#E0E0E0"/>
<path d="M92.7347 101.227H95.152V96.3956H92.7347V101.227Z" fill="#E0E0E0"/>
<path d="M88.3967 101.227H90.8141V96.3956H88.3967V101.227Z" fill="#E0E0E0"/>
<path d="M121.213 158.798C121.161 158.798 121.117 138.598 121.117 113.689C121.117 88.7793 121.161 68.5723 121.213 68.5723C121.264 68.5723 121.309 88.7683 121.309 113.689C121.309 138.609 121.268 158.798 121.213 158.798Z" fill="#E0E0E0"/>
<path d="M165.255 39.8585H128.347V68.5723H165.255V39.8585Z" fill="#F5F5F5"/>
<path d="M137.314 64.5029H139.731V45.9442H137.314V64.5029Z" fill="#E0E0E0"/>
<path d="M132.98 64.5029H135.397V45.9442H132.98V64.5029Z" fill="#E0E0E0"/>
<path d="M146.321 64.5029H148.738V45.9442H146.321V64.5029Z" fill="#E0E0E0"/>
<path d="M141.983 64.5029H144.4V45.9442H141.983V64.5029Z" fill="#E0E0E0"/>
<path d="M155.324 64.5029H157.742V45.9442H155.324V64.5029Z" fill="#E0E0E0"/>
<path d="M150.986 64.5029H153.404V45.9442H150.986V64.5029Z" fill="#E0E0E0"/>
<path d="M159.997 64.5029H162.414V45.9442H159.997V64.5029Z" fill="#E0E0E0"/>
<path d="M72.4541 99.9167H38.063V158.584H72.4541V99.9167Z" fill="#F5F5F5"/>
<path d="M43.6372 115.768H41.2199V156.222H43.6372V115.768Z" fill="#E0E0E0"/>
<path d="M47.9752 115.768H45.5579V156.222H47.9752V115.768Z" fill="#E0E0E0"/>
<path d="M52.3132 115.768H49.8959V156.222H52.3132V115.768Z" fill="#E0E0E0"/>
<path d="M56.6512 115.768H54.2338V156.222H56.6512V115.768Z" fill="#E0E0E0"/>
<path d="M60.7757 115.768H58.3584V156.222H60.7757V115.768Z" fill="#E0E0E0"/>
<path d="M65.0217 115.768H62.6044V156.222H65.0217V115.768Z" fill="#E0E0E0"/>
<path d="M69.3597 115.768H66.9423V156.222H69.3597V115.768Z" fill="#E0E0E0"/>
<path d="M43.7881 103.578H41.3708V113.335H43.7881V103.578Z" fill="#E0E0E0"/>
<path d="M48.1261 103.578H45.7087V113.335H48.1261V103.578Z" fill="#E0E0E0"/>
<path d="M52.464 103.578H50.0467V113.335H52.464V103.578Z" fill="#E0E0E0"/>
<path d="M56.802 103.578H54.3847V113.335H56.802V103.578Z" fill="#E0E0E0"/>
<path d="M60.9266 103.578H58.5093V113.335H60.9266V103.578Z" fill="#E0E0E0"/>
<path d="M65.1726 103.578H62.7552V113.335H65.1726V103.578Z" fill="#E0E0E0"/>
<path d="M69.5105 103.578H67.0932V113.335H69.5105V103.578Z" fill="#E0E0E0"/>
<path d="M39.8917 46.6617H3.2121V158.584H39.8917V46.6617Z" fill="#F5F5F5"/>
<path d="M26.5503 13.3488H17.5396V15.0339H26.5503V13.3488Z" fill="#F5F5F5"/>
<path d="M22.7091 0H21.2741V13.8418H22.7091V0Z" fill="#F5F5F5"/>
<path d="M34.77 15.0338H9.31616V47.2098H34.77V15.0338Z" fill="#F5F5F5"/>
<path d="M15.0155 18.9966H12.4878V44.995H15.0155V18.9966Z" fill="#E0E0E0"/>
<path d="M19.5485 18.9966H17.0208V44.995H19.5485V18.9966Z" fill="#E0E0E0"/>
<path d="M24.0852 18.9966H21.5574V44.995H24.0852V18.9966Z" fill="#E0E0E0"/>
<path d="M28.6181 18.9966H26.0904V44.995H28.6181V18.9966Z" fill="#E0E0E0"/>
<path d="M32.9303 18.9966H30.4026V44.995H32.9303V18.9966Z" fill="#E0E0E0"/>
<path d="M9.15797 51.2535H6.57874V154.073H9.15797V51.2535Z" fill="#E0E0E0"/>
<path d="M13.7866 51.2535H11.2073V154.073H13.7866V51.2535Z" fill="#E0E0E0"/>
<path d="M18.4116 51.2535H15.8323V154.073H18.4116V51.2535Z" fill="#E0E0E0"/>
<path d="M23.0365 51.2535H20.4573V154.073H23.0365V51.2535Z" fill="#E0E0E0"/>
<path d="M27.437 51.2535H24.8578V154.073H27.437V51.2535Z" fill="#E0E0E0"/>
<path d="M31.9663 51.2535H29.3871V154.073H31.9663V51.2535Z" fill="#E0E0E0"/>
<path d="M36.5913 51.2535H34.012V154.073H36.5913V51.2535Z" fill="#E0E0E0"/>
<path d="M170.855 158.926C170.855 158.978 132.59 159.022 85.4311 159.022C38.2727 159.022 0 158.978 0 158.926C0 158.875 38.2433 158.823 85.4274 158.823C132.612 158.823 170.855 158.875 170.855 158.926Z" fill="#263238"/>
<path d="M118.288 28.791L114.807 29.4128C113.059 31.3871 110.635 32.6362 108.013 32.9144C105.391 33.1926 102.759 32.4799 100.635 30.9164C98.5118 29.3528 97.0499 27.0515 96.5369 24.4648C96.0239 21.878 96.497 19.193 97.8632 16.9373C99.2294 14.6817 101.39 13.0187 103.92 12.2751C106.45 11.5315 109.167 11.7611 111.536 12.9189C113.906 14.0767 115.756 16.0788 116.724 18.5317C117.693 20.9847 117.708 23.7111 116.768 26.175L118.288 28.791Z" fill="white"/>
<path d="M118.288 28.791C118.288 28.791 118.247 28.7322 118.177 28.6181L117.879 28.114L116.735 26.1897H116.798C116.79 26.1967 116.78 26.2006 116.77 26.2006C116.76 26.2006 116.75 26.1967 116.742 26.1897C116.737 26.1828 116.735 26.1744 116.735 26.1658C116.735 26.1572 116.737 26.1488 116.742 26.1419C117.349 24.5226 117.55 22.7793 117.328 21.0644C117.257 20.5253 117.143 19.9926 116.989 19.4712C116.813 18.9179 116.594 18.3791 116.334 17.8597C115.778 16.7033 115.012 15.6602 114.075 14.7837C112.996 13.7775 111.718 13.0088 110.324 12.5271C108.93 12.0455 107.45 11.8616 105.98 11.9874C104.354 12.1486 102.787 12.6811 101.4 13.5438C99.9416 14.4476 98.7335 15.7025 97.8857 17.1937C96.6012 19.4396 96.1933 22.0814 96.7406 24.6101C97.2878 27.1389 98.7516 29.3756 100.85 30.8894C102.948 32.4032 105.532 33.0869 108.104 32.8089C110.677 32.5308 113.055 31.3106 114.781 29.3834C114.781 29.3834 114.781 29.3834 114.803 29.3834L117.379 28.9529L118.052 28.8426L118.288 28.8058L118.071 28.8536L117.416 28.9787L114.814 29.468H114.84C113.681 30.7934 112.207 31.8057 110.554 32.4115C108.502 33.1632 106.269 33.264 104.159 32.7004C102.048 32.1367 100.162 30.936 98.7588 29.2618C97.3553 27.5875 96.5022 25.5213 96.3156 23.3446C96.1291 21.1679 96.6183 18.9866 97.7165 17.098L98.0587 16.5277C98.1838 16.3474 98.3162 16.1598 98.445 15.9942C98.708 15.6449 98.9905 15.3108 99.2913 14.9934C99.4348 14.8315 99.6077 14.6954 99.7622 14.5482C99.9153 14.3962 100.077 14.2537 100.248 14.1214C100.581 13.8535 100.931 13.6077 101.297 13.3855C102.709 12.5089 104.304 11.9688 105.958 11.8071C107.454 11.6812 108.96 11.8714 110.378 12.3652C111.796 12.8589 113.095 13.6453 114.189 14.6733C115.135 15.5657 115.908 16.6262 116.467 17.8008C116.724 18.3347 116.938 18.8884 117.107 19.4565C117.261 19.9851 117.371 20.5252 117.438 21.0717C117.653 22.8053 117.435 24.5653 116.801 26.1934L116.735 26.1566C116.743 26.1503 116.753 26.1469 116.763 26.1469C116.773 26.1469 116.782 26.1503 116.79 26.1566L117.894 28.1324L118.177 28.6328L118.288 28.791Z" fill="#263238"/>
<path d="M106.79 26.7306L101.617 23.272L102.823 21.4692L106.293 23.7872L110.605 18.0768L112.338 19.3866L106.79 26.7306Z" fill="#65A999"/>
<path d="M58.4172 27.7718L60.1502 24.361C59.4356 22.4298 59.2497 20.3427 59.6119 18.3156C59.9741 16.2885 60.8711 14.3949 62.2103 12.8306C63.5495 11.2663 65.2823 10.0881 67.2294 9.41787C69.1765 8.7476 71.2672 8.60958 73.2855 9.01808C75.0898 9.37892 76.7819 10.1651 78.2213 11.3112C79.6607 12.4574 80.8058 13.9305 81.5615 15.6081C82.3172 17.2858 82.6617 19.1195 82.5664 20.957C82.471 22.7945 81.9386 24.5828 81.0133 26.1732C80.088 27.7636 78.7966 29.1102 77.2463 30.1013C75.696 31.0923 73.9316 31.6991 72.0997 31.8713C70.2678 32.0434 68.4213 31.776 66.7135 31.0911C65.0057 30.4063 63.486 29.3238 62.2806 27.9337L58.4172 27.7718Z" fill="white"/>
<path d="M58.4172 27.7718H58.6748L59.4107 27.7939L62.2659 27.8896L62.2291 27.9484C62.2232 27.9392 62.2213 27.928 62.2237 27.9173C62.2261 27.9066 62.2327 27.8973 62.2419 27.8914C62.2512 27.8856 62.2624 27.8836 62.2731 27.886C62.2838 27.8885 62.2931 27.895 62.299 27.9043C63.5675 29.3494 65.1759 30.4558 66.9791 31.1237C67.5376 31.3332 68.1123 31.4969 68.6974 31.6131C69.3254 31.7304 69.9612 31.8017 70.5996 31.8265C72.1911 31.8886 73.778 31.6181 75.259 31.0323C76.74 30.4464 78.0826 29.5582 79.201 28.4242C80.3194 27.2903 81.189 25.9355 81.7542 24.4465C82.3195 22.9576 82.568 21.367 82.4839 19.7766C82.4656 19.5521 82.4656 19.324 82.4398 19.0996C82.414 18.8751 82.3699 18.6507 82.3331 18.4263L82.2816 18.0878C82.2595 17.9774 82.2264 17.867 82.2006 17.7566L82.0277 17.087C81.9688 16.8662 81.8732 16.6528 81.7996 16.4357C81.7277 16.2156 81.6442 15.9994 81.5494 15.7882C81.3598 15.3611 81.1448 14.9459 80.9055 14.5445C80.7804 14.3458 80.67 14.1398 80.5376 13.9448L80.1218 13.3818L79.9084 13.1206L79.6766 12.8631L79.213 12.3443C78.5679 11.6976 77.8506 11.1273 77.0753 10.6444C75.5717 9.71499 73.8774 9.13765 72.1192 8.95558C70.5236 8.80675 68.9145 8.99159 67.3943 9.49834C65.874 10.0051 64.4759 10.8227 63.2887 11.8991C62.2507 12.839 61.3939 13.9614 60.761 15.2105C60.6249 15.5085 60.4556 15.7918 60.3526 16.0935L60.0288 16.9803C59.8629 17.5535 59.7302 18.1358 59.6314 18.7243C59.346 20.6264 59.5433 22.5699 60.2054 24.3758C60.2091 24.3865 60.2091 24.3982 60.2054 24.4089C59.6351 25.5127 59.1973 26.3442 58.8992 26.9219L58.5571 27.5732C58.4798 27.7203 58.4356 27.7976 58.4356 27.7976L58.5387 27.5842C58.6122 27.4297 58.7189 27.2163 58.8588 26.9329L60.1318 24.3574V24.3905C59.4463 22.5751 59.2324 20.6154 59.51 18.6948C59.6062 18.0992 59.7364 17.5095 59.9 16.9288L60.2275 16.031C60.3463 15.7247 60.4814 15.4251 60.6322 15.1332C61.2697 13.866 62.1339 12.7262 63.182 11.7703C65.4173 9.74387 68.3485 8.65831 71.3645 8.73988C74.3805 8.82145 77.2487 10.0639 79.3712 12.2081L79.8422 12.7343L80.0813 12.9955L80.291 13.2788L80.6811 13.8565C80.8135 14.0515 80.9313 14.2612 81.049 14.4673C81.2942 14.8626 81.5141 15.2731 81.7076 15.6962C81.818 15.9059 81.8769 16.1377 81.9652 16.3548C82.0535 16.5719 82.1381 16.7926 82.197 17.0171L82.3699 17.6977C82.3956 17.8081 82.4324 17.9222 82.4545 18.0362L82.506 18.3784C82.5428 18.6065 82.5759 18.8347 82.6127 19.0628C82.6495 19.2909 82.6422 19.5227 82.6569 19.7508C82.7405 21.3632 82.487 22.9753 81.9127 24.4842C81.3383 25.9932 80.4557 27.3658 79.3212 28.5146C78.1867 29.6633 76.8251 30.5629 75.3234 31.1559C73.8217 31.749 72.2129 32.0225 70.5996 31.959C69.9533 31.9346 69.3099 31.8596 68.6753 31.7345C66.1734 31.2236 63.9123 29.8956 62.2475 27.9595L62.3137 27.9153C62.32 27.9232 62.3234 27.9329 62.3234 27.9429C62.3234 27.953 62.32 27.9627 62.3137 27.9705H62.2916L59.4107 27.8197L58.6748 27.7792L58.4172 27.7718Z" fill="#263238"/>
<path d="M71.4643 25.8439H65.8091V14.3164H71.4643V25.8439ZM66.177 25.4759H71.0963V14.6843H66.177V25.4759Z" fill="#263238"/>
<path d="M68.208 16.0162H67.0453V17.4218H68.208V16.0162Z" fill="#263238"/>
<path d="M70.228 16.0162H69.0653V17.4218H70.228V16.0162Z" fill="#263238"/>
<path d="M68.208 18.2091H67.0453V19.6146H68.208V18.2091Z" fill="#263238"/>
<path d="M70.228 18.2091H69.0653V19.6146H70.228V18.2091Z" fill="#263238"/>
<path d="M68.208 20.4058H67.0453V21.8113H68.208V20.4058Z" fill="#263238"/>
<path d="M70.228 20.4058H69.0653V21.8113H70.228V20.4058Z" fill="#263238"/>
<path d="M68.208 22.6686H67.0453V24.0741H68.208V22.6686Z" fill="#263238"/>
<path d="M70.228 22.6686H69.0653V24.0741H70.228V22.6686Z" fill="#263238"/>
<path d="M73.4107 21.4028H72.248V22.8083H73.4107V21.4028Z" fill="#263238"/>
<path d="M75.4306 21.4028H74.2679V22.8083H75.4306V21.4028Z" fill="#263238"/>
<path d="M73.4107 23.3713H72.248V24.7769H73.4107V23.3713Z" fill="#263238"/>
<path d="M75.4306 23.3713H74.2679V24.7769H75.4306V23.3713Z" fill="#263238"/>
<path d="M76.597 25.8439H71.0779V20.1115H76.597V25.8439ZM71.4459 25.476H76.229V20.4794H71.4459V25.476Z" fill="#263238"/>
<path d="M75.5631 15.6777H72.9691V19.3681H75.5631V15.6777Z" fill="#455A64"/>
<path d="M74.2642 16.3069H72.4135L73.3407 15.1442L74.2642 13.9852L75.1914 15.1442L76.1186 16.3069H74.2642Z" fill="#455A64"/>
<path d="M133.487 153.937V154.357C133.487 154.357 126.449 157.26 126.386 158.603L140.412 158.397L140.154 153.731C139.123 154.242 137.994 154.525 136.843 154.56C135.693 154.596 134.548 154.383 133.487 153.937Z" fill="#263238"/>
<path d="M140.416 158.397L140.353 157.293L126.934 157.9C126.934 157.9 126.312 158.179 126.39 158.636L140.416 158.397Z" fill="#455A64"/>
<path d="M133.443 154.408C133.443 154.474 133.789 154.5 134.127 154.717C134.466 154.934 134.65 155.218 134.712 155.188C134.775 155.159 134.668 154.765 134.253 154.515C133.837 154.265 133.425 154.334 133.443 154.408Z" fill="white"/>
<path d="M131.979 155.026C131.979 155.092 132.262 155.203 132.501 155.49C132.74 155.777 132.807 156.082 132.869 156.078C132.932 156.075 132.976 155.685 132.674 155.343C132.372 155 131.979 154.96 131.979 155.026Z" fill="white"/>
<path d="M131.169 156.8C131.232 156.8 131.324 156.469 131.14 156.097C130.956 155.725 130.636 155.578 130.61 155.637C130.584 155.696 130.783 155.891 130.926 156.2C131.07 156.509 131.103 156.792 131.169 156.8Z" fill="white"/>
<path d="M143.517 149.71L137.546 151.38L139.036 154.765L137.487 163.334C137.444 163.569 137.49 163.812 137.614 164.016C137.739 164.219 137.935 164.37 138.164 164.438C138.342 164.488 138.53 164.488 138.707 164.436C138.885 164.385 139.045 164.285 139.168 164.148C140.485 162.676 145.305 157.208 145.191 156.542L145 154.761C144.96 154.394 144.603 153.514 144.603 153.433L143.517 149.71Z" fill="#263238"/>
<path d="M138.34 164.482L145.136 155.931L145.169 156.321C145.193 156.482 145.181 156.645 145.133 156.8C145.086 156.955 145.003 157.097 144.893 157.215C144.36 158.076 142.844 160.03 139.194 164.158C139.088 164.277 138.955 164.368 138.807 164.425C138.658 164.481 138.498 164.501 138.34 164.482Z" fill="#455A64"/>
<path d="M140.132 160.266C139.878 159.997 139.574 159.78 139.238 159.625C138.88 159.524 138.505 159.489 138.134 159.522C138.134 159.5 138.237 159.416 138.458 159.368C138.744 159.309 139.042 159.332 139.315 159.434C139.589 159.533 139.828 159.71 140.003 159.942C140.125 160.118 140.154 160.255 140.132 160.266Z" fill="white"/>
<path d="M139.569 161.557C139.285 161.433 138.994 161.327 138.697 161.237C138.388 161.21 138.077 161.2 137.766 161.207C137.904 161.105 138.065 161.037 138.234 161.007C138.403 160.978 138.577 160.989 138.741 161.038C139.312 161.149 139.617 161.528 139.569 161.557Z" fill="white"/>
<path d="M141.24 158.57C140.817 158.345 140.378 158.152 139.926 157.992C139.454 157.894 138.976 157.831 138.495 157.801C138.971 157.632 139.49 157.632 139.967 157.801C140.469 157.897 140.92 158.17 141.24 158.57Z" fill="white"/>
<path d="M138.966 153.602C139.025 153.983 139.049 154.369 139.036 154.754C138.962 155.251 138.855 155.887 138.738 156.575C138.594 157.388 138.454 158.124 138.344 158.658C138.302 158.949 138.231 159.235 138.131 159.511C138.132 159.217 138.163 158.924 138.223 158.636C138.3 158.098 138.418 157.359 138.561 156.542C138.683 155.854 138.8 155.221 138.9 154.732C138.891 154.354 138.913 153.976 138.966 153.602Z" fill="#455A64"/>
<path d="M147.461 98.4377C147.932 96.1675 149.125 92.0613 148.657 90.1701C147.553 85.788 145.659 83.2529 143.05 77.6898H141.111L122.501 77.366L120.977 80.7436C119.285 85.295 118.13 88.0104 117.666 91.3402C117.118 95.1741 118.078 100.73 120.212 106.341C124.811 118.45 127.38 128.134 127.571 130.742C127.762 133.351 128.023 136.044 130.444 144.305C132.207 150.335 133.513 153.937 133.513 153.937C135.353 154.975 137.292 155.254 139.061 154.246L144.463 152.164C144.463 152.164 142.807 137.943 140.875 134.168C139.485 131.453 137.196 130.165 138.27 126.625C139.345 123.086 146.019 105.41 147.461 98.4377Z" fill="#263238"/>
<path d="M125.68 86.9543C125.707 86.984 125.732 87.016 125.753 87.05L125.959 87.3333L126.747 88.4555L129.69 92.6978V92.7162V92.7346C129.547 94.3241 129.491 96.1675 129.392 98.2242C129.293 100.281 129.186 102.54 129.072 104.969C128.958 107.397 128.807 109.995 128.667 112.714C128.527 115.433 128.366 118.28 128.093 121.206C127.81 123.638 127.56 126.029 127.766 128.325C127.821 128.899 127.891 129.466 127.998 130.021C128.092 130.572 128.227 131.114 128.402 131.644C128.77 132.674 129.234 133.675 129.657 134.646C131.375 138.535 132.968 142.005 134.322 144.93L137.531 151.833L138.396 153.716C138.488 153.926 138.561 154.084 138.616 154.206C138.671 154.327 138.686 154.375 138.686 154.375C138.686 154.375 138.653 154.323 138.598 154.213L138.362 153.731C138.153 153.297 137.855 152.668 137.468 151.866L134.227 144.974C132.873 142.06 131.25 138.591 129.525 134.705C129.098 133.73 128.649 132.744 128.255 131.692C128.078 131.154 127.942 130.605 127.847 130.047C127.736 129.484 127.663 128.914 127.608 128.336C127.398 126.014 127.648 123.608 127.931 121.176C128.204 118.266 128.344 115.414 128.509 112.714C128.675 110.013 128.8 107.397 128.929 104.969C129.057 102.54 129.168 100.277 129.274 98.2242C129.381 96.1711 129.447 94.3241 129.602 92.7346V92.7677C128.358 90.9281 127.372 89.4894 126.691 88.496L125.926 87.3591L125.735 87.0647C125.712 87.0301 125.694 86.9931 125.68 86.9543Z" fill="#455A64"/>
<path d="M128.16 47.1989L129.304 44.3106L136.114 43.9426L138.896 44.3106L139.201 45.1127L141.089 78.5139C141.089 78.5139 134.492 79.8458 131.195 79.3822C127.898 78.9186 124.017 77.4138 124.017 77.4138V58.4172L128.16 47.1989Z" fill="#F5F5F5"/>
<path d="M138.41 48.5566C138.41 48.5566 138.41 48.5786 138.362 48.6154L138.215 48.781C138.086 48.9245 137.891 49.1489 137.634 49.3844C136.932 50.0812 136.187 50.7337 135.404 51.3382L135.371 51.3639L135.345 51.3308C134.609 50.5237 133.925 49.6695 133.3 48.7736C133.23 48.6743 133.163 48.5713 133.097 48.4793H133.182C132.597 49.263 132.045 50.0062 131.545 50.6869C131.48 50.7737 131.403 50.8506 131.316 50.915C131.272 50.9501 131.222 50.976 131.167 50.9911C131.113 51.0063 131.056 51.0105 131 51.0033C130.896 50.9806 130.801 50.9267 130.728 50.8488C130.654 50.7752 130.599 50.6979 130.54 50.628L129.893 49.8186L128.965 48.6449L128.719 48.3248C128.689 48.2889 128.662 48.2508 128.638 48.2107L128.734 48.3137L128.995 48.6228L129.948 49.7744L130.603 50.5765C130.72 50.7163 130.838 50.8856 131.015 50.915C131.191 50.9445 131.35 50.7899 131.471 50.6317L133.101 48.4241L133.141 48.3652L133.182 48.4241L133.381 48.7148C134.006 49.6072 134.684 50.4611 135.412 51.2719H135.349C136.134 50.6757 136.884 50.0357 137.597 49.355C137.858 49.1048 138.057 48.9061 138.197 48.77L138.355 48.6154C138.371 48.5937 138.39 48.5739 138.41 48.5566Z" fill="#263238"/>
<g opacity="0.3">
<path opacity="0.3" d="M130.628 50.6758C130.628 50.6758 131.493 51.7391 131.732 51.4705C131.971 51.2019 133.255 49.2224 133.406 49.1415C133.557 49.0605 135.106 51.8348 135.713 51.6435C136.32 51.4521 138.484 49.285 138.484 49.285L138.524 48.4351L135.375 51.3013L133.141 48.4424L131.258 50.8892C131.258 50.8892 130.86 51.213 130.628 50.6758Z" fill="black"/>
</g>
<path d="M132.078 79.5846C132.069 79.4806 132.069 79.3759 132.078 79.2719C132.078 79.0511 132.078 78.7494 132.107 78.3741C132.141 77.5794 132.185 76.4572 132.24 75.0627C132.358 72.2774 132.516 68.4398 132.663 64.1828C132.81 59.9258 132.917 56.0882 132.994 53.2993C133.031 51.9195 133.064 50.7973 133.086 49.9878C133.101 49.6125 133.112 49.3145 133.119 49.0938C133.119 48.989 133.128 48.8844 133.145 48.781C133.154 48.8851 133.154 48.9897 133.145 49.0938V49.9915C133.145 50.7899 133.127 51.9121 133.112 53.3029C133.071 56.0882 132.983 59.9258 132.84 64.1902C132.696 68.4546 132.512 72.2848 132.361 75.0701C132.28 76.4461 132.214 77.5683 132.166 78.3815C132.141 78.7494 132.119 79.0548 132.1 79.2792C132.1 79.3814 132.092 79.4834 132.078 79.5846Z" fill="#263238"/>
<g opacity="0.3">
<path opacity="0.3" d="M126.077 66.1035L122.501 89.5815L122.777 92.124C123.089 92.4919 123.719 92.3631 124.035 92.0099C124.321 91.6266 124.492 91.1697 124.528 90.6927C125.9 82.5723 126.636 74.3159 126.077 66.1035Z" fill="black"/>
</g>
<path d="M121.044 47.2872C120.387 47.4987 119.792 47.8663 119.309 48.3585C118.825 48.8506 118.469 49.4527 118.269 50.1129L114.009 65.1431L117.504 75.4453L121.154 69.2345L123.73 46.7573L121.044 47.2872Z" fill="#65A999"/>
<path d="M125.967 46.3232L121.919 47.1143L120.786 68.5981C120.786 68.863 121.051 73.0133 121.051 73.0133L114.06 88.6212C115.62 91.4028 119.837 92.7089 122.81 93.4043C122.81 93.4043 125.819 72.064 126.014 67.3618C126.209 62.6596 129.23 44.3768 129.23 44.3768L125.967 46.3232Z" fill="#65A999"/>
<path d="M114.936 86.8514L114.962 86.7815L115.05 86.5754L115.388 85.7881C115.686 85.1 116.124 84.1066 116.662 82.8666L121.018 72.9765V72.9986C120.985 71.9353 120.944 70.8314 120.893 69.6872C120.775 67.1447 120.635 64.72 120.543 62.5161C120.451 60.3121 120.392 58.3216 120.374 56.6512C120.356 54.9807 120.374 53.6304 120.374 52.6995C120.374 52.2359 120.392 51.8754 120.4 51.6252C120.4 51.5037 120.4 51.4118 120.4 51.3455C120.4 51.2793 120.4 51.2499 120.4 51.2499C120.4 51.2499 120.4 51.283 120.4 51.3455V51.6252C120.4 51.8754 120.4 52.2359 120.4 52.6995C120.4 53.6304 120.4 54.9844 120.426 56.6512C120.451 58.3179 120.514 60.3048 120.617 62.5124C120.72 64.72 120.845 67.141 120.985 69.6835C121.036 70.813 121.077 71.9205 121.106 72.9949V73.017L116.72 82.8961C116.168 84.1287 115.727 85.1037 115.418 85.8028C115.267 86.1413 115.146 86.4025 115.05 86.5828C115.009 86.6711 114.98 86.7373 114.954 86.7852C114.951 86.8079 114.945 86.8302 114.936 86.8514Z" fill="#263238"/>
<path d="M125.823 65.029C125.823 65.029 125.823 65.0106 125.805 64.9775L125.768 64.8266C125.735 64.6868 125.691 64.4955 125.636 64.249C125.529 63.7449 125.382 63.0127 125.242 62.0965C125.102 61.1804 124.97 60.095 124.874 58.8771C124.778 57.6592 124.683 56.3236 124.616 54.9181C124.594 54.3919 124.569 53.8768 124.546 53.3728L124.513 52.6369C124.513 52.5155 124.513 52.394 124.513 52.269V52.085V51.993C124.513 51.993 124.513 51.9636 124.513 51.9452C124.513 51.9268 124.513 51.9452 124.513 51.9121V51.89C124.513 51.89 124.557 51.8716 124.565 51.89C124.572 51.9084 124.591 51.89 124.602 51.9194H124.532L125.613 51.1615V51.2424L124.429 50.65H124.396V50.6169C124.572 49.951 124.786 49.3549 124.97 48.8324C125.154 48.31 125.337 47.8537 125.474 47.4821C125.61 47.1105 125.735 46.8235 125.816 46.6248C125.856 46.5328 125.889 46.4592 125.911 46.4004C125.934 46.3415 125.948 46.3268 125.948 46.3268C125.943 46.3547 125.934 46.3819 125.923 46.4077L125.842 46.6358C125.764 46.8419 125.658 47.1326 125.518 47.5005C125.378 47.8684 125.216 48.3284 125.036 48.8545C124.855 49.3807 124.649 49.9583 124.477 50.639L124.454 50.5912L125.632 51.132L125.705 51.1651L125.639 51.213L124.561 51.9709H124.491C124.491 51.9709 124.528 51.9452 124.524 51.9452C124.521 51.9452 124.524 51.9452 124.524 51.9452C124.527 51.9468 124.53 51.9476 124.534 51.9476C124.537 51.9476 124.54 51.9468 124.543 51.9452H124.561V52.0813V52.2616L124.58 52.6295C124.58 52.8724 124.602 53.1226 124.613 53.3654C124.635 53.8695 124.66 54.3846 124.683 54.9107C124.749 56.3163 124.83 57.6519 124.933 58.8661C125.036 60.0802 125.161 61.173 125.301 62.0855C125.441 62.998 125.569 63.7302 125.669 64.2379C125.716 64.4844 125.757 64.6794 125.783 64.8193C125.783 64.8818 125.805 64.9333 125.812 64.9701C125.819 65.0069 125.823 65.029 125.823 65.029Z" fill="#263238"/>
<path d="M145.865 74.9596L148.44 48.9649L141.203 46.3121C141.203 46.3121 139.507 44.7521 138.605 43.9463L138.285 48.023C138.285 48.023 137.306 64.7089 138.848 73.1126C140.39 81.5163 140.173 81.2293 141.299 86.6968C142.119 90.6742 142.255 94.1475 143.506 94.4971C144.757 94.8466 150.997 92.5617 150.997 92.5617L145.865 74.9596Z" fill="#65A999"/>
<path d="M148.437 48.965C148.437 48.965 151.27 50.043 151.696 53.6893C152.009 56.3826 153.665 71.766 151.932 73.6829C149.859 75.911 147.593 77.9501 145.158 79.7759L141.111 74.5108L144.952 70.2869L147.119 51.6509L148.437 48.965Z" fill="#65A999"/>
<path d="M140.404 64.135C140.403 64.1179 140.403 64.1007 140.404 64.0835C140.404 64.0467 140.404 63.9989 140.43 63.94C140.457 63.8076 140.494 63.6236 140.541 63.3881C140.629 62.9098 140.761 62.2144 140.883 61.3498C141.14 59.6205 141.361 57.2178 141.486 54.554C141.516 53.926 141.545 53.3128 141.574 52.7143C141.574 52.4163 141.6 52.1256 141.615 51.8386L141.637 51.4155C141.637 51.3456 141.637 51.2757 141.637 51.2058V51.1064C141.639 51.0905 141.639 51.0745 141.637 51.0586C141.647 51.0617 141.657 51.0617 141.666 51.0586H141.696H141.63L140.552 50.297L140.489 50.2565L140.559 50.2234L141.736 49.6825L141.714 49.7267C141.611 49.2526 141.531 48.7737 141.475 48.2917C141.42 47.8649 141.368 47.5006 141.31 47.2063C141.251 46.9119 141.188 46.6838 141.144 46.5293L141.085 46.3564C141.085 46.3196 141.067 46.2975 141.085 46.2975C141.095 46.3152 141.104 46.3337 141.111 46.3527C141.111 46.3932 141.151 46.4483 141.177 46.5219C141.255 46.7418 141.318 46.9668 141.365 47.1953C141.431 47.4933 141.49 47.8575 141.552 48.2807C141.613 48.7605 141.698 49.2369 141.806 49.7083V49.7377H141.777L140.618 50.3153V50.2418L141.7 50.996H141.63C141.64 50.9868 141.653 50.9805 141.666 50.9776C141.679 50.9747 141.691 50.9747 141.703 50.9776C141.703 50.9776 141.703 50.9997 141.703 51.0107V51.1726C141.703 51.2425 141.703 51.3125 141.703 51.3824C141.703 51.5222 141.703 51.662 141.685 51.8055C141.685 52.0925 141.659 52.3832 141.648 52.6812C141.619 53.2736 141.593 53.888 141.563 54.5209C141.469 56.7981 141.257 59.0688 140.927 61.324C140.794 62.1887 140.651 62.8804 140.559 63.3587C140.504 63.5905 140.463 63.7745 140.43 63.9069C140.415 63.9658 140.404 64.0136 140.397 64.0504C140.412 64.1203 140.408 64.135 140.404 64.135Z" fill="#263238"/>
<path d="M150.372 70.9087C150.372 70.9087 150.118 70.7394 149.684 70.5407C149.428 70.4168 149.162 70.3147 148.889 70.2353C148.553 70.1423 148.21 70.0807 147.863 70.0514C147.515 70.0292 147.167 70.0391 146.821 70.0808C146.539 70.1173 146.261 70.1788 145.99 70.2648C145.526 70.4083 145.254 70.5591 145.254 70.5407C145.309 70.4942 145.371 70.4558 145.438 70.4267C145.511 70.3869 145.586 70.3513 145.662 70.32C145.763 70.2722 145.866 70.2304 145.971 70.1949C146.245 70.1 146.527 70.031 146.814 69.9888C147.519 69.8865 148.237 69.9405 148.919 70.147C149.194 70.2319 149.461 70.3415 149.717 70.4745C149.816 70.525 149.912 70.5815 150.004 70.6437C150.077 70.686 150.147 70.7327 150.214 70.7836C150.271 70.819 150.324 70.861 150.372 70.9087Z" fill="#263238"/>
<g opacity="0.3">
<path opacity="0.3" d="M141.207 46.647C141.207 46.647 142.513 49.6935 142.31 49.9584C142.108 50.2233 141.442 50.3926 141.442 50.3926C141.442 50.3926 142.568 50.8819 142.568 51.3124C142.568 52.1734 141.357 57.2656 141.357 57.2656L141.655 51.0438L140.577 50.3079L141.755 49.7597L141.207 46.647Z" fill="black"/>
</g>
<path d="M146.417 55.2236C146.426 55.2944 146.426 55.3662 146.417 55.437C146.417 55.5952 146.394 55.805 146.38 56.0441C146.339 56.5997 146.28 57.354 146.211 58.2775C146.045 60.1871 145.824 62.7774 145.578 65.6362C145.493 66.5266 145.416 67.3913 145.338 68.2118C145.299 68.6239 145.255 69.0249 145.206 69.4149C145.17 69.7962 145.104 70.1739 145.007 70.5445L142.2 73.4622L141.405 74.257C141.317 74.3574 141.218 74.4486 141.111 74.5292C141.187 74.4196 141.273 74.3174 141.368 74.2239L142.126 73.3923L144.864 70.4819V70.5114C144.95 70.1482 145.011 69.7794 145.044 69.4076C145.088 69.0212 145.129 68.6202 145.169 68.2081C145.243 67.3839 145.32 66.5193 145.401 65.6326C145.67 62.7737 145.912 60.1834 146.089 58.2738C146.185 57.3503 146.266 56.596 146.321 56.0441C146.35 55.8013 146.376 55.5989 146.394 55.4407C146.393 55.3677 146.4 55.2948 146.417 55.2236Z" fill="#263238"/>
<path d="M114.774 62.446L111.967 68.701L109.318 65.7317L105.782 68.2263L109.936 74.8897C111.242 76.5638 112.489 77.7044 113.909 77.5241C114.195 77.4847 114.476 77.4169 114.748 77.3217C116.698 76.6557 118.041 75.3459 118.549 73.348L120.157 65.2865L114.774 62.446Z" fill="#65A999"/>
<path d="M115.065 73.6167C115.04 73.5297 115.022 73.4412 115.009 73.3517C114.98 73.1825 114.929 72.936 114.859 72.6343C114.789 72.3326 114.693 71.9793 114.568 71.5893C114.443 71.1993 114.285 70.7799 114.097 70.3494C113.909 69.9189 113.7 69.5179 113.501 69.161C113.302 68.8041 113.1 68.495 112.927 68.2411C112.754 67.9872 112.603 67.7812 112.5 67.6451C112.443 67.5763 112.39 67.5038 112.342 67.428C112.408 67.4886 112.468 67.5551 112.522 67.6267C112.636 67.7591 112.791 67.9578 112.971 68.208C113.151 68.4582 113.339 68.7709 113.564 69.1242C113.786 69.5111 113.988 69.909 114.171 70.3163C114.358 70.7504 114.513 71.1772 114.638 71.5673C114.763 71.9573 114.851 72.3031 114.914 72.6232C114.976 72.9433 115.017 73.1751 115.039 73.3591C115.055 73.444 115.064 73.5302 115.065 73.6167Z" fill="#263238"/>
<path d="M130.544 22.6097L130.522 22.7054C130.54 22.687 130.54 22.6429 130.544 22.6097Z" fill="#263238"/>
<path d="M123.741 40.6055C123.788 39.6047 123.413 38.637 123.097 37.6841C122.78 36.7311 122.519 35.7009 122.788 34.7406C123.126 33.5264 124.219 32.6801 124.808 31.5616C125.396 30.4431 125.441 29.1222 125.544 27.8602C125.647 26.5981 125.86 25.2589 126.699 24.3059C127.759 23.0991 130.533 22.882 131.85 23.8129C132.052 30.995 131.99 38.1072 130.452 45.1274C126.945 45.2783 125.168 44.5939 122.111 42.8793C123.086 42.6696 123.693 41.6099 123.741 40.6055Z" fill="#263238"/>
<path d="M138.778 45.1568L140.048 27.7166C140.066 27.3316 139.939 26.9538 139.693 26.6575C139.446 26.3613 139.098 26.1681 138.716 26.1161L130.621 23.8238C128.016 23.4559 126.187 26.6422 125.948 29.2583C125.683 32.165 125.474 35.7266 125.757 37.9084C126.327 42.2979 129.661 42.9492 129.661 42.9492C129.591 45.1126 129.617 45.1568 129.617 45.1568L133.189 48.4241L138.778 45.1568Z" fill="#FFBF9D"/>
<path d="M127.129 33.0554C127.123 33.2013 127.175 33.3438 127.272 33.4525C127.37 33.5611 127.506 33.6272 127.652 33.6367C127.723 33.6443 127.795 33.6376 127.864 33.617C127.932 33.5964 127.996 33.5623 128.051 33.5167C128.106 33.4711 128.152 33.415 128.185 33.3515C128.218 33.2881 128.238 33.2187 128.244 33.1474C128.249 33.0017 128.198 32.8597 128.1 32.7512C128.003 32.6428 127.867 32.5764 127.722 32.566C127.651 32.5584 127.579 32.5651 127.51 32.5857C127.441 32.6063 127.378 32.6404 127.323 32.686C127.267 32.7316 127.222 32.7878 127.189 32.8512C127.155 32.9146 127.135 32.9841 127.129 33.0554Z" fill="#263238"/>
<path d="M126.662 31.1495C126.728 31.2231 127.162 30.9214 127.766 30.9398C128.369 30.9581 128.803 31.2746 128.87 31.201C128.936 31.1274 128.837 31.0354 128.649 30.8882C128.392 30.7006 128.084 30.5966 127.766 30.5902C127.453 30.5803 127.145 30.6705 126.886 30.8478C126.695 30.9692 126.636 31.1016 126.662 31.1495Z" fill="#263238"/>
<path d="M132.273 33.1621C132.267 33.308 132.318 33.4506 132.416 33.5592C132.514 33.6678 132.65 33.734 132.796 33.7434C132.867 33.751 132.939 33.7443 133.007 33.7237C133.076 33.7031 133.14 33.669 133.195 33.6234C133.25 33.5779 133.295 33.5217 133.329 33.4583C133.362 33.3948 133.382 33.3254 133.388 33.2541C133.394 33.1081 133.343 32.9656 133.245 32.857C133.147 32.7484 133.011 32.6822 132.865 32.6727C132.794 32.6646 132.722 32.671 132.653 32.6914C132.584 32.7118 132.521 32.7458 132.465 32.7915C132.41 32.8372 132.364 32.8936 132.331 32.9572C132.298 33.0209 132.279 33.0906 132.273 33.1621Z" fill="#263238"/>
<path d="M132.586 31.4144C132.656 31.488 133.09 31.1863 133.69 31.2046C134.289 31.223 134.727 31.5395 134.793 31.4659C134.86 31.3923 134.76 31.3003 134.573 31.1568C134.317 30.9674 134.008 30.862 133.69 30.8551C133.377 30.8452 133.068 30.9354 132.81 31.1127C132.623 31.2488 132.553 31.3813 132.586 31.4144Z" fill="#263238"/>
<path d="M130.272 35.826C129.957 35.7151 129.629 35.6458 129.296 35.62C129.142 35.6016 128.998 35.5648 128.976 35.4581C128.967 35.2991 129.006 35.1409 129.09 35.0055C129.245 34.6376 129.411 34.2696 129.58 33.8465C130.26 32.1945 130.757 30.8368 130.684 30.8074C130.61 30.7779 130.01 32.0988 129.33 33.7509C129.168 34.1556 129.009 34.5456 128.862 34.9172C128.759 35.1002 128.723 35.3141 128.763 35.5206C128.785 35.5749 128.818 35.6238 128.861 35.6638C128.903 35.7038 128.954 35.7341 129.009 35.7524C129.094 35.7779 129.182 35.7927 129.271 35.7966C129.602 35.8468 129.938 35.8567 130.272 35.826Z" fill="#263238"/>
<path d="M129.653 42.9492C131.707 43.0371 133.744 42.5544 135.54 41.5547C135.802 40.9513 134.37 43.7366 129.62 44.0935L129.653 42.9492Z" fill="#FF9A6C"/>
<path d="M130.316 37.2608C130.456 37.0646 130.643 36.9059 130.859 36.7988C131.075 36.6916 131.314 36.6393 131.556 36.6464C131.713 36.6533 131.867 36.6984 132.004 36.7779C132.14 36.8573 132.255 36.9688 132.339 37.1026C132.422 37.2537 132.461 37.4244 132.453 37.5963C132.446 37.7682 132.391 37.9347 132.295 38.0777C132.182 38.2245 132.026 38.3339 131.85 38.3916C131.674 38.4494 131.484 38.4528 131.305 38.4014C130.973 38.2819 130.674 38.0852 130.433 37.8275C130.357 37.7639 130.294 37.6849 130.249 37.5957C130.227 37.5464 130.219 37.4921 130.225 37.4385C130.231 37.3849 130.251 37.3337 130.283 37.2903" fill="#FF9A6C"/>
<path d="M132.034 36.3005C131.935 36.3005 131.916 36.9444 131.342 37.4043C130.768 37.8643 130.076 37.7723 130.065 37.8532C130.054 37.9342 130.22 37.9857 130.514 38.0004C130.897 38.0163 131.273 37.8979 131.578 37.6656C131.869 37.4403 132.062 37.1104 132.115 36.7457C132.155 36.4551 132.078 36.3005 132.034 36.3005Z" fill="#263238"/>
<path d="M132.391 28.9419C132.446 29.1075 133.049 29.0486 133.756 29.1517C134.462 29.2547 135.029 29.4681 135.125 29.3246C135.169 29.2547 135.073 29.0965 134.849 28.9309C134.547 28.73 134.201 28.6038 133.84 28.563C133.48 28.5085 133.112 28.54 132.766 28.655C132.501 28.7212 132.369 28.8463 132.391 28.9419Z" fill="#E0E0E0"/>
<path d="M126.934 29.0633C127.037 29.2032 127.457 29.0633 127.954 29.0633C128.45 29.0633 128.873 29.1811 128.976 29.0413C129.021 28.9714 128.958 28.8352 128.778 28.6991C128.536 28.5319 128.248 28.4445 127.954 28.4489C127.659 28.4475 127.372 28.5361 127.129 28.7028C126.949 28.8573 126.89 28.9971 126.934 29.0633Z" fill="#263238"/>
<path d="M129.65 23.7907C130.386 21.9952 132.023 21.6162 133.763 21.4286C135.504 21.2409 138.086 21.9621 139.525 22.9003C140.721 23.629 141.796 24.5402 142.711 25.6009C143.484 26.5981 143.815 27.735 144.308 28.8829C145.044 30.6711 145.007 32.6469 145.11 34.5676C145.244 36.9806 145.63 39.373 146.262 41.7055C146.49 42.5444 146.722 43.5452 145.526 44.0272C145.304 44.1133 145.071 44.1702 144.834 44.1964C142.995 44.4172 141.214 45.0169 139.165 45.1457H137.902C136.302 45.1457 135.481 44.1155 135.537 42.8093C135.702 38.8614 137.627 32.3783 137.84 31.1347C137.851 31.1494 138.517 22.628 129.65 23.7907Z" fill="#263238"/>
<path d="M130.227 23.754C130.494 23.9768 130.714 24.2514 130.872 24.5613C131.03 24.8711 131.124 25.2098 131.147 25.5569C131.243 26.2449 131.202 26.9514 131.331 27.632C131.466 28.3161 131.763 28.9577 132.198 29.5027C132.633 30.0476 133.192 30.48 133.829 30.7632C134.238 30.9361 134.793 31.0097 135.047 30.6454C135.032 31.1305 135.165 31.6088 135.428 32.0168C135.691 32.4249 136.071 32.7434 136.519 32.9303C137.167 33.1916 137.891 33.1474 138.572 33.2983C139.253 33.4491 139.967 33.9164 140.003 34.6155L140.29 29.7624L138.925 25.4723L134.731 22.9813L130.227 23.754Z" fill="#263238"/>
<path d="M137.674 31.7528C137.533 31.6547 137.399 31.5465 137.273 31.4291C136.958 31.0795 136.731 30.6593 136.611 30.2038C136.443 29.5276 136.346 28.8359 136.32 28.1397C136.288 27.2809 136.188 26.4259 136.022 25.5826C135.853 24.7305 135.459 23.9391 134.882 23.2903C134.623 23.0122 134.312 22.7883 133.966 22.6317C133.663 22.4977 133.339 22.418 133.009 22.3962C132.531 22.3577 132.053 22.4724 131.644 22.7237C131.58 22.7605 131.519 22.8036 131.464 22.8525C131.419 22.8846 131.378 22.9216 131.342 22.9629C131.309 22.995 131.278 23.0294 131.25 23.0659C131.377 22.9483 131.513 22.8424 131.659 22.7494C132.066 22.5148 132.537 22.412 133.005 22.4551C133.709 22.5056 134.367 22.8228 134.845 23.3418C135.405 23.9851 135.785 24.7642 135.949 25.601C136.112 26.4398 136.213 27.2896 136.25 28.1434C136.279 28.8456 136.384 29.5426 136.563 30.2222C136.689 30.6835 136.928 31.106 137.259 31.4511C137.379 31.5745 137.52 31.6765 137.674 31.7528Z" fill="white"/>
<path d="M141.302 31.1679C141.083 31.1422 140.867 31.0878 140.662 31.006C140.117 30.7422 139.654 30.3352 139.323 29.8286C139.083 29.489 138.877 29.1267 138.708 28.7469C138.527 28.3051 138.412 27.8389 138.366 27.3635C138.304 26.8631 138.285 26.3296 138.226 25.7777C138.193 25.5054 138.156 25.2221 138.094 24.9424C138.027 24.6582 137.934 24.381 137.814 24.1146C137.343 23.0937 136.505 22.2873 135.467 21.8555C134.622 21.5094 133.687 21.4462 132.803 21.6752C132.209 21.8217 131.652 22.0911 131.169 22.4662C130.993 22.6021 130.83 22.7549 130.684 22.9225C130.696 22.9148 130.708 22.9049 130.717 22.893L130.812 22.8084C130.853 22.7679 130.904 22.7201 130.967 22.6686C131.029 22.6171 131.103 22.5509 131.191 22.492C131.676 22.1307 132.229 21.8727 132.818 21.734C133.689 21.5183 134.607 21.5853 135.437 21.9254C136.45 22.3522 137.269 23.1385 137.737 24.133C137.852 24.3952 137.943 24.6673 138.009 24.9461C138.067 25.2197 138.112 25.496 138.142 25.774C138.201 26.3185 138.223 26.852 138.285 27.3598C138.338 27.8415 138.462 28.3128 138.653 28.7579C138.826 29.1455 139.037 29.5152 139.282 29.8618C139.625 30.3716 140.101 30.7776 140.658 31.0355C140.812 31.0939 140.973 31.1334 141.137 31.1532H141.265L141.302 31.1679Z" fill="#455A64"/>
<path d="M135.047 30.6454C135.047 30.6454 135.047 30.6454 135.047 30.6859C135.047 30.7264 135.047 30.7558 135.047 30.8036C135.047 30.8515 135.047 30.9251 135.073 31.0023C135.099 31.0796 135.106 31.1679 135.128 31.2672C135.188 31.5095 135.281 31.7423 135.404 31.959C135.572 32.2471 135.798 32.4975 136.066 32.6948C136.811 33.1816 137.698 33.4009 138.583 33.3166C139.11 33.2909 139.633 33.2095 140.143 33.0738C140.7 32.9343 141.235 32.7189 141.733 32.4336L141.832 32.3747H141.718C141.079 32.2845 140.458 32.0932 139.878 31.8081H139.845L139.819 31.8854C141.119 32.095 142.452 31.8562 143.598 31.2084L143.675 31.1642L143.591 31.1385C142.782 30.8953 142.024 30.5103 141.35 30.0015C140.824 29.6007 140.419 29.062 140.18 28.4452C140.042 28.038 139.977 27.6094 139.989 27.1795C139.989 27.036 140.007 26.9219 140.014 26.8373V26.7343V26.7048C140.015 26.7146 140.015 26.7245 140.014 26.7343V26.8226C140.014 26.9035 139.992 27.0176 139.974 27.1648C139.953 27.5998 140.011 28.035 140.147 28.4489C140.392 29.0837 140.81 29.637 141.354 30.0457C142.033 30.5618 142.798 30.9542 143.613 31.2047V31.1348C142.481 31.7699 141.167 32.0033 139.886 31.7971L139.602 31.7492L139.86 31.8743H139.893C140.472 32.161 141.093 32.3547 141.733 32.4483V32.3711C141.24 32.6525 140.711 32.8666 140.162 33.0076C139.658 33.1435 139.141 33.2249 138.62 33.2504C137.75 33.3384 136.876 33.1296 136.14 32.658C135.872 32.4612 135.648 32.2105 135.481 31.9222C135.358 31.7079 135.262 31.4793 135.194 31.2415C135.172 31.1421 135.15 31.0575 135.136 30.9803C135.121 30.903 135.114 30.8368 135.103 30.7852C135.091 30.7337 135.102 30.6969 135.084 30.6675C135.073 30.6591 135.06 30.6517 135.047 30.6454Z" fill="#455A64"/>
<path d="M144.018 42.5887C144.04 42.5887 143.775 40.2486 143.425 37.3714C143.076 34.4941 142.77 32.1614 142.748 32.1614C142.726 32.1614 142.991 34.5014 143.341 37.3787C143.69 40.256 143.992 42.5887 144.018 42.5887Z" fill="#455A64"/>
<path d="M135.158 75.6072C134.811 75.5357 134.454 75.537 134.108 75.6111C133.762 75.6852 133.435 75.8305 133.149 76.0377C132.236 76.7073 130.673 77.5977 129.101 77.2886C126.662 76.8066 125.337 74.5181 125.882 71.7696C126.427 69.0211 128.513 67.3801 130.956 67.8621C132.534 68.1712 133.645 69.5841 134.238 70.5517C134.426 70.8506 134.673 71.1076 134.964 71.307C135.255 71.5064 135.584 71.6438 135.93 71.7107C136.265 71.7766 136.609 71.7759 136.943 71.7087C137.277 71.6415 137.595 71.5091 137.877 71.3191C138.16 71.1291 138.403 70.8853 138.592 70.6015C138.78 70.3176 138.911 69.9994 138.977 69.665L141.685 53.3801L116.18 48.9244L98.7467 45.9037L96.024 61.357C95.748 62.7625 96.9291 64.0098 98.3346 64.3005C98.6807 64.3714 99.0377 64.3694 99.383 64.2947C99.7282 64.2199 100.054 64.074 100.34 63.8663C101.252 63.1967 102.82 62.3063 104.387 62.6154C106.83 63.0973 108.155 65.3859 107.61 68.1528C107.066 70.9197 104.976 72.5423 102.533 72.0603C100.958 71.7512 99.8432 70.3383 99.2508 69.3707C99.0635 69.0712 98.8166 68.8134 98.5254 68.6134C98.2342 68.4133 97.905 68.2754 97.5583 68.208C97.224 68.1402 96.8795 68.1394 96.5449 68.2058C96.2103 68.2722 95.8923 68.4044 95.6092 68.5947C95.3261 68.785 95.0836 69.0297 94.8959 69.3145C94.7081 69.5993 94.5788 69.9185 94.5154 70.2537L91.2482 88.4518L116.901 92.9664L131.949 95.6155L133.789 95.943L137.192 78.6758C137.264 78.3404 137.268 77.9941 137.204 77.6571C137.14 77.3202 137.01 76.9994 136.82 76.7136C136.631 76.4277 136.386 76.1826 136.101 75.9926C135.815 75.8027 135.495 75.6716 135.158 75.6072Z" fill="#455A64"/>
<path d="M109.752 65.2646C109.755 65.1726 109.74 65.0809 109.706 64.9952C109.672 64.9096 109.621 64.8319 109.556 64.7672C109.49 64.7024 109.412 64.652 109.326 64.6192C109.24 64.5864 109.148 64.5719 109.056 64.5765C108.843 64.5765 108.567 64.6023 108.228 64.6354C107.349 64.7237 104.748 66.0041 104.678 66.5192C104.631 66.7036 104.632 66.8971 104.682 67.0808C104.731 67.2645 104.828 67.4323 104.961 67.5679C104.961 67.5679 104.453 68.2412 104.637 68.8004C104.799 69.2751 105.565 69.4407 105.565 69.4407C105.565 69.4407 104.998 70.0993 105.565 70.5702C105.767 70.7321 106.175 71.0449 106.267 71.1516C106.304 71.2926 106.359 71.4286 106.429 71.5563C106.557 71.7356 106.721 71.8855 106.912 71.996C107.102 72.1064 107.314 72.1748 107.533 72.1965H107.68C107.962 72.2243 108.244 72.1427 108.468 71.9684C109.483 71.192 112.36 68.9403 112.416 68.3148C112.416 68.3148 112.964 67.888 112.75 67.4428C112.537 66.9976 111.716 67.1889 111.716 67.1889C111.828 67.0993 111.908 66.9764 111.945 66.8381C111.982 66.6998 111.974 66.5533 111.923 66.4199C111.735 65.9489 110.282 65.9894 109.623 66.0777C109.097 66.1439 107.632 66.3831 107.632 66.3831C107.632 66.3831 109.582 65.7135 109.697 65.3823C109.72 65.3457 109.739 65.3061 109.752 65.2646Z" fill="#FFBF9D"/>
<path d="M112.445 68.3293C112.384 68.3757 112.319 68.4163 112.25 68.4508C112.121 68.5207 111.934 68.62 111.694 68.7378C111.223 68.9732 110.554 69.2676 109.803 69.5583C109.053 69.8489 108.357 70.0807 107.853 70.2426C107.603 70.3236 107.401 70.3824 107.257 70.4266C107.185 70.4501 107.111 70.4685 107.036 70.4818C107.105 70.4484 107.177 70.4201 107.25 70.3971L107.838 70.1948C108.339 70.0218 109.023 69.779 109.777 69.492C110.532 69.205 111.194 68.9144 111.672 68.6936L112.239 68.425C112.305 68.3886 112.374 68.3566 112.445 68.3293Z" fill="#FF9A6C"/>
<path d="M111.834 67.1851C111.765 67.209 111.694 67.225 111.621 67.2329C111.485 67.2586 111.286 67.2954 111.039 67.3506C110.55 67.4573 109.884 67.6413 109.156 67.8731C108.788 67.9872 108.442 68.0902 108.129 68.1969C107.816 68.3036 107.54 68.4213 107.312 68.517C107.084 68.6126 106.9 68.7046 106.771 68.7635C106.708 68.7994 106.642 68.829 106.573 68.8518L106.621 68.8187L106.76 68.7378C106.882 68.6715 107.062 68.5759 107.29 68.4728C107.518 68.3698 107.794 68.2484 108.107 68.1343C108.42 68.0203 108.769 67.9172 109.134 67.8032C109.757 67.6023 110.391 67.434 111.032 67.2991C111.275 67.2513 111.477 67.2219 111.617 67.2035L111.834 67.1851Z" fill="#FF9A6C"/>
<path d="M107.662 66.3977C107.564 66.4639 107.459 66.5194 107.349 66.5633C107.15 66.6553 106.871 66.773 106.562 66.9018C106.253 67.0306 105.98 67.152 105.782 67.244C105.677 67.2986 105.569 67.3465 105.458 67.3875C105.55 67.3124 105.651 67.2493 105.76 67.1998C106.011 67.062 106.27 66.9391 106.536 66.8319C106.845 66.7031 107.125 66.5927 107.327 66.5118C107.435 66.4641 107.547 66.426 107.662 66.3977Z" fill="#FF9A6C"/>
<path d="M111.529 69.47C111.49 69.5256 111.445 69.5773 111.396 69.6245C111.304 69.7165 111.168 69.849 110.995 69.9924C110.649 70.3125 110.149 70.7283 109.605 71.1809C109.472 71.2949 109.343 71.4164 109.207 71.5194C109.081 71.6223 108.948 71.7169 108.81 71.8027C108.576 71.9522 108.32 72.0639 108.052 72.1338C107.871 72.1826 107.683 72.1988 107.496 72.1817C107.446 72.1794 107.395 72.1733 107.345 72.1633H107.294C107.361 72.1591 107.429 72.1591 107.496 72.1633C107.679 72.1676 107.862 72.1427 108.037 72.0897C108.298 72.0153 108.546 71.9025 108.773 71.7549C108.908 71.6677 109.038 71.5731 109.163 71.4715C109.295 71.3685 109.421 71.2508 109.557 71.133C110.101 70.6694 110.609 70.2684 110.962 69.963L111.374 69.5951C111.423 69.5497 111.474 69.5079 111.529 69.47Z" fill="#FF9A6C"/>
<path d="M140.379 75.5446C140.379 75.5446 139.466 74.5659 138.697 74.4077C137.928 74.2495 136.858 74.3856 136.677 74.2532C136.497 74.1207 136.092 73.5982 135.728 73.922C135.364 74.2458 134.775 75.5373 136.331 76.1701L137.435 76.3504C137.29 76.8708 137.068 77.3668 136.777 77.8222C136.438 78.2158 131.887 82.3588 131.887 82.3588C131.887 82.3588 131.339 82.7562 131.497 83.2676C131.655 83.779 132.711 83.6723 132.711 83.6723C132.887 83.8857 133.115 84.0509 133.372 84.1526C133.629 84.2543 133.908 84.289 134.183 84.2537C134.607 84.1787 135.022 84.0552 135.419 83.8857C135.648 84.1279 135.95 84.2881 136.279 84.342C136.608 84.3958 136.946 84.3402 137.24 84.1838C138.3 83.6282 142.818 79.5956 142.818 79.5956L141.681 75.5888L140.379 75.5446Z" fill="#FFBF9D"/>
<path d="M141.435 74.7573L140.301 75.5484C141.707 76.9649 142.774 78.2233 142.483 79.9231L144.669 79.0364C144.669 79.0364 144.856 75.6367 141.435 74.7573Z" fill="#FFBF9D"/>
<path d="M136.144 81.417C135.716 81.9554 135.193 82.4116 134.602 82.7636C134.046 83.1662 133.423 83.4664 132.762 83.6503C132.74 83.5951 133.568 83.2198 134.499 82.6017C135.43 81.9836 136.103 81.3765 136.144 81.417Z" fill="#FF9A6C"/>
<path d="M137.73 82.2927C137.439 82.7454 137.062 83.1362 136.62 83.4425C136.178 83.7488 135.68 83.9645 135.154 84.0772C135.136 84.022 135.798 83.7792 136.504 83.2824C137.211 82.7857 137.674 82.2633 137.73 82.2927Z" fill="#FF9A6C"/>
<path d="M72.7962 54.6164L74.1796 53.7886L76.0009 58.6968L74.5255 59.6093L72.7962 54.6164Z" fill="#F5F5F5"/>
<path d="M48.5639 22.9592C48.4851 21.0569 47.6936 19.2539 46.3467 17.9083C44.9997 16.5627 43.1959 15.7731 41.2935 15.6962H40.9035C36.6575 15.7661 34.3506 19.4123 34.5382 23.651L35.0754 40.7232L41.7829 43.2987L44.3768 40.9145C44.3768 39.7187 44.3768 37.2352 44.4026 37.2352C44.4283 37.2352 48.4977 36.7716 48.7148 32.7059C48.8215 30.7006 48.7074 26.6349 48.5639 22.9592Z" fill="#FFBF9D"/>
<path d="M44.4025 37.1948C42.5223 37.1143 40.7048 36.4949 39.1668 35.4103C39.1668 35.4103 40.3148 38.523 44.3915 38.3243L44.4025 37.1948Z" fill="#FF9A6C"/>
<path d="M47.162 26.4693C47.1582 26.6212 47.0946 26.7655 46.9851 26.8709C46.8756 26.9763 46.729 27.0342 46.577 27.0323C46.5029 27.0357 46.4288 27.0241 46.3593 26.9982C46.2898 26.9722 46.2263 26.9323 46.1726 26.8811C46.119 26.8298 46.0762 26.7682 46.0471 26.7C46.018 26.6317 46.003 26.5583 46.0031 26.484C46.0069 26.3328 46.07 26.189 46.1787 26.0838C46.2874 25.9785 46.4331 25.9201 46.5844 25.9211C46.6586 25.9181 46.7326 25.9301 46.8021 25.9562C46.8716 25.9823 46.9351 26.0221 46.989 26.0732C47.0428 26.1244 47.0859 26.1857 47.1156 26.2538C47.1453 26.3218 47.1611 26.3951 47.162 26.4693Z" fill="#263238"/>
<path d="M47.6257 24.7216C47.5484 24.7952 47.1216 24.4493 46.4961 24.4272C45.8706 24.4052 45.3923 24.6958 45.3371 24.6149C45.2819 24.5339 45.385 24.4456 45.591 24.3095C45.8683 24.1328 46.1935 24.0467 46.5219 24.063C46.8476 24.0754 47.1608 24.1914 47.416 24.3941C47.6036 24.5487 47.6625 24.6885 47.6257 24.7216Z" fill="#263238"/>
<path d="M41.724 26.4693C41.7192 26.6209 41.6553 26.7647 41.546 26.8698C41.4367 26.975 41.2906 27.0333 41.1389 27.0323C41.0648 27.0352 40.9907 27.0233 40.9212 26.9971C40.8518 26.971 40.7882 26.9312 40.7344 26.8801C40.6805 26.829 40.6375 26.7676 40.6077 26.6996C40.578 26.6316 40.5622 26.5583 40.5613 26.484C40.567 26.3327 40.6311 26.1895 40.7402 26.0846C40.8493 25.9796 40.9949 25.921 41.1463 25.9211C41.2205 25.9181 41.2945 25.9301 41.364 25.9562C41.4335 25.9823 41.497 26.0221 41.5509 26.0732C41.6047 26.1244 41.6478 26.1857 41.6775 26.2538C41.7072 26.3218 41.723 26.3951 41.724 26.4693Z" fill="#263238"/>
<path d="M41.4885 24.615C41.4149 24.6849 40.9881 24.3428 40.3626 24.317C39.7371 24.2913 39.2588 24.5893 39.1999 24.5083C39.1411 24.4274 39.2478 24.3391 39.4538 24.2029C39.7324 24.0262 40.0589 23.9401 40.3884 23.9564C40.713 23.9707 41.0254 24.0851 41.2825 24.2839C41.4664 24.4421 41.5253 24.5819 41.4885 24.615Z" fill="#263238"/>
<path d="M43.5342 29.5122C43.8676 29.4208 44.2114 29.3726 44.5571 29.3687C44.719 29.3687 44.8698 29.3355 44.9029 29.2252C44.9218 29.0617 44.891 28.8963 44.8146 28.7505C44.6822 28.3568 44.5387 27.9447 44.3915 27.5143C43.8065 25.7555 43.3907 24.3132 43.4643 24.2875C43.5379 24.2617 44.064 25.6709 44.6491 27.4296C44.7889 27.8638 44.925 28.2759 45.0501 28.6733C45.1447 28.8691 45.1656 29.0924 45.109 29.3024C45.0831 29.3577 45.0452 29.4065 44.9981 29.4453C44.951 29.4841 44.8959 29.512 44.8367 29.5269C44.7471 29.5452 44.6559 29.5538 44.5644 29.5526C44.2207 29.5807 43.8747 29.5671 43.5342 29.5122Z" fill="#263238"/>
<path d="M41.7718 22.6649C41.6798 22.8231 41.0801 22.6281 40.3442 22.584C39.6083 22.5398 38.9828 22.6245 38.9166 22.4589C38.8872 22.3779 39.0159 22.2381 39.2845 22.1204C39.6351 21.9793 40.0132 21.9203 40.3901 21.9477C40.767 21.9751 41.1326 22.0883 41.459 22.2786C41.7056 22.4368 41.8123 22.5913 41.7718 22.6649Z" fill="#263238"/>
<path d="M47.7287 22.8857C47.5963 23.0218 47.0922 22.8636 46.4777 22.8378C45.8633 22.8121 45.3445 22.9041 45.2304 22.7532C45.1789 22.6796 45.2635 22.5398 45.4953 22.411C45.8124 22.257 46.1634 22.186 46.5154 22.2047C46.8674 22.2234 47.2089 22.3311 47.508 22.5177C47.7214 22.687 47.7876 22.8158 47.7287 22.8857Z" fill="#263238"/>
<path d="M34.7479 26.646C34.678 26.6129 31.9847 25.7041 31.9589 28.4857C31.9332 31.2673 34.7332 30.7227 34.7405 30.6418C34.7479 30.5608 34.7479 26.646 34.7479 26.646Z" fill="#FFBF9D"/>
<path d="M33.9164 29.5821C33.9164 29.5821 33.8685 29.6152 33.7876 29.652C33.7294 29.6767 33.6668 29.6894 33.6036 29.6894C33.5404 29.6894 33.4778 29.6767 33.4196 29.652C33.2405 29.5368 33.0955 29.3757 32.9998 29.1855C32.904 28.9952 32.861 28.7828 32.8751 28.5703C32.8698 28.3322 32.9175 28.0959 33.0149 27.8786C33.0427 27.7925 33.0905 27.7142 33.1545 27.6502C33.2184 27.5862 33.2967 27.5384 33.3828 27.5106C33.4385 27.4975 33.497 27.5039 33.5485 27.5287C33.6001 27.5534 33.6416 27.5951 33.6662 27.6468C33.7029 27.7277 33.6662 27.7829 33.6993 27.7866C33.7324 27.7903 33.7581 27.7388 33.7397 27.6247C33.7242 27.5549 33.6853 27.4926 33.6294 27.4481C33.5539 27.3902 33.4589 27.3639 33.3644 27.3745C33.2494 27.3962 33.1418 27.4472 33.0522 27.5226C32.9627 27.598 32.894 27.6953 32.853 27.805C32.7318 28.0442 32.6711 28.3095 32.6764 28.5777C32.6764 29.1406 32.9708 29.6815 33.3718 29.7882C33.4465 29.8105 33.5253 29.8158 33.6023 29.8037C33.6794 29.7916 33.7527 29.7624 33.817 29.7183C33.8943 29.6483 33.9164 29.5895 33.9164 29.5821Z" fill="#FF9A6C"/>
<path d="M41.5694 29.8985C41.6651 29.8985 41.6688 30.5314 42.2207 31.0023C42.7726 31.4733 43.4496 31.3702 43.4533 31.4696C43.4569 31.5689 43.3024 31.5947 43.0154 31.602C42.6392 31.6055 42.2741 31.4751 41.9852 31.2341C41.7055 31.0082 41.5247 30.6822 41.4811 30.3253C41.4554 30.0457 41.5253 29.8948 41.5694 29.8985Z" fill="#263238"/>
<path d="M54.186 19.2946C54.1366 19.1366 54.0268 19.0044 53.8806 18.9267C53.5573 18.7741 53.1991 18.7106 52.843 18.7427C51.9554 18.7175 51.0855 18.4884 50.3006 18.0731C50.5773 17.9417 50.8318 17.7679 51.0548 17.558C51.2951 17.3427 51.471 17.0651 51.5633 16.756C51.6555 16.4469 51.6603 16.1183 51.5773 15.8066C51.5662 15.7479 51.541 15.6927 51.5038 15.6459C51.4666 15.5991 51.4186 15.5621 51.3639 15.538C51.1836 15.4791 51.0217 15.6557 50.893 15.7956C50.7297 16.0116 50.5115 16.1799 50.261 16.2828C50.0105 16.3857 49.737 16.4195 49.469 16.3806C49.0981 16.352 48.7384 16.24 48.4167 16.0531C48.4026 16.0415 48.3902 16.0278 48.3799 16.0126L47.9605 15.5785C46.9229 14.5262 46.0288 13.7977 45.1053 13.4113C43.7513 12.8484 41.4811 12.6019 40.0572 12.9588C38.6333 13.3157 37.3492 14.4305 37.1358 15.9023C36.3484 15.2179 35.1526 15.2105 34.1923 15.5895H34.1666C33.0848 15.9575 32.4593 17.0944 32.1282 18.1908C32.1282 18.2497 32.0951 18.3122 32.0767 18.3711C31.7057 18.9497 31.2009 19.4305 30.6049 19.773C30.5019 19.8318 30.3805 19.9054 30.3658 20.0268C30.371 20.086 30.3905 20.1429 30.4225 20.1929C30.4546 20.2429 30.4982 20.2844 30.5498 20.3138C30.809 20.4982 31.1053 20.6238 31.4181 20.6818C31.3163 20.937 31.1933 21.1831 31.0501 21.4176C30.9287 21.6237 30.7816 21.8702 30.8846 22.0836C30.9278 22.1644 30.9946 22.2302 31.0761 22.2723C31.1575 22.3143 31.2499 22.3307 31.3408 22.3191C31.5223 22.2812 31.694 22.206 31.8449 22.0983L31.477 22.9593C31.8681 23.028 32.2698 23.0053 32.6507 22.893C32.8678 23.9233 33.0186 25.8365 33.2762 26.5319C34.012 26.554 34.196 26.4767 34.5676 26.6018C35.0496 26.7674 34.8546 27.621 35.4838 27.3856C35.8039 27.2641 36.3116 26.061 36.422 25.7335C37.1574 23.5726 37.4209 21.2791 37.1947 19.0076C37.65 18.5426 38.1894 18.1681 38.7842 17.9038L38.7363 17.948C39.8806 17.5801 41.1721 17.19 42.2464 17.7346C43.0817 18.1614 43.5637 19.0371 44.1818 19.7362C44.7029 20.3759 45.3537 20.8979 46.0913 21.2676C46.8289 21.6374 47.6365 21.8465 48.4609 21.8812C48.6081 23.1101 48.6301 25.1227 48.678 26.2707L49.6861 23.9858C49.7671 23.8497 49.8333 23.7135 49.8995 23.5811L49.9216 23.5406C50.0197 23.3193 50.129 23.1032 50.2491 22.893C50.3841 22.9853 50.5459 23.0299 50.7091 23.02C50.8723 23.01 51.0275 22.946 51.1503 22.838C51.273 22.73 51.3563 22.5842 51.387 22.4236C51.4177 22.263 51.394 22.0968 51.3198 21.9511C51.2253 21.8116 51.1099 21.6875 50.9776 21.5832C51.1163 21.7215 51.2886 21.8214 51.4777 21.873C51.6667 21.9246 51.8658 21.9262 52.0556 21.8775C52.2412 21.8198 52.4027 21.703 52.5156 21.5449C52.6286 21.3868 52.6867 21.1961 52.6811 21.0019C52.6682 20.8696 52.6205 20.7432 52.543 20.6353C52.4654 20.5274 52.3608 20.4419 52.2396 20.3874C52.7493 20.4353 53.2616 20.3303 53.7113 20.0857C53.9947 19.9238 54.2816 19.6589 54.186 19.2946Z" fill="#263238"/>
<path d="M38.4126 16.3843C38.2655 16.4957 38.1277 16.6187 38.0005 16.7522C37.6742 17.1382 37.4536 17.6022 37.3603 18.0989C37.2849 18.4384 37.2454 18.785 37.2425 19.1328C37.2425 19.5007 37.2646 19.9128 37.2867 20.3359C37.3145 20.7807 37.3145 21.2268 37.2867 21.6715C37.2716 21.9092 37.2384 22.1454 37.1873 22.378C37.148 22.626 37.0467 22.8601 36.893 23.0586C36.8212 23.1373 36.7302 23.1959 36.629 23.2288C36.5277 23.2617 36.4196 23.2677 36.3153 23.2463C36.1161 23.2047 35.9355 23.1002 35.8002 22.9483C35.5888 22.6392 35.4619 22.2802 35.4323 21.907H35.5206C35.3939 22.2125 35.2228 22.4977 35.0128 22.7533C34.8118 22.9927 34.5254 23.1444 34.2144 23.1764C34.0702 23.1886 33.9253 23.1619 33.795 23.0991C33.6768 23.0331 33.5798 22.9348 33.5153 22.8158C33.4534 22.7034 33.424 22.576 33.4307 22.4479C33.4378 22.3297 33.486 22.2178 33.5668 22.1314L33.6073 22.1719C33.3622 22.4479 33.0612 22.6686 32.7243 22.8195C32.6102 22.871 32.5145 22.9004 32.452 22.9225C32.4207 22.9323 32.3887 22.9397 32.3563 22.9446L32.4483 22.9041C32.5072 22.882 32.5992 22.8452 32.7132 22.79C33.0386 22.6309 33.3288 22.4082 33.5668 22.1351L33.6073 22.1719C33.5386 22.2568 33.4984 22.3611 33.4925 22.4701C33.4866 22.5791 33.5151 22.6872 33.5742 22.779C33.6334 22.8848 33.7215 22.9715 33.8281 23.0292C33.943 23.0826 34.0697 23.1054 34.196 23.0954C34.4833 23.06 34.7464 22.9166 34.9319 22.6944C35.1339 22.4427 35.2975 22.1624 35.4176 21.8628L35.4801 21.7341L35.5059 21.8739C35.538 22.233 35.665 22.5771 35.8738 22.871C35.9942 23.007 36.1557 23.1 36.3337 23.1359C36.4226 23.155 36.5149 23.1505 36.6014 23.1227C36.6879 23.0949 36.7656 23.0449 36.8267 22.9777C36.9703 22.7922 37.064 22.5731 37.099 22.3412C37.1483 22.1144 37.1815 21.8845 37.1984 21.6531C37.2261 21.2108 37.2261 20.7672 37.1984 20.3249C37.1763 19.9017 37.1542 19.497 37.1653 19.118C37.1716 18.765 37.2148 18.4135 37.294 18.0694C37.3954 17.5707 37.6263 17.1075 37.9637 16.7265C38.0918 16.5867 38.2438 16.4708 38.4126 16.3843Z" fill="#455A64"/>
<path d="M50.9813 20.4794L50.9482 20.5052L50.8451 20.5788C50.7896 20.6188 50.7319 20.6557 50.6722 20.6892C50.5911 20.7353 50.5076 20.777 50.422 20.8143C49.8733 21.0572 49.2723 21.1584 48.6743 21.1086C47.7841 21.0415 46.9327 20.7168 46.2239 20.1741C45.368 19.5043 44.658 18.6667 44.1377 17.7126C43.847 17.2159 43.6078 16.7081 43.3503 16.2408C43.1113 15.7837 42.8091 15.3626 42.4525 14.9898C42.1319 14.6503 41.7307 14.3972 41.2862 14.254C41.0854 14.1964 40.8768 14.1703 40.668 14.1767C40.4742 14.1854 40.2824 14.2201 40.0977 14.2797C39.7805 14.3855 39.4886 14.5559 39.2404 14.7801C39.0546 14.951 38.898 15.1511 38.7768 15.3725C38.6778 15.5656 38.6048 15.771 38.5598 15.9833C38.5598 15.9833 38.5598 15.9833 38.5598 15.9391C38.5598 15.895 38.5598 15.8655 38.5781 15.814C38.6136 15.6548 38.668 15.5004 38.74 15.3541C38.8588 15.1257 39.0156 14.9192 39.2036 14.7433C39.4543 14.5106 39.7516 14.3338 40.0756 14.2245C40.2662 14.1621 40.4641 14.125 40.6643 14.1141C40.8817 14.1059 41.099 14.132 41.3082 14.1914C41.7656 14.3323 42.1804 14.5852 42.5151 14.9273C42.8789 15.305 43.1873 15.7324 43.4312 16.1967C43.6961 16.6676 43.9316 17.1754 44.2186 17.6684C44.7352 18.6113 45.4343 19.4418 46.2754 20.1115C46.97 20.6477 47.8038 20.9734 48.678 21.0497C49.2671 21.1029 49.8602 21.0133 50.4073 20.7885C50.6042 20.6961 50.7958 20.593 50.9813 20.4794Z" fill="#455A64"/>
<path d="M51.3713 18.7059C51.3713 18.7059 51.3235 18.7464 51.2241 18.8052C51.0852 18.8887 50.9401 18.9613 50.7899 19.0223C50.567 19.1136 50.3369 19.1862 50.1019 19.2394C49.8123 19.2996 49.5181 19.3352 49.2225 19.3461C48.9267 19.3484 48.6313 19.325 48.3395 19.2762C48.1027 19.2323 47.87 19.1683 47.6441 19.0849C47.4922 19.031 47.3446 18.9658 47.2026 18.8899C47.1468 18.8655 47.0947 18.8333 47.048 18.7942C47.048 18.7942 47.2798 18.8972 47.6662 19.0223C47.8923 19.0946 48.1235 19.1499 48.3579 19.1879C48.6439 19.2324 48.9331 19.2533 49.2225 19.2504C49.5118 19.2417 49.7998 19.2085 50.0835 19.1511C50.3147 19.1039 50.5422 19.0399 50.7642 18.9598C51.1432 18.8163 51.3639 18.6912 51.3713 18.7059Z" fill="#455A64"/>
<path d="M46.9413 146.313L47.0002 154.206C47.0002 154.206 55.0396 156.781 55.1941 158.253L39.8953 158.915L39.2993 146.623L46.9413 146.313Z" fill="#263238"/>
<path d="M42.2391 153.757C42.0935 153.809 41.9722 153.913 41.8982 154.048C41.8242 154.184 41.8028 154.342 41.838 154.493C41.8841 154.643 41.9866 154.769 42.124 154.844C42.2613 154.92 42.4227 154.939 42.5739 154.898C42.7277 154.843 42.8559 154.734 42.934 154.59C43.0121 154.447 43.0345 154.28 42.997 154.121C42.9342 153.972 42.8157 153.853 42.6666 153.79C42.5174 153.727 42.3496 153.724 42.1986 153.783" fill="#E0E0E0"/>
<path d="M39.8953 158.926V157.686L54.5686 157.513C54.5686 157.513 55.2603 157.782 55.2052 158.249L39.8953 158.926Z" fill="#455A64"/>
<path d="M47.243 154.129C47.243 154.202 46.8751 154.254 46.5071 154.497C46.1392 154.739 45.9699 155.074 45.9 155.048C45.8301 155.023 45.9221 154.585 46.36 154.283C46.7978 153.981 47.2577 154.059 47.243 154.129Z" fill="white"/>
<path d="M48.8767 154.721C48.8988 154.795 48.5786 154.934 48.3395 155.262C48.1003 155.589 48.0415 155.924 47.9715 155.924C47.9016 155.924 47.8317 155.505 48.1408 155.104C48.4499 154.703 48.873 154.651 48.8767 154.721Z" fill="white"/>
<path d="M49.8701 156.616C49.8039 156.634 49.6861 156.266 49.8701 155.851C50.0541 155.435 50.3852 155.254 50.422 155.313C50.4588 155.372 50.2491 155.604 50.1093 155.95C49.9694 156.296 49.9474 156.59 49.8701 156.616Z" fill="white"/>
<path d="M47.0296 152.329C47.0039 152.399 46.6617 152.311 46.2349 152.359C45.8081 152.407 45.499 152.554 45.4475 152.491C45.396 152.429 45.7124 152.149 46.2091 152.097C46.7058 152.046 47.0664 152.27 47.0296 152.329Z" fill="white"/>
<path d="M29.2031 148.002L28.3716 157.517L29.8875 165.244C29.9133 165.376 29.9117 165.511 29.8828 165.642C29.854 165.773 29.7985 165.897 29.7198 166.006C29.6411 166.114 29.541 166.206 29.4255 166.274C29.31 166.342 29.1817 166.386 29.0486 166.403C28.8937 166.423 28.7363 166.405 28.5896 166.351C28.443 166.297 28.3114 166.209 28.206 166.094C26.8447 164.622 21.8518 159.103 21.9511 158.415C22.0652 157.613 22.1572 148.326 22.1572 148.326L29.2031 148.002Z" fill="#263238"/>
<path d="M29.0486 166.388L21.9916 157.76L21.9658 158.161C21.9427 158.51 22.0444 158.855 22.2528 159.136C22.8121 159.872 24.4016 161.925 28.1803 166.079C28.2881 166.198 28.4239 166.289 28.5754 166.343C28.727 166.397 28.8896 166.413 29.0486 166.388Z" fill="#455A64"/>
<g opacity="0.6">
<path opacity="0.6" d="M24.144 154.809C24.2558 154.903 24.3289 155.035 24.3492 155.18C24.3696 155.325 24.3358 155.472 24.2543 155.593C24.1653 155.708 24.0354 155.784 23.8916 155.806C23.7477 155.828 23.6009 155.794 23.4817 155.711C23.3639 155.611 23.2872 155.471 23.2661 155.319C23.2451 155.166 23.2812 155.011 23.3676 154.883C23.4725 154.772 23.6166 154.706 23.7693 154.7C23.9219 154.694 24.0709 154.748 24.1844 154.85" fill="white"/>
</g>
<path d="M27.139 162.083C27.3891 161.8 27.6914 161.568 28.0294 161.399C28.3848 161.282 28.7597 161.234 29.1332 161.259C29.1332 161.233 29.0265 161.152 28.8057 161.108C28.5143 161.055 28.2137 161.088 27.9411 161.204C27.664 161.319 27.428 161.515 27.2641 161.767C27.139 161.936 27.1132 162.076 27.139 162.083Z" fill="white"/>
<path d="M27.735 163.404C28.0183 163.265 28.3094 163.142 28.607 163.036C28.9185 163 29.2317 162.98 29.5453 162.977C29.4045 162.876 29.2414 162.81 29.0697 162.785C28.8981 162.76 28.723 162.777 28.5592 162.834C27.9852 162.974 27.6872 163.375 27.735 163.404Z" fill="white"/>
<path d="M25.98 160.369C26.4011 160.122 26.8402 159.908 27.2935 159.728C27.7652 159.613 28.2448 159.533 28.7285 159.489C28.2352 159.36 27.7154 159.374 27.2299 159.53C26.7445 159.686 26.3134 159.977 25.9873 160.369H25.98Z" fill="white"/>
<path d="M25.991 157.455C26.0131 157.514 26.554 157.33 27.2383 157.348C27.9227 157.366 28.4562 157.565 28.482 157.51C28.1259 157.243 27.686 157.113 27.242 157.142C26.8013 157.097 26.3589 157.208 25.991 157.455Z" fill="white"/>
<path d="M26.164 154.658C26.5865 154.548 27.0226 154.499 27.4591 154.511C27.8899 154.586 28.3083 154.72 28.7027 154.908C28.7027 154.89 28.6218 154.761 28.4121 154.622C28.1311 154.443 27.8123 154.334 27.4812 154.301C27.1503 154.267 26.8158 154.312 26.5062 154.434C26.2707 154.53 26.1493 154.636 26.164 154.658Z" fill="white"/>
<path d="M27.4775 153.978C27.515 153.859 27.5275 153.734 27.5143 153.61C27.5031 153.276 27.4256 152.949 27.2861 152.646C27.2048 152.416 27.0496 152.219 26.8446 152.086C26.7728 152.049 26.6912 152.034 26.6109 152.045C26.5305 152.055 26.4554 152.09 26.3957 152.145C26.2883 152.259 26.2256 152.408 26.2191 152.565C26.2196 152.886 26.3324 153.197 26.538 153.445C26.7435 153.692 27.029 153.86 27.345 153.919C27.6585 153.972 27.9808 153.93 28.2706 153.799C28.5603 153.668 28.8043 153.454 28.9713 153.183C29.0139 153.115 29.0412 153.039 29.0514 152.959C29.0615 152.88 29.0543 152.799 29.0301 152.723C28.9969 152.649 28.9414 152.588 28.8715 152.547C28.8017 152.506 28.7208 152.488 28.6401 152.495C28.4018 152.53 28.1771 152.628 27.9889 152.778C27.7165 152.967 27.4808 153.204 27.2935 153.477C27.216 153.571 27.1584 153.68 27.1242 153.797C27.3964 153.456 27.7161 153.154 28.0735 152.903C28.2419 152.78 28.4376 152.699 28.6438 152.668C28.6882 152.662 28.7332 152.671 28.7719 152.694C28.8105 152.717 28.8405 152.751 28.8572 152.793C28.8697 152.844 28.8713 152.896 28.8617 152.948C28.8522 152.999 28.8319 153.048 28.802 153.091C28.6506 153.32 28.4365 153.5 28.1853 153.61C27.9341 153.721 27.6564 153.756 27.3855 153.713C27.1187 153.662 26.8769 153.522 26.6998 153.317C26.5227 153.111 26.4207 152.851 26.4104 152.579C26.413 152.469 26.4532 152.362 26.5245 152.278C26.5567 152.247 26.598 152.227 26.6423 152.221C26.6867 152.215 26.7318 152.223 26.771 152.245C26.9382 152.359 27.0665 152.522 27.139 152.712C27.3257 153.11 27.4403 153.539 27.4775 153.978Z" fill="white"/>
<path d="M55.0323 80.8982C55.7679 84.1674 56.0158 87.5275 55.7681 90.8693C55.6026 92.9886 48.4535 151.612 48.4535 151.612H38.8026L41.5143 96.5134L40.7269 96.6863C40.7269 96.6863 35.4544 120.19 35.0202 123.991C34.6523 127.409 29.9059 154.29 29.9059 154.29L20.7958 154.191L24.1845 119.495L27.4665 87.9626L28.699 78.7642L55.0323 80.8982Z" fill="#263238"/>
<path d="M72.8073 53.7885L63.4286 58.4282L58.1229 44.6085C57.6399 43.4258 56.8764 42.3783 55.8982 41.5565C54.92 40.7348 53.7566 40.1633 52.5082 39.8916C52.1881 39.8247 51.8634 39.7817 51.5369 39.7628L55.3303 61.839C56.0754 63.6453 57.0659 65.3402 58.2738 66.876C59.0648 67.829 60.6396 68.8298 64.124 67.737L75.3313 60.2348L72.8073 53.7885Z" fill="#263238"/>
<path d="M34.5971 37.0732L39.2404 40.9329L41.6099 42.7726L42.8094 42.6033L43.4717 40.7931L44.3658 37.2646L45.6168 38.9166L49.0018 46.1024L52.8026 80.8613C52.8026 80.8613 46.1797 82.804 42.7432 83.0358C39.3067 83.2676 33.8428 82.3331 33.8428 82.3331V64.043L31.8964 45.9295L34.2475 38.9902L34.5971 37.0732Z" fill="#F5F5F5"/>
<path d="M44.4099 82.8041C44.4053 82.7724 44.4053 82.7402 44.4099 82.7084C44.4099 82.6349 44.4099 82.5429 44.4099 82.4215C44.4099 82.1602 44.3878 81.7923 44.3694 81.3176C44.3363 80.35 44.2922 78.9702 44.2333 77.2703C44.1156 73.8485 43.9279 69.1242 43.6593 63.9106C43.3907 58.6969 43.0853 53.9763 42.8499 50.5619L42.5702 46.5146C42.5371 46.0436 42.5114 45.6757 42.4966 45.4107C42.4966 45.2893 42.4966 45.1973 42.4966 45.1238C42.4966 45.0502 42.4966 45.0281 42.4966 45.0244C42.5006 45.0574 42.5006 45.0908 42.4966 45.1238C42.4966 45.1937 42.4966 45.2893 42.5298 45.4071C42.5518 45.6683 42.5849 46.0362 42.6291 46.5109C42.7137 47.4638 42.8278 48.8436 42.9566 50.5582C43.2178 53.9689 43.5342 58.6859 43.8028 63.9032C44.0714 69.1206 44.2443 73.8375 44.3363 77.2667C44.3842 78.9776 44.4173 80.361 44.4283 81.314C44.4283 81.7886 44.4283 82.1565 44.4283 82.4178V82.7048C44.4136 82.771 44.4099 82.8041 44.4099 82.8041Z" fill="#263238"/>
<path d="M32.2974 40.6422L32.6286 40.4656L26.0057 43.9353L28.5077 61.0664L29.8985 69.8968L24.718 90.8398C24.718 90.8398 28.6107 93.3822 30.5608 92.8818C31.602 92.6132 32.4925 90.5197 33.1805 88.8713C34.5576 85.5834 35.4511 82.1133 35.8333 78.5691C36.2012 75.0038 36.5692 70.4745 36.3153 67.3765C35.8296 61.6109 35.068 52.0998 34.9981 49.5978C34.9282 47.0958 34.3395 37.879 34.3395 37.879L32.2974 40.6422Z" fill="#263238"/>
<path d="M44.5203 37.099L48.3689 39.1852L51.7465 39.7629L56.3016 49.7339L55.4332 67.7628L59.9809 90.0193C59.9809 90.0193 56.6474 91.2004 55.3266 90.7147C54.0057 90.229 52.2028 87.2414 52.1329 85.4348C52.063 83.6282 49.4948 66.1292 49.4948 66.1292L47.3092 45.5579C47.1025 43.5965 46.5547 41.6864 45.6903 39.9137L44.5203 37.099Z" fill="#263238"/>
<path d="M48.3689 39.7628C48.4128 39.8063 48.4534 39.8531 48.4903 39.9026L48.8362 40.3221L50.1092 41.9189L50.135 41.952L50.1019 41.9778L49.0201 42.7983V42.71L50.2895 43.111H50.3263V43.1552C50.3042 45.4106 50.2748 48.2548 50.2417 51.3381C50.1865 55.1021 50.135 58.5055 50.0982 60.9854C50.0761 62.2106 50.054 63.193 50.0393 63.9068C50.0393 64.2416 50.0393 64.5102 50.0172 64.7015C50.0172 64.7862 50.0172 64.8524 50.0172 64.9076C50.0172 64.9628 50.0172 64.9775 50.0172 64.9775C50.0172 64.9775 50.0172 64.9554 50.0172 64.9076C50.0172 64.8598 50.0172 64.7862 50.0172 64.7015C50.0172 64.5065 50.0172 64.2416 50.0172 63.9068C50.0172 63.204 50.0172 62.2069 50.0172 60.9817C50.043 58.5055 50.0761 55.0947 50.1166 51.3344C50.1607 48.2548 50.2012 45.4106 50.2307 43.1515L50.2711 43.2067L49.0091 42.7946L48.9134 42.7652L48.9944 42.7063L50.0982 41.8968V41.9594L48.8546 40.3405L48.5271 39.9063C48.4708 39.8625 48.4179 39.8146 48.3689 39.7628Z" fill="#455A64"/>
<path d="M36.0173 63.7891C36.0053 63.7685 35.9966 63.7462 35.9915 63.7229L35.9253 63.5205L35.6714 62.7405C35.4507 62.0672 35.1195 61.0921 34.6964 59.8926L33.9973 57.9352C33.7211 57.1877 33.484 56.4263 33.2872 55.654C32.8599 53.8823 32.5271 52.0892 32.2901 50.2822C31.9479 47.7802 31.7235 45.418 31.591 43.3907V43.3613L31.6131 43.3392L32.7169 42.2869V42.3752L31.6793 41.5878L31.6425 41.5547L31.6719 41.5142L33.5411 38.9792L34.0525 38.2948L34.1923 38.1219C34.2069 38.1011 34.2228 38.0815 34.2401 38.063C34.2401 38.063 34.2401 38.0887 34.2034 38.1292L34.0783 38.3132L33.5852 39.0159L31.7455 41.5915V41.5179L32.7868 42.2979L32.842 42.3384L32.7942 42.3826L31.6903 43.4459L31.7087 43.3944C31.8559 45.4217 32.0767 47.7802 32.4446 50.2785C32.679 52.0834 33.0057 53.8751 33.4233 55.6467C33.6343 56.4586 33.8661 57.2165 34.1187 57.9205L34.8031 59.8853C35.2152 61.0884 35.539 62.0672 35.734 62.7478C35.837 63.09 35.9143 63.3549 35.9621 63.5352C35.9842 63.6198 36.0026 63.6898 36.0136 63.7413C36.0246 63.7928 36.0173 63.7891 36.0173 63.7891Z" fill="#455A64"/>
<path d="M53.0454 76.3467L53.8733 78.9186L58.5608 78.4881L57.1001 76.0266L53.0454 76.3467Z" fill="#263238"/>
<path d="M53.0491 76.3468C53.0491 76.3468 53.1411 76.3468 53.3287 76.31L54.1492 76.229C54.8593 76.1628 55.8822 76.0671 57.0927 75.9641H57.1295L57.1516 76.0009L58.6233 78.455L58.6785 78.5507H58.5681L58.3253 78.5728L53.8806 78.9812H53.8365V78.9407C53.5826 78.1349 53.3876 77.469 53.2551 77.0348C53.1962 76.8251 53.1447 76.6669 53.1043 76.5234C53.0858 76.4668 53.071 76.409 53.0601 76.3504C53.0889 76.4112 53.1135 76.4739 53.1337 76.5381L53.314 77.0569C53.4722 77.5168 53.6819 78.1607 53.9432 78.8966L53.8843 78.8561L58.329 78.4293L58.5681 78.4072L58.5129 78.5139L57.0596 76.0524L57.1184 76.0855C55.9337 76.1738 54.9108 76.2364 54.2118 76.2805L53.3729 76.3284C53.1631 76.3468 53.0491 76.3504 53.0491 76.3468Z" fill="#455A64"/>
<g opacity="0.3">
<path opacity="0.3" d="M50.2564 43.1626L51.0291 44.2296C51.0291 44.2296 50.812 60.3967 49.9915 64.4109L50.2564 43.1626Z" fill="black"/>
</g>
<path d="M34.597 40.462C34.6781 40.5887 34.7758 40.7038 34.8877 40.8042C35.0864 41.0139 35.3771 41.312 35.7413 41.6799C36.4772 42.4158 37.4817 43.4055 38.6149 44.4946L39.3508 45.2305L39.4759 45.3519L39.5348 45.19C39.9027 44.1672 40.2706 43.24 40.5355 42.4746L40.3994 42.5041L41.356 43.3651C41.4662 43.4768 41.5898 43.5744 41.724 43.6557C41.6363 43.5199 41.5312 43.3962 41.4112 43.2878C41.2015 43.0707 40.8924 42.758 40.5061 42.3753L40.4178 42.287L40.37 42.4047C40.0756 43.1664 39.715 44.0862 39.3177 45.1017L39.5016 45.0612L38.7658 44.3254C37.6325 43.2216 36.5986 42.2576 35.8407 41.5585C35.4727 41.1905 35.1563 40.9256 34.9392 40.738C34.8376 40.6316 34.7225 40.5389 34.597 40.462Z" fill="#263238"/>
<path d="M43.2767 43.3134C43.5453 42.8427 43.7742 42.3504 43.961 41.8417L43.8102 41.8674C44.3597 42.5837 44.8125 43.3693 45.1568 44.2038C45.2194 44.3473 45.2709 44.4908 45.3224 44.6269L45.4475 44.9654L45.5432 44.6196C45.7882 43.7182 45.9229 42.7903 45.9442 41.8564C45.9722 41.4771 45.9474 41.0957 45.8706 40.7231C45.8239 41.0968 45.7969 41.4726 45.7897 41.849C45.722 42.765 45.5643 43.672 45.3187 44.557H45.5395C45.488 44.4172 45.4328 44.27 45.3702 44.1229C45.019 43.2682 44.5401 42.4718 43.95 41.7607L43.8507 41.643L43.7955 41.7828C43.5816 42.2782 43.4081 42.7901 43.2767 43.3134Z" fill="#263238"/>
<path d="M44.1119 44.2481L43.1957 45.5984H41.8196L41.0837 44.2481L41.7865 42.7653L42.986 42.5961L44.1119 44.2481Z" fill="#65A999"/>
<path d="M43.2472 44.9103L47.3975 76.2474L43.8506 81.0563L40.3 75.9567L41.8711 44.9103H43.2472Z" fill="#65A999"/>
<path d="M51.3271 78.9812C51.3219 79.2126 51.3367 79.4441 51.3713 79.6729C51.4265 80.1586 51.4964 80.7767 51.581 81.5457C51.6656 82.3147 51.7944 83.2897 51.9232 84.3236C52.0852 85.462 52.3651 86.5804 52.7584 87.6608C53.1889 88.7904 53.7482 89.9015 54.7011 90.4902C55.1511 90.7394 55.6586 90.8662 56.1729 90.8582C56.6119 90.8615 57.0504 90.8245 57.4827 90.7478C58.1067 90.6445 58.7217 90.4932 59.3224 90.2952C59.5469 90.2346 59.764 90.1494 59.97 90.0414C59.7423 90.0841 59.5174 90.1406 59.2966 90.2106C58.691 90.3686 58.0768 90.4914 57.457 90.5785C57.0333 90.6426 56.6049 90.6696 56.1765 90.6595C55.6944 90.6661 55.2188 90.5469 54.7968 90.3136C53.9321 89.7728 53.3765 88.6947 52.9571 87.5836C52.0998 85.3207 51.9857 83.0984 51.7245 81.531C51.6104 80.773 51.5148 80.1476 51.4412 79.6656C51.422 79.4347 51.3839 79.2058 51.3271 78.9812Z" fill="#455A64"/>
<path d="M36.0798 79.9011C36.0786 79.971 36.0675 80.0404 36.0467 80.1072L35.9032 80.6959C35.7781 81.2036 35.5794 81.9358 35.3219 82.8373C34.6657 85.1892 33.8708 87.5002 32.9413 89.7581C32.6686 90.4029 32.3553 91.0296 32.0031 91.6346C31.8343 91.9259 31.6384 92.2006 31.4181 92.4551L31.2451 92.6317C31.1789 92.6869 31.109 92.7347 31.0428 92.7862C30.9698 92.8335 30.8921 92.8729 30.811 92.904C30.7337 92.9297 30.6528 92.9371 30.5755 92.9555C29.9813 93.0435 29.3751 93.0021 28.7984 92.8341C28.295 92.7028 27.8029 92.5318 27.3266 92.3227C26.6475 92.0265 25.9897 91.6835 25.3582 91.2961C25.1337 91.16 24.9608 91.0459 24.8504 90.9686C24.7891 90.9325 24.7323 90.8893 24.6812 90.8399C24.7475 90.8637 24.8106 90.8958 24.8688 90.9355L25.3949 91.2299C26.0374 91.5903 26.6995 91.9146 27.3781 92.2012C27.8467 92.3952 28.3288 92.5551 28.8204 92.6796C29.3733 92.8341 29.9528 92.8692 30.5203 92.7826C30.8154 92.734 31.0797 92.5715 31.2562 92.33C31.4678 92.0829 31.6563 91.8169 31.8191 91.5353C32.1639 90.9419 32.4711 90.3274 32.739 89.6956C33.6651 87.4437 34.4756 85.146 35.1673 82.8115C35.4323 81.9358 35.6493 81.2183 35.8075 80.6885C35.8787 80.4579 35.9376 80.2666 35.9842 80.1145C36.0081 80.0401 36.0402 79.9685 36.0798 79.9011Z" fill="#455A64"/>
<path d="M28.802 42.5555C28.802 42.5555 23.1101 43.8323 22.3852 48.7258C21.55 54.3589 20.8178 67.2514 20.8178 67.2514L30.5755 54.186" fill="#263238"/>
<path d="M26.9881 43.6777C26.9881 43.6777 27.2383 43.9022 27.6136 44.2885C28.5951 45.3003 29.2754 46.5654 29.5784 47.9421C29.6924 48.4683 29.7182 48.8031 29.7403 48.8031C29.7533 48.7239 29.7533 48.6431 29.7403 48.5639C29.7296 48.349 29.7038 48.135 29.663 47.9237C29.4047 46.5133 28.7096 45.2198 27.6761 44.226C27.5212 44.0754 27.3565 43.9353 27.1831 43.8065C27.124 43.7552 27.0585 43.7119 26.9881 43.6777Z" fill="#263238"/>
<path d="M56.1177 46.5403C56.0551 46.5403 55.8564 51.0917 55.6798 56.71C55.5032 62.3284 55.4075 66.8835 55.4738 66.8835C55.54 66.8835 55.7313 62.3358 55.9116 56.7174C56.0919 51.099 56.1802 46.544 56.1177 46.5403Z" fill="#455A64"/>
<path d="M26.0168 43.9353C26.0168 43.9353 23.3676 45.7235 23.0733 47.1695C22.8231 48.3395 20.7295 65.9342 20.4609 68.1198C20.1923 70.3053 19.1511 74.8603 21.8223 76.6743C23.6178 77.8921 29.2914 79.1137 29.2914 79.1137C28.7321 76.4977 29.8764 74.5844 32.6691 73.1347L28.8756 69.5547L30.5755 54.186L26.0168 43.9353Z" fill="#263238"/>
<path d="M29.9096 69.8895C29.8433 69.8895 28.9161 65.1063 27.8381 59.1862C26.76 53.2661 25.9358 48.4425 25.9984 48.4425C26.0609 48.4425 26.9918 53.2257 28.0736 59.1458C29.1553 65.0659 29.9721 69.8748 29.9096 69.8895Z" fill="#455A64"/>
<path d="M29.1774 66.3647C29.1962 66.6691 29.1875 66.9745 29.1516 67.2772C29.1148 67.8475 29.0486 68.6459 28.9676 69.5658L28.9419 69.4885L29.6778 70.1729C30.5203 70.9713 31.2746 71.7035 31.8155 72.2407C32.1211 72.5155 32.4041 72.8145 32.6617 73.1348C32.3286 72.8935 32.0149 72.6266 31.7235 72.3363C31.1569 71.8286 30.3879 71.1111 29.5453 70.3127L28.8094 69.6247L28.7763 69.5915V69.5474C28.8683 68.6312 28.9529 67.8328 29.0228 67.2662C29.0464 66.9616 29.0982 66.6598 29.1774 66.3647Z" fill="#455A64"/>
<path d="M25.0859 71.8249C25.4746 71.1785 26.0384 70.6555 26.7122 70.3164C27.354 69.9207 28.096 69.7176 28.8499 69.7314C28.1428 69.9002 27.4567 70.147 26.8041 70.4672C26.1837 70.856 25.6076 71.3112 25.0859 71.8249Z" fill="#455A64"/>
<path d="M37.9821 56.7284C37.9619 57.0672 37.875 57.3986 37.7264 57.7037C37.5777 58.0088 37.3702 58.2815 37.1158 58.5061C36.8615 58.7308 36.5652 58.9029 36.2441 59.0127C35.9229 59.1225 35.5833 59.1677 35.2446 59.1458C34.8904 59.1274 34.5438 59.0356 34.2271 58.8759C33.9104 58.7163 33.6304 58.4924 33.4049 58.2186C32.6948 57.3429 31.4107 56.0919 29.8139 56.0109C27.3413 55.8564 25.4906 57.7292 25.314 60.5329C25.1374 63.3365 26.7453 65.4227 29.2215 65.5773C30.8183 65.6766 32.2459 64.5949 33.0591 63.8149C33.3144 63.5724 33.6172 63.3854 33.9484 63.2657C34.2796 63.146 34.632 63.0962 34.9834 63.1195C35.3221 63.1396 35.6536 63.2265 35.9587 63.3751C36.2638 63.5238 36.5365 63.7313 36.7611 63.9857C36.9857 64.24 37.1579 64.5363 37.2677 64.8575C37.3774 65.1786 37.4226 65.5182 37.4007 65.8569L36.2969 83.3486L75.2209 85.0043L76.0635 66.6075C76.0836 66.2687 76.1705 65.9373 76.3191 65.6322C76.4678 65.3271 76.6753 65.0544 76.9297 64.8298C77.184 64.6051 77.4803 64.433 77.8014 64.3232C78.1226 64.2134 78.4622 64.1682 78.8009 64.1902C79.1551 64.2085 79.5017 64.3004 79.8184 64.46C80.1351 64.6196 80.4152 64.8435 80.6406 65.1174C81.3507 65.993 82.6348 67.244 84.2316 67.3434C86.7042 67.4979 88.5586 65.6251 88.7315 62.8214C88.9044 60.0178 87.3002 57.9316 84.8277 57.777C83.2309 57.6777 81.7996 58.7594 80.9864 59.5394C80.7314 59.7823 80.4286 59.9696 80.0973 60.0893C79.7661 60.209 79.4136 60.2585 79.0621 60.2348C77.6382 60.1465 76.3137 59.0685 76.402 57.6593L77.0642 42.0441L38.5192 40.4031L37.9821 56.7284Z" fill="#65A999"/>
<path d="M33.2357 74.4078C33.2357 74.4078 34.3836 73.5174 35.2372 73.4806C36.0909 73.4438 37.202 73.7786 37.4228 73.6682C37.6435 73.5578 38.1587 73.0685 38.4972 73.4769C38.8357 73.8853 39.233 75.3718 37.4596 75.7802H36.238C36.3006 76.367 36.4506 76.9413 36.6832 77.4837C36.9776 77.9657 41.1279 83.1904 41.1279 83.1904C41.1279 83.1904 41.6467 83.7092 41.3891 84.228C41.1316 84.7468 40.0167 84.4487 40.0167 84.4487C39.7928 84.6462 39.5224 84.7836 39.2309 84.8479C38.9393 84.9123 38.6362 84.9015 38.35 84.8167C37.909 84.6686 37.4868 84.4698 37.0916 84.2243C36.8045 84.4445 36.4527 84.5638 36.0909 84.5638C35.729 84.5638 35.3772 84.4445 35.0901 84.2243C34.0525 83.448 29.9132 78.3373 29.9132 78.3373L31.8265 74.2495L33.2357 74.4078Z" fill="#FFBF9D"/>
<path d="M32.0767 73.4622L33.2541 74.4004C31.5064 75.6735 30.5976 77.2335 30.6086 79.1063L29.1038 78.065C29.1038 78.065 28.8315 74.2238 32.0767 73.4622Z" fill="#F5F5F5"/>
<path d="M36.812 81.0564C36.8598 81.0196 37.4817 81.8511 38.3684 82.7599C39.2551 83.6687 40.0866 84.2979 40.0462 84.3494C39.838 84.2553 39.6446 84.1313 39.4722 83.9814C39.0327 83.6521 38.6182 83.2905 38.2322 82.8997C37.8488 82.5067 37.4946 82.0861 37.1726 81.6414C37.0226 81.4664 36.9009 81.269 36.812 81.0564Z" fill="#FF9A6C"/>
<path d="M34.7552 82.0939C34.8031 82.0534 35.263 82.609 35.9437 83.1572C36.3918 83.4583 36.7871 83.8312 37.1137 84.261C36.6607 83.9742 36.2301 83.6531 35.8259 83.3007C35.3851 82.9816 35.0196 82.5696 34.7552 82.0939Z" fill="#FF9A6C"/>
<path d="M74.9449 49.9989C74.9449 49.9989 75.1289 48.7405 77.7744 49.1673C79.4338 49.4359 78.5654 50.5103 78.5654 50.5103C78.6894 50.6174 78.7855 50.753 78.8455 50.9054C78.9055 51.0579 78.9276 51.2226 78.9098 51.3855C78.8921 51.5483 78.8351 51.7044 78.7437 51.8404C78.6523 51.9764 78.5293 52.0881 78.3851 52.166L78.5581 52.2948C78.5581 52.2948 79.879 52.9571 78.7384 54.1345C78.854 54.3442 78.9016 54.5847 78.8746 54.8226C78.8475 55.0606 78.7472 55.2843 78.5875 55.4627C78.0209 56.033 76.597 55.2751 76.597 55.2751C76.597 55.2751 74.5844 55.2419 74.4703 54.7084C74.435 54.5465 74.4554 54.3774 74.5281 54.2285C74.6009 54.0795 74.7219 53.9596 74.8714 53.8879C75.3346 53.802 75.8028 53.7455 76.2732 53.7187C76.2732 53.7187 74.5145 53.7003 74.3562 53.3508C74.0729 52.7363 74.1465 52.1071 76.2732 52.1881C76.2732 52.1881 74.6911 52.155 74.5108 51.8201C74.3305 51.4853 74.5513 50.9776 75.1216 50.7163C75.4575 50.5556 75.8274 50.4786 76.1996 50.4919C76.1996 50.4919 74.7205 50.7936 74.9449 49.9989Z" fill="#FFBF9D"/>
<path d="M78.4845 50.5177C78.0096 50.5738 77.5309 50.591 77.0532 50.5692C76.5768 50.6041 76.0984 50.6041 75.6219 50.5692C76.0805 50.411 76.5649 50.341 77.0495 50.3631C77.5333 50.3255 78.0198 50.3779 78.4845 50.5177Z" fill="#FF9A6C"/>
<path d="M78.4146 52.2286C77.9652 52.2647 77.5136 52.2647 77.0643 52.2286C76.6141 52.2547 76.1625 52.2449 75.7139 52.1991C76.1502 52.0564 76.6103 52.0014 77.0679 52.0372C77.5252 52.0084 77.9835 52.0735 78.4146 52.2286Z" fill="#FF9A6C"/>
<path d="M78.7715 54.2227C78.7494 54.2742 78.1496 54.013 77.3659 53.8879C76.5822 53.7628 75.9347 53.8106 75.9273 53.7517C76.4048 53.6061 76.912 53.5871 77.3991 53.6965C77.8951 53.7471 78.3687 53.9287 78.7715 54.2227Z" fill="#FF9A6C"/>
</svg>
