<svg width="571" height="299" viewBox="0 0 571 299" fill="none" xmlns="http://www.w3.org/2000/svg">
<path d="M557.557 220.475L546.319 220.715L540.615 220.809C538.705 220.852 536.787 220.809 534.876 220.86H534.5V220.475L534.448 210.865V210.437H534.876L546.217 210.488C550.003 210.488 553.78 210.582 557.557 210.625H557.797V210.865C557.797 212.492 557.728 214.111 557.685 215.713L557.557 220.475ZM557.557 220.475L557.437 215.636C557.394 214.043 557.343 212.467 557.326 210.891L557.557 211.13C553.78 211.173 550.003 211.267 546.217 211.267L534.876 211.319L535.305 210.891V220.475L534.919 220.098C536.787 220.098 538.654 220.098 540.529 220.141L546.105 220.286L557.557 220.475Z" fill="#EBEBEB"/>
<path d="M544.906 232.56L533.669 232.8L527.956 232.894C526.054 232.894 524.136 232.894 522.226 232.946H521.849V232.56V222.976V222.548H522.277L533.617 222.608C537.395 222.608 541.18 222.702 544.958 222.745H545.197V222.976C545.197 224.603 545.129 226.222 545.086 227.824L544.906 232.56ZM544.906 232.56L544.786 227.721C544.743 226.128 544.692 224.552 544.675 222.976L544.906 223.216C541.129 223.259 537.343 223.353 533.566 223.353L522.226 223.404L522.654 222.976V232.56L522.269 232.183C524.136 232.183 526.003 232.183 527.879 232.226L533.506 232.329L544.906 232.56Z" fill="#EBEBEB"/>
<path d="M570.208 232.56L558.97 232.8L553.266 232.894C551.356 232.894 549.437 232.894 547.527 232.946H547.15V232.56L547.099 222.976V222.548H547.527L558.867 222.608C562.653 222.608 566.43 222.702 570.208 222.745H570.447V222.976C570.447 224.603 570.37 226.222 570.336 227.824L570.208 232.56ZM570.208 232.56L570.088 227.721C570.088 226.128 569.993 224.552 569.976 222.976L570.208 223.216C566.43 223.259 562.653 223.353 558.867 223.353L547.527 223.404L547.955 222.976V232.56L547.57 232.183C549.446 232.183 551.304 232.183 553.18 232.226L558.816 232.329L570.208 232.56Z" fill="#EBEBEB"/>
<path d="M234.155 106.43L222.917 106.67L217.213 106.764C215.303 106.764 213.384 106.764 211.474 106.764H211.098V106.379L211.046 96.7945V96.3662H211.474L222.815 96.4176C226.6 96.4176 230.378 96.5118 234.155 96.5547H234.395V96.7859C234.395 98.4133 234.318 100.024 234.275 101.625L234.155 106.43ZM234.155 106.43L234.035 101.582C234.035 99.9893 233.941 98.4133 233.924 96.8459L234.155 97.0771C230.378 97.0771 226.6 97.2142 222.815 97.2142L211.474 97.2741L211.903 96.8459L211.86 106.43L211.474 106.045C213.342 106.045 215.209 106.045 217.085 106.096L222.72 106.19L234.155 106.43Z" fill="#EBEBEB"/>
<path d="M221.487 118.516L210.25 118.755L204.537 118.85C202.635 118.85 200.717 118.85 198.807 118.893H198.43V118.507L198.361 108.94V108.512H198.79L210.13 108.563C213.907 108.563 217.693 108.657 221.47 108.7H221.71V108.94C221.71 110.567 221.641 112.177 221.599 113.779L221.487 118.516ZM221.487 118.516L221.367 113.668C221.324 112.075 221.273 110.499 221.256 108.931L221.487 109.163C217.71 109.205 213.924 109.3 210.147 109.3L198.807 109.36L199.235 108.931L199.218 118.516L198.832 118.13C200.7 118.13 202.567 118.13 204.443 118.182L210.07 118.276L221.487 118.516Z" fill="#EBEBEB"/>
<path d="M246.806 118.516L235.568 118.755L229.864 118.85C227.954 118.85 226.044 118.85 224.125 118.893H223.748V118.507L223.697 108.94V108.512H224.125L235.465 108.563C239.251 108.563 243.028 108.657 246.806 108.7H247.045V108.94C247.045 110.567 246.968 112.177 246.934 113.779L246.806 118.516ZM246.806 118.516L246.686 113.668C246.686 112.075 246.591 110.499 246.574 108.931L246.806 109.163C243.028 109.205 239.251 109.3 235.465 109.3L224.125 109.36L224.553 108.931L224.51 118.516L224.125 118.13C226.001 118.13 227.859 118.13 229.735 118.182L235.371 118.276L246.806 118.516Z" fill="#EBEBEB"/>
<path d="M49.2252 169.846L37.9878 170.086L32.2748 170.18C30.3734 170.18 28.4548 170.18 26.5448 170.223H26.2021V169.838V160.254V159.825H26.6304L37.9706 159.877C41.7479 159.877 45.5336 159.971 49.3109 160.014H49.5507V160.245C49.5507 161.872 49.4822 163.483 49.4393 165.084L49.2252 169.846ZM49.2252 169.846L49.1053 164.999C49.1053 163.405 49.0111 161.829 48.994 160.262L49.2252 160.493C45.448 160.536 41.6622 160.63 37.885 160.63L26.5448 160.69L26.973 160.262L26.9302 169.846L26.5448 169.461C28.412 169.461 30.2791 169.461 32.1549 169.512L37.7822 169.607L49.2252 169.846Z" fill="#EBEBEB"/>
<path d="M425.217 106.422L413.98 106.662L408.275 106.756C406.365 106.799 404.447 106.756 402.537 106.799H402.16V106.413L402.108 96.8288V96.4005H402.537L413.877 96.4519C417.663 96.4519 421.44 96.5547 425.217 96.5975H425.457V96.8288C425.457 98.4561 425.388 100.075 425.346 101.668L425.217 106.422ZM425.217 106.422L425.097 101.582C425.054 99.9807 425.003 98.4047 424.986 96.8373L425.217 97.0686C421.44 97.1114 417.663 97.2056 413.877 97.2142L402.537 97.2656L402.965 96.8373L402.922 106.422L402.537 106.036C404.404 106.036 406.271 106.036 408.147 106.088L413.783 106.182L425.217 106.422Z" fill="#EBEBEB"/>
<path d="M556.247 13.3359L545.009 13.5757L539.296 13.6699C537.395 13.6699 535.476 13.6699 533.566 13.7213H533.189V13.3359V3.75153V3.32327H533.617L544.958 3.37466C548.735 3.37466 552.521 3.47744 556.298 3.52027H556.538V3.75153C556.538 5.3789 556.469 6.99771 556.426 8.59083L556.247 13.3359ZM556.247 13.3359L556.127 8.49661C556.084 6.89493 556.032 5.31895 556.015 3.75153L556.247 3.98279C552.469 3.98279 548.684 4.11983 544.906 4.1284L533.566 4.17979L533.994 3.75153L533.952 13.3359L533.566 12.9505C535.433 12.9505 537.3 12.9505 539.176 13.0019L544.804 13.0961L556.247 13.3359Z" fill="#EBEBEB"/>
<path d="M568.897 25.4213L557.66 25.6611L551.955 25.7554C550.045 25.7982 548.127 25.7554 546.217 25.7982H545.84V25.4128L545.788 15.8284V15.4001H546.217L557.557 15.4515C561.343 15.4515 565.12 15.5543 568.897 15.5971H569.137V15.8284C569.137 17.4557 569.06 19.0746 569.017 20.6677L568.897 25.4213ZM568.897 25.4213L568.777 20.582C568.777 18.9803 568.683 17.4044 568.666 15.8369L568.897 16.0682C565.12 16.111 561.343 16.2052 557.557 16.2138L546.217 16.2652L546.645 15.8369V25.4213L546.26 25.0359C548.127 25.0359 549.994 25.0359 551.87 25.0873L557.506 25.1815L568.897 25.4213Z" fill="#EBEBEB"/>
<path d="M23.9238 13.3445L12.6778 13.5843L6.97341 13.6785C5.07195 13.6785 3.15336 13.6785 1.24334 13.7299H0.85791V13.3445V3.7601V3.33185H1.29473L12.635 3.3918C16.4122 3.3918 20.1894 3.48602 23.9752 3.52885H24.2064V3.7601C24.2064 5.38748 24.1294 7.00629 24.0951 8.60797L23.9238 13.3445ZM23.9238 13.3445L23.7953 8.50519C23.7953 6.90351 23.7011 5.32752 23.684 3.7601L23.9238 3.99136C20.138 4.04275 16.3608 4.1284 12.5836 4.13697L1.24334 4.18836L1.6716 3.7601L1.62021 13.3445L1.24334 13.0104C3.11054 13.0104 4.96917 13.0104 6.84494 13.0104L12.4808 13.1047L23.9238 13.3445Z" fill="#EBEBEB"/>
<path d="M301.725 132.228C300.674 133.221 299.37 133.906 297.956 134.207C297.1 134.43 296.149 134.558 295.241 134.721H292.141C290.865 134.524 289.571 134.37 288.329 134.121C283.688 133.125 279.291 131.215 275.396 128.503C265.137 121.721 256.494 112.767 250.077 102.276C247.926 98.8143 246.444 94.9791 245.709 90.9702C245.521 89.9167 245.375 88.8546 245.212 87.7925V84.692C245.469 83.5014 245.675 82.2937 245.992 81.1203C246.304 80.019 246.894 79.0163 247.705 78.2082C247.859 78.3452 247.996 78.4566 248.133 78.5936C253.067 83.5214 258.003 88.4492 262.942 93.377C263.102 93.51 263.216 93.6899 263.268 93.8912C263.321 94.0925 263.308 94.3051 263.233 94.499C262.858 95.7203 262.808 97.0182 263.087 98.2649C263.366 99.5115 263.966 100.664 264.827 101.608C269.04 106.394 273.551 110.908 278.334 115.124C279.287 115.99 280.45 116.591 281.708 116.869C282.965 117.147 284.273 117.092 285.503 116.708C285.862 116.614 286.119 116.554 286.428 116.863C291.47 121.933 296.523 126.992 301.588 132.04C301.614 132.066 301.648 132.143 301.725 132.228Z" fill="#EBEBEB"/>
<path d="M311.421 121.154V122.182C310.974 122.825 310.491 123.443 309.973 124.032C308.449 125.616 306.873 127.149 305.322 128.7L304.843 129.154L289.614 113.933C291.61 111.963 293.597 109.951 295.652 107.989C295.875 107.782 296.137 107.622 296.423 107.519C296.709 107.415 297.012 107.37 297.316 107.386C297.62 107.402 297.917 107.479 298.19 107.612C298.464 107.745 298.707 107.931 298.907 108.16C300.055 109.274 301.168 110.413 302.333 111.535C304.98 114.19 307.644 116.828 310.265 119.501C310.693 120.02 311.079 120.573 311.421 121.154Z" fill="#EBEBEB"/>
<path d="M271.499 84.769C269.614 86.5934 267.687 88.375 265.82 90.1394L250.711 75.0391C251.045 74.7393 251.431 74.4224 251.782 74.0798C253.169 72.7008 254.531 71.2875 255.944 69.9343C256.518 69.4306 257.122 68.9615 257.752 68.5296H258.788C259.366 68.8843 259.915 69.2823 260.433 69.7201C264.133 73.386 267.819 77.069 271.49 80.7691C272.878 82.1567 272.878 83.4072 271.499 84.769Z" fill="#EBEBEB"/>
<path d="M18.2878 93.1714H117.412V30.2863H18.2878V93.1714Z" fill="#EBEBEB"/>
<path d="M135.956 93.1714H117.412V73.8571L135.956 93.1714Z" fill="#EBEBEB"/>
<path d="M105.935 41.1555H29.7568V42.3546H105.935V41.1555Z" fill="white"/>
<path d="M69.1307 47.6135H29.7568V48.8126H69.1307V47.6135Z" fill="white"/>
<path d="M91.3572 60.5212H29.7568V61.7203H91.3572V60.5212Z" fill="white"/>
<path d="M105.935 66.9707H29.7568V68.1698H105.935V66.9707Z" fill="white"/>
<path d="M105.935 73.4203H29.7568V74.6194H105.935V73.4203Z" fill="white"/>
<path d="M56.8226 79.8784H29.7568V81.0775H56.8226V79.8784Z" fill="white"/>
<path d="M553.163 118.284H454.039V173.744H553.163V118.284Z" fill="#DBDBDB"/>
<path d="M435.495 173.752H454.039V154.438L435.495 173.752Z" fill="#DBDBDB"/>
<path d="M532.059 147.243H465.739V148.442H532.059V147.243Z" fill="white"/>
<path d="M518.423 153.701H465.739V154.9H518.423V153.701Z" fill="white"/>
<path d="M522.397 134.335H465.739V135.535H522.397V134.335Z" fill="white"/>
<path d="M539.716 127.886H465.739V129.085H539.716V127.886Z" fill="white"/>
<path d="M523.887 160.151H465.739V161.35H523.887V160.151Z" fill="white"/>
<path d="M503.083 59.3392H321.065V67.3219H503.083V59.3392Z" fill="#EBEBEB"/>
<path d="M339.249 67.3305H331.266V93.7282H339.249V67.3305Z" fill="#EBEBEB"/>
<path d="M339.249 67.3305H331.266V75.493H339.249V67.3305Z" fill="#DBDBDB"/>
<path d="M492.882 67.3305H484.899V93.7282H492.882V67.3305Z" fill="#EBEBEB"/>
<path d="M492.882 67.3305H484.899V75.493H492.882V67.3305Z" fill="#DBDBDB"/>
<path d="M367.856 59.3392V8.47092H355.043V59.3392H367.856Z" fill="#C7C7C7"/>
<path d="M367.856 11.3402V5.74719L355.043 5.74719V11.3402H367.856Z" fill="#DBDBDB"/>
<path d="M367.848 20.582V18.5092H355.034V20.582H367.848Z" fill="#DBDBDB"/>
<path d="M369.45 52.6755V47.0825H355.043V52.6755H369.45Z" fill="#DBDBDB"/>
<path d="M376.807 59.3392V0L367.856 0V59.3392H376.807Z" fill="#DBDBDB"/>
<path d="M374.983 28.402V5.5759H369.612V28.402H374.983Z" fill="#EBEBEB"/>
<path d="M440.471 53.0007L398.271 11.2839L391.978 17.6493L434.178 59.3661L440.471 53.0007Z" fill="#C7C7C7"/>
<path d="M429.335 44.4701L413.102 28.4229L409.326 32.2421L425.559 48.2893L429.335 44.4701Z" fill="#DBDBDB"/>
<path d="M392.002 59.3563V14.2781L376.799 14.2781V59.3563H392.002Z" fill="#A6A6A6"/>
<path d="M392.002 54.5684V50.3715H376.799V54.5684H392.002Z" fill="#C7C7C7"/>
<path d="M392.001 47.6221V45.9948H376.798V47.6221H392.001Z" fill="#C7C7C7"/>
<path d="M355.043 59.3563V16.9932H344.542V59.3563H355.043Z" fill="#A6A6A6"/>
<path d="M355.043 54.8596V50.9111H344.542V54.8596H355.043Z" fill="#C7C7C7"/>
<path d="M355.043 29.6696V25.7211H344.542V29.6696H355.043Z" fill="#C7C7C7"/>
<path d="M355.043 33.9094V32.3762H344.542V33.9094H355.043Z" fill="#C7C7C7"/>
<path d="M483.948 39.6052L482.809 42.6286L482.107 44.4701L480.959 47.5022L476.488 59.3478H452.309L447.821 47.5022L446.673 44.4701L445.979 42.6286L444.831 39.6052L453.756 26.5947L449.131 18.021H479.674L475.023 26.5947L483.948 39.6052Z" fill="#DBDBDB"/>
<path d="M483.948 39.6051L482.809 42.6286H445.979L444.831 39.6051H483.948Z" fill="#A6A6A6"/>
<path d="M482.107 44.4702L480.959 47.5022H447.82L446.673 44.4702H482.107Z" fill="#A6A6A6"/>
<path d="M12.3438 290.204L80.6935 289.998L149.035 289.921L285.725 289.784L422.416 289.921L490.758 289.998L559.107 290.204L490.758 290.418L422.416 290.495L285.725 290.632L149.035 290.495L80.6935 290.418L12.3438 290.204Z" fill="#263238"/>
<path d="M278.308 290.186H383.368L362.426 168.33H283.858L278.308 290.186Z" fill="#DBDBDB"/>
<path d="M278.308 290.186H287.524L292.689 168.33H283.858L278.308 290.186Z" fill="#A6A6A6"/>
<path d="M369.595 192.219C381.484 218.77 410.211 262.838 423.067 251.917C442.296 235.592 455.315 199.482 460.454 184.878C463.34 176.699 421.671 163.011 419.119 170.437C415.487 180.99 409.791 203.045 406.494 206.171C404.781 207.807 391.128 188.647 380.798 179.559C365.886 166.463 365.801 183.739 369.595 192.219Z" fill="#AD6359"/>
<path d="M470.861 172.587C467.152 180.93 452.874 195.036 448.129 197.118C443.384 199.199 418.322 176.562 418.845 171.234C419.367 165.906 434.322 138.001 442.604 133.719C450.887 129.436 474.707 163.937 470.861 172.587Z" fill="#AD6359"/>
<path d="M420.806 165.375C420.806 165.375 421.406 153.504 418.408 143.466C415.89 135.029 411.204 122.79 415.684 121.265C424.9 118.139 436.583 148.673 436.583 148.673C436.583 148.673 439.581 162.977 430.733 166.883C425.183 169.333 420.806 165.375 420.806 165.375Z" fill="#AD6359"/>
<path d="M431.196 142.858C431.795 147.663 437.114 144.202 437.114 144.202C437.114 144.202 430.665 151.055 433.2 155.74C435.667 160.271 441.936 155.86 442.39 155.551C442.048 155.92 436.292 162.343 439.333 166.814C442.493 171.457 448.026 165.958 448.386 165.598C448.172 166.035 445.482 171.953 448.566 174.831C453.859 179.756 461.156 164.819 466.775 163.149C466.775 163.149 470.698 172.339 470.861 172.57C470.861 172.57 478.098 158.489 475.426 151.037C475.051 149.949 474.317 149.02 473.344 148.405C472.371 147.79 471.217 147.525 470.073 147.654C470.073 147.654 472.908 143.372 470.629 139.774C469.447 137.933 465.49 138.173 465.49 138.173C465.49 138.173 467.615 134.652 465.388 131.586C463.615 129.128 459.889 129.753 459.889 129.753C459.889 129.753 460.36 125.419 457.739 123.501C452.411 119.629 429.902 132.571 431.196 142.858Z" fill="#AD6359"/>
<path d="M459.246 129.779C459.323 129.736 459.246 129.625 459.203 129.65C450.758 132.1 442.236 137.359 436.806 144.357C436.626 144.588 436.917 144.973 437.165 144.759C444.18 138.635 450.818 133.779 459.246 129.779Z" fill="#263238"/>
<path d="M465.542 138.061C465.636 138.018 465.542 137.864 465.465 137.89C456.771 140.46 447.341 146.678 442.022 155.457C441.842 155.757 441.979 156.211 442.219 155.885C446.193 150.335 457.936 141.633 465.542 138.061Z" fill="#263238"/>
<path d="M448.223 166.326C453.645 158.104 461.156 152.442 469.713 147.74C469.816 147.68 469.713 147.534 469.619 147.56C464.805 148.716 459.666 152.279 455.915 155.397C452.364 158.218 449.617 161.921 447.949 166.138C447.872 166.326 448.112 166.515 448.223 166.326Z" fill="#263238"/>
<path d="M436.943 144.194C436.729 144.468 437.371 144.477 437.165 144.759C436.309 145.941 431.727 153.521 433.825 155.894C435.538 157.787 439.213 156.827 440.497 155.894L443.709 153.573L441.499 156.905C440.505 158.364 439.753 159.975 439.273 161.675C439.006 162.449 438.908 163.271 438.983 164.086C439.058 164.901 439.306 165.691 439.709 166.403C440.087 167.063 440.681 167.573 441.391 167.846C442.101 168.119 442.884 168.139 443.606 167.902C445.218 167.348 446.66 166.389 447.795 165.119L451.05 161.692L449.097 165.975C448.551 167.16 448.157 168.409 447.923 169.692C447.662 170.899 447.76 172.156 448.206 173.307C448.427 173.814 448.784 174.249 449.238 174.565C449.691 174.881 450.224 175.065 450.775 175.097C452.026 174.97 453.215 174.489 454.202 173.709C456.364 172.057 458.394 170.238 460.274 168.27C461.259 167.311 462.244 166.343 463.281 165.418C464.254 164.444 465.421 163.686 466.707 163.191C465.485 163.81 464.397 164.663 463.503 165.701C462.553 166.686 461.645 167.714 460.737 168.75C458.953 170.89 456.974 172.86 454.827 174.634C453.675 175.611 452.265 176.233 450.767 176.424C449.941 176.432 449.131 176.201 448.433 175.759C447.735 175.317 447.181 174.682 446.835 173.932C446.236 172.519 446.072 170.959 446.364 169.452C446.595 168.019 447.012 166.623 447.606 165.298L448.908 166.155C447.589 167.678 445.894 168.83 443.992 169.495C442.926 169.836 441.775 169.794 440.737 169.375C439.734 168.936 438.887 168.205 438.305 167.277C437.795 166.373 437.482 165.371 437.388 164.338C437.293 163.304 437.419 162.263 437.756 161.281C438.303 159.42 439.157 157.663 440.283 156.082L441.285 157.059C439.572 158.172 435.598 159.697 432.609 157.102C429.303 153.085 435.684 145.496 436.943 144.194Z" fill="#263238"/>
<path d="M437.114 144.202C436.189 144.572 435.213 144.8 434.219 144.879C433.82 144.92 433.418 144.854 433.053 144.687C432.688 144.519 432.375 144.258 432.146 143.928C431.743 143.136 431.579 142.243 431.675 141.359C431.727 140.382 431.83 139.363 431.984 138.31C431.331 139.17 430.87 140.16 430.63 141.213C430.466 141.782 430.415 142.377 430.481 142.965C430.547 143.553 430.729 144.122 431.016 144.639C431.391 145.177 431.919 145.589 432.532 145.821C433.122 146.014 433.754 146.038 434.356 145.89C435.43 145.632 436.396 145.041 437.114 144.202Z" fill="#263238"/>
<path d="M416.584 171.234L459.957 201.443C459.957 201.443 434.048 255.121 418.04 254.975C402.031 254.83 378.906 214.625 370.931 197.246C362.957 179.868 367.711 165.144 383.848 180.973C399.984 196.801 405.766 203.328 406.288 203.113C407.265 202.719 416.584 171.234 416.584 171.234Z" fill="#FFC727"/>
<path d="M459.957 201.443C459.957 201.443 441.97 238.667 426.733 251.035C423.675 253.519 420.737 255.001 418.039 254.967C402.031 254.83 378.905 214.616 370.888 197.246C365.929 186.489 365.886 176.75 370.392 174.652C373.175 173.358 377.672 174.951 383.813 180.998C400.087 196.938 405.723 203.345 406.254 203.131C407.265 202.719 416.592 171.243 416.592 171.243L459.957 201.443Z" fill="#FFC727"/>
<path d="M433.114 244.697C432.583 245.314 432.044 245.913 431.504 246.496C426.623 249.569 421.147 251.574 415.436 252.38C413.86 252.554 412.275 252.617 410.691 252.568L409.706 251.952C411.596 252.066 413.493 252.017 415.376 251.806C417.629 251.56 419.846 251.048 421.98 250.282L423.598 249.751L425.166 249.091C425.688 248.868 426.228 248.68 426.733 248.423L428.249 247.652C429.936 246.778 431.561 245.791 433.114 244.697ZM400.207 197.409C395.258 199.66 390.743 202.765 386.871 206.582C384.36 209.057 382.038 211.717 379.925 214.539C380.028 214.728 380.139 214.925 380.259 215.113C382.397 212.243 384.753 209.543 387.308 207.036C390.553 203.848 394.25 201.156 398.28 199.045L399.796 198.274C400.074 198.133 400.36 198.007 400.652 197.897L400.207 197.409ZM437.671 200.141C433.557 198.128 429.254 196.53 424.823 195.371C424.361 195.259 423.898 195.148 423.427 195.054C423.127 194.985 422.819 194.917 422.519 194.865C418.775 194.081 414.932 193.884 411.128 194.283C410.571 194.36 410.023 194.446 409.466 194.548C409.406 194.745 409.337 194.951 409.277 195.139C409.911 195.028 410.554 194.934 411.196 194.857C414.727 194.484 418.294 194.631 421.783 195.293L422.716 195.465C423.376 195.602 424.035 195.747 424.695 195.91C429.088 197.042 433.357 198.609 437.44 200.587C443.555 203.587 449.487 206.947 455.204 210.651C455.289 210.505 455.366 210.36 455.435 210.222C449.719 206.512 443.787 203.145 437.671 200.141ZM442.168 189.058C435.223 189.345 428.457 191.339 422.468 194.865L421.731 195.293C420.219 196.2 418.758 197.189 417.354 198.257C410.014 203.841 404.156 211.019 398.58 218.239C395.787 221.862 393.047 225.511 390.152 229.04C389.946 229.297 389.732 229.545 389.518 229.802L389.843 230.273C390.092 229.982 390.34 229.691 390.58 229.417C393.492 225.88 396.241 222.231 399.042 218.616C404.618 211.422 410.468 204.295 417.731 198.788C419.305 197.587 420.953 196.486 422.665 195.49C422.896 195.345 423.136 195.208 423.376 195.079C425.37 193.96 427.449 192.998 429.594 192.201L431.196 191.619C431.727 191.431 432.283 191.302 432.832 191.139L434.467 190.685L436.181 190.351C438.392 189.853 440.655 189.617 442.921 189.649H443.024L442.168 189.058ZM388.935 186.069C385.943 187.399 382.816 188.401 379.608 189.058L377.938 189.384C377.381 189.486 376.816 189.521 376.225 189.598L374.512 189.795L372.799 189.863C371.235 189.972 369.664 189.943 368.105 189.778L368.259 190.343C375.499 190.871 382.755 189.563 389.355 186.54C389.261 186.377 389.098 186.223 388.935 186.069ZM376.584 175.431C373.551 177.491 370.406 179.381 367.163 181.092C367.163 181.324 367.163 181.555 367.163 181.795C370.623 179.985 373.97 177.966 377.184 175.748C376.978 175.636 376.781 175.525 376.584 175.431Z" fill="white"/>
<path d="M449.705 206.48C448.557 205.529 447.401 204.604 446.236 203.679C443.872 201.811 441.508 199.953 439.144 198.103C434.433 194.428 429.62 190.882 424.772 187.396C422.022 185.409 419.316 183.319 416.481 181.461C416.467 181.451 416.452 181.443 416.436 181.439C416.419 181.435 416.402 181.434 416.385 181.436C416.369 181.439 416.353 181.444 416.338 181.453C416.324 181.462 416.311 181.473 416.301 181.486C416.291 181.5 416.283 181.515 416.279 181.532C416.275 181.548 416.274 181.565 416.276 181.582C416.279 181.598 416.284 181.614 416.293 181.629C416.302 181.644 416.313 181.656 416.327 181.666C418.579 183.653 420.995 185.469 423.333 187.362C425.671 189.255 427.992 191.156 430.365 193.007C435.081 196.672 439.855 200.267 444.686 203.79C446.03 204.784 447.358 205.829 448.754 206.762C449.465 207.242 450.142 207.773 450.861 208.235C451.581 208.698 452.351 209.092 453.054 209.614C453.07 209.624 453.089 209.627 453.107 209.623C453.125 209.619 453.141 209.61 453.153 209.595C453.164 209.58 453.17 209.562 453.169 209.544C453.168 209.525 453.161 209.508 453.148 209.494C451.975 208.509 450.878 207.439 449.705 206.48Z" fill="#263238"/>
<path d="M406.622 202.154C404.967 206.629 403.605 211.206 402.545 215.858C401.98 218.154 401.534 220.475 401.098 222.788C400.635 225.086 400.326 227.412 400.173 229.751C400.173 229.837 400.301 229.837 400.318 229.751C401.038 227.515 401.569 225.186 402.083 222.899C402.597 220.612 403.179 218.308 403.693 216.047C404.729 211.439 405.945 206.874 406.845 202.24C406.85 202.225 406.853 202.21 406.853 202.194C406.852 202.178 406.849 202.163 406.843 202.149C406.836 202.134 406.827 202.121 406.816 202.11C406.804 202.1 406.791 202.091 406.776 202.086C406.762 202.08 406.746 202.077 406.73 202.078C406.715 202.078 406.699 202.082 406.685 202.088C406.671 202.094 406.658 202.103 406.647 202.115C406.636 202.126 406.628 202.14 406.622 202.154Z" fill="#263238"/>
<path opacity="0.1" d="M426.733 251.035C423.675 253.519 420.737 255.001 418.039 254.967C402.031 254.83 378.905 214.616 370.888 197.246C365.929 186.488 365.886 176.75 370.392 174.651L426.733 251.035Z" fill="black"/>
<path d="M401.903 290.186H297.777C296.629 288.079 313.691 196.878 348.808 171.191C356.602 165.495 370.426 169.161 374.263 174.703C393.586 202.548 401.903 290.186 401.903 290.186Z" fill="#FFC727"/>
<path d="M396.49 249.699C393.89 248.779 391.342 247.718 388.858 246.521C385.372 244.851 382.006 243.001 378.657 241.048L378.169 240.757C374.743 238.727 371.317 236.577 367.959 234.41L367.479 234.102L365.201 232.629C357.493 227.687 349.904 222.599 341.673 218.642C337.604 216.608 333.284 215.121 328.825 214.222C326.587 213.823 324.31 213.697 322.041 213.846C321.476 213.846 320.919 213.965 320.328 214.043C319.943 214.12 319.558 214.171 319.164 214.248C319.224 214.111 319.275 213.983 319.343 213.846C319.652 213.786 319.969 213.734 320.277 213.666C320.842 213.597 321.416 213.511 321.99 213.469C324.281 213.315 326.581 213.438 328.842 213.837C333.348 214.728 337.715 216.218 341.827 218.265C350.101 222.222 357.741 227.31 365.432 232.235L367.694 233.682L368.182 233.991C371.608 236.192 375.034 238.376 378.588 240.44L379.077 240.731C382.331 242.624 385.646 244.423 389.055 246.042C391.436 247.181 393.875 248.196 396.361 249.082L396.49 249.699ZM387.222 206.214L386.871 206.548C380.267 212.98 375.334 220.826 370.683 228.672C369.701 230.345 368.713 232.015 367.719 233.682C367.642 233.828 367.565 233.965 367.479 234.102C366.22 236.226 364.953 238.342 363.634 240.423C362.477 242.256 361.27 244.063 359.985 245.811C359.865 245.973 359.754 246.136 359.634 246.29C358.334 248.046 356.932 249.725 355.437 251.318C353.878 252.972 352.156 254.464 350.298 255.772L349.604 256.26C349.373 256.423 349.116 256.551 348.876 256.697L347.411 257.553C346.402 258.063 345.36 258.506 344.294 258.881C339.973 260.316 335.45 261.047 330.898 261.048C326.361 261.03 321.841 260.516 317.416 259.515C313.134 258.607 308.98 257.391 304.791 256.174C304.791 256.311 304.723 256.448 304.68 256.577C308.86 257.802 313.057 259.035 317.322 259.952C321.799 260.973 326.374 261.501 330.966 261.528C335.57 261.53 340.145 260.796 344.516 259.352C345.608 258.977 346.672 258.528 347.703 258.007L349.201 257.151C349.455 257.016 349.701 256.867 349.938 256.705L350.649 256.209C352.536 254.888 354.284 253.378 355.865 251.703C357.46 249.997 358.953 248.198 360.336 246.316C360.465 246.153 360.576 245.999 360.687 245.836C361.904 244.175 363.051 242.47 364.113 240.74C365.441 238.659 366.683 236.543 367.968 234.428L368.216 234.008L371.188 228.989C375.848 221.152 380.781 213.374 387.316 207.019L387.428 206.916C387.351 206.668 387.282 206.437 387.222 206.214ZM392.164 226.556C391.505 227.413 390.837 228.218 390.16 229.04C387.324 232.605 384.155 235.892 380.695 238.856C380.01 239.395 379.325 239.935 378.614 240.44L378.169 240.757C377.177 241.457 376.138 242.086 375.06 242.641L374.314 243.044C374.066 243.181 373.792 243.275 373.535 243.395L371.976 244.063C370.913 244.447 369.826 244.759 368.721 244.997C366.067 245.565 363.359 245.852 360.644 245.853H359.985C358.375 245.853 356.764 245.725 355.163 245.554C350.643 244.985 346.199 243.919 341.913 242.376C337.63 240.894 333.407 239.07 329.21 237.237C325.033 235.347 320.742 233.719 316.363 232.363C315.069 231.995 313.793 231.67 312.423 231.43L312.294 231.798C313.63 232.046 314.958 232.363 316.251 232.74C320.606 234.101 324.871 235.731 329.022 237.622C333.219 239.43 337.416 241.262 341.741 242.761C346.065 244.317 350.545 245.397 355.103 245.982C356.61 246.153 358.118 246.265 359.625 246.29C359.848 246.29 360.062 246.29 360.285 246.29C363.161 246.337 366.033 246.067 368.85 245.485C369.976 245.236 371.086 244.919 372.173 244.534L373.766 243.849C374.032 243.729 374.297 243.635 374.554 243.498L375.317 243.087C376.486 242.491 377.608 241.806 378.674 241.04L379.119 240.723C379.77 240.252 380.413 239.755 381.047 239.25C384.541 236.274 387.742 232.97 390.605 229.383C391.176 228.68 391.747 227.969 392.318 227.25C392.267 227.027 392.216 226.787 392.164 226.556ZM381.406 188.655C380.807 188.801 380.207 188.938 379.608 189.058L377.937 189.384C377.381 189.486 376.815 189.521 376.224 189.598L374.511 189.795L372.798 189.863C370.537 190.01 368.265 189.889 366.032 189.503C362.528 188.898 359.133 187.775 355.959 186.172L355.103 185.752C354.503 185.444 353.912 185.118 353.33 184.784C349.409 182.482 345.73 179.79 342.349 176.75L341.973 177.127C345.385 180.2 349.095 182.925 353.047 185.264C353.458 185.504 353.904 185.735 354.298 185.957L355.154 186.386C358.541 188.163 362.181 189.408 365.946 190.077C371.166 190.81 376.478 190.519 381.586 189.221C381.552 189.032 381.475 188.844 381.406 188.655ZM375.308 176.279C370.759 179.33 365.905 181.899 360.824 183.945C358.982 184.663 357.097 185.266 355.18 185.752L354.375 185.957C352.148 186.475 349.887 186.827 347.608 187.011L345.895 187.122C345.33 187.165 344.765 187.122 344.182 187.122H342.469L340.756 186.985C338.693 186.866 336.648 186.524 334.658 185.966C334.538 186.129 334.418 186.292 334.307 186.463C341.147 188.181 348.309 188.154 355.137 186.386L355.994 186.172C357.702 185.719 359.384 185.17 361.03 184.527C366.137 182.468 371.017 179.884 375.591 176.818L375.308 176.279ZM400.926 281.227C400.07 281.227 399.145 281.304 398.254 281.33H398.185L397.663 281.373C393.274 281.832 389.007 283.101 385.081 285.116C382.271 286.583 379.587 288.279 377.055 290.186H377.595C380.01 288.398 382.565 286.805 385.235 285.424C389.196 283.402 393.502 282.144 397.928 281.716H398.245H398.451C399.307 281.716 400.113 281.621 400.935 281.63C400.952 281.476 400.943 281.356 400.926 281.227ZM401.372 285.167C400.441 283.985 399.479 282.823 398.485 281.681C398.391 281.561 398.288 281.45 398.185 281.339L397.834 280.928C394.842 277.44 391.4 274.364 387.599 271.78C385.67 270.521 383.593 269.506 381.415 268.757C380.875 268.577 380.31 268.423 379.762 268.268C379.214 268.114 378.64 267.994 378.049 267.917C376.918 267.703 375.762 267.686 374.623 267.575C370.018 267.406 365.424 268.136 361.098 269.724C356.813 271.354 352.72 273.451 348.893 275.977C342.041 280.388 335.797 285.578 329.125 290.186H329.407C336.045 285.656 342.255 280.559 349.039 276.242C352.851 273.734 356.93 271.657 361.201 270.05C365.484 268.482 370.031 267.763 374.588 267.934C375.711 268.054 376.858 268.071 377.972 268.285C378.537 268.363 379.077 268.525 379.633 268.637C380.19 268.748 380.73 268.936 381.261 269.116C383.407 269.859 385.453 270.866 387.351 272.114C391.119 274.681 394.526 277.74 397.483 281.21C397.534 281.27 397.586 281.322 397.629 281.382L397.928 281.716C399.128 283.112 400.301 284.534 401.432 285.998C401.44 285.724 401.406 285.459 401.355 285.167H401.372Z" fill="white"/>
<path d="M334.984 182.369C313.785 206.891 285.212 250.204 296.886 259.78C316.08 275.523 372.139 284.619 385.004 286.144C390.554 286.812 401.672 250.53 397.963 245.836C394.254 241.143 334.984 237.828 334.581 234.188C334.35 232.123 343.352 214.171 349.142 192.15C355.797 166.763 340.954 175.457 334.984 182.369Z" fill="#AD6359"/>
<path d="M388.25 242.847C388.25 242.847 405.26 242.719 416.386 243.155C422.596 243.395 433.2 244.766 437.679 247.035C444.377 250.419 470.227 268.876 465.893 275.24C461.961 280.996 441.765 262.324 441.765 262.324C441.765 262.324 463.811 279.369 457.807 285.45C451.803 291.531 431.787 267.395 431.787 267.395C431.787 267.395 454.056 285.381 446.87 290.692C441.439 294.675 422.082 273.844 422.082 273.844C422.082 273.844 441.105 289.458 435.701 293.801C429.705 298.597 410.648 280.491 410.648 280.491C395.059 289.21 384.096 286.983 376.387 284.474C374.58 283.831 388.25 242.847 388.25 242.847Z" fill="#AD6359"/>
<path d="M434.519 255.943C437.182 257.853 439.889 259.763 442.373 261.939C444.857 264.114 447.264 266.298 449.542 268.662C455.118 274.452 457.705 278.94 457.508 278.684C453.019 272.525 444.249 264.739 441.765 262.598C439.281 260.457 436.908 258.204 434.433 256.072C434.373 255.977 434.459 255.9 434.519 255.943Z" fill="#263238"/>
<path d="M426.639 264.774C429.928 267.343 433.294 269.793 436.472 272.525C439.649 275.257 443.949 279.197 446.921 282.127C447.144 282.349 446.921 282.778 446.681 282.564C443.598 279.754 439.016 275.917 435.898 273.142C432.78 270.367 429.774 267.48 426.57 264.834C426.519 264.825 426.588 264.731 426.639 264.774Z" fill="#263238"/>
<path d="M418.485 271.129C423.718 274.821 428.266 279.471 432.617 284.139C432.84 284.371 432.617 284.405 432.343 284.182C427.727 279.771 424.129 276.277 418.356 271.335C418.288 271.232 418.399 271.052 418.485 271.129Z" fill="#263238"/>
<path d="M385.86 242.307C393.62 242.256 416.412 242.196 424.155 242.796C431.007 243.318 436.652 244.791 442.399 248.594C454.732 256.748 462.681 266.324 464.668 269.151C465.867 270.864 467.606 273.63 466.021 275.549C464.077 277.878 456.925 275.6 449.379 268.774C449.105 268.525 449.277 268.371 449.559 268.602C460.154 277.167 464.368 276.191 465.473 274.726C466.193 273.776 465.473 272.157 464.857 270.872C463.825 269.054 462.564 267.376 461.105 265.879C456.238 260.672 450.854 255.974 445.037 251.858C438.804 247.205 431.379 244.416 423.624 243.815C415.693 243.164 393.749 243.369 385.826 242.607C385.663 242.556 385.689 242.316 385.86 242.307Z" fill="#263238"/>
<path d="M459.066 282.024C458.63 279.908 457.105 277.973 455.897 276.225C454.43 274.026 452.746 271.981 450.87 270.118C450.793 270.041 450.647 270.118 450.724 270.238C452.322 272.106 453.806 274.068 455.169 276.114C455.894 277.239 456.552 278.406 457.139 279.609C457.696 280.765 458.356 282.101 458.064 283.42C457.516 285.938 454.313 285.878 452.42 285.202C451.194 284.74 450.012 284.167 448.891 283.489C447.364 282.515 445.915 281.424 444.557 280.225C444.446 280.122 444.137 280.165 444.257 280.277C447.084 282.966 452.437 288.559 456.805 286.512C457.644 286.142 458.327 285.492 458.74 284.673C459.152 283.854 459.268 282.918 459.066 282.024Z" fill="#263238"/>
<path d="M388.507 240.646L368.131 286.897C368.131 286.897 296.92 270.821 292.792 257.305C288.663 243.789 310.975 207.627 331.112 185.05C350.915 162.866 353.844 177.915 348.919 195.071C343.994 212.227 335.917 232.004 336.816 233.485C337.716 234.967 388.507 240.646 388.507 240.646Z" fill="#FFC727"/>
<path d="M341.399 218.06C341.347 218.188 341.304 218.325 341.253 218.454C337.297 216.508 333.105 215.086 328.782 214.222C326.545 213.823 324.267 213.697 321.999 213.846C321.433 213.846 320.877 213.965 320.286 214.043C319.695 214.12 319.172 214.214 318.624 214.368C317.511 214.608 316.457 215.036 315.369 215.37C311.172 216.967 307.322 219.357 304.029 222.411L304.569 221.477C307.71 218.704 311.325 216.519 315.241 215.027C316.337 214.685 317.408 214.248 318.538 214.008C319.095 213.854 319.669 213.786 320.251 213.666C320.834 213.546 321.391 213.511 321.964 213.469C324.255 213.315 326.556 213.438 328.816 213.837C333.176 214.691 337.406 216.111 341.399 218.06ZM379.085 240.731L378.597 240.44L376.644 239.284L375.462 239.147C376.319 239.687 377.252 240.235 378.152 240.757L378.64 241.048C381.209 242.547 383.779 243.986 386.417 245.331L386.623 244.86C384.087 243.549 381.578 242.17 379.085 240.731ZM365.184 237.896C364.67 238.753 364.148 239.609 363.617 240.423C362.46 242.256 361.253 244.063 359.968 245.811C359.848 245.973 359.737 246.136 359.617 246.29C358.317 248.046 356.915 249.725 355.42 251.318C353.861 252.972 352.139 254.464 350.281 255.772L349.587 256.26C349.356 256.423 349.099 256.551 348.859 256.697L347.394 257.553C346.385 258.063 345.343 258.506 344.277 258.881C339.956 260.316 335.433 261.047 330.881 261.048C326.35 261.029 321.835 260.514 317.416 259.515C312.954 258.564 308.577 257.271 304.183 255.995C300.286 254.864 296.363 253.725 292.355 252.98C292.355 253.117 292.355 253.254 292.355 253.382C296.32 254.127 300.2 255.275 304.08 256.397C308.466 257.682 312.86 258.967 317.339 259.952C321.816 260.973 326.392 261.501 330.983 261.528C335.587 261.53 340.162 260.796 344.534 259.352C345.625 258.977 346.69 258.528 347.72 258.007L349.219 257.151C349.472 257.016 349.718 256.867 349.955 256.705L350.666 256.209C352.553 254.888 354.301 253.378 355.882 251.703C357.477 249.997 358.97 248.198 360.353 246.316C360.482 246.153 360.593 245.999 360.704 245.836C361.921 244.175 363.068 242.47 364.131 240.74C364.713 239.832 365.278 238.907 365.844 237.991L365.184 237.896ZM379.676 239.609C379.325 239.884 378.965 240.158 378.597 240.415L378.152 240.731C377.16 241.431 376.121 242.061 375.042 242.616L374.297 243.018C374.049 243.155 373.775 243.25 373.518 243.37L371.959 244.038C370.896 244.421 369.809 244.733 368.704 244.971C366.05 245.54 363.342 245.827 360.627 245.828H359.968C358.358 245.828 356.747 245.699 355.146 245.528C350.626 244.959 346.182 243.893 341.895 242.35C337.613 240.869 333.39 239.044 329.193 237.211C325.016 235.321 320.725 233.694 316.346 232.338C311.952 231.079 307.267 230.393 302.719 231.284C301.272 231.575 299.871 232.062 298.556 232.732C298.47 232.903 298.385 233.083 298.308 233.254C299.715 232.504 301.224 231.961 302.787 231.644C307.258 230.787 311.883 231.455 316.234 232.715C320.589 234.075 324.854 235.705 329.005 237.597C333.202 239.404 337.399 241.237 341.724 242.736C346.052 244.301 350.538 245.39 355.103 245.982C356.61 246.153 358.118 246.265 359.625 246.29C359.848 246.29 360.062 246.29 360.285 246.29C363.161 246.337 366.033 246.067 368.85 245.485C369.976 245.236 371.086 244.919 372.173 244.534L373.766 243.849C374.032 243.729 374.297 243.635 374.554 243.498L375.317 243.087C376.486 242.491 377.609 241.806 378.674 241.04L379.119 240.723C379.565 240.397 379.976 240.055 380.456 239.712L379.676 239.609ZM342.384 176.707C342.015 176.382 341.656 176.065 341.296 175.731L340.833 176.03L342.032 177.101C344.821 179.598 347.799 181.875 350.94 183.91C350.94 183.696 350.94 183.482 350.94 183.277C347.934 181.312 345.079 179.125 342.401 176.733L342.384 176.707ZM347.591 186.985L345.878 187.097C345.313 187.139 344.748 187.097 344.165 187.097H342.452L340.739 186.96C338.474 186.824 336.232 186.428 334.058 185.778C333.108 185.495 332.165 185.169 331.24 184.793L331.035 185.024L330.838 185.247C331.836 185.665 332.857 186.028 333.896 186.334C339.32 187.783 344.986 188.098 350.538 187.259C350.538 187.045 350.598 186.84 350.632 186.626C349.681 186.814 348.645 186.934 347.608 187.011L347.591 186.985ZM374.623 267.549C370.016 267.389 365.422 268.128 361.098 269.724C356.813 271.354 352.72 273.451 348.893 275.977C346.752 277.364 344.662 278.821 342.598 280.319L342.932 280.414C344.936 278.966 346.966 277.57 349.047 276.242C352.86 273.734 356.939 271.657 361.21 270.05C365.493 268.482 370.04 267.763 374.597 267.934C375.188 267.994 375.779 268.029 376.37 268.08L376.533 267.72C375.925 267.669 375.274 267.635 374.64 267.575L374.623 267.549Z" fill="white"/>
<path d="M359.959 279.249C360.653 277.93 361.321 276.611 361.989 275.283C363.331 272.594 364.667 269.899 365.998 267.198C368.636 261.836 371.137 256.406 373.544 250.924C374.923 247.823 376.422 244.757 377.664 241.597C377.678 241.565 377.68 241.528 377.668 241.495C377.656 241.462 377.631 241.436 377.599 241.421C377.568 241.406 377.531 241.405 377.498 241.417C377.465 241.429 377.439 241.453 377.424 241.485C375.942 244.098 374.657 246.83 373.287 249.511C371.916 252.192 370.52 254.847 369.201 257.553C366.575 262.915 364.028 268.32 361.561 273.767C360.867 275.292 360.114 276.799 359.488 278.358C359.163 279.155 358.786 279.925 358.469 280.731C358.152 281.536 357.912 282.358 357.613 283.155C357.609 283.163 357.606 283.172 357.606 283.181C357.606 283.191 357.607 283.2 357.61 283.209C357.613 283.217 357.618 283.226 357.625 283.232C357.631 283.239 357.638 283.245 357.647 283.249C357.655 283.253 357.664 283.255 357.674 283.255C357.683 283.256 357.692 283.254 357.701 283.251C357.71 283.248 357.718 283.243 357.725 283.237C357.732 283.23 357.737 283.223 357.741 283.214C358.435 281.887 359.249 280.602 359.959 279.249Z" fill="#263238"/>
<path d="M369.664 283.72L368.233 286.957L368.191 287.06H368.054C361.313 285.81 354.615 284.311 347.96 282.641C341.305 280.97 334.701 279.078 328.166 276.97C321.607 274.898 315.175 272.444 308.903 269.622C305.755 268.206 302.715 266.563 299.807 264.705C298.355 263.759 296.983 262.696 295.704 261.528C294.385 260.397 293.374 258.95 292.766 257.322C293.524 258.851 294.63 260.18 295.995 261.202C297.347 262.241 298.782 263.166 300.286 263.969C303.261 265.622 306.333 267.095 309.485 268.38C315.781 270.992 322.247 273.219 328.748 275.309C335.249 277.399 341.81 279.343 348.388 281.21C354.966 283.077 361.57 284.928 368.182 286.7L368.011 286.786L369.664 283.72Z" fill="#263238"/>
<path d="M387.693 242.444L388.404 240.603L388.481 240.731C381.338 240.26 374.203 239.686 367.068 238.941C359.934 238.196 352.842 237.382 345.75 236.32C343.977 236.046 342.204 235.755 340.431 235.413C339.574 235.233 338.658 235.061 337.741 234.804C337.51 234.736 337.287 234.667 337.039 234.573C336.897 234.527 336.759 234.466 336.628 234.393C336.528 234.34 336.433 234.276 336.345 234.205C336.253 234.127 336.175 234.035 336.114 233.931C336.079 233.864 336.048 233.795 336.02 233.725C336.015 233.691 336.015 233.656 336.02 233.622C335.985 233.296 336.003 232.967 336.071 232.646C336.114 232.415 336.157 232.166 336.217 231.952C337.125 228.398 338.272 225.04 339.437 221.674C341.767 214.899 344.302 208.21 346.975 201.563C344.91 208.415 342.795 215.267 340.688 222.119C339.677 225.545 338.564 228.972 337.784 232.398C337.733 232.612 337.707 232.809 337.664 233.014C337.622 233.22 337.664 233.46 337.621 233.374C337.579 233.288 337.621 233.374 337.621 233.374C337.612 233.329 337.595 233.285 337.57 233.246C337.57 233.16 337.416 233.074 337.45 233.091C337.484 233.108 337.407 233.091 337.45 233.091L337.664 233.177L338.23 233.357C339.086 233.58 339.943 233.742 340.799 233.914C342.512 234.231 344.302 234.505 346.058 234.77C349.587 235.301 353.122 235.801 356.662 236.269L367.291 237.699C374.374 238.642 381.458 239.652 388.541 240.689H388.67L388.618 240.8L387.693 242.444Z" fill="#263238"/>
<path d="M347.737 205.948C347.234 207.157 346.599 208.306 345.844 209.375C345.134 210.468 344.268 211.452 343.274 212.295C343.925 211.156 344.619 210.077 345.356 209.006C346.071 207.928 346.867 206.906 347.737 205.948Z" fill="#263238"/>
<path d="M368.49 190.129C362.443 191.842 351.548 182.994 347.077 175.619C346.769 175.114 347.985 154.284 347.797 150.13C347.797 149.273 374.126 155.269 374.126 155.269C374.126 155.269 371.959 164.091 372.336 171.328C372.362 171.945 374.323 188.467 368.49 190.129Z" fill="#AD6359"/>
<path d="M347.394 163.174C359.72 171.876 371.728 168.536 372.233 168.382C372.436 163.967 373.047 159.58 374.058 155.277C374.058 155.277 347.677 149.282 347.72 150.138C347.874 152.082 347.66 157.701 347.394 163.174Z" fill="#263238"/>
<path d="M373.998 138.113C374.674 144.262 379.599 148.768 384.987 148.168C390.374 147.569 394.203 142.113 393.552 135.971C392.901 129.83 387.959 125.316 382.563 125.916C377.167 126.515 373.321 131.971 373.998 138.113Z" fill="#455A64"/>
<path d="M370.88 138.849C371.634 145.701 377.107 150.695 383.102 150.035C389.098 149.376 393.381 143.303 392.601 136.46C391.822 129.616 386.383 124.614 380.379 125.274C374.375 125.933 370.126 132.014 370.88 138.849Z" fill="#C7C7C7"/>
<path d="M344.148 118.833C341.27 128.066 345.99 154.806 352.525 160.802C362.006 169.495 377.612 170.412 385.012 159.003C392.19 147.937 385.423 113.205 378.109 107.749C367.343 99.6981 348.396 105.205 344.148 118.833Z" fill="#AD6359"/>
<path d="M366.366 135.62C366.366 135.56 366.246 135.732 366.263 135.809C366.657 137.59 366.82 139.706 365.313 140.614C365.261 140.614 365.313 140.734 365.313 140.708C367.274 140.048 367.034 137.248 366.366 135.62Z" fill="#263238"/>
<path d="M364.405 134.053C361.475 134.387 362.358 140.228 365.073 139.92C367.788 139.612 366.863 133.779 364.405 134.053Z" fill="#263238"/>
<path d="M376.764 134.216C376.764 134.147 376.918 134.284 376.927 134.361C377.141 136.177 377.698 138.215 379.419 138.575C379.471 138.575 379.488 138.678 379.419 138.678C377.372 138.695 376.679 135.971 376.764 134.216Z" fill="#263238"/>
<path d="M378.092 132.066C380.97 131.406 382.075 137.205 379.411 137.821C376.747 138.438 375.659 132.64 378.092 132.066Z" fill="#263238"/>
<path d="M361.698 131.732C362.433 131.393 363.148 131.012 363.839 130.592C364.648 130.297 365.338 129.743 365.801 129.017C365.901 128.759 365.913 128.476 365.836 128.211C365.758 127.946 365.595 127.714 365.372 127.552C364.885 127.296 364.338 127.176 363.788 127.203C363.239 127.23 362.706 127.404 362.246 127.706C361.214 128.171 360.392 129.005 359.942 130.044C359.852 130.287 359.835 130.55 359.893 130.802C359.95 131.055 360.08 131.284 360.267 131.464C360.453 131.643 360.688 131.764 360.942 131.811C361.197 131.859 361.459 131.831 361.698 131.732Z" fill="#263238"/>
<path d="M379.942 128.802C379.133 128.762 378.327 128.68 377.526 128.554C376.667 128.586 375.821 128.333 375.12 127.835C374.927 127.635 374.807 127.376 374.777 127.1C374.748 126.824 374.811 126.546 374.957 126.31C375.316 125.891 375.779 125.575 376.299 125.393C376.82 125.211 377.379 125.17 377.92 125.274C379.051 125.32 380.123 125.788 380.927 126.584C381.099 126.775 381.213 127.011 381.253 127.265C381.294 127.519 381.26 127.779 381.156 128.014C381.051 128.248 380.881 128.448 380.666 128.588C380.45 128.728 380.199 128.803 379.942 128.802Z" fill="#263238"/>
<path d="M367.36 152.571C367.857 152.93 368.379 153.427 369.073 153.427C369.744 153.314 370.383 153.06 370.949 152.682C370.959 152.669 370.974 152.662 370.99 152.66C371.006 152.658 371.022 152.663 371.034 152.673C371.047 152.684 371.055 152.698 371.056 152.714C371.058 152.731 371.053 152.747 371.043 152.759C370.84 153.155 370.532 153.489 370.153 153.723C369.774 153.957 369.338 154.083 368.893 154.087C368.51 154.048 368.148 153.896 367.852 153.65C367.556 153.405 367.34 153.077 367.231 152.708C367.154 152.622 367.283 152.519 367.36 152.571Z" fill="#263238"/>
<path d="M368.439 146.875C369.006 147.52 369.701 148.041 370.479 148.405C371.257 148.769 372.102 148.968 372.961 148.99C373.714 149.02 374.466 148.942 375.197 148.759C375.337 148.733 375.475 148.693 375.608 148.639C375.738 148.606 375.867 148.566 375.993 148.519C376.087 148.488 376.168 148.426 376.224 148.344C376.279 148.262 376.307 148.164 376.302 148.065C376.296 148.004 376.282 147.943 376.259 147.885V147.731C376.079 146.335 375.625 144.237 375.625 144.237C376.173 144.417 378.948 145.187 378.794 144.468C377.526 138.472 376.113 131.86 373.586 126.199C373.569 126.161 373.539 126.131 373.502 126.114C373.465 126.097 373.422 126.094 373.383 126.105C373.344 126.117 373.31 126.142 373.287 126.176C373.265 126.211 373.255 126.252 373.261 126.293C374.254 132.074 376.259 137.642 377.355 143.423C376.367 143.133 375.344 142.986 374.314 142.986C374.126 143.072 375.265 147.02 375.291 147.654C375.296 147.677 375.296 147.7 375.291 147.723C372.995 148.374 371.128 147.937 368.619 146.712C368.43 146.626 368.31 146.746 368.439 146.875Z" fill="#263238"/>
<path d="M374.263 148.177C373.654 149.285 372.769 150.218 371.694 150.883C371.093 151.225 370.403 151.375 369.715 151.312C368.216 151.149 368.002 149.83 368.071 148.656C368.127 148.032 368.257 147.417 368.456 146.823C370.198 147.881 372.233 148.355 374.263 148.177Z" fill="#263238"/>
<path d="M371.685 150.909C371.085 151.251 370.394 151.4 369.706 151.337C368.208 151.174 367.993 149.855 368.062 148.682C369.664 148.579 371.325 149.401 371.685 150.909Z" fill="#FF99BA"/>
<path opacity="0.2" d="M348.533 128.331C347.48 130.986 345.313 137.222 344.08 137.659C342.906 128.991 342.863 121.128 345.013 116.297C345.902 114.302 347.151 112.487 348.696 110.944C348.876 113.265 349.655 125.556 348.533 128.331Z" fill="#263238"/>
<path d="M371.702 115.938C370.969 117.209 369.921 118.27 368.66 119.02C367.399 119.77 365.966 120.183 364.499 120.22C363.006 120.259 361.527 119.916 360.204 119.224C358.88 118.531 357.755 117.512 356.936 116.263C356.931 116.255 356.925 116.248 356.918 116.243C356.911 116.237 356.903 116.233 356.894 116.231C356.885 116.228 356.876 116.228 356.867 116.229C356.858 116.23 356.85 116.233 356.842 116.237C356.834 116.242 356.827 116.248 356.821 116.255C356.816 116.262 356.812 116.27 356.809 116.279C356.807 116.288 356.806 116.297 356.807 116.306C356.809 116.315 356.811 116.324 356.816 116.332C357.561 117.726 358.673 118.889 360.032 119.697C361.39 120.505 362.944 120.926 364.525 120.914C366.073 120.827 367.571 120.333 368.868 119.484C370.166 118.635 371.217 117.459 371.916 116.075C371.934 116.046 371.941 116.012 371.933 115.979C371.926 115.946 371.906 115.917 371.878 115.899C371.849 115.881 371.815 115.875 371.782 115.882C371.749 115.889 371.72 115.909 371.702 115.938Z" fill="#263238"/>
<path d="M389.569 102.156C388.335 99.8803 386.336 98.1144 383.925 97.1714C380.584 95.8523 377.235 96.7346 373.92 97.6853C373.902 97.6853 373.885 97.6925 373.872 97.7054C373.859 97.7182 373.852 97.7356 373.852 97.7538C373.852 97.772 373.859 97.7894 373.872 97.8023C373.885 97.8151 373.902 97.8223 373.92 97.8223C376.738 97.0258 379.65 96.3834 382.528 97.257C384.91 97.9696 386.974 99.4823 388.37 101.54C389.732 103.67 390.281 106.219 389.918 108.722C389.554 111.224 388.303 113.512 386.391 115.167C385.265 116.091 383.961 116.775 382.56 117.178C381.159 117.58 379.691 117.691 378.246 117.505C378.134 117.505 378.083 117.659 378.203 117.676C380.171 118.01 382.192 117.789 384.041 117.037C385.889 116.285 387.492 115.033 388.668 113.421C389.844 111.809 390.548 109.9 390.699 107.911C390.851 105.921 390.445 103.928 389.526 102.156H389.569Z" fill="#263238"/>
<path d="M343.369 124.169C343.369 124.169 337.176 116.212 340.174 110.464C341.887 107.201 349.262 106.302 349.262 106.302C349.262 106.302 350.975 102.525 356.807 100.075C362.64 97.6253 370.512 99.0643 370.512 99.0643C370.512 99.0643 375.745 94.7132 381.741 96.8716C390.1 99.8865 391.162 111.629 384.173 116.683C379.257 120.237 371.137 116.76 371.137 116.76C370.452 116.974 364.028 122.558 357.484 117.102C357.484 117.102 353.758 121.796 349.313 119.74C348.892 120.997 348.097 122.095 347.035 122.886C345.972 123.678 344.693 124.125 343.369 124.169Z" fill="#263238"/>
<path d="M349.724 140.631C349.724 140.631 343.566 132.066 339.677 134.284C335.789 136.502 340.534 148.948 345.125 150.558C345.701 150.811 346.323 150.946 346.953 150.953C347.583 150.961 348.207 150.841 348.79 150.601C349.372 150.361 349.9 150.006 350.341 149.557C350.783 149.108 351.13 148.574 351.36 147.988L349.724 140.631Z" fill="#AD6359"/>
<path d="M341.116 137.83C341.039 137.83 341.03 137.924 341.116 137.95C344.362 139.218 346.101 142.181 347.334 145.265C346.358 144.083 345.048 143.449 343.463 144.614C343.377 144.674 343.463 144.802 343.549 144.785C344.113 144.605 344.719 144.603 345.284 144.779C345.85 144.955 346.347 145.301 346.709 145.77C347.318 146.567 347.838 147.429 348.259 148.339C348.414 148.622 348.928 148.459 348.816 148.134V148.057C348.816 143.894 345.536 138.181 341.116 137.83Z" fill="#263238"/>
<path d="M344.593 134.635C344.593 134.635 341.262 121.359 343.857 113.222C346.743 104.178 357.63 95.3213 370.494 99.0814C370.494 99.0814 356.216 100.923 349.279 112.854C346.092 118.336 349.15 134.164 349.15 134.164L344.593 134.635Z" fill="#C7C7C7"/>
<path d="M358.418 139.106C359.72 145.958 355.925 152.416 349.93 153.564C343.934 154.712 338.007 150.138 336.697 143.286C335.386 136.434 339.189 129.976 345.185 128.828C351.18 127.68 357.107 132.271 358.418 139.106Z" fill="#C7C7C7"/>
<path d="M355.18 139.329C356.353 145.47 352.936 151.32 347.549 152.322C342.161 153.324 336.834 149.196 335.66 143.063C334.487 136.931 337.896 131.072 343.283 130.07C348.671 129.068 353.998 133.179 355.18 139.329Z" fill="#455A64"/>
<path d="M15.3247 290.186H120.385L99.4343 168.33H20.8749L15.3247 290.186Z" fill="#DBDBDB"/>
<path d="M15.3247 290.186H24.5322L29.7056 168.33H20.8749L15.3247 290.186Z" fill="#A6A6A6"/>
<path d="M77.593 115.184C67.8373 124.888 65.0365 140.879 65.0365 140.879C65.0365 140.879 55.6834 156.973 58.2958 165.718C58.9868 168.198 60.2689 170.473 62.0322 172.348C63.7955 174.223 65.9873 175.642 68.4197 176.484L67.4947 171.654C67.4947 171.654 70.6296 177.863 81.1047 180.364C91.5799 182.865 105.438 179.645 112.65 175.996C116.924 173.856 120.572 170.646 123.237 166.677L120.539 173.701C120.539 173.701 130.705 173.341 136.744 162.523C142.782 151.706 125.438 136.16 123.965 132.811C122.491 129.462 120.624 105.06 94.9545 109.265C94.9888 109.205 84.3423 108.503 77.593 115.184Z" fill="#263238"/>
<path d="M64.7454 175.791C62.0731 173.795 59.435 171.508 57.9618 168.682C56.3554 165.752 55.785 162.366 56.343 159.072C57.0539 155.123 59.1352 151.637 61.1566 148.237C63.178 144.836 65.6105 141.385 67.6404 137.813C67.7517 137.616 67.452 137.453 67.3149 137.607C65.0342 140.286 62.9066 143.091 60.9425 146.01C58.933 148.678 57.2428 151.573 55.9062 154.635C54.6569 157.454 54.2465 160.573 54.7242 163.62C55.2294 166.096 56.3288 168.412 57.9275 170.369C59.8204 172.724 62.2101 174.232 64.6083 176.005C64.7454 176.116 64.891 175.902 64.7454 175.791Z" fill="#263238"/>
<path d="M138.945 151.337C135.861 142.352 127.81 136.648 122.868 128.811C120.213 124.571 118.149 119.878 114.688 116.195C114.594 116.092 114.423 116.254 114.509 116.357C117.352 119.672 118.997 123.663 121.052 127.492C123.243 131.26 125.802 134.8 128.692 138.061C133.78 144.16 139.87 151.38 138.705 159.919C138.166 163.859 135.836 168.228 131.793 169.452C131.639 169.504 131.733 169.761 131.887 169.692C133.482 169.052 134.929 168.094 136.141 166.876C137.353 165.658 138.304 164.206 138.936 162.609C140.299 158.976 140.302 154.972 138.945 151.337Z" fill="#263238"/>
<path d="M139.313 153.753C139.592 150.35 138.808 146.944 137.069 144.005C135.296 141.11 132.513 139.021 129.729 137.153C126.517 135.021 123.134 132.991 121.095 129.608C121.01 129.462 120.804 129.608 120.881 129.753C124.119 135.338 130.303 137.941 134.44 142.644C139.193 148.014 139.202 155.834 135.93 161.975C133.851 165.719 130.916 168.918 127.365 171.311C127.305 171.311 127.365 171.44 127.434 171.397C133.489 167.423 138.825 161.307 139.313 153.753Z" fill="#263238"/>
<path d="M100.496 194.685C126.491 208.955 157.608 226.865 176.674 222.65C185.128 220.783 223.089 171.02 224.699 165.264C226.078 160.322 191.706 140.425 187.869 144.322C181.394 150.858 163.887 187.653 161.317 188.27C158.748 188.887 136.924 184.459 114.209 180.356C92.3506 176.433 82.4494 184.784 100.496 194.685Z" fill="#EB9481"/>
<path d="M221.008 171.465C223.971 167.731 236.065 149.419 238.283 143.569C240.502 137.719 245.692 120.443 241.393 118.267C237.093 116.092 235.191 121.017 235.191 121.017C235.191 121.017 236.228 113.368 231.697 111.595C227.166 109.822 224.425 117.591 224.425 117.591C224.425 117.591 224.913 109.659 220.262 108.169C215.612 106.679 214.173 115.021 214.173 115.021C214.173 115.021 214.961 107.792 210.627 108.169C205.419 108.674 205.488 122.173 202.541 128.443C201.873 129.864 186.944 156.348 186.944 156.348L221.008 171.465Z" fill="#EB9481"/>
<path d="M214.275 114.344C214.275 124.271 212.562 128.623 207.423 136.896C207.32 137.051 207.534 137.239 207.663 137.085C213.487 129.445 216.416 124.306 214.789 114.319C214.678 113.831 214.275 113.873 214.275 114.344Z" fill="#263238"/>
<path d="M224.374 116.811C223.517 127.089 221.684 131.852 216.879 140.922C216.811 141.051 217.025 141.179 217.102 141.051C222.558 132.554 225.367 127.346 224.887 116.94C224.913 116.469 224.416 116.34 224.374 116.811Z" fill="#263238"/>
<path d="M234.9 121.471C233.333 131.389 231.568 136.665 225.778 144.871C225.763 144.889 225.752 144.91 225.745 144.933C225.738 144.956 225.735 144.98 225.738 145.004C225.74 145.028 225.747 145.051 225.759 145.072C225.77 145.094 225.785 145.112 225.804 145.127C225.822 145.143 225.844 145.154 225.867 145.161C225.89 145.168 225.914 145.17 225.938 145.168C225.961 145.165 225.985 145.158 226.006 145.147C226.027 145.136 226.046 145.12 226.061 145.102C232.784 137.308 235.037 130.747 235.2 121.548C235.191 120.931 235.003 120.845 234.9 121.471Z" fill="#263238"/>
<path d="M179.587 159.346C179.587 159.346 178.859 146.935 179.749 141.41C180.64 135.886 191.509 116.511 195.792 118.618C201.368 121.351 197.291 133.77 194.499 139.594C194.499 139.594 207.398 145.881 206.404 155.431C205.411 164.981 179.587 159.346 179.587 159.346Z" fill="#EB9481"/>
<path d="M197.111 119.869C200.4 126.027 196.254 133.436 193.959 139.286C193.921 139.371 193.905 139.463 193.911 139.555C193.917 139.648 193.945 139.737 193.993 139.816C194.041 139.895 194.107 139.961 194.186 140.009C194.265 140.057 194.355 140.085 194.447 140.091C199.68 143.089 206.19 148.845 206.747 155.183C206.747 155.222 206.762 155.259 206.789 155.286C206.817 155.313 206.854 155.329 206.892 155.329C206.931 155.329 206.968 155.313 206.995 155.286C207.022 155.259 207.038 155.222 207.038 155.183C207.363 148.331 201.428 142.13 195.492 139.209C197.924 133.213 201.77 125.633 197.205 119.835C197.145 119.809 197.094 119.835 197.111 119.869Z" fill="#263238"/>
<path d="M155.133 186.24L123.845 212.467C123.845 212.467 104.744 202.531 90.6377 191.114C76.5309 179.696 92.1537 174.146 116.376 178.215C140.598 182.283 155.133 186.24 155.133 186.24Z" fill="#FFC727"/>
<path d="M118.072 191.508C117.185 190.298 116.159 189.196 115.014 188.227C116.281 190.95 118.111 193.373 120.384 195.336C119.77 193.972 118.994 192.686 118.072 191.508ZM90.6634 191.131L91.0402 191.422C91.2886 191.156 91.537 190.874 91.7683 190.565C91.3743 190.745 91.006 190.934 90.6462 191.165L90.6634 191.131ZM143.039 191.302C141.559 191.085 140.059 191.039 138.568 191.165C139.966 191.693 141.42 192.058 142.902 192.253C144.381 192.477 145.882 192.526 147.373 192.398C145.97 191.866 144.51 191.498 143.022 191.302H143.039ZM132.564 181.161C132.545 181.733 132.565 182.305 132.624 182.874C132.833 182.36 133.01 181.834 133.155 181.298L132.564 181.161Z" fill="white"/>
<path d="M116.838 206.865C123.202 200.749 130.003 195.071 136.898 189.538C138.851 187.979 140.838 186.454 142.894 184.99C142.954 184.947 143.031 184.99 142.971 185.067C139.733 188.056 136.367 190.908 133.018 193.777C129.669 196.647 126.277 199.516 122.843 202.3C120.898 203.876 118.963 205.452 116.993 206.985C116.873 207.045 116.761 206.942 116.838 206.865Z" fill="#263238"/>
<path d="M137.138 201.323L123.836 212.458C123.836 212.458 104.736 202.531 90.6291 191.114C85.6185 187.062 84.3594 183.756 85.8926 181.349L137.138 201.323Z" fill="#263238"/>
<path d="M130.697 290.084H30.9902C30.9902 290.084 52.6514 206.428 72.7024 182.874C73.1478 182.334 73.6103 181.82 74.0728 181.341C74.167 181.229 74.2527 181.152 74.3469 181.058C75.8991 179.4 77.7063 178.001 79.7001 176.913C80.0513 176.724 80.4025 176.544 80.7708 176.39C88.4794 172.836 96.6505 175.782 102.535 180.818C104.402 182.411 125.541 209.94 127.374 220.398C128.992 229.657 122.74 239.601 122.74 239.601L130.697 290.084Z" fill="#FFC727"/>
<path d="M107.802 236.021C103.557 236.435 99.3485 237.165 95.2117 238.205C93.156 238.753 91.1518 239.387 89.139 240.063C88.1369 240.406 87.1347 240.714 86.1241 241.014C85.0718 241.356 83.9817 241.569 82.8779 241.648C82.8574 241.648 82.8378 241.656 82.8234 241.671C82.8089 241.685 82.8008 241.705 82.8008 241.725C82.8008 241.745 82.8089 241.765 82.8234 241.779C82.8378 241.794 82.8574 241.802 82.8779 241.802C83.9235 241.846 84.971 241.818 86.0127 241.716C87.0156 241.591 88.0087 241.396 88.9848 241.134C91.0747 240.594 93.1303 239.969 95.2117 239.421C99.4086 238.308 103.597 237.194 107.862 236.38C107.91 236.372 107.953 236.346 107.981 236.306C108.009 236.267 108.02 236.218 108.012 236.171C108.004 236.123 107.978 236.08 107.938 236.052C107.899 236.024 107.85 236.013 107.802 236.021Z" fill="#263238"/>
<path d="M118.337 239.695C114.833 239.358 111.313 239.218 107.794 239.275C106.081 239.318 104.291 239.455 102.535 239.635C101.678 239.729 100.822 239.832 100.034 239.943C99.2457 240.055 98.2178 240.312 97.3014 240.423C97.2072 240.423 97.2072 240.586 97.3014 240.577C98.1579 240.5 99.0572 240.577 99.9309 240.534L102.56 240.44C104.273 240.389 106.064 240.346 107.819 240.269C111.331 240.123 114.834 240.012 118.346 239.978C118.534 239.986 118.517 239.712 118.337 239.695Z" fill="#263238"/>
<path d="M63.2293 202.54C62.7582 201.94 62.2785 201.349 61.7561 200.827L61.3878 201.597C61.7304 202.128 62.0987 202.651 62.4755 203.156C63.3629 204.358 64.3892 205.45 65.5333 206.411C64.9081 205.041 64.1355 203.743 63.2293 202.54ZM74.8008 180.596C74.6263 181.933 74.5976 183.286 74.7151 184.63C75.2472 183.225 75.6067 181.761 75.7857 180.27C75.7857 180.048 75.8457 179.816 75.8714 179.594C75.5117 179.91 75.1519 180.245 74.8008 180.596ZM105.061 208.467C104.528 209.869 104.16 211.33 103.965 212.818C103.749 214.301 103.7 215.803 103.819 217.297C104.357 215.897 104.72 214.435 104.899 212.946C105.134 211.465 105.188 209.961 105.061 208.467ZM86.004 256.705C85.4761 258.103 85.1139 259.557 84.9247 261.039C84.7075 262.522 84.6615 264.025 84.7877 265.519C85.8057 262.699 86.2201 259.696 86.004 256.705ZM53.6106 220.286C53.0877 221.694 52.7256 223.157 52.5314 224.646C52.3134 226.126 52.2674 227.627 52.3944 229.117C52.9186 227.713 53.2779 226.253 53.465 224.766C53.6895 223.284 53.7384 221.78 53.6106 220.286ZM80.4195 214.171C78.9394 213.954 77.4391 213.908 75.9485 214.034C77.3466 214.562 78.8009 214.927 80.2824 215.122C81.7618 215.346 83.2626 215.395 84.7534 215.267C83.3601 214.725 81.9086 214.346 80.428 214.137L80.4195 214.171ZM116.29 255.284C114.807 255.066 113.304 255.02 111.811 255.147C114.631 256.165 117.634 256.579 120.624 256.363C119.229 255.834 117.778 255.466 116.299 255.266L116.29 255.284ZM49.3281 251.335C47.8734 251.124 46.4001 251.073 44.9342 251.181H44.8485H44.9256C46.3092 251.691 47.7457 252.045 49.2082 252.234C50.6883 252.452 52.1885 252.498 53.6792 252.371C52.2737 251.859 50.8136 251.511 49.3281 251.335ZM86.9461 286.7C85.466 286.483 83.9658 286.437 82.4751 286.563C85.2978 287.583 88.3043 287.995 91.2972 287.771C89.881 287.248 88.4097 286.889 86.9119 286.7H86.9461ZM46.4844 282.367C45.0015 282.149 43.4984 282.103 42.0049 282.229C43.4039 282.751 44.8581 283.11 46.3388 283.3C47.8207 283.53 49.3253 283.576 50.8184 283.437C49.4084 282.913 47.9426 282.554 46.4502 282.367H46.4844ZM87.9225 192.878C86.716 193.775 85.6154 194.807 84.6421 195.953C86.0087 195.331 87.3015 194.558 88.4964 193.649C89.7006 192.755 90.7933 191.72 91.7511 190.565C90.3937 191.193 89.1098 191.969 87.9225 192.878ZM98.5947 238.727C97.391 239.612 96.2982 240.639 95.3399 241.785C96.7025 241.167 97.9875 240.391 99.1686 239.472C100.374 238.59 101.467 237.563 102.423 236.415C101.062 237.041 99.7769 237.823 98.5947 238.744V238.727ZM61.1736 266.752C59.9631 267.635 58.8669 268.665 57.9103 269.819C59.2677 269.191 60.5517 268.415 61.7389 267.506C62.943 266.612 64.0433 265.587 65.0194 264.448C63.6443 265.056 62.3521 265.836 61.1736 266.769V266.752ZM123.322 226.436C122.436 225.226 121.409 224.125 120.264 223.156C121.531 225.879 123.362 228.302 125.635 230.265C125.02 228.906 124.243 227.627 123.322 226.453V226.436ZM110.569 278.315C109.675 277.111 108.649 276.011 107.511 275.035C108.111 276.41 108.886 277.702 109.815 278.881C110.7 280.087 111.727 281.182 112.873 282.144C112.248 280.787 111.475 279.503 110.569 278.315ZM73.0192 237.511C72.1303 236.303 71.1041 235.202 69.9615 234.231C70.5688 235.604 71.3457 236.896 72.274 238.076C73.1564 239.285 74.1833 240.381 75.3318 241.34C74.7081 239.98 73.9323 238.696 73.0192 237.511Z" fill="white"/>
<path d="M70.6638 183.525C51.4865 198.985 2.37406 260.251 13.4488 274.41C24.5235 288.568 98.1322 282.118 119.502 275.42C125.858 273.433 108.522 233.1 101.652 231.241C95.9309 229.691 64.2057 239.07 63.589 237.237C62.8953 235.164 71.4261 223.695 82.2696 198.848C94.7747 170.189 79.1347 176.699 70.6638 183.525Z" fill="#EB9481"/>
<path d="M136.298 227.875C150.953 229.588 154.456 232.252 167.587 227.113C176.203 223.747 182.053 227.798 175.749 235.07C165.471 246.967 146.08 248.774 139.185 247.438L136.298 227.875Z" fill="#EB9481"/>
<path d="M95.1941 231.755C95.1941 231.755 113.378 227.053 129.172 227.31C140.101 227.49 163.826 230.53 179.929 258.89C183.749 265.613 184.426 277.913 174.19 269.168C166.927 262.975 164.195 256.851 159.313 254.016C159.313 254.016 158.311 269.75 151.424 273.322C145.401 276.436 139.164 279.118 132.761 281.347C132.082 280.269 131.476 279.148 130.945 277.99C130.945 277.99 124.196 280.713 113.815 276.936L95.1941 231.755Z" fill="#EB9481"/>
<path d="M139.579 229.151C143.861 232.989 152.701 241.262 157.566 250.564C163.013 260.894 170.722 282.255 163.056 286.204C157.437 289.099 153.771 281.193 153.771 281.193C153.771 281.193 155.099 290.7 149.489 292.199C144.35 293.57 141.874 287.283 141.874 287.283C141.874 287.283 141.686 293.184 136.478 293.553C130.209 293.981 131.63 281.561 124.898 276.499C123.382 275.36 139.579 229.151 139.579 229.151Z" fill="#EB9481"/>
<path d="M145.729 254.547C149.155 258.83 154.388 270.478 153.943 281.039C153.943 281.279 153.746 281.399 153.711 281.176C152.105 272.031 149.392 263.115 145.634 254.624C145.624 254.612 145.619 254.596 145.621 254.579C145.623 254.563 145.63 254.549 145.643 254.538C145.655 254.528 145.671 254.523 145.688 254.525C145.704 254.527 145.718 254.534 145.729 254.547Z" fill="#263238"/>
<path d="M135.459 260.303C138.029 264.286 142.902 276.577 142.08 287.24C142.08 287.48 141.866 287.583 141.84 287.36C140.708 278.139 138.533 269.076 135.356 260.346C135.356 260.334 135.359 260.322 135.366 260.312C135.373 260.302 135.382 260.294 135.393 260.289C135.404 260.285 135.416 260.284 135.428 260.286C135.44 260.288 135.451 260.294 135.459 260.303Z" fill="#263238"/>
<path d="M159.339 253.947C163.621 256.517 166.011 259.54 169.197 263.249C170.755 265.106 172.413 266.876 174.165 268.551C175.775 270.05 178.148 272.303 180.563 271.232C181.908 270.632 182.276 269.022 182.387 267.686C182.493 266.184 182.274 264.676 181.745 263.266C181.745 263.198 181.848 263.146 181.874 263.223C182.399 264.467 182.745 265.779 182.901 267.121C183.105 268.381 182.923 269.674 182.379 270.829C181.043 273.193 177.959 272.748 176.024 271.506C174.879 270.713 173.814 269.809 172.846 268.808C171.895 267.874 170.987 266.898 170.105 265.904C168.298 263.849 166.611 261.699 164.829 259.635C163.083 257.666 161.212 255.812 159.227 254.084C159.15 254.016 159.253 253.896 159.339 253.947Z" fill="#263238"/>
<path d="M164.786 272.671C164.28 269.733 160.649 257.108 159.21 254.033C159.201 254.017 159.198 253.998 159.203 253.981C159.208 253.963 159.22 253.948 159.236 253.939C159.251 253.93 159.27 253.927 159.288 253.932C159.306 253.937 159.321 253.949 159.33 253.965C162.045 258.307 165.471 268.851 166.071 272.097C166.67 275.343 167.244 279.36 166.413 282.555C165.163 287.369 161.737 287.454 160.495 287.386C159.027 287.278 157.641 286.674 156.563 285.673C155.336 284.393 154.38 282.878 153.754 281.219C153.754 281.142 153.831 281.073 153.874 281.15C155.056 283.48 157.343 286.075 160.049 286.409C160.649 286.502 161.26 286.474 161.849 286.327C162.437 286.18 162.99 285.917 163.475 285.553C164.492 284.58 165.122 283.271 165.248 281.87C165.622 278.8 165.465 275.688 164.786 272.671Z" fill="#263238"/>
<path d="M142.08 287.24C142.602 287.985 143.467 290.341 145.549 291.334C146.273 291.747 147.086 291.977 147.918 292.005C148.751 292.034 149.578 291.859 150.328 291.497C151.759 290.609 152.788 289.199 153.197 287.566C153.544 285.476 153.73 283.363 153.754 281.245C153.754 281.142 153.883 281.133 153.891 281.245C154.158 283.542 154.077 285.866 153.651 288.139C153.45 289.03 153.073 289.871 152.542 290.614C152.011 291.357 151.337 291.986 150.559 292.465C149.736 292.915 148.804 293.128 147.867 293.081C146.93 293.034 146.024 292.729 145.249 292.199C144.47 291.66 142.208 289.219 141.823 287.3C141.832 287.24 142.054 287.206 142.08 287.24Z" fill="#263238"/>
<path d="M125.558 275.746C126.177 276.432 126.714 277.188 127.159 277.998C127.665 278.855 128.144 279.669 128.598 280.525C129.5 282.256 130.221 284.076 130.748 285.955C131.296 287.84 131.725 289.895 133.018 291.446C133.623 292.212 134.454 292.768 135.394 293.036C136.333 293.303 137.333 293.268 138.251 292.936C139.223 292.55 140.031 291.838 140.538 290.923C141.125 289.936 141.518 288.846 141.694 287.711C141.69 287.701 141.689 287.69 141.691 287.679C141.692 287.668 141.696 287.657 141.702 287.648C141.709 287.639 141.717 287.632 141.727 287.627C141.737 287.621 141.748 287.619 141.759 287.619C141.77 287.619 141.781 287.621 141.79 287.627C141.8 287.632 141.809 287.639 141.815 287.648C141.821 287.657 141.825 287.668 141.827 287.679C141.828 287.69 141.827 287.701 141.823 287.711C141.75 288.74 141.572 289.759 141.292 290.752C140.968 291.644 140.416 292.435 139.69 293.047C138.929 293.628 138.023 293.988 137.072 294.088C136.12 294.188 135.159 294.023 134.294 293.613C132.375 292.756 131.296 290.82 130.628 288.902C129.883 286.769 129.386 284.568 128.538 282.461C128.101 281.347 127.682 280.234 127.151 279.163C126.62 278.093 125.883 276.979 125.438 275.831C125.386 275.763 125.489 275.669 125.558 275.746Z" fill="#263238"/>
<path d="M118.868 278.401C121.576 278.792 124.315 278.927 127.048 278.803C127.134 278.803 127.185 279.052 127.1 279.069C125.745 279.323 124.366 279.429 122.988 279.386C121.591 279.327 120.211 279.059 118.894 278.589C118.783 278.529 118.783 278.384 118.868 278.401Z" fill="#263238"/>
<path d="M34.7674 246.41C39.3461 244.2 44.0777 242.323 48.9256 240.791C53.7229 239.292 58.6239 238.147 63.5891 237.365C66.4242 236.894 69.2678 236.56 72.1542 236.209C72.2399 236.209 72.257 236.329 72.1542 236.338C67.1652 237.145 62.2265 238.238 57.3622 239.609C52.5201 240.928 47.7065 242.336 42.9214 243.832C40.2149 244.689 37.5425 245.648 34.8617 246.581C34.7674 246.65 34.6818 246.47 34.7674 246.41Z" fill="#263238"/>
<path d="M30.5962 220.723L71.1863 225.134C71.1863 225.134 81.5416 206.291 86.929 188.93C92.3165 171.568 77.0192 174.943 59.1438 191.773C41.2683 208.604 30.5962 220.723 30.5962 220.723Z" fill="#FFC727"/>
<path d="M30.5962 220.723L71.1863 225.134C71.1863 225.134 81.5416 206.291 86.929 188.93C92.3165 171.568 77.0192 174.943 59.1438 191.773C41.2683 208.604 30.5962 220.723 30.5962 220.723Z" fill="#FFC727"/>
<path d="M74.8695 180.03C74.8736 180.073 74.8736 180.116 74.8695 180.159C74.6521 181.642 74.6061 183.145 74.7324 184.638C75.2645 183.234 75.6241 181.77 75.8031 180.279C75.8031 180.022 75.8716 179.773 75.8973 179.516L74.8695 180.03ZM53.6108 220.286C53.239 221.221 52.9524 222.187 52.7543 223.173L53.6108 223.259C53.7049 222.27 53.7049 221.275 53.6108 220.286ZM39.5297 211.147L39.1357 211.559C39.5811 211.559 39.9923 211.559 40.4805 211.482C40.155 211.353 39.8466 211.242 39.5297 211.147ZM75.9572 214C76.1971 214.094 76.4454 214.188 76.6938 214.265C76.7382 214.154 76.7897 214.045 76.848 213.94C76.5568 213.948 76.257 213.965 75.9572 214ZM63.2295 202.54C62.3359 201.335 61.3102 200.235 60.1717 199.259C60.774 200.636 61.5481 201.931 62.4757 203.113C63.363 204.315 64.3894 205.408 65.5335 206.368C64.9056 205.013 64.1331 203.729 63.2295 202.54Z" fill="white"/>
<path d="M69.5418 224.757C69.7645 224.757 71.2548 224.757 71.2548 224.757C71.4347 224.235 74.9293 216.192 75.7858 214.479C77.5502 210.959 79.5202 207.533 81.4388 204.098C81.4987 203.987 81.67 204.098 81.6101 204.175C80.2568 207.173 78.9549 210.171 77.5759 213.186C77.9185 212.783 78.2611 212.381 78.5952 211.97C79.2718 211.113 79.8885 210.257 80.5309 209.349C80.5908 209.272 80.7107 209.349 80.6679 209.443C80.0549 210.682 79.2802 211.834 78.3639 212.869C77.9749 213.324 77.5542 213.75 77.1048 214.145C76.9935 214.394 76.8821 214.651 76.7622 214.89C75.9057 216.604 71.6831 225.237 71.5289 225.229L69.5761 224.989C69.4305 225.023 69.4305 224.749 69.5418 224.757Z" fill="#263238"/>
<path d="M38.2448 213.828C47.0497 214.419 55.829 215.627 64.5568 216.997C67.035 217.391 69.4961 217.84 71.94 218.342C72.0085 218.342 72.0085 218.462 71.94 218.454C67.5546 218.068 63.1779 217.503 58.8011 216.963C54.4243 216.424 50.0133 215.841 45.6365 215.147C43.1697 214.771 40.6944 214.394 38.2362 213.974C38.1334 213.983 38.1334 213.82 38.2448 213.828Z" fill="#263238"/>
<path d="M84.8992 177.547C85.0533 179.328 91.6828 191.713 99.6226 192.476C102.192 192.715 104.171 178.66 104.171 178.66L104.548 177.658L109.884 163.594L94.3808 150.189L92.1281 148.391C92.1281 148.391 90.9205 152.331 89.4729 157.256C89.4044 157.487 89.3273 157.718 89.2588 157.958C89.1903 158.198 89.0875 158.498 89.0104 158.755C88.7877 159.491 88.5565 160.236 88.3509 160.99C88.1882 161.564 88.0254 162.121 87.8713 162.703C87.7171 163.286 87.5629 163.902 87.3916 164.502C86.2648 168.788 85.4321 173.147 84.8992 177.547Z" fill="#EB9481"/>
<path d="M89.4729 157.256C90.3557 161.546 92.1612 165.593 94.7643 169.116C97.3673 172.639 100.706 175.554 104.548 177.658L109.884 163.594L94.3807 150.189L92.1281 148.391C92.1281 148.391 90.9204 152.331 89.4729 157.256Z" fill="#263238"/>
<path d="M114.577 141.993C115.939 147.988 121.335 151.937 126.628 150.746C131.922 149.556 135.099 143.689 133.738 137.659C132.376 131.629 126.98 127.706 121.686 128.905C116.393 130.104 113.215 135.954 114.577 141.993Z" fill="#455A64"/>
<path d="M111.554 143.072C113.078 149.778 119.074 154.138 124.967 152.81C130.859 151.483 134.388 144.965 132.872 138.25C131.356 131.535 125.352 127.184 119.468 128.511C113.584 129.839 110.038 136.348 111.554 143.072Z" fill="#C7C7C7"/>
<path d="M128.872 134.49C136.067 159.885 121.669 167.037 116.187 168.613C111.211 170.018 94.098 174.163 84.3166 149.641C74.5352 125.119 84.0682 113.745 95.2714 109.933C106.475 106.122 121.678 109.085 128.872 134.49Z" fill="#EB9481"/>
<path d="M120.033 131.295C119.43 131.355 118.824 131.38 118.217 131.372C117.58 131.494 116.92 131.4 116.342 131.106C116.177 130.979 116.059 130.801 116.006 130.599C115.954 130.398 115.969 130.185 116.05 129.993C116.269 129.64 116.578 129.352 116.946 129.159C117.313 128.967 117.726 128.876 118.14 128.897C118.984 128.803 119.833 129.026 120.521 129.522C120.67 129.646 120.78 129.811 120.838 129.996C120.895 130.181 120.899 130.378 120.847 130.565C120.796 130.752 120.692 130.92 120.547 131.05C120.403 131.179 120.225 131.264 120.033 131.295Z" fill="#263238"/>
<path d="M103.289 137.205C103.871 137.024 104.442 136.813 105.002 136.571C105.636 136.431 106.207 136.088 106.629 135.595C106.729 135.412 106.766 135.202 106.735 134.996C106.705 134.79 106.607 134.6 106.458 134.455C106.118 134.216 105.721 134.072 105.307 134.037C104.893 134.003 104.477 134.079 104.102 134.258C103.29 134.503 102.597 135.04 102.158 135.766C102.068 135.937 102.029 136.131 102.047 136.323C102.064 136.516 102.137 136.7 102.257 136.852C102.376 137.004 102.537 137.118 102.72 137.181C102.903 137.244 103.101 137.252 103.289 137.205Z" fill="#263238"/>
<path d="M108.427 141.684C108.427 141.616 108.316 141.804 108.342 141.873C108.89 143.586 109.198 145.641 107.828 146.661C107.785 146.661 107.828 146.772 107.871 146.755C109.686 145.941 109.207 143.2 108.427 141.684Z" fill="#263238"/>
<path d="M106.355 140.314C103.511 140.896 104.881 146.532 107.519 145.993C110.158 145.453 108.736 139.826 106.355 140.314Z" fill="#263238"/>
<path d="M105.318 140.879C104.907 141.325 104.556 142.001 103.982 142.207C103.408 142.412 102.646 141.976 102.064 141.513C102.004 141.47 101.961 141.513 101.978 141.607C102.226 142.686 102.912 143.697 104.111 143.577C105.31 143.457 105.729 142.327 105.729 141.17C105.738 140.956 105.49 140.708 105.318 140.879Z" fill="#263238"/>
<path d="M118.44 138.592C118.44 138.524 118.603 138.644 118.611 138.712C118.971 140.477 119.673 142.438 121.395 142.644C121.446 142.644 121.463 142.738 121.395 142.746C119.408 142.926 118.5 140.314 118.44 138.592Z" fill="#263238"/>
<path d="M119.562 136.4C122.32 135.543 123.845 141.11 121.275 141.924C118.706 142.738 117.258 137.128 119.562 136.4Z" fill="#263238"/>
<path d="M120.847 136.442C121.369 136.614 121.952 137.033 122.491 136.922C123.031 136.811 123.399 136.066 123.631 135.372C123.631 135.303 123.716 135.372 123.733 135.372C124.059 136.434 124.016 137.642 123.04 138.13C122.063 138.618 121.215 137.847 120.667 136.854C120.564 136.717 120.633 136.348 120.847 136.442Z" fill="#263238"/>
<path d="M112.385 155.765C112.881 156.099 113.413 156.622 114.098 156.511C114.753 156.369 115.371 156.091 115.914 155.697C115.924 155.684 115.939 155.676 115.955 155.675C115.971 155.673 115.987 155.678 115.999 155.688C116.012 155.699 116.02 155.713 116.021 155.729C116.023 155.745 116.018 155.761 116.008 155.774C115.822 156.17 115.533 156.509 115.172 156.754C114.81 157 114.389 157.144 113.952 157.17C113.57 157.151 113.202 157.017 112.897 156.787C112.591 156.556 112.362 156.239 112.239 155.877C112.179 155.783 112.308 155.723 112.385 155.765Z" fill="#263238"/>
<path d="M118.132 147.063C118.132 147.063 119.151 149.573 119.468 150.798C119.468 150.918 115.254 152.973 112.53 150.455C112.502 150.436 112.482 150.406 112.476 150.372C112.469 150.338 112.477 150.304 112.496 150.275C112.515 150.247 112.545 150.227 112.579 150.221C112.613 150.214 112.648 150.222 112.676 150.241C114.513 150.91 116.517 150.967 118.389 150.404C118.389 150.044 116.487 146.164 116.676 146.121C117.65 145.961 118.641 145.932 119.622 146.035C117.635 140.751 114.826 135.826 112.933 130.524C112.916 130.485 112.915 130.441 112.929 130.4C112.943 130.36 112.971 130.326 113.009 130.306C113.046 130.286 113.09 130.28 113.131 130.29C113.173 130.301 113.209 130.326 113.233 130.361C116.547 135.32 118.963 141.359 121.147 146.763C121.438 147.423 118.706 147.149 118.132 147.063Z" fill="#263238"/>
<path d="M118.38 150.995C117.925 152.131 117.188 153.134 116.239 153.907C115.706 154.307 115.063 154.534 114.397 154.558C112.933 154.558 112.547 153.35 112.496 152.211C112.475 151.608 112.524 151.004 112.641 150.412C114.443 151.215 116.454 151.42 118.38 150.995Z" fill="#263238"/>
<path d="M116.239 153.907C115.706 154.307 115.063 154.534 114.397 154.558C112.933 154.558 112.547 153.35 112.496 152.211C113.995 151.945 115.708 152.528 116.239 153.907Z" fill="#FF99BA"/>
<path d="M85.5414 148.793C90.4578 149.11 91.0231 137.864 91.0231 137.864C91.0231 137.864 111.579 133.076 112.316 116.049C112.316 116.049 116.539 126.618 127.733 130.832C127.733 130.832 125.875 112.332 110.954 109.625C110.954 109.625 92.2993 104.092 82.9205 119.201C73.5416 134.31 82.2438 148.579 85.5414 148.793Z" fill="#263238"/>
<path d="M112.316 114.79C112.722 117.388 112.567 120.042 111.862 122.576C111.197 125.15 110 127.557 108.35 129.642C107.946 130.166 107.508 130.664 107.04 131.132L106.355 131.86C106.115 132.083 105.858 132.288 105.601 132.503C105.087 132.914 104.59 133.359 104.059 133.744C103.528 134.13 102.946 134.447 102.346 134.789C102.063 134.952 101.789 135.132 101.49 135.286L100.633 135.697L98.843 136.511C97.6096 136.939 96.3591 137.299 95.1172 137.642C96.2735 137.051 97.4726 136.58 98.6117 135.989L100.282 135.046L101.138 134.575C101.404 134.404 101.652 134.207 101.909 134.019C102.423 133.642 102.937 133.273 103.46 132.914C103.982 132.554 104.402 132.057 104.873 131.672L105.584 131.046L106.218 130.344C106.653 129.895 107.062 129.42 107.442 128.922C108.999 126.936 110.207 124.701 111.014 122.31C111.427 121.11 111.742 119.878 111.956 118.627C112.184 117.36 112.304 116.077 112.316 114.79Z" fill="#263238"/>
<path d="M89.2073 148.528C89.2073 148.528 81.9955 141.513 78.715 144.245C75.4346 146.978 81.9355 157.89 86.5521 158.66C87.1371 158.801 87.7445 158.822 88.3378 158.722C88.9311 158.622 89.4981 158.403 90.0045 158.078C90.511 157.753 90.9465 157.329 91.285 156.832C91.6234 156.334 91.8577 155.773 91.9738 155.183L89.2073 148.528Z" fill="#EB9481"/>
<path d="M80.6593 147.32C80.6434 147.32 80.6282 147.326 80.6169 147.338C80.6057 147.349 80.5994 147.364 80.5994 147.38C80.5994 147.396 80.6057 147.411 80.6169 147.423C80.6282 147.434 80.6434 147.44 80.6593 147.44C83.9226 148.082 86.0468 150.583 87.7256 153.273C86.6121 152.331 85.2674 151.954 83.974 153.273C83.9055 153.35 83.974 153.453 84.0854 153.419C84.5856 153.149 85.1568 153.041 85.721 153.108C86.2852 153.175 86.8148 153.416 87.2373 153.795C87.9405 154.433 88.5723 155.145 89.1217 155.92C89.3101 156.168 89.7726 155.92 89.6099 155.637L89.5671 155.568C88.899 151.765 84.8648 146.918 80.6593 147.32Z" fill="#263238"/>
<path d="M84.2739 144.956C84.2739 144.956 79.5973 132.494 81.2161 124.357C83.0148 115.295 94.2437 104.957 107.083 108.829C107.083 108.829 91.8112 111.115 86.4152 123.389C83.9313 129.042 88.625 144.005 88.625 144.005L84.2739 144.956Z" fill="#C7C7C7"/>
<path d="M91.4865 162.717C97.1545 160.952 100.118 154.282 98.1046 147.819C96.0916 141.356 89.8649 137.548 84.1968 139.313C78.5287 141.078 75.5657 147.749 77.5787 154.212C79.5917 160.675 85.8184 164.483 91.4865 162.717Z" fill="#C7C7C7"/>
<path d="M95.0145 148.339C96.8217 154.147 94.158 160.142 89.0189 161.727C83.8798 163.311 78.3296 159.894 76.5138 154.087C74.698 148.279 77.3703 142.284 82.5094 140.691C87.6485 139.098 93.2072 142.567 95.0145 148.339Z" fill="#455A64"/>
<path d="M104.487 177.743L99.7764 189.632L84.9588 174.686L80.8047 179.516C80.8047 179.516 95.3654 203.31 95.4168 202.231L100.265 191.953L107.357 199.036L106.714 181.204L104.487 177.743Z" fill="#EBEBEB"/>
<path d="M107.571 190.214C107.357 187.277 107.237 184.296 106.894 181.367C106.894 181.264 106.714 181.221 106.689 181.367C106.115 184.21 106.963 195.473 106.963 198.171C106.672 197.863 100.393 191.936 100.333 192.03C99.2798 193.658 95.7253 201.126 95.4855 201.803C93.1814 198.026 83.4343 183.131 80.7192 179.534C80.703 179.517 80.6818 179.507 80.6589 179.504C80.6361 179.501 80.6129 179.506 80.5931 179.518C80.5734 179.53 80.5581 179.548 80.5499 179.569C80.5417 179.591 80.541 179.614 80.5479 179.636C82.5778 183.628 95.1686 203.285 95.3484 203.233C97.2215 199.71 98.9139 196.094 100.419 192.398C101.481 193.692 107.819 200.381 107.836 199.944C107.916 196.699 107.827 193.451 107.571 190.214Z" fill="#263238"/>
<path d="M190.207 98.5332C189.693 103.46 187.82 108.147 184.797 112.072C181.774 115.996 177.72 119.004 173.087 120.758C168.454 122.513 163.425 122.945 158.561 122.008C153.697 121.07 149.189 118.8 145.54 115.449L132.161 117.411L138.859 105.848C137.343 102.087 136.703 98.0301 136.986 93.9849C137.27 89.9398 138.47 86.0121 140.496 82.4994C142.522 78.9866 145.32 75.9808 148.68 73.7095C152.039 71.4382 155.871 69.9609 159.886 69.3895C163.9 68.8181 167.992 69.1675 171.852 70.4113C175.712 71.6551 179.238 73.7607 182.163 76.5687C185.089 79.3767 187.337 82.8135 188.738 86.6189C190.139 90.4243 190.656 94.4985 190.25 98.5332H190.207Z" fill="white"/>
<path d="M190.207 98.5332C189.689 103.463 187.822 108.154 184.811 112.092C183.332 114.059 181.565 115.791 179.569 117.231C177.599 118.724 175.428 119.932 173.12 120.82C170.81 121.723 168.386 122.3 165.917 122.533C164.684 122.645 163.444 122.668 162.208 122.601C160.966 122.572 159.729 122.443 158.508 122.216C153.574 121.328 148.986 119.083 145.257 115.732L145.574 115.826L132.213 117.882L131.245 118.027L131.733 117.171L138.405 105.582V106.045C136.836 102.212 136.17 98.0698 136.456 93.9382C136.743 89.8066 137.975 85.7962 140.058 82.2167C142.138 78.6505 144.999 75.6021 148.427 73.3004C151.851 71.0327 155.744 69.5696 159.814 69.0208C163.885 68.4719 168.027 68.8516 171.929 70.1313C175.784 71.4485 179.296 73.6112 182.207 76.4609C185.123 79.2958 187.357 82.755 188.743 86.5781C190.129 90.4012 190.629 94.4887 190.207 98.5332ZM190.207 98.5332C190.635 94.5068 190.132 90.4359 188.737 86.6345C187.343 82.833 185.095 79.4025 182.165 76.6071C179.236 73.8118 175.704 71.7264 171.841 70.5116C167.979 69.2967 163.889 68.985 159.887 69.6002C155.922 70.1958 152.145 71.69 148.846 73.9684C145.579 76.2604 142.849 79.2356 140.846 82.6878C138.876 86.1524 137.716 90.0188 137.455 93.9961C137.194 97.9735 137.838 101.958 139.339 105.651L139.433 105.891L139.305 106.105L132.572 117.651L132.093 116.94L145.48 115.064H145.669L145.797 115.192C149.384 118.541 153.833 120.824 158.645 121.788C159.839 122.027 161.051 122.173 162.268 122.224C163.485 122.31 164.707 122.31 165.925 122.224C168.367 122.034 170.771 121.506 173.068 120.657C175.379 119.825 177.553 118.653 179.518 117.18C181.527 115.749 183.301 114.016 184.777 112.04C187.797 108.124 189.676 103.45 190.207 98.5332Z" fill="#263238"/>
<path d="M175.287 99.8009C177.075 99.8009 178.524 98.3513 178.524 96.5632C178.524 94.7752 177.075 93.3256 175.287 93.3256C173.499 93.3256 172.049 94.7752 172.049 96.5632C172.049 98.3513 173.499 99.8009 175.287 99.8009Z" fill="#263238"/>
<path d="M163.681 99.8009C165.469 99.8009 166.919 98.3513 166.919 96.5632C166.919 94.7752 165.469 93.3256 163.681 93.3256C161.893 93.3256 160.443 94.7752 160.443 96.5632C160.443 98.3513 161.893 99.8009 163.681 99.8009Z" fill="#263238"/>
<path d="M152.084 99.8009C153.872 99.8009 155.321 98.3513 155.321 96.5632C155.321 94.7752 153.872 93.3256 152.084 93.3256C150.296 93.3256 148.846 94.7752 148.846 96.5632C148.846 98.3513 150.296 99.8009 152.084 99.8009Z" fill="#263238"/>
<path d="M456.171 98.5332C455.657 103.46 453.784 108.147 450.761 112.072C447.738 115.996 443.684 119.004 439.052 120.758C434.419 122.512 429.39 122.945 424.526 122.008C419.661 121.07 415.153 118.8 411.504 115.449L398.126 117.411L404.815 105.848C403.293 102.085 402.647 98.0246 402.927 93.9749C403.207 89.9253 404.405 85.9925 406.431 82.4748C408.457 78.957 411.257 75.9467 414.619 73.6719C417.981 71.3971 421.817 69.9177 425.835 69.3457C429.854 68.7736 433.951 69.1241 437.814 70.3705C441.677 71.6168 445.206 73.7264 448.133 76.5392C451.059 79.352 453.307 82.7943 454.706 86.605C456.105 90.4157 456.618 94.4949 456.206 98.5332H456.171Z" fill="white"/>
<path d="M456.171 98.5332C455.65 103.462 453.783 108.152 450.775 112.092C450.023 113.067 449.214 113.996 448.351 114.875C447.459 115.73 446.515 116.528 445.525 117.265C443.557 118.762 441.385 119.971 439.075 120.854C436.769 121.758 434.347 122.334 431.881 122.567C430.645 122.68 429.403 122.703 428.163 122.636C426.922 122.606 425.684 122.477 424.463 122.25C419.535 121.345 414.955 119.085 411.239 115.723L411.556 115.818L398.194 117.873L397.226 118.019L397.714 117.162L404.37 105.574V106.036C402.801 102.204 402.134 98.0621 402.419 93.9308C402.704 89.7996 403.934 85.789 406.014 82.2081C408.097 78.6416 410.961 75.5932 414.391 73.2918C417.815 71.0241 421.708 69.561 425.779 69.0122C429.849 68.4633 433.991 68.843 437.893 70.1227C441.749 71.4389 445.261 73.6017 448.172 76.4523C451.09 79.2871 453.326 82.7475 454.712 86.5725C456.098 90.3975 456.597 94.4872 456.171 98.5332ZM456.171 98.5332C456.599 94.5068 456.096 90.4359 454.702 86.6345C453.307 82.833 451.059 79.4025 448.129 76.6071C445.2 73.8118 441.668 71.7264 437.805 70.5116C433.943 69.2967 429.853 68.985 425.851 69.6002C421.886 70.1958 418.11 71.69 414.81 73.9684C411.543 76.2604 408.813 79.2356 406.811 82.6878C404.826 86.1509 403.654 90.0199 403.385 94.0023C403.133 97.9764 403.774 101.957 405.26 105.651L405.363 105.891L405.235 106.105L398.502 117.651L398.023 116.94L411.41 115.064H411.599L411.727 115.192C415.302 118.534 419.735 120.817 424.532 121.788C425.726 122.027 426.938 122.173 428.155 122.224C429.372 122.31 430.595 122.31 431.812 122.224C434.254 122.034 436.658 121.506 438.956 120.657C441.265 119.823 443.439 118.651 445.405 117.18C447.409 115.746 449.18 114.013 450.655 112.04C453.709 108.136 455.619 103.46 456.171 98.5332Z" fill="#263238"/>
<path d="M441.208 99.8009C442.996 99.8009 444.446 98.3513 444.446 96.5632C444.446 94.7752 442.996 93.3256 441.208 93.3256C439.42 93.3256 437.971 94.7752 437.971 96.5632C437.971 98.3513 439.42 99.8009 441.208 99.8009Z" fill="#263238"/>
<path d="M429.611 99.8009C431.399 99.8009 432.849 98.3513 432.849 96.5632C432.849 94.7752 431.399 93.3256 429.611 93.3256C427.823 93.3256 426.373 94.7752 426.373 96.5632C426.373 98.3513 427.823 99.8009 429.611 99.8009Z" fill="#263238"/>
<path d="M421.251 96.5633C421.253 97.204 421.065 97.8308 420.71 98.3643C420.355 98.8979 419.85 99.3142 419.259 99.5605C418.667 99.8069 418.016 99.8722 417.387 99.7483C416.759 99.6243 416.181 99.3166 415.728 98.8642C415.274 98.4117 414.965 97.8349 414.839 97.2066C414.713 96.5783 414.777 95.9269 415.022 95.3348C415.267 94.7427 415.682 94.2366 416.214 93.8804C416.747 93.5243 417.373 93.3342 418.014 93.3342C418.871 93.3342 419.693 93.6741 420.3 94.2795C420.907 94.8848 421.249 95.7061 421.251 96.5633Z" fill="#263238"/>
<path d="M145.942 288.097H140.212V291.84H145.942V288.097Z" fill="#455A64"/>
<path d="M153.377 287.848H147.647V291.591H153.377V287.848Z" fill="#455A64"/>
<path d="M160.811 287.6H155.081V291.343H160.811V287.6Z" fill="#455A64"/>
<path d="M168.238 287.351H162.508V291.094H168.238V287.351Z" fill="#455A64"/>
<path d="M175.672 287.103H169.942V290.846H175.672V287.103Z" fill="#455A64"/>
<path d="M183.107 286.863H177.376V290.606H183.107V286.863Z" fill="#455A64"/>
<path d="M190.533 286.615H184.802V290.358H190.533V286.615Z" fill="#455A64"/>
<path d="M197.967 286.366H192.237V290.109H197.967V286.366Z" fill="#455A64"/>
<path d="M205.393 286.118H199.663V289.861H205.393V286.118Z" fill="#455A64"/>
<path d="M206.798 293.989H138.808V289.433L206.798 287.54V293.989Z" fill="#37474F"/>
<path d="M273.16 276.037H160.923L178.773 192.476H291.01L273.16 276.037Z" fill="#455A64"/>
<path d="M277.314 276.037H165.068L182.918 192.476H295.164L277.314 276.037Z" fill="#37474F"/>
<path d="M239.816 229.417C239.472 231.319 238.486 233.046 237.022 234.308C235.558 235.571 233.706 236.293 231.774 236.355C230.902 236.382 230.035 236.211 229.239 235.855C228.442 235.499 227.737 234.967 227.176 234.3C226.614 233.632 226.212 232.846 225.998 232C225.784 231.154 225.764 230.271 225.941 229.417C226.281 227.514 227.265 225.785 228.728 224.521C230.19 223.256 232.043 222.533 233.975 222.471C234.848 222.442 235.717 222.612 236.515 222.968C237.313 223.324 238.02 223.856 238.583 224.525C239.145 225.194 239.549 225.982 239.762 226.829C239.976 227.676 239.994 228.561 239.816 229.417Z" fill="#263238"/>
<path d="M245.572 297.861H190.37V293.57L245.572 291.788V297.861Z" fill="#455A64"/>
<path d="M260.578 297.852H230.934L213.085 251.027H242.729L260.578 297.852Z" fill="#455A64"/>
<path d="M265.452 297.852H235.816L217.967 251.027H247.602L265.452 297.852Z" fill="#263238"/>
<path d="M136.692 299H79.8026C74.9462 299 81.9696 285.167 99.6994 279.866C117.429 274.564 142.302 293.81 136.692 299Z" fill="#37474F"/>
<path d="M114.423 299C114.461 297.424 114.721 295.861 115.194 294.358C115.65 292.838 116.292 291.379 117.104 290.015C117.918 288.643 118.937 287.404 120.127 286.341C121.307 285.286 122.664 284.448 124.136 283.865C123.528 284.362 122.834 284.722 122.277 285.262L121.421 286.007L120.615 286.863C119.563 287.965 118.641 289.183 117.866 290.495C117.078 291.806 116.402 293.181 115.845 294.606C115.273 296.037 114.798 297.505 114.423 299Z" fill="#263238"/>
<path d="M121.121 285.835C124.506 286.907 127.709 288.487 130.62 290.521C132.093 291.538 133.426 292.745 134.585 294.109C135.801 295.467 136.541 297.184 136.692 299C136.221 297.325 135.317 295.804 134.071 294.589C132.858 293.353 131.53 292.235 130.106 291.249C128.692 290.229 127.211 289.313 125.703 288.414C124.196 287.514 122.68 286.666 121.121 285.835Z" fill="#263238"/>
<path d="M408.772 288.097H403.042V291.84H408.772V288.097Z" fill="#455A64"/>
<path d="M416.207 287.848H410.476V291.591H416.207V287.848Z" fill="#455A64"/>
<path d="M423.641 287.6H417.911V291.343H423.641V287.6Z" fill="#455A64"/>
<path d="M431.067 287.351H425.337V291.094H431.067V287.351Z" fill="#455A64"/>
<path d="M438.502 287.103H432.771V290.846H438.502V287.103Z" fill="#455A64"/>
<path d="M445.936 286.863H440.206V290.606H445.936V286.863Z" fill="#455A64"/>
<path d="M453.362 286.615H447.632V290.358H453.362V286.615Z" fill="#455A64"/>
<path d="M460.797 286.366H455.067V290.109H460.797V286.366Z" fill="#455A64"/>
<path d="M468.231 286.118H462.501V289.861H468.231V286.118Z" fill="#455A64"/>
<path d="M469.636 293.989H401.646V289.433L469.636 287.54V293.989Z" fill="#37474F"/>
<path d="M535.99 276.037H423.752L441.602 192.476H553.84L535.99 276.037Z" fill="#455A64"/>
<path d="M540.144 276.037H427.907L445.756 192.476H557.994L540.144 276.037Z" fill="#37474F"/>
<path d="M502.646 229.417C502.302 231.318 501.317 233.043 499.855 234.306C498.393 235.568 496.542 236.291 494.612 236.355C493.739 236.383 492.871 236.213 492.074 235.858C491.277 235.503 490.57 234.971 490.008 234.303C489.445 233.635 489.042 232.849 488.828 232.002C488.613 231.156 488.594 230.272 488.77 229.417C489.112 227.515 490.097 225.787 491.559 224.523C493.021 223.259 494.872 222.534 496.804 222.471C497.678 222.442 498.546 222.612 499.345 222.968C500.143 223.324 500.85 223.856 501.412 224.525C501.975 225.194 502.378 225.982 502.592 226.829C502.805 227.676 502.824 228.561 502.646 229.417Z" fill="#263238"/>
<path d="M508.402 297.861H453.199V293.57L508.402 291.788V297.861Z" fill="#455A64"/>
<path d="M523.408 297.852H493.764L475.914 251.027H505.558L523.408 297.852Z" fill="#455A64"/>
<path d="M528.29 297.852H498.646L480.796 251.027H510.44L528.29 297.852Z" fill="#263238"/>
<path d="M399.547 299H342.632C337.776 299 344.799 285.167 362.529 279.866C380.259 274.564 405.132 293.81 399.547 299Z" fill="#37474F"/>
<path d="M377.209 299C377.252 297.424 377.511 295.862 377.98 294.358C378.441 292.839 379.082 291.381 379.89 290.015C380.71 288.647 381.729 287.408 382.914 286.341C384.094 285.286 385.451 284.448 386.922 283.865C386.314 284.362 385.62 284.722 385.064 285.262L384.207 286.007L383.402 286.863C382.345 287.962 381.419 289.181 380.644 290.495C379.856 291.806 379.18 293.181 378.623 294.606C378.054 296.038 377.582 297.506 377.209 299Z" fill="#263238"/>
<path d="M383.95 285.835C387.336 286.907 390.538 288.487 393.449 290.521C394.923 291.541 396.259 292.747 397.423 294.109C398.636 295.457 399.381 297.16 399.547 298.966C399.073 297.29 398.166 295.769 396.918 294.555C395.704 293.319 394.376 292.2 392.952 291.214C391.547 290.195 390.057 289.279 388.55 288.379C387.042 287.48 385.518 286.666 383.95 285.835Z" fill="#263238"/>
</svg>
