<svg width="99" height="85" viewBox="0 0 99 85" fill="none" xmlns="http://www.w3.org/2000/svg">
<path d="M70.2356 12.7879H83.6488C83.7568 12.7888 83.8625 12.7574 83.9526 12.6979C84.0427 12.6384 84.1131 12.5533 84.1547 12.4537C84.1962 12.354 84.2072 12.2442 84.1861 12.1383C84.1651 12.0324 84.1129 11.9352 84.0364 11.859C83.806 11.6619 83.526 11.5317 83.2267 11.4828C83.1224 11.4591 83.0276 11.4046 82.9545 11.3266C82.8813 11.2485 82.8332 11.1504 82.8162 11.0448C82.6602 10.1273 82.0432 7.80844 79.7312 7.76027C79.0252 7.72529 78.3243 7.89611 77.7135 8.25198C77.1027 8.60785 76.6085 9.13345 76.2908 9.76491C76.2301 9.8827 76.1289 9.97455 76.0058 10.0235C75.8826 10.0724 75.746 10.075 75.621 10.031C75.1875 9.87501 74.5201 9.8406 73.9765 10.7191C73.914 10.823 73.819 10.9033 73.7062 10.9477C73.5934 10.9921 73.4691 10.998 73.3526 10.9645C73.0187 10.8432 72.6549 10.8314 72.3138 10.9307C71.9728 11.0301 71.6722 11.2356 71.4558 11.5173C71.4011 11.5909 71.328 11.6489 71.2439 11.6855C71.1598 11.7221 71.0676 11.7361 70.9764 11.726C70.721 11.6927 70.4632 11.6812 70.2058 11.6916C69.497 11.7283 69.5337 12.7879 70.2356 12.7879Z" stroke="#263238" stroke-linecap="round" stroke-linejoin="round"/>
<path d="M26.8676 39.8208H36.0215C36.095 39.8212 36.167 39.7998 36.2283 39.7592C36.2897 39.7187 36.3376 39.6609 36.3661 39.5932C36.3946 39.5254 36.4023 39.4507 36.3884 39.3785C36.3744 39.3063 36.3393 39.2399 36.2876 39.1877C36.1299 39.0538 35.9389 38.965 35.7348 38.9308C35.6634 38.9146 35.5985 38.8773 35.5486 38.8237C35.4987 38.7701 35.4661 38.7027 35.455 38.6304C35.3495 37.9973 34.9274 36.4216 33.3494 36.3895C32.8658 36.3647 32.3854 36.4818 31.9674 36.7263C31.5493 36.9708 31.2117 37.332 30.9961 37.7657C30.954 37.8457 30.8845 37.908 30.8004 37.9412C30.7162 37.9745 30.6229 37.9765 30.5374 37.9469C30.2415 37.8391 29.7874 37.8161 29.4158 38.4193C29.3731 38.4903 29.3081 38.5453 29.231 38.5755C29.1538 38.6058 29.0688 38.6098 28.9892 38.5868C28.7615 38.505 28.5137 38.4973 28.2814 38.5649C28.049 38.6324 27.844 38.7718 27.6956 38.9629C27.658 39.0132 27.608 39.0529 27.5506 39.0783C27.4931 39.1036 27.4301 39.1136 27.3676 39.1074C27.1936 39.0833 27.0178 39.0757 26.8424 39.0845C26.7535 39.0994 26.6731 39.1461 26.6161 39.2158C26.5591 39.2856 26.5294 39.3736 26.5324 39.4637C26.5355 39.5537 26.5712 39.6396 26.6329 39.7052C26.6945 39.7709 26.7779 39.812 26.8676 39.8208V39.8208Z" stroke="#263238" stroke-linecap="round" stroke-linejoin="round"/>
<path d="M11.7502 11.5356H32.4434C33.1911 11.5356 33.5902 10.6181 33.0443 10.1043C32.6877 9.80296 32.2568 9.60259 31.7966 9.52404C31.6354 9.48807 31.4887 9.40458 31.3754 9.28438C31.2622 9.16417 31.1876 9.01276 31.1612 8.84971C30.9319 7.41389 29.9685 3.85646 26.4019 3.78306C23.2092 3.71884 21.6908 5.72348 21.0853 6.87488C20.9916 7.0568 20.8352 7.19862 20.645 7.2741C20.4549 7.34958 20.2438 7.35361 20.0509 7.28545C19.3834 7.05608 18.3536 6.99415 17.5141 8.35428C17.4175 8.51389 17.271 8.63723 17.0973 8.70523C16.9236 8.77323 16.7323 8.78209 16.5531 8.73044C15.8053 8.50107 14.5484 8.39327 13.6264 9.58367C13.542 9.69776 13.4292 9.78768 13.2992 9.84444C13.1692 9.9012 13.0265 9.9228 12.8855 9.90707C12.4925 9.85611 12.0958 9.83847 11.6997 9.85432C10.608 9.90478 10.6653 11.5356 11.7502 11.5356Z" stroke="#263238" stroke-linecap="round" stroke-linejoin="round"/>
<path d="M90.4052 74.2436H78.3452C78.0092 74.2436 77.687 74.1103 77.4492 73.8729C77.2114 73.6355 77.0775 73.3135 77.0769 72.9775V39.284C77.0757 39.1118 77.0396 38.9417 76.9705 38.7839C76.9015 38.6262 76.8011 38.4842 76.6755 38.3665L69.6936 31.8388C69.4594 31.619 69.1502 31.4967 68.8289 31.4971H29.2729C28.9454 31.4968 28.6305 31.6234 28.3944 31.8503L21.6832 38.3092C21.5598 38.4279 21.4619 38.5704 21.3952 38.7281C21.3286 38.8858 21.2947 39.0554 21.2956 39.2266V72.9775C21.295 73.3135 21.1611 73.6355 20.9233 73.8729C20.6855 74.1103 20.3632 74.2436 20.0272 74.2436H7.96727C7.63148 74.2436 7.30945 74.1102 7.07201 73.8728C6.83457 73.6353 6.70118 73.3133 6.70118 72.9775V33.0017C6.70054 32.8305 6.73456 32.661 6.80117 32.5033C6.86779 32.3457 6.96563 32.2031 7.08881 32.0842L22.5158 17.2444C22.7509 17.017 23.0649 16.8896 23.392 16.8889H74.5883C74.9093 16.8897 75.2181 17.0118 75.453 17.2306L91.2791 32.0223C91.4052 32.1396 91.5058 32.2816 91.5749 32.4394C91.6439 32.5972 91.6799 32.7675 91.6805 32.9398V72.9775C91.6805 73.1445 91.6474 73.3099 91.5832 73.4641C91.519 73.6183 91.4249 73.7583 91.3064 73.876C91.1878 73.9937 91.0472 74.0868 90.8925 74.1499C90.7378 74.2129 90.5722 74.2448 90.4052 74.2436Z" fill="#92E3A9" stroke="#263238" stroke-linecap="round" stroke-linejoin="round"/>
<path d="M10.3504 42.0707H6.70117V45.7199H10.3504V42.0707Z" fill="white" stroke="#263238" stroke-linecap="round" stroke-linejoin="round"/>
<path d="M17.6462 42.0707H13.9971V45.7199H17.6462V42.0707Z" fill="white" stroke="#263238" stroke-linecap="round" stroke-linejoin="round"/>
<path d="M13.9998 45.7199H10.3506V49.3691H13.9998V45.7199Z" fill="white" stroke="#263238" stroke-linecap="round" stroke-linejoin="round"/>
<path d="M21.2957 45.7199H17.6465V49.3691H21.2957V45.7199Z" fill="white" stroke="#263238" stroke-linecap="round" stroke-linejoin="round"/>
<path d="M10.3504 49.3668H6.70117V53.016H10.3504V49.3668Z" fill="white" stroke="#263238" stroke-linecap="round" stroke-linejoin="round"/>
<path d="M17.6462 49.3668H13.9971V53.016H17.6462V49.3668Z" fill="white" stroke="#263238" stroke-linecap="round" stroke-linejoin="round"/>
<path d="M13.9998 53.016H10.3506V56.6652H13.9998V53.016Z" fill="white" stroke="#263238" stroke-linecap="round" stroke-linejoin="round"/>
<path d="M21.2957 53.016H17.6465V56.6652H21.2957V53.016Z" fill="white" stroke="#263238" stroke-linecap="round" stroke-linejoin="round"/>
<path d="M10.3504 56.6652H6.70117V60.3143H10.3504V56.6652Z" fill="white" stroke="#263238" stroke-linecap="round" stroke-linejoin="round"/>
<path d="M17.6462 56.6652H13.9971V60.3143H17.6462V56.6652Z" fill="white" stroke="#263238" stroke-linecap="round" stroke-linejoin="round"/>
<path d="M13.9998 60.312H10.3506V63.9612H13.9998V60.312Z" fill="white" stroke="#263238" stroke-linecap="round" stroke-linejoin="round"/>
<path d="M21.2957 60.312H17.6465V63.9612H21.2957V60.312Z" fill="white" stroke="#263238" stroke-linecap="round" stroke-linejoin="round"/>
<path d="M10.3504 63.9612H6.70117V67.6104H10.3504V63.9612Z" fill="white" stroke="#263238" stroke-linecap="round" stroke-linejoin="round"/>
<path d="M17.6462 63.9612H13.9971V67.6104H17.6462V63.9612Z" fill="white" stroke="#263238" stroke-linecap="round" stroke-linejoin="round"/>
<path d="M13.9998 42.0707H10.3506V45.7199H13.9998V42.0707Z" fill="#263238" stroke="#263238" stroke-linecap="round" stroke-linejoin="round"/>
<path d="M21.2957 42.0707H17.6465V45.7199H21.2957V42.0707Z" fill="#263238" stroke="#263238" stroke-linecap="round" stroke-linejoin="round"/>
<path d="M10.3504 45.7199H6.70117V49.3691H10.3504V45.7199Z" fill="#263238" stroke="#263238" stroke-linecap="round" stroke-linejoin="round"/>
<path d="M17.6462 45.7199H13.9971V49.3691H17.6462V45.7199Z" fill="#263238" stroke="#263238" stroke-linecap="round" stroke-linejoin="round"/>
<path d="M13.9998 49.3668H10.3506V53.016H13.9998V49.3668Z" fill="#263238" stroke="#263238" stroke-linecap="round" stroke-linejoin="round"/>
<path d="M21.2957 49.3668H17.6465V53.016H21.2957V49.3668Z" fill="#263238" stroke="#263238" stroke-linecap="round" stroke-linejoin="round"/>
<path d="M10.3504 53.016H6.70117V56.6652H10.3504V53.016Z" fill="#263238" stroke="#263238" stroke-linecap="round" stroke-linejoin="round"/>
<path d="M17.6462 53.016H13.9971V56.6652H17.6462V53.016Z" fill="#263238" stroke="#263238" stroke-linecap="round" stroke-linejoin="round"/>
<path d="M13.9998 56.6652H10.3506V60.3143H13.9998V56.6652Z" fill="#263238" stroke="#263238" stroke-linecap="round" stroke-linejoin="round"/>
<path d="M21.2957 56.6652H17.6465V60.3143H21.2957V56.6652Z" fill="#263238" stroke="#263238" stroke-linecap="round" stroke-linejoin="round"/>
<path d="M10.3504 60.312H6.70117V63.9612H10.3504V60.312Z" fill="#263238" stroke="#263238" stroke-linecap="round" stroke-linejoin="round"/>
<path d="M17.6462 60.312H13.9971V63.9612H17.6462V60.312Z" fill="#263238" stroke="#263238" stroke-linecap="round" stroke-linejoin="round"/>
<path d="M13.9998 63.9612H10.3506V67.6104H13.9998V63.9612Z" fill="#263238" stroke="#263238" stroke-linecap="round" stroke-linejoin="round"/>
<path d="M21.2957 63.9612H17.6465V67.6104H21.2957V63.9612Z" fill="#263238" stroke="#263238" stroke-linecap="round" stroke-linejoin="round"/>
<path d="M80.7263 42.0707H77.0771V45.7199H80.7263V42.0707Z" fill="white" stroke="#263238" stroke-linecap="round" stroke-linejoin="round"/>
<path d="M88.0242 42.0707H84.375V45.7199H88.0242V42.0707Z" fill="white" stroke="#263238" stroke-linecap="round" stroke-linejoin="round"/>
<path d="M84.3757 45.7199H80.7266V49.3691H84.3757V45.7199Z" fill="white" stroke="#263238" stroke-linecap="round" stroke-linejoin="round"/>
<path d="M91.6716 45.7199H88.0225V49.3691H91.6716V45.7199Z" fill="white" stroke="#263238" stroke-linecap="round" stroke-linejoin="round"/>
<path d="M80.7263 49.3668H77.0771V53.016H80.7263V49.3668Z" fill="white" stroke="#263238" stroke-linecap="round" stroke-linejoin="round"/>
<path d="M88.0242 49.3668H84.375V53.016H88.0242V49.3668Z" fill="white" stroke="#263238" stroke-linecap="round" stroke-linejoin="round"/>
<path d="M84.3757 53.016H80.7266V56.6652H84.3757V53.016Z" fill="white" stroke="#263238" stroke-linecap="round" stroke-linejoin="round"/>
<path d="M91.6716 53.016H88.0225V56.6652H91.6716V53.016Z" fill="white" stroke="#263238" stroke-linecap="round" stroke-linejoin="round"/>
<path d="M80.7263 56.6652H77.0771V60.3143H80.7263V56.6652Z" fill="white" stroke="#263238" stroke-linecap="round" stroke-linejoin="round"/>
<path d="M88.0242 56.6652H84.375V60.3143H88.0242V56.6652Z" fill="white" stroke="#263238" stroke-linecap="round" stroke-linejoin="round"/>
<path d="M84.3757 60.312H80.7266V63.9612H84.3757V60.312Z" fill="white" stroke="#263238" stroke-linecap="round" stroke-linejoin="round"/>
<path d="M91.6716 60.312H88.0225V63.9612H91.6716V60.312Z" fill="white" stroke="#263238" stroke-linecap="round" stroke-linejoin="round"/>
<path d="M80.7263 63.9612H77.0771V67.6104H80.7263V63.9612Z" fill="white" stroke="#263238" stroke-linecap="round" stroke-linejoin="round"/>
<path d="M88.0242 63.9612H84.375V67.6104H88.0242V63.9612Z" fill="white" stroke="#263238" stroke-linecap="round" stroke-linejoin="round"/>
<path d="M84.3757 42.0707H80.7266V45.7199H84.3757V42.0707Z" fill="#263238" stroke="#263238" stroke-linecap="round" stroke-linejoin="round"/>
<path d="M91.6716 42.0707H88.0225V45.7199H91.6716V42.0707Z" fill="#263238" stroke="#263238" stroke-linecap="round" stroke-linejoin="round"/>
<path d="M80.7263 45.7199H77.0771V49.3691H80.7263V45.7199Z" fill="#263238" stroke="#263238" stroke-linecap="round" stroke-linejoin="round"/>
<path d="M88.0242 45.7199H84.375V49.3691H88.0242V45.7199Z" fill="#263238" stroke="#263238" stroke-linecap="round" stroke-linejoin="round"/>
<path d="M84.3757 49.3668H80.7266V53.016H84.3757V49.3668Z" fill="#263238" stroke="#263238" stroke-linecap="round" stroke-linejoin="round"/>
<path d="M91.6716 49.3668H88.0225V53.016H91.6716V49.3668Z" fill="#263238" stroke="#263238" stroke-linecap="round" stroke-linejoin="round"/>
<path d="M80.7263 53.016H77.0771V56.6652H80.7263V53.016Z" fill="#263238" stroke="#263238" stroke-linecap="round" stroke-linejoin="round"/>
<path d="M88.0242 53.016H84.375V56.6652H88.0242V53.016Z" fill="#263238" stroke="#263238" stroke-linecap="round" stroke-linejoin="round"/>
<path d="M84.3757 56.6652H80.7266V60.3143H84.3757V56.6652Z" fill="#263238" stroke="#263238" stroke-linecap="round" stroke-linejoin="round"/>
<path d="M91.6716 56.6652H88.0225V60.3143H91.6716V56.6652Z" fill="#263238" stroke="#263238" stroke-linecap="round" stroke-linejoin="round"/>
<path d="M80.7263 60.312H77.0771V63.9612H80.7263V60.312Z" fill="#263238" stroke="#263238" stroke-linecap="round" stroke-linejoin="round"/>
<path d="M88.0242 60.312H84.375V63.9612H88.0242V60.312Z" fill="#263238" stroke="#263238" stroke-linecap="round" stroke-linejoin="round"/>
<path d="M84.3757 63.9612H80.7266V67.6104H84.3757V63.9612Z" fill="#263238" stroke="#263238" stroke-linecap="round" stroke-linejoin="round"/>
<path d="M91.6716 63.9612H88.0225V67.6104H91.6716V63.9612Z" fill="#263238" stroke="#263238" stroke-linecap="round" stroke-linejoin="round"/>
<path d="M45.1935 23.4166L43.9756 23.6758V22.8501C44.9596 22.6413 45.3105 22.3546 45.5811 21.5771L46.3656 21.412V28.8273L45.2004 29.075L45.1935 23.4166Z" fill="white"/>
<path d="M47.7158 26.7791V22.8799C47.7158 21.6918 48.342 20.8821 49.4842 20.639C50.6264 20.3959 51.2549 20.9395 51.2549 22.1276V26.0267C51.2549 27.2149 50.6287 28.0245 49.4842 28.2676C48.3397 28.5108 47.7158 27.9672 47.7158 26.7791ZM50.0897 26.3502V22.3019C50.0897 21.7721 49.8604 21.6138 49.4842 21.6987C49.1081 21.7835 48.881 22.0289 48.881 22.5588V26.607C48.881 27.1369 49.1104 27.2951 49.4842 27.2103C49.8581 27.1254 50.0897 26.88 50.0897 26.3502Z" fill="white"/>
<path d="M52.042 20.2032L53.2072 19.9555V23.0817L54.6911 19.6412L55.8563 19.3935L54.4618 22.4097L55.8724 26.8043L54.6544 27.0634L53.6682 23.967L53.2095 25.0083V27.3708L52.042 27.6185V20.2032Z" fill="white"/>
<path d="M87.8356 74.2459H13.1777C5.34724 76.8859 0.1705 80.2621 15.9301 82.2071C44.5249 85.7278 81.0694 85.7278 87.4916 78.8469C89.3769 76.8239 89.1269 75.3377 87.8356 74.2459Z" fill="#999999"/>
<path d="M64.5293 75.5189L96.615 84.5008" stroke="#263238" stroke-linecap="round" stroke-linejoin="round"/>
<path d="M59.9795 74.2459L63.6516 75.2734" stroke="#263238" stroke-linecap="round" stroke-linejoin="round"/>
<path d="M72.7179 82.2025L55.6602 74.2436" stroke="#263238" stroke-linecap="round" stroke-linejoin="round"/>
<path d="M77.6451 84.5008L73.5234 82.5787" stroke="#263238" stroke-linecap="round" stroke-linejoin="round"/>
<path d="M53.4834 77.2368L51.3457 74.2459" stroke="#263238" stroke-linecap="round" stroke-linejoin="round"/>
<path d="M58.6742 84.5008L53.9814 77.9318" stroke="#263238" stroke-linecap="round" stroke-linejoin="round"/>
<path d="M41.6328 81.7988L47.0297 74.2459" stroke="#263238" stroke-linecap="round" stroke-linejoin="round"/>
<path d="M39.7012 84.5008L40.9397 82.7691" stroke="#263238" stroke-linecap="round" stroke-linejoin="round"/>
<path d="M35.8779 77.4341L42.713 74.2459" stroke="#263238" stroke-linecap="round" stroke-linejoin="round"/>
<path d="M20.7305 84.5008L34.6001 78.0304" stroke="#263238" stroke-linecap="round" stroke-linejoin="round"/>
<path d="M12.0576 81.6176L38.3978 74.2459" stroke="#263238" stroke-linecap="round" stroke-linejoin="round"/>
<path d="M1.75977 84.5008L9.16133 82.4296" stroke="#263238" stroke-linecap="round" stroke-linejoin="round"/>
<path d="M1.75977 74.2459H96.6154" stroke="#263238" stroke-linecap="round" stroke-linejoin="round"/>
<path d="M31.676 73.0326C31.8066 73.0821 31.9166 73.1743 31.9882 73.2942C32.0599 73.4141 32.0888 73.5547 32.0705 73.6932C32.0338 74.2161 32.5842 75.668 32.0062 75.9868C31.3526 76.34 30.2424 76.2987 30.1599 75.9868C30.0773 75.6749 30.4351 75.1886 30.4076 74.8033C30.3801 74.4179 30.1048 73.1496 30.5727 73.0395C30.9375 72.976 31.3104 72.9737 31.676 73.0326Z" fill="#92E3A9" stroke="#263238" stroke-linecap="round" stroke-linejoin="round"/>
<path d="M31.7902 73.356C31.7246 73.4162 31.6816 73.4972 31.6687 73.5853C31.6274 73.8743 31.5425 73.1908 31.0586 73.2551C30.5746 73.3193 30.7375 73.7 30.6549 73.7298C30.6113 73.7482 30.6021 73.6014 30.5746 73.4661C30.5746 72.7917 30.554 71.5096 30.4347 70.9545C30.2696 70.1839 30.0769 68.8077 30.187 68.3375C30.187 68.3375 29.3292 67.3696 29.2695 64.0415H31.7558V67.4017C31.7558 67.4017 32.4439 68.2824 32.1687 70.0187C31.9714 71.2802 31.8453 72.6771 31.7902 73.356Z" fill="#999999" stroke="#263238" stroke-linecap="round" stroke-linejoin="round"/>
<path d="M30.2695 67.8237C30.2695 67.8237 30.3521 68.7618 30.8751 68.9705" stroke="#263238" stroke-linecap="round" stroke-linejoin="round"/>
<path d="M30.1826 75.6565C30.1826 75.6565 30.6666 75.2299 31.1161 75.2505" stroke="#263238" stroke-linecap="round" stroke-linejoin="round"/>
<path d="M28.4115 68.982C28.5266 69.2155 28.5945 69.4694 28.6114 69.7291C28.6284 69.9888 28.594 70.2494 28.5102 70.4958C28.2349 71.3766 28.6478 72.3972 28.0698 72.755C27.4918 73.1129 25.9207 72.9202 26.3886 71.6082C26.8565 70.2963 26.6982 69.4316 27.2326 69.1288C27.597 68.9457 28.0134 68.8939 28.4115 68.982Z" fill="#92E3A9" stroke="#263238" stroke-linecap="round" stroke-linejoin="round"/>
<path d="M25.7924 60.8281L27.719 60.9955L28.8659 61.913C28.8659 61.913 28.9278 63.4956 28.4071 64.5369L28.086 65.5369C28.2336 65.9329 28.2901 66.357 28.2512 66.7778C28.1961 67.5209 28.0035 68.0989 28.2237 68.7343C28.3106 68.9781 28.345 69.2376 28.3246 69.4958C28.2928 69.5387 28.2687 69.5868 28.2535 69.638C28.1503 69.9591 27.9851 69.3077 27.5654 69.349C27.1456 69.3902 27.336 69.7228 27.2489 69.7274C27.008 68.9957 25.891 65.4429 26.3842 64.5254C25.9127 63.9771 25.5799 63.3233 25.4139 62.6194C25.3026 61.9958 25.4383 61.3534 25.7924 60.8281Z" fill="#999999" stroke="#263238" stroke-linecap="round" stroke-linejoin="round"/>
<path d="M26.377 64.5461C26.377 64.5461 26.5742 65.069 26.8884 65.1516" stroke="#263238" stroke-linecap="round" stroke-linejoin="round"/>
<path d="M26.6826 47.9998C26.6826 47.9998 25.9716 47.1122 26.6184 46.5778C26.6184 46.5778 27.0106 44.9447 28.1322 45.3461C29.2538 45.7475 29.1207 46.0342 29.1207 46.0342C29.1207 46.0342 30.3845 46.0938 30.2676 46.7773C30.1506 47.4608 29.9189 47.4012 29.9189 47.4012C29.9189 47.4012 30.2607 47.564 30.1254 48.0893C30.0821 48.2348 29.9901 48.3609 29.8648 48.4466C29.7395 48.5322 29.5885 48.5721 29.4373 48.5595L26.6826 47.9998Z" fill="#263238"/>
<path d="M24.6776 52.5641C24.3606 52.7385 24.0543 52.9315 23.7601 53.1421C23.7601 53.1421 23.8014 53.555 23.1202 54.289C22.439 55.0229 22.1064 56.3945 22.1064 56.3945C22.4986 56.539 22.3129 57.0344 22.3358 57.4909C22.3587 57.9473 22.5422 58.2547 22.4459 58.5643C22.3496 58.8739 22.0468 58.6881 22.0468 58.6881C21.6339 58.6881 21.3449 57.7592 21.3449 57.7592C21.2737 56.8779 21.3513 55.9909 21.5743 55.1353C21.7956 54.1888 22.1338 53.2734 22.5812 52.4105C22.5812 52.4105 23.3175 51.5549 23.595 51.3026C23.9299 50.9999 25.0469 50.2223 25.0469 50.2223L25.3336 52.3898C25.1116 52.4348 24.8926 52.4931 24.6776 52.5641Z" fill="#999999" stroke="#263238" stroke-linecap="round" stroke-linejoin="round"/>
<path d="M23.4809 53.1422C23.4809 53.1422 23.0222 53.2729 22.8203 52.7018" stroke="#263238" stroke-linecap="round" stroke-linejoin="round"/>
<path d="M21.8564 57.0299C21.9367 57.2 21.9924 57.3807 22.0216 57.5666C22.0629 57.8579 22.1432 58.1606 22.4138 57.9405" stroke="#263238" stroke-linecap="round" stroke-linejoin="round"/>
<path d="M31.4276 60.3327C31.4276 60.3327 32.0331 61.5713 32.0056 64.3534C31.4194 64.5744 30.7729 64.5744 30.1867 64.3534C29.306 63.9681 29.0032 64.381 29.0032 64.381L28.8656 63.4452C28.8656 63.4452 28.9757 61.3809 27.1844 61.5162C25.393 61.6515 25.6155 63.28 25.6155 63.28C25.6155 63.28 24.7875 60.9864 25.4481 60.0299C26.1086 59.0735 31.4276 60.3327 31.4276 60.3327Z" fill="#263238" stroke="#263238" stroke-linecap="round" stroke-linejoin="round"/>
<path d="M28.9736 61.5483C29.1295 62.0552 29.168 62.591 29.086 63.1149" stroke="#7F7F7F" stroke-linecap="round" stroke-linejoin="round"/>
<path d="M28.5996 60.9956C28.6691 61.0427 28.7291 61.1026 28.7762 61.1722" stroke="#7F7F7F" stroke-linecap="round" stroke-linejoin="round"/>
<path d="M31.7559 51.3783C31.7559 51.3783 28.7741 48.7361 25.0332 50.2315L25.4461 57.0895L25.1983 60.5896C25.1983 60.5896 26.0539 59.6515 28.781 60.5896C31.5081 61.5277 31.7627 60.5896 31.7627 60.5896L31.2673 54.8876L31.7559 51.3783Z" fill="#757575" stroke="#263238" stroke-linecap="round" stroke-linejoin="round"/>
<path d="M30.5445 55.8693L30.7923 58.4313C30.7923 58.4313 28.1064 58.6606 26.166 57.6881L26.0215 55.0183C26.0215 55.0183 27.7142 55.7248 30.5445 55.8693Z" fill="white" stroke="#263238" stroke-linecap="round" stroke-linejoin="round"/>
<path d="M30.7422 57.8946C29.1808 58.0193 27.611 57.8 26.1435 57.2524L26.0586 55.7087C27.6435 56.3968 29.9578 56.4886 30.6069 56.5023L30.7422 57.8946Z" fill="#263238"/>
<path d="M29.1893 49.5824C29.1893 49.5824 29.265 51.188 28.2719 51.188C27.0058 51.188 27.0769 49.7407 27.0769 49.7407L29.1893 49.5824Z" fill="#999999" stroke="#263238" stroke-linecap="round" stroke-linejoin="round"/>
<path d="M29.3429 47.9356C29.3429 47.9356 29.391 49.3462 29.164 49.7132C28.9369 50.0801 28.3107 50.6168 27.8245 50.6168C27.3382 50.6168 26.7327 49.9425 26.696 49.6765C26.6593 49.4104 26.696 47.642 26.696 47.642C26.696 47.642 26.7694 46.2658 27.8245 46.2658C28.8795 46.2658 29.352 47.0961 29.3429 47.9356Z" fill="#999999" stroke="#263238" stroke-linecap="round" stroke-linejoin="round"/>
<path d="M26.6914 48.0319C26.6601 48.011 26.6246 47.9971 26.5874 47.9911C26.5502 47.9852 26.5121 47.9874 26.4758 47.9975C26.313 48.0503 26.2465 48.2865 26.3222 48.525C26.3431 48.6106 26.3881 48.6882 26.452 48.7488C26.5158 48.8094 26.5958 48.8504 26.6823 48.8668C26.6823 48.587 26.6868 48.2773 26.6914 48.0319Z" fill="#999999" stroke="#263238" stroke-linecap="round" stroke-linejoin="round"/>
<path d="M28.3496 48.0571C28.3496 48.142 28.3932 48.2131 28.4459 48.2131C28.4987 48.2131 28.5446 48.142 28.5446 48.0571C28.5446 47.9723 28.501 47.9035 28.4459 47.9035C28.3909 47.9035 28.3496 47.9723 28.3496 48.0571Z" fill="#263238"/>
<path d="M27.2354 48.0319C27.2354 48.1168 27.2812 48.1856 27.334 48.1856C27.3867 48.1856 27.4326 48.1168 27.4326 48.0319C27.4326 47.947 27.389 47.8759 27.334 47.8759C27.2789 47.8759 27.2354 47.9493 27.2354 48.0319Z" fill="#263238"/>
<path d="M27.5923 47.7131C27.5923 47.7131 27.2712 47.4264 27.0166 47.5594" stroke="#263238" stroke-linecap="round" stroke-linejoin="round"/>
<path d="M28.1367 47.7131C28.1367 47.7131 28.4601 47.4264 28.7124 47.5594" stroke="#263238" stroke-linecap="round" stroke-linejoin="round"/>
<path d="M28.1361 49.3485C28.0181 49.2988 27.8913 49.2732 27.7633 49.2732C27.6353 49.2732 27.5086 49.2988 27.3906 49.3485" stroke="#263238" stroke-width="0.75" stroke-linecap="round" stroke-linejoin="round"/>
<path d="M30.4619 53.5366C30.6729 54.4059 30.9207 55.7064 30.9207 55.7064L29.9206 54.8371C29.9206 54.8371 29.5353 53.766 29.1844 53.4426C29.049 53.3187 28.9298 52.6261 28.744 52.7086C28.5582 52.7912 28.7234 53.1421 28.7234 53.1421C28.5748 53.1706 28.4289 53.2121 28.2876 53.266C28.1637 53.3279 27.8541 54.5481 27.9986 54.6422C28.1431 54.7362 28.3082 54.3532 28.3931 54.8073C28.4779 55.2615 29.2601 55.6743 29.2601 55.6743C29.2601 55.6743 30.5812 57.5345 31.1592 57.8441C31.7372 58.1537 32.3588 58.3189 32.5354 56.6973C32.6382 55.6542 32.5755 54.6014 32.3496 53.5779C32.3496 53.5779 32.7166 51.8164 31.7441 51.36C30.7716 50.9036 30.2303 52.5825 30.4619 53.5366Z" fill="#999999" stroke="#263238" stroke-linecap="round" stroke-linejoin="round"/>
<path d="M31.5377 56.2821L30.8564 55.6353" stroke="#263238" stroke-linecap="round" stroke-linejoin="round"/>
<path d="M29.1207 53.3899L28.7285 53.1422" stroke="#263238" stroke-linecap="round" stroke-linejoin="round"/>
<path d="M32.0057 53.7293C31.9405 53.831 31.8559 53.9187 31.7567 53.9876C31.6576 54.0565 31.5458 54.1051 31.4277 54.1307" fill="white"/>
<path d="M32.0057 53.7293C31.9405 53.831 31.8559 53.9187 31.7567 53.9876C31.6576 54.0565 31.5458 54.1051 31.4277 54.1307" stroke="#263238" stroke-linecap="round" stroke-linejoin="round"/>
<path d="M27.7627 48.0067C27.7627 48.0067 27.6434 48.6145 27.4806 48.6948C27.3178 48.7751 27.5035 48.9494 27.593 48.9769C27.6824 49.0044 28.0058 49.0182 27.96 48.9104" stroke="#263238" stroke-width="0.75" stroke-linecap="round" stroke-linejoin="round"/>
<path d="M26.696 47.642L27.1455 46.7406L27.6455 46.8301L28.5424 46.681L28.9231 47.0663L29.1204 47.1626L29.3451 48.0572L29.5951 47.3691L29.5011 46.6076L28.5424 46.0135L27.7258 45.7612L26.9024 46.3553L26.618 47.0227L26.4941 47.3347L26.696 47.642Z" fill="#263238"/>
<path d="M29.6436 47.9585C29.5897 47.9456 29.5332 47.9479 29.4805 47.9654C29.4278 47.9828 29.3811 48.0146 29.3455 48.0571C29.3455 48.2154 29.3455 48.5159 29.334 48.8048C29.3416 48.8108 29.3501 48.8154 29.3592 48.8186C29.5221 48.8737 29.7193 48.7246 29.7973 48.486C29.8753 48.2475 29.8065 48.0113 29.6436 47.9585Z" fill="#999999" stroke="#263238" stroke-linecap="round" stroke-linejoin="round"/>
<path d="M29.1643 49.7132C28.9349 50.0824 28.3111 50.6169 27.8248 50.6169C27.5653 50.5904 27.3226 50.4764 27.1367 50.2935C27.1976 50.5467 27.3364 50.7746 27.5335 50.9449C27.6221 50.9854 27.7182 51.0073 27.8156 51.0091C28.295 51.0091 28.912 50.4907 29.1459 50.1214C29.1688 49.9696 29.1803 49.8163 29.1804 49.6627C29.1766 49.68 29.1712 49.6969 29.1643 49.7132Z" fill="#263238"/>
<path d="M47.9673 66.3535C47.9673 66.3535 47.2379 66.9315 47.4351 68.537C47.6324 70.1426 46.2883 73.1243 48.7792 73.6519C51.2197 74.1679 49.3962 70.2573 49.6416 69.2251C49.887 68.193 50.4467 65.842 49.0843 65.7067L47.9673 66.3535Z" fill="#92E3A9" stroke="#263238" stroke-linecap="round" stroke-linejoin="round"/>
<path d="M47.8893 67.4338C47.9169 67.4055 47.9382 67.3716 47.9516 67.3344C47.9651 67.2972 47.9704 67.2576 47.9673 67.2182C47.9375 66.9452 49.0453 66.5874 49.1715 66.8741C49.2005 66.9393 49.2436 66.9973 49.2976 67.0439C49.2976 66.6585 49.3412 65.3168 49.5384 63.6286C49.6699 62.12 49.6699 60.6028 49.5384 59.0941L46.5223 59.6492L46.7907 61.3121C46.7907 61.3121 45.8732 62.1515 46.5223 64.2938C47.1714 66.436 47.7838 67.3512 47.7838 67.3512C47.817 67.3811 47.8523 67.4087 47.8893 67.4338Z" fill="#999999" stroke="#263238" stroke-linecap="round" stroke-linejoin="round"/>
<path d="M45.396 47.837C45.396 47.837 44.2492 48.8117 44.7079 52.4242C45.1666 56.0367 46.3708 60.452 46.3708 60.452C46.3708 60.452 46.6002 61.0254 47.9764 61.0254C49.3525 61.0254 49.8755 59.6492 49.8755 59.6492L50.27 53.8004V48.5434L45.396 47.837Z" fill="#263238" stroke="#263238" stroke-linecap="round" stroke-linejoin="round"/>
<path d="M46.7588 60.9038C46.7588 60.9038 46.9675 61.936 47.7817 62.0506" stroke="#263238" stroke-linecap="round" stroke-linejoin="round"/>
<path d="M51.1273 79.3171H52.9072C53.0143 79.317 53.1201 79.2935 53.2171 79.2483C53.3142 79.203 53.4002 79.1372 53.4692 79.0553C53.5382 78.9734 53.5886 78.8775 53.6167 78.7741C53.6448 78.6708 53.65 78.5626 53.632 78.457C53.5435 77.997 53.518 77.5271 53.5563 77.0602C53.8075 76.1729 53.8241 75.2356 53.6045 74.3399H51.6251C51.6251 74.3399 50.9943 74.9202 50.9186 76.5648C50.8544 77.9409 50.4392 78.1382 50.5585 78.8446C50.5823 78.9778 50.6525 79.0983 50.7566 79.1848C50.8607 79.2713 50.992 79.3181 51.1273 79.3171Z" fill="#92E3A9" stroke="#263238" stroke-linecap="round" stroke-linejoin="round"/>
<path d="M54.4621 58.023C54.4621 58.023 51.7625 56.5712 50.6914 58.5964C50.6914 58.5964 50.8818 61.7708 51.3795 63.108C51.1563 65.1279 51.1563 67.1663 51.3795 69.1862C51.6006 71.0122 51.6772 72.8528 51.6089 74.6909C51.774 74.5166 52.0928 74.3354 52.7075 74.3354C53.1961 74.3354 53.4392 74.5303 53.5562 74.7597C53.7007 73.3468 54.1686 68.7756 54.3933 67.0416C54.6594 64.9773 53.9713 62.2617 53.9713 62.2617L54.4621 58.023Z" fill="#999999" stroke="#263238" stroke-linecap="round" stroke-linejoin="round"/>
<path d="M49.5384 48.7544C49.5384 48.7544 49.3526 55.4633 50.4421 59.6492C50.4421 59.6492 50.7861 58.273 52.449 58.273C54.1119 58.273 54.3413 59.6492 54.3413 59.6492C54.3413 59.6492 55.8321 48.8691 54.3413 47.3782L49.5384 48.7544Z" fill="#263238" stroke="#263238" stroke-linecap="round" stroke-linejoin="round"/>
<path d="M51.9561 62.202C52.1051 62.6447 52.3276 63.1791 52.5753 63.3488" stroke="#263238" stroke-linecap="round" stroke-linejoin="round"/>
<path d="M51.7607 61.5414C51.7607 61.5414 51.7974 61.6928 51.864 61.9107" stroke="#263238" stroke-linecap="round" stroke-linejoin="round"/>
<path d="M50.0156 57.5207C50.0661 57.8533 50.1234 58.1812 50.1831 58.4978" stroke="#7F7F7F" stroke-linecap="round" stroke-linejoin="round"/>
<path d="M49.541 51.2774C49.5689 53.0582 49.6861 54.8365 49.8919 56.6055" stroke="#7F7F7F" stroke-linecap="round" stroke-linejoin="round"/>
<path d="M42.1022 32.059C42.1022 32.059 39.6136 30.2631 38.0356 29.4076C38.0356 29.4076 37.2007 25.2676 37.2718 22.6528C37.2718 22.6528 37.258 22.0817 37.2718 21.8913C37.2694 21.7353 37.3098 21.5816 37.3887 21.4469C37.4675 21.3122 37.5818 21.2018 37.7191 21.1275C38.0838 20.9463 38.664 20.4739 38.664 20.1482C38.6289 19.7449 38.5684 19.3442 38.4828 18.9486C38.4828 18.9486 37.7191 18.0311 37.5654 18.2238C37.5326 18.2875 37.5136 18.3574 37.5096 18.4289C37.5057 18.5005 37.5169 18.572 37.5425 18.6389L36.6938 18.1986C36.1135 17.7146 35.641 18.7674 35.3497 19.4578C35.0584 20.1482 35.2052 21.6367 35.2052 21.6367C34.6227 26.7928 35.3566 30.2103 35.3566 30.2103L37.9645 32.7494C41.2696 35.7632 42.1045 35.5453 42.1045 35.5453C43.0472 34.4192 42.1022 32.059 42.1022 32.059Z" fill="#999999" stroke="#263238" stroke-linecap="round" stroke-linejoin="round"/>
<path d="M37.7196 21.1275C38.0843 20.9463 38.6646 20.4739 38.6646 20.1482C38.6295 19.7449 38.5689 19.3442 38.4834 18.9486C38.4834 18.9486 37.7196 18.0311 37.5659 18.2238C37.4123 18.4165 37.5659 18.9486 37.9283 19.3133L37.699 19.9303C37.699 19.9303 36.6462 20.0014 36.3916 20.5106" stroke="#263238" stroke-linecap="round" stroke-linejoin="round"/>
<path d="M35.8838 18.8041C35.8838 18.8041 36.1132 18.5311 36.2095 18.6229C36.3058 18.7146 36.065 19.4394 36.3196 19.5403C36.5742 19.6413 36.8265 19.2514 36.8448 19.0702C36.8546 18.8822 36.8546 18.6939 36.8448 18.5059" stroke="#263238" stroke-linecap="round" stroke-linejoin="round"/>
<path d="M36.5838 19.5059C36.5527 19.5794 36.5503 19.6619 36.5771 19.737C36.6038 19.8122 36.6578 19.8746 36.7283 19.9119C36.9852 20.0816 37.2719 19.6825 37.3269 19.5059C37.3721 19.305 37.4028 19.1011 37.4187 18.8958" stroke="#263238" stroke-linecap="round" stroke-linejoin="round"/>
<path d="M36.3291 19.5472C36.3573 19.7404 36.3573 19.9366 36.3291 20.1298" stroke="#263238" stroke-linecap="round" stroke-linejoin="round"/>
<path d="M56.4214 32.3709C56.4214 32.3709 58.9238 30.5681 60.4881 29.7195C60.4881 29.7195 61.3229 26.2332 61.2518 23.6184C61.2747 23.3651 61.2747 23.1102 61.2518 22.8569C61.2002 22.6917 61.1154 22.5388 61.0026 22.4074C60.8898 22.2761 60.7514 22.1692 60.5959 22.0931C60.2312 21.9119 59.6509 21.4395 59.6509 21.1138C59.686 20.7105 59.7465 20.3098 59.8321 19.9142C59.8321 19.9142 60.5959 18.9967 60.7495 19.1894C60.7824 19.2531 60.8014 19.323 60.8053 19.3945C60.8093 19.4661 60.7981 19.5376 60.7725 19.6045L61.6211 19.1642C62.2014 18.6802 62.6739 19.733 62.9652 20.4234C63.2565 21.1138 63.1097 22.6023 63.1097 22.6023C63.6923 27.7584 63.1877 30.598 63.1877 30.598L60.5683 33.0613C57.2632 36.0752 56.4398 35.8573 56.4398 35.8573C55.4765 34.7288 56.4214 32.3709 56.4214 32.3709Z" fill="#999999" stroke="#263238" stroke-linecap="round" stroke-linejoin="round"/>
<path d="M60.5983 22.0931C60.2336 21.912 59.6533 21.4395 59.6533 21.1138C59.6885 20.7105 59.749 20.3098 59.8345 19.9142C59.8345 19.9142 60.5983 18.9967 60.752 19.1894C60.9056 19.3821 60.752 19.9142 60.3896 20.2789L60.6075 20.8959C60.6075 20.8959 61.6602 20.967 61.9148 21.4762" stroke="#263238" stroke-linecap="round" stroke-linejoin="round"/>
<path d="M62.4127 19.7697C62.4127 19.7697 62.1833 19.4968 62.087 19.5885C61.9906 19.6803 62.2315 20.4051 61.9769 20.506C61.7223 20.6069 61.47 20.2147 61.4516 20.0335C61.4419 19.8455 61.4419 19.6572 61.4516 19.4693" stroke="#263238" stroke-linecap="round" stroke-linejoin="round"/>
<path d="M61.7216 20.4716C61.7527 20.5451 61.7551 20.6275 61.7283 20.7027C61.7016 20.7778 61.6476 20.8402 61.5771 20.8775C61.3202 21.0473 61.0335 20.6482 60.9785 20.4716C60.9331 20.2707 60.9024 20.0668 60.8867 19.8615" stroke="#263238" stroke-linecap="round" stroke-linejoin="round"/>
<path d="M61.9763 20.5083C61.948 20.7007 61.948 20.8961 61.9763 21.0885" stroke="#263238" stroke-linecap="round" stroke-linejoin="round"/>
<path d="M43.5042 37.2289C43.5042 37.2289 44.1923 40.2106 44.7267 48.2383C44.7267 48.2383 49.4677 51.22 54.9724 47.7016C54.9724 47.7016 53.977 41.5088 54.9724 36.9995L56.9587 36.082C56.582 34.7401 56.4782 33.3362 56.6536 31.9535C56.6536 31.9535 55.8738 32.4122 55.5825 32.4122C54.9357 32.3939 54.8187 32.0292 53.0595 33.0223C53.0595 33.0223 50.2269 32.4076 45.7978 32.7173C45.7978 32.7173 45.0478 31.942 43.2748 31.9535C42.9469 31.9535 41.9744 31.7998 41.9744 31.7998C41.9744 31.7998 42.6624 33.559 41.5156 35.699L43.5042 37.2289Z" fill="#92E3A9" stroke="#263238" stroke-linecap="round" stroke-linejoin="round"/>
<path d="M45.2236 38.4904C48.0042 38.8253 50.8149 38.8253 53.5954 38.4904V43.0776C53.5954 43.0776 49.0655 43.7084 45.5677 43.0776L45.2236 38.4904Z" fill="white" stroke="#263238" stroke-linecap="round" stroke-linejoin="round"/>
<path d="M45.3037 39.5821L45.4964 42.1487C48.1934 42.3348 50.9007 42.318 53.5952 42.0983V39.5615C50.8336 39.7132 48.066 39.7201 45.3037 39.5821Z" fill="#263238"/>
<path d="M43.394 34.6187C43.394 34.6187 44.0546 36.3688 43.8826 36.6555C43.7106 36.9422 43.0225 36.1967 43.0225 36.1967" stroke="#263238" stroke-linecap="round" stroke-linejoin="round"/>
<path d="M55.488 34.7678C55.2668 35.2691 55.1125 35.7974 55.0293 36.339L55.488 34.7678Z" fill="#92E3A9"/>
<path d="M55.488 34.7678C55.2668 35.2691 55.1125 35.7974 55.0293 36.339" stroke="#263238" stroke-linecap="round" stroke-linejoin="round"/>
<path d="M52.8574 46.9677C53.0983 46.9677 53.346 46.9424 53.5983 46.9195" stroke="#263238" stroke-linecap="round" stroke-linejoin="round"/>
<path d="M45.5176 44.3208C45.5176 44.3208 47.7653 46.8736 52.1508 46.9746" stroke="#263238" stroke-linecap="round" stroke-linejoin="round"/>
<path d="M48.1847 40.5501H47.8682V40.3368C47.9377 40.3378 48.007 40.3301 48.0746 40.3138C48.1229 40.3021 48.1667 40.2766 48.2007 40.2404C48.2379 40.1976 48.266 40.1477 48.2833 40.0937H48.4989V42.0203H48.1962L48.1847 40.5501Z" fill="white"/>
<path d="M48.958 41.9217C48.8739 41.8221 48.8312 41.694 48.8387 41.5639V40.5501C48.8312 40.4199 48.8739 40.2919 48.958 40.1923C49.0533 40.109 49.1755 40.0632 49.3021 40.0632C49.4286 40.0632 49.5508 40.109 49.6461 40.1923C49.731 40.2914 49.7738 40.4198 49.7654 40.5501V41.5639C49.7738 41.6941 49.731 41.8225 49.6461 41.9217C49.5508 42.0049 49.4286 42.0508 49.3021 42.0508C49.1755 42.0508 49.0533 42.0049 48.958 41.9217ZM49.4557 41.5822V40.5317C49.4557 40.4056 49.403 40.3414 49.2998 40.3414C49.1965 40.3414 49.1415 40.4056 49.1415 40.5317V41.5822C49.1415 41.7084 49.1943 41.7726 49.2998 41.7726C49.4053 41.7726 49.4557 41.7084 49.4557 41.5822Z" fill="white"/>
<path d="M50.0498 41.9262C50.0062 41.8784 49.9728 41.8223 49.9515 41.7612C49.9302 41.7001 49.9215 41.6353 49.9259 41.5707V41.401C49.9249 41.3219 49.9413 41.2436 49.9741 41.1716C50.0058 41.1048 50.0591 41.0507 50.1255 41.018C50.0637 40.9864 50.0138 40.9357 49.9833 40.8735C49.9514 40.8013 49.9358 40.723 49.9374 40.6441V40.5661C49.9328 40.5019 49.9409 40.4374 49.9614 40.3764C49.9818 40.3154 50.0142 40.259 50.0567 40.2106C50.1537 40.1312 50.2753 40.0879 50.4007 40.0879C50.5261 40.0879 50.6477 40.1312 50.7448 40.2106C50.7872 40.259 50.8196 40.3154 50.84 40.3764C50.8605 40.4374 50.8687 40.5019 50.864 40.5661V40.6441C50.8719 40.7186 50.8587 40.7938 50.8258 40.8612C50.793 40.9285 50.7418 40.9852 50.6782 41.0248C50.7437 41.0588 50.7967 41.1126 50.8296 41.1785C50.8606 41.251 50.8762 41.3291 50.8755 41.4079V41.5776C50.8836 41.6418 50.877 41.707 50.8561 41.7682C50.8353 41.8295 50.8008 41.8852 50.7553 41.9311C50.7098 41.9771 50.6544 42.0121 50.5934 42.0335C50.5324 42.0549 50.4673 42.0622 50.403 42.0547C50.3385 42.0584 50.2739 42.049 50.2131 42.0269C50.1524 42.0048 50.0968 41.9706 50.0498 41.9262ZM50.5704 41.5547V41.3804C50.5704 41.2359 50.5131 41.1625 50.4007 41.1625C50.2883 41.1625 50.2287 41.2359 50.2287 41.3804V41.5638C50.2287 41.7083 50.286 41.7817 50.4007 41.7817C50.5154 41.7817 50.5636 41.6992 50.5636 41.5547H50.5704ZM50.5704 40.6854V40.534C50.5704 40.4056 50.5177 40.3413 50.4122 40.3413C50.3044 40.3413 50.2516 40.4056 50.2516 40.534V40.6923C50.2516 40.8207 50.3044 40.8849 50.4122 40.8849C50.52 40.8849 50.5636 40.8138 50.5636 40.6923L50.5704 40.6854Z" fill="white"/>
<path d="M47.4346 31.02V33.2517C47.4346 33.2517 47.5378 33.5132 49.3085 33.5132C51.0792 33.5132 51.3062 33.2517 51.3062 33.2517L50.9599 31.02H47.4346Z" fill="#999999" stroke="#263238" stroke-linecap="round" stroke-linejoin="round"/>
<path d="M46.5587 29.4534C46.3924 29.34 46.2722 29.1709 46.2196 28.9766C46.167 28.7823 46.1856 28.5756 46.272 28.3938C46.272 28.3938 45.6619 27.3043 46.5587 26.9029C46.5587 26.9029 46.1138 25.7951 47.0954 25.6781C47.0954 25.6781 47.3432 24.3409 48.49 24.9533C48.49 24.9533 49.584 23.9785 50.279 25.1253C50.279 25.1253 51.529 24.7813 51.6254 25.9075C51.6254 25.9075 52.5612 26.529 52.0451 27.3456C52.0451 27.3456 52.5038 28.0497 52.1208 28.4511C52.1208 28.4511 52.1988 29.3319 51.6254 29.7126C51.052 30.0933 46.5587 29.4534 46.5587 29.4534Z" fill="#263238"/>
<path d="M51.7451 28.8411C51.7313 30.1576 51.5456 33.5132 49.3093 33.5132C47.245 33.5132 46.7863 30.176 46.6991 28.8411C46.6349 27.786 46.6372 25.3708 49.1074 25.3708C52.0318 25.3708 51.7566 27.7516 51.7451 28.8411Z" fill="#999999" stroke="#263238" stroke-linecap="round" stroke-linejoin="round"/>
<path d="M46.7257 29.2012C46.6539 29.1845 46.5795 29.1826 46.507 29.1956C46.4344 29.2087 46.3653 29.2363 46.3037 29.2769C46.0101 29.4764 45.978 29.9466 46.2372 30.325C46.3141 30.4513 46.4222 30.5557 46.5512 30.628C46.6802 30.7003 46.8256 30.7382 46.9735 30.7379C46.857 30.2317 46.7742 29.7183 46.7257 29.2012Z" fill="#999999" stroke="#263238" stroke-linecap="round" stroke-linejoin="round"/>
<path d="M49.1074 25.3708C46.6372 25.3708 46.6349 27.786 46.6991 28.8411C46.6991 28.9741 46.7197 29.1301 46.7381 29.2998C46.93 28.9682 47.0627 28.6058 47.1303 28.2287C47.1422 27.9738 47.1338 27.7184 47.1051 27.4649C47.0862 27.2822 47.1244 27.0981 47.2144 26.938C47.3043 26.7778 47.4416 26.6494 47.6074 26.5704C47.9904 26.3892 48.5478 26.6621 49.2129 26.6621C49.8781 26.6621 50.3873 26.4327 50.7428 26.6415C50.9012 26.744 51.0259 26.8909 51.1013 27.0638C51.1768 27.2368 51.1997 27.4281 51.1671 27.614C51.1257 27.8226 51.1218 28.037 51.1556 28.247C51.2858 28.6048 51.4801 28.936 51.729 29.2241C51.729 29.0842 51.729 28.9535 51.729 28.8411C51.7566 27.7516 52.0318 25.3708 49.1074 25.3708Z" fill="#263238"/>
<path d="M48.7287 29.7768C48.7287 29.7768 48.5292 30.2814 48.8778 30.3984C48.8778 30.3984 49.2792 30.7149 49.5957 30.3984C49.5957 30.3984 49.9466 30.325 49.7792 29.7768" stroke="#263238" stroke-linecap="round" stroke-linejoin="round"/>
<path d="M48.3367 29.2631C48.3367 29.419 48.2564 29.5475 48.1578 29.5475C48.0591 29.5475 47.9766 29.419 47.9766 29.2631C47.9766 29.1071 48.0568 28.9786 48.1578 28.9786C48.2587 28.9786 48.3367 29.1048 48.3367 29.2631Z" fill="#263238"/>
<path d="M50.421 29.2631C50.421 29.419 50.3384 29.5475 50.2398 29.5475C50.1412 29.5475 50.0586 29.419 50.0586 29.2631C50.0586 29.1071 50.1389 28.9786 50.2398 28.9786C50.3407 28.9786 50.421 29.1048 50.421 29.2631Z" fill="#263238"/>
<path d="M50.3339 31.5292C50.3339 31.5292 49.967 32.3916 49.3316 32.3916C48.6963 32.3916 48.249 31.4948 48.249 31.4948C48.5795 31.3539 48.9335 31.2761 49.2926 31.2654C49.6545 31.2786 50.0094 31.3685 50.3339 31.5292Z" fill="#263238" stroke="#263238" stroke-linecap="round" stroke-linejoin="round"/>
<path d="M50.3339 31.5292C50.2405 31.3444 50.0948 31.1911 49.915 31.0883C49.7352 30.9856 49.5291 30.9379 49.3224 30.9512C49.1117 30.9409 48.902 30.9856 48.7138 31.0809C48.5256 31.1762 48.3654 31.3188 48.249 31.4948C48.5795 31.3539 48.9335 31.2761 49.2926 31.2654C49.6545 31.2786 50.0094 31.3685 50.3339 31.5292Z" fill="#858585" stroke="#263238" stroke-linecap="round" stroke-linejoin="round"/>
<path d="M49.4007 32.1485C48.8732 32.1485 48.2539 31.4948 48.2539 31.4948C48.2539 31.4948 48.6989 32.3916 49.3365 32.3916C49.9741 32.3916 50.3388 31.5292 50.3388 31.5292C50.3388 31.5292 49.7631 32.1485 49.4007 32.1485Z" fill="white"/>
<path d="M49.3385 32.3916C48.7008 32.3916 48.2559 31.4948 48.2559 31.4948C48.2559 31.4948 48.3705 32.7242 49.2995 32.7242C50.2284 32.7242 50.3408 31.5292 50.3408 31.5292C50.3408 31.5292 49.9738 32.3916 49.3385 32.3916Z" fill="#858585" stroke="#263238" stroke-linecap="round" stroke-linejoin="round"/>
<path d="M48.8221 28.9947C48.7979 28.9948 48.7739 28.9897 48.7518 28.9798C48.7296 28.9699 48.7098 28.9555 48.6937 28.9374C48.2349 28.4076 47.6134 28.8273 47.5881 28.8456C47.5696 28.8586 47.5487 28.8678 47.5266 28.8726C47.5046 28.8775 47.4818 28.878 47.4595 28.8741C47.4372 28.8701 47.416 28.8618 47.3969 28.8497C47.3779 28.8375 47.3614 28.8217 47.3484 28.8032C47.3355 28.7847 47.3263 28.7638 47.3214 28.7417C47.3166 28.7196 47.3161 28.6968 47.32 28.6746C47.324 28.6523 47.3322 28.6311 47.3444 28.612C47.3566 28.5929 47.3724 28.5765 47.3909 28.5635C47.6226 28.3886 47.9113 28.3067 48.2003 28.3338C48.4894 28.361 48.7578 28.4953 48.9528 28.7103C48.9677 28.7271 48.9791 28.7467 48.9864 28.768C48.9936 28.7892 48.9966 28.8117 48.9951 28.8341C48.9936 28.8565 48.9877 28.8784 48.9777 28.8985C48.9677 28.9186 48.9538 28.9365 48.9368 28.9511C48.9055 28.9797 48.8645 28.9952 48.8221 28.9947Z" fill="#263238"/>
<path d="M49.5495 28.9786C49.5055 28.9783 49.4631 28.962 49.4302 28.9328C49.398 28.9005 49.3799 28.8568 49.3799 28.8112C49.3799 28.7656 49.398 28.7219 49.4302 28.6897C49.6308 28.4801 49.9025 28.3532 50.1919 28.3336C50.4813 28.3141 50.7675 28.4035 50.9945 28.5841C51.0313 28.6112 51.0558 28.6518 51.0627 28.697C51.0696 28.7421 51.0582 28.7882 51.0312 28.825C51.0041 28.8618 50.9635 28.8863 50.9183 28.8932C50.8732 28.9001 50.8271 28.8887 50.7903 28.8617C50.7628 28.8433 50.1596 28.4029 49.6802 28.9236C49.664 28.942 49.6438 28.9566 49.6211 28.9661C49.5985 28.9756 49.574 28.9799 49.5495 28.9786Z" fill="#263238"/>
<path d="M47.4346 32.082V32.3113C47.6389 32.7843 47.9719 33.1903 48.3956 33.4834C48.625 33.5017 48.9323 33.5132 49.3131 33.5132C48.4185 33.5132 47.8268 32.8939 47.4346 32.082Z" fill="#263238" stroke="#263238" stroke-miterlimit="10"/>
<path d="M51.1464 32.2058C50.7886 32.9535 50.2175 33.5063 49.3115 33.5063C49.706 33.5063 50.0203 33.4925 50.2771 33.4742C50.6785 33.2051 50.9907 32.8227 51.174 32.3755L51.1464 32.2058Z" fill="#263238" stroke="#263238" stroke-miterlimit="10"/>
<path d="M52.2245 29.2768C52.1528 29.231 52.0717 29.2017 51.9872 29.191C51.9027 29.1803 51.8169 29.1884 51.736 29.2149C51.7215 29.7254 51.6717 30.2343 51.5869 30.7379C51.729 30.7316 51.8674 30.6907 51.9902 30.6187C52.1129 30.5468 52.2162 30.4459 52.2911 30.325C52.5479 29.9466 52.5181 29.4764 52.2245 29.2768Z" fill="#999999" stroke="#263238" stroke-linecap="round" stroke-linejoin="round"/>
<path d="M50.5635 78.3079C50.5635 78.3079 51.3387 77.2322 52.5911 77.4295" stroke="#263238" stroke-linecap="round" stroke-linejoin="round"/>
<path d="M67.1982 71.9637C67.0216 72.0304 66.8727 72.1548 66.7757 72.3168C66.6786 72.4787 66.6392 72.6688 66.6638 72.8559C66.7143 73.5647 65.9757 75.528 66.751 75.9501C67.634 76.4271 69.1363 76.3698 69.2487 75.9501C69.3611 75.5303 68.8749 74.8698 68.9116 74.3445C68.9483 73.8193 69.3221 72.1105 68.6822 71.9614C68.1908 71.8801 67.6893 71.8808 67.1982 71.9637Z" fill="#92E3A9" stroke="#263238" stroke-linecap="round" stroke-linejoin="round"/>
<path d="M67.045 72.4041C67.0909 72.5159 67.1454 72.624 67.2079 72.7275C67.2676 72.5647 67.3838 72.4287 67.5354 72.3445C67.687 72.2603 67.8638 72.2334 68.0336 72.2688C68.6873 72.3536 68.4671 72.872 68.5772 72.9133C68.6368 72.9362 68.6483 72.739 68.6873 72.5578C68.6873 71.6403 68.7148 69.9109 68.8754 69.1609C69.1047 68.1173 69.3593 66.2548 69.2102 65.6218C69.2102 65.6218 70.3708 64.3098 70.4396 59.8097H67.0886V64.3626C67.0886 64.3626 66.1574 65.5553 66.529 67.9017C66.7973 69.5921 66.9693 71.4843 67.045 72.4041Z" fill="white" stroke="#263238" stroke-linecap="round" stroke-linejoin="round"/>
<path d="M69.1004 64.9223C69.1004 64.9223 68.988 66.1883 68.2793 66.4865" stroke="#263238" stroke-linecap="round" stroke-linejoin="round"/>
<path d="M71.6123 66.4865C71.2988 67.1248 71.2509 67.8613 71.4792 68.5347C71.8531 69.7274 71.2935 71.1059 72.0756 71.5898C72.8577 72.0738 74.9816 71.8192 74.3486 70.0256C73.7155 68.232 73.9311 67.0828 73.2018 66.6723C72.7085 66.4312 72.1478 66.3656 71.6123 66.4865Z" fill="#92E3A9" stroke="#263238" stroke-linecap="round" stroke-linejoin="round"/>
<path d="M75.1711 55.461L72.5632 55.6903L71.0059 56.9151C71.0468 58.1214 71.2576 59.3159 71.632 60.4634L72.0426 61.8396C71.8407 62.374 71.7623 62.9472 71.8132 63.5162C71.8889 64.5209 72.1481 65.303 71.8499 66.1608C71.7343 66.4919 71.689 66.8434 71.7169 67.1929C71.7604 67.2508 71.793 67.3161 71.8132 67.3856C71.9531 67.8191 72.1756 66.9383 72.749 66.9934C73.3224 67.0484 73.0472 67.5003 73.1779 67.5049C73.5013 66.514 75.0128 61.7111 74.3477 60.4703C74.3477 60.4703 75.3936 59.3051 75.6574 57.8922C75.8176 57.0494 75.6432 56.1773 75.1711 55.461Z" fill="white" stroke="#263238" stroke-linecap="round" stroke-linejoin="round"/>
<path d="M73.7652 60.7868C73.7652 60.7868 73.4992 61.4955 73.0771 61.6056" stroke="#263238" stroke-linecap="round" stroke-linejoin="round"/>
<path d="M67.5363 54.7889C67.5363 54.7889 66.7174 56.4656 66.7541 60.2294C66.7541 60.2294 68.0225 60.7501 69.2129 60.2294C70.4033 59.7088 70.8185 60.2661 70.8185 60.2661L71.0042 59C71.0042 59 70.8552 56.2041 73.2772 56.3922C75.6993 56.5803 75.3988 58.7753 75.3988 58.7753C75.3988 58.7753 76.5181 55.6834 75.6282 54.3807C74.7383 53.0779 67.5363 54.7889 67.5363 54.7889Z" fill="#92E3A9" stroke="#263238" stroke-linecap="round" stroke-linejoin="round"/>
<path d="M70.8525 56.4358C70.6942 56.8739 70.5887 57.5436 70.7011 58.5528" stroke="#263238" stroke-linecap="round" stroke-linejoin="round"/>
<path d="M71.3573 55.688C71.2678 55.7503 71.1902 55.8279 71.1279 55.9174" stroke="#263238" stroke-linecap="round" stroke-linejoin="round"/>
<path d="M67.0889 42.6831C67.0889 42.6831 71.1119 39.1074 76.1786 41.1189L75.6189 50.3944L75.9538 55.1238C75.9538 55.1238 74.807 53.8578 71.1119 55.1238C67.4169 56.3899 67.0889 55.1238 67.0889 55.1238L67.7655 47.4126L67.0889 42.6831Z" fill="#263238" stroke="#263238" stroke-linecap="round" stroke-linejoin="round"/>
<path d="M68.7265 48.7544L68.3916 52.2201C68.3916 52.2201 72.0247 52.5274 74.6509 51.2132L74.8459 47.6053C74.8459 47.6053 72.5546 48.5594 68.7265 48.7544Z" fill="white" stroke="#263238" stroke-linecap="round" stroke-linejoin="round"/>
<path d="M68.4531 51.5022C70.5652 51.672 72.6888 51.3752 74.6735 50.6329L74.7882 48.5457C72.6436 49.4792 69.5311 49.603 68.6366 49.6191L68.4531 51.5022Z" fill="#263238" stroke="#263238" stroke-linecap="round" stroke-linejoin="round"/>
<path d="M78.1415 42.5799L79.5177 44.0754C80.1146 45.2386 80.5653 46.4713 80.8595 47.7452C81.3618 49.8966 81.1668 51.2935 81.1668 51.2935C81.1668 51.2935 80.7333 52.3348 80.2172 52.5504C80.2172 52.5504 79.8067 52.8004 79.6759 52.3829C79.5452 51.9655 79.7975 51.5435 79.825 50.9288C79.8526 50.3141 79.5957 49.6443 80.1324 49.4494C80.1324 49.4494 79.6851 47.5755 78.7562 46.5984C77.8273 45.6213 77.8915 45.0617 77.8915 45.0617L76.6621 44.2795L78.1415 42.5799Z" fill="white" stroke="#263238" stroke-linecap="round" stroke-linejoin="round"/>
<path d="M78.2822 45.0662C78.2822 45.0662 78.8969 45.2428 79.1767 44.4699" stroke="#263238" stroke-linecap="round" stroke-linejoin="round"/>
<path d="M75.4355 40.8597C75.4355 40.8597 77.4998 40.6808 78.4494 42.6074C78.4494 42.6074 78.8187 43.7543 77.3599 44.7313L75.72 44.4699L75.4355 40.8597Z" fill="#263238" stroke="#263238" stroke-linecap="round" stroke-linejoin="round"/>
<path d="M80.477 50.3255C80.3662 50.5549 80.2889 50.799 80.2476 51.0503C80.1903 51.4425 80.0848 51.8531 79.7178 51.5549" stroke="#263238" stroke-linecap="round" stroke-linejoin="round"/>
<path d="M66.2677 45.6809C65.9622 47.0657 65.8778 48.4901 66.0177 49.9012C66.2677 52.0802 67.1072 51.8554 67.8893 51.438C68.6714 51.0205 70.4582 48.5021 70.4582 48.5021C70.4582 48.5021 71.5201 47.9447 71.6325 47.3301C71.7449 46.7154 71.9674 47.2452 72.1623 47.1007C72.3573 46.9562 71.933 45.3139 71.7724 45.2291C71.5819 45.1564 71.3854 45.1004 71.1853 45.0616C71.1853 45.0616 71.4146 44.5869 71.1577 44.4745C70.9008 44.3621 70.6554 45.2016 70.1233 45.5639C69.5912 45.9263 69.5659 47.353 69.5659 47.353L68.2242 48.5319C68.2242 48.5319 68.9788 46.7979 68.8389 45.5984L67.6737 45.0938L66.2677 45.6809Z" fill="white" stroke="#263238" stroke-linecap="round" stroke-linejoin="round"/>
<path d="M67.3848 49.314L67.9719 48.7544" stroke="#263238" stroke-linecap="round" stroke-linejoin="round"/>
<path d="M70.123 45.5685L71.185 45.0662" stroke="#263238" stroke-linecap="round" stroke-linejoin="round"/>
<path d="M67.9557 42.0501C67.9557 42.0501 66.0451 42.5524 66.0176 45.9332C66.0176 45.9332 67.8525 45.5685 68.8112 46.1006C68.8112 46.1006 69.4993 45.0937 69.286 43.9492C69.0727 42.8047 67.9557 42.0501 67.9557 42.0501Z" fill="#263238" stroke="#263238" stroke-linecap="round" stroke-linejoin="round"/>
<path d="M70.5614 40.0523C70.5614 40.0523 70.4582 42.2106 71.8023 42.2106C73.5156 42.2106 73.4078 40.2542 73.4078 40.2542L70.5614 40.0523Z" fill="white" stroke="#263238" stroke-linecap="round" stroke-linejoin="round"/>
<path d="M70.3527 38.0247C70.3527 38.0247 70.2839 39.9308 70.6119 40.4308C70.9399 40.9308 71.8481 41.651 72.5523 41.651C73.2564 41.651 74.1326 40.7335 74.1854 40.378C74.2381 40.0225 74.1854 37.6257 74.1854 37.6257C74.1854 37.6257 74.0821 35.7518 72.5523 35.7518C71.0224 35.7518 70.3412 36.8894 70.3527 38.0247Z" fill="white" stroke="#263238" stroke-linecap="round" stroke-linejoin="round"/>
<path d="M70.3506 38.1899C70.3025 38.1322 70.2392 38.089 70.168 38.0651C70.0967 38.0412 70.0202 38.0375 69.947 38.0546C69.7176 38.128 69.6327 38.4468 69.7382 38.7702C69.8438 39.0936 70.1098 39.2931 70.33 39.2289L70.369 39.2106C70.3438 38.7954 70.3461 38.3986 70.3506 38.1899Z" fill="white" stroke="#263238" stroke-linecap="round" stroke-linejoin="round"/>
<path d="M74.5453 38.0545C74.4841 38.0388 74.42 38.0386 74.3588 38.0538C74.2975 38.069 74.241 38.0992 74.1943 38.1417C74.1943 38.4468 74.2058 38.8481 74.2081 39.2289C74.4168 39.261 74.6531 39.0683 74.7517 38.7702C74.8503 38.472 74.7655 38.1279 74.5453 38.0545Z" fill="white" stroke="#263238" stroke-linecap="round" stroke-linejoin="round"/>
<path d="M73.7721 35.9284C73.7721 35.9284 73.7377 34.8114 72.2766 34.7425C70.8156 34.6737 70.5426 34.9719 70.2491 34.5705C70.2491 34.5705 69.9922 35.4306 70.9371 35.3779C70.9371 35.3779 69.3316 35.6371 70.3523 38.0247C70.3523 38.0247 70.7651 36.5132 71.178 36.5637C71.5908 36.6142 73.1023 36.7518 73.5496 36.3917C73.5496 36.3917 73.6001 36.7862 74.1849 37.6302C74.1849 37.6302 74.6437 37.0201 74.4258 36.41C74.1964 35.7563 74.0106 35.4926 73.8937 35.1027C73.7904 34.754 73.7721 35.9284 73.7721 35.9284Z" fill="#263238"/>
<path d="M71.7268 38.1693C71.7268 38.2954 71.6603 38.3986 71.5823 38.3986C71.5044 38.3986 71.4355 38.2977 71.4355 38.1693C71.4355 38.0408 71.5021 37.9399 71.5823 37.9399C71.6626 37.9399 71.7268 38.0477 71.7268 38.1693Z" fill="#263238"/>
<path d="M73.4189 38.1693C73.4189 38.2954 73.3547 38.3986 73.2744 38.3986C73.1941 38.3986 73.1299 38.2977 73.1299 38.1693C73.1299 38.0408 73.1941 37.9399 73.2744 37.9399C73.3547 37.9399 73.4189 38.0477 73.4189 38.1693Z" fill="#263238"/>
<path d="M71.0176 37.6027C71.1573 37.5212 71.3188 37.4852 71.4799 37.4995C71.641 37.5139 71.7936 37.578 71.9167 37.683C72.3112 38.0592 72.3158 37.5867 72.3158 37.5867" stroke="#263238" stroke-linecap="round" stroke-linejoin="round"/>
<path d="M72.834 37.6601C72.834 37.6601 73.2927 37.2541 73.6528 37.4445" stroke="#263238" stroke-linecap="round" stroke-linejoin="round"/>
<path d="M72.0723 39.2817C72.1325 39.2671 72.1957 39.2702 72.2542 39.2905C72.3128 39.3109 72.3643 39.3476 72.4025 39.3963C72.547 39.5707 72.7925 39.4353 73.0104 39.2725" stroke="#263238" stroke-linecap="round" stroke-linejoin="round"/>
<path d="M72.6927 38.1555C72.6927 38.1555 72.4633 38.2426 72.8372 39.05" stroke="#263238" stroke-linecap="round" stroke-linejoin="round"/>
<path d="M72.2178 40.0844C72.3206 40.0413 72.4309 40.0191 72.5423 40.0191C72.6538 40.0191 72.7641 40.0413 72.8669 40.0844" stroke="#263238" stroke-linecap="round" stroke-linejoin="round"/>
<path d="M73.1297 41.4836C72.9531 41.5846 72.755 41.642 72.5517 41.651C71.8476 41.651 70.9462 40.9285 70.6113 40.4308C70.5933 40.4008 70.5779 40.3694 70.5654 40.3367C70.572 40.5059 70.5897 40.6745 70.6182 40.8413C70.9462 41.3368 71.843 42.0432 72.5403 42.0501C72.7889 41.9244 72.9942 41.7271 73.1297 41.4836Z" fill="#263238"/>
<path d="M67.8291 74.9409C67.8291 74.9409 68.7947 74.7482 69.1709 75.5808" stroke="#263238" stroke-linecap="round" stroke-linejoin="round"/>
<path d="M96.0319 40.6464C95.8576 40.3666 95.142 40.0042 93.7383 39.9858V34.7288C94.7934 34.7426 95.4608 35.0086 95.8026 35.2426C95.8681 35.2885 95.9215 35.3497 95.9583 35.4208C95.995 35.4919 96.014 35.5708 96.0136 35.6509L96.0319 40.6464Z" fill="#999999" stroke="#263238" stroke-linecap="round" stroke-linejoin="round"/>
<path d="M2.05664 45.1626C2.05664 45.1626 20.8874 37.7495 21.2475 45.1626C21.6076 52.5756 28.9817 44.6832 33.874 45.1626C38.7663 45.642 32.601 53.4311 54.4594 45.8713C73.4323 39.3092 72.7374 50.6765 82.1596 49.0549C89.6071 47.7727 96.6875 42.5318 96.0316 40.3391L95.9903 35.4811C96.0499 38.4629 89.6667 42.8827 82.1596 44.174C72.7374 45.7956 73.3452 34.1806 54.4594 40.9905C34.1148 48.3301 38.7686 40.7611 33.874 40.2817C28.9794 39.8024 21.6076 47.6925 21.2475 40.2817C20.8874 32.871 2.05664 40.2817 2.05664 40.2817V45.1626Z" fill="white" stroke="#263238" stroke-linecap="round" stroke-linejoin="round"/>
<path d="M45.9041 45.7864L45.9683 46.1075L45.2436 46.252L45.5142 47.6145L45.1633 47.6856L44.5371 44.5341L45.7871 44.2841L45.8514 44.6052L44.9523 44.7841L45.1816 45.9309L45.9041 45.7864Z" fill="#263238"/>
<path d="M46.7181 44.0731L47.4337 47.2039L47.0851 47.2842L46.3672 44.1534L46.7181 44.0731Z" fill="#263238"/>
<path d="M48.4979 46.9516L48.1882 47.0319L47.3809 43.9217L47.8212 43.807L49.124 45.8713L48.5414 43.6235L48.8465 43.5433L49.6447 46.6557L49.2846 46.7498L47.8373 44.4424L48.4979 46.9516Z" fill="#263238"/>
<path d="M49.8353 43.2589L50.7183 46.3461L50.3743 46.4447L49.4912 43.3575L49.8353 43.2589Z" fill="#263238"/>
<path d="M52.0349 43.3965L52.0625 43.4813L51.7368 43.58L51.7069 43.4813C51.6221 43.2038 51.4661 43.0754 51.2207 43.1511C50.9753 43.2268 50.9202 43.4217 51.0028 43.6924C51.2161 44.3804 52.2666 44.1281 52.5327 44.9906C52.6772 45.4493 52.5464 45.8277 52.0739 45.9722C51.6014 46.1167 51.2918 45.8828 51.1565 45.4172L51.1014 45.2429L51.4202 45.1442L51.4799 45.3369C51.567 45.6121 51.7299 45.7383 51.9753 45.6626C52.2207 45.5869 52.2849 45.3897 52.2047 45.1144C51.9937 44.4263 50.9478 44.6809 50.6794 43.8185C50.5349 43.346 50.6633 42.9836 51.1221 42.8414C51.5808 42.6992 51.8927 42.9332 52.0349 43.3965Z" fill="#263238"/>
<path d="M53.2458 44.0456L53.7046 45.4218L53.3651 45.5365L52.3398 42.4951L52.6793 42.3804L53.138 43.7566L53.8858 43.5043L53.427 42.1281L53.7665 42.0134L54.794 45.0502L54.4546 45.1626L53.9959 43.7864L53.2458 44.0456Z" fill="#263238"/>
</svg>
