<svg width="347" height="362" viewBox="0 0 347 362" fill="none" xmlns="http://www.w3.org/2000/svg">
<rect width="347" height="362" fill="#FEE3EC"/>
<path d="M131.837 35H126.46V20.4545H131.83C133.312 20.4545 134.588 20.7457 135.658 21.3281C136.732 21.9058 137.561 22.7391 138.143 23.8281C138.726 24.9124 139.017 26.2098 139.017 27.7202C139.017 29.2353 138.726 30.5374 138.143 31.6264C137.566 32.7154 136.74 33.5511 135.665 34.1335C134.59 34.7112 133.314 35 131.837 35ZM129.976 32.0028H131.702C132.516 32.0028 133.205 31.8655 133.768 31.5909C134.337 31.3116 134.765 30.8594 135.054 30.2344C135.348 29.6046 135.494 28.7666 135.494 27.7202C135.494 26.6738 135.348 25.8404 135.054 25.2202C134.76 24.5952 134.327 24.1454 133.754 23.8707C133.186 23.5914 132.485 23.4517 131.652 23.4517H129.976V32.0028ZM141.57 35V20.4545H151.712V23.3097H145.085V26.2926H151.193V29.1548H145.085V32.1449H151.712V35H141.57ZM166.793 20.4545V35H163.81L158.021 26.6051H157.929V35H154.413V20.4545H157.439L163.163 28.8352H163.284V20.4545H166.793ZM169.027 23.3097V20.4545H181.321V23.3097H176.911V35H173.445V23.3097H169.027ZM184.868 35H181.09L185.998 20.4545H190.678L195.586 35H191.807L188.391 24.1193H188.277L184.868 35ZM184.364 29.2756H192.262V31.946H184.364V29.2756ZM197.652 35V20.4545H201.167V32.1449H207.218V35H197.652ZM217.401 24.8153C217.353 24.2945 217.143 23.8897 216.768 23.6009C216.399 23.3073 215.871 23.1605 215.185 23.1605C214.73 23.1605 214.351 23.2197 214.048 23.3381C213.745 23.4564 213.518 23.6198 213.366 23.8281C213.215 24.0317 213.137 24.2661 213.132 24.5312C213.123 24.7491 213.165 24.9408 213.26 25.1065C213.359 25.2723 213.501 25.419 213.686 25.5469C213.875 25.67 214.103 25.7789 214.368 25.8736C214.633 25.9683 214.931 26.0511 215.263 26.1222L216.513 26.4062C217.232 26.5625 217.867 26.7708 218.416 27.0312C218.97 27.2917 219.434 27.6018 219.808 27.9616C220.187 28.3215 220.473 28.7358 220.668 29.2045C220.862 29.6733 220.961 30.1989 220.966 30.7812C220.961 31.6998 220.729 32.4882 220.27 33.1463C219.811 33.8045 219.15 34.3087 218.288 34.6591C217.431 35.0095 216.397 35.1847 215.185 35.1847C213.968 35.1847 212.907 35.0024 212.003 34.6378C211.098 34.2732 210.395 33.7192 209.893 32.9759C209.392 32.2325 209.134 31.2926 209.119 30.1562H212.486C212.514 30.625 212.64 31.0156 212.862 31.3281C213.085 31.6406 213.39 31.8774 213.778 32.0384C214.171 32.1993 214.626 32.2798 215.142 32.2798C215.616 32.2798 216.018 32.2159 216.349 32.0881C216.686 31.9602 216.944 31.7827 217.124 31.5554C217.304 31.3281 217.396 31.0677 217.401 30.7741C217.396 30.4995 217.311 30.2652 217.145 30.071C216.979 29.8722 216.723 29.7017 216.378 29.5597C216.037 29.4129 215.601 29.2779 215.071 29.1548L213.551 28.7997C212.292 28.5109 211.3 28.0445 210.575 27.4006C209.851 26.7519 209.491 25.8759 209.496 24.7727C209.491 23.8731 209.732 23.0848 210.22 22.4077C210.708 21.7306 211.383 21.2027 212.244 20.8239C213.106 20.4451 214.089 20.2557 215.192 20.2557C216.319 20.2557 217.296 20.4474 218.125 20.831C218.958 21.2098 219.605 21.7424 220.064 22.429C220.523 23.1155 220.758 23.911 220.767 24.8153H217.401Z" fill="#676767"/>
<path opacity="0.1" d="M52 47.5H287.646" stroke="#0080FF"/>
<path d="M299.945 233.208H297.549V232.798C297.547 231.679 297.102 230.606 296.311 229.815C295.519 229.024 294.447 228.578 293.328 228.577H291.705C290.585 228.577 289.511 229.021 288.719 229.813C287.926 230.604 287.48 231.678 287.479 232.798V233.208H285.088C284.769 233.207 284.452 233.269 284.157 233.391C283.862 233.513 283.593 233.692 283.368 233.918C283.142 234.144 282.963 234.412 282.841 234.707C282.719 235.003 282.656 235.319 282.657 235.639V246.713C282.657 247.358 282.913 247.976 283.369 248.432C283.825 248.888 284.443 249.144 285.088 249.144H299.945C300.589 249.143 301.207 248.886 301.662 248.431C302.118 247.975 302.374 247.358 302.376 246.713V235.639C302.376 234.994 302.12 234.376 301.664 233.92C301.208 233.464 300.59 233.208 299.945 233.208ZM288.633 232.798C288.635 231.984 288.959 231.204 289.535 230.629C290.111 230.055 290.892 229.732 291.705 229.732H293.328C294.141 229.732 294.921 230.055 295.496 230.63C296.071 231.205 296.394 231.985 296.394 232.798V233.208H288.633V232.798Z" fill="#263238"/>
<path d="M296.942 240.044H293.882V236.99H291.145V240.044H288.085V242.787H291.145V245.842H293.882V242.787H296.942V240.044Z" fill="white"/>
<path d="M295.211 167.21C294.735 167.21 294.264 167.116 293.824 166.933C293.385 166.751 292.985 166.484 292.649 166.147C292.313 165.81 292.046 165.411 291.865 164.971C291.683 164.531 291.59 164.059 291.591 163.583V153.814C291.59 153.338 291.683 152.866 291.865 152.426C292.046 151.987 292.313 151.587 292.649 151.25C292.985 150.913 293.385 150.646 293.824 150.464C294.264 150.281 294.735 150.187 295.211 150.188C295.687 150.187 296.158 150.281 296.598 150.464C297.038 150.646 297.437 150.913 297.773 151.25C298.109 151.587 298.376 151.987 298.558 152.426C298.739 152.866 298.832 153.338 298.832 153.814V163.566C298.835 164.044 298.743 164.517 298.563 164.959C298.382 165.401 298.116 165.802 297.779 166.141C297.443 166.48 297.043 166.748 296.602 166.932C296.161 167.115 295.689 167.21 295.211 167.21Z" fill="white" stroke="#263238" stroke-linecap="round" stroke-linejoin="round"/>
<path d="M295.211 167.21C294.735 167.21 294.264 167.116 293.824 166.933C293.385 166.751 292.985 166.484 292.649 166.147C292.313 165.81 292.046 165.411 291.865 164.971C291.683 164.531 291.59 164.059 291.591 163.583V158.704H298.832V163.583C298.832 164.059 298.739 164.531 298.558 164.971C298.376 165.411 298.109 165.81 297.773 166.147C297.437 166.484 297.038 166.751 296.598 166.933C296.158 167.116 295.687 167.21 295.211 167.21Z" fill="#263238" stroke="#263238" stroke-linecap="round" stroke-linejoin="round"/>
<path d="M276.999 152.82C276.701 152.449 276.48 152.022 276.348 151.564C276.216 151.106 276.175 150.627 276.229 150.154C276.283 149.681 276.429 149.223 276.661 148.806C276.892 148.39 277.203 148.023 277.576 147.728L285.181 141.619C285.934 141.02 286.894 140.745 287.85 140.853C288.806 140.961 289.679 141.444 290.28 142.196C290.878 142.948 291.153 143.907 291.045 144.862C290.937 145.817 290.454 146.69 289.702 147.289L282.092 153.392C281.72 153.689 281.293 153.91 280.836 154.043C280.379 154.175 279.9 154.216 279.427 154.162C278.954 154.109 278.496 153.963 278.079 153.733C277.663 153.503 277.296 153.193 276.999 152.82Z" fill="white" stroke="#263238" stroke-linecap="round" stroke-linejoin="round"/>
<path d="M276.999 152.82C276.701 152.449 276.48 152.022 276.348 151.564C276.216 151.106 276.175 150.627 276.229 150.154C276.283 149.681 276.429 149.223 276.661 148.806C276.892 148.39 277.203 148.023 277.576 147.728L281.382 144.673L285.914 150.326L282.109 153.375C281.738 153.676 281.311 153.9 280.853 154.035C280.394 154.17 279.914 154.213 279.439 154.162C278.964 154.11 278.504 153.965 278.085 153.735C277.666 153.505 277.297 153.194 276.999 152.82Z" fill="#263238" stroke="#263238" stroke-linecap="round" stroke-linejoin="round"/>
<path d="M240.789 126.236C240.337 126.237 239.897 126.378 239.53 126.641L231.117 120.11C231.529 119.347 231.723 118.485 231.676 117.619C231.629 116.752 231.344 115.916 230.851 115.202L235.99 108.631C236.425 108.799 236.902 108.823 237.352 108.7C237.802 108.577 238.2 108.313 238.489 107.947C238.778 107.581 238.942 107.132 238.957 106.667C238.972 106.201 238.838 105.742 238.574 105.358C238.31 104.974 237.93 104.685 237.49 104.532C237.049 104.38 236.571 104.372 236.126 104.511C235.681 104.649 235.292 104.927 235.016 105.303C234.741 105.678 234.592 106.132 234.593 106.599C234.59 107.048 234.73 107.486 234.991 107.852L229.991 114.255C229.32 113.69 228.506 113.324 227.639 113.196C226.771 113.069 225.886 113.185 225.081 113.533C224.276 113.881 223.584 114.446 223.083 115.165C222.582 115.884 222.29 116.729 222.242 117.604H216.399C216.335 117.085 216.087 116.607 215.7 116.255C215.314 115.904 214.814 115.703 214.291 115.689C213.769 115.675 213.259 115.849 212.854 116.179C212.448 116.509 212.175 116.973 212.084 117.488C211.992 118.002 212.088 118.533 212.354 118.982C212.62 119.432 213.039 119.771 213.534 119.939C214.029 120.106 214.568 120.09 215.052 119.893C215.537 119.697 215.935 119.333 216.174 118.869H222.352C222.533 119.708 222.939 120.483 223.527 121.108C224.115 121.734 224.862 122.188 225.689 122.421C226.516 122.654 227.39 122.657 228.218 122.43C229.046 122.203 229.797 121.754 230.389 121.132L238.756 127.639C238.591 128.074 238.569 128.549 238.694 128.996C238.818 129.444 239.082 129.84 239.448 130.126C239.813 130.413 240.261 130.575 240.725 130.589C241.189 130.603 241.645 130.468 242.028 130.205C242.41 129.941 242.697 129.562 242.849 129.123C243 128.684 243.007 128.208 242.869 127.764C242.73 127.321 242.454 126.934 242.08 126.659C241.705 126.384 241.253 126.236 240.789 126.236Z" fill="#263238"/>
<path d="M69.8927 167.279C69.1933 167.277 68.523 166.999 68.0285 166.504C67.5339 166.01 67.2554 165.339 67.2539 164.64V142.698H72.5315V164.64C72.5315 165.34 72.2534 166.011 71.7586 166.506C71.2637 167.001 70.5925 167.279 69.8927 167.279Z" fill="white" stroke="#263238" stroke-linecap="round" stroke-linejoin="round"/>
<path d="M69.8927 167.279C69.1933 167.277 68.523 166.999 68.0285 166.504C67.5339 166.01 67.2554 165.339 67.2539 164.64V151.146H72.5315V164.64C72.5315 165.34 72.2534 166.011 71.7586 166.506C71.2637 167.001 70.5925 167.279 69.8927 167.279Z" fill="#263238" stroke="#263238" stroke-linecap="round" stroke-linejoin="round"/>
<path d="M73.2885 141.417H66.5039V143.339H73.2885V141.417Z" fill="white" stroke="#263238" stroke-linecap="round" stroke-linejoin="round"/>
<path d="M61.8946 167.279C61.1953 167.277 60.525 166.999 60.0304 166.504C59.5359 166.01 59.2574 165.339 59.2559 164.64V142.698H64.5334V164.64C64.5334 165.34 64.2554 166.011 63.7605 166.506C63.2657 167.001 62.5945 167.279 61.8946 167.279Z" fill="white" stroke="#263238" stroke-linecap="round" stroke-linejoin="round"/>
<path d="M61.8946 167.279C61.1953 167.277 60.525 166.999 60.0304 166.504C59.5359 166.01 59.2574 165.339 59.2559 164.64V151.146H64.5334V164.64C64.5334 165.34 64.2554 166.011 63.7605 166.506C63.2657 167.001 62.5945 167.279 61.8946 167.279Z" fill="#263238" stroke="#263238" stroke-linecap="round" stroke-linejoin="round"/>
<path d="M65.2905 141.417H58.5059V143.339H65.2905V141.417Z" fill="white" stroke="#263238" stroke-linecap="round" stroke-linejoin="round"/>
<path d="M138.027 119.787L140.129 114.74C140.165 114.659 140.224 114.59 140.299 114.543C140.374 114.495 140.462 114.472 140.55 114.474C140.639 114.479 140.725 114.511 140.795 114.565C140.865 114.62 140.917 114.695 140.943 114.78L143.49 123.176L145.43 116.992C145.456 116.905 145.51 116.829 145.582 116.774C145.655 116.719 145.743 116.688 145.834 116.686C145.924 116.688 146.011 116.717 146.085 116.768C146.159 116.82 146.216 116.891 146.25 116.975L147.329 120.081H153.167C154.362 118.833 155.056 117.189 155.119 115.462C155.13 113.849 154.544 112.289 153.475 111.081C152.406 109.873 150.928 109.103 149.326 108.918C147.723 108.733 146.109 109.147 144.793 110.08C143.477 111.013 142.552 112.399 142.196 113.972C141.829 112.41 140.901 111.037 139.588 110.114C138.275 109.192 136.669 108.784 135.074 108.969C133.48 109.154 132.01 109.918 130.942 111.116C129.875 112.314 129.285 113.863 129.285 115.468C129.349 117.067 129.949 118.598 130.989 119.816L138.027 119.787Z" fill="#263238"/>
<path d="M147.024 120.947C146.934 120.948 146.846 120.92 146.773 120.868C146.699 120.817 146.644 120.743 146.614 120.659L145.863 118.499L143.894 124.775C143.866 124.864 143.811 124.941 143.736 124.996C143.661 125.051 143.571 125.081 143.478 125.082C143.385 125.081 143.295 125.051 143.221 124.994C143.147 124.938 143.093 124.859 143.068 124.77L140.464 116.184L138.732 120.387C138.699 120.466 138.644 120.533 138.573 120.58C138.502 120.627 138.419 120.653 138.334 120.653H131.688C133.114 122.246 134.892 123.655 136.22 124.966C138.23 126.952 140.199 129.008 142.248 130.925C144.876 128.332 147.52 125.728 150.124 123.136C150.846 122.414 151.631 121.698 152.359 120.947H147.024Z" fill="#263238"/>
<path d="M49.6189 250.007L52.4502 250.989L55.5138 242.157L52.6825 241.175L49.6189 250.007Z" fill="white" stroke="#263238" stroke-miterlimit="10"/>
<path d="M48.2768 251.409L52.6465 252.925L53.2236 251.261L48.854 249.745L48.2768 251.409Z" fill="white" stroke="#263238" stroke-miterlimit="10"/>
<path d="M49.5605 243.447L56.5596 245.875L62.1096 229.875L55.1105 227.447L49.5605 243.447Z" fill="white" stroke="#263238" stroke-miterlimit="10"/>
<path d="M52.9638 236.603L58.1299 238.395L61.1934 229.563L56.0273 227.771L52.9638 236.603Z" fill="#263238" stroke="#263238" stroke-miterlimit="10"/>
<path d="M52.0496 243.005L54.8809 243.987L57.9444 235.155L55.1131 234.173L52.0496 243.005Z" fill="#263238" stroke="#263238" stroke-miterlimit="10"/>
<path d="M49.067 243.28L57.0645 246.054L57.7589 244.052L49.7615 241.278L49.067 243.28Z" fill="white" stroke="#263238" stroke-miterlimit="10"/>
<path d="M56.8175 227.114L60.9854 228.559L61.9107 225.892L57.7428 224.446L56.8175 227.114Z" fill="white" stroke="#263238" stroke-miterlimit="10"/>
<path d="M54.4411 227.778L62.4385 230.552L63.1329 228.55L55.1355 225.776L54.4411 227.778Z" fill="white" stroke="#263238" stroke-miterlimit="10"/>
<path d="M59.8682 224.807L63.2172 215.141" stroke="#263238" stroke-miterlimit="10"/>
<path d="M246.072 344.937C262.76 344.937 276.288 341.887 276.288 338.124C276.288 334.361 262.76 331.31 246.072 331.31C229.385 331.31 215.856 334.361 215.856 338.124C215.856 341.887 229.385 344.937 246.072 344.937Z" fill="#263238" stroke="#263238" stroke-linecap="round" stroke-linejoin="round"/>
<path d="M222.774 184.116C222.774 184.116 218.686 186.616 218.732 187.713C218.779 188.81 217.208 208.818 217.029 211.318C216.85 213.818 214.471 218.98 214.286 221.325C214.102 223.669 214.69 226.019 215.378 227.099C216.065 228.178 218.588 231.631 218.588 231.631L225.373 221.151C225.539 218.863 225.574 216.567 225.477 214.274C225.373 209.28 222.774 184.116 222.774 184.116Z" fill="white" stroke="#263238" stroke-linecap="round" stroke-linejoin="round"/>
<path d="M248.88 134.539C248.88 134.539 241.662 134.077 237.551 139.084C233.44 144.09 234.323 151.746 234.294 154.096C234.265 156.446 227.284 163.335 228.058 166.141C228.832 168.947 230.887 169.265 230.229 171.609C229.571 173.954 225.275 175.362 225.899 178.336C226.522 181.31 228.786 185.525 228.786 185.525L270.359 185.808C270.359 185.808 271.843 181.431 270.261 178.146C268.679 174.86 266.433 173.775 266.797 172.21C267.16 170.645 269.17 166.892 268.396 164.08C267.622 161.268 264.932 160.488 264.649 155.482C264.366 150.476 263.627 142.202 259.654 138.16C255.682 134.118 248.88 134.539 248.88 134.539Z" fill="#263238" stroke="#263238" stroke-linecap="round" stroke-linejoin="round"/>
<path d="M236.094 327.459C234.818 329.919 233.268 332.228 231.475 334.341C228.819 337.315 226.244 338.88 226.33 340.445C226.417 342.009 232.214 342.316 235.28 341.218C238.346 340.121 240.575 337.933 241.193 337.754C241.811 337.575 243.537 337.754 243.578 335.56C243.618 333.366 243.283 327.118 243.283 327.118L236.094 327.459Z" fill="white" stroke="#263238" stroke-linecap="round" stroke-linejoin="round"/>
<path d="M235.269 341.218C238.34 340.121 240.563 337.933 241.181 337.754C241.799 337.575 243.525 337.754 243.566 335.56C243.566 334.405 243.502 332.095 243.422 330.207C242.967 331.059 242.295 331.775 241.473 332.283C240.651 332.79 239.71 333.07 238.745 333.094C238.745 333.094 238.687 331.997 237.012 330.126C235.933 328.902 234.841 329.866 234.206 330.704L233.692 331.477L233.652 331.553C232.985 332.536 232.256 333.475 231.469 334.365C228.813 337.338 226.238 338.903 226.324 340.468C226.411 342.033 232.202 342.316 235.269 341.218Z" fill="white" stroke="#263238" stroke-linecap="round" stroke-linejoin="round"/>
<path d="M257.488 327.447C259.039 329.916 260.839 332.22 262.858 334.324C265.832 337.292 268.574 338.851 268.632 340.416C268.69 341.981 262.95 342.292 259.763 341.201C256.576 340.11 254.116 337.921 253.486 337.765C252.857 337.61 251.136 337.765 250.865 335.583C250.594 333.4 250.253 327.141 250.253 327.141L257.488 327.447Z" fill="white" stroke="#263238" stroke-linecap="round" stroke-linejoin="round"/>
<path d="M259.786 341.201C256.605 340.11 254.139 337.921 253.51 337.766C252.88 337.61 251.16 337.766 250.888 335.583C250.744 334.428 250.582 332.118 250.461 330.225C250.995 331.071 251.728 331.774 252.597 332.271C253.466 332.769 254.443 333.045 255.444 333.077C255.444 333.077 255.386 331.98 256.847 330.103C257.8 328.885 258.995 329.843 259.734 330.681C259.925 330.935 260.121 331.189 260.312 331.454L260.364 331.529C261.14 332.511 261.968 333.45 262.846 334.341C265.82 337.309 268.563 338.868 268.621 340.433C268.678 341.998 262.973 342.292 259.786 341.201Z" fill="white" stroke="#263238" stroke-linecap="round" stroke-linejoin="round"/>
<path d="M223.536 244.929C223.536 244.929 224.5 277.443 225.782 283.852C227.064 290.262 232.786 326.997 232.786 326.997C234.535 327.737 236.419 328.106 238.318 328.082H244.571L245.149 300.724L245.362 261.016L248.498 328.232C248.498 328.232 257.113 328.538 258.042 328.383C258.972 328.227 259.746 328.071 259.746 328.071L265.283 285.544L268.453 257.251L268.626 245.997C268.626 245.997 242.158 245.079 234.467 244.456C226.775 243.832 223.611 243.676 223.611 243.676L223.536 244.929Z" fill="#FA5087" stroke="#263238" stroke-linecap="round" stroke-linejoin="round"/>
<path d="M259.278 302.336C259.209 302.878 259.139 303.381 259.059 303.843" stroke="#263238" stroke-linecap="round" stroke-linejoin="round"/>
<path d="M259.988 263.193C259.988 263.193 260.525 286.359 259.584 298.935" stroke="#263238" stroke-linecap="round" stroke-linejoin="round"/>
<path d="M231.607 261.333C231.607 261.333 232.271 276.658 232.93 280.094" stroke="#263238" stroke-linecap="round" stroke-linejoin="round"/>
<path d="M256.281 251.569V263.268C257.78 263.671 259.313 263.936 260.86 264.059C263.233 264.215 267.662 264.059 267.662 264.059L267.98 259.63L256.281 251.569Z" fill="#263238" stroke="#263238" stroke-linecap="round" stroke-linejoin="round"/>
<path d="M224.028 260.577C224.028 260.577 230.038 262.477 232.567 262.633C235.097 262.789 237.464 263.106 237.464 263.106L237.152 259.948L223.71 258.683L224.028 260.577Z" fill="#263238" stroke="#263238" stroke-linecap="round" stroke-linejoin="round"/>
<path d="M242.272 171.754L237.555 177.072L224.471 186.616L227.26 244.467C227.26 244.467 237.688 247.273 246.638 248.053C255.587 248.832 267.095 246.783 267.095 246.783L265.403 186.154C265.403 186.154 260.311 178.648 257.701 176.621C255.091 174.595 253.896 172.718 250.437 172.406C246.978 172.094 242.272 171.754 242.272 171.754Z" fill="#FA5087" stroke="#263238" stroke-linecap="round" stroke-linejoin="round"/>
<path d="M236.799 174.6L222.773 184.145L224.973 219.315L224.228 222.849L218.333 229.639L220.845 241.569L219.725 258.4C219.725 258.4 225.297 260.277 229.073 260.739C231.885 261.04 234.71 261.196 237.538 261.206L238.023 238.225C238.023 238.225 239.888 200.076 240.107 198.384C240.327 196.692 242.273 171.823 242.273 171.823L236.799 174.6Z" fill="white" stroke="#263238" stroke-linecap="round" stroke-linejoin="round"/>
<path d="M237.025 176.038L230.234 193.066L237.562 196.109L230.644 197.368L236.771 221.371" stroke="#263238" stroke-linecap="round" stroke-linejoin="round"/>
<path d="M241.096 167.221C241.096 167.221 243.532 183.475 245.449 187.228C247.366 190.981 247.909 192.229 247.909 192.229C247.909 192.229 252.078 179.56 252.915 177.684C253.753 175.807 254.648 169.086 254.648 169.086C254.648 169.086 246.339 171.748 241.096 167.221Z" fill="white" stroke="#263238" stroke-linecap="round" stroke-linejoin="round"/>
<path d="M241.096 167.221C241.096 167.221 241.315 168.699 241.673 170.864C242.891 171.794 246.119 174.092 248.504 174.213C250.323 174.306 252.632 173.128 254.168 172.187C254.445 170.483 254.636 169.086 254.636 169.086C254.636 169.086 246.339 171.748 241.096 167.221Z" fill="#263238" stroke="#263238" stroke-linecap="round" stroke-linejoin="round"/>
<path d="M237.786 155.985C237.786 155.985 236.124 153.617 235.003 155.985C233.883 158.352 236.736 161.857 237.532 162.336C239.796 163.681 239.195 161.181 239.195 161.181L237.786 155.985Z" fill="white" stroke="#263238" stroke-linecap="round" stroke-linejoin="round"/>
<path d="M258.441 157.007C258.441 157.007 259.844 154.558 261.218 156.868C262.592 159.178 260.115 162.81 259.376 163.324C257.263 164.784 257.598 162.278 257.598 162.278L258.441 157.007Z" fill="white" stroke="#263238" stroke-linecap="round" stroke-linejoin="round"/>
<path d="M237.395 153.894C237.395 153.894 243.423 152.485 246.46 150.69C248.32 149.566 249.943 148.089 251.235 146.342C251.235 146.342 253.845 151.273 256.143 153.271C258.441 155.269 258.92 155.384 258.92 155.384C258.92 155.384 257.818 164.016 256.57 167.019C255.323 170.021 251.252 172.943 247.453 172.1C245.294 171.627 241.552 170.068 240.466 167.44C239.381 164.813 237.395 153.894 237.395 153.894Z" fill="white" stroke="#263238" stroke-linecap="round" stroke-linejoin="round"/>
<path d="M252.777 160.529C250.906 160.575 244.641 160.586 241.407 158.635C240.111 157.88 238.898 156.992 237.787 155.984C237.903 156.562 238.041 157.284 238.191 158.034L238.896 158.548L240.663 165.223L239.837 165.402C240.011 166.084 240.221 166.757 240.466 167.417C241.552 170.044 245.293 171.604 247.453 172.077C251.247 172.914 255.306 170.01 256.565 167.013C256.267 166.431 256.18 165.764 256.316 165.125C256.68 163.237 257.13 159.928 257.13 159.928L258.418 158.773C258.487 158.352 258.545 157.948 258.603 157.578C257.044 158.658 254.122 160.494 252.777 160.529Z" fill="#FA5087" stroke="#263238" stroke-linecap="round" stroke-linejoin="round"/>
<path d="M245.899 157.74C245.899 157.74 243.884 155.292 241.239 155.517" stroke="#263238" stroke-linecap="round" stroke-linejoin="round"/>
<path d="M251.09 158.225C251.733 157.549 252.532 157.041 253.416 156.745C254.301 156.449 255.245 156.374 256.165 156.527" stroke="#263238" stroke-linecap="round" stroke-linejoin="round"/>
<path d="M240.079 154.293C240.079 154.293 242.966 153.138 245.524 153.681" stroke="#263238" stroke-linecap="round" stroke-linejoin="round"/>
<path d="M251.327 154.31C252.088 153.921 252.949 153.776 253.795 153.894C254.641 154.012 255.431 154.387 256.056 154.968" stroke="#263238" stroke-linecap="round" stroke-linejoin="round"/>
<path d="M243.959 156.937C243.972 157.026 243.967 157.116 243.945 157.203C243.923 157.29 243.885 157.372 243.831 157.444C243.777 157.516 243.71 157.576 243.633 157.622C243.556 157.668 243.47 157.698 243.382 157.711C243.201 157.691 243.035 157.602 242.917 157.464C242.799 157.326 242.738 157.148 242.746 156.966C242.733 156.877 242.736 156.787 242.758 156.699C242.78 156.612 242.819 156.53 242.872 156.458C242.926 156.386 242.994 156.325 243.071 156.28C243.149 156.234 243.235 156.204 243.324 156.192C243.504 156.214 243.669 156.303 243.787 156.441C243.905 156.579 243.966 156.756 243.959 156.937Z" fill="#263238"/>
<path d="M254.416 157.688C254.431 157.777 254.429 157.868 254.408 157.956C254.387 158.044 254.348 158.127 254.294 158.199C254.24 158.272 254.172 158.332 254.093 158.377C254.015 158.423 253.928 158.451 253.838 158.462C253.658 158.443 253.492 158.356 253.374 158.218C253.256 158.081 253.195 157.904 253.203 157.723C253.188 157.634 253.191 157.542 253.211 157.454C253.232 157.366 253.271 157.284 253.325 157.211C253.379 157.139 253.448 157.078 253.526 157.033C253.604 156.988 253.691 156.959 253.781 156.949C253.961 156.968 254.127 157.055 254.245 157.192C254.363 157.33 254.424 157.507 254.416 157.688Z" fill="#263238"/>
<path d="M269.966 180.802C269.966 180.802 273.332 182.361 274.585 184.844C275.838 187.327 285.856 214.228 285.81 216.261C285.764 218.293 282.449 220.637 279.343 220.955C276.237 221.273 271.71 215.643 271.034 214.707C270.358 213.772 270.237 202.824 270.237 202.824L269.966 180.802Z" fill="white" stroke="#263238" stroke-linecap="round" stroke-linejoin="round"/>
<path d="M254.099 173.619L255.738 227.399L256.316 261.322C259.46 262.095 262.681 262.511 265.918 262.563C268.618 262.62 271.303 262.141 273.817 261.154C273.817 261.154 272.836 240.05 272.662 236.609C272.489 233.167 271.346 226.602 271.346 226.602L269.983 180.802C269.983 180.802 257.297 174.866 254.099 173.619Z" fill="white" stroke="#263238" stroke-linecap="round" stroke-linejoin="round"/>
<path d="M257.702 176.587L263.516 195.555L258.216 196.992L263.372 199.493L256.939 219.927" fill="white"/>
<path d="M257.702 176.587L263.516 195.555L258.216 196.992L263.372 199.493L256.939 219.927" stroke="#263238" stroke-linecap="round" stroke-linejoin="round"/>
<path d="M261.755 193.938L254.543 228.49C254.543 228.49 259.474 230.049 263.077 230.222C266.68 230.396 274.187 230.373 274.187 230.373L281.693 198.165C281.693 198.165 266.917 196.75 261.755 193.938Z" fill="#263238" stroke="#263238" stroke-linecap="round" stroke-linejoin="round"/>
<path d="M264.268 226.14L264.504 215.343L270.226 216.549C270.226 216.549 266.444 224.881 264.268 226.14Z" fill="white" stroke="#263238" stroke-linecap="round" stroke-linejoin="round"/>
<path d="M268.65 211.439C268.65 211.439 267.126 209.257 266.635 208.783C266.144 208.31 263.719 206.912 263.251 206.912C262.784 206.912 260.272 206.756 259.787 206.756C259.302 206.756 258.753 207.853 259.25 208.321C259.747 208.789 261.473 208.945 261.473 208.945L262.657 210.677L257.316 210.209C257.316 210.209 256.426 211.15 256.629 211.942C256.78 212.477 256.973 213.001 257.206 213.506C257.186 214.654 257.245 215.802 257.385 216.942C257.593 217.883 258.54 218.195 259.839 218.974C261.138 219.754 265.486 219.286 265.486 219.286H267.495L268.65 211.439Z" fill="white" stroke="#263238" stroke-linecap="round" stroke-linejoin="round"/>
<path d="M281.671 212.525L267.813 210.66C267.813 210.66 266.733 219.575 265.642 222.543C264.551 225.511 264.268 226.14 264.268 226.14C264.268 226.14 278.789 225.817 282.214 225.505C285.638 225.193 287.56 223.155 287.41 220.343C287.26 217.531 285.545 214.713 285.545 214.713" fill="white"/>
<path d="M281.671 212.525L267.813 210.66C267.813 210.66 266.733 219.575 265.642 222.543C264.551 225.511 264.268 226.14 264.268 226.14C264.268 226.14 278.789 225.817 282.214 225.505C285.638 225.193 287.56 223.155 287.41 220.343C287.26 217.531 285.545 214.713 285.545 214.713" stroke="#263238" stroke-linecap="round" stroke-linejoin="round"/>
<path d="M223.883 222.26C223.883 222.26 227.116 224.287 227.925 224.916C228.733 225.545 228.803 229.605 229.316 230.384C229.83 231.164 229.224 231.637 228.289 231.637C227.353 231.637 225.939 228.669 225.939 228.669L225.881 227.572L219.275 229.766L217.543 226.798C217.543 226.798 219.506 222.26 223.883 222.26Z" fill="white" stroke="#263238" stroke-linecap="round" stroke-linejoin="round"/>
<path d="M175.761 344.937C192.449 344.937 205.977 341.887 205.977 338.124C205.977 334.361 192.449 331.31 175.761 331.31C159.073 331.31 145.545 334.361 145.545 338.124C145.545 341.887 159.073 344.937 175.761 344.937Z" fill="#263238" stroke="#263238" stroke-linecap="round" stroke-linejoin="round"/>
<path d="M199.36 176.211C199.36 176.211 203.321 196.091 204.025 199.77C204.73 203.448 206.023 212.19 207.49 216.024C208.956 219.858 208.477 224.766 207.744 226.146C207.008 227.345 206.164 228.474 205.22 229.518L200.301 223.103C200.301 223.103 197.373 191.669 197.264 187.217C197.154 182.765 199.36 176.211 199.36 176.211Z" fill="white" stroke="#263238" stroke-linecap="round" stroke-linejoin="round"/>
<path d="M201.97 222.318C201.97 222.318 205.088 224.264 205.637 225.089C206.186 225.915 206.578 226.966 206.151 227.861C205.724 228.756 203.397 231.458 202.808 231.984C202.219 232.509 201.722 230.413 201.653 228.611C201.584 226.81 201.97 222.318 201.97 222.318Z" fill="white" stroke="#263238" stroke-linecap="round" stroke-linejoin="round"/>
<path d="M185.202 331.333C185.202 331.333 194.977 336.085 195.595 337.009C196.213 337.933 193.984 339.163 188.158 339.163C182.332 339.163 182.159 338.395 179.843 337.783C177.528 337.171 172.914 337.627 172.291 336.247C171.667 334.867 172.753 330.115 172.753 330.115L185.202 331.333Z" fill="white" stroke="#263238" stroke-linecap="round" stroke-linejoin="round"/>
<path d="M172.221 333.787C172.221 333.787 180.305 338.695 179.595 340.381C178.885 342.067 173.041 342.067 169.964 341.605C166.886 341.143 160.344 336.986 159.998 335.473C159.651 333.96 160.517 331.639 165.258 331.183C169.998 330.727 172.221 333.787 172.221 333.787Z" fill="white" stroke="#263238" stroke-linecap="round" stroke-linejoin="round"/>
<path d="M196.761 253.59C196.761 253.59 192.142 289.165 191.339 294.379C190.536 299.593 187.99 307.873 186.616 314.161C185.837 317.859 185.259 321.596 184.884 325.357C184.743 326.426 184.768 327.511 184.959 328.573C185.155 330.109 185.184 331.333 185.184 331.333C183.128 331.849 181.035 332.208 178.925 332.407C176.32 332.563 172.793 332.563 172.793 332.563L171.638 322.597C171.638 322.597 172.498 307.873 173.006 303.583C173.514 299.292 174.057 265.554 174.034 264.63C174.011 263.707 173.809 255.582 173.809 255.582L189.543 253.896C189.543 253.896 191.691 247.764 194.919 248.07C198.147 248.376 196.761 253.59 196.761 253.59Z" fill="white" stroke="#263238" stroke-linecap="round" stroke-linejoin="round"/>
<path d="M194.943 248.07C191.715 247.764 189.567 253.896 189.567 253.896L173.815 255.582C173.815 255.582 173.867 257.742 173.919 259.959C175.6 260.109 177.153 260.196 178.481 260.196C183.528 260.188 188.57 259.904 193.586 259.347L194.262 252.28L195.318 259.48L196.046 259.243C196.496 255.813 196.785 253.579 196.785 253.579C196.785 253.579 198.171 248.376 194.943 248.07Z" fill="#263238" stroke="#263238" stroke-linecap="round" stroke-linejoin="round"/>
<path d="M157.383 254.664C157.383 254.664 157.383 254.884 157.417 255.282C157.631 259.474 158.901 283.766 159.288 288.247C159.721 293.155 157.556 298.519 157.666 302.965C157.775 307.411 158.821 331.489 158.821 331.489L159.975 335.473C159.975 335.473 162.689 333.637 165.293 333.637C167.897 333.637 172.222 333.787 172.222 333.787C172.222 333.787 172.448 330.565 172.424 329.497C172.401 328.429 172.303 324.589 172.303 324.589C172.303 324.589 176.709 304.501 176.974 302.815C177.24 301.129 180.658 271.992 180.635 271.057C180.612 270.122 181.357 257.101 181.357 257.101L157.383 254.664Z" fill="white" stroke="#263238" stroke-linecap="round" stroke-linejoin="round"/>
<path d="M181.195 260.167C181.293 258.389 181.363 257.118 181.363 257.118L157.383 254.664C157.383 254.664 157.383 254.884 157.417 255.282C157.417 255.79 157.481 256.593 157.539 257.592C163.145 258.596 172.875 260.179 178.481 260.179C179.405 260.196 180.306 260.184 181.195 260.167Z" fill="#263238" stroke="#263238" stroke-linecap="round" stroke-linejoin="round"/>
<path d="M175.051 160.511C175.051 160.511 172.516 160.939 171.552 162.07C170.586 163.171 169.716 164.354 168.954 165.604C168.821 166.032 153.912 175.08 153.912 175.08L154.986 218.224C154.986 218.224 155.431 224.87 154.64 227.133C153.303 231.584 152.655 236.212 152.717 240.858C152.856 246.373 153.214 255.294 153.214 255.294C153.214 255.294 170.276 258.689 178.481 258.689C183.528 258.677 188.571 258.39 193.586 257.829L194.262 250.755L195.29 257.973L198.794 256.818L201.681 235.454C201.681 235.454 203.691 230.927 203.668 229.934C203.645 228.941 204.176 227.67 203.593 226.822C203.01 225.973 201.97 224.275 201.97 224.275C201.97 224.275 199.36 177.487 199.36 176.211C199.36 174.935 191.64 167.446 191.069 167.163C190.497 166.88 186.975 161.643 182.407 160.234C177.84 158.825 175.051 160.511 175.051 160.511Z" fill="white" stroke="#263238" stroke-linecap="round" stroke-linejoin="round"/>
<path d="M170.403 167.019L168.693 182.557L175.715 185.819L173.959 191.091L191.518 221.948" stroke="#263238" stroke-linecap="round" stroke-linejoin="round"/>
<path d="M190.018 168.763L195.284 181.056L193.026 184.064L196.791 189.33L195.284 223.201" stroke="#263238" stroke-linecap="round" stroke-linejoin="round"/>
<path d="M174.398 162.636C174.526 165.668 175.076 168.666 176.033 171.546C177.551 175.79 187.615 205.07 187.615 205.07L194.123 227.982C194.123 227.982 193.262 204.643 193.239 203.656C193.216 202.668 188.308 170.27 188.308 170.27C188.308 170.27 187.471 165.038 186.149 163.058C184.826 161.077 175.963 157.399 174.398 162.636Z" fill="#FA5087" stroke="#263238" stroke-linecap="round" stroke-linejoin="round"/>
<path d="M173.775 160.373C173.775 160.373 169.681 160.794 170.403 167.019C171.124 173.243 172.077 177.487 172.077 177.487" stroke="#263238" stroke-width="2" stroke-linecap="round" stroke-linejoin="round"/>
<path d="M171.575 185.692C171.575 185.692 173.307 192.904 174.491 194.885C175.675 196.865 179.255 198.846 181.801 198.846" stroke="#263238" stroke-linecap="round" stroke-linejoin="round"/>
<path d="M177.05 183.995C177.05 183.995 178.955 192.338 179.273 193.897C179.59 195.456 178.539 198.419 176.772 201.404" stroke="#263238" stroke-linecap="round" stroke-linejoin="round"/>
<path d="M176.263 202.391C176.081 202.291 175.947 202.123 175.888 201.924C175.83 201.725 175.853 201.511 175.951 201.329L176.154 200.959C176.203 200.871 176.27 200.793 176.35 200.731C176.43 200.669 176.522 200.623 176.62 200.597C176.717 200.571 176.82 200.564 176.92 200.578C177.02 200.591 177.117 200.625 177.204 200.676C177.386 200.776 177.521 200.944 177.581 201.143C177.64 201.341 177.619 201.555 177.522 201.739L177.32 202.103C177.27 202.192 177.203 202.27 177.123 202.333C177.042 202.395 176.95 202.442 176.852 202.468C176.754 202.495 176.651 202.502 176.55 202.489C176.449 202.476 176.351 202.443 176.263 202.391Z" fill="#263238"/>
<path d="M182.748 199.002C182.748 199.104 182.728 199.204 182.688 199.298C182.648 199.392 182.59 199.477 182.516 199.547C182.443 199.618 182.356 199.673 182.261 199.709C182.166 199.745 182.065 199.762 181.963 199.758H181.541C181.334 199.754 181.136 199.668 180.991 199.518C180.846 199.369 180.766 199.169 180.768 198.961C180.767 198.86 180.787 198.759 180.826 198.666C180.865 198.572 180.923 198.487 180.995 198.416C181.068 198.346 181.155 198.29 181.25 198.254C181.344 198.218 181.446 198.201 181.547 198.205H181.969C182.176 198.211 182.374 198.297 182.519 198.446C182.665 198.595 182.747 198.794 182.748 199.002Z" fill="#263238"/>
<path d="M171.586 186.258L170.616 180.109C170.508 179.475 170.645 178.823 171 178.287C171.355 177.751 171.901 177.37 172.527 177.222V177.222C173.202 177.068 173.91 177.182 174.502 177.54C175.094 177.897 175.525 178.471 175.703 179.139L177.36 185.259" stroke="#263238" stroke-width="2" stroke-linecap="round" stroke-linejoin="round"/>
<path d="M194.411 190.414C195.801 190.275 196.798 188.863 196.637 187.261C196.477 185.658 195.22 184.472 193.83 184.611C192.44 184.751 191.444 186.163 191.604 187.765C191.765 189.367 193.021 190.554 194.411 190.414Z" fill="white" stroke="#263238" stroke-linecap="round" stroke-linejoin="round"/>
<path d="M187.31 162.965C187.31 162.965 192.87 170.789 194.643 186.738" stroke="#263238" stroke-width="2" stroke-linecap="round" stroke-linejoin="round"/>
<path d="M194.79 188.584C195.549 188.513 196.098 187.738 196.015 186.852C195.933 185.966 195.251 185.305 194.492 185.376C193.733 185.446 193.185 186.222 193.267 187.108C193.35 187.994 194.032 188.654 194.79 188.584Z" fill="white" stroke="#263238" stroke-linecap="round" stroke-linejoin="round"/>
<path d="M202.917 223.536C202.576 224.593 202.296 225.669 202.08 226.758C202.08 227.22 201.97 228.6 200.89 228.288C199.81 227.976 200.134 222.462 200.272 221.85C200.411 221.238 203.038 223.218 203.038 223.218" fill="white"/>
<path d="M202.917 223.536C202.576 224.593 202.296 225.669 202.08 226.758C202.08 227.22 201.97 228.6 200.89 228.288C199.81 227.976 200.134 222.462 200.272 221.85C200.411 221.238 203.038 223.218 203.038 223.218" stroke="#263238" stroke-linecap="round" stroke-linejoin="round"/>
<path d="M167.868 218.651C168.828 219.18 169.902 219.471 170.998 219.5C172.695 219.5 175.796 218.922 176.933 219.217C178.071 219.511 180.975 223.172 180.975 223.172C180.975 223.172 181.841 224.021 181.431 224.448C181.021 224.876 180.184 225.603 179.607 225.153C179.029 224.702 176.142 222.323 176.142 222.323L168.861 225.297L165.87 223.738L167.868 218.651Z" fill="white" stroke="#263238" stroke-linecap="round" stroke-linejoin="round"/>
<path d="M156.718 174.092C156.718 174.092 151.92 174.67 151.106 175.928C150.292 177.187 137.144 206.058 137.173 207.334C137.202 208.61 163.462 229.275 163.462 229.275L169.133 218.484L154.946 205.33L161.101 191.045" fill="white"/>
<path d="M156.718 174.092C156.718 174.092 151.92 174.67 151.106 175.928C150.292 177.187 137.144 206.058 137.173 207.334C137.202 208.61 163.462 229.275 163.462 229.275L169.133 218.484L154.946 205.33L161.101 191.045" stroke="#263238" stroke-linecap="round" stroke-linejoin="round"/>
<path d="M165.569 234.49L179.439 234.773L179.369 226.146" stroke="#263238" stroke-linecap="round" stroke-linejoin="round"/>
<path d="M168.878 225.297L165.212 226.666" stroke="#263238" stroke-linecap="round" stroke-linejoin="round"/>
<path d="M173.059 154.287C173.059 154.287 174.635 166.597 175.675 168.434C176.714 170.27 184.105 177.626 184.105 177.626C184.105 177.626 186.415 169.144 186.675 167.163C186.934 165.183 187.136 157.261 187.136 157.261L173.03 153.3L173.059 154.287Z" fill="white" stroke="#263238" stroke-linecap="round" stroke-linejoin="round"/>
<path d="M173.059 154.287C173.059 154.287 173.244 155.73 173.527 157.699C174.632 158.729 175.896 159.575 177.268 160.205C179.087 161.008 183.938 161.458 187.004 161.1C187.084 159.027 187.136 157.261 187.136 157.261L173.03 153.3L173.059 154.287Z" fill="#263238" stroke="#263238" stroke-linecap="round" stroke-linejoin="round"/>
<path d="M168.971 143.541C168.971 143.541 167.083 141.561 166.148 143.818C165.212 146.076 167.302 149.477 168.417 149.621C169.078 149.708 169.75 149.658 170.392 149.477C170.392 149.477 171.183 152.734 171.91 153.721C173.342 155.532 175.177 156.983 177.269 157.959C179.844 159.114 188.465 159.524 189.556 157.959C190.647 156.394 190.584 148.057 190.566 147.352C190.549 146.648 190.428 136.566 190.428 136.566C190.428 136.566 191.202 133.067 190.151 130.659C189.1 128.251 178.55 124.885 175.9 126.277C173.25 127.668 170.195 130.093 169.987 133.206C169.78 136.318 169.907 141.411 169.907 141.411L168.971 143.541Z" fill="white" stroke="#263238" stroke-linecap="round" stroke-linejoin="round"/>
<path d="M184.56 139.153C184.56 139.153 186.321 147.237 185.917 148.207C185.513 149.177 184.248 149.194 182.666 148.345C181.084 147.497 181.91 146.365 181.91 146.365" stroke="#263238" stroke-linecap="round" stroke-linejoin="round"/>
<path d="M178.43 148.49C178.43 148.49 179.192 150.609 180.607 150.753C182.021 150.898 185.572 151.175 185.572 151.175" stroke="#263238" stroke-linecap="round" stroke-linejoin="round"/>
<path d="M173.376 139.436L173.601 142.831C173.601 142.831 174.895 143.541 177.862 143.541C180.83 143.541 181.806 142.831 181.806 142.831L181.725 139.436C181.725 139.436 177.418 136.89 173.376 139.436Z" stroke="#263238" stroke-linecap="round" stroke-linejoin="round"/>
<path d="M184.572 139.436L185.646 142.975C185.646 142.975 186.085 143.553 189.059 143.553C192.032 143.553 193.008 142.843 193.008 142.843L192.922 139.447C192.922 139.447 188.608 136.889 184.572 139.436Z" stroke="#263238" stroke-linecap="round" stroke-linejoin="round"/>
<path d="M181.743 139.436H184.572" stroke="#263238" stroke-linecap="round" stroke-linejoin="round"/>
<path d="M173.394 139.436L167.816 142.693" stroke="#263238" stroke-linecap="round" stroke-linejoin="round"/>
<path d="M174.769 137.738C174.769 137.738 176.281 136.041 179.711 137.455" stroke="#263238" stroke-linecap="round" stroke-linejoin="round"/>
<path d="M185.092 137.738C185.601 137.33 186.216 137.073 186.864 136.999C187.513 136.924 188.17 137.034 188.758 137.317" stroke="#263238" stroke-linecap="round" stroke-linejoin="round"/>
<path d="M178.383 140.995C178.383 141.619 178.158 142.15 177.846 142.15C177.534 142.15 177.269 141.642 177.269 140.995C177.269 140.348 177.494 139.84 177.811 139.84C178.129 139.84 178.371 140.366 178.383 140.995Z" fill="#263238"/>
<path d="M187.437 140.851C187.437 141.474 187.211 142.005 186.9 142.005C186.588 142.005 186.322 141.497 186.322 140.851C186.322 140.204 186.547 139.696 186.859 139.696C187.171 139.696 187.419 140.227 187.437 140.851Z" fill="#263238"/>
<path d="M177.747 127.766C177.747 127.766 179.11 130.775 177.418 131.872C176.896 132.174 176.303 132.333 175.7 132.333C175.097 132.333 174.504 132.174 173.982 131.872C174.432 132.493 174.683 133.236 174.703 134.003C174.722 134.769 174.509 135.524 174.092 136.168C173.263 137.55 172.295 138.844 171.205 140.031C171.205 140.031 171.511 143.686 170.876 144.113C170.241 144.54 168.508 143.899 168.479 142.825C168.451 141.751 167.758 139.603 167.729 138.529C167.7 137.455 167.203 134.661 167.203 134.661C167.203 134.661 162.861 132.726 165.165 130.365C167.469 128.003 172.36 126.069 172.36 126.069C172.36 126.069 172.469 121.773 175.443 120.485C178.417 119.198 184.814 117.263 184.866 119.411C184.948 120.517 184.749 121.625 184.289 122.633C184.289 122.633 189.653 122.419 193.395 126.098C197.136 129.776 197.009 133.188 195.075 133.188C193.141 133.188 192.511 133.616 192.511 133.616C192.511 133.616 196.213 135.763 194.307 136.837C192.402 137.911 190.438 136.624 190.438 136.624C190.438 136.624 191.258 135.123 188.845 133.159C186.431 131.196 177.747 127.766 177.747 127.766Z" fill="#263238" stroke="#263238" stroke-linecap="round" stroke-linejoin="round"/>
<path d="M104.481 344.937C121.168 344.937 134.697 341.887 134.697 338.124C134.697 334.361 121.168 331.31 104.481 331.31C87.7928 331.31 74.2646 334.361 74.2646 338.124C74.2646 341.887 87.7928 344.937 104.481 344.937Z" fill="#263238" stroke="#263238" stroke-linecap="round" stroke-linejoin="round"/>
<path d="M124.378 197.195V202.715L132.404 206.393C132.404 206.393 133.241 202.715 132.571 196.19L124.378 197.195Z" fill="#999999" stroke="#263238" stroke-linecap="round" stroke-linejoin="round"/>
<path d="M84.5427 329.659C82.7056 331.236 80.9699 332.927 79.346 334.723C77.0363 337.327 76.5859 339.919 78.7339 341.161C80.8819 342.402 84.254 342.079 87.9321 339.781C91.6102 337.483 91.4601 336.559 93.608 335.797C95.756 335.034 97.136 333.487 97.136 331.039C97.136 328.59 89.3121 328.279 87.626 328.152C85.94 328.025 84.5427 329.659 84.5427 329.659Z" fill="white" stroke="#263238" stroke-linecap="round" stroke-linejoin="round"/>
<path d="M97.1181 331.039C97.1181 331.039 93.6536 332.575 91.9733 333.972C90.2931 335.369 86.9441 340.399 83.0292 340.399C81.0356 340.4 79.075 339.889 77.3359 338.915C77.3385 339.379 77.4685 339.835 77.7118 340.231C77.9552 340.627 78.3025 340.948 78.716 341.161C80.8639 342.385 84.236 342.079 87.9141 339.781C91.5922 337.483 91.4421 336.559 93.5901 335.797C95.7381 335.034 97.1181 333.493 97.1181 331.039Z" stroke="#263238" stroke-linecap="round" stroke-linejoin="round"/>
<path d="M123.454 329.659C125.291 331.236 127.026 332.927 128.65 334.723C130.96 337.327 131.41 339.919 129.262 341.161C127.115 342.402 123.742 342.079 120.064 339.781C116.386 337.483 116.536 336.559 114.388 335.797C112.24 335.034 110.86 333.487 110.86 331.039C110.86 328.59 118.684 328.279 120.37 328.152C122.056 328.025 123.454 329.659 123.454 329.659Z" fill="white" stroke="#263238" stroke-linecap="round" stroke-linejoin="round"/>
<path d="M110.878 331.039C110.878 331.039 114.342 332.575 116.023 333.972C117.703 335.369 121.052 340.399 124.967 340.399C126.96 340.4 128.921 339.889 130.66 338.915C130.658 339.379 130.528 339.835 130.284 340.231C130.041 340.627 129.694 340.948 129.28 341.161C127.132 342.385 123.76 342.079 120.082 339.781C116.404 337.483 116.554 336.559 114.406 335.797C112.258 335.034 110.878 333.493 110.878 331.039Z" stroke="#263238" stroke-linecap="round" stroke-linejoin="round"/>
<path d="M80.0957 242.562C80.0957 242.562 81.0138 277.062 81.4757 282.126C81.9376 287.19 83.3003 298.686 83.3003 299.321C83.3003 299.957 84.0625 325.392 84.0625 325.392L82.6825 327.701L83.1444 330.923L89.2766 332.147C92.3426 332.759 96.3325 333.683 96.9446 333.071C97.5567 332.459 97.7126 331.229 98.0186 329.543C98.3246 327.857 98.9367 324.785 98.3246 322.337C97.7126 319.889 99.0926 293.813 99.2485 293.201C99.4044 292.589 102.932 267.402 102.932 267.402C102.932 267.402 105.242 288.108 106.917 294.39C108.591 300.673 107.99 310.032 108.603 313.711C109.215 317.389 110.444 329.815 110.6 330.733C110.756 331.651 111.057 333.042 111.057 333.042C111.057 333.042 118.725 331.968 120.105 331.351C121.504 330.835 122.94 330.426 124.401 330.126C124.401 330.126 124.857 321.384 124.245 317.856C123.799 315.377 123.542 312.868 123.477 310.35C123.477 309.276 124.245 275.238 124.245 275.238L123.477 242.267C123.477 242.267 102.776 244.415 94.8024 242.879C86.8283 241.344 80.2516 240.425 80.2516 240.425L80.0957 242.562Z" fill="#FA5087" stroke="#263238" stroke-linecap="round" stroke-linejoin="round"/>
<path d="M94.8139 242.868C86.8399 241.338 80.2516 240.425 80.2516 240.425L80.0957 242.568C80.0957 242.568 80.1477 244.548 80.2343 247.62C83.8893 248.642 91.3148 250.438 98.4921 250.438C106.079 250.438 118.164 248.128 123.604 247.025L123.488 242.262C123.488 242.262 102.788 244.404 94.8139 242.868Z" fill="#263238" stroke="#263238" stroke-linecap="round" stroke-linejoin="round"/>
<path d="M121.45 320.565C121.548 321.621 121.612 322.228 121.612 322.228" stroke="#263238" stroke-linecap="round" stroke-linejoin="round"/>
<path d="M119.101 250.657C119.101 250.657 119.678 280.29 119.678 291.474C119.678 299.212 120.613 310.956 121.191 317.458" stroke="#263238" stroke-linecap="round" stroke-linejoin="round"/>
<path d="M88.0645 248.983L89.4618 281.133" stroke="#263238" stroke-linecap="round" stroke-linejoin="round"/>
<path d="M89.1787 283.645V288.957" stroke="#263238" stroke-linecap="round" stroke-linejoin="round"/>
<path d="M96.4487 161.574C95.6937 161.578 94.9506 161.762 94.2808 162.11C93.6111 162.459 93.034 162.962 92.5973 163.578C91.6424 164.838 90.5798 166.012 89.4215 167.088L75.708 174.45L77.0476 226.799L77.55 244.698C77.55 244.698 88.082 248.209 98.1174 248.209C108.153 248.209 126.047 244.167 126.047 244.167C126.047 244.167 124.546 174.427 125.048 174.427C125.55 174.427 115.18 165.42 110.497 163.052C105.814 160.685 96.4487 161.574 96.4487 161.574Z" fill="#FA5087" stroke="#263238" stroke-linecap="round" stroke-linejoin="round"/>
<path d="M92.5391 167.902C92.5391 167.902 97.8513 177.69 100.092 182.165C102.332 186.64 106.512 193.078 106.512 193.078L113.505 174.346" stroke="#263238" stroke-linecap="round" stroke-linejoin="round"/>
<path d="M96.4661 229.98L96.1947 222.168L80.4141 221.25C80.4141 221.25 80.57 232.752 80.876 233.375" stroke="#263238" stroke-linecap="round" stroke-linejoin="round"/>
<path d="M96.6571 235.512L96.582 233.318" stroke="#263238" stroke-linecap="round" stroke-linejoin="round"/>
<path d="M115.365 234.282L114.903 221.405C114.903 221.405 120.423 221.862 125.025 218.796" stroke="#263238" stroke-linecap="round" stroke-linejoin="round"/>
<path d="M91.702 190.722C92.187 192.252 93.6652 193.153 94.999 192.725C96.3328 192.298 97.0084 190.71 96.5176 189.18C96.0268 187.65 94.5544 186.749 93.2206 187.176C91.8867 187.604 91.2112 189.192 91.702 190.722Z" stroke="#263238" stroke-linecap="round" stroke-linejoin="round"/>
<path d="M91.8589 163.93C91.8589 163.93 90.0863 170.743 94.1166 189.238" stroke="#263238" stroke-width="2" stroke-linecap="round" stroke-linejoin="round"/>
<path d="M95.3572 189.873C95.2383 190.113 95.0533 190.313 94.8239 190.45C94.5946 190.588 94.3306 190.657 94.0633 190.649C93.796 190.641 93.5366 190.556 93.316 190.405C93.0953 190.254 92.9226 190.043 92.8184 189.797C92.7142 189.55 92.6829 189.279 92.7281 189.016C92.7734 188.752 92.8933 188.507 93.0737 188.31C93.254 188.112 93.4873 187.971 93.7457 187.902C94.0041 187.833 94.2768 187.84 94.5315 187.921C94.8983 188.072 95.1907 188.362 95.3453 188.727C95.4999 189.093 95.5041 189.504 95.3572 189.873V189.873Z" stroke="#263238" stroke-linecap="round" stroke-linejoin="round"/>
<path d="M124.379 173.446C124.379 173.446 126.885 175.288 127.052 175.957C127.22 176.627 135.748 197.027 135.748 197.027L123.374 198.852L123.541 186.807" fill="#FA5087"/>
<path d="M124.379 173.446C124.379 173.446 126.885 175.288 127.052 175.957C127.22 176.627 135.748 197.027 135.748 197.027L123.374 198.852L123.541 186.807" stroke="#263238" stroke-linecap="round" stroke-linejoin="round"/>
<path d="M77.3823 173.78C77.3823 173.78 74.5357 174.115 73.8659 176.286C73.1961 178.457 68.3516 200.538 68.3516 200.538L86.0781 198.852L84.4036 182.291" fill="#FA5087"/>
<path d="M77.3823 173.78C77.3823 173.78 74.5357 174.115 73.8659 176.286C73.1961 178.457 68.3516 200.538 68.3516 200.538L86.0781 198.852L84.4036 182.291" stroke="#263238" stroke-linecap="round" stroke-linejoin="round"/>
<path d="M111.622 162.891C111.622 162.891 116.016 165.396 116.449 171.633C116.882 177.869 116.449 179.451 116.449 179.451" stroke="#263238" stroke-width="2" stroke-linecap="round" stroke-linejoin="round"/>
<path d="M118.436 187.436C118.436 187.436 118.044 194.81 117.241 196.94C116.438 199.071 113.263 201.594 110.745 201.999" stroke="#263238" stroke-linecap="round" stroke-linejoin="round"/>
<path d="M112.749 186.639C112.749 186.639 112.397 195.145 112.362 196.727C112.327 198.309 113.921 201.063 116.207 203.702" stroke="#263238" stroke-linecap="round" stroke-linejoin="round"/>
<path d="M116.863 204.628L116.93 204.574C117.245 204.319 117.293 203.857 117.038 203.542L116.714 203.143C116.459 202.829 115.998 202.78 115.683 203.036L115.616 203.09C115.301 203.345 115.253 203.807 115.508 204.122L115.832 204.521C116.087 204.835 116.549 204.883 116.863 204.628Z" fill="#263238"/>
<path d="M109.841 202.268L109.858 202.353C109.933 202.751 110.317 203.013 110.715 202.937L111.22 202.842C111.617 202.766 111.879 202.383 111.804 201.985L111.787 201.9C111.712 201.502 111.328 201.24 110.93 201.316L110.425 201.411C110.028 201.487 109.766 201.87 109.841 202.268Z" fill="#263238"/>
<path d="M118.523 187.996L118.355 181.801C118.339 181.155 118.083 180.537 117.637 180.07C117.191 179.602 116.586 179.317 115.941 179.272V179.272C115.257 179.221 114.579 179.443 114.058 179.89C113.536 180.337 113.213 180.972 113.158 181.656L112.639 187.939" stroke="#263238" stroke-width="2" stroke-linecap="round" stroke-linejoin="round"/>
<path d="M132.907 202.212L128.917 201.375L114.868 199.036L95.1671 195.283L90.4958 193.222C90.4958 193.222 86.0786 187.448 85.6975 186.87C85.3164 186.293 80.3218 188.308 80.5008 189.076C80.6798 189.844 81.2687 197.518 81.6556 198.003C82.0425 198.488 86.3558 198.482 86.3558 198.482C86.3558 198.482 106.935 208.414 107.789 208.777C119.667 213.784 125.395 213.737 127.421 214.066C129.448 214.396 130.77 213.576 131.937 212.236C133.103 210.896 132.907 202.212 132.907 202.212Z" fill="#999999" stroke="#263238" stroke-linecap="round" stroke-linejoin="round"/>
<path d="M85.0963 186.79C85.0963 186.79 82.7 186.888 79.149 189.284C77.8267 190.179 77.1338 190.82 77.1338 191.207C77.2095 191.667 77.3393 192.117 77.5207 192.546C79.823 191.438 82.234 190.571 84.7152 189.96" fill="#999999"/>
<path d="M85.0963 186.79C85.0963 186.79 82.7 186.888 79.149 189.284C77.8267 190.179 77.1338 190.82 77.1338 191.207C77.2095 191.667 77.3393 192.117 77.5207 192.546C79.823 191.438 82.234 190.571 84.7152 189.96" stroke="#263238" stroke-linecap="round" stroke-linejoin="round"/>
<path d="M86.0553 192.933C86.0553 192.933 79.5363 194.561 78.4796 194.758C77.423 194.954 77.2324 193.892 77.2324 193.511C77.2324 193.129 77.5211 192.546 78.6702 191.975C79.8192 191.403 85.5991 189.861 85.5991 189.861" fill="#999999"/>
<path d="M86.0553 192.933C86.0553 192.933 79.5363 194.561 78.4796 194.758C77.423 194.954 77.2324 193.892 77.2324 193.511C77.2324 193.129 77.5211 192.546 78.6702 191.975C79.8192 191.403 85.5991 189.861 85.5991 189.861" stroke="#263238" stroke-linecap="round" stroke-linejoin="round"/>
<path d="M86.7302 195.907C86.7302 195.907 79.1488 196.675 78.5714 196.196C78.3947 196.003 78.2607 195.776 78.1781 195.528C78.0955 195.28 78.0662 195.018 78.0922 194.758L84.9056 193.314" fill="#999999"/>
<path d="M86.7302 195.907C86.7302 195.907 79.1488 196.675 78.5714 196.196C78.3947 196.003 78.2607 195.776 78.1781 195.528C78.0955 195.28 78.0662 195.018 78.0922 194.758L84.9056 193.314" stroke="#263238" stroke-linecap="round" stroke-linejoin="round"/>
<path d="M84.6168 196.288L78.7676 196.577C78.7676 196.577 79.0505 197.443 79.345 197.535C80.7307 197.877 82.1426 198.103 83.5659 198.211C84.4992 198.241 85.4292 198.338 86.349 198.499" fill="#999999"/>
<path d="M84.6168 196.288L78.7676 196.577C78.7676 196.577 79.0505 197.443 79.345 197.535C80.7307 197.877 82.1426 198.103 83.5659 198.211C84.4992 198.241 85.4292 198.338 86.349 198.499" stroke="#263238" stroke-linecap="round" stroke-linejoin="round"/>
<path d="M72.0293 200.203C72.0293 200.203 74.7027 211.751 75.3725 212.583C76.0423 213.414 81.5624 212.583 87.0824 210.908C92.6025 209.234 116.017 199.204 116.017 199.204L119.36 199.868C119.36 199.868 118.02 195.687 115.682 195.52C113.343 195.353 86.0777 198.852 86.0777 198.852L72.0293 200.203Z" fill="#999999" stroke="#263238" stroke-linecap="round" stroke-linejoin="round"/>
<path d="M95.4268 154.212C95.4268 154.212 95.4268 154.46 95.4268 154.882C95.4787 157.082 95.6924 164.068 96.2525 165.754C96.9223 167.758 105.953 184.653 106.646 183.313C107.339 181.974 111.496 163.745 111.496 163.745V156.556C111.496 156.556 109.319 158.392 105.306 158.392C101.293 158.392 95.4268 154.212 95.4268 154.212Z" fill="#999999" stroke="#263238" stroke-linecap="round" stroke-linejoin="round"/>
<path d="M108.823 164.12C109.759 163.548 110.654 162.912 111.502 162.215V156.556C111.502 156.556 109.325 158.392 105.312 158.392C101.299 158.392 95.4268 154.212 95.4268 154.212C95.4268 154.212 95.4268 154.46 95.4268 154.882C95.4268 155.655 95.4845 157.024 95.5538 158.548C95.7122 158.802 95.8898 159.043 96.085 159.27C97.2398 160.604 102.771 163.953 104.111 164.288C105.451 164.623 107.316 164.952 108.823 164.12Z" fill="#263238" stroke="#263238" stroke-linecap="round" stroke-linejoin="round"/>
<path d="M115.514 144.511C115.514 144.511 118.187 143.004 118.187 145.851C118.187 148.698 115.681 152.041 115.681 152.041L115.514 144.511Z" fill="#999999" stroke="#263238" stroke-linecap="round" stroke-linejoin="round"/>
<path d="M91.598 144.679C91.598 144.679 87.9141 143.674 87.9141 147.023C87.9141 150.372 91.2631 152.537 91.2631 152.537H93.5727C93.5727 152.537 94.9123 155.886 96.0844 157.22C97.2566 158.554 102.771 161.903 104.11 162.238C105.45 162.573 107.286 162.908 108.793 162.071C110.687 160.89 112.431 159.487 113.99 157.89C114.66 157.059 115.832 151.371 115.832 151.371C115.832 151.371 116.167 141.168 115.497 137.658C114.827 134.147 110.479 128.627 104.457 127.957C98.4345 127.287 92.747 132.137 91.9155 135.983C91.0841 139.829 91.598 144.679 91.598 144.679Z" fill="#999999" stroke="#263238" stroke-linecap="round" stroke-linejoin="round"/>
<path d="M102.465 147.358C102.465 147.358 101.31 149.697 103.302 150.366C105.294 151.036 107.817 150.869 108.32 149.864C108.822 148.859 107.985 147.693 107.985 147.693" stroke="#263238" stroke-linecap="round" stroke-linejoin="round"/>
<path d="M100.461 151.538C100.461 151.538 104.641 155.049 110.329 151.706" stroke="#263238" stroke-linecap="round" stroke-linejoin="round"/>
<path d="M102.8 154.714C102.8 154.714 106.316 156.724 108.655 154.379" stroke="#263238" stroke-linecap="round" stroke-linejoin="round"/>
<path d="M100.797 145.349C101.26 145.349 101.634 144.749 101.634 144.009C101.634 143.269 101.26 142.67 100.797 142.67C100.335 142.67 99.96 143.269 99.96 144.009C99.96 144.749 100.335 145.349 100.797 145.349Z" fill="#263238"/>
<path d="M109.828 143.842C109.828 144.581 109.453 145.181 108.991 145.181C108.529 145.181 108.153 144.604 108.153 143.842C108.153 143.079 108.529 142.508 108.991 142.508C109.453 142.508 109.828 143.103 109.828 143.842Z" fill="#263238"/>
<path d="M98.4521 142.173C98.4521 142.173 99.2894 140.833 102.494 141.336" stroke="#263238" stroke-linecap="round" stroke-linejoin="round"/>
<path d="M107.65 141.503C107.65 141.503 109.157 139.159 111.502 141.503" stroke="#263238" stroke-linecap="round" stroke-linejoin="round"/>
<path d="M115.515 137.646C115.298 136.653 114.921 135.701 114.4 134.828C114.206 135.754 114.138 136.702 114.198 137.646C114.441 138.87 115.301 140.579 115.301 141.434C115.301 142.288 115.174 145.712 115.786 145.227C115.847 145.163 115.896 145.089 115.93 145.008C115.969 142.547 115.83 140.087 115.515 137.646Z" fill="#263238" stroke="#263238" stroke-linecap="round" stroke-linejoin="round"/>
<path d="M107.108 130.717C108.181 130.66 109.25 130.531 110.306 130.33C108.6 129.053 106.59 128.245 104.475 127.986C98.4522 127.316 92.7647 132.166 91.9332 136.012C91.1017 139.858 91.5983 144.708 91.5983 144.708C91.5983 144.708 92.9263 145.632 93.4171 144.656C93.9079 143.68 93.4171 142.086 93.9079 140.377C94.3987 138.668 95.1263 137.808 95.2475 136.462C95.3688 135.117 94.5142 133.165 95.005 132.062C95.4958 130.96 98.5503 128.887 100.508 129.62C102.614 130.418 104.857 130.791 107.108 130.717Z" fill="#263238" stroke="#263238" stroke-linecap="round" stroke-linejoin="round"/>
</svg>
