<svg width="151" height="50" viewBox="0 0 151 50" fill="none" xmlns="http://www.w3.org/2000/svg">
<g clip-path="url(#clip0_36_7790)">
<path d="M146.694 17.5122H145.361V20.2053H144.76V17.5122H143.427V16.9139H146.685L146.694 17.5122Z" fill="#50897C"/>
<path d="M151.01 20.2053H150.404V18.2463L149.336 20.1072C149.31 20.1532 149.272 20.1906 149.225 20.2148C149.179 20.239 149.127 20.2513 149.075 20.2506C149.024 20.2513 148.973 20.239 148.928 20.2148C148.882 20.19 148.845 20.1527 148.82 20.1072L147.747 18.2463V20.2053H147.146V17.1743C147.144 17.1064 147.165 17.0399 147.207 16.9856C147.247 16.9333 147.304 16.8955 147.369 16.878C147.401 16.8724 147.434 16.8724 147.466 16.878C147.498 16.8802 147.529 16.8872 147.559 16.8988C147.589 16.9097 147.617 16.9256 147.641 16.946C147.666 16.9672 147.688 16.9927 147.704 17.0215L149.075 19.3825L150.438 17.0139C150.471 16.9569 150.523 16.9129 150.585 16.8894C150.647 16.8643 150.715 16.8601 150.779 16.8775C150.844 16.8949 150.901 16.9329 150.941 16.9856C150.982 17.0399 151.004 17.1064 151.002 17.1743L151.01 20.2053Z" fill="#50897C"/>
<path d="M55.1613 33.4994V15.4758H61.1579V33.4994H55.1613Z" fill="#F3A712"/>
<path d="M76.5826 20.9131C77.4941 21.8995 77.9505 23.2533 77.9517 24.9745V33.4994H72.1189V26.2107C72.1399 25.7689 71.9893 25.336 71.6981 25.0009C71.5592 24.8505 71.3891 24.7317 71.1993 24.6529C71.0096 24.574 70.8049 24.5369 70.5993 24.5442C70.3609 24.535 70.1236 24.5815 69.9067 24.6798C69.6897 24.7782 69.499 24.9257 69.3501 25.1104C69.0274 25.5354 68.8645 26.0587 68.8893 26.59V33.4994H63.0565V19.8373H68.8893V21.3264C69.9938 20.0682 71.3413 19.4391 72.9321 19.4391C74.4568 19.4391 75.6736 19.9304 76.5826 20.9131Z" fill="#F3A712"/>
<path d="M84.87 28.9265C84.9739 29.2616 85.2018 29.5455 85.508 29.721C85.8141 29.9064 86.1661 30.0038 86.5248 30.0022C87.2485 30.0022 87.6103 29.823 87.6103 29.4644C87.6178 29.3804 87.5982 29.2963 87.5544 29.224C87.5106 29.1518 87.4449 29.0952 87.3665 29.0624C87.0865 28.9627 86.7946 28.8993 86.4982 28.8736L83.7579 28.4433C80.9548 28.013 79.5527 26.6328 79.5514 24.3026C79.5514 22.7777 80.1715 21.5824 81.4119 20.7168C82.6522 19.8511 84.1851 19.4252 86.0107 19.4391C89.8078 19.4391 92.0866 20.6671 92.847 23.1231L87.7474 24.1177C87.6448 23.8266 87.4556 23.5732 87.2047 23.3911C86.8861 23.149 86.4918 23.0254 86.0907 23.0419C85.4394 23.0419 85.1138 23.2212 85.1138 23.5798C85.1138 23.8478 85.3493 24.0271 85.8203 24.1177L88.9128 24.6839C91.754 25.2048 93.1739 26.7284 93.1727 29.2549C93.1727 30.7257 92.5443 31.8688 91.2874 32.6841C90.0306 33.4994 88.4342 33.9071 86.4982 33.9071C84.5939 33.9071 83.0203 33.5843 81.7775 32.9389C81.1871 32.6536 80.6672 32.2431 80.2545 31.7367C79.8419 31.2302 79.5466 30.64 79.3895 30.0079L84.87 28.9265Z" fill="#F3A712"/>
<path d="M109.508 33.4994H103.673V32.0198C102.571 33.278 101.223 33.9071 99.6301 33.9071C98.1067 33.9071 96.8905 33.4145 95.9815 32.4293C95.0725 31.4441 94.6155 30.0903 94.6104 28.3679V19.8373H100.445V27.126C100.424 27.5675 100.574 28.0004 100.864 28.3358C101.003 28.4861 101.173 28.6048 101.363 28.6837C101.553 28.7625 101.757 28.7996 101.963 28.7925C102.201 28.8017 102.439 28.7552 102.655 28.6569C102.872 28.5585 103.063 28.411 103.212 28.2263C103.535 27.8014 103.698 27.278 103.673 26.7467V19.8373H109.508V33.4994Z" fill="#F3A712"/>
<path d="M122.636 19.758L122.445 25.8351H121.63C120.219 25.8351 119.134 26.0949 118.376 26.6146C117.618 27.1342 117.237 28.0936 117.233 29.4927V33.4994H111.4V19.8373H117.233V22.6682C118.122 20.6765 119.587 19.6813 121.628 19.6825C121.966 19.6812 122.302 19.7064 122.636 19.758Z" fill="#F3A712"/>
<path d="M128.798 28.0395C129.124 29.1001 129.8 29.6305 130.824 29.6305C131.251 29.6377 131.672 29.5356 132.047 29.3341C132.383 29.1645 132.643 28.8773 132.778 28.5283L137.961 29.5229C137.488 30.8919 136.544 32.0527 135.295 32.803C134.058 33.539 132.57 33.9064 130.832 33.9052C128.68 33.9052 126.857 33.2289 125.365 31.8763C123.872 30.5238 123.126 28.7893 123.127 26.6731C123.127 24.5568 123.873 22.8217 125.365 21.4679C126.856 20.1141 128.67 19.4378 130.805 19.4391C133.029 19.4391 134.802 20.1066 136.124 21.4415C137.445 22.7764 138.105 24.6996 138.104 27.2109V28.0432L128.798 28.0395ZM128.825 25.1349H132.568C132.462 24.7335 132.223 24.3788 131.89 24.1271C131.579 23.8904 131.197 23.7629 130.805 23.7648C129.848 23.7648 129.188 24.2215 128.825 25.1349Z" fill="#F3A712"/>
<path d="M7.98467 26.9996C8.69941 26.2547 9.05678 25.3017 9.05678 24.1403C9.05678 22.979 8.69941 22.0266 7.98467 21.283C7.2712 20.5381 6.3362 20.1651 5.17966 20.1638H3.73431V28.1206H5.17966C6.3362 28.1206 7.2712 27.747 7.98467 26.9996Z" fill="#50897C"/>
<path d="M24.59 20.4771C24.1264 20.4628 23.6651 20.548 23.2378 20.7268C22.8105 20.9056 22.4273 21.1739 22.1144 21.5132C21.4923 22.2355 21.1506 23.1539 21.1506 24.1035C21.1506 25.0531 21.4923 25.9716 22.1144 26.6938C22.4372 27.0217 22.823 27.2822 23.249 27.4601C23.6749 27.638 24.1325 27.7296 24.5947 27.7296C25.057 27.7296 25.5145 27.638 25.9405 27.4601C26.3664 27.2822 26.7522 27.0217 27.075 26.6938C27.6971 25.9716 28.0389 25.0531 28.0389 24.1035C28.0389 23.1539 27.6971 22.2355 27.075 21.5132C26.7611 21.1727 26.3763 20.9037 25.9473 20.7248C25.5182 20.5459 25.0551 20.4614 24.59 20.4771Z" fill="#F3A712"/>
<path d="M33.8124 20.2675V15.4341H47.27C45.3588 10.8656 42.1241 6.96121 37.9745 4.21428C33.825 1.46736 28.9469 0.00125122 23.9568 0.00125122C18.9667 0.00125122 14.0887 1.46736 9.93911 4.21428C5.78955 6.96121 2.55479 10.8656 0.643647 15.4341H5.66143C8.29315 15.4341 10.412 16.24 12.0179 17.8517C13.6239 19.4635 14.4268 21.5596 14.4268 24.1402C14.4268 26.722 13.6239 28.8188 12.0179 30.4305C10.412 32.0423 8.29315 32.8481 5.66143 32.8481H0C1.2444 36.5784 3.35841 39.9655 6.17058 42.7347C8.98274 45.5038 12.4139 47.5771 16.1857 48.7863C19.9575 49.9955 23.9638 50.3067 27.8796 49.6945C31.7954 49.0823 35.5105 47.564 38.7236 45.2627V20.2675H33.8124ZM30.6875 30.2701C29.9084 31.0864 28.9657 31.7323 27.9199 32.1662C26.8741 32.6001 25.7483 32.8125 24.6147 32.7896C23.4809 32.8125 22.3548 32.6002 21.3087 32.1663C20.2625 31.7324 19.3195 31.0865 18.5401 30.2701C16.8897 28.5904 16.0645 26.5345 16.0645 24.1024C16.0645 21.6703 16.8897 19.6126 18.5401 17.9291C19.3195 17.1127 20.2625 16.4668 21.3087 16.0329C22.3548 15.599 23.4809 15.3867 24.6147 15.4096C25.7483 15.3867 26.8741 15.5991 27.9199 16.033C28.9657 16.4669 29.9084 17.1128 30.6875 17.9291C32.3379 19.6088 33.1631 21.6653 33.1631 24.0987C33.1631 26.532 32.3379 28.5866 30.6875 30.2625V30.2701Z" fill="#50897C"/>
<path d="M38.7236 45.2628V45.27L38.7253 45.261L38.7236 45.2628Z" fill="#50897C"/>
<path d="M48.7305 20.2676H44.046V40.1144C46.1871 37.3166 47.7106 34.1038 48.5176 30.6847C49.3247 27.2655 49.3972 23.7164 48.7305 20.2676Z" fill="#50897C"/>
</g>
<defs>
<clipPath id="clip0_36_7790">
<rect width="151" height="50" fill="white"/>
</clipPath>
</defs>
</svg>
