<svg width="111" height="43" viewBox="0 0 111 43" fill="none" xmlns="http://www.w3.org/2000/svg">
<g clip-path="url(#clip0_106_11811)">
<path d="M107.357 10.9716H106.236V13.2883H105.726V10.9716H104.601V10.46H107.357V10.9716Z" fill="#005445"/>
<path d="M111 13.2882H110.486V11.6039L109.585 13.2043C109.563 13.2436 109.531 13.2757 109.491 13.2964C109.452 13.3182 109.408 13.3295 109.363 13.3291C109.319 13.3297 109.276 13.3184 109.237 13.2964C109.198 13.2756 109.166 13.2435 109.146 13.2043L108.238 11.6039V13.2882H107.73V10.6788C107.73 10.6212 107.749 10.5651 107.783 10.5192C107.817 10.4743 107.865 10.442 107.919 10.4271C107.946 10.4231 107.974 10.4231 108.001 10.4271C108.028 10.4292 108.054 10.4347 108.08 10.4435C108.106 10.4538 108.13 10.4683 108.151 10.4865C108.172 10.5042 108.19 10.5257 108.204 10.5499L109.363 12.5801L110.521 10.5499C110.55 10.5015 110.594 10.4641 110.647 10.4435C110.7 10.4261 110.758 10.4261 110.811 10.4435C110.865 10.4594 110.912 10.4915 110.947 10.5356C110.982 10.5815 111 10.6376 111 10.6952V13.2882Z" fill="#005445"/>
<path d="M61.5414 28.8073H56.4646V23.1425H51.7208V28.8073H46.6439V13.3149H51.7208V18.8406H56.4706V13.3149H61.5475L61.5414 28.8073Z" fill="#F3A712"/>
<path d="M82.1026 28.8073H77.1456V22.5878L74.3026 28.8073H70.9519L68.1089 22.5878V28.8073H63.1559V13.3149H68.7993L72.6252 20.6702L76.4572 13.3149H82.1026V28.8073Z" fill="#F3A712"/>
<path d="M97.8084 15.3143C98.5893 16.0475 99.2084 16.938 99.6255 17.9281C100.042 18.9182 100.248 19.9856 100.229 21.061C100.249 22.1368 100.043 23.2047 99.626 24.1951C99.209 25.1856 98.5897 26.0765 97.8084 26.8098C96.196 28.3747 94.2113 29.1572 91.8543 29.1572C89.4973 29.1572 87.5126 28.3747 85.9002 26.8098C85.1191 26.0767 84.5 25.1862 84.0829 24.1961C83.6659 23.206 83.4603 22.1385 83.4795 21.0631C83.4601 19.9873 83.6656 18.9195 84.0827 17.9291C84.4997 16.9386 85.119 16.0477 85.9002 15.3143C87.5139 13.7508 89.4986 12.969 91.8543 12.969C94.2099 12.969 96.1946 13.7508 97.8084 15.3143ZM94.2262 23.6049C94.8452 22.9073 95.1739 21.9964 95.1441 21.061C95.1735 20.1258 94.8448 19.215 94.2262 18.5172C93.9206 18.1958 93.5537 17.94 93.1474 17.7653C92.7412 17.5905 92.3041 17.5004 91.8624 17.5004C91.4207 17.5004 90.9836 17.5905 90.5774 17.7653C90.1711 17.94 89.8042 18.1958 89.4986 18.5172C88.8806 19.2152 88.5526 20.126 88.5828 21.061C88.5524 21.9961 88.8804 22.907 89.4986 23.6049C89.8042 23.9263 90.1711 24.1821 90.5774 24.3568C90.9836 24.5316 91.4207 24.6216 91.8624 24.6216C92.3041 24.6216 92.7412 24.5316 93.1474 24.3568C93.5537 24.1821 93.9206 23.9263 94.2262 23.6049Z" fill="#F3A712"/>
<path d="M6.75221 23.2203C7.05612 22.891 7.29271 22.5047 7.44846 22.0833C7.60421 21.662 7.67607 21.2138 7.65994 20.7644C7.67618 20.315 7.60437 19.8668 7.44861 19.4454C7.29286 19.024 7.05621 18.6377 6.75221 18.3086C6.44663 17.9886 6.07728 17.7374 5.66847 17.5716C5.25965 17.4058 4.82064 17.3292 4.38031 17.3467H3.16187V24.1862H4.38031C4.82094 24.2032 5.26014 24.1259 5.66897 23.9594C6.0778 23.7929 6.44699 23.541 6.75221 23.2203Z" fill="#005445"/>
<path d="M20.7967 17.6106C20.4041 17.598 20.0134 17.671 19.6513 17.8246C19.2892 17.9783 18.9644 18.2089 18.699 18.5008C18.1734 19.1222 17.8848 19.912 17.8848 20.7285C17.8848 21.545 18.1734 22.3348 18.699 22.9562C18.9721 23.238 19.2984 23.4619 19.6587 23.6148C20.0189 23.7677 20.4059 23.8465 20.7967 23.8465C21.1876 23.8465 21.5746 23.7677 21.9348 23.6148C22.2951 23.4619 22.6214 23.238 22.8945 22.9562C23.42 22.3348 23.7087 21.545 23.7087 20.7285C23.7087 19.912 23.42 19.1222 22.8945 18.5008C22.6293 18.2087 22.3044 17.9779 21.9423 17.8242C21.5802 17.6706 21.1894 17.5977 20.7967 17.6106Z" fill="#F3A712"/>
<path d="M28.5948 17.4307V13.2742H39.9771C38.361 9.34508 35.6255 5.98703 32.1161 3.62449C28.6067 1.26194 24.481 0.000976562 20.2606 0.000976562C16.0403 0.000976562 11.9146 1.26194 8.40524 3.62449C4.89585 5.98703 2.16025 9.34508 0.544237 13.2742H4.78644C7.01078 13.2742 8.80324 13.9659 10.1638 15.3494C11.5244 16.7328 12.2013 18.5358 12.1946 20.7584C12.1946 22.9796 11.5177 24.7826 10.1638 26.1674C8.81001 27.5522 7.01755 28.244 4.78644 28.2426H0C1.04987 31.4525 2.83625 34.3677 5.21402 36.7511C7.5918 39.1346 10.4939 40.9192 13.6846 41.9601C16.8754 43.0009 20.2647 43.2685 23.5774 42.7413C26.89 42.214 30.0325 40.9067 32.7497 38.9256V17.4368L28.5948 17.4307ZM25.9548 26.0262C25.2952 26.7276 24.4975 27.2825 23.6128 27.6554C22.728 28.0282 21.7758 28.2108 20.8171 28.1914C19.8583 28.2108 18.9061 28.0282 18.0214 27.6554C17.1367 27.2825 16.339 26.7276 15.6793 26.0262C14.9971 25.3276 14.4609 24.4981 14.1023 23.587C13.7437 22.6758 13.5701 21.7015 13.5917 20.7215C13.5701 19.7416 13.7437 18.7672 14.1023 17.8561C14.4609 16.945 14.9971 16.1155 15.6793 15.4169C16.3386 14.7148 17.1361 14.1593 18.0209 13.7861C18.9057 13.4128 19.8581 13.2301 20.8171 13.2496C21.776 13.2301 22.7284 13.4128 23.6132 13.7861C24.498 14.1593 25.2956 14.7148 25.9548 15.4169C26.637 16.1155 27.1733 16.945 27.5318 17.8561C27.8904 18.7672 28.064 19.7416 28.0424 20.7215C28.064 21.7015 27.8904 22.6758 27.5318 23.587C27.1733 24.4981 26.637 25.3276 25.9548 26.0262Z" fill="#005445"/>
<path d="M32.7496 38.9256V38.9325L32.7519 38.9233L32.7496 38.9256Z" fill="#005445"/>
<path d="M41.2239 17.4304H37.2518V34.4986C40.075 30.7627 41.6006 26.1949 41.5935 21.499C41.5977 20.1341 41.474 18.7718 41.2239 17.4304Z" fill="#005445"/>
</g>
<defs>
<clipPath id="clip0_106_11811">
<rect width="111" height="43" fill="white"/>
</clipPath>
</defs>
</svg>
