<svg width="473" height="439" viewBox="0 0 473 439" fill="none" xmlns="http://www.w3.org/2000/svg">
<path d="M456.572 415.192H13.0289C12.899 415.192 12.7744 415.141 12.6825 415.049C12.5907 414.957 12.5391 414.833 12.5391 414.703C12.5391 414.573 12.5907 414.448 12.6825 414.356C12.7744 414.265 12.899 414.213 13.0289 414.213H456.572C456.702 414.213 456.827 414.265 456.919 414.356C457.01 414.448 457.062 414.573 457.062 414.703C457.062 414.833 457.01 414.957 456.919 415.049C456.827 415.141 456.702 415.192 456.572 415.192Z" fill="#263238"/>
<path d="M176.437 133.058C174.577 133.056 172.758 132.511 171.203 131.49C169.649 130.469 168.426 129.017 167.686 127.311C166.945 125.605 166.718 123.719 167.034 121.886C167.35 120.054 168.193 118.353 169.462 116.993L251.66 29.1519L196.225 33.0213L195.147 17.9452H195.637L280.774 12.0676L280.5 97.8904H265.384L265.61 42.1805L183.392 130.041C182.499 130.991 181.422 131.749 180.226 132.268C179.03 132.786 177.74 133.055 176.437 133.058ZM254.08 28.0057L170.177 117.669C168.626 119.327 167.797 121.534 167.874 123.804C167.95 126.074 168.925 128.22 170.584 129.771C172.242 131.323 174.449 132.151 176.719 132.075C178.989 131.999 181.135 131.024 182.686 129.365L266.599 39.6826L266.403 96.803H279.559L279.833 13.008L196.225 18.8563L197.136 31.9829L254.08 28.0057Z" fill="#263238"/>
<path d="M390.459 286.101C389.462 286.104 388.485 285.815 387.65 285.269C386.816 284.723 386.159 283.944 385.762 283.029C385.365 282.114 385.245 281.103 385.416 280.12C385.588 279.137 386.043 278.227 386.727 277.5L428.291 233.134L400.353 235.093L399.795 226.914L443.965 223.828L443.818 268.135H435.628L435.726 240.128L394.172 284.534C393.691 285.032 393.114 285.428 392.476 285.698C391.838 285.967 391.152 286.104 390.459 286.101ZM430.682 231.949L387.442 278.196C386.698 278.991 386.297 280.046 386.325 281.134C386.353 281.952 386.622 282.742 387.099 283.406C387.576 284.07 388.239 284.578 389.004 284.865C389.77 285.153 390.603 285.207 391.399 285.02C392.195 284.834 392.918 284.416 393.476 283.819L436.726 237.601L436.628 267.126H442.868L442.985 224.876L400.814 227.815L401.235 234.035L430.682 231.949Z" fill="#263238"/>
<path d="M114.3 118.727L98.2837 103.827L128.788 71.8431L116.112 67.2487L170.97 42.6216L150.398 99.0661L144.893 86.733L114.3 118.727ZM99.6747 103.788L114.261 117.345L145.109 85.0187L150.212 96.4702L169.207 44.4828L118.738 67.1508L130.493 71.4316L99.6747 103.788Z" fill="#263238"/>
<path d="M78.8679 404.799L62.9004 389.939L93.4051 357.955L80.7291 353.361L135.587 328.733L114.878 385.139L109.373 372.806L78.8679 404.799ZM64.2522 389.86L78.8287 403.418L109.676 371.091L114.79 382.553L133.774 330.555L83.2859 353.223L95.0998 357.504L64.2522 389.86Z" fill="#263238"/>
<path d="M123.802 241.294H26.9785V228.56H123.802C132.066 228.549 140.24 226.837 147.814 223.53C155.387 220.224 162.199 215.393 167.825 209.34L195.254 179.746L167.394 194.019L163.398 186.251L163.838 186.025L229.217 152.484L200.505 220.654L192.453 217.265L204.619 188.376L177.19 217.97C170.369 225.314 162.108 231.175 152.923 235.188C143.738 239.2 133.825 241.279 123.802 241.294ZM27.9581 240.315H123.802C133.684 240.302 143.458 238.255 152.515 234.301C161.572 230.347 169.718 224.572 176.446 217.333L207.676 183.665L193.736 216.765L199.986 219.4L227.268 154.619L164.72 186.701L167.816 192.736L199.78 176.386L168.55 210.055C162.831 216.207 155.906 221.116 148.208 224.476C140.51 227.837 132.202 229.577 123.802 229.588H27.9581V240.315Z" fill="#263238"/>
<path d="M345.074 168.05L340.127 164.964L333.622 171.557L338.314 177.052L345.074 168.05Z" fill="white"/>
<path d="M338.315 177.542C338.244 177.539 338.175 177.522 338.111 177.492C338.047 177.462 337.99 177.419 337.943 177.365L333.27 171.88C333.188 171.788 333.143 171.67 333.143 171.547C333.143 171.424 333.188 171.305 333.27 171.214L339.785 164.621C339.864 164.544 339.967 164.495 340.077 164.483C340.187 164.47 340.297 164.495 340.392 164.552L345.339 167.638C345.396 167.673 345.444 167.721 345.482 167.776C345.519 167.832 345.544 167.895 345.554 167.961C345.57 168.027 345.571 168.096 345.555 168.163C345.54 168.229 345.51 168.291 345.466 168.343L338.707 177.346C338.663 177.404 338.607 177.451 338.543 177.485C338.478 177.519 338.407 177.538 338.335 177.542H338.315ZM334.25 171.576L338.256 176.268L344.32 168.187L340.206 165.61L334.25 171.576Z" fill="#263238"/>
<path d="M367.683 408.551C367.683 408.551 375.363 415.085 376.793 416.094C378.223 417.103 388.548 421.501 388.548 421.501C388.68 421.929 388.672 422.387 388.526 422.81C388.38 423.233 388.103 423.598 387.735 423.853C386.413 424.989 373.874 426.057 370.171 425.812C366.468 425.567 360.796 422.432 359.846 421.893C358.896 421.355 354.674 416.466 354.674 416.466L352.617 418.249L343.33 413.635C343.33 413.635 344.133 408.071 345.711 405.691C347.176 403.784 348.889 402.081 350.804 400.626L367.683 408.551Z" fill="#263238"/>
<path d="M371.474 426.331C370.936 426.331 370.495 426.331 370.132 426.331C365.93 426.008 359.651 422.344 359.592 422.315C357.814 420.713 356.151 418.988 354.616 417.152L352.921 418.622C352.848 418.685 352.758 418.725 352.662 418.737C352.566 418.75 352.469 418.733 352.382 418.69L343.105 414.076C343.013 414.03 342.938 413.956 342.891 413.864C342.843 413.773 342.826 413.669 342.841 413.567C342.841 413.332 343.673 407.866 345.29 405.417C346.782 403.462 348.531 401.719 350.491 400.234C350.562 400.177 350.647 400.142 350.738 400.131C350.828 400.121 350.919 400.136 351.001 400.176L367.85 408.179C367.891 408.192 367.928 408.216 367.958 408.248C368.036 408.306 375.648 414.781 377.039 415.761C378.136 416.525 385.159 419.601 388.725 421.119C388.839 421.174 388.93 421.268 388.98 421.384C389.166 421.913 389.17 422.489 388.993 423.021C388.816 423.553 388.467 424.011 388 424.323C386.678 425.459 376.069 426.331 371.474 426.331ZM354.665 415.937C354.735 415.935 354.805 415.949 354.87 415.978C354.934 416.007 354.991 416.05 355.037 416.104C356.607 417.985 358.296 419.765 360.092 421.433C361.355 422.187 366.753 425.048 370.201 425.351C374.119 425.665 386.296 424.499 387.403 423.549C387.66 423.372 387.864 423.127 387.992 422.842C388.12 422.557 388.167 422.243 388.128 421.933C386.599 421.276 377.832 417.515 376.48 416.555C375.128 415.595 368.095 409.639 367.37 409.031L350.854 401.194C349.071 402.566 347.477 404.167 346.113 405.955C344.839 407.915 344.065 412.117 343.86 413.351L352.529 417.671L354.341 416.094C354.388 416.045 354.444 416.006 354.507 415.979C354.569 415.952 354.636 415.938 354.704 415.937H354.665Z" fill="#263238"/>
<path d="M229.618 412.47L224.084 411.275C224.084 411.275 215.532 405.858 213.817 405.329C212.103 404.8 209.674 405.378 207.999 408.836L205.667 414.625L207.127 416.241C207.127 416.241 202.934 418.289 202.229 420.013C201.523 421.737 196.714 426.576 195.636 432.924C194.559 439.272 196.498 437.949 197.243 437.607C197.987 437.264 209.723 429.015 211.515 427.811C213.308 426.606 225.161 424.392 225.161 424.392C225.161 424.392 227.189 414.155 229.618 412.47Z" fill="#263238"/>
<path d="M196.243 438.4C195.993 438.403 195.749 438.324 195.548 438.175C195.019 437.783 194.5 436.813 195.176 432.797C195.959 428.143 198.663 424.372 200.446 421.874C200.956 421.224 201.405 420.529 201.788 419.797C202.385 418.298 205.099 416.721 206.343 416.065L205.305 414.919C205.246 414.85 205.207 414.766 205.191 414.676C205.176 414.587 205.184 414.495 205.216 414.409L207.548 408.61C209.341 404.898 212.034 404.222 213.964 404.819C215.649 405.348 223.378 410.207 224.27 410.775L229.716 411.951C229.811 411.969 229.898 412.015 229.966 412.083C230.034 412.151 230.08 412.238 230.098 412.333C230.117 412.426 230.108 412.523 230.073 412.611C230.038 412.7 229.979 412.776 229.902 412.832C228.041 414.155 226.209 421.649 225.661 424.48C225.643 424.576 225.598 424.664 225.53 424.734C225.461 424.804 225.374 424.852 225.279 424.872C221.997 425.499 213.2 427.311 211.799 428.222C211.094 428.682 208.763 430.299 206.304 432.003C201.269 435.49 197.928 437.802 197.487 438.008L197.35 438.077C197.011 438.268 196.632 438.378 196.243 438.4ZM206.235 414.488L207.499 415.879C207.549 415.936 207.586 416.003 207.606 416.076C207.627 416.149 207.63 416.226 207.616 416.3C207.603 416.376 207.571 416.446 207.523 416.506C207.475 416.566 207.413 416.613 207.342 416.643C206.225 417.192 203.208 418.886 202.699 420.16C202.29 420.968 201.801 421.732 201.239 422.442C199.505 424.872 196.89 428.535 196.145 432.963C195.509 436.715 196.028 437.313 196.145 437.391C196.263 437.469 196.694 437.303 196.909 437.195L197.076 437.117C197.517 436.911 202.278 433.61 205.755 431.239C208.332 429.446 210.565 427.908 211.27 427.448C212.975 426.331 222.604 424.431 224.779 424.01C225.142 422.236 226.65 415.34 228.649 412.764L223.995 411.784C223.937 411.775 223.88 411.755 223.829 411.725C221.468 410.227 215.012 406.249 213.68 405.848C212.936 405.613 210.35 405.172 208.449 409.1L206.235 414.488Z" fill="#263238"/>
<path d="M277.226 323.081C277.226 323.081 277.883 340.42 281.37 363.774C284.858 387.127 287.091 398.06 287.091 398.06C287.091 398.06 284.319 396.747 284.211 398.383C284.138 399.296 284.244 400.214 284.524 401.087L229.618 412.47C229.618 412.47 226.454 414.429 225.993 419.885C225.533 425.341 225.758 426.223 225.758 426.223C225.758 426.223 278.422 426.223 292.371 425.714C306.321 425.204 314.902 423.353 315.881 422.217C316.861 421.08 318.037 418.132 317.841 417.603C317.645 417.074 322.268 374.686 322.376 369.426C322.484 364.165 326.04 351.705 326.04 351.705C326.04 351.705 368.398 348.198 373.462 348.139L376.195 348.551L350.853 400.626C350.853 400.626 355.105 406.21 360.982 408.091C366.86 409.972 369.799 409.658 369.799 409.658C370.092 408.504 370.522 407.389 371.082 406.337C371.601 405.769 371.346 400.538 371.288 399.48C371.229 398.422 403.605 354.418 409.335 345.857C415.066 337.295 415.683 331.251 413.949 328.978C412.215 326.706 367.977 313.843 357.916 311.61C347.856 309.376 335.385 310.346 335.385 310.346C335.385 310.346 323.542 319.212 312.698 323.179C301.854 327.146 277.226 323.081 277.226 323.081Z" fill="#92E3A9"/>
<path d="M225.759 426.674C225.65 426.677 225.545 426.642 225.459 426.576C225.373 426.51 225.313 426.417 225.288 426.312C225.288 426.204 225.053 425.175 225.504 419.807C225.984 414.174 229.217 412.098 229.354 411.97C229.405 411.94 229.462 411.921 229.52 411.911L283.908 400.724C283.735 399.95 283.672 399.155 283.722 398.364C283.723 398.147 283.78 397.935 283.888 397.748C283.997 397.561 284.152 397.405 284.339 397.296C285.014 397.021 285.77 397.021 286.445 397.296C285.857 394.259 283.79 383.278 280.89 363.813C277.442 340.694 276.747 323.238 276.737 323.062C276.736 322.99 276.751 322.919 276.779 322.853C276.808 322.787 276.85 322.728 276.903 322.68C276.956 322.63 277.02 322.593 277.09 322.573C277.16 322.552 277.234 322.549 277.305 322.562C277.55 322.562 301.932 326.549 312.571 322.68C323.209 318.81 335.043 309.945 335.16 309.876C335.236 309.824 335.324 309.794 335.415 309.788C335.542 309.788 348.052 308.809 358.063 311.052C366.811 313.011 412.392 326.02 414.381 328.606C416.114 330.869 415.948 336.796 409.786 346.043C407.288 349.785 399.892 360.012 392.055 370.837C382.828 383.572 372.375 398.011 371.758 399.431C372.062 405.877 371.631 406.357 371.415 406.592C370.897 407.578 370.502 408.625 370.24 409.707C370.211 409.801 370.156 409.885 370.082 409.95C370.007 410.014 369.916 410.055 369.819 410.07C369.701 410.07 366.772 410.373 360.855 408.483C354.938 406.592 350.658 401.077 350.481 400.842C350.436 400.765 350.411 400.677 350.411 400.587C350.411 400.498 350.436 400.41 350.481 400.333L375.53 348.855L373.453 348.541C368.78 348.61 330.517 351.754 326.491 352.087C325.932 354.046 323.033 364.704 322.935 369.358C322.876 372.296 321.416 386.697 320.123 399.373C319.222 408.258 318.37 416.653 318.39 417.436C318.605 418.416 317.312 421.355 316.323 422.472C315.03 423.902 305.743 425.655 292.44 426.125C278.588 426.654 226.288 426.674 225.759 426.674ZM229.814 412.891C229.373 413.204 226.875 415.203 226.483 419.885C226.279 421.815 226.187 423.754 226.209 425.694C231.352 425.694 279.255 425.645 292.313 425.185C306.86 424.666 314.716 422.726 315.51 421.854C316.444 420.639 317.076 419.219 317.351 417.711C317.253 417.456 317.351 415.84 319.065 399.314C320.29 387.284 321.808 372.306 321.867 369.377C321.975 364.127 325.403 352.038 325.55 351.529C325.577 351.433 325.632 351.347 325.71 351.284C325.787 351.22 325.882 351.183 325.981 351.176C327.715 351.029 368.408 347.669 373.433 347.61L376.245 348.022C376.321 348.031 376.395 348.059 376.458 348.104C376.521 348.148 376.572 348.208 376.607 348.277C376.641 348.345 376.658 348.421 376.658 348.497C376.658 348.573 376.641 348.649 376.607 348.717L351.412 400.519C352.284 401.577 356.124 405.985 361.11 407.591C363.759 408.534 366.538 409.059 369.348 409.149C369.629 408.034 370.067 406.965 370.651 405.975C370.651 405.926 371.014 405.142 370.73 399.441C370.73 398.795 374.344 393.622 391.223 370.298C399.06 359.522 406.446 349.266 408.934 345.544C414.43 337.285 415.223 331.408 413.558 329.243C411.892 327.078 368.143 314.343 357.809 312.051C348.502 309.994 336.992 310.699 335.591 310.787C334.328 311.767 323.082 319.898 312.865 323.64C302.834 327.303 281.655 324.267 277.746 323.64C277.893 326.892 278.775 343.016 281.86 363.686C285.299 386.755 287.552 397.884 287.571 397.972C287.591 398.062 287.585 398.155 287.554 398.242C287.522 398.329 287.467 398.405 287.395 398.462C287.323 398.516 287.238 398.551 287.148 398.561C287.059 398.572 286.968 398.557 286.886 398.52C286.278 398.226 285.21 397.913 284.828 398.138C284.828 398.138 284.721 398.207 284.701 398.422C284.638 399.265 284.734 400.113 284.985 400.92C285.011 400.987 285.022 401.058 285.017 401.13C285.012 401.201 284.991 401.27 284.957 401.333C284.922 401.395 284.874 401.45 284.817 401.492C284.759 401.534 284.693 401.563 284.623 401.577L229.814 412.891Z" fill="#263238"/>
<path d="M327.049 351.02C326.981 351.033 326.911 351.033 326.843 351.02C326.785 350.992 326.732 350.953 326.688 350.906C326.644 350.858 326.611 350.802 326.589 350.741C326.567 350.679 326.557 350.615 326.561 350.55C326.564 350.485 326.58 350.422 326.608 350.363C329.861 343.555 333.838 335.356 334.347 334.974C334.452 334.896 334.584 334.863 334.714 334.882C334.843 334.901 334.96 334.971 335.038 335.077C335.116 335.182 335.149 335.314 335.129 335.443C335.11 335.573 335.04 335.689 334.935 335.767C334.475 336.326 330.115 345.279 327.5 350.784C327.452 350.86 327.385 350.921 327.306 350.962C327.227 351.003 327.138 351.023 327.049 351.02Z" fill="#263238"/>
<path d="M318.723 347.081C318.661 347.081 318.6 347.069 318.543 347.046C318.486 347.022 318.434 346.988 318.39 346.944C318.343 346.9 318.306 346.847 318.28 346.788C318.255 346.729 318.242 346.666 318.242 346.601C318.242 346.537 318.255 346.474 318.28 346.415C318.306 346.356 318.343 346.302 318.39 346.258L321.202 343.212C321.245 343.164 321.298 343.126 321.357 343.099C321.415 343.071 321.479 343.056 321.543 343.053C321.608 343.05 321.672 343.06 321.733 343.083C321.794 343.105 321.85 343.139 321.897 343.183C321.945 343.226 321.983 343.279 322.01 343.338C322.038 343.396 322.053 343.46 322.056 343.524C322.059 343.589 322.049 343.653 322.026 343.714C322.004 343.775 321.97 343.83 321.926 343.878L319.105 346.925C319.056 346.976 318.997 347.016 318.931 347.043C318.865 347.07 318.794 347.083 318.723 347.081Z" fill="#263238"/>
<path d="M324.081 341.253C323.959 341.249 323.842 341.204 323.748 341.125C323.658 341.032 323.607 340.907 323.607 340.778C323.607 340.648 323.658 340.523 323.748 340.43C329.097 334.552 334.132 328.91 334.191 328.851C334.23 328.793 334.281 328.745 334.341 328.708C334.4 328.672 334.467 328.649 334.536 328.641C334.605 328.632 334.675 328.638 334.742 328.659C334.808 328.68 334.87 328.715 334.922 328.761C334.974 328.808 335.015 328.865 335.043 328.928C335.072 328.992 335.086 329.061 335.085 329.131C335.085 329.2 335.069 329.269 335.04 329.332C335.011 329.396 334.968 329.452 334.916 329.497C334.916 329.556 329.832 335.218 324.473 341.086C324.425 341.142 324.364 341.185 324.296 341.214C324.229 341.243 324.155 341.256 324.081 341.253Z" fill="#263238"/>
<path d="M283.683 344.799C283.583 344.796 283.486 344.764 283.404 344.707C283.322 344.649 283.259 344.569 283.223 344.476C283.178 344.353 283.185 344.219 283.24 344.101C283.295 343.984 283.394 343.893 283.516 343.849C283.614 343.849 293.596 340.107 295.761 338.265C295.877 338.163 295.97 338.038 296.034 337.898C296.098 337.758 296.132 337.606 296.134 337.452C296.271 335.571 293.636 332.133 292.607 330.967C292.564 330.919 292.532 330.863 292.511 330.802C292.491 330.742 292.482 330.678 292.487 330.614C292.492 330.55 292.509 330.487 292.538 330.43C292.567 330.373 292.607 330.322 292.656 330.281C292.748 330.191 292.871 330.141 292.999 330.141C293.127 330.141 293.25 330.191 293.342 330.281C293.508 330.467 297.309 334.807 297.113 337.481C297.103 337.765 297.034 338.044 296.911 338.3C296.788 338.556 296.613 338.784 296.398 338.97C294.096 340.929 284.271 344.573 283.859 344.72C283.808 344.761 283.747 344.788 283.683 344.799Z" fill="#263238"/>
<path d="M287.67 403.095C287.559 403.086 287.454 403.04 287.374 402.963C287.293 402.886 287.242 402.784 287.229 402.674L287.16 401.41C287.154 401.289 287.192 401.17 287.268 401.076C287.344 400.982 287.452 400.92 287.572 400.9L289.785 400.528C289.355 399.989 288.876 399.491 288.355 399.039C288.268 398.991 288.193 398.923 288.135 398.842C288.078 398.761 288.039 398.667 288.022 398.569C287.895 397.903 288.718 396.61 289.345 395.797C288.625 394.255 288.089 392.634 287.748 390.967C287.366 389.194 286.083 380.77 284.878 372.198C284.861 372.069 284.896 371.937 284.974 371.833C285.053 371.729 285.17 371.659 285.299 371.64C285.427 371.623 285.557 371.658 285.66 371.737C285.763 371.816 285.83 371.933 285.847 372.061C287.023 380.466 288.336 389.028 288.708 390.752C289.036 392.449 289.586 394.096 290.344 395.65C290.397 395.728 290.425 395.82 290.425 395.914C290.425 396.009 290.397 396.101 290.344 396.179C289.806 396.833 289.367 397.562 289.041 398.344C289.798 399.039 290.496 399.795 291.128 400.607C291.182 400.673 291.218 400.753 291.232 400.838C291.245 400.924 291.236 401.011 291.205 401.091C291.175 401.172 291.123 401.243 291.056 401.297C290.989 401.351 290.909 401.387 290.824 401.4L288.199 401.831V402.664C288.204 402.728 288.196 402.792 288.175 402.853C288.155 402.914 288.122 402.971 288.079 403.018C288.036 403.066 287.983 403.104 287.925 403.131C287.866 403.158 287.802 403.172 287.738 403.173L287.67 403.095Z" fill="#263238"/>
<path d="M284.672 367.79C284.554 367.789 284.44 367.746 284.35 367.669C284.26 367.592 284.201 367.486 284.182 367.369C283.565 362.755 282.781 356.593 282.556 353.419C282.008 345.906 282.644 329.458 282.654 329.292C282.662 329.163 282.719 329.041 282.814 328.954C282.909 328.866 283.034 328.819 283.163 328.821C283.228 328.824 283.291 328.839 283.349 328.866C283.408 328.893 283.461 328.931 283.504 328.979C283.548 329.026 283.582 329.081 283.604 329.142C283.626 329.202 283.636 329.266 283.634 329.331C283.634 329.497 282.987 345.886 283.526 353.351C283.751 356.495 284.506 362.637 285.152 367.241C285.169 367.368 285.135 367.497 285.058 367.6C284.981 367.702 284.867 367.771 284.741 367.79H284.672Z" fill="#263238"/>
<path d="M229.932 415.614C229.818 415.616 229.708 415.578 229.62 415.506C229.532 415.434 229.473 415.334 229.452 415.222C229.439 415.159 229.439 415.094 229.451 415.031C229.463 414.968 229.488 414.908 229.523 414.854C229.559 414.801 229.604 414.754 229.658 414.718C229.711 414.682 229.771 414.657 229.834 414.644L237.191 413.175C237.318 413.152 237.449 413.178 237.557 413.25C237.664 413.321 237.74 413.431 237.769 413.557C237.781 413.62 237.782 413.685 237.77 413.748C237.757 413.811 237.733 413.872 237.697 413.925C237.662 413.979 237.616 414.025 237.563 414.061C237.51 414.097 237.45 414.122 237.387 414.135L230.02 415.614H229.932Z" fill="#263238"/>
<path d="M242.588 413.087C242.474 413.084 242.365 413.043 242.277 412.97C242.19 412.897 242.13 412.797 242.108 412.685C242.095 412.623 242.095 412.558 242.107 412.496C242.12 412.433 242.144 412.374 242.18 412.321C242.215 412.268 242.261 412.223 242.314 412.188C242.368 412.153 242.427 412.129 242.49 412.117L283.143 403.976C283.206 403.964 283.271 403.963 283.335 403.975C283.398 403.988 283.458 404.012 283.511 404.048C283.565 404.083 283.611 404.129 283.647 404.182C283.683 404.236 283.708 404.295 283.721 404.359C283.745 404.486 283.718 404.617 283.647 404.724C283.576 404.832 283.465 404.908 283.339 404.936L242.686 413.077L242.588 413.087Z" fill="#263238"/>
<path d="M377.959 348.551C377.832 348.548 377.71 348.497 377.619 348.408C377.528 348.319 377.474 348.198 377.469 348.071C377.468 348.006 377.479 347.942 377.503 347.882C377.526 347.822 377.561 347.768 377.606 347.721C377.65 347.675 377.704 347.638 377.763 347.612C377.822 347.586 377.885 347.572 377.949 347.571C383.36 347.341 388.736 346.596 394.005 345.347C394.131 345.318 394.263 345.339 394.374 345.407C394.484 345.475 394.563 345.584 394.593 345.71C394.623 345.836 394.603 345.968 394.537 346.08C394.471 346.191 394.365 346.273 394.24 346.307C388.892 347.565 383.438 348.316 377.949 348.551H377.959Z" fill="#263238"/>
<path d="M388.363 350.393C388.25 350.393 388.141 350.354 388.053 350.282C387.966 350.211 387.905 350.111 387.883 350.001C387.86 349.872 387.888 349.74 387.961 349.632C388.034 349.524 388.147 349.449 388.275 349.423C397.013 347.767 404.095 342.105 404.164 342.046C404.214 342.006 404.272 341.976 404.334 341.957C404.395 341.939 404.46 341.933 404.524 341.94C404.589 341.947 404.651 341.966 404.707 341.997C404.764 342.028 404.814 342.07 404.854 342.12C404.895 342.17 404.925 342.228 404.943 342.289C404.962 342.351 404.968 342.416 404.961 342.48C404.954 342.544 404.935 342.607 404.904 342.663C404.873 342.72 404.831 342.77 404.781 342.81C404.703 342.869 397.444 348.688 388.461 350.383L388.363 350.393Z" fill="#263238"/>
<path d="M372.963 337.853C372.87 337.852 372.78 337.824 372.702 337.774C372.624 337.724 372.562 337.653 372.522 337.569C372.494 337.512 372.478 337.449 372.475 337.385C372.471 337.321 372.481 337.257 372.503 337.196C372.525 337.136 372.559 337.081 372.602 337.034C372.646 336.987 372.699 336.949 372.757 336.923C374.217 336.217 375.568 335.512 376.773 334.807C376.829 334.767 376.892 334.738 376.959 334.724C377.026 334.71 377.095 334.71 377.162 334.724C377.23 334.738 377.293 334.766 377.348 334.806C377.404 334.846 377.45 334.897 377.485 334.957C377.519 335.016 377.541 335.082 377.548 335.15C377.556 335.218 377.549 335.287 377.528 335.352C377.507 335.418 377.473 335.478 377.427 335.529C377.381 335.58 377.326 335.621 377.263 335.649C376.039 336.374 374.667 337.089 373.178 337.804C373.111 337.836 373.037 337.852 372.963 337.853Z" fill="#263238"/>
<path d="M330.782 350.049C330.667 350.051 330.556 350.011 330.467 349.938C330.379 349.864 330.321 349.761 330.302 349.648C330.289 349.585 330.289 349.52 330.302 349.457C330.315 349.394 330.341 349.334 330.377 349.281C330.414 349.228 330.461 349.183 330.515 349.148C330.569 349.113 330.63 349.09 330.694 349.08C330.909 349.08 352.069 345.308 367.781 339.068C367.902 339.023 368.036 339.026 368.155 339.077C368.274 339.128 368.368 339.223 368.418 339.342C368.442 339.402 368.454 339.466 368.453 339.531C368.452 339.595 368.439 339.659 368.413 339.718C368.388 339.777 368.351 339.83 368.304 339.875C368.258 339.92 368.204 339.955 368.144 339.979C352.333 346.258 331.076 350.01 330.87 350.04L330.782 350.049Z" fill="#263238"/>
<path d="M272.917 270.427C272.917 270.427 276.61 308.632 276.639 309.18C276.668 309.729 274.807 324.58 276.326 325.432C277.844 326.284 281.566 327.019 286.778 328.057C291.989 329.096 302.52 329.145 309.818 327.499C317.116 325.853 331.673 317.948 332.917 316.782C334.161 315.616 337.1 311.786 337.208 310.297C337.315 308.808 332.741 275.09 332.741 275.09L334.142 258.437L342.586 238.473C342.586 238.473 369.946 220.546 373.992 216.471C378.037 212.396 388.362 200.797 388.127 199.739C387.892 198.681 368.281 182.43 362.197 178.668C356.114 174.907 346.524 167.618 345.074 168.059C343.624 168.5 336.424 176.043 337.071 178.041C337.717 180.04 358.152 201.924 358.152 201.924L343.8 210.192L310.494 226.933C310.494 226.933 293.606 228.677 283.947 235.044C274.288 241.412 256.009 256.145 259.28 258.937C262.552 261.729 272.917 270.427 272.917 270.427Z" fill="white"/>
<path d="M296.28 329.292C293.067 329.338 289.857 329.089 286.69 328.547C281.449 327.509 277.668 326.755 276.081 325.863C275.15 325.344 274.807 322.631 276.012 310.738C276.081 309.974 276.149 309.318 276.149 309.2C276.149 308.681 273.73 283.897 272.447 270.682C271.144 269.595 261.965 261.866 258.938 259.299C258.741 259.125 258.588 258.906 258.493 258.66C258.398 258.415 258.362 258.151 258.389 257.889C258.693 252.991 276.345 239.453 283.663 234.623C292.94 228.501 308.976 226.6 310.337 226.444L343.575 209.741L357.378 201.797C353.939 198.114 337.237 180.128 336.61 178.179C336.486 177.437 336.651 176.677 337.071 176.053C338.599 173.114 343.526 168.001 344.908 167.579C345.966 167.256 348.924 169.166 355.419 173.594C357.838 175.25 360.317 176.954 362.423 178.247C367.615 181.451 388.235 198.074 388.568 199.622C388.95 201.356 375.5 215.609 374.305 216.804C370.387 220.772 345.201 237.317 342.958 238.796L334.602 258.555L333.27 275.091C333.77 278.793 337.854 308.867 337.737 310.356C337.61 312.041 334.514 315.999 333.29 317.155C332.065 318.311 317.342 326.333 309.965 327.989C305.462 328.903 300.875 329.34 296.28 329.292ZM345.26 168.52H345.201C344.222 168.814 339.461 173.614 337.943 176.504C337.453 177.483 337.512 177.797 337.541 177.885C337.992 179.266 350.335 192.814 358.514 201.581C358.564 201.637 358.601 201.702 358.623 201.773C358.645 201.844 358.651 201.919 358.642 201.993C358.631 202.067 358.603 202.137 358.561 202.198C358.518 202.259 358.462 202.31 358.397 202.345L344.046 210.603L310.739 227.325C310.685 227.355 310.625 227.372 310.563 227.374C310.396 227.374 293.684 229.186 284.241 235.417C274.514 241.833 259.643 254.088 259.408 257.948C259.388 258.058 259.396 258.172 259.432 258.278C259.468 258.384 259.53 258.48 259.614 258.555C262.846 261.308 273.171 269.977 273.269 270.065C273.319 270.104 273.36 270.153 273.391 270.209C273.421 270.264 273.44 270.325 273.446 270.388C273.593 271.956 277.139 308.593 277.168 309.161C277.168 309.288 277.168 309.592 277.021 310.836C275.914 321.788 276.198 324.6 276.62 325.031C278.05 325.824 281.772 326.569 286.915 327.587C292.058 328.606 302.589 328.655 309.75 327.029C316.911 325.403 331.487 317.448 332.574 316.469C333.848 315.264 336.63 311.571 336.718 310.307C336.796 309.239 334.093 288.756 332.251 275.198V275.091L333.652 258.437C333.648 258.388 333.648 258.339 333.652 258.29L342.096 238.326C342.135 238.237 342.195 238.16 342.272 238.101C342.547 237.925 369.642 220.155 373.62 216.168C378.116 211.642 387.07 201.474 387.599 199.867C386.335 198.104 367.909 182.832 361.913 179.129C359.817 177.826 357.309 176.112 354.87 174.446C351.246 171.909 346.269 168.549 345.26 168.549V168.52Z" fill="#263238"/>
<path d="M354.821 220.145C354.728 220.143 354.636 220.116 354.557 220.067C354.448 219.996 354.371 219.886 354.344 219.759C354.316 219.632 354.34 219.5 354.41 219.391L355.928 217.05C356 216.94 356.112 216.864 356.239 216.838C356.367 216.811 356.5 216.836 356.609 216.908C356.718 216.979 356.795 217.091 356.821 217.218C356.848 217.346 356.823 217.479 356.751 217.588L355.233 219.92C355.19 219.99 355.129 220.048 355.057 220.087C354.985 220.127 354.904 220.147 354.821 220.145Z" fill="#263238"/>
<path d="M342.586 238.953C342.508 238.952 342.432 238.935 342.361 238.904C342.253 238.847 342.17 238.753 342.126 238.64C342.083 238.526 342.083 238.401 342.125 238.287L349.188 220.233C349.241 220.121 349.335 220.034 349.45 219.988C349.564 219.942 349.692 219.942 349.808 219.986C349.923 220.031 350.017 220.117 350.071 220.228C350.125 220.34 350.135 220.467 350.099 220.585L344.79 234.182L352.186 222.799C352.218 222.739 352.263 222.687 352.316 222.645C352.37 222.603 352.432 222.572 352.498 222.556C352.564 222.539 352.633 222.537 352.7 222.548C352.767 222.559 352.831 222.585 352.888 222.623C352.945 222.66 352.993 222.709 353.03 222.767C353.067 222.824 353.091 222.888 353.102 222.956C353.112 223.023 353.108 223.092 353.091 223.158C353.073 223.224 353.042 223.285 352.999 223.338L342.997 238.737C342.951 238.804 342.89 238.858 342.818 238.896C342.746 238.933 342.667 238.953 342.586 238.953Z" fill="#263238"/>
<path d="M359.973 201.953C359.843 201.974 359.711 201.942 359.604 201.865C359.497 201.788 359.426 201.672 359.405 201.542C359.384 201.412 359.416 201.279 359.493 201.173C359.57 201.066 359.687 200.994 359.817 200.974C360.199 200.846 369.25 197.721 372.169 198.534C373.65 198.836 375.029 199.511 376.176 200.494C376.225 200.54 376.264 200.595 376.291 200.657C376.317 200.718 376.331 200.785 376.331 200.852C376.331 200.919 376.317 200.985 376.29 201.047C376.263 201.109 376.224 201.164 376.175 201.21C376.126 201.255 376.068 201.291 376.005 201.313C375.941 201.335 375.874 201.345 375.807 201.34C375.74 201.335 375.675 201.317 375.615 201.286C375.556 201.255 375.503 201.212 375.461 201.16C374.431 200.312 373.211 199.728 371.905 199.455C369.72 198.838 362.667 200.993 360.15 201.875C360.097 201.912 360.037 201.939 359.973 201.953Z" fill="#263238"/>
<path d="M365.391 199.475C365.31 199.475 365.231 199.455 365.161 199.415C365.09 199.376 365.031 199.319 364.989 199.25C364.953 199.197 364.928 199.137 364.915 199.074C364.902 199.011 364.902 198.946 364.915 198.883C364.928 198.82 364.953 198.76 364.989 198.707C365.026 198.654 365.072 198.609 365.127 198.574C366.129 197.968 367.169 197.428 368.242 196.958C370.534 195.87 375.559 197.075 375.775 197.124C375.901 197.157 376.01 197.237 376.078 197.349C376.146 197.461 376.167 197.595 376.137 197.722C376.121 197.784 376.093 197.843 376.054 197.895C376.016 197.946 375.967 197.989 375.912 198.022C375.856 198.055 375.795 198.076 375.731 198.085C375.667 198.094 375.602 198.091 375.54 198.074C374.188 197.751 370.309 197.095 368.683 197.839C367.655 198.312 366.654 198.842 365.685 199.426C365.595 199.475 365.492 199.492 365.391 199.475Z" fill="#263238"/>
<path d="M298.337 308.074C298.251 308.075 298.165 308.052 298.092 308.005C297.286 307.542 296.513 307.021 295.78 306.448C295.687 306.366 295.628 306.251 295.616 306.127C295.604 306.003 295.639 305.878 295.715 305.78C295.792 305.681 295.903 305.615 296.026 305.596C296.149 305.576 296.275 305.604 296.378 305.674C297.079 306.218 297.816 306.715 298.582 307.163C298.674 307.217 298.746 307.3 298.786 307.399C298.826 307.498 298.833 307.608 298.805 307.711C298.777 307.814 298.717 307.906 298.632 307.971C298.548 308.037 298.444 308.073 298.337 308.074Z" fill="#263238"/>
<path d="M293.831 304.645C293.708 304.646 293.589 304.601 293.498 304.518C285.377 297.092 276.336 283.212 276.238 283.074C276.166 282.965 276.141 282.832 276.168 282.705C276.194 282.577 276.27 282.465 276.38 282.394C276.489 282.322 276.622 282.297 276.749 282.324C276.877 282.35 276.989 282.426 277.06 282.536C277.158 282.673 286.132 296.456 294.154 303.793C294.227 303.859 294.278 303.946 294.301 304.041C294.324 304.137 294.318 304.237 294.283 304.329C294.248 304.421 294.186 304.5 294.106 304.557C294.025 304.613 293.93 304.644 293.831 304.645Z" fill="#263238"/>
<path d="M302.687 314.137H302.579C301.335 313.859 300.111 313.499 298.915 313.06C298.793 313.014 298.694 312.922 298.64 312.804C298.586 312.685 298.581 312.55 298.626 312.428C298.672 312.306 298.764 312.207 298.882 312.153C299.001 312.098 299.136 312.094 299.258 312.139C300.412 312.565 301.593 312.912 302.794 313.177C302.924 313.192 303.043 313.257 303.125 313.359C303.207 313.461 303.244 313.591 303.23 313.721C303.216 313.851 303.151 313.97 303.049 314.052C302.947 314.133 302.816 314.171 302.687 314.157V314.137Z" fill="#263238"/>
<path d="M297.388 312.384C297.32 312.398 297.25 312.398 297.182 312.384C293.206 310.664 289.729 307.968 287.072 304.547C287.032 304.494 287.002 304.434 286.985 304.37C286.969 304.305 286.965 304.238 286.975 304.173C286.985 304.107 287.009 304.044 287.044 303.988C287.079 303.931 287.125 303.883 287.18 303.845C287.235 303.807 287.296 303.78 287.361 303.767C287.426 303.754 287.494 303.754 287.559 303.767C287.624 303.781 287.685 303.807 287.74 303.845C287.794 303.883 287.841 303.932 287.876 303.989C290.448 307.243 293.782 309.813 297.584 311.473C297.702 311.526 297.794 311.624 297.84 311.745C297.885 311.867 297.881 312.001 297.828 312.119C297.788 312.201 297.724 312.269 297.646 312.315C297.568 312.362 297.479 312.386 297.388 312.384Z" fill="#263238"/>
<path d="M325.991 238.228L331.026 247.368L328.019 313.001L337.903 323.307L345.035 309.778L333.622 247.241L337.433 239.472L334.092 232.243L325.991 238.228Z" fill="#263238"/>
<path d="M337.904 323.796C337.838 323.795 337.772 323.781 337.711 323.754C337.651 323.727 337.596 323.688 337.551 323.639L327.667 313.334C327.578 313.238 327.529 313.112 327.53 312.981L330.537 247.485L325.561 238.463C325.503 238.359 325.486 238.237 325.514 238.121C325.541 238.005 325.61 237.904 325.708 237.836L333.799 231.851C333.857 231.807 333.924 231.777 333.996 231.763C334.067 231.75 334.141 231.753 334.211 231.772C334.282 231.79 334.348 231.824 334.404 231.872C334.46 231.919 334.505 231.979 334.534 232.047L337.884 239.266C337.916 239.332 337.932 239.404 337.932 239.477C337.932 239.55 337.916 239.622 337.884 239.688L334.142 247.319L345.525 309.69C345.543 309.8 345.526 309.913 345.476 310.013L338.345 323.531C338.31 323.6 338.259 323.66 338.195 323.704C338.132 323.749 338.059 323.777 337.982 323.786L337.904 323.796ZM328.519 312.815L337.786 322.474L344.526 309.739L333.133 247.368C333.116 247.264 333.133 247.157 333.182 247.064L336.895 239.501L333.897 233.036L326.629 238.404L331.458 247.221C331.501 247.298 331.522 247.387 331.517 247.475L328.519 312.815Z" fill="#263238"/>
<path d="M330.586 182.577C330.586 182.577 340.695 188.092 340.764 189.434C341.001 190.67 341.477 191.848 342.165 192.902C342.165 192.902 348.189 196.458 349.022 197.496C349.855 198.535 348.042 203.09 348.042 203.09C348.042 203.09 351.755 209.673 351.804 210.75C351.853 211.828 350.991 213.101 350.266 214.061C349.541 215.021 342.429 217.823 342.429 217.823L333.956 236.7C333.156 236.904 332.332 236.997 331.507 236.974C330.527 236.866 312.16 219.243 312.16 219.243L314.119 214.12L307.154 200.602C307.154 200.602 312.355 187.269 318.517 184.203C322.263 182.387 326.493 181.817 330.586 182.577Z" fill="white"/>
<path d="M331.898 237.523H331.467C330.566 237.415 320.3 227.727 311.875 219.665C311.807 219.597 311.759 219.512 311.738 219.418C311.718 219.324 311.724 219.226 311.758 219.136L313.609 214.238L306.752 200.915C306.725 200.852 306.711 200.784 306.711 200.715C306.711 200.646 306.725 200.577 306.752 200.514C306.967 199.965 312.1 186.966 318.36 183.861C322.2 181.963 326.554 181.368 330.762 182.166H330.889C334.759 184.272 341.253 188.043 341.322 189.464C341.537 190.581 341.966 191.645 342.586 192.599C343.565 193.177 348.64 196.223 349.443 197.252C350.246 198.28 349.139 201.777 348.63 203.129C349.453 204.599 352.293 209.732 352.342 210.809C352.391 211.887 351.549 213.317 350.706 214.434C349.982 215.413 344.408 217.667 342.87 218.284L334.475 236.984C334.443 237.052 334.397 237.112 334.339 237.159C334.281 237.207 334.214 237.241 334.141 237.259C333.405 237.424 332.653 237.513 331.898 237.523ZM312.747 219.156C319.888 226.013 330.654 236.083 331.673 236.543C332.333 236.555 332.992 236.479 333.632 236.318L342.008 217.706C342.031 217.647 342.067 217.594 342.113 217.55C342.158 217.506 342.213 217.473 342.272 217.451C345.691 216.089 349.482 214.375 349.884 213.846C350.285 213.317 351.363 211.887 351.314 210.907C351.314 210.3 349.413 206.646 347.621 203.453C347.587 203.387 347.57 203.315 347.57 203.242C347.57 203.169 347.587 203.096 347.621 203.031C348.424 200.964 349.041 198.417 348.649 197.928C348.091 197.222 344.241 194.812 341.949 193.451C341.88 193.415 341.823 193.36 341.782 193.294C341.045 192.168 340.542 190.906 340.303 189.581C340.058 188.798 335.003 185.663 330.439 183.126C326.467 182.435 322.378 183.011 318.752 184.772C313.237 187.514 308.388 199.025 307.712 200.71L314.569 214.022C314.598 214.084 314.613 214.151 314.613 214.218C314.613 214.286 314.598 214.353 314.569 214.414L312.747 219.156Z" fill="#263238"/>
<path d="M342.449 217.862L334.847 219.038L339.843 223.387L342.449 217.862Z" fill="#263238"/>
<path d="M339.853 223.877C339.734 223.875 339.619 223.83 339.53 223.75L334.524 219.4C334.452 219.342 334.399 219.263 334.373 219.173C334.347 219.084 334.348 218.989 334.377 218.901C334.401 218.81 334.451 218.729 334.52 218.666C334.59 218.603 334.676 218.562 334.769 218.548L342.38 217.382C342.467 217.367 342.556 217.377 342.637 217.41C342.719 217.443 342.789 217.498 342.841 217.569C342.893 217.64 342.926 217.724 342.934 217.812C342.943 217.9 342.928 217.988 342.89 218.068L340.294 223.593C340.259 223.66 340.211 223.719 340.152 223.767C340.093 223.814 340.024 223.848 339.951 223.867L339.853 223.877ZM335.935 219.361L339.657 222.594L341.616 218.489L335.935 219.361Z" fill="#263238"/>
<path d="M334.965 193.176C334.886 193.177 334.808 193.156 334.739 193.117C334.624 193.059 334.537 192.957 334.496 192.834C334.456 192.711 334.466 192.577 334.524 192.461C335.009 191.386 335.894 190.541 336.991 190.106C338.088 189.671 339.311 189.679 340.401 190.13C340.521 190.182 340.615 190.279 340.663 190.4C340.71 190.521 340.708 190.657 340.656 190.776C340.604 190.896 340.507 190.99 340.386 191.037C340.264 191.085 340.129 191.083 340.01 191.031C339.582 190.846 339.121 190.747 338.655 190.741C338.188 190.735 337.725 190.821 337.292 190.995C336.86 191.169 336.466 191.427 336.133 191.755C335.801 192.082 335.537 192.472 335.356 192.902C335.321 192.978 335.266 193.043 335.197 193.091C335.128 193.14 335.048 193.169 334.965 193.176Z" fill="#263238"/>
<path d="M340.284 194.146C340.695 194.881 340.686 195.674 340.284 195.909C339.882 196.144 339.187 195.733 338.775 194.998C338.364 194.263 338.364 193.47 338.775 193.235C339.187 193 339.873 193.401 340.284 194.146Z" fill="#263238"/>
<path d="M343.732 206.685C343.645 206.684 343.56 206.66 343.486 206.616C343.412 206.571 343.351 206.507 343.311 206.43C343.247 206.317 343.231 206.183 343.266 206.059C343.301 205.934 343.384 205.828 343.497 205.764C345.975 204.373 347.611 205.578 347.68 205.627C347.768 205.709 347.824 205.82 347.835 205.94C347.847 206.061 347.814 206.181 347.742 206.278C347.67 206.375 347.565 206.442 347.447 206.467C347.329 206.491 347.206 206.471 347.102 206.411C347.043 206.411 345.867 205.558 343.977 206.626C343.901 206.664 343.817 206.684 343.732 206.685Z" fill="#263238"/>
<path d="M326.677 184.458C326.677 184.458 333.378 183.057 334.21 181.176C335.043 179.295 335.337 172.654 332.006 173.888C328.676 175.122 328.088 175.926 328.088 175.926C328.088 175.926 322.338 168.51 319.369 170.812C316.401 173.114 318.214 175.485 318.214 175.485C318.214 175.485 313.482 176.327 311.895 178.424C310.308 180.52 312.003 180.726 312.003 180.726C312.003 180.726 300.688 188.562 300.355 197.604C300.022 206.646 310.543 214.042 314.187 216.217C317.831 218.391 318.899 218.293 320.398 217.451C321.897 216.608 325.071 212.141 325.071 212.141C325.071 212.141 319.987 209.007 319.115 206.891C318.243 204.775 319.193 202.12 321.182 201.865C321.97 201.8 322.76 201.965 323.455 202.341C324.151 202.717 324.723 203.287 325.1 203.981C325.296 204.745 327.236 203.423 327.236 203.423C327.236 203.423 325.061 199.985 324.395 198.789C323.729 197.594 328.695 192.422 328.46 190.737C328.225 189.052 321.887 188.445 321.397 187.798C320.907 187.152 326.677 184.458 326.677 184.458Z" fill="#263238"/>
<path d="M318.654 218.421C317.557 218.421 316.205 217.892 313.952 216.579C312.473 215.707 299.513 207.821 299.885 197.565C300.179 189.503 308.642 182.606 311.101 180.775C310.989 180.662 310.899 180.529 310.837 180.383C310.592 179.775 310.837 179.031 311.522 178.11C312.855 176.366 316.097 175.455 317.498 175.171C317.087 174.192 316.744 172.281 319.095 170.459C322.034 168.187 326.794 173.575 328.166 175.259C329.303 174.498 330.539 173.895 331.839 173.467C332.229 173.281 332.667 173.223 333.092 173.302C333.516 173.382 333.904 173.594 334.2 173.908C335.768 175.573 335.278 179.991 334.661 181.411C333.769 183.371 327.803 184.771 326.824 184.967C325.176 185.717 323.596 186.609 322.102 187.632C322.484 187.74 323.15 187.896 323.709 188.033C326.589 188.709 328.803 189.336 328.989 190.649C329.116 191.629 328.234 192.971 326.765 195.106C326.001 196.223 324.727 198.094 324.865 198.535C325.521 199.7 327.666 203.109 327.686 203.139C327.754 203.246 327.777 203.375 327.752 203.5C327.726 203.624 327.653 203.733 327.549 203.805C326.941 204.226 325.815 204.883 325.149 204.628C325.03 204.585 324.925 204.513 324.841 204.419C324.757 204.325 324.698 204.211 324.669 204.089C324.317 203.511 323.813 203.042 323.211 202.732C322.61 202.423 321.934 202.286 321.26 202.336C320.941 202.384 320.639 202.507 320.376 202.694C320.114 202.881 319.9 203.128 319.751 203.413C319.482 203.912 319.328 204.464 319.299 205.03C319.271 205.596 319.368 206.161 319.585 206.685C320.251 208.301 323.963 210.858 325.335 211.71C325.392 211.745 325.441 211.79 325.48 211.844C325.518 211.898 325.546 211.959 325.56 212.024C325.573 212.09 325.572 212.158 325.557 212.224C325.542 212.29 325.513 212.352 325.472 212.406C325.149 212.876 322.2 216.99 320.652 217.852C320.048 218.215 319.359 218.411 318.654 218.421ZM320.731 170.861C320.357 170.851 319.991 170.968 319.692 171.194C317.204 173.153 318.468 174.985 318.625 175.191C318.677 175.257 318.711 175.335 318.724 175.419C318.736 175.502 318.727 175.587 318.696 175.665C318.665 175.744 318.614 175.813 318.549 175.865C318.483 175.918 318.404 175.952 318.321 175.965C318.272 175.965 313.756 176.797 312.296 178.708C311.64 179.56 311.709 179.913 311.738 180.001C311.767 180.089 312.091 180.226 312.091 180.226C312.189 180.237 312.282 180.278 312.357 180.344C312.431 180.41 312.483 180.497 312.505 180.594C312.528 180.691 312.52 180.792 312.483 180.884C312.445 180.976 312.38 181.054 312.296 181.108C312.189 181.186 301.178 188.866 300.864 197.604C300.512 207.292 313.021 214.894 314.451 215.727C318.164 217.901 318.967 217.686 320.182 216.961C321.221 216.383 323.346 213.65 324.385 212.22C323.101 211.387 319.487 208.889 318.683 207.018C318.407 206.354 318.285 205.637 318.326 204.919C318.366 204.202 318.569 203.503 318.918 202.874C319.138 202.457 319.454 202.098 319.841 201.829C320.228 201.56 320.674 201.387 321.142 201.327C322.029 201.243 322.922 201.421 323.71 201.836C324.498 202.252 325.148 202.889 325.58 203.668C325.942 203.562 326.288 203.407 326.608 203.207C326.011 202.228 324.551 199.926 324.012 198.966C323.474 198.006 324.404 196.801 325.972 194.518C326.873 193.196 328.117 191.384 328.029 190.747C327.941 190.11 324.933 189.287 323.493 188.944C322.053 188.602 321.338 188.425 321.074 188.102C321.01 188.029 320.966 187.942 320.944 187.848C320.922 187.754 320.922 187.657 320.946 187.563C321.093 186.897 322.905 185.702 326.461 184.017H326.569C329.067 183.498 333.23 182.224 333.759 181.01C334.288 179.795 334.602 175.769 333.485 174.584C333.32 174.411 333.103 174.299 332.867 174.263C332.631 174.228 332.39 174.272 332.182 174.388C329.145 175.524 328.499 176.259 328.489 176.268C328.446 176.33 328.386 176.379 328.317 176.41C328.248 176.441 328.172 176.453 328.097 176.445C328.025 176.446 327.952 176.43 327.886 176.4C327.82 176.369 327.762 176.324 327.715 176.268C326.412 174.554 323.013 170.861 320.731 170.861Z" fill="#263238"/>
<path d="M310.965 216.794L333.975 236.739L325.913 244.821L308.202 221.32L310.965 216.794Z" fill="white"/>
<path d="M325.913 245.311C325.842 245.307 325.772 245.288 325.71 245.254C325.647 245.22 325.593 245.172 325.551 245.115L307.839 221.604C307.785 221.523 307.755 221.428 307.755 221.33C307.755 221.232 307.785 221.137 307.839 221.056L310.543 216.55C310.581 216.49 310.632 216.44 310.691 216.401C310.75 216.362 310.816 216.336 310.886 216.324C310.957 216.313 311.03 216.318 311.1 216.338C311.169 216.358 311.233 216.394 311.288 216.442L334.298 236.377C334.35 236.42 334.391 236.474 334.42 236.535C334.449 236.596 334.464 236.662 334.465 236.729C334.468 236.796 334.458 236.863 334.435 236.925C334.411 236.987 334.375 237.044 334.328 237.092L326.256 245.183C326.162 245.269 326.039 245.314 325.913 245.311ZM308.78 221.291L325.942 244.076L333.24 236.769L311.082 217.529L308.78 221.291Z" fill="#263238"/>
<path d="M336.267 231.939L338.598 234.623L333.975 236.739L336.267 231.939Z" fill="white"/>
<path d="M333.975 237.229C333.911 237.23 333.847 237.217 333.788 237.192C333.729 237.167 333.676 237.129 333.632 237.082C333.561 237.012 333.513 236.922 333.496 236.823C333.478 236.725 333.492 236.624 333.535 236.534L335.827 231.733C335.862 231.66 335.915 231.597 335.981 231.549C336.047 231.501 336.123 231.47 336.204 231.46C336.285 231.449 336.367 231.458 336.443 231.487C336.519 231.517 336.587 231.564 336.64 231.626L338.971 234.3C339.02 234.359 339.055 234.429 339.074 234.503C339.092 234.578 339.094 234.656 339.079 234.731C339.06 234.804 339.026 234.873 338.978 234.932C338.931 234.991 338.872 235.039 338.805 235.074L334.181 237.19C334.116 237.217 334.046 237.23 333.975 237.229ZM336.385 232.831L335.004 235.769L337.796 234.486L336.385 232.831Z" fill="#263238"/>
<path d="M338.598 234.623L340.42 243.518L333.975 236.739L338.598 234.623Z" fill="white"/>
<path d="M340.42 243.978C340.288 243.978 340.161 243.925 340.068 243.831L333.622 237.121C333.569 237.064 333.53 236.995 333.508 236.92C333.486 236.846 333.481 236.767 333.495 236.69C333.509 236.614 333.542 236.542 333.589 236.481C333.637 236.419 333.698 236.37 333.769 236.337L338.393 234.221C338.458 234.19 338.53 234.174 338.603 234.174C338.676 234.174 338.748 234.19 338.814 234.221C338.881 234.254 338.94 234.303 338.986 234.362C339.032 234.421 339.063 234.491 339.078 234.564L340.9 243.459C340.922 243.563 340.91 243.672 340.866 243.769C340.822 243.866 340.748 243.946 340.655 243.998C340.577 244.005 340.497 243.998 340.42 243.978ZM334.807 236.866L339.598 241.911L338.236 235.299L334.807 236.866Z" fill="#263238"/>
<path d="M317.234 279.979C317.234 279.979 334.396 279.753 334.994 279.724C335.592 279.695 342.654 285.337 342.498 286.346C342.341 287.355 339.941 291.244 339.941 291.244C339.941 291.244 336.209 296.612 335.043 297.465C333.877 298.317 334.063 298.709 332.104 298.611C330.667 298.442 329.283 297.964 328.049 297.21C328.049 297.21 318.194 295.887 316.705 293.967C315.479 292.533 314.077 291.259 312.532 290.176L317.234 279.979Z" fill="white"/>
<path d="M332.662 299.13H332.094C330.606 298.97 329.171 298.485 327.892 297.709C326.471 297.513 317.851 296.26 316.332 294.291C315.135 292.896 313.766 291.658 312.257 290.607C312.162 290.542 312.094 290.445 312.063 290.334C312.033 290.223 312.043 290.105 312.091 290L316.793 279.783C316.834 279.7 316.896 279.63 316.974 279.58C317.051 279.53 317.141 279.502 317.234 279.499C323.16 279.42 334.504 279.263 334.964 279.244C335.856 279.244 340.754 283.368 342.135 284.906C342.781 285.611 343.017 286.052 342.968 286.424C342.811 287.482 340.754 290.862 340.342 291.528C339.931 292.194 336.512 297.014 335.327 297.886C335.072 298.082 334.886 298.248 334.729 298.385C334.465 298.659 334.141 298.869 333.782 298.998C333.424 299.127 333.041 299.172 332.662 299.13ZM313.149 290.019C314.602 291.07 315.918 292.297 317.067 293.673C318.047 294.957 324.345 296.23 328.078 296.73C328.146 296.742 328.212 296.765 328.274 296.798C329.438 297.515 330.745 297.97 332.104 298.131C333.426 298.199 333.573 298.072 334.063 297.641C334.279 297.443 334.504 297.257 334.739 297.082C335.63 296.416 338.491 292.449 339.51 290.97C340.488 289.484 341.319 287.906 341.988 286.258C341.743 285.357 335.836 280.566 334.915 280.204C333.72 280.204 319.859 280.429 317.527 280.459L313.149 290.019Z" fill="#263238"/>
<path d="M340.127 291.097C340.049 291.098 339.973 291.081 339.903 291.047C339.833 291.013 339.772 290.963 339.725 290.901L334.621 284.044C334.543 283.94 334.51 283.809 334.528 283.681C334.547 283.552 334.615 283.436 334.719 283.358C334.823 283.28 334.954 283.247 335.082 283.265C335.211 283.284 335.327 283.352 335.405 283.456L340.519 290.313C340.557 290.365 340.584 290.425 340.599 290.487C340.614 290.55 340.617 290.615 340.607 290.679C340.597 290.742 340.575 290.803 340.541 290.858C340.507 290.913 340.463 290.961 340.411 290.999C340.33 291.063 340.23 291.098 340.127 291.097Z" fill="#263238"/>
<path d="M338.05 294.134C337.927 294.135 337.808 294.089 337.717 294.007L331.31 288.06C331.258 288.018 331.215 287.966 331.184 287.906C331.153 287.846 331.135 287.781 331.13 287.714C331.125 287.647 331.135 287.58 331.157 287.517C331.179 287.453 331.215 287.395 331.26 287.346C331.306 287.297 331.361 287.258 331.423 287.231C331.485 287.204 331.551 287.19 331.618 287.19C331.685 287.19 331.752 287.204 331.813 287.231C331.875 287.257 331.93 287.296 331.976 287.345L338.383 293.282C338.453 293.349 338.501 293.436 338.522 293.531C338.542 293.625 338.534 293.724 338.499 293.814C338.463 293.905 338.401 293.982 338.321 294.038C338.241 294.093 338.147 294.123 338.05 294.124V294.134Z" fill="#263238"/>
<path d="M335.367 296.877C335.272 296.879 335.18 296.851 335.102 296.799L329.548 293.272C329.492 293.239 329.443 293.195 329.405 293.143C329.367 293.09 329.34 293.031 329.325 292.968C329.31 292.904 329.309 292.839 329.32 292.775C329.331 292.711 329.355 292.65 329.391 292.596C329.461 292.487 329.572 292.411 329.699 292.383C329.825 292.355 329.958 292.379 330.067 292.449L335.631 295.976C335.74 296.046 335.817 296.157 335.844 296.283C335.872 296.41 335.848 296.543 335.778 296.652C335.735 296.722 335.675 296.78 335.602 296.819C335.53 296.859 335.449 296.879 335.367 296.877Z" fill="#263238"/>
<path d="M342.498 286.346C342.498 286.346 343.478 291.303 343.742 292.273C344.007 293.242 342.146 294.673 341.137 294.114C340.128 293.556 339.941 291.264 339.941 291.264L342.498 286.346Z" fill="white"/>
<path d="M341.665 294.732C341.397 294.734 341.134 294.667 340.901 294.536C339.696 293.869 339.48 291.597 339.451 291.303C339.449 291.211 339.47 291.121 339.51 291.038L342.066 286.14C342.115 286.05 342.189 285.977 342.28 285.93C342.371 285.882 342.474 285.864 342.576 285.876C342.675 285.891 342.768 285.937 342.84 286.007C342.912 286.077 342.96 286.169 342.977 286.268C342.977 286.317 343.957 291.215 344.212 292.145C344.272 292.521 344.222 292.907 344.068 293.255C343.913 293.603 343.66 293.898 343.34 294.105C342.864 294.489 342.276 294.709 341.665 294.732ZM340.45 291.352C340.528 292.067 340.832 293.38 341.381 293.683C341.62 293.741 341.87 293.737 342.107 293.67C342.343 293.603 342.559 293.476 342.732 293.301C343.154 292.958 343.33 292.586 343.281 292.41C343.075 291.754 342.595 289.363 342.301 287.816L340.45 291.352Z" fill="#263238"/>
<path d="M312.542 290.686C312.436 290.683 312.334 290.649 312.248 290.588L307.908 287.404C307.826 287.347 307.763 287.265 307.73 287.17C307.696 287.075 307.694 286.972 307.722 286.875L310.739 275.747C310.76 275.673 310.799 275.604 310.851 275.548C310.904 275.492 310.97 275.449 311.043 275.424C311.111 275.388 311.186 275.369 311.263 275.369C311.34 275.369 311.416 275.388 311.484 275.424L317.479 279.528C317.574 279.594 317.642 279.691 317.673 279.802C317.703 279.913 317.693 280.031 317.645 280.136L312.943 290.343C312.914 290.41 312.87 290.47 312.814 290.518C312.758 290.565 312.691 290.599 312.62 290.617L312.542 290.686ZM308.78 286.817L312.375 289.442L316.646 280.155L311.572 276.678L308.78 286.817Z" fill="#263238"/>
<path d="M319.232 246.917C319.232 246.917 320.212 233.888 316.48 227.325C312.747 220.762 304.411 221.32 291.01 225.562C277.609 229.803 242.559 255.655 241.883 258.29C241.207 260.925 249.308 267.312 253.991 269.066C258.673 270.819 301.991 287.678 302.834 288.256C303.676 288.834 307.075 289.236 308.163 287.002C309.25 284.769 312.512 277.804 311.219 275.874C309.926 273.944 290.265 259.515 290.265 259.515L309.573 250.199" fill="white"/>
<path d="M304.91 289.207C304.102 289.238 303.3 289.052 302.588 288.668C301.423 288.012 259.535 271.682 253.844 269.526C249.484 267.881 240.639 261.308 241.442 258.153C242.196 255.215 277.472 229.343 290.892 225.082C303.578 221.056 312.855 219.861 316.91 227.041C320.652 233.703 319.761 246.418 319.722 246.947C319.709 247.077 319.647 247.197 319.549 247.282C319.451 247.368 319.323 247.413 319.193 247.407C319.128 247.402 319.066 247.385 319.008 247.355C318.95 247.326 318.899 247.286 318.857 247.236C318.815 247.187 318.784 247.13 318.764 247.069C318.744 247.007 318.737 246.943 318.742 246.878C318.742 246.751 319.653 233.928 316.048 227.521C312.816 221.771 305.841 221.34 291.186 225.983C277.432 230.391 243.146 256.028 242.392 258.398C241.834 260.563 249.553 266.862 254.147 268.615C256.969 269.683 302.148 287.228 303.127 287.855C304.052 288.264 305.09 288.344 306.066 288.08C306.422 288.004 306.756 287.849 307.044 287.627C307.332 287.405 307.567 287.121 307.731 286.797C310.415 281.252 311.571 277.275 310.817 276.149C309.906 274.787 297.857 265.696 289.981 259.926C289.914 259.875 289.861 259.808 289.826 259.731C289.792 259.654 289.778 259.57 289.785 259.486C289.791 259.4 289.819 259.318 289.868 259.247C289.916 259.177 289.982 259.12 290.059 259.084L309.367 249.768C309.425 249.74 309.488 249.723 309.552 249.719C309.617 249.715 309.681 249.724 309.742 249.745C309.803 249.766 309.859 249.798 309.908 249.841C309.956 249.884 309.995 249.935 310.024 249.993C310.052 250.051 310.069 250.114 310.073 250.178C310.077 250.243 310.068 250.307 310.047 250.368C310.026 250.429 309.993 250.485 309.951 250.534C309.908 250.582 309.856 250.621 309.798 250.65L291.186 259.613C294.987 262.405 310.396 273.798 311.611 275.61C312.59 277.109 311.611 281.017 308.584 287.218C308.364 287.668 308.049 288.065 307.66 288.38C307.27 288.694 306.817 288.92 306.331 289.04C305.866 289.155 305.389 289.211 304.91 289.207Z" fill="#263238"/>
<path d="M261.259 250.042C261.129 250.068 260.994 250.041 260.884 249.968C260.774 249.894 260.697 249.78 260.671 249.65C260.645 249.52 260.672 249.385 260.745 249.275C260.819 249.165 260.933 249.088 261.063 249.062C261.998 248.675 262.957 248.348 263.933 248.083C264.058 248.05 264.191 248.067 264.303 248.131C264.414 248.196 264.497 248.301 264.531 248.426C264.549 248.487 264.554 248.551 264.547 248.614C264.54 248.677 264.521 248.739 264.49 248.794C264.459 248.85 264.417 248.899 264.367 248.938C264.317 248.977 264.259 249.006 264.198 249.023C263.264 249.292 262.348 249.62 261.455 250.003C261.393 250.03 261.326 250.043 261.259 250.042Z" fill="#263238"/>
<path d="M290.295 260.014C290.193 260.017 290.094 259.986 290.011 259.926C289.874 259.838 277.149 250.738 274.475 248.69C273.231 247.711 270.223 247.711 266.236 248.553C266.172 248.567 266.105 248.567 266.041 248.555C265.976 248.543 265.915 248.518 265.86 248.482C265.805 248.446 265.757 248.4 265.72 248.346C265.683 248.292 265.657 248.231 265.643 248.166C265.63 248.102 265.629 248.036 265.641 247.971C265.654 247.906 265.678 247.845 265.714 247.79C265.75 247.735 265.797 247.687 265.851 247.65C265.905 247.613 265.966 247.587 266.03 247.574C268.538 247.025 273.044 246.329 275.072 247.877C277.727 249.915 290.452 259.005 290.579 259.094C290.683 259.172 290.752 259.287 290.772 259.415C290.792 259.543 290.761 259.673 290.687 259.779C290.646 259.848 290.589 259.905 290.521 259.947C290.452 259.988 290.375 260.011 290.295 260.014Z" fill="#263238"/>
<path d="M280 249.533C279.904 249.533 279.81 249.505 279.73 249.453C279.65 249.401 279.587 249.326 279.549 249.239C277.688 244.919 272.075 245.124 272.026 245.134C271.896 245.141 271.769 245.095 271.672 245.008C271.576 244.921 271.518 244.799 271.511 244.669C271.505 244.539 271.55 244.412 271.638 244.315C271.725 244.219 271.847 244.161 271.977 244.155C272.241 244.155 278.315 243.9 280.45 248.847C280.476 248.906 280.49 248.97 280.491 249.034C280.493 249.099 280.481 249.163 280.457 249.223C280.434 249.283 280.398 249.338 280.353 249.384C280.308 249.431 280.255 249.468 280.196 249.493C280.134 249.52 280.067 249.534 280 249.533Z" fill="#263238"/>
<path d="M307.722 255.734C307.602 255.732 307.486 255.686 307.398 255.605C307.309 255.523 307.254 255.412 307.242 255.293C307.235 255.228 307.241 255.163 307.26 255.101C307.278 255.039 307.309 254.982 307.35 254.931C307.391 254.881 307.441 254.84 307.499 254.809C307.556 254.779 307.618 254.76 307.683 254.754L310.494 254.47C310.622 254.459 310.75 254.497 310.85 254.577C310.95 254.658 311.016 254.774 311.033 254.901C311.04 254.965 311.034 255.03 311.015 255.092C310.997 255.154 310.966 255.212 310.925 255.262C310.884 255.312 310.833 255.354 310.776 255.384C310.719 255.415 310.657 255.434 310.592 255.44L307.8 255.734H307.722Z" fill="#263238"/>
<path d="M296.956 256.85C296.835 256.849 296.718 256.803 296.628 256.722C296.538 256.641 296.481 256.53 296.466 256.41C296.458 256.281 296.499 256.153 296.58 256.053C296.662 255.953 296.779 255.888 296.907 255.871L304.421 255.097C304.551 255.084 304.68 255.123 304.782 255.206C304.883 255.288 304.947 255.408 304.96 255.538C304.973 255.668 304.933 255.797 304.851 255.898C304.768 255.999 304.649 256.064 304.519 256.077L297.005 256.85H296.956Z" fill="#263238"/>
<path d="M341.625 153.924C341.625 153.924 345.74 149.389 345.897 148.83C346.053 148.272 347.581 139.896 347.581 139.896L345.622 141.64L341.625 153.924Z" fill="white"/>
<path d="M341.626 154.414C341.54 154.412 341.456 154.388 341.381 154.345C341.284 154.288 341.209 154.2 341.168 154.095C341.127 153.99 341.123 153.875 341.156 153.767L345.172 141.483C345.203 141.405 345.25 141.335 345.309 141.277L347.269 139.533C347.344 139.464 347.44 139.42 347.542 139.408C347.644 139.395 347.748 139.416 347.838 139.465C347.928 139.515 348 139.592 348.043 139.685C348.087 139.778 348.101 139.883 348.082 139.984C347.925 140.846 346.544 148.389 346.387 148.957C346.23 149.525 343.566 152.523 342.008 154.247C341.96 154.301 341.901 154.343 341.835 154.372C341.769 154.401 341.698 154.415 341.626 154.414ZM346.064 141.914L342.811 151.896C343.748 150.893 344.622 149.833 345.427 148.722C345.515 148.399 346.25 144.49 346.838 141.267L346.064 141.914Z" fill="#263238"/>
<path d="M333.622 171.556C333.622 171.556 324.806 164.053 326.109 161.222C327.412 158.391 341.783 145.548 341.783 145.548C341.783 145.548 345.436 141.12 345.652 141.63C345.867 142.139 344.839 147.752 343.996 149.466C343.154 151.181 336.277 161.467 336.277 161.467L340.137 164.964L333.622 171.556Z" fill="white"/>
<path d="M333.623 172.046C333.507 172.048 333.395 172.006 333.309 171.929C331.781 170.636 324.238 164.033 325.668 161.006C327.098 157.979 340.852 145.685 341.44 145.156C344.888 140.983 345.358 141.061 345.662 141.11C345.757 141.131 345.845 141.173 345.92 141.234C345.995 141.296 346.054 141.374 346.093 141.463C346.416 142.276 345.241 148.036 344.428 149.682C343.615 151.328 338.148 159.537 336.914 161.388L340.46 164.601C340.554 164.697 340.607 164.825 340.607 164.959C340.607 165.093 340.554 165.221 340.46 165.316L333.946 171.899C333.904 171.944 333.854 171.98 333.799 172.005C333.743 172.03 333.683 172.044 333.623 172.046ZM345.143 142.501C344.418 143.197 343.183 144.578 342.145 145.832C337.169 150.309 327.578 159.262 326.55 161.427C325.727 163.181 330.302 168.03 333.593 170.89L339.422 165.013L335.944 161.858C335.855 161.781 335.797 161.673 335.783 161.555C335.769 161.437 335.798 161.319 335.866 161.222C335.934 161.124 342.723 150.936 343.556 149.28C344.341 147.088 344.873 144.814 345.143 142.501Z" fill="#263238"/>
<path d="M425.979 0.528076L353.489 43.268L363.442 61.4984C362.09 62.6347 259.604 181.01 209.88 238.434C201.576 248.017 191.299 255.692 179.752 260.934C168.206 266.175 155.663 268.859 142.983 268.801L12.9897 268.321V307.505L153.641 307.574C169.581 307.584 185.339 304.196 199.866 297.635C214.394 291.074 227.355 281.492 237.886 269.526L383.523 97.7436L394.573 118.002L428.291 5.1322L425.979 0.528076Z" fill="#263238"/>
<path d="M153.748 308.063H153.68L13.0289 307.995C12.8997 307.992 12.7766 307.94 12.6853 307.848C12.594 307.757 12.5416 307.634 12.5391 307.505V268.321C12.5433 268.189 12.5956 268.064 12.686 267.968C12.7791 267.881 12.9014 267.832 13.0289 267.831L143.012 268.311H143.404C155.952 268.322 168.355 265.629 179.769 260.416C191.182 255.203 201.339 247.592 209.546 238.1C264.894 174.162 356.966 67.8457 362.883 61.4195L353.087 43.4928C353.026 43.3819 353.01 43.2515 353.043 43.1291C353.076 43.0067 353.155 42.9018 353.264 42.8365L425.754 0.0965381C425.812 0.0621769 425.877 0.0401114 425.945 0.0316901C426.012 0.0232688 426.081 0.0286673 426.146 0.0475569C426.21 0.0665934 426.27 0.09917 426.32 0.1431C426.371 0.187029 426.412 0.241295 426.44 0.302253L428.742 4.90638C428.766 4.96379 428.778 5.02538 428.778 5.0876C428.778 5.14982 428.766 5.21142 428.742 5.26883L395.043 118.138C395.017 118.233 394.962 118.316 394.887 118.379C394.812 118.442 394.72 118.481 394.622 118.491C394.526 118.499 394.43 118.48 394.345 118.435C394.259 118.389 394.189 118.321 394.142 118.236L383.435 98.6443L238.249 269.839C227.684 281.843 214.684 291.46 200.115 298.05C185.545 304.641 169.739 308.054 153.748 308.063ZM13.5187 307.015L153.68 307.084H153.748C169.604 307.08 185.278 303.7 199.726 297.169C214.174 290.637 227.066 281.104 237.543 269.203L383.141 97.4296C383.195 97.3693 383.262 97.322 383.336 97.2915C383.411 97.2609 383.492 97.2478 383.572 97.2533C383.65 97.2628 383.725 97.2909 383.79 97.3352C383.854 97.3796 383.908 97.4388 383.945 97.508L394.436 116.738L427.743 5.18066L425.783 1.21328L354.194 43.4536L363.912 61.2726C363.963 61.3723 363.98 61.4865 363.958 61.5966C363.937 61.7068 363.879 61.8066 363.794 61.8799C362.55 63.0261 306.595 127.513 210.291 238.757C201.991 248.353 191.722 256.051 180.182 261.324C168.642 266.598 156.102 269.325 143.414 269.32H143.022L13.5187 268.84V307.015Z" fill="#263238"/>
<path d="M351.226 38.6639L361.179 56.8747C359.827 58.011 257.341 176.386 207.617 233.81C199.314 243.395 189.038 251.072 177.491 256.314C165.944 261.555 153.4 264.238 140.72 264.178L13.0288 263.707V302.891L151.378 302.97C167.318 302.978 183.077 299.588 197.604 293.025C212.131 286.463 225.092 276.879 235.623 264.912L381.211 93.1199L392.271 113.378L425.979 0.528076L351.226 38.6639Z" fill="white"/>
<path d="M151.437 303.459H151.378L13.0289 303.381C12.899 303.381 12.7744 303.329 12.6825 303.238C12.5907 303.146 12.5391 303.021 12.5391 302.891V263.707C12.5414 263.575 12.594 263.449 12.686 263.355C12.7898 263.279 12.9113 263.232 13.0387 263.217L140.72 263.688H141.112C153.658 263.693 166.059 260.997 177.471 255.783C188.882 250.568 199.037 242.957 207.244 233.467C262.582 169.528 354.664 63.2614 360.581 56.8156L350.785 38.8988C350.737 38.776 350.737 38.6394 350.785 38.5167C350.804 38.4551 350.836 38.3981 350.878 38.3492C350.92 38.3003 350.972 38.2606 351.03 38.2326L425.764 0.0576103C425.847 0.0114339 425.943 -0.0077117 426.038 0.00281645C426.132 0.0133446 426.221 0.0530267 426.293 0.116386C426.367 0.175461 426.422 0.255782 426.45 0.346732C426.478 0.437683 426.478 0.534984 426.449 0.625778L392.741 113.534C392.711 113.627 392.656 113.709 392.581 113.771C392.507 113.833 392.416 113.874 392.32 113.887C392.224 113.896 392.128 113.876 392.043 113.831C391.957 113.786 391.887 113.717 391.84 113.632L381.123 94.0404L235.986 265.235C225.415 277.245 212.408 286.866 197.829 293.456C183.251 300.047 167.436 303.457 151.437 303.459ZM13.5187 302.401L151.378 302.48H151.437C167.298 302.472 182.976 299.085 197.426 292.544C211.876 286.004 224.767 276.461 235.241 264.55L380.839 92.8159C380.895 92.7585 380.962 92.7138 381.036 92.6851C381.111 92.6563 381.191 92.6441 381.27 92.6494C381.348 92.6581 381.423 92.6859 381.488 92.7303C381.553 92.7747 381.606 92.8344 381.643 92.9041L392.134 112.134L425.186 1.48783L351.882 38.8694L361.59 56.6589C361.642 56.7601 361.659 56.8759 361.638 56.9878C361.617 57.0996 361.558 57.2011 361.473 57.2761C359.719 58.9022 253.55 181.509 207.989 234.182C199.69 243.78 189.422 251.479 177.881 256.753C166.341 262.027 153.8 264.753 141.112 264.746H140.72L13.5187 264.275V302.401Z" fill="#263238"/>
</svg>
