<svg width="289" height="362" viewBox="0 0 289 362" fill="none" xmlns="http://www.w3.org/2000/svg">
<g clip-path="url(#clip0_6_9390)">
<rect width="289" height="362" fill="#DDFFDA"/>
<path d="M27.7778 35V20.4545H37.9198V23.3097H31.2934V26.2926H37.4014V29.1548H31.2934V32.1449H37.9198V35H27.7778ZM40.6215 20.4545H44.9752L48.6684 29.4602H48.8389L52.5321 20.4545H56.8857V35H53.4625V26.0653H53.3417L49.8474 34.9077H47.6599L44.1656 26.0156H44.0448V35H40.6215V20.4545ZM59.5786 35V20.4545H65.5871C66.6761 20.4545 67.616 20.6676 68.4067 21.0938C69.2022 21.5152 69.8153 22.1046 70.2462 22.8622C70.6771 23.6151 70.8925 24.491 70.8925 25.4901C70.8925 26.4938 70.6723 27.3722 70.232 28.125C69.7964 28.8731 69.1737 29.4531 68.3641 29.8651C67.5544 30.277 66.5933 30.483 65.4806 30.483H61.7732V27.7131H64.8272C65.3575 27.7131 65.8002 27.6207 66.1553 27.4361C66.5151 27.2514 66.7874 26.9934 66.972 26.6619C67.1567 26.3258 67.249 25.9351 67.249 25.4901C67.249 25.0402 67.1567 24.652 66.972 24.3253C66.7874 23.9938 66.5151 23.7382 66.1553 23.5582C65.7954 23.3783 65.3527 23.2884 64.8272 23.2884H63.0942V35H59.5786ZM73.1254 35V20.4545H76.6411V32.1449H82.6922V35H73.1254ZM98.1745 27.7273C98.1745 29.3277 97.8667 30.6842 97.2512 31.7969C96.6356 32.9096 95.8023 33.7547 94.7512 34.3324C93.7048 34.91 92.5305 35.1989 91.2284 35.1989C89.9216 35.1989 88.745 34.9077 87.6986 34.3253C86.6522 33.7429 85.8212 32.8977 85.2057 31.7898C84.5949 30.6771 84.2895 29.3229 84.2895 27.7273C84.2895 26.1269 84.5949 24.7704 85.2057 23.6577C85.8212 22.545 86.6522 21.6998 87.6986 21.1222C88.745 20.5445 89.9216 20.2557 91.2284 20.2557C92.5305 20.2557 93.7048 20.5445 94.7512 21.1222C95.8023 21.6998 96.6356 22.545 97.2512 23.6577C97.8667 24.7704 98.1745 26.1269 98.1745 27.7273ZM94.5807 27.7273C94.5807 26.7803 94.4458 25.9801 94.1759 25.3267C93.9107 24.6733 93.5272 24.1785 93.0253 23.8423C92.5281 23.5062 91.9292 23.3381 91.2284 23.3381C90.5324 23.3381 89.9335 23.5062 89.4316 23.8423C88.9297 24.1785 88.5438 24.6733 88.2739 25.3267C88.0087 25.9801 87.8762 26.7803 87.8762 27.7273C87.8762 28.6742 88.0087 29.4744 88.2739 30.1278C88.5438 30.7812 88.9297 31.276 89.4316 31.6122C89.9335 31.9484 90.5324 32.1165 91.2284 32.1165C91.9292 32.1165 92.5281 31.9484 93.0253 31.6122C93.5272 31.276 93.9107 30.7812 94.1759 30.1278C94.4458 29.4744 94.5807 28.6742 94.5807 27.7273ZM99.0455 20.4545H102.973L106.048 26.5412H106.176L109.252 20.4545H113.179L107.859 30.142V35H104.365V30.142L99.0455 20.4545ZM115.153 35V20.4545H125.295V23.3097H118.668V26.2926H124.776V29.1548H118.668V32.1449H125.295V35H115.153ZM127.997 35V20.4545H138.139V23.3097H131.512V26.2926H137.62V29.1548H131.512V32.1449H138.139V35H127.997ZM30.9241 59H27.1457L32.0534 44.4545H36.7338L41.6414 59H37.863L34.4468 48.1193H34.3332L30.9241 59ZM30.4198 53.2756H38.3176V55.946H30.4198V53.2756ZM51.1205 48.8153C51.0731 48.2945 50.8624 47.8897 50.4884 47.6009C50.1191 47.3073 49.5911 47.1605 48.9046 47.1605C48.45 47.1605 48.0712 47.2197 47.7682 47.3381C47.4652 47.4564 47.2379 47.6198 47.0864 47.8281C46.9349 48.0317 46.8567 48.2661 46.852 48.5312C46.8425 48.7491 46.8852 48.9408 46.9799 49.1065C47.0793 49.2723 47.2213 49.419 47.406 49.5469C47.5954 49.67 47.8227 49.7789 48.0878 49.8736C48.353 49.9683 48.6513 50.0511 48.9827 50.1222L50.2327 50.4062C50.9524 50.5625 51.5869 50.7708 52.1361 51.0312C52.6901 51.2917 53.1541 51.6018 53.5281 51.9616C53.9069 52.3215 54.1934 52.7358 54.3875 53.2045C54.5817 53.6733 54.6811 54.1989 54.6858 54.7812C54.6811 55.6998 54.4491 56.4882 53.9898 57.1463C53.5305 57.8045 52.87 58.3087 52.0083 58.6591C51.1513 59.0095 50.1167 59.1847 48.9046 59.1847C47.6877 59.1847 46.6271 59.0024 45.7228 58.6378C44.8184 58.2732 44.1153 57.7192 43.6134 56.9759C43.1115 56.2325 42.8534 55.2926 42.8392 54.1562H46.2057C46.2341 54.625 46.3596 55.0156 46.5821 55.3281C46.8047 55.6406 47.1101 55.8774 47.4983 56.0384C47.8913 56.1993 48.3459 56.2798 48.862 56.2798C49.3354 56.2798 49.7379 56.2159 50.0693 56.0881C50.4055 55.9602 50.6636 55.7827 50.8435 55.5554C51.0234 55.3281 51.1157 55.0677 51.1205 54.7741C51.1157 54.4995 51.0305 54.2652 50.8648 54.071C50.6991 53.8722 50.4434 53.7017 50.0978 53.5597C49.7568 53.4129 49.3212 53.2779 48.7909 53.1548L47.271 52.7997C46.0116 52.5109 45.0196 52.0445 44.2952 51.4006C43.5708 50.7519 43.2109 49.8759 43.2156 48.7727C43.2109 47.8731 43.4524 47.0848 43.9401 46.4077C44.4278 45.7306 45.1025 45.2027 45.9642 44.8239C46.826 44.4451 47.8085 44.2557 48.9117 44.2557C50.0386 44.2557 51.0163 44.4474 51.8449 44.831C52.6782 45.2098 53.3246 45.7424 53.7838 46.429C54.2431 47.1155 54.4775 47.911 54.487 48.8153H51.1205ZM64.8236 48.8153C64.7763 48.2945 64.5656 47.8897 64.1915 47.6009C63.8222 47.3073 63.2942 47.1605 62.6077 47.1605C62.1531 47.1605 61.7744 47.2197 61.4713 47.3381C61.1683 47.4564 60.941 47.6198 60.7895 47.8281C60.638 48.0317 60.5599 48.2661 60.5551 48.5312C60.5457 48.7491 60.5883 48.9408 60.683 49.1065C60.7824 49.2723 60.9245 49.419 61.1091 49.5469C61.2985 49.67 61.5258 49.7789 61.7909 49.8736C62.0561 49.9683 62.3544 50.0511 62.6858 50.1222L63.9358 50.4062C64.6555 50.5625 65.29 50.7708 65.8392 51.0312C66.3932 51.2917 66.8572 51.6018 67.2313 51.9616C67.6101 52.3215 67.8965 52.7358 68.0906 53.2045C68.2848 53.6733 68.3842 54.1989 68.3889 54.7812C68.3842 55.6998 68.1522 56.4882 67.6929 57.1463C67.2336 57.8045 66.5731 58.3087 65.7114 58.6591C64.8544 59.0095 63.8198 59.1847 62.6077 59.1847C61.3908 59.1847 60.3302 59.0024 59.4259 58.6378C58.5215 58.2732 57.8184 57.7192 57.3165 56.9759C56.8146 56.2325 56.5566 55.2926 56.5424 54.1562H59.9088C59.9372 54.625 60.0627 55.0156 60.2853 55.3281C60.5078 55.6406 60.8132 55.8774 61.2014 56.0384C61.5944 56.1993 62.049 56.2798 62.5651 56.2798C63.0386 56.2798 63.441 56.2159 63.7725 56.0881C64.1086 55.9602 64.3667 55.7827 64.5466 55.5554C64.7265 55.3281 64.8189 55.0677 64.8236 54.7741C64.8189 54.4995 64.7336 54.2652 64.5679 54.071C64.4022 53.8722 64.1465 53.7017 63.8009 53.5597C63.46 53.4129 63.0244 53.2779 62.4941 53.1548L60.9742 52.7997C59.7147 52.5109 58.7228 52.0445 57.9983 51.4006C57.2739 50.7519 56.914 49.8759 56.9188 48.7727C56.914 47.8731 57.1555 47.0848 57.6432 46.4077C58.1309 45.7306 58.8056 45.2027 59.6674 44.8239C60.5291 44.4451 61.5116 44.2557 62.6148 44.2557C63.7417 44.2557 64.7194 44.4474 65.548 44.831C66.3814 45.2098 67.0277 45.7424 67.487 46.429C67.9462 47.1155 68.1806 47.911 68.1901 48.8153H64.8236ZM74.1801 44.4545V59H70.6645V44.4545H74.1801ZM84.7494 48.8153C84.702 48.2945 84.4913 47.8897 84.1173 47.6009C83.748 47.3073 83.22 47.1605 82.5335 47.1605C82.0789 47.1605 81.7001 47.2197 81.3971 47.3381C81.0941 47.4564 80.8668 47.6198 80.7153 47.8281C80.5638 48.0317 80.4857 48.2661 80.4809 48.5312C80.4714 48.7491 80.5141 48.9408 80.6088 49.1065C80.7082 49.2723 80.8502 49.419 81.0349 49.5469C81.2243 49.67 81.4516 49.7789 81.7167 49.8736C81.9819 49.9683 82.2802 50.0511 82.6116 50.1222L83.8616 50.4062C84.5813 50.5625 85.2158 50.7708 85.765 51.0312C86.319 51.2917 86.783 51.6018 87.1571 51.9616C87.5358 52.3215 87.8223 52.7358 88.0164 53.2045C88.2106 53.6733 88.31 54.1989 88.3147 54.7812C88.31 55.6998 88.078 56.4882 87.6187 57.1463C87.1594 57.8045 86.4989 58.3087 85.6372 58.6591C84.7802 59.0095 83.7456 59.1847 82.5335 59.1847C81.3166 59.1847 80.256 59.0024 79.3517 58.6378C78.4473 58.2732 77.7442 57.7192 77.2423 56.9759C76.7404 56.2325 76.4823 55.2926 76.4681 54.1562H79.8346C79.863 54.625 79.9885 55.0156 80.211 55.3281C80.4336 55.6406 80.739 55.8774 81.1272 56.0384C81.5202 56.1993 81.9748 56.2798 82.4909 56.2798C82.9643 56.2798 83.3668 56.2159 83.6982 56.0881C84.0344 55.9602 84.2925 55.7827 84.4724 55.5554C84.6523 55.3281 84.7446 55.0677 84.7494 54.7741C84.7446 54.4995 84.6594 54.2652 84.4937 54.071C84.328 53.8722 84.0723 53.7017 83.7267 53.5597C83.3857 53.4129 82.9501 53.2779 82.4198 53.1548L80.9 52.7997C79.6405 52.5109 78.6485 52.0445 77.9241 51.4006C77.1997 50.7519 76.8398 49.8759 76.8446 48.7727C76.8398 47.8731 77.0813 47.0848 77.569 46.4077C78.0567 45.7306 78.7314 45.2027 79.5931 44.8239C80.4549 44.4451 81.4374 44.2557 82.5406 44.2557C83.6675 44.2557 84.6452 44.4474 85.4738 44.831C86.3071 45.2098 86.9535 45.7424 87.4127 46.429C87.872 47.1155 88.1064 47.911 88.1159 48.8153H84.7494ZM90.1144 47.3097V44.4545H102.408V47.3097H97.998V59H94.5321V47.3097H90.1144ZM105.955 59H102.177L107.085 44.4545H111.765L116.673 59H112.894L109.478 48.1193H109.364L105.955 59ZM105.451 53.2756H113.349V55.946H105.451V53.2756ZM131.118 44.4545V59H128.135L122.347 50.6051H122.254V59H118.739V44.4545H121.764L127.489 52.8352H127.609V44.4545H131.118ZM147.032 49.7244H143.481C143.433 49.3598 143.336 49.0308 143.189 48.7372C143.043 48.4437 142.848 48.1927 142.607 47.9844C142.366 47.776 142.079 47.6174 141.748 47.5085C141.421 47.3949 141.059 47.3381 140.661 47.3381C139.955 47.3381 139.347 47.5109 138.836 47.8565C138.329 48.2022 137.938 48.7017 137.664 49.3551C137.394 50.0085 137.259 50.7992 137.259 51.7273C137.259 52.6932 137.396 53.5028 137.671 54.1562C137.95 54.8049 138.341 55.295 138.843 55.6264C139.349 55.9531 139.948 56.1165 140.64 56.1165C141.028 56.1165 141.381 56.0668 141.698 55.9673C142.02 55.8679 142.302 55.7235 142.543 55.5341C142.789 55.34 142.991 55.1056 143.147 54.831C143.308 54.5516 143.419 54.2367 143.481 53.8864L147.032 53.9077C146.97 54.5516 146.783 55.1861 146.471 55.8111C146.163 56.4361 145.739 57.0066 145.199 57.5227C144.66 58.0341 144.001 58.4413 143.225 58.7443C142.453 59.0473 141.568 59.1989 140.569 59.1989C139.252 59.1989 138.073 58.91 137.032 58.3324C135.995 57.75 135.176 56.9025 134.574 55.7898C133.973 54.6771 133.672 53.3229 133.672 51.7273C133.672 50.1269 133.978 48.7704 134.589 47.6577C135.199 46.545 136.026 45.6998 137.067 45.1222C138.109 44.5445 139.276 44.2557 140.569 44.2557C141.449 44.2557 142.264 44.3788 143.012 44.625C143.76 44.8665 144.418 45.2216 144.986 45.6903C145.554 46.1544 146.016 46.7249 146.371 47.402C146.726 48.0791 146.946 48.8532 147.032 49.7244ZM149.543 59V44.4545H159.685V47.3097H153.059V50.2926H159.167V53.1548H153.059V56.1449H159.685V59H149.543ZM27.7778 83V68.4545H33.7863C34.8753 68.4545 35.8152 68.6676 36.6059 69.0938C37.4014 69.5152 38.0145 70.1046 38.4454 70.8622C38.8763 71.6151 39.0917 72.491 39.0917 73.4901C39.0917 74.4938 38.8715 75.3722 38.4312 76.125C37.9956 76.8731 37.373 77.4531 36.5633 77.8651C35.7536 78.277 34.7925 78.483 33.6798 78.483H29.9724V75.7131H33.0264C33.5567 75.7131 33.9994 75.6207 34.3545 75.4361C34.7143 75.2514 34.9866 74.9934 35.1713 74.6619C35.3559 74.3258 35.4482 73.9351 35.4482 73.4901C35.4482 73.0402 35.3559 72.652 35.1713 72.3253C34.9866 71.9938 34.7143 71.7382 34.3545 71.5582C33.9946 71.3783 33.5519 71.2884 33.0264 71.2884H31.2934V83H27.7778ZM41.3247 83V68.4545H47.3332C48.4222 68.4545 49.3621 68.651 50.1528 69.044C50.9482 69.4323 51.5614 69.991 51.9923 70.7202C52.4232 71.4446 52.6386 72.304 52.6386 73.2983C52.6386 74.3068 52.4184 75.1638 51.9781 75.8693C51.5377 76.5701 50.9127 77.1051 50.1031 77.4744C49.2934 77.839 48.3346 78.0213 47.2267 78.0213H43.4269V75.2514H46.5732C47.1036 75.2514 47.5463 75.1828 47.9014 75.0455C48.2612 74.9034 48.5335 74.6903 48.7181 74.4062C48.9028 74.1174 48.9951 73.7481 48.9951 73.2983C48.9951 72.8485 48.9028 72.4768 48.7181 72.1832C48.5335 71.8849 48.2612 71.6624 47.9014 71.5156C47.5415 71.3641 47.0988 71.2884 46.5732 71.2884H44.8403V83H41.3247ZM49.5136 76.3523L53.1357 83H49.3005L45.7494 76.3523H49.5136ZM68.7955 75.7273C68.7955 77.3277 68.4878 78.6842 67.8723 79.7969C67.2567 80.9096 66.4234 81.7547 65.3723 82.3324C64.3259 82.91 63.1516 83.1989 61.8495 83.1989C60.5427 83.1989 59.3661 82.9077 58.3197 82.3253C57.2733 81.7429 56.4423 80.8977 55.8268 79.7898C55.216 78.6771 54.9106 77.3229 54.9106 75.7273C54.9106 74.1269 55.216 72.7704 55.8268 71.6577C56.4423 70.545 57.2733 69.6998 58.3197 69.1222C59.3661 68.5445 60.5427 68.2557 61.8495 68.2557C63.1516 68.2557 64.3259 68.5445 65.3723 69.1222C66.4234 69.6998 67.2567 70.545 67.8723 71.6577C68.4878 72.7704 68.7955 74.1269 68.7955 75.7273ZM65.2018 75.7273C65.2018 74.7803 65.0669 73.9801 64.797 73.3267C64.5318 72.6733 64.1483 72.1785 63.6464 71.8423C63.1492 71.5062 62.5503 71.3381 61.8495 71.3381C61.1535 71.3381 60.5545 71.5062 60.0527 71.8423C59.5508 72.1785 59.1649 72.6733 58.895 73.3267C58.6298 73.9801 58.4973 74.7803 58.4973 75.7273C58.4973 76.6742 58.6298 77.4744 58.895 78.1278C59.1649 78.7812 59.5508 79.276 60.0527 79.6122C60.5545 79.9484 61.1535 80.1165 61.8495 80.1165C62.5503 80.1165 63.1492 79.9484 63.6464 79.6122C64.1483 79.276 64.5318 78.7812 64.797 78.1278C65.0669 77.4744 65.2018 76.6742 65.2018 75.7273ZM80.8936 73.206C80.8131 72.9077 80.6947 72.6449 80.5384 72.4176C80.3822 72.1856 80.1904 71.9891 79.9632 71.8281C79.7359 71.6671 79.4755 71.5464 79.1819 71.4659C78.8884 71.3807 78.5664 71.3381 78.216 71.3381C77.5105 71.3381 76.8997 71.5085 76.3836 71.8494C75.8723 72.1903 75.4769 72.6875 75.1975 73.3409C74.9182 73.9896 74.7785 74.7779 74.7785 75.706C74.7785 76.6387 74.9134 77.4342 75.1833 78.0923C75.4532 78.7505 75.8438 79.2524 76.3552 79.598C76.8666 79.9437 77.4868 80.1165 78.216 80.1165C78.8599 80.1165 79.4045 80.0123 79.8495 79.804C80.2993 79.5909 80.6402 79.2902 80.8723 78.902C81.1043 78.5137 81.2203 78.0568 81.2203 77.5312L81.8737 77.6094H78.3367V75.0455H84.608V76.9702C84.608 78.2723 84.3311 79.3873 83.7771 80.3153C83.2278 81.2434 82.4703 81.956 81.5044 82.4531C80.5432 82.9503 79.4376 83.1989 78.1876 83.1989C76.8003 83.1989 75.5811 82.8982 74.5299 82.2969C73.4788 81.6955 72.6597 80.8385 72.0725 79.7259C71.4854 78.6084 71.1919 77.2827 71.1919 75.7486C71.1919 74.5554 71.3694 73.4972 71.7245 72.5739C72.0796 71.6458 72.5744 70.8598 73.2089 70.2159C73.8481 69.572 74.5867 69.0843 75.4248 68.7528C76.2676 68.4214 77.1743 68.2557 78.145 68.2557C78.9878 68.2557 79.7714 68.3764 80.4958 68.6179C81.225 68.8594 81.8689 69.2003 82.4277 69.6406C82.9911 70.081 83.448 70.6042 83.7984 71.2102C84.1488 71.8163 84.3666 72.4815 84.4518 73.206H80.8936ZM87.1801 83V68.4545H93.1887C94.2777 68.4545 95.2175 68.651 96.0083 69.044C96.8037 69.4323 97.4169 69.991 97.8478 70.7202C98.2786 71.4446 98.4941 72.304 98.4941 73.2983C98.4941 74.3068 98.2739 75.1638 97.8335 75.8693C97.3932 76.5701 96.7682 77.1051 95.9585 77.4744C95.1489 77.839 94.1901 78.0213 93.0821 78.0213H89.2824V75.2514H92.4287C92.959 75.2514 93.4017 75.1828 93.7568 75.0455C94.1167 74.9034 94.3889 74.6903 94.5736 74.4062C94.7583 74.1174 94.8506 73.7481 94.8506 73.2983C94.8506 72.8485 94.7583 72.4768 94.5736 72.1832C94.3889 71.8849 94.1167 71.6624 93.7568 71.5156C93.397 71.3641 92.9543 71.2884 92.4287 71.2884H90.6958V83H87.1801ZM95.3691 76.3523L98.9912 83H95.156L91.6049 76.3523H95.3691ZM104.069 83H100.29L105.198 68.4545H109.878L114.786 83H111.008L107.591 72.1193H107.478L104.069 83ZM103.564 77.2756H111.462V79.946H103.564V77.2756ZM116.852 68.4545H121.206L124.899 77.4602H125.069L128.763 68.4545H133.116V83H129.693V74.0653H129.572L126.078 82.9077H123.89L120.396 74.0156H120.275V83H116.852V68.4545ZM135.809 68.4545H140.163L143.856 77.4602H144.026L147.72 68.4545H152.073V83H148.65V74.0653H148.529L145.035 82.9077H142.847L139.353 74.0156H139.232V83H135.809V68.4545ZM154.766 83V68.4545H164.908V71.3097H158.282V74.2926H164.39V77.1548H158.282V80.1449H164.908V83H154.766Z" fill="#676767"/>
<path opacity="0.1" d="M26.6769 95.5H262.323" stroke="#0080FF"/>
<path d="M108.019 241.462C106.88 241.46 105.767 241.127 104.815 240.502C103.863 239.877 103.115 238.987 102.661 237.943C102.208 236.898 102.069 235.744 102.262 234.622C102.455 233.5 102.972 232.459 103.749 231.626L154.073 177.847L120.133 180.216L119.474 170.986H119.774L171.897 167.388L171.729 219.931H162.475L162.613 185.824L112.277 239.614C111.73 240.196 111.071 240.66 110.339 240.978C109.606 241.295 108.817 241.46 108.019 241.462ZM155.554 177.146L104.186 232.04C103.237 233.055 102.73 234.406 102.776 235.796C102.823 237.186 103.42 238.5 104.435 239.449C105.451 240.399 106.802 240.906 108.192 240.86C109.581 240.813 110.896 240.216 111.845 239.201L163.219 184.295L163.099 219.265H171.153L171.321 167.964L120.133 171.544L120.691 179.581L155.554 177.146Z" fill="#263238"/>
<path d="M239.049 335.158C238.439 335.16 237.841 334.983 237.33 334.649C236.819 334.314 236.417 333.838 236.174 333.278C235.931 332.717 235.857 332.098 235.962 331.497C236.067 330.895 236.346 330.337 236.764 329.893L262.211 302.731L245.107 303.93L244.765 298.922L271.807 297.033L271.717 324.159H266.703L266.763 307.013L241.322 334.199C241.028 334.504 240.675 334.746 240.284 334.911C239.893 335.076 239.473 335.16 239.049 335.158ZM263.674 302.005L237.202 330.318C236.747 330.805 236.501 331.451 236.518 332.118C236.535 332.618 236.7 333.102 236.992 333.508C237.284 333.915 237.69 334.226 238.158 334.402C238.627 334.578 239.137 334.611 239.625 334.497C240.112 334.383 240.555 334.127 240.896 333.761L267.375 305.465L267.315 323.541H271.135L271.207 297.675L245.388 299.474L245.646 303.282L263.674 302.005Z" fill="#263238"/>
<path d="M69.9775 232.687L60.1718 223.565L78.8476 203.984L71.087 201.171L104.672 186.094L92.0778 220.651L88.7073 213.1L69.9775 232.687ZM61.0234 223.541L69.9535 231.842L88.8392 212.05L91.9638 219.061L103.593 187.233L72.6943 201.111L79.8911 203.732L61.0234 223.541Z" fill="#263238"/>
<path d="M48.285 407.828L38.5093 398.73L57.1851 379.149L49.4245 376.336L83.0098 361.259L70.3314 395.792L66.9608 388.241L48.285 407.828ZM39.337 398.682L48.2611 406.983L67.1468 387.192L70.2774 394.208L81.9003 362.374L50.9899 376.252L58.2227 378.873L39.337 398.682Z" fill="#263238"/>
<path d="M75.795 307.726H16.517V299.93H75.795C80.8545 299.923 85.8585 298.875 90.4954 296.851C95.1323 294.826 99.3028 291.869 102.747 288.163L119.54 270.045L102.483 278.783L100.036 274.027L100.306 273.889L140.333 253.354L122.754 295.09L117.825 293.015L125.273 275.329L108.481 293.447C104.304 297.943 99.247 301.531 93.6237 303.988C88.0004 306.444 81.9315 307.717 75.795 307.726ZM17.1168 307.127H75.795C81.8451 307.119 87.8289 305.866 93.3737 303.445C98.9186 301.024 103.906 297.488 108.025 293.057L127.144 272.444L118.61 292.709L122.436 294.322L139.139 254.662L100.846 274.303L102.741 277.997L122.311 267.988L103.191 288.601C99.6893 292.367 95.45 295.372 90.7369 297.43C86.0237 299.487 80.9376 300.552 75.795 300.56H17.1168V307.127Z" fill="#263238"/>
<path d="M211.263 262.884L208.235 260.995L204.253 265.031L207.125 268.396L211.263 262.884Z" fill="white"/>
<path d="M207.125 268.696C207.082 268.694 207.039 268.684 207 268.665C206.961 268.647 206.926 268.62 206.897 268.588L204.037 265.229C203.986 265.173 203.959 265.101 203.959 265.025C203.959 264.95 203.986 264.877 204.037 264.821L208.025 260.785C208.073 260.738 208.136 260.708 208.204 260.701C208.271 260.693 208.339 260.708 208.397 260.743L211.425 262.632C211.46 262.654 211.49 262.683 211.513 262.717C211.536 262.751 211.551 262.79 211.557 262.83C211.567 262.871 211.567 262.913 211.558 262.954C211.548 262.994 211.53 263.032 211.503 263.064L207.365 268.576C207.338 268.611 207.304 268.64 207.264 268.661C207.225 268.682 207.182 268.693 207.137 268.696H207.125ZM204.636 265.043L207.089 267.916L210.802 262.968L208.283 261.391L204.636 265.043Z" fill="#263238"/>
<path d="M169.726 357.798C169.726 357.798 170.128 368.414 172.263 382.711C174.398 397.009 175.765 403.702 175.765 403.702C175.765 403.702 174.068 402.899 174.002 403.9C173.957 404.459 174.022 405.021 174.194 405.555L140.579 412.524C140.579 412.524 138.641 413.724 138.359 417.064C138.078 420.405 138.216 420.945 138.216 420.945C138.216 420.945 170.457 420.945 178.998 420.633C187.538 420.321 192.792 419.187 193.391 418.492C193.991 417.796 194.711 415.991 194.591 415.667C194.471 415.343 197.302 389.392 197.368 386.172C197.434 382.951 199.611 375.323 199.611 375.323C199.611 375.323 225.543 373.176 228.644 373.14L230.317 373.392L214.802 405.274C214.802 405.274 217.405 408.692 221.003 409.844C224.602 410.995 226.401 410.803 226.401 410.803C226.58 410.096 226.844 409.414 227.186 408.77C227.504 408.422 227.348 405.22 227.312 404.572C227.276 403.924 247.098 376.984 250.606 371.742C254.115 366.501 254.492 362.8 253.431 361.409C252.369 360.017 225.285 352.143 219.126 350.775C212.967 349.408 205.332 350.002 205.332 350.002C205.332 350.002 198.081 355.429 191.442 357.858C184.803 360.287 169.726 357.798 169.726 357.798Z" fill="#92E3A9"/>
<path d="M138.216 421.221C138.149 421.222 138.085 421.201 138.032 421.161C137.98 421.12 137.943 421.063 137.928 420.999C137.928 420.933 137.784 420.303 138.06 417.016C138.354 413.568 140.333 412.296 140.417 412.219C140.448 412.2 140.483 412.188 140.519 412.183L173.816 405.334C173.71 404.86 173.672 404.373 173.702 403.888C173.703 403.756 173.738 403.626 173.804 403.511C173.87 403.397 173.965 403.301 174.08 403.234C174.493 403.066 174.956 403.066 175.369 403.234C175.009 401.375 173.744 394.652 171.969 382.735C169.858 368.582 169.432 357.894 169.426 357.786C169.425 357.742 169.434 357.699 169.452 357.659C169.469 357.618 169.495 357.582 169.528 357.553C169.56 357.522 169.599 357.5 169.642 357.487C169.685 357.474 169.73 357.472 169.774 357.481C169.924 357.481 184.851 359.922 191.364 357.553C197.877 355.184 205.122 349.756 205.194 349.714C205.24 349.682 205.294 349.663 205.35 349.66C205.428 349.66 213.087 349.06 219.216 350.434C224.572 351.633 252.477 359.598 253.695 361.181C254.756 362.566 254.654 366.195 250.882 371.856C249.353 374.147 244.825 380.409 240.027 387.036C234.377 394.832 227.978 403.672 227.6 404.542C227.786 408.488 227.522 408.782 227.39 408.926C227.073 409.53 226.831 410.17 226.671 410.833C226.653 410.891 226.62 410.942 226.574 410.981C226.528 411.021 226.472 411.046 226.413 411.055C226.341 411.055 224.548 411.241 220.925 410.083C217.303 408.926 214.682 405.549 214.574 405.406C214.546 405.358 214.531 405.304 214.531 405.25C214.531 405.195 214.546 405.141 214.574 405.094L229.909 373.578L228.638 373.386C225.777 373.428 202.351 375.353 199.886 375.557C199.545 376.756 197.769 383.281 197.709 386.13C197.673 387.929 196.78 396.745 195.988 404.506C195.436 409.946 194.915 415.085 194.927 415.565C195.059 416.165 194.267 417.964 193.661 418.648C192.87 419.523 187.184 420.597 179.04 420.885C170.559 421.209 138.539 421.221 138.216 421.221ZM140.698 412.782C140.429 412.974 138.899 414.198 138.659 417.064C138.534 418.246 138.478 419.433 138.491 420.621C141.64 420.621 170.967 420.591 178.962 420.309C187.868 419.991 192.678 418.804 193.163 418.27C193.736 417.526 194.122 416.656 194.291 415.733C194.231 415.577 194.291 414.587 195.34 404.47C196.09 397.105 197.02 387.935 197.056 386.142C197.122 382.927 199.221 375.527 199.311 375.215C199.327 375.156 199.361 375.103 199.408 375.065C199.455 375.026 199.514 375.003 199.575 374.999C200.636 374.909 225.549 372.852 228.626 372.816L230.347 373.068C230.394 373.073 230.439 373.091 230.478 373.118C230.516 373.145 230.548 373.181 230.569 373.224C230.59 373.266 230.6 373.312 230.6 373.359C230.6 373.405 230.59 373.452 230.569 373.494L215.144 405.208C215.678 405.855 218.029 408.554 221.081 409.538C222.703 410.115 224.404 410.436 226.125 410.491C226.297 409.809 226.565 409.154 226.923 408.548C226.923 408.518 227.144 408.038 226.971 404.548C226.971 404.152 229.184 400.985 239.517 386.706C244.315 380.109 248.837 373.829 250.36 371.55C253.725 366.495 254.211 362.896 253.191 361.571C252.171 360.245 225.387 352.449 219.06 351.045C213.363 349.786 206.316 350.218 205.458 350.272C204.684 350.871 197.799 355.849 191.544 358.14C185.403 360.383 172.437 358.524 170.044 358.14C170.134 360.131 170.673 370.003 172.562 382.658C174.668 396.781 176.047 403.594 176.059 403.648C176.071 403.703 176.067 403.761 176.048 403.814C176.029 403.867 175.995 403.913 175.951 403.948C175.907 403.982 175.855 404.003 175.8 404.009C175.745 404.016 175.69 404.007 175.639 403.984C175.267 403.804 174.614 403.612 174.38 403.75C174.38 403.75 174.314 403.792 174.302 403.924C174.263 404.44 174.322 404.959 174.476 405.453C174.491 405.494 174.498 405.538 174.495 405.582C174.492 405.625 174.479 405.668 174.458 405.706C174.437 405.744 174.408 405.778 174.373 405.803C174.337 405.829 174.297 405.847 174.254 405.855L140.698 412.782Z" fill="#263238"/>
<path d="M198.411 368.924C198.336 368.921 198.264 368.894 198.207 368.846C198.152 368.789 198.121 368.712 198.121 368.633C198.121 368.553 198.152 368.477 198.207 368.42C201.482 364.821 204.564 361.367 204.6 361.331C204.624 361.296 204.656 361.266 204.692 361.244C204.729 361.222 204.769 361.207 204.812 361.202C204.854 361.197 204.897 361.201 204.938 361.214C204.978 361.226 205.016 361.248 205.048 361.276C205.08 361.304 205.105 361.339 205.122 361.378C205.14 361.417 205.148 361.46 205.148 361.502C205.148 361.545 205.138 361.587 205.12 361.626C205.102 361.664 205.076 361.699 205.044 361.727C205.044 361.763 201.932 365.229 198.651 368.822C198.621 368.856 198.584 368.882 198.543 368.9C198.501 368.918 198.456 368.926 198.411 368.924Z" fill="#263238"/>
<path d="M174.284 385.17C174.211 385.17 174.141 385.144 174.086 385.096C174.032 385.049 173.995 384.984 173.984 384.912C173.606 382.088 173.126 378.315 172.988 376.372C172.652 371.772 173.042 361.703 173.048 361.601C173.053 361.522 173.088 361.448 173.146 361.394C173.204 361.34 173.281 361.311 173.36 361.313C173.4 361.314 173.438 361.324 173.474 361.34C173.51 361.357 173.542 361.38 173.569 361.409C173.595 361.438 173.616 361.472 173.63 361.509C173.643 361.546 173.65 361.585 173.648 361.625C173.648 361.727 173.252 371.76 173.582 376.33C173.72 378.255 174.182 382.016 174.578 384.834C174.588 384.912 174.567 384.991 174.52 385.054C174.473 385.117 174.403 385.158 174.326 385.17H174.284Z" fill="#263238"/>
<path d="M167.087 325.563C167.087 325.563 169.348 348.952 169.366 349.288C169.384 349.624 168.244 358.716 169.174 359.238C170.104 359.759 172.383 360.209 175.573 360.845C178.764 361.481 185.211 361.511 189.679 360.503C194.147 359.496 203.059 354.656 203.821 353.942C204.582 353.228 206.382 350.883 206.448 349.972C206.514 349.06 203.713 328.417 203.713 328.417L204.57 318.222L209.74 305.999C209.74 305.999 226.491 295.024 228.968 292.529C231.445 290.034 237.766 282.933 237.622 282.286C237.478 281.638 225.471 271.688 221.747 269.385C218.022 267.082 212.151 262.62 211.263 262.89C210.376 263.16 205.968 267.778 206.364 269.001C206.759 270.225 219.27 283.623 219.27 283.623L210.484 288.685L190.093 298.934C190.093 298.934 179.753 300.002 173.84 303.9C167.926 307.798 156.735 316.818 158.739 318.528C160.742 320.237 167.087 325.563 167.087 325.563Z" fill="white"/>
<path d="M181.391 361.601C179.424 361.629 177.458 361.477 175.519 361.145C172.311 360.509 169.996 360.048 169.024 359.502C168.454 359.184 168.244 357.523 168.982 350.242C169.024 349.774 169.066 349.372 169.066 349.3C169.066 348.982 167.585 333.809 166.799 325.719C166.001 325.053 160.382 320.321 158.529 318.75C158.408 318.643 158.315 318.509 158.256 318.358C158.198 318.208 158.176 318.046 158.193 317.886C158.379 314.887 169.186 306.599 173.666 303.642C179.345 299.894 189.163 298.73 189.997 298.634L210.346 288.409L218.796 283.545C216.691 281.29 206.466 270.279 206.082 269.085C206.006 268.632 206.107 268.166 206.364 267.784C207.299 265.985 210.316 262.854 211.161 262.596C211.809 262.398 213.62 263.568 217.597 266.279C219.078 267.292 220.595 268.336 221.885 269.127C225.063 271.089 237.688 281.266 237.892 282.214C238.126 283.275 229.891 292.001 229.16 292.733C226.761 295.162 211.341 305.292 209.968 306.197L204.852 318.294L204.037 328.417C204.342 330.684 206.843 349.096 206.771 350.008C206.693 351.039 204.798 353.462 204.049 354.17C203.299 354.878 194.285 359.79 189.769 360.803C187.012 361.363 184.204 361.63 181.391 361.601ZM211.377 263.172H211.341C210.742 263.352 207.827 266.291 206.897 268.06C206.597 268.66 206.633 268.852 206.651 268.906C206.927 269.751 214.484 278.046 219.492 283.413C219.522 283.447 219.545 283.487 219.558 283.531C219.572 283.574 219.576 283.62 219.57 283.665C219.563 283.71 219.546 283.753 219.52 283.791C219.494 283.828 219.46 283.859 219.42 283.881L210.634 288.937L190.243 299.174C190.209 299.192 190.173 299.203 190.135 299.204C190.033 299.204 179.801 300.314 174.02 304.128C168.064 308.056 158.96 315.559 158.816 317.922C158.804 317.99 158.809 318.059 158.831 318.124C158.853 318.189 158.891 318.248 158.942 318.294C160.922 319.979 167.243 325.287 167.303 325.341C167.333 325.365 167.358 325.395 167.377 325.429C167.395 325.463 167.407 325.5 167.411 325.539C167.501 326.498 169.672 348.928 169.69 349.276C169.69 349.354 169.69 349.54 169.6 350.302C168.922 357.007 169.096 358.728 169.354 358.992C170.229 359.478 172.508 359.934 175.657 360.557C178.806 361.181 185.253 361.211 189.637 360.215C194.021 359.22 202.945 354.35 203.611 353.75C204.39 353.013 206.094 350.752 206.148 349.978C206.196 349.324 204.54 336.784 203.413 328.483V328.417L204.271 318.222C204.268 318.192 204.268 318.162 204.271 318.132L209.44 305.909C209.464 305.855 209.501 305.807 209.548 305.771C209.716 305.663 226.305 294.784 228.74 292.343C231.493 289.572 236.974 283.347 237.298 282.364C236.524 281.284 225.243 271.934 221.573 269.667C220.289 268.87 218.754 267.82 217.261 266.8C215.042 265.247 211.995 263.19 211.377 263.19V263.172Z" fill="#263238"/>
<path d="M217.231 294.778C217.173 294.777 217.118 294.761 217.069 294.73C217.002 294.687 216.955 294.619 216.938 294.542C216.922 294.464 216.936 294.383 216.979 294.316L217.909 292.883C217.952 292.816 218.021 292.77 218.099 292.753C218.177 292.737 218.259 292.752 218.325 292.796C218.392 292.84 218.439 292.908 218.455 292.986C218.471 293.065 218.456 293.146 218.412 293.213L217.483 294.64C217.456 294.683 217.419 294.719 217.375 294.743C217.331 294.767 217.281 294.779 217.231 294.778Z" fill="#263238"/>
<path d="M209.74 306.293C209.693 306.292 209.646 306.282 209.602 306.263C209.536 306.228 209.485 306.171 209.459 306.101C209.432 306.032 209.432 305.955 209.458 305.885L213.782 294.832C213.815 294.764 213.872 294.71 213.942 294.682C214.013 294.654 214.091 294.654 214.161 294.681C214.232 294.708 214.29 294.761 214.323 294.829C214.356 294.898 214.362 294.976 214.34 295.048L211.09 303.372L215.618 296.403C215.637 296.367 215.664 296.334 215.697 296.309C215.73 296.283 215.768 296.265 215.809 296.254C215.849 296.244 215.891 296.243 215.932 296.25C215.973 296.257 216.013 296.272 216.047 296.295C216.082 296.318 216.112 296.348 216.134 296.383C216.157 296.419 216.172 296.458 216.178 296.499C216.185 296.54 216.182 296.583 216.171 296.623C216.161 296.663 216.142 296.701 216.115 296.733L209.992 306.161C209.964 306.202 209.926 306.235 209.882 306.258C209.838 306.281 209.79 306.293 209.74 306.293Z" fill="#263238"/>
<path d="M220.385 283.641C220.306 283.654 220.225 283.634 220.159 283.587C220.094 283.54 220.05 283.469 220.038 283.389C220.025 283.31 220.044 283.228 220.092 283.163C220.139 283.098 220.21 283.054 220.29 283.041C220.523 282.963 226.065 281.05 227.852 281.548C228.759 281.733 229.603 282.146 230.305 282.747C230.335 282.775 230.359 282.809 230.375 282.847C230.392 282.885 230.4 282.926 230.4 282.967C230.4 283.008 230.392 283.048 230.375 283.086C230.359 283.124 230.335 283.158 230.305 283.186C230.275 283.214 230.239 283.235 230.2 283.249C230.162 283.263 230.12 283.268 230.079 283.265C230.038 283.263 229.998 283.251 229.962 283.232C229.925 283.213 229.893 283.187 229.867 283.155C229.237 282.636 228.49 282.278 227.69 282.112C226.353 281.734 222.035 283.053 220.493 283.593C220.461 283.616 220.424 283.632 220.385 283.641Z" fill="#263238"/>
<path d="M223.702 282.124C223.653 282.124 223.604 282.111 223.561 282.087C223.518 282.063 223.482 282.028 223.456 281.986C223.434 281.953 223.418 281.917 223.41 281.878C223.403 281.839 223.403 281.8 223.41 281.761C223.418 281.722 223.434 281.686 223.456 281.653C223.478 281.621 223.507 281.593 223.54 281.572C224.153 281.201 224.791 280.87 225.447 280.582C226.851 279.917 229.927 280.654 230.059 280.684C230.137 280.704 230.203 280.754 230.245 280.822C230.286 280.89 230.299 280.972 230.281 281.05C230.271 281.088 230.254 281.124 230.23 281.156C230.207 281.187 230.177 281.214 230.143 281.234C230.109 281.254 230.071 281.267 230.032 281.273C229.993 281.278 229.953 281.276 229.915 281.266C229.088 281.068 226.713 280.666 225.717 281.122C225.088 281.412 224.475 281.736 223.882 282.094C223.827 282.123 223.764 282.134 223.702 282.124Z" fill="#263238"/>
<path d="M182.65 348.611C182.597 348.612 182.545 348.597 182.5 348.569C182.006 348.285 181.533 347.966 181.085 347.615C181.027 347.565 180.991 347.494 180.984 347.418C180.976 347.342 180.998 347.266 181.045 347.206C181.092 347.146 181.159 347.105 181.235 347.093C181.31 347.081 181.387 347.098 181.451 347.141C181.88 347.474 182.331 347.779 182.8 348.053C182.856 348.086 182.9 348.137 182.925 348.198C182.949 348.258 182.954 348.325 182.937 348.388C182.92 348.452 182.882 348.508 182.831 348.548C182.779 348.588 182.715 348.61 182.65 348.611Z" fill="#263238"/>
<path d="M179.891 346.511C179.816 346.512 179.743 346.484 179.687 346.433C174.716 341.887 169.18 333.389 169.12 333.305C169.076 333.238 169.061 333.157 169.077 333.079C169.093 333.001 169.14 332.932 169.207 332.888C169.274 332.845 169.355 332.829 169.433 332.845C169.512 332.862 169.58 332.908 169.624 332.975C169.684 333.059 175.177 341.498 180.089 345.99C180.134 346.03 180.165 346.083 180.179 346.142C180.193 346.2 180.189 346.262 180.168 346.318C180.146 346.374 180.109 346.423 180.059 346.457C180.01 346.492 179.951 346.511 179.891 346.511Z" fill="#263238"/>
<path d="M185.313 352.323H185.247C184.486 352.152 183.736 351.932 183.004 351.663C182.929 351.635 182.868 351.579 182.835 351.506C182.802 351.434 182.799 351.351 182.827 351.276C182.855 351.202 182.911 351.141 182.984 351.108C183.056 351.075 183.139 351.072 183.214 351.099C183.92 351.36 184.644 351.573 185.379 351.735C185.458 351.744 185.531 351.784 185.581 351.846C185.631 351.909 185.654 351.989 185.646 352.068C185.637 352.148 185.597 352.22 185.535 352.27C185.472 352.32 185.392 352.344 185.313 352.335V352.323Z" fill="#263238"/>
<path d="M182.068 351.249C182.027 351.258 181.984 351.258 181.942 351.249C179.508 350.196 177.38 348.546 175.753 346.451C175.728 346.419 175.71 346.382 175.7 346.343C175.69 346.304 175.687 346.262 175.694 346.222C175.7 346.182 175.714 346.143 175.736 346.109C175.757 346.074 175.785 346.045 175.819 346.021C175.852 345.998 175.89 345.982 175.93 345.974C175.97 345.966 176.011 345.966 176.051 345.974C176.091 345.982 176.128 345.998 176.162 346.022C176.195 346.045 176.223 346.075 176.245 346.11C177.82 348.102 179.861 349.675 182.188 350.691C182.26 350.724 182.317 350.784 182.345 350.858C182.373 350.933 182.371 351.015 182.338 351.087C182.313 351.137 182.275 351.179 182.227 351.207C182.179 351.236 182.124 351.251 182.068 351.249Z" fill="#263238"/>
<path d="M199.581 305.849L202.663 311.445L200.822 351.627L206.873 357.936L211.239 349.654L204.253 311.367L206.585 306.611L204.54 302.185L199.581 305.849Z" fill="#263238"/>
<path d="M206.873 358.236C206.833 358.236 206.793 358.227 206.756 358.21C206.718 358.194 206.685 358.17 206.657 358.14L200.606 351.831C200.551 351.772 200.521 351.695 200.522 351.615L202.363 311.517L199.317 305.993C199.281 305.929 199.271 305.855 199.288 305.784C199.304 305.713 199.347 305.651 199.407 305.609L204.361 301.945C204.396 301.918 204.437 301.9 204.481 301.891C204.525 301.883 204.57 301.885 204.612 301.897C204.656 301.908 204.697 301.929 204.731 301.958C204.765 301.987 204.792 302.024 204.81 302.065L206.861 306.485C206.881 306.525 206.891 306.569 206.891 306.614C206.891 306.658 206.881 306.703 206.861 306.743L204.57 311.415L211.539 349.6C211.551 349.667 211.54 349.737 211.509 349.798L207.143 358.074C207.122 358.116 207.091 358.153 207.052 358.18C207.013 358.207 206.968 358.224 206.921 358.23L206.873 358.236ZM201.128 351.513L206.801 357.427L210.928 349.63L203.953 311.445C203.942 311.381 203.953 311.316 203.983 311.259L206.256 306.629L204.42 302.671L199.97 305.957L202.927 311.355C202.954 311.402 202.966 311.456 202.963 311.511L201.128 351.513Z" fill="#263238"/>
<path d="M202.393 271.778C202.393 271.778 208.583 275.155 208.625 275.976C208.77 276.733 209.061 277.454 209.482 278.099C209.482 278.099 213.171 280.276 213.68 280.912C214.19 281.548 213.081 284.337 213.081 284.337C213.081 284.337 215.354 288.367 215.384 289.027C215.414 289.686 214.886 290.466 214.442 291.054C213.998 291.641 209.644 293.357 209.644 293.357L204.456 304.914C203.967 305.039 203.462 305.095 202.957 305.082C202.357 305.016 191.112 294.226 191.112 294.226L192.312 291.09L188.048 282.813C188.048 282.813 191.232 274.651 195.005 272.774C197.298 271.662 199.887 271.313 202.393 271.778Z" fill="white"/>
<path d="M203.197 305.417H202.933C202.381 305.351 196.096 299.42 190.938 294.484C190.897 294.443 190.867 294.39 190.855 294.333C190.842 294.275 190.846 294.216 190.866 294.16L192 291.162L187.802 283.005C187.785 282.966 187.777 282.925 187.777 282.882C187.777 282.84 187.785 282.798 187.802 282.759C187.934 282.424 191.076 274.465 194.909 272.564C197.26 271.402 199.925 271.038 202.501 271.526H202.579C204.948 272.816 208.924 275.125 208.966 275.994C209.098 276.678 209.361 277.33 209.74 277.914C210.34 278.267 213.447 280.133 213.938 280.762C214.43 281.392 213.752 283.533 213.441 284.361C213.944 285.26 215.684 288.403 215.714 289.063C215.743 289.722 215.228 290.598 214.712 291.282C214.268 291.881 210.856 293.261 209.914 293.639L204.774 305.088C204.755 305.129 204.727 305.166 204.691 305.195C204.656 305.224 204.615 305.245 204.57 305.256C204.119 305.357 203.659 305.411 203.197 305.417ZM191.472 294.172C195.844 298.371 202.435 304.536 203.059 304.818C203.463 304.825 203.867 304.778 204.259 304.68L209.386 293.285C209.401 293.249 209.423 293.216 209.451 293.19C209.479 293.163 209.512 293.142 209.548 293.129C211.641 292.295 213.962 291.246 214.208 290.922C214.454 290.598 215.114 289.722 215.084 289.123C215.084 288.751 213.92 286.514 212.823 284.559C212.802 284.519 212.792 284.475 212.792 284.43C212.792 284.385 212.802 284.341 212.823 284.301C213.315 283.035 213.692 281.476 213.453 281.176C213.111 280.744 210.754 279.269 209.35 278.435C209.308 278.413 209.273 278.38 209.248 278.339C208.797 277.65 208.489 276.877 208.343 276.066C208.193 275.587 205.098 273.667 202.303 272.114C199.872 271.691 197.369 272.044 195.149 273.122C191.772 274.801 188.803 281.848 188.39 282.879L192.588 291.03C192.605 291.067 192.614 291.108 192.614 291.15C192.614 291.191 192.605 291.232 192.588 291.27L191.472 294.172Z" fill="#263238"/>
<path d="M209.656 293.381L205.002 294.1L208.061 296.763L209.656 293.381Z" fill="#263238"/>
<path d="M208.067 297.063C207.994 297.062 207.923 297.034 207.869 296.985L204.804 294.322C204.76 294.286 204.728 294.238 204.712 294.183C204.696 294.129 204.697 294.071 204.714 294.016C204.729 293.961 204.759 293.911 204.802 293.873C204.845 293.834 204.898 293.809 204.954 293.801L209.614 293.087C209.667 293.078 209.722 293.083 209.771 293.104C209.821 293.124 209.864 293.157 209.896 293.201C209.928 293.244 209.948 293.296 209.953 293.35C209.958 293.403 209.949 293.458 209.926 293.507L208.337 296.889C208.315 296.93 208.286 296.967 208.25 296.996C208.213 297.024 208.172 297.045 208.127 297.057L208.067 297.063ZM205.668 294.298L207.947 296.277L209.146 293.765L205.668 294.298Z" fill="#263238"/>
<path d="M205.074 278.267C205.026 278.268 204.978 278.255 204.936 278.231C204.866 278.195 204.812 278.133 204.787 278.058C204.763 277.982 204.769 277.9 204.804 277.83C205.101 277.171 205.643 276.654 206.315 276.388C206.986 276.121 207.735 276.127 208.403 276.402C208.476 276.434 208.533 276.494 208.563 276.568C208.592 276.642 208.59 276.725 208.559 276.798C208.527 276.871 208.467 276.929 208.393 276.958C208.319 276.987 208.236 276.986 208.163 276.954C207.901 276.84 207.619 276.78 207.333 276.776C207.048 276.773 206.764 276.826 206.499 276.932C206.234 277.039 205.993 277.197 205.79 277.397C205.586 277.597 205.425 277.836 205.314 278.099C205.292 278.146 205.259 278.186 205.217 278.215C205.174 278.245 205.125 278.263 205.074 278.267Z" fill="#263238"/>
<path d="M208.331 278.861C208.583 279.311 208.577 279.797 208.331 279.941C208.085 280.085 207.659 279.833 207.407 279.383C207.155 278.933 207.155 278.447 207.407 278.303C207.659 278.159 208.079 278.405 208.331 278.861Z" fill="#263238"/>
<path d="M210.442 286.538C210.389 286.537 210.337 286.523 210.291 286.495C210.246 286.468 210.209 286.429 210.184 286.382C210.145 286.313 210.135 286.231 210.157 286.154C210.178 286.078 210.229 286.013 210.298 285.974C211.815 285.122 212.817 285.86 212.859 285.89C212.913 285.94 212.947 286.008 212.954 286.082C212.961 286.156 212.941 286.229 212.897 286.289C212.853 286.348 212.789 286.389 212.716 286.404C212.644 286.419 212.569 286.407 212.505 286.37C212.469 286.37 211.749 285.848 210.592 286.502C210.545 286.525 210.494 286.537 210.442 286.538Z" fill="#263238"/>
<path d="M200 272.93C200 272.93 204.103 272.072 204.612 270.921C205.122 269.769 205.302 265.703 203.263 266.459C201.224 267.214 200.864 267.706 200.864 267.706C200.864 267.706 197.344 263.166 195.526 264.575C193.709 265.985 194.819 267.436 194.819 267.436C194.819 267.436 191.922 267.952 190.95 269.235C189.979 270.519 191.016 270.645 191.016 270.645C191.016 270.645 184.089 275.443 183.885 280.978C183.682 286.514 190.123 291.042 192.354 292.373C194.585 293.705 195.238 293.645 196.156 293.129C197.074 292.613 199.017 289.878 199.017 289.878C199.017 289.878 195.904 287.959 195.37 286.664C194.837 285.368 195.418 283.743 196.636 283.587C197.118 283.547 197.602 283.648 198.028 283.878C198.454 284.108 198.804 284.457 199.035 284.883C199.155 285.35 200.342 284.541 200.342 284.541C200.342 284.541 199.011 282.436 198.603 281.704C198.195 280.972 201.236 277.806 201.092 276.774C200.948 275.743 197.068 275.371 196.768 274.975C196.468 274.579 200 272.93 200 272.93Z" fill="#263238"/>
<path d="M195.089 293.723C194.417 293.723 193.589 293.399 192.21 292.595C191.304 292.061 183.37 287.233 183.598 280.954C183.778 276.018 188.959 271.796 190.465 270.675C190.396 270.606 190.341 270.524 190.303 270.435C190.153 270.063 190.303 269.607 190.722 269.043C191.538 267.976 193.523 267.418 194.381 267.244C194.129 266.644 193.919 265.475 195.358 264.359C197.158 262.968 200.072 266.267 200.912 267.298C201.608 266.832 202.365 266.463 203.161 266.201C203.399 266.087 203.668 266.051 203.928 266.1C204.187 266.149 204.425 266.278 204.606 266.471C205.566 267.49 205.266 270.195 204.888 271.065C204.342 272.264 200.69 273.122 200.09 273.242C199.081 273.701 198.114 274.247 197.2 274.873C197.434 274.939 197.841 275.035 198.183 275.119C199.946 275.533 201.302 275.916 201.416 276.72C201.494 277.32 200.954 278.141 200.054 279.449C199.587 280.133 198.807 281.278 198.891 281.548C199.293 282.262 200.606 284.349 200.618 284.367C200.66 284.432 200.674 284.511 200.658 284.588C200.643 284.664 200.598 284.731 200.534 284.774C200.162 285.032 199.473 285.434 199.065 285.278C198.992 285.252 198.928 285.208 198.876 285.15C198.825 285.093 198.789 285.023 198.771 284.948C198.556 284.595 198.247 284.307 197.879 284.118C197.51 283.928 197.097 283.844 196.684 283.875C196.489 283.904 196.304 283.98 196.143 284.094C195.983 284.209 195.851 284.36 195.76 284.535C195.596 284.84 195.501 285.178 195.484 285.525C195.466 285.871 195.526 286.217 195.658 286.538C196.066 287.527 198.339 289.093 199.179 289.614C199.214 289.635 199.244 289.663 199.267 289.696C199.291 289.729 199.308 289.767 199.317 289.806C199.325 289.847 199.324 289.889 199.315 289.929C199.305 289.969 199.288 290.007 199.263 290.04C199.065 290.328 197.26 292.847 196.312 293.375C195.942 293.597 195.52 293.717 195.089 293.723ZM196.36 264.605C196.131 264.599 195.907 264.671 195.724 264.809C194.201 266.009 194.975 267.13 195.071 267.256C195.103 267.297 195.124 267.345 195.131 267.396C195.139 267.447 195.133 267.499 195.114 267.547C195.095 267.595 195.064 267.637 195.024 267.669C194.984 267.701 194.936 267.722 194.885 267.73C194.855 267.73 192.09 268.24 191.196 269.409C190.794 269.931 190.836 270.147 190.854 270.201C190.872 270.255 191.07 270.339 191.07 270.339C191.131 270.345 191.188 270.371 191.233 270.411C191.279 270.451 191.31 270.505 191.324 270.564C191.338 270.623 191.333 270.685 191.31 270.742C191.287 270.798 191.247 270.846 191.196 270.879C191.13 270.927 184.389 275.629 184.197 280.978C183.981 286.91 191.64 291.564 192.516 292.073C194.789 293.405 195.28 293.273 196.024 292.829C196.66 292.475 197.961 290.802 198.597 289.926C197.811 289.416 195.598 287.887 195.107 286.742C194.937 286.335 194.863 285.896 194.887 285.457C194.912 285.017 195.037 284.589 195.25 284.205C195.385 283.949 195.578 283.73 195.815 283.565C196.052 283.4 196.326 283.294 196.612 283.257C197.155 283.206 197.701 283.315 198.184 283.569C198.666 283.824 199.064 284.213 199.329 284.691C199.55 284.625 199.762 284.531 199.958 284.409C199.593 283.809 198.699 282.4 198.369 281.812C198.039 281.224 198.609 280.486 199.569 279.089C200.12 278.279 200.882 277.17 200.828 276.78C200.774 276.39 198.933 275.886 198.051 275.676C197.17 275.467 196.732 275.359 196.57 275.161C196.531 275.116 196.504 275.063 196.49 275.005C196.477 274.948 196.477 274.888 196.492 274.831C196.582 274.423 197.691 273.691 199.868 272.66H199.934C201.464 272.342 204.013 271.562 204.336 270.819C204.66 270.075 204.852 267.61 204.169 266.884C204.068 266.779 203.935 266.71 203.79 266.688C203.646 266.667 203.498 266.693 203.371 266.764C201.512 267.46 201.116 267.91 201.11 267.916C201.083 267.954 201.047 267.984 201.005 268.003C200.963 268.022 200.916 268.029 200.87 268.024C200.825 268.024 200.781 268.015 200.741 267.996C200.7 267.978 200.665 267.95 200.636 267.916C199.838 266.866 197.757 264.605 196.36 264.605Z" fill="#263238"/>
<path d="M190.381 292.727L204.468 304.938L199.533 309.886L188.689 295.498L190.381 292.727Z" fill="white"/>
<path d="M199.533 310.185C199.489 310.183 199.446 310.171 199.408 310.15C199.37 310.13 199.336 310.101 199.311 310.065L188.467 295.672C188.434 295.622 188.416 295.564 188.416 295.504C188.416 295.444 188.434 295.385 188.467 295.336L190.123 292.577C190.146 292.541 190.177 292.51 190.213 292.486C190.249 292.462 190.29 292.446 190.333 292.439C190.376 292.432 190.421 292.435 190.464 292.448C190.506 292.46 190.545 292.482 190.579 292.511L204.666 304.716C204.698 304.742 204.723 304.775 204.741 304.813C204.758 304.85 204.768 304.89 204.768 304.932C204.77 304.972 204.764 305.013 204.75 305.051C204.735 305.09 204.713 305.124 204.684 305.154L199.742 310.107C199.685 310.16 199.61 310.187 199.533 310.185ZM189.043 295.48L199.551 309.43L204.019 304.956L190.453 293.177L189.043 295.48Z" fill="#263238"/>
<path d="M205.872 301.999L207.299 303.642L204.468 304.938L205.872 301.999Z" fill="white"/>
<path d="M204.468 305.238C204.429 305.238 204.39 305.23 204.354 305.215C204.318 305.199 204.285 305.176 204.259 305.148C204.215 305.105 204.186 305.049 204.175 304.989C204.164 304.929 204.172 304.867 204.199 304.812L205.602 301.873C205.624 301.828 205.656 301.789 205.696 301.76C205.737 301.731 205.784 301.712 205.833 301.705C205.882 301.699 205.933 301.705 205.979 301.722C206.026 301.74 206.067 301.769 206.1 301.807L207.527 303.444C207.557 303.481 207.578 303.523 207.59 303.569C207.601 303.615 207.602 303.662 207.593 303.708C207.581 303.753 207.56 303.795 207.532 303.831C207.503 303.867 207.466 303.897 207.425 303.918L204.594 305.214C204.555 305.23 204.512 305.238 204.468 305.238ZM205.944 302.545L205.098 304.344L206.807 303.558L205.944 302.545Z" fill="#263238"/>
<path d="M207.299 303.642L208.415 309.088L204.468 304.938L207.299 303.642Z" fill="white"/>
<path d="M208.415 309.37C208.334 309.369 208.256 309.337 208.199 309.28L204.252 305.172C204.22 305.136 204.196 305.094 204.183 305.049C204.169 305.003 204.166 304.955 204.175 304.908C204.183 304.861 204.203 304.817 204.232 304.779C204.262 304.742 204.299 304.712 204.342 304.692L207.173 303.396C207.213 303.377 207.258 303.367 207.302 303.367C207.347 303.367 207.391 303.377 207.431 303.396C207.472 303.417 207.508 303.446 207.537 303.482C207.565 303.519 207.584 303.561 207.593 303.606L208.709 309.052C208.722 309.116 208.715 309.182 208.688 309.241C208.661 309.301 208.615 309.35 208.559 309.382C208.51 309.386 208.462 309.382 208.415 309.37ZM204.978 305.016L207.911 308.104L207.077 304.056L204.978 305.016Z" fill="#263238"/>
<path d="M194.219 331.41C194.219 331.41 204.726 331.272 205.092 331.254C205.458 331.236 209.782 334.691 209.686 335.308C209.59 335.926 208.121 338.307 208.121 338.307C208.121 338.307 205.836 341.594 205.122 342.115C204.408 342.637 204.522 342.877 203.323 342.817C202.443 342.714 201.596 342.421 200.84 341.959C200.84 341.959 194.807 341.15 193.895 339.974C193.145 339.096 192.286 338.316 191.34 337.653L194.219 331.41Z" fill="white"/>
<path d="M203.665 343.135H203.317C202.406 343.037 201.528 342.74 200.744 342.265C199.874 342.145 194.597 341.378 193.667 340.172C192.934 339.318 192.096 338.56 191.172 337.917C191.114 337.877 191.072 337.818 191.054 337.75C191.035 337.682 191.041 337.609 191.07 337.545L193.949 331.29C193.974 331.239 194.012 331.196 194.06 331.166C194.107 331.135 194.162 331.118 194.219 331.116C197.847 331.068 204.792 330.972 205.074 330.96C205.62 330.96 208.619 333.485 209.464 334.427C209.86 334.858 210.004 335.128 209.974 335.356C209.878 336.004 208.619 338.073 208.367 338.481C208.115 338.889 206.022 341.839 205.296 342.373C205.14 342.493 205.026 342.595 204.93 342.679C204.768 342.847 204.57 342.975 204.351 343.054C204.131 343.133 203.897 343.161 203.665 343.135ZM191.718 337.557C192.608 338.2 193.413 338.952 194.117 339.794C194.717 340.58 198.573 341.36 200.858 341.666C200.9 341.673 200.94 341.687 200.978 341.707C201.691 342.147 202.491 342.425 203.323 342.523C204.133 342.565 204.223 342.487 204.522 342.223C204.654 342.102 204.793 341.988 204.936 341.881C205.482 341.474 207.233 339.045 207.857 338.139C208.456 337.23 208.964 336.263 209.374 335.254C209.224 334.703 205.608 331.77 205.044 331.548C204.312 331.548 195.826 331.686 194.399 331.704L191.718 337.557Z" fill="#263238"/>
<path d="M208.235 338.217C208.187 338.218 208.14 338.207 208.098 338.186C208.055 338.165 208.018 338.135 207.989 338.097L204.864 333.899C204.817 333.835 204.796 333.755 204.807 333.677C204.819 333.598 204.861 333.527 204.924 333.479C204.988 333.431 205.068 333.411 205.147 333.422C205.225 333.433 205.296 333.476 205.344 333.539L208.475 337.737C208.498 337.769 208.515 337.805 208.524 337.844C208.533 337.882 208.535 337.922 208.529 337.961C208.523 338 208.509 338.037 208.488 338.071C208.468 338.105 208.441 338.134 208.409 338.157C208.359 338.196 208.298 338.218 208.235 338.217Z" fill="#263238"/>
<path d="M206.963 340.076C206.888 340.077 206.815 340.049 206.759 339.998L202.837 336.358C202.805 336.332 202.779 336.3 202.76 336.263C202.741 336.227 202.73 336.187 202.727 336.146C202.724 336.105 202.73 336.064 202.743 336.025C202.757 335.986 202.779 335.951 202.807 335.921C202.835 335.89 202.869 335.866 202.906 335.85C202.944 335.834 202.985 335.825 203.026 335.825C203.067 335.825 203.107 335.833 203.145 335.85C203.183 335.866 203.217 335.89 203.245 335.92L207.167 339.554C207.21 339.596 207.24 339.649 207.252 339.707C207.265 339.765 207.26 339.825 207.238 339.881C207.216 339.936 207.178 339.983 207.129 340.017C207.081 340.051 207.023 340.069 206.963 340.07V340.076Z" fill="#263238"/>
<path d="M205.32 341.756C205.262 341.756 205.206 341.74 205.158 341.708L201.758 339.548C201.723 339.528 201.694 339.501 201.67 339.469C201.647 339.437 201.63 339.401 201.621 339.362C201.612 339.323 201.611 339.283 201.618 339.244C201.625 339.205 201.64 339.168 201.662 339.135C201.705 339.068 201.772 339.021 201.85 339.004C201.928 338.987 202.009 339.002 202.075 339.045L205.482 341.204C205.549 341.247 205.596 341.314 205.612 341.392C205.629 341.47 205.615 341.551 205.572 341.618C205.546 341.661 205.509 341.696 205.464 341.72C205.42 341.744 205.37 341.757 205.32 341.756Z" fill="#263238"/>
<path d="M209.686 335.308C209.686 335.308 210.286 338.343 210.448 338.937C210.61 339.53 209.47 340.406 208.853 340.064C208.235 339.722 208.121 338.319 208.121 338.319L209.686 335.308Z" fill="white"/>
<path d="M209.176 340.442C209.013 340.444 208.851 340.402 208.709 340.322C207.971 339.914 207.839 338.523 207.821 338.343C207.82 338.287 207.832 338.231 207.857 338.181L209.422 335.182C209.452 335.127 209.498 335.082 209.553 335.053C209.609 335.024 209.672 335.013 209.734 335.02C209.795 335.03 209.852 335.058 209.896 335.101C209.94 335.144 209.969 335.2 209.98 335.26C209.98 335.29 210.58 338.289 210.736 338.859C210.773 339.089 210.742 339.325 210.647 339.538C210.553 339.751 210.398 339.932 210.202 340.058C209.911 340.294 209.551 340.428 209.176 340.442ZM208.433 338.373C208.481 338.811 208.667 339.614 209.002 339.8C209.149 339.836 209.302 339.833 209.447 339.792C209.592 339.751 209.724 339.673 209.83 339.566C210.088 339.357 210.196 339.129 210.166 339.021C210.04 338.619 209.746 337.155 209.566 336.208L208.433 338.373Z" fill="#263238"/>
<path d="M191.346 337.965C191.282 337.964 191.219 337.943 191.166 337.905L188.509 335.956C188.459 335.921 188.421 335.871 188.4 335.812C188.38 335.754 188.378 335.691 188.395 335.632L190.243 328.819C190.255 328.774 190.279 328.732 190.311 328.697C190.344 328.663 190.384 328.637 190.429 328.621C190.47 328.599 190.516 328.588 190.564 328.588C190.611 328.588 190.657 328.599 190.698 328.621L194.369 331.134C194.427 331.174 194.469 331.233 194.487 331.301C194.506 331.369 194.5 331.442 194.471 331.506L191.592 337.755C191.574 337.796 191.547 337.833 191.513 337.862C191.478 337.891 191.438 337.912 191.394 337.923L191.346 337.965ZM189.043 335.596L191.244 337.203L193.859 331.518L190.752 329.389L189.043 335.596Z" fill="#263238"/>
<path d="M195.442 311.169C195.442 311.169 196.042 303.192 193.757 299.174C191.472 295.156 186.368 295.498 178.164 298.095C169.96 300.692 148.501 316.519 148.087 318.132C147.673 319.745 152.633 323.655 155.5 324.729C158.367 325.802 184.887 336.124 185.403 336.478C185.919 336.832 188 337.078 188.665 335.71C189.331 334.343 191.328 330.079 190.537 328.897C189.745 327.716 177.708 318.882 177.708 318.882L189.529 313.178" fill="white"/>
<path d="M186.674 337.06C186.179 337.079 185.689 336.965 185.253 336.73C184.539 336.328 158.894 326.33 155.41 325.011C152.741 324.003 147.326 319.979 147.817 318.048C148.279 316.249 169.876 300.41 178.092 297.801C185.859 295.336 191.538 294.604 194.021 299C196.312 303.079 195.766 310.863 195.742 311.187C195.735 311.266 195.697 311.34 195.637 311.393C195.576 311.445 195.498 311.472 195.418 311.469C195.379 311.466 195.341 311.455 195.305 311.437C195.27 311.419 195.239 311.394 195.213 311.364C195.187 311.334 195.168 311.299 195.156 311.262C195.144 311.224 195.139 311.184 195.143 311.145C195.143 311.067 195.7 303.216 193.493 299.294C191.514 295.774 187.244 295.51 178.272 298.353C169.852 301.051 148.861 316.747 148.399 318.198C148.057 319.523 152.783 323.38 155.596 324.453C157.323 325.107 184.983 335.848 185.583 336.232C186.149 336.483 186.784 336.531 187.382 336.37C187.6 336.323 187.804 336.228 187.981 336.093C188.157 335.957 188.301 335.783 188.401 335.584C190.045 332.19 190.752 329.755 190.291 329.065C189.733 328.231 182.356 322.666 177.534 319.133C177.493 319.102 177.461 319.061 177.44 319.014C177.419 318.967 177.41 318.915 177.414 318.864C177.418 318.811 177.435 318.761 177.465 318.718C177.494 318.675 177.535 318.64 177.582 318.618L189.403 312.914C189.438 312.897 189.477 312.887 189.516 312.884C189.556 312.882 189.595 312.887 189.633 312.9C189.67 312.913 189.704 312.933 189.734 312.959C189.763 312.985 189.788 313.017 189.805 313.052C189.822 313.088 189.832 313.126 189.835 313.165C189.837 313.205 189.832 313.244 189.819 313.282C189.806 313.319 189.786 313.353 189.76 313.383C189.734 313.413 189.702 313.437 189.667 313.454L178.272 318.942C180.599 320.651 190.033 327.626 190.776 328.735C191.376 329.653 190.776 332.046 188.923 335.842C188.789 336.118 188.596 336.36 188.358 336.553C188.119 336.746 187.841 336.884 187.544 336.958C187.259 337.028 186.967 337.062 186.674 337.06Z" fill="#263238"/>
<path d="M159.95 313.082C159.87 313.098 159.788 313.082 159.72 313.037C159.653 312.992 159.606 312.922 159.59 312.842C159.574 312.763 159.591 312.68 159.636 312.613C159.681 312.545 159.751 312.498 159.83 312.482C160.402 312.245 160.989 312.045 161.587 311.883C161.664 311.862 161.745 311.873 161.813 311.912C161.882 311.952 161.932 312.016 161.953 312.092C161.964 312.13 161.967 312.169 161.963 312.208C161.959 312.247 161.947 312.284 161.928 312.318C161.909 312.352 161.883 312.382 161.853 312.406C161.822 312.43 161.787 312.448 161.749 312.458C161.178 312.623 160.617 312.823 160.07 313.058C160.032 313.075 159.991 313.083 159.95 313.082Z" fill="#263238"/>
<path d="M177.726 319.187C177.664 319.189 177.603 319.17 177.552 319.133C177.468 319.079 169.678 313.508 168.04 312.254C167.279 311.655 165.438 311.655 162.997 312.17C162.957 312.179 162.917 312.179 162.877 312.172C162.838 312.164 162.8 312.149 162.766 312.127C162.732 312.105 162.703 312.077 162.681 312.044C162.658 312.01 162.642 311.973 162.634 311.934C162.626 311.894 162.625 311.854 162.633 311.814C162.64 311.774 162.655 311.737 162.677 311.703C162.699 311.669 162.728 311.64 162.761 311.618C162.794 311.595 162.831 311.579 162.871 311.571C164.406 311.235 167.165 310.809 168.406 311.757C170.032 313.004 177.822 318.57 177.9 318.624C177.963 318.671 178.006 318.742 178.018 318.82C178.03 318.899 178.012 318.979 177.966 319.043C177.941 319.085 177.906 319.121 177.864 319.146C177.822 319.171 177.775 319.185 177.726 319.187Z" fill="#263238"/>
<path d="M171.423 312.77C171.364 312.77 171.307 312.754 171.258 312.722C171.209 312.69 171.17 312.644 171.147 312.59C170.008 309.945 166.571 310.071 166.541 310.077C166.462 310.081 166.384 310.054 166.325 310C166.266 309.947 166.23 309.872 166.226 309.793C166.222 309.713 166.25 309.635 166.303 309.576C166.357 309.517 166.432 309.482 166.511 309.478C166.673 309.478 170.391 309.322 171.699 312.35C171.715 312.387 171.723 312.426 171.724 312.465C171.725 312.505 171.718 312.544 171.703 312.581C171.689 312.618 171.667 312.651 171.64 312.68C171.612 312.708 171.579 312.731 171.543 312.746C171.505 312.763 171.464 312.771 171.423 312.77Z" fill="#263238"/>
<path d="M188.395 316.567C188.322 316.565 188.251 316.537 188.197 316.488C188.143 316.438 188.109 316.37 188.102 316.297C188.097 316.257 188.101 316.217 188.113 316.179C188.124 316.141 188.143 316.106 188.168 316.075C188.193 316.045 188.224 316.019 188.259 316.001C188.294 315.982 188.332 315.971 188.372 315.967L190.093 315.793C190.171 315.786 190.249 315.81 190.311 315.859C190.372 315.908 190.412 315.979 190.423 316.057C190.427 316.096 190.423 316.136 190.412 316.174C190.4 316.212 190.382 316.247 190.356 316.278C190.331 316.309 190.3 316.334 190.265 316.353C190.23 316.371 190.192 316.383 190.153 316.387L188.443 316.567H188.395Z" fill="#263238"/>
<path d="M181.804 317.25C181.73 317.249 181.659 317.221 181.604 317.172C181.548 317.122 181.513 317.054 181.504 316.98C181.499 316.901 181.524 316.823 181.574 316.762C181.624 316.701 181.696 316.661 181.774 316.651L186.374 316.177C186.454 316.169 186.533 316.193 186.595 316.243C186.657 316.294 186.696 316.367 186.704 316.447C186.712 316.526 186.688 316.606 186.638 316.667C186.587 316.729 186.514 316.769 186.434 316.777L181.834 317.25H181.804Z" fill="#263238"/>
<path d="M209.152 254.236C209.152 254.236 211.671 251.459 211.767 251.117C211.863 250.776 212.799 245.648 212.799 245.648L211.599 246.715L209.152 254.236Z" fill="white"/>
<path d="M209.152 254.536C209.1 254.535 209.048 254.52 209.002 254.494C208.943 254.459 208.897 254.405 208.872 254.341C208.847 254.277 208.844 254.206 208.864 254.14L211.323 246.619C211.342 246.572 211.371 246.529 211.407 246.493L212.607 245.426C212.653 245.383 212.712 245.356 212.774 245.349C212.837 245.341 212.9 245.354 212.955 245.384C213.01 245.415 213.054 245.462 213.081 245.519C213.108 245.576 213.116 245.64 213.105 245.702C213.009 246.229 212.163 250.847 212.067 251.195C211.971 251.543 210.34 253.378 209.386 254.434C209.357 254.467 209.321 254.493 209.28 254.51C209.24 254.528 209.196 254.537 209.152 254.536ZM211.869 246.883L209.878 252.994C210.452 252.381 210.986 251.732 211.479 251.051C211.533 250.853 211.983 248.46 212.343 246.487L211.869 246.883Z" fill="#263238"/>
<path d="M204.252 265.031C204.252 265.031 198.855 260.437 199.653 258.704C200.45 256.971 209.248 249.108 209.248 249.108C209.248 249.108 211.485 246.397 211.617 246.709C211.749 247.021 211.119 250.458 210.604 251.507C210.088 252.557 205.878 258.854 205.878 258.854L208.241 260.995L204.252 265.031Z" fill="white"/>
<path d="M204.253 265.331C204.182 265.332 204.113 265.306 204.061 265.259C203.125 264.467 198.507 260.425 199.383 258.572C200.258 256.719 208.679 249.192 209.038 248.868C211.15 246.313 211.437 246.361 211.623 246.391C211.681 246.404 211.736 246.43 211.781 246.467C211.827 246.505 211.864 246.553 211.887 246.607C212.085 247.105 211.365 250.631 210.868 251.639C210.37 252.647 207.023 257.672 206.268 258.806L208.439 260.773C208.496 260.831 208.528 260.91 208.528 260.992C208.528 261.074 208.496 261.152 208.439 261.211L204.45 265.241C204.425 265.268 204.394 265.29 204.361 265.306C204.327 265.321 204.29 265.33 204.253 265.331ZM211.305 247.243C210.862 247.669 210.106 248.514 209.47 249.282C206.424 252.023 200.552 257.504 199.922 258.83C199.419 259.903 202.219 262.872 204.235 264.623L207.803 261.025L205.674 259.094C205.619 259.046 205.584 258.98 205.575 258.908C205.566 258.836 205.584 258.763 205.626 258.704C205.668 258.644 209.824 252.407 210.334 251.393C210.814 250.051 211.14 248.659 211.305 247.243Z" fill="#263238"/>
<path d="M260.796 160.323L216.415 186.49L222.508 197.651C221.681 198.346 158.936 270.819 128.494 305.975C123.41 311.842 117.118 316.541 110.049 319.75C102.98 322.959 95.301 324.602 87.5378 324.567L7.95276 324.273V348.263L94.0629 348.305C103.822 348.311 113.47 346.236 122.364 342.22C131.257 338.203 139.193 332.336 145.64 325.011L234.803 219.841L241.568 232.244L262.211 163.142L260.796 160.323Z" fill="#263238"/>
<path d="M94.1289 348.604H94.0869L7.97678 348.562C7.89773 348.561 7.82235 348.529 7.76644 348.473C7.71053 348.417 7.67845 348.342 7.67691 348.263V324.273C7.67952 324.193 7.71152 324.116 7.76687 324.057C7.82388 324.004 7.89877 323.974 7.97678 323.973L87.5558 324.267H87.7957C95.4779 324.274 103.071 322.625 110.059 319.434C117.047 316.242 123.265 311.582 128.29 305.771C162.175 266.626 218.544 201.537 222.167 197.603L216.169 186.628C216.132 186.56 216.122 186.48 216.142 186.405C216.162 186.33 216.211 186.266 216.277 186.226L260.658 160.059C260.694 160.038 260.733 160.025 260.775 160.02C260.816 160.014 260.858 160.018 260.898 160.029C260.937 160.041 260.973 160.061 261.004 160.088C261.035 160.115 261.06 160.148 261.078 160.185L262.487 163.004C262.502 163.039 262.509 163.077 262.509 163.115C262.509 163.153 262.502 163.191 262.487 163.226L241.856 232.327C241.84 232.385 241.806 232.436 241.76 232.475C241.714 232.513 241.658 232.537 241.598 232.543C241.539 232.549 241.48 232.537 241.428 232.509C241.376 232.481 241.333 232.439 241.304 232.387L234.749 220.393L145.862 325.203C139.394 332.552 131.435 338.439 122.515 342.474C113.596 346.509 103.919 348.599 94.1289 348.604ZM8.27665 347.963L94.0869 348.005H94.1289C103.836 348.003 113.432 345.933 122.278 341.934C131.123 337.936 139.016 332.099 145.43 324.813L234.569 219.649C234.602 219.612 234.643 219.583 234.689 219.564C234.734 219.546 234.784 219.538 234.833 219.541C234.881 219.547 234.926 219.564 234.966 219.591C235.006 219.618 235.038 219.655 235.061 219.697L241.484 231.47L261.875 163.172L260.676 160.743L216.847 186.604L222.796 197.513C222.828 197.574 222.838 197.644 222.825 197.711C222.812 197.779 222.776 197.84 222.724 197.885C221.963 198.586 187.706 238.067 128.746 306.173C123.664 312.048 117.377 316.761 110.312 319.99C103.247 323.218 95.5696 324.888 87.8017 324.885H87.5618L8.27665 324.591V347.963Z" fill="#263238"/>
<path d="M215.03 183.671L221.123 194.82C220.295 195.516 157.551 267.988 127.108 303.144C122.026 309.013 115.734 313.713 108.665 316.922C101.595 320.131 93.9159 321.773 86.1524 321.736L7.97678 321.448V345.438L92.6776 345.486C102.437 345.491 112.085 343.415 120.979 339.398C129.872 335.38 137.808 329.512 144.255 322.186L233.388 217.01L240.159 229.413L260.796 160.323L215.03 183.671Z" fill="white"/>
<path d="M92.7135 345.786H92.6776L7.97678 345.738C7.89725 345.738 7.82098 345.706 7.76474 345.65C7.7085 345.594 7.67691 345.517 7.67691 345.438V321.448C7.67837 321.368 7.71053 321.29 7.76687 321.232C7.83041 321.186 7.90478 321.157 7.98278 321.148L86.1524 321.436H86.3923C94.0737 321.44 101.666 319.789 108.652 316.597C115.639 313.404 121.856 308.744 126.881 302.934C160.76 263.79 217.135 198.73 220.757 194.784L214.76 183.815C214.73 183.74 214.73 183.656 214.76 183.581C214.772 183.543 214.791 183.508 214.817 183.478C214.843 183.448 214.874 183.424 214.91 183.407L260.664 160.035C260.715 160.007 260.773 159.995 260.831 160.002C260.889 160.008 260.944 160.032 260.988 160.071C261.033 160.107 261.067 160.157 261.084 160.212C261.101 160.268 261.101 160.328 261.084 160.383L240.447 229.509C240.428 229.565 240.394 229.615 240.349 229.654C240.303 229.692 240.248 229.716 240.189 229.725C240.13 229.73 240.071 229.718 240.019 229.69C239.967 229.662 239.924 229.62 239.895 229.569L233.334 217.574L144.477 322.384C138.005 329.737 130.042 335.627 121.116 339.662C112.191 343.697 102.509 345.784 92.7135 345.786ZM8.27665 345.138L92.6776 345.186H92.7135C102.424 345.181 112.023 343.107 120.869 339.103C129.716 335.099 137.609 329.256 144.021 321.964L233.16 216.824C233.194 216.789 233.235 216.762 233.281 216.744C233.326 216.727 233.375 216.719 233.424 216.722C233.472 216.728 233.517 216.745 233.557 216.772C233.597 216.799 233.629 216.836 233.652 216.878L240.075 228.651L260.31 160.911L215.432 183.797L221.375 194.688C221.407 194.75 221.417 194.821 221.404 194.889C221.391 194.958 221.356 195.02 221.303 195.066C220.23 196.061 155.23 271.124 127.336 303.372C122.256 309.249 115.969 313.962 108.904 317.191C101.838 320.419 94.1605 322.088 86.3923 322.084H86.1524L8.27665 321.796V345.138Z" fill="#263238"/>
</g>
<defs>
<clipPath id="clip0_6_9390">
<rect width="289" height="362" fill="white"/>
</clipPath>
</defs>
</svg>
