<svg width="289" height="362" viewBox="0 0 289 362" fill="none" xmlns="http://www.w3.org/2000/svg">
<g clip-path="url(#clip0_5_9353)">
<rect width="289" height="362" fill="#F3A712" fill-opacity="0.2"/>
<path d="M27.7281 35V32.9972L34.7948 23.3097H27.7352V20.4545H39.2409V22.4574L32.1741 32.1449H39.2338V35H27.7281ZM41.8911 35V20.4545H52.0331V23.3097H45.4067V26.2926H51.5147V29.1548H45.4067V32.1449H52.0331V35H41.8911ZM54.7348 35V20.4545H60.7433C61.8324 20.4545 62.7722 20.651 63.5629 21.044C64.3584 21.4323 64.9716 21.991 65.4024 22.7202C65.8333 23.4446 66.0487 24.304 66.0487 25.2983C66.0487 26.3068 65.8286 27.1638 65.3882 27.8693C64.9479 28.5701 64.3229 29.1051 63.5132 29.4744C62.7036 29.839 61.7448 30.0213 60.6368 30.0213H56.8371V27.2514H59.9834C60.5137 27.2514 60.9564 27.1828 61.3115 27.0455C61.6714 26.9034 61.9436 26.6903 62.1283 26.4062C62.3129 26.1174 62.4053 25.7481 62.4053 25.2983C62.4053 24.8485 62.3129 24.4768 62.1283 24.1832C61.9436 23.8849 61.6714 23.6624 61.3115 23.5156C60.9517 23.3641 60.509 23.2884 59.9834 23.2884H58.2504V35H54.7348ZM62.9237 28.3523L66.5459 35H62.7107L59.1595 28.3523H62.9237ZM82.2057 27.7273C82.2057 29.3277 81.8979 30.6842 81.2824 31.7969C80.6669 32.9096 79.8335 33.7547 78.7824 34.3324C77.736 34.91 76.5618 35.1989 75.2597 35.1989C73.9529 35.1989 72.7763 34.9077 71.7299 34.3253C70.6835 33.7429 69.8525 32.8977 69.237 31.7898C68.6262 30.6771 68.3208 29.3229 68.3208 27.7273C68.3208 26.1269 68.6262 24.7704 69.237 23.6577C69.8525 22.545 70.6835 21.6998 71.7299 21.1222C72.7763 20.5445 73.9529 20.2557 75.2597 20.2557C76.5618 20.2557 77.736 20.5445 78.7824 21.1222C79.8335 21.6998 80.6669 22.545 81.2824 23.6577C81.8979 24.7704 82.2057 26.1269 82.2057 27.7273ZM78.612 27.7273C78.612 26.7803 78.477 25.9801 78.2071 25.3267C77.942 24.6733 77.5585 24.1785 77.0566 23.8423C76.5594 23.5062 75.9604 23.3381 75.2597 23.3381C74.5637 23.3381 73.9647 23.5062 73.4628 23.8423C72.9609 24.1785 72.575 24.6733 72.3051 25.3267C72.04 25.9801 71.9074 26.7803 71.9074 27.7273C71.9074 28.6742 72.04 29.4744 72.3051 30.1278C72.575 30.7812 72.9609 31.276 73.4628 31.6122C73.9647 31.9484 74.5637 32.1165 75.2597 32.1165C75.9604 32.1165 76.5594 31.9484 77.0566 31.6122C77.5585 31.276 77.942 30.7812 78.2071 30.1278C78.477 29.4744 78.612 28.6742 78.612 27.7273ZM94.9316 35H89.5551V20.4545H94.9245C96.4065 20.4545 97.6825 20.7457 98.7526 21.3281C99.8274 21.9058 100.656 22.7391 101.238 23.8281C101.821 24.9124 102.112 26.2098 102.112 27.7202C102.112 29.2353 101.821 30.5374 101.238 31.6264C100.661 32.7154 99.8345 33.5511 98.7597 34.1335C97.6849 34.7112 96.4088 35 94.9316 35ZM93.0708 32.0028H94.7966C95.611 32.0028 96.2999 31.8655 96.8634 31.5909C97.4316 31.3116 97.8601 30.8594 98.1489 30.2344C98.4424 29.6046 98.5892 28.7666 98.5892 27.7202C98.5892 26.6738 98.4424 25.8404 98.1489 25.2202C97.8553 24.5952 97.4221 24.1454 96.8492 23.8707C96.281 23.5914 95.5802 23.4517 94.7469 23.4517H93.0708V32.0028ZM104.665 35V20.4545H114.807V23.3097H108.18V26.2926H114.288V29.1548H108.18V32.1449H114.807V35H104.665ZM117.508 35V20.4545H121.024V32.1449H127.075V35H117.508ZM132.737 35H128.958L133.866 20.4545H138.546L143.454 35H139.676L136.259 24.1193H136.146L132.737 35ZM132.232 29.2756H140.13V31.946H132.232V29.2756ZM143.311 20.4545H147.239L150.314 26.5412H150.442L153.517 20.4545H157.445L152.125 30.142V35H148.631V30.142L143.311 20.4545ZM161.361 33.0114L161.297 33.7997C161.24 34.4531 161.124 35.09 160.949 35.7102C160.779 36.3352 160.596 36.8963 160.402 37.3935C160.208 37.8906 160.054 38.2765 159.94 38.5511H157.753C157.829 38.2765 157.93 37.8906 158.058 37.3935C158.191 36.8963 158.314 36.3352 158.428 35.7102C158.541 35.0852 158.605 34.4508 158.619 33.8068L158.634 33.0114H161.361ZM176.907 20.4545V35H173.924L168.136 26.6051H168.043V35H164.528V20.4545H167.553L173.278 28.8352H173.399V20.4545H176.907ZM193.346 27.7273C193.346 29.3277 193.039 30.6842 192.423 31.7969C191.808 32.9096 190.974 33.7547 189.923 34.3324C188.877 34.91 187.702 35.1989 186.4 35.1989C185.093 35.1989 183.917 34.9077 182.87 34.3253C181.824 33.7429 180.993 32.8977 180.378 31.7898C179.767 30.6771 179.461 29.3229 179.461 27.7273C179.461 26.1269 179.767 24.7704 180.378 23.6577C180.993 22.545 181.824 21.6998 182.87 21.1222C183.917 20.5445 185.093 20.2557 186.4 20.2557C187.702 20.2557 188.877 20.5445 189.923 21.1222C190.974 21.6998 191.808 22.545 192.423 23.6577C193.039 24.7704 193.346 26.1269 193.346 27.7273ZM189.753 27.7273C189.753 26.7803 189.618 25.9801 189.348 25.3267C189.083 24.6733 188.699 24.1785 188.197 23.8423C187.7 23.5062 187.101 23.3381 186.4 23.3381C185.704 23.3381 185.105 23.5062 184.603 23.8423C184.102 24.1785 183.716 24.6733 183.446 25.3267C183.181 25.9801 183.048 26.7803 183.048 27.7273C183.048 28.6742 183.181 29.4744 183.446 30.1278C183.716 30.7812 184.102 31.276 184.603 31.6122C185.105 31.9484 185.704 32.1165 186.4 32.1165C187.101 32.1165 187.7 31.9484 188.197 31.6122C188.699 31.276 189.083 30.7812 189.348 30.1278C189.618 29.4744 189.753 28.6742 189.753 27.7273ZM27.7778 59V44.4545H33.7863C34.8753 44.4545 35.8152 44.6676 36.6059 45.0938C37.4014 45.5152 38.0145 46.1046 38.4454 46.8622C38.8763 47.6151 39.0917 48.491 39.0917 49.4901C39.0917 50.4938 38.8715 51.3722 38.4312 52.125C37.9956 52.8731 37.373 53.4531 36.5633 53.8651C35.7536 54.277 34.7925 54.483 33.6798 54.483H29.9724V51.7131H33.0264C33.5567 51.7131 33.9994 51.6207 34.3545 51.4361C34.7143 51.2514 34.9866 50.9934 35.1713 50.6619C35.3559 50.3258 35.4482 49.9351 35.4482 49.4901C35.4482 49.0402 35.3559 48.652 35.1713 48.3253C34.9866 47.9938 34.7143 47.7382 34.3545 47.5582C33.9946 47.3783 33.5519 47.2884 33.0264 47.2884H31.2934V59H27.7778ZM41.3247 59V44.4545H47.3332C48.4222 44.4545 49.3621 44.651 50.1528 45.044C50.9482 45.4323 51.5614 45.991 51.9923 46.7202C52.4232 47.4446 52.6386 48.304 52.6386 49.2983C52.6386 50.3068 52.4184 51.1638 51.9781 51.8693C51.5377 52.5701 50.9127 53.1051 50.1031 53.4744C49.2934 53.839 48.3346 54.0213 47.2267 54.0213H43.4269V51.2514H46.5732C47.1036 51.2514 47.5463 51.1828 47.9014 51.0455C48.2612 50.9034 48.5335 50.6903 48.7181 50.4062C48.9028 50.1174 48.9951 49.7481 48.9951 49.2983C48.9951 48.8485 48.9028 48.4768 48.7181 48.1832C48.5335 47.8849 48.2612 47.6624 47.9014 47.5156C47.5415 47.3641 47.0988 47.2884 46.5732 47.2884H44.8403V59H41.3247ZM49.5136 52.3523L53.1357 59H49.3005L45.7494 52.3523H49.5136ZM55.0669 59V44.4545H65.2089V47.3097H58.5825V50.2926H64.6904V53.1548H58.5825V56.1449H65.2089V59H55.0669ZM71.0569 59H67.2785L72.1862 44.4545H76.8666L81.7742 59H77.9958L74.5796 48.1193H74.466L71.0569 59ZM70.5527 53.2756H78.4504V55.946H70.5527V53.2756ZM92.64 44.4545H96.1485V53.8366C96.1485 54.9209 95.8905 55.8655 95.3744 56.6705C94.8583 57.4706 94.1386 58.0909 93.2153 58.5312C92.292 58.9669 91.2196 59.1847 89.998 59.1847C88.7622 59.1847 87.6826 58.9669 86.7593 58.5312C85.836 58.0909 85.1187 57.4706 84.6073 56.6705C84.096 55.8655 83.8403 54.9209 83.8403 53.8366V44.4545H87.3559V53.5312C87.3559 54.0331 87.4648 54.4806 87.6826 54.8736C87.9052 55.2666 88.2153 55.5743 88.613 55.7969C89.0107 56.0194 89.4724 56.1307 89.998 56.1307C90.5235 56.1307 90.9828 56.0194 91.3758 55.7969C91.7735 55.5743 92.0837 55.2666 92.3062 54.8736C92.5287 54.4806 92.64 54.0331 92.64 53.5312V44.4545ZM98.3762 47.3097V44.4545H110.67V47.3097H106.26V59H102.794V47.3097H98.3762ZM112.887 59V44.4545H116.403V50.2926H122.134V44.4545H125.643V59H122.134V53.1548H116.403V59H112.887ZM142.077 51.7273C142.077 53.3277 141.769 54.6842 141.154 55.7969C140.538 56.9096 139.705 57.7547 138.654 58.3324C137.607 58.91 136.433 59.1989 135.131 59.1989C133.824 59.1989 132.647 58.9077 131.601 58.3253C130.555 57.7429 129.724 56.8977 129.108 55.7898C128.497 54.6771 128.192 53.3229 128.192 51.7273C128.192 50.1269 128.497 48.7704 129.108 47.6577C129.724 46.545 130.555 45.6998 131.601 45.1222C132.647 44.5445 133.824 44.2557 135.131 44.2557C136.433 44.2557 137.607 44.5445 138.654 45.1222C139.705 45.6998 140.538 46.545 141.154 47.6577C141.769 48.7704 142.077 50.1269 142.077 51.7273ZM138.483 51.7273C138.483 50.7803 138.348 49.9801 138.078 49.3267C137.813 48.6733 137.43 48.1785 136.928 47.8423C136.43 47.5062 135.832 47.3381 135.131 47.3381C134.435 47.3381 133.836 47.5062 133.334 47.8423C132.832 48.1785 132.446 48.6733 132.176 49.3267C131.911 49.9801 131.779 50.7803 131.779 51.7273C131.779 52.6742 131.911 53.4744 132.176 54.1278C132.446 54.7812 132.832 55.276 133.334 55.6122C133.836 55.9484 134.435 56.1165 135.131 56.1165C135.832 56.1165 136.43 55.9484 136.928 55.6122C137.43 55.276 137.813 54.7812 138.078 54.1278C138.348 53.4744 138.483 52.6742 138.483 51.7273ZM144.629 59V44.4545H150.638C151.727 44.4545 152.667 44.651 153.457 45.044C154.253 45.4323 154.866 45.991 155.297 46.7202C155.728 47.4446 155.943 48.304 155.943 49.2983C155.943 50.3068 155.723 51.1638 155.283 51.8693C154.842 52.5701 154.217 53.1051 153.408 53.4744C152.598 53.839 151.639 54.0213 150.531 54.0213H146.732V51.2514H149.878C150.408 51.2514 150.851 51.1828 151.206 51.0455C151.566 50.9034 151.838 50.6903 152.023 50.4062C152.207 50.1174 152.3 49.7481 152.3 49.2983C152.3 48.8485 152.207 48.4768 152.023 48.1832C151.838 47.8849 151.566 47.6624 151.206 47.5156C150.846 47.3641 150.404 47.2884 149.878 47.2884H148.145V59H144.629ZM152.818 52.3523L156.44 59H152.605L149.054 52.3523H152.818ZM161.887 44.4545V59H158.372V44.4545H161.887ZM164.544 59V56.9972L171.611 47.3097H164.552V44.4545H176.057V46.4574L168.991 56.1449H176.05V59H164.544ZM181.854 59H178.075L182.983 44.4545H187.663L192.571 59H188.793L185.377 48.1193H185.263L181.854 59ZM181.35 53.2756H189.247V55.946H181.35V53.2756ZM192.345 47.3097V44.4545H204.639V47.3097H200.228V59H196.763V47.3097H192.345ZM210.372 44.4545V59H206.856V44.4545H210.372ZM226.807 51.7273C226.807 53.3277 226.5 54.6842 225.884 55.7969C225.268 56.9096 224.435 57.7547 223.384 58.3324C222.338 58.91 221.163 59.1989 219.861 59.1989C218.554 59.1989 217.378 58.9077 216.331 58.3253C215.285 57.7429 214.454 56.8977 213.839 55.7898C213.228 54.6771 212.922 53.3229 212.922 51.7273C212.922 50.1269 213.228 48.7704 213.839 47.6577C214.454 46.545 215.285 45.6998 216.331 45.1222C217.378 44.5445 218.554 44.2557 219.861 44.2557C221.163 44.2557 222.338 44.5445 223.384 45.1222C224.435 45.6998 225.268 46.545 225.884 47.6577C226.5 48.7704 226.807 50.1269 226.807 51.7273ZM223.214 51.7273C223.214 50.7803 223.079 49.9801 222.809 49.3267C222.544 48.6733 222.16 48.1785 221.658 47.8423C221.161 47.5062 220.562 47.3381 219.861 47.3381C219.165 47.3381 218.566 47.5062 218.064 47.8423C217.562 48.1785 217.177 48.6733 216.907 49.3267C216.642 49.9801 216.509 50.7803 216.509 51.7273C216.509 52.6742 216.642 53.4744 216.907 54.1278C217.177 54.7812 217.562 55.276 218.064 55.6122C218.566 55.9484 219.165 56.1165 219.861 56.1165C220.562 56.1165 221.161 55.9484 221.658 55.6122C222.16 55.276 222.544 54.7812 222.809 54.1278C223.079 53.4744 223.214 52.6742 223.214 51.7273ZM241.739 44.4545V59H238.756L232.968 50.6051H232.875V59H229.36V44.4545H232.385L238.11 52.8352H238.231V44.4545H241.739ZM27.7778 83V68.4545H37.7068V71.3097H31.2934V74.2926H37.0747V77.1548H31.2934V83H27.7778ZM53.7057 75.7273C53.7057 77.3277 53.3979 78.6842 52.7824 79.7969C52.1669 80.9096 51.3335 81.7547 50.2824 82.3324C49.236 82.91 48.0618 83.1989 46.7597 83.1989C45.4529 83.1989 44.2763 82.9077 43.2299 82.3253C42.1835 81.7429 41.3525 80.8977 40.737 79.7898C40.1262 78.6771 39.8208 77.3229 39.8208 75.7273C39.8208 74.1269 40.1262 72.7704 40.737 71.6577C41.3525 70.545 42.1835 69.6998 43.2299 69.1222C44.2763 68.5445 45.4529 68.2557 46.7597 68.2557C48.0618 68.2557 49.236 68.5445 50.2824 69.1222C51.3335 69.6998 52.1669 70.545 52.7824 71.6577C53.3979 72.7704 53.7057 74.1269 53.7057 75.7273ZM50.112 75.7273C50.112 74.7803 49.977 73.9801 49.7071 73.3267C49.442 72.6733 49.0585 72.1785 48.5566 71.8423C48.0594 71.5062 47.4604 71.3381 46.7597 71.3381C46.0637 71.3381 45.4647 71.5062 44.9628 71.8423C44.4609 72.1785 44.075 72.6733 43.8051 73.3267C43.54 73.9801 43.4074 74.7803 43.4074 75.7273C43.4074 76.6742 43.54 77.4744 43.8051 78.1278C44.075 78.7812 44.4609 79.276 44.9628 79.6122C45.4647 79.9484 46.0637 80.1165 46.7597 80.1165C47.4604 80.1165 48.0594 79.9484 48.5566 79.6122C49.0585 79.276 49.442 78.7812 49.7071 78.1278C49.977 77.4744 50.112 76.6742 50.112 75.7273ZM56.2583 83V68.4545H62.2668C63.3558 68.4545 64.2957 68.651 65.0864 69.044C65.8818 69.4323 66.495 69.991 66.9259 70.7202C67.3567 71.4446 67.5722 72.304 67.5722 73.2983C67.5722 74.3068 67.352 75.1638 66.9117 75.8693C66.4713 76.5701 65.8463 77.1051 65.0367 77.4744C64.227 77.839 63.2682 78.0213 62.1603 78.0213H58.3605V75.2514H61.5068C62.0371 75.2514 62.4799 75.1828 62.835 75.0455C63.1948 74.9034 63.4671 74.6903 63.6517 74.4062C63.8364 74.1174 63.9287 73.7481 63.9287 73.2983C63.9287 72.8485 63.8364 72.4768 63.6517 72.1832C63.4671 71.8849 63.1948 71.6624 62.835 71.5156C62.4751 71.3641 62.0324 71.2884 61.5068 71.2884H59.7739V83H56.2583ZM64.4472 76.3523L68.0693 83H64.2341L60.683 76.3523H64.4472ZM77.9436 83H74.1652L79.0729 68.4545H83.7533L88.661 83H84.8826L81.4664 72.1193H81.3527L77.9436 83ZM77.4394 77.2756H85.3371V79.946H77.4394V77.2756ZM103.106 68.4545V83H100.123L94.335 74.6051H94.2426V83H90.727V68.4545H93.7526L99.477 76.8352H99.5978V68.4545H103.106ZM105.092 68.4545H109.02L112.095 74.5412H112.223L115.298 68.4545H119.226L113.906 78.142V83H110.412V78.142L105.092 68.4545ZM139.2 73.7244H135.649C135.601 73.3598 135.504 73.0308 135.357 72.7372C135.211 72.4437 135.016 72.1927 134.775 71.9844C134.533 71.776 134.247 71.6174 133.916 71.5085C133.589 71.3949 133.227 71.3381 132.829 71.3381C132.123 71.3381 131.515 71.5109 131.004 71.8565C130.497 72.2022 130.106 72.7017 129.832 73.3551C129.562 74.0085 129.427 74.7992 129.427 75.7273C129.427 76.6932 129.564 77.5028 129.839 78.1562C130.118 78.8049 130.509 79.295 131.011 79.6264C131.517 79.9531 132.116 80.1165 132.808 80.1165C133.196 80.1165 133.549 80.0668 133.866 79.9673C134.188 79.8679 134.47 79.7235 134.711 79.5341C134.957 79.34 135.158 79.1056 135.315 78.831C135.476 78.5516 135.587 78.2367 135.649 77.8864L139.2 77.9077C139.138 78.5516 138.951 79.1861 138.639 79.8111C138.331 80.4361 137.907 81.0066 137.367 81.5227C136.828 82.0341 136.169 82.4413 135.393 82.7443C134.621 83.0473 133.736 83.1989 132.737 83.1989C131.42 83.1989 130.241 82.91 129.2 82.3324C128.163 81.75 127.344 80.9025 126.742 79.7898C126.141 78.6771 125.84 77.3229 125.84 75.7273C125.84 74.1269 126.146 72.7704 126.756 71.6577C127.367 70.545 128.194 69.6998 129.235 69.1222C130.277 68.5445 131.444 68.2557 132.737 68.2557C133.617 68.2557 134.432 68.3788 135.18 68.625C135.928 68.8665 136.586 69.2216 137.154 69.6903C137.722 70.1544 138.184 70.7249 138.539 71.402C138.894 72.0791 139.114 72.8532 139.2 73.7244ZM144.487 83H140.708L145.616 68.4545H150.296L155.204 83H151.426L148.009 72.1193H147.896L144.487 83ZM143.982 77.2756H151.88V79.946H143.982V77.2756ZM157.27 83V68.4545H163.279C164.368 68.4545 165.307 68.651 166.098 69.044C166.894 69.4323 167.507 69.991 167.938 70.7202C168.368 71.4446 168.584 72.304 168.584 73.2983C168.584 74.3068 168.364 75.1638 167.923 75.8693C167.483 76.5701 166.858 77.1051 166.048 77.4744C165.239 77.839 164.28 78.0213 163.172 78.0213H159.372V75.2514H162.519C163.049 75.2514 163.492 75.1828 163.847 75.0455C164.207 74.9034 164.479 74.6903 164.663 74.4062C164.848 74.1174 164.94 73.7481 164.94 73.2983C164.94 72.8485 164.848 72.4768 164.663 72.1832C164.479 71.8849 164.207 71.6624 163.847 71.5156C163.487 71.3641 163.044 71.2884 162.519 71.2884H160.786V83H157.27ZM165.459 76.3523L169.081 83H165.246L161.695 76.3523H165.459ZM171.012 83V68.4545H181.154V71.3097H174.528V74.2926H180.636V77.1548H174.528V80.1449H181.154V83H171.012Z" fill="#676767"/>
<path opacity="0.1" d="M26.6769 95.5H262.323" stroke="#0080FF"/>
<path d="M284.99 284.051H-0.260193" stroke="#263238" stroke-linecap="round" stroke-linejoin="round"/>
<path d="M284.99 287.929H-0.260193" stroke="#263238" stroke-linecap="round" stroke-linejoin="round"/>
<path d="M231.193 292.354C233.38 292.354 235.153 287.703 235.153 281.965C235.153 276.228 233.38 271.576 231.193 271.576C229.006 271.576 227.233 276.228 227.233 281.965C227.233 287.703 229.006 292.354 231.193 292.354Z" fill="#D28B00" stroke="#263238" stroke-miterlimit="10"/>
<path d="M243.499 275.558C242.262 279.436 239.884 282.18 238.186 281.642C236.488 281.103 236.118 277.505 237.355 273.61C238.591 269.715 240.974 266.987 242.672 267.526C244.369 268.064 244.736 271.662 243.499 275.558Z" fill="#D28B00" stroke="#263238" stroke-miterlimit="10"/>
<path d="M214.435 299.063C210.402 298.378 207.373 296.4 207.671 294.646C207.968 292.892 211.48 292.022 215.508 292.707C219.537 293.392 222.571 295.366 222.273 297.12C221.976 298.873 218.464 299.744 214.435 299.063Z" fill="#D28B00" stroke="#263238" stroke-miterlimit="10"/>
<path d="M247.231 289.454C243.861 292.793 239.905 294.245 238.341 292.69C236.777 291.134 238.281 287.17 241.651 283.831C245.02 280.491 248.997 279.044 250.518 280.603C252.039 282.163 250.596 286.115 247.231 289.454Z" fill="#D28B00" stroke="#263238" stroke-miterlimit="10"/>
<path d="M224.023 280.293C227.28 285.033 228.25 290.001 226.177 291.419C224.105 292.836 219.809 290.161 216.551 285.434C213.294 280.707 212.324 275.73 214.397 274.308C216.469 272.886 220.787 275.571 224.023 280.293Z" fill="#D28B00" stroke="#263238" stroke-miterlimit="10"/>
<path d="M231.469 291.841L231.775 323.447" stroke="#263238" stroke-miterlimit="10" stroke-linecap="round"/>
<path d="M231.098 278.104L231.469 291.841" stroke="#263238" stroke-miterlimit="10" stroke-linecap="round"/>
<path d="M231.128 275.864L231.098 276.915" stroke="#263238" stroke-miterlimit="10" stroke-linecap="round"/>
<path d="M226.177 290.747C228.446 295.439 229.775 300.53 230.09 305.733V325.282" stroke="#263238" stroke-miterlimit="10" stroke-linecap="round"/>
<path d="M219.369 280.336C222.09 283.489 224.379 286.99 226.177 290.747" stroke="#263238" stroke-miterlimit="10" stroke-linecap="round"/>
<path d="M217.232 278.07C217.232 278.07 217.663 278.445 218.314 279.164" stroke="#263238" stroke-miterlimit="10" stroke-linecap="round"/>
<path d="M238.587 292.212C235.808 296.107 233.643 300.406 232.167 304.957" stroke="#263238" stroke-miterlimit="10" stroke-linecap="round"/>
<path d="M243.146 286.976C241.466 288.576 239.94 290.328 238.587 292.212" stroke="#263238" stroke-miterlimit="10" stroke-linecap="round"/>
<path d="M248.011 283.266C246.78 283.966 245.625 284.791 244.563 285.727" stroke="#263238" stroke-miterlimit="10" stroke-linecap="round"/>
<path d="M238.419 280.677C236.226 287.571 233.283 297.787 231.908 306.642" stroke="#263238" stroke-miterlimit="10" stroke-linecap="round"/>
<path d="M239.746 276.579C239.354 277.742 238.884 279.125 238.406 280.677" stroke="#263238" stroke-miterlimit="10" stroke-linecap="round"/>
<path d="M241.129 272.615C241.129 272.615 240.746 273.675 240.125 275.484" stroke="#263238" stroke-miterlimit="10" stroke-linecap="round"/>
<path d="M222.079 296.163C224.82 297.201 228.569 300.101 229.87 303.919" stroke="#263238" stroke-miterlimit="10" stroke-linecap="round"/>
<path d="M217.004 295.133C218.738 295.219 220.449 295.566 222.079 296.163" stroke="#263238" stroke-miterlimit="10" stroke-linecap="round"/>
<path d="M213.725 295.215C213.725 295.215 214.211 295.146 215.017 295.112" stroke="#263238" stroke-miterlimit="10" stroke-linecap="round"/>
<path d="M222.342 314.252C218.637 315.975 215.017 316.079 214.272 314.467C213.526 312.856 215.909 310.158 219.615 308.435C223.32 306.711 226.94 306.612 227.69 308.223C228.439 309.835 226.048 312.524 222.342 314.252Z" fill="#D28B00" stroke="#263238" stroke-miterlimit="10"/>
<path d="M222.226 309.559C223.696 308.65 225.293 307.966 226.966 307.53C227.351 307.294 227.795 307.174 228.246 307.182C228.697 307.191 229.136 307.328 229.512 307.577C230.017 307.909 229.849 310.417 229.849 310.417V323.447" stroke="#263238" stroke-miterlimit="10" stroke-linecap="round"/>
<path d="M219.572 311.494C219.572 311.494 219.934 311.158 220.58 310.675" stroke="#263238" stroke-miterlimit="10" stroke-linecap="round"/>
<path d="M248.937 299.063C252.97 298.378 255.999 296.4 255.702 294.646C255.405 292.892 251.893 292.022 247.864 292.707C243.835 293.392 240.802 295.366 241.099 297.12C241.396 298.873 244.917 299.744 248.937 299.063Z" fill="#D28B00" stroke="#263238" stroke-miterlimit="10"/>
<path d="M241.388 296.116C240.897 296.296 240.418 296.506 239.953 296.745C238.319 297.603 236.953 298.894 236.004 300.478C235.056 302.061 234.561 303.875 234.575 305.72V322.956" stroke="#263238" stroke-miterlimit="10" stroke-linecap="round"/>
<path d="M246.791 295.112C244.949 295.162 243.125 295.501 241.388 296.116" stroke="#263238" stroke-miterlimit="10" stroke-linecap="round"/>
<path d="M249.657 295.215C249.657 295.215 249.338 295.168 248.795 295.133" stroke="#263238" stroke-miterlimit="10" stroke-linecap="round"/>
<path d="M252.919 311.776C253.808 310.233 251.657 307.328 248.115 305.286C244.573 303.245 240.981 302.84 240.092 304.382C239.203 305.924 241.354 308.829 244.896 310.871C248.438 312.913 252.03 313.318 252.919 311.776Z" fill="#D28B00" stroke="#263238" stroke-miterlimit="10"/>
<path d="M245.753 306.457C244.297 305.325 242.673 304.428 240.94 303.798C240.94 303.798 236.544 303.074 235.54 305.914" stroke="#263238" stroke-miterlimit="10" stroke-linecap="round"/>
<path d="M247.89 308.349C247.89 308.349 247.67 308.107 247.265 307.728" stroke="#263238" stroke-miterlimit="10" stroke-linecap="round"/>
<path d="M236.208 306.073C236.208 306.073 231.038 305.069 231.038 308.581C231.038 312.093 234.713 314.928 236.208 318.923C237.704 322.917 240.552 323.098 242.056 319.091C243.559 315.083 241.388 307.75 236.208 306.073Z" fill="#D28B00" stroke="#263238" stroke-miterlimit="10"/>
<path d="M232.701 306.241C232.701 306.241 237.212 308.077 238.548 313.924L232.701 306.241Z" fill="#D28B00"/>
<path d="M232.701 306.241C232.701 306.241 237.212 308.077 238.548 313.924" stroke="#263238" stroke-miterlimit="10"/>
<path d="M233.037 313.924V323.447" stroke="#263238" stroke-miterlimit="10" stroke-linecap="round"/>
<path d="M241.332 341.988C242.569 338.045 243.197 333.936 243.193 329.803C243.199 327.299 242.947 324.801 242.443 322.348H221.33C220.826 324.801 220.574 327.299 220.58 329.803C220.581 333.936 221.213 338.045 222.454 341.988H241.332Z" fill="#263238"/>
<path d="M220.813 325.847C220.752 326.42 220.709 327.002 220.675 327.57H243.137C243.103 326.984 243.06 326.403 242.999 325.847H220.813Z" fill="#7A7A7A"/>
<path d="M242.9 334.736C242.969 334.159 243.029 333.577 243.077 333.013H220.735C220.783 333.594 220.843 334.176 220.912 334.736H242.9Z" fill="#7A7A7A"/>
<path d="M223.333 329.897C223.343 330.079 223.298 330.259 223.204 330.415C223.11 330.57 222.971 330.694 222.806 330.77C222.641 330.846 222.457 330.871 222.278 330.842C222.098 330.812 221.932 330.73 221.8 330.605C221.668 330.48 221.577 330.318 221.538 330.14C221.498 329.963 221.513 329.778 221.581 329.609C221.648 329.44 221.764 329.295 221.914 329.193C222.065 329.091 222.242 329.036 222.424 329.036C222.659 329.031 222.885 329.119 223.056 329.28C223.226 329.441 223.325 329.663 223.333 329.897Z" fill="#8C8C8C"/>
<path d="M227.879 329.897C227.889 330.079 227.844 330.259 227.75 330.415C227.656 330.57 227.517 330.694 227.352 330.77C227.187 330.846 227.003 330.871 226.824 330.842C226.644 330.812 226.478 330.73 226.346 330.605C226.214 330.48 226.123 330.318 226.083 330.14C226.044 329.963 226.059 329.778 226.127 329.609C226.194 329.44 226.31 329.295 226.46 329.193C226.611 329.091 226.788 329.036 226.97 329.036C227.204 329.031 227.431 329.119 227.601 329.28C227.772 329.441 227.871 329.663 227.879 329.897Z" fill="#8C8C8C"/>
<path d="M232.421 329.897C232.43 330.079 232.385 330.259 232.291 330.415C232.197 330.57 232.059 330.694 231.894 330.77C231.729 330.846 231.544 330.871 231.365 330.842C231.186 330.812 231.019 330.73 230.887 330.605C230.756 330.48 230.664 330.318 230.625 330.14C230.586 329.963 230.601 329.778 230.668 329.609C230.735 329.44 230.852 329.295 231.002 329.193C231.152 329.091 231.33 329.036 231.512 329.036C231.746 329.031 231.973 329.119 232.143 329.28C232.313 329.441 232.413 329.663 232.421 329.897Z" fill="#8C8C8C"/>
<path d="M236.971 329.897C236.981 330.079 236.935 330.259 236.841 330.415C236.747 330.57 236.609 330.694 236.444 330.77C236.279 330.846 236.095 330.871 235.915 330.842C235.736 330.812 235.57 330.73 235.438 330.605C235.306 330.48 235.214 330.318 235.175 330.14C235.136 329.963 235.151 329.778 235.218 329.609C235.286 329.44 235.402 329.295 235.552 329.193C235.703 329.091 235.88 329.036 236.062 329.036C236.296 329.031 236.523 329.119 236.693 329.28C236.863 329.441 236.963 329.663 236.971 329.897Z" fill="#8C8C8C"/>
<path d="M241.517 329.897C241.526 330.079 241.481 330.259 241.387 330.415C241.293 330.57 241.155 330.694 240.99 330.77C240.825 330.846 240.641 330.871 240.461 330.842C240.282 330.812 240.116 330.73 239.984 330.605C239.852 330.48 239.76 330.318 239.721 330.14C239.682 329.963 239.697 329.778 239.764 329.609C239.831 329.44 239.948 329.295 240.098 329.193C240.249 329.091 240.426 329.036 240.608 329.036C240.842 329.031 241.069 329.119 241.239 329.28C241.409 329.441 241.509 329.663 241.517 329.897Z" fill="#8C8C8C"/>
<path d="M163.771 178.426V258.572H193.093V178.426H163.771ZM191.615 180.206V192.034H179.421V180.206H191.615ZM177.59 180.206V192.034H165.249V180.206H177.59ZM165.249 193.913H177.59V205.65H165.249V193.913ZM191.615 256.788H165.249V207.667H191.615V256.788ZM179.421 205.65V193.913H191.615V205.65H179.421Z" stroke="#263238" stroke-linecap="round" stroke-linejoin="round"/>
<path d="M192.977 178.426V258.572H222.299V178.426H192.977ZM220.821 180.206V192.034H208.619V180.206H220.821ZM206.796 180.206V192.034H194.455V180.206H206.796ZM194.455 193.913H206.796V205.65H194.455V193.913ZM220.821 256.788H194.455V207.667H220.821V256.788ZM208.619 205.65V193.913H220.821V205.65H208.619Z" stroke="#263238" stroke-linecap="round" stroke-linejoin="round"/>
<path d="M185.053 220.985L177.693 229.121" stroke="#263238" stroke-linecap="round" stroke-linejoin="round"/>
<path d="M186.88 218.969L185.708 220.262" stroke="#263238" stroke-linecap="round" stroke-linejoin="round"/>
<path d="M169.687 235.054L168.179 236.627" stroke="#263238" stroke-linecap="round" stroke-linejoin="round"/>
<path d="M179.464 224.855L170.816 233.878" stroke="#263238" stroke-linecap="round" stroke-linejoin="round"/>
<path d="M214.711 223.472L207.352 231.607" stroke="#263238" stroke-linecap="round" stroke-linejoin="round"/>
<path d="M216.538 221.451L215.366 222.743" stroke="#263238" stroke-linecap="round" stroke-linejoin="round"/>
<path d="M199.35 237.536L197.842 239.109" stroke="#263238" stroke-linecap="round" stroke-linejoin="round"/>
<path d="M209.123 227.337L200.475 236.36" stroke="#263238" stroke-linecap="round" stroke-linejoin="round"/>
<path d="M226.216 178.426V258.572H255.517V178.426H226.216ZM254.06 180.206V192.034H241.857V180.206H254.06ZM240.035 180.206V192.034H227.681V180.206H240.035ZM227.681 193.913H240.022V205.65H227.681V193.913ZM254.047 256.788H227.681V207.667H254.047V256.788ZM241.857 205.65V193.913H254.06V205.65H241.857Z" stroke="#263238" stroke-linecap="round" stroke-linejoin="round"/>
<path d="M255.422 178.426V258.572H284.722V178.426H255.422ZM283.266 180.206V192.034H271.063V180.206H283.266ZM269.241 180.206V192.034H256.9V180.206H269.241ZM256.9 193.913H269.241V205.65H256.9V193.913ZM283.266 256.788H256.9V207.667H283.266V256.788ZM271.063 205.65V193.913H283.266V205.65H271.063Z" stroke="#263238" stroke-linecap="round" stroke-linejoin="round"/>
<path d="M247.498 220.985L240.138 229.121" stroke="#263238" stroke-linecap="round" stroke-linejoin="round"/>
<path d="M249.325 218.969L248.153 220.262" stroke="#263238" stroke-linecap="round" stroke-linejoin="round"/>
<path d="M232.132 235.054L230.624 236.627" stroke="#263238" stroke-linecap="round" stroke-linejoin="round"/>
<path d="M241.909 224.855L233.261 233.878" stroke="#263238" stroke-linecap="round" stroke-linejoin="round"/>
<path d="M277.156 223.472L269.796 231.607" stroke="#263238" stroke-linecap="round" stroke-linejoin="round"/>
<path d="M278.983 221.451L277.811 222.743" stroke="#263238" stroke-linecap="round" stroke-linejoin="round"/>
<path d="M261.795 237.536L260.287 239.109" stroke="#263238" stroke-linecap="round" stroke-linejoin="round"/>
<path d="M271.567 227.337L262.919 236.36" stroke="#263238" stroke-linecap="round" stroke-linejoin="round"/>
<path d="M142.345 219.228C148.117 213.456 148.117 204.099 142.345 198.327C136.574 192.555 127.216 192.555 121.444 198.327C115.672 204.099 115.672 213.456 121.444 219.228C127.216 225 136.574 225 142.345 219.228Z" fill="#263238" stroke="#263238" stroke-linejoin="round"/>
<path d="M142.267 217.437C147.055 211.706 146.291 203.179 140.561 198.391C134.83 193.603 126.303 194.367 121.515 200.098C116.727 205.828 117.491 214.355 123.222 219.143C128.952 223.932 137.479 223.167 142.267 217.437Z" fill="white" stroke="#263238" stroke-linejoin="round"/>
<path d="M133.152 208.774C133.152 208.525 133.078 208.282 132.94 208.075C132.802 207.868 132.605 207.707 132.376 207.612C132.146 207.516 131.893 207.491 131.649 207.54C131.405 207.589 131.18 207.708 131.004 207.884C130.828 208.06 130.709 208.285 130.66 208.529C130.611 208.773 130.636 209.026 130.732 209.256C130.827 209.485 130.988 209.682 131.195 209.82C131.402 209.958 131.645 210.032 131.894 210.032C132.228 210.032 132.548 209.9 132.784 209.664C133.02 209.428 133.152 209.108 133.152 208.774Z" fill="#263238" stroke="#263238" stroke-linejoin="round"/>
<path d="M132.924 209.709L134.893 212.195" stroke="#263238" stroke-linejoin="round"/>
<path d="M132.924 207.848L138.517 199.867" stroke="#263238" stroke-linejoin="round"/>
<path d="M263.54 340.006H-5" stroke="#263238" stroke-linejoin="round"/>
<path d="M277.234 340.006H267.073" stroke="#263238" stroke-linejoin="round"/>
<path d="M111.478 342.087H109.583L109.358 306.672H111.703L111.478 342.087Z" fill="white" stroke="#263238" stroke-linejoin="round"/>
<path d="M109.367 308.172H111.694L111.703 306.672H109.358L109.367 308.172Z" fill="#263238" stroke="#263238" stroke-miterlimit="10"/>
<path d="M114.318 342.087H112.418L112.194 306.672H114.542L114.318 342.087Z" fill="#263238" stroke="#263238" stroke-miterlimit="10"/>
<path d="M147.63 342.087H145.734L145.51 306.672H147.854L147.63 342.087Z" fill="white" stroke="#263238" stroke-linejoin="round"/>
<path d="M145.519 308.172H147.846L147.854 306.672H145.51L145.519 308.172Z" fill="#263238" stroke="#263238" stroke-miterlimit="10"/>
<path d="M144.545 342.087H142.649L142.425 306.672H144.769L144.545 342.087Z" fill="#263238" stroke="#263238" stroke-miterlimit="10"/>
<path d="M148.781 304.203H108.988L114.038 296.434H143.726L148.781 304.203Z" fill="white" stroke="#263238" stroke-linejoin="round"/>
<path d="M148.832 304.203H108.988V306.832H148.832V304.203Z" fill="white" stroke="#263238" stroke-linejoin="round"/>
<path d="M116.735 267.56H140.908C141.623 267.56 142.308 267.844 142.813 268.349C143.318 268.854 143.601 269.539 143.601 270.253V296.434H114.042V270.262C114.041 269.908 114.11 269.557 114.245 269.229C114.38 268.901 114.578 268.603 114.828 268.352C115.078 268.101 115.375 267.902 115.703 267.766C116.03 267.63 116.381 267.56 116.735 267.56Z" fill="white" stroke="#263238" stroke-linejoin="round"/>
<path d="M163.866 342.087H161.97L161.746 306.672H164.09L163.866 342.087Z" fill="white" stroke="#263238" stroke-linejoin="round"/>
<path d="M161.755 308.172H164.082L164.09 306.672H161.746L161.755 308.172Z" fill="#263238" stroke="#263238" stroke-miterlimit="10"/>
<path d="M166.706 342.087H164.806L164.581 306.672H166.925L166.706 342.087Z" fill="#263238" stroke="#263238" stroke-miterlimit="10"/>
<path d="M200.018 342.087H198.122L197.898 306.672H200.242L200.018 342.087Z" fill="white" stroke="#263238" stroke-linejoin="round"/>
<path d="M197.907 308.172H200.233L200.242 306.672H197.898L197.907 308.172Z" fill="#263238" stroke="#263238" stroke-miterlimit="10"/>
<path d="M196.933 342.087H195.037L194.813 306.672H197.157L196.933 342.087Z" fill="#263238" stroke="#263238" stroke-miterlimit="10"/>
<path d="M201.168 304.203H161.376L166.43 296.434H196.114L201.168 304.203Z" fill="white" stroke="#263238" stroke-linejoin="round"/>
<path d="M201.22 304.203H161.376V306.832H201.22V304.203Z" fill="white" stroke="#263238" stroke-linejoin="round"/>
<path d="M169.123 267.56H193.296C194.01 267.56 194.695 267.844 195.2 268.349C195.705 268.854 195.989 269.539 195.989 270.253V296.434H166.43V270.262C166.429 269.908 166.498 269.557 166.632 269.229C166.767 268.901 166.965 268.603 167.216 268.352C167.466 268.101 167.763 267.902 168.09 267.766C168.418 267.63 168.769 267.56 169.123 267.56Z" fill="white" stroke="#263238" stroke-linejoin="round"/>
<path d="M171.385 335.202C170.697 336.274 170.07 337.385 169.507 338.528C169.127 339.467 166.49 341.915 165.865 343.108C165.241 344.302 166.051 345.306 169.002 345.62C171.954 345.935 173.018 343.923 173.708 343.035C174.397 342.148 174.401 340.881 175.216 340.338C176.03 339.795 177.599 338.269 177.724 336.761C177.809 335.895 177.746 335.021 177.538 334.176L171.385 335.202Z" fill="white" stroke="#263238" stroke-miterlimit="10"/>
<path d="M177.724 336.77C177.782 336.099 177.759 335.423 177.655 334.758C177.548 335.236 177.467 335.719 177.413 336.206C177.159 338.403 174.526 339.222 173.966 340.471C173.406 341.721 172.583 344.237 170.261 344.742C168.537 345.112 166.598 344.151 165.693 343.621C165.529 344.582 166.49 345.345 169.007 345.621C171.958 345.931 173.023 343.923 173.712 343.035C174.401 342.148 174.406 340.881 175.22 340.338C176.034 339.795 177.599 338.278 177.724 336.77Z" fill="white" stroke="#263238" stroke-miterlimit="10"/>
<path d="M192.305 335.202C192.995 336.274 193.624 337.385 194.188 338.528C194.563 339.467 197.204 341.915 197.829 343.108C198.454 344.302 197.639 345.306 194.688 345.62C191.736 345.935 190.672 343.923 189.982 343.035C189.293 342.148 189.293 340.881 188.479 340.338C187.664 339.795 186.091 338.269 185.967 336.761C185.884 335.895 185.948 335.021 186.156 334.176L192.305 335.202Z" fill="white" stroke="#263238" stroke-miterlimit="10"/>
<path d="M185.967 336.77C185.91 336.099 185.933 335.424 186.035 334.758C186.146 335.235 186.228 335.719 186.281 336.206C186.531 338.403 189.168 339.222 189.728 340.471C190.288 341.721 191.107 344.237 193.43 344.742C195.153 345.112 197.096 344.151 198.001 343.621C198.161 344.582 197.2 345.345 194.683 345.621C191.736 345.931 190.668 343.923 189.978 343.035C189.289 342.148 189.289 340.881 188.474 340.338C187.66 339.795 186.091 338.278 185.967 336.77Z" fill="white" stroke="#263238" stroke-miterlimit="10"/>
<path d="M201.866 303.76C201.866 301.627 195.985 293.504 195.985 293.504L193.852 288.476L182.993 289.497H180.499L169.64 288.476L167.507 293.504C167.507 293.504 161.625 301.627 161.625 303.76C161.625 305.892 161.88 306.573 161.88 306.573L171.359 332.427L170.592 334.215L170.933 335.581C170.933 335.581 172.126 336.602 174.427 336.602C175.775 336.614 177.08 336.129 178.094 335.24C178.094 335.24 178.348 332.427 178.348 331.401C178.348 330.376 176.474 325.433 176.474 324.412C176.474 323.391 174.681 304.695 174.681 304.695L181.33 299.994H182.162L188.823 304.703C188.823 304.703 187.031 323.378 187.031 324.399C187.031 325.42 185.156 330.367 185.156 331.388C185.156 332.409 185.411 335.227 185.411 335.227C186.424 336.116 187.73 336.601 189.078 336.589C191.378 336.589 192.572 335.568 192.572 335.568L192.917 334.202L192.145 332.414L201.625 306.56C201.625 306.56 201.866 305.888 201.866 303.76Z" fill="#263238" stroke="#263238" stroke-miterlimit="10"/>
<path d="M182.868 298.878C182.868 298.878 186.277 293.763 190.456 292.311" stroke="#7D7D7D" stroke-miterlimit="10"/>
<path d="M186.522 295.637C186.522 295.637 189.676 293.164 192.744 292.823" stroke="#7D7D7D" stroke-miterlimit="10"/>
<path d="M175.78 294.017C175.78 294.017 178.594 296.064 179.869 298.192" stroke="#7D7D7D" stroke-miterlimit="10"/>
<path d="M175.543 256.163L165.142 260.084L167.356 279.095C167.356 279.095 168.123 288.644 168.89 289.006C169.657 289.368 179.632 290.966 181.507 290.88C183.381 290.794 193.356 290.54 194.468 288.747C195.58 286.955 198.643 260.869 198.557 260.188C198.471 259.507 185.514 254.987 185.514 254.987L175.543 256.163Z" fill="#D28B00" stroke="#263238" stroke-linejoin="round"/>
<path d="M177.741 263.239L180.895 266.992L184.389 263.325C184.389 263.325 186.69 257.185 186.604 256.504C186.518 255.823 184.902 254.629 184.902 254.629L179.016 254.457L174.927 256.336L177.741 263.239Z" fill="white" stroke="#263238" stroke-linejoin="round"/>
<path d="M176.888 253.457L174.681 255.909L177.754 263.234L180.735 260.252L184.402 263.32C184.402 263.32 186.191 259.145 186.617 258.033C186.895 257.18 187.04 256.289 187.048 255.392L184.73 253.026L176.888 253.457Z" fill="white" stroke="#263238" stroke-linejoin="round"/>
<path d="M176.035 252.328L176.461 255.142L180.723 260.257L185.497 254.97L185.751 251.816L180.468 254.375L176.035 252.328Z" fill="white" stroke="#263238" stroke-linejoin="round"/>
<path d="M173.561 243.887C173.561 243.887 172.699 244.055 172.794 245.507C172.889 246.959 175.009 248.661 175.009 248.661L174.328 243.461L173.561 243.887Z" fill="white" stroke="#263238" stroke-linejoin="round"/>
<path d="M174.16 242.78C174.16 242.78 174.927 251.303 175.453 252.156C175.978 253.009 179.033 256.336 180.399 256.504C181.123 256.594 185.855 253.35 186.195 251.988C186.535 250.626 186.966 247.981 186.966 247.981C186.966 247.981 187.987 248.063 188.582 245.675C189.177 243.288 188.242 242.862 187.815 242.862H187.134C187.134 242.862 186.966 239.367 186.703 238.686C186.441 238.006 175.108 239.626 174.087 240.475C173.066 241.323 174.16 242.78 174.16 242.78Z" fill="white" stroke="#263238" stroke-linejoin="round"/>
<path d="M183.666 247.808C183.666 248.209 183.493 248.532 183.282 248.532C183.071 248.532 182.899 248.209 182.899 247.808C182.899 247.408 183.071 247.084 183.282 247.084C183.493 247.084 183.666 247.425 183.666 247.808Z" fill="#263238"/>
<path d="M177.866 247.597C177.866 247.994 177.693 248.321 177.482 248.321C177.271 248.321 177.099 247.994 177.099 247.597C177.099 247.201 177.271 246.869 177.482 246.869C177.693 246.869 177.866 247.196 177.866 247.597Z" fill="#263238"/>
<path d="M179.529 250.109C179.529 250.109 179.443 250.876 179.96 251.135C180.134 251.207 180.322 251.236 180.509 251.22C180.697 251.204 180.877 251.143 181.036 251.043C181.195 250.942 181.327 250.805 181.422 250.642C181.517 250.48 181.571 250.297 181.58 250.109" stroke="#263238" stroke-linejoin="round"/>
<path d="M179.783 252.755H180.977" stroke="#263238" stroke-linejoin="round"/>
<path d="M175.694 245.848H178.594" stroke="#263238" stroke-width="2" stroke-linecap="round" stroke-linejoin="round"/>
<path d="M181.576 245.594C181.576 245.594 183.45 244.482 184.476 245.594" stroke="#263238" stroke-width="2" stroke-linecap="round" stroke-linejoin="round"/>
<path d="M176.203 248.407L177.655 248.748" stroke="#263238" stroke-linejoin="round"/>
<path d="M184.644 248.235L183.024 249.002" stroke="#263238" stroke-linejoin="round"/>
<path d="M187.203 235.446C186.63 234.369 181.063 232.038 177.724 233.912C177.724 233.912 173.376 235.446 171.924 238.941C170.791 241.677 171.23 243 173.147 243.323L174.569 247.382L174.397 246.188L174.19 243.405C174.466 243.405 174.759 243.405 175.078 243.375C178.577 243.12 181.645 242.353 183.179 241.651C184.037 241.292 184.818 240.771 185.48 240.117C185.435 240.941 185.435 241.766 185.48 242.59C185.566 243.271 186.505 244.038 186.505 244.038L186.587 246.684L187.1 246.598L187.44 243.616L187.871 242.422C188.186 242.857 188.94 238.708 187.203 235.446Z" fill="#263238" stroke="#263238" stroke-linejoin="round"/>
<path d="M190.87 267.504L194.365 271.852" stroke="#263238" stroke-linejoin="round"/>
<path d="M193.425 266.311L194.791 276.368L181.662 278.328L181.748 283.615L183.877 283.788C184.871 284.514 186.059 284.93 187.289 284.981C189.164 284.981 198.798 283.788 200.5 283.361C202.202 282.935 203.232 282.499 203.4 280.888C203.568 279.276 199.906 262.217 199.652 261.11C199.397 260.003 195.218 258.723 195.218 258.723" fill="#D28B00"/>
<path d="M193.425 266.311L194.791 276.368L181.662 278.328L181.748 283.615L183.877 283.788C184.871 284.514 186.059 284.93 187.289 284.981C189.164 284.981 198.798 283.788 200.5 283.361C202.202 282.935 203.232 282.499 203.4 280.888C203.568 279.276 199.906 262.217 199.652 261.11C199.397 260.003 195.218 258.723 195.218 258.723" stroke="#263238" stroke-linejoin="round"/>
<path d="M198.712 277.307C197.264 276.282 194.791 276.368 194.791 276.368C194.791 276.368 196.92 275.433 198.626 276.027" stroke="#263238" stroke-linejoin="round"/>
<path d="M183.877 278.414L184.049 283.361" stroke="#263238" stroke-linejoin="round"/>
<path d="M181.662 278.328L177.4 278.074L172.2 275.515L171.26 276.027C171.26 276.027 169.3 279.694 169.726 279.948C170.153 280.203 170.747 280.974 171.088 280.974C171.428 280.974 172.2 280.375 172.2 280.375C172.2 280.375 174.242 282.422 175.522 282.422C176.316 282.414 177.1 282.239 177.823 281.909L181.83 282.422L181.662 278.328Z" fill="white" stroke="#263238" stroke-linejoin="round"/>
<path d="M172.2 280.375L171.088 279.44L170.834 279.867" stroke="#263238" stroke-linejoin="round"/>
<path d="M179.529 277.902H178.335V282.249H179.529V277.902Z" fill="#263238" stroke="#263238" stroke-miterlimit="10"/>
<path d="M178.934 278.927C179.594 278.927 180.128 278.622 180.128 278.246C180.128 277.87 179.594 277.566 178.934 277.566C178.275 277.566 177.741 277.87 177.741 278.246C177.741 278.622 178.275 278.927 178.934 278.927Z" fill="white" stroke="#263238" stroke-linejoin="round"/>
<path d="M165.12 260.084C165.12 260.084 160.858 283.956 160.858 285.408C160.858 286.86 167.081 293.099 167.081 293.099L169.894 290.372L168.02 282.185L165.12 260.084Z" fill="#D28B00" stroke="#263238" stroke-linejoin="round"/>
<path d="M163.418 283.103C163.418 283.103 165.887 281.741 167.679 281.995" stroke="#263238" stroke-linejoin="round"/>
<path d="M162.224 282.935C162.224 282.935 164.353 281.211 165.973 281.211" stroke="#263238" stroke-linejoin="round"/>
<path d="M165.805 291.807C165.805 291.807 165.719 289.247 169.554 289.161" stroke="#263238" stroke-linejoin="round"/>
<path d="M169.894 290.35L173.621 291.583C173.957 292.201 174.245 292.843 174.483 293.504C174.789 294.431 175.255 295.353 175.255 295.585C175.255 295.818 175.177 296.124 174.867 296.124C174.557 296.124 173.251 294.969 173.251 294.969L172.484 294.582C172.484 294.582 173.484 295.969 173.712 296.047C174.11 296.253 174.496 296.483 174.867 296.736C174.867 296.736 176.87 295.814 176.87 296.585C176.87 297.356 173.945 299.046 173.945 299.046C173.945 299.046 171.48 298.584 171.019 298.279C170.558 297.973 167.081 293.099 167.081 293.099L169.894 290.35Z" fill="white" stroke="#263238" stroke-linejoin="round"/>
<path d="M95.208 181.499H25.1193V339.851H95.208V181.499Z" fill="white" stroke="#263238" stroke-linejoin="round"/>
<path d="M58.8624 186.26H28.1442V219.861H58.8624V186.26Z" fill="white" stroke="#263238" stroke-linejoin="round"/>
<path d="M55.2042 190.267H31.8111V215.853H55.2042V190.267Z" fill="white" stroke="#263238" stroke-linejoin="round"/>
<path d="M31.8111 190.267L28.1442 186.26" stroke="#263238" stroke-linejoin="round"/>
<path d="M31.8111 215.853L28.1442 219.861" stroke="#263238" stroke-linejoin="round"/>
<path d="M55.1998 190.267L58.8666 186.26" stroke="#263238" stroke-linejoin="round"/>
<path d="M55.1998 215.853L58.8666 219.861" stroke="#263238" stroke-linejoin="round"/>
<path d="M92.0496 186.26H61.3314V219.861H92.0496V186.26Z" fill="white" stroke="#263238" stroke-linejoin="round"/>
<path d="M88.3871 190.267H64.994V215.853H88.3871V190.267Z" fill="white" stroke="#263238" stroke-linejoin="round"/>
<path d="M64.994 190.267L61.3314 186.26" stroke="#263238" stroke-linejoin="round"/>
<path d="M64.994 215.853L61.3314 219.861" stroke="#263238" stroke-linejoin="round"/>
<path d="M88.3871 190.267L92.0497 186.26" stroke="#263238" stroke-linejoin="round"/>
<path d="M88.3871 215.853L92.0497 219.861" stroke="#263238" stroke-linejoin="round"/>
<path d="M58.8624 223.321H28.1442V256.922H58.8624V223.321Z" fill="white" stroke="#263238" stroke-linejoin="round"/>
<path d="M55.2042 227.328H31.8111V252.914H55.2042V227.328Z" fill="white" stroke="#263238" stroke-linejoin="round"/>
<path d="M31.8111 227.328L28.1442 223.321" stroke="#263238" stroke-linejoin="round"/>
<path d="M31.8111 252.919L28.1442 256.926" stroke="#263238" stroke-linejoin="round"/>
<path d="M55.1998 227.328L58.8666 223.321" stroke="#263238" stroke-linejoin="round"/>
<path d="M55.1998 252.919L58.8666 256.926" stroke="#263238" stroke-linejoin="round"/>
<path d="M92.0496 223.321H61.3314V256.922H92.0496V223.321Z" fill="white" stroke="#263238" stroke-linejoin="round"/>
<path d="M88.3871 227.328H64.994V252.914H88.3871V227.328Z" fill="white" stroke="#263238" stroke-linejoin="round"/>
<path d="M64.994 227.328L61.3314 223.321" stroke="#263238" stroke-linejoin="round"/>
<path d="M64.994 252.919L61.3314 256.926" stroke="#263238" stroke-linejoin="round"/>
<path d="M88.3871 227.328L92.0497 223.321" stroke="#263238" stroke-linejoin="round"/>
<path d="M88.3871 252.919L92.0497 256.926" stroke="#263238" stroke-linejoin="round"/>
<path d="M58.8624 264.281H28.1442V297.882H58.8624V264.281Z" fill="white" stroke="#263238" stroke-linejoin="round"/>
<path d="M55.2042 268.289H31.8111V293.875H55.2042V268.289Z" fill="white" stroke="#263238" stroke-linejoin="round"/>
<path d="M31.8111 268.289L28.1442 264.281" stroke="#263238" stroke-linejoin="round"/>
<path d="M31.8111 293.875L28.1442 297.882" stroke="#263238" stroke-linejoin="round"/>
<path d="M55.1998 268.289L58.8666 264.281" stroke="#263238" stroke-linejoin="round"/>
<path d="M55.1998 293.875L58.8666 297.882" stroke="#263238" stroke-linejoin="round"/>
<path d="M92.0496 264.281H61.3314V297.882H92.0496V264.281Z" fill="white" stroke="#263238" stroke-linejoin="round"/>
<path d="M88.3871 268.289H64.994V293.875H88.3871V268.289Z" fill="white" stroke="#263238" stroke-linejoin="round"/>
<path d="M64.994 268.289L61.3314 264.281" stroke="#263238" stroke-linejoin="round"/>
<path d="M64.994 293.875L61.3314 297.882" stroke="#263238" stroke-linejoin="round"/>
<path d="M88.3871 268.289L92.0497 264.281" stroke="#263238" stroke-linejoin="round"/>
<path d="M88.3871 293.875L92.0497 297.882" stroke="#263238" stroke-linejoin="round"/>
<path d="M58.8624 301.347H28.1442V334.947H58.8624V301.347Z" fill="white" stroke="#263238" stroke-linejoin="round"/>
<path d="M55.2042 305.354H31.8111V330.94H55.2042V305.354Z" fill="white" stroke="#263238" stroke-linejoin="round"/>
<path d="M31.8111 305.354L28.1442 301.347" stroke="#263238" stroke-linejoin="round"/>
<path d="M31.8111 330.94L28.1442 334.947" stroke="#263238" stroke-linejoin="round"/>
<path d="M55.1998 305.354L58.8666 301.347" stroke="#263238" stroke-linejoin="round"/>
<path d="M55.1998 330.94L58.8666 334.947" stroke="#263238" stroke-linejoin="round"/>
<path d="M92.0496 301.347H61.3314V334.947H92.0496V301.347Z" fill="white" stroke="#263238" stroke-linejoin="round"/>
<path d="M88.3871 305.354H64.994V330.94H88.3871V305.354Z" fill="white" stroke="#263238" stroke-linejoin="round"/>
<path d="M64.994 305.354L61.3314 301.347" stroke="#263238" stroke-linejoin="round"/>
<path d="M64.994 330.94L61.3314 334.947" stroke="#263238" stroke-linejoin="round"/>
<path d="M88.3871 305.354L92.0497 301.347" stroke="#263238" stroke-linejoin="round"/>
<path d="M88.3871 330.94L92.0497 334.947" stroke="#263238" stroke-linejoin="round"/>
<path d="M90.3853 263.656C92.1141 263.375 93.2875 261.746 93.0063 260.017C92.725 258.288 91.0956 257.115 89.3668 257.396C87.6381 257.677 86.4646 259.307 86.7459 261.035C87.0271 262.764 88.6565 263.938 90.3853 263.656Z" fill="white" stroke="#263238" stroke-linejoin="round"/>
<path d="M91.0241 260.528C91.0241 260.3 90.9562 260.076 90.8291 259.886C90.7021 259.696 90.5214 259.548 90.3102 259.461C90.0989 259.374 89.8665 259.351 89.6424 259.396C89.4183 259.441 89.2125 259.551 89.0512 259.713C88.8899 259.875 88.7802 260.081 88.7361 260.306C88.6921 260.53 88.7156 260.762 88.8036 260.973C88.8917 261.184 89.0404 261.364 89.2308 261.49C89.4213 261.617 89.645 261.684 89.8736 261.683C90.1791 261.682 90.4717 261.56 90.6873 261.343C90.903 261.127 91.0241 260.834 91.0241 260.528Z" fill="white" stroke="#263238" stroke-linejoin="round"/>
</g>
<defs>
<clipPath id="clip0_5_9353">
<rect width="289" height="362" fill="white"/>
</clipPath>
</defs>
</svg>
