<svg width="289" height="362" viewBox="0 0 289 362" fill="none" xmlns="http://www.w3.org/2000/svg">
<g clip-path="url(#clip0_6_9382)">
<rect width="289" height="362" fill="#FEE3EC"/>
<path d="M30.9241 35H27.1457L32.0534 20.4545H36.7338L41.6414 35H37.863L34.4468 24.1193H34.3332L30.9241 35ZM30.4198 29.2756H38.3176V31.946H30.4198V29.2756ZM47.2231 20.4545V35H43.7075V20.4545H47.2231ZM54.727 35V20.4545H58.2426V32.1449H64.2938V35H54.727ZM66.6137 35V20.4545H76.7558V23.3097H70.1294V26.2926H76.2373V29.1548H70.1294V32.1449H76.7558V35H66.6137ZM84.8339 35H79.4575V20.4545H84.8268C86.3088 20.4545 87.5848 20.7457 88.6549 21.3281C89.7297 21.9058 90.5583 22.7391 91.1407 23.8281C91.7231 24.9124 92.0143 26.2098 92.0143 27.7202C92.0143 29.2353 91.7231 30.5374 91.1407 31.6264C90.5631 32.7154 89.7368 33.5511 88.662 34.1335C87.5872 34.7112 86.3112 35 84.8339 35ZM82.9731 32.0028H84.699C85.5134 32.0028 86.2023 31.8655 86.7657 31.5909C87.3339 31.3116 87.7624 30.8594 88.0512 30.2344C88.3448 29.6046 88.4916 28.7666 88.4916 27.7202C88.4916 26.6738 88.3448 25.8404 88.0512 25.2202C87.7577 24.5952 87.3244 24.1454 86.7515 23.8707C86.1833 23.5914 85.4826 23.4517 84.6492 23.4517H82.9731V32.0028ZM31.2934 44.4545V59H27.7778V44.4545H31.2934ZM46.3797 44.4545V59H43.3968L37.6084 50.6051H37.5161V59H34.0004V44.4545H37.026L42.7504 52.8352H42.8712V44.4545H46.3797ZM56.9525 48.8153C56.9052 48.2945 56.6945 47.8897 56.3204 47.6009C55.9511 47.3073 55.4232 47.1605 54.7366 47.1605C54.2821 47.1605 53.9033 47.2197 53.6002 47.3381C53.2972 47.4564 53.0699 47.6198 52.9184 47.8281C52.7669 48.0317 52.6888 48.2661 52.684 48.5312C52.6746 48.7491 52.7172 48.9408 52.8119 49.1065C52.9113 49.2723 53.0534 49.419 53.238 49.5469C53.4274 49.67 53.6547 49.7789 53.9198 49.8736C54.185 49.9683 54.4833 50.0511 54.8147 50.1222L56.0647 50.4062C56.7844 50.5625 57.4189 50.7708 57.9681 51.0312C58.5221 51.2917 58.9861 51.6018 59.3602 51.9616C59.739 52.3215 60.0254 52.7358 60.2196 53.2045C60.4137 53.6733 60.5131 54.1989 60.5179 54.7812C60.5131 55.6998 60.2811 56.4882 59.8218 57.1463C59.3625 57.8045 58.702 58.3087 57.8403 58.6591C56.9833 59.0095 55.9487 59.1847 54.7366 59.1847C53.5197 59.1847 52.4591 59.0024 51.5548 58.6378C50.6504 58.2732 49.9473 57.7192 49.4454 56.9759C48.9435 56.2325 48.6855 55.2926 48.6713 54.1562H52.0377C52.0661 54.625 52.1916 55.0156 52.4142 55.3281C52.6367 55.6406 52.9421 55.8774 53.3304 56.0384C53.7233 56.1993 54.1779 56.2798 54.694 56.2798C55.1675 56.2798 55.5699 56.2159 55.9014 56.0881C56.2375 55.9602 56.4956 55.7827 56.6755 55.5554C56.8554 55.3281 56.9478 55.0677 56.9525 54.7741C56.9478 54.4995 56.8625 54.2652 56.6968 54.071C56.5311 53.8722 56.2754 53.7017 55.9298 53.5597C55.5889 53.4129 55.1533 53.2779 54.623 53.1548L53.1031 52.7997C51.8436 52.5109 50.8517 52.0445 50.1272 51.4006C49.4028 50.7519 49.0429 49.8759 49.0477 48.7727C49.0429 47.8731 49.2844 47.0848 49.7721 46.4077C50.2598 45.7306 50.9345 45.2027 51.7963 44.8239C52.658 44.4451 53.6405 44.2557 54.7437 44.2557C55.8706 44.2557 56.8483 44.4474 57.6769 44.831C58.5103 45.2098 59.1566 45.7424 59.6159 46.429C60.0751 47.1155 60.3095 47.911 60.319 48.8153H56.9525ZM71.5931 44.4545H75.1017V53.8366C75.1017 54.9209 74.8436 55.8655 74.3275 56.6705C73.8114 57.4706 73.0917 58.0909 72.1684 58.5312C71.2451 58.9669 70.1727 59.1847 68.9511 59.1847C67.7153 59.1847 66.6357 58.9669 65.7125 58.5312C64.7892 58.0909 64.0718 57.4706 63.5605 56.6705C63.0491 55.8655 62.7934 54.9209 62.7934 53.8366V44.4545H66.309V53.5312C66.309 54.0331 66.4179 54.4806 66.6357 54.8736C66.8583 55.2666 67.1684 55.5743 67.5661 55.7969C67.9639 56.0194 68.4255 56.1307 68.9511 56.1307C69.4767 56.1307 69.9359 56.0194 70.3289 55.7969C70.7267 55.5743 71.0368 55.2666 71.2593 54.8736C71.4819 54.4806 71.5931 54.0331 71.5931 53.5312V44.4545ZM77.8051 59V44.4545H83.8137C84.9027 44.4545 85.8425 44.651 86.6333 45.044C87.4287 45.4323 88.0419 45.991 88.4728 46.7202C88.9036 47.4446 89.1191 48.304 89.1191 49.2983C89.1191 50.3068 88.8989 51.1638 88.4585 51.8693C88.0182 52.5701 87.3932 53.1051 86.5835 53.4744C85.7739 53.839 84.8151 54.0213 83.7071 54.0213H79.9074V51.2514H83.0537C83.584 51.2514 84.0267 51.1828 84.3818 51.0455C84.7417 50.9034 85.0139 50.6903 85.1986 50.4062C85.3833 50.1174 85.4756 49.7481 85.4756 49.2983C85.4756 48.8485 85.3833 48.4768 85.1986 48.1832C85.0139 47.8849 84.7417 47.6624 84.3818 47.5156C84.022 47.3641 83.5793 47.2884 83.0537 47.2884H81.3208V59H77.8051ZM85.9941 52.3523L89.6162 59H85.781L82.2299 52.3523H85.9941ZM91.0715 47.3097V44.4545H103.366V47.3097H98.955V59H95.4891V47.3097H91.0715ZM105.582 59V44.4545H115.725V47.3097H109.098V50.2926H115.206V53.1548H109.098V56.1449H115.725V59H105.582ZM131.629 49.7244H128.078C128.031 49.3598 127.934 49.0308 127.787 48.7372C127.64 48.4437 127.446 48.1927 127.205 47.9844C126.963 47.776 126.677 47.6174 126.345 47.5085C126.019 47.3949 125.656 47.3381 125.259 47.3381C124.553 47.3381 123.945 47.5109 123.433 47.8565C122.927 48.2022 122.536 48.7017 122.261 49.3551C121.992 50.0085 121.857 50.7992 121.857 51.7273C121.857 52.6932 121.994 53.5028 122.269 54.1562C122.548 54.8049 122.939 55.295 123.44 55.6264C123.947 55.9531 124.546 56.1165 125.237 56.1165C125.626 56.1165 125.978 56.0668 126.296 55.9673C126.618 55.8679 126.899 55.7235 127.141 55.5341C127.387 55.34 127.588 55.1056 127.744 54.831C127.905 54.5516 128.017 54.2367 128.078 53.8864L131.629 53.9077C131.568 54.5516 131.381 55.1861 131.068 55.8111C130.761 56.4361 130.337 57.0066 129.797 57.5227C129.257 58.0341 128.599 58.4413 127.823 58.7443C127.051 59.0473 126.165 59.1989 125.166 59.1989C123.85 59.1989 122.671 58.91 121.629 58.3324C120.592 57.75 119.773 56.9025 119.172 55.7898C118.571 54.6771 118.27 53.3229 118.27 51.7273C118.27 50.1269 118.575 48.7704 119.186 47.6577C119.797 46.545 120.623 45.6998 121.665 45.1222C122.707 44.5445 123.874 44.2557 125.166 44.2557C126.047 44.2557 126.861 44.3788 127.609 44.625C128.358 44.8665 129.016 45.2216 129.584 45.6903C130.152 46.1544 130.614 46.7249 130.969 47.402C131.324 48.0791 131.544 48.8532 131.629 49.7244ZM134.141 59V44.4545H137.657V50.2926H143.388V44.4545H146.897V59H143.388V53.1548H137.657V59H134.141Z" fill="#676767"/>
<path opacity="0.1" d="M26.6769 71.5H262.323" stroke="#0080FF"/>
<path d="M280.032 310.156H276.984H139.037H135.99V316.265H139.037V378.359H276.984V316.265H280.032V310.156Z" fill="#FA5087"/>
<path opacity="0.5" d="M280.032 310.156H276.984H139.037H135.99V316.265H139.037V378.359H276.984V316.265H280.032V310.156Z" fill="white"/>
<path d="M142.733 342.582H180.354V322.497H142.733V342.582ZM143.497 323.239H179.59V341.862H143.497V323.239Z" fill="white"/>
<path d="M189.453 342.582H227.081V322.497H189.453V342.582ZM190.231 323.26H226.331V341.862H190.231V323.26Z" fill="white"/>
<path d="M236.179 322.497V342.582H273.8V322.497H236.179ZM273.036 341.862H236.943V323.26H273.036V341.862Z" fill="white"/>
<path d="M142.733 369.584H180.354V349.477H142.733V369.584ZM143.497 350.24H179.59V368.82H143.497V350.24Z" fill="white"/>
<path d="M189.453 369.584H227.081V349.477H189.453V369.584ZM190.231 350.24H226.331V368.82H190.231V350.24Z" fill="white"/>
<path d="M236.179 369.584H273.8V349.477H236.179V369.584ZM236.943 350.24H273.036V368.82H236.943V350.24Z" fill="white"/>
<path d="M161.947 335.097C165.321 335.097 168.056 334.071 168.056 332.806C168.056 331.541 165.321 330.515 161.947 330.515C158.573 330.515 155.838 331.541 155.838 332.806C155.838 334.071 158.573 335.097 161.947 335.097Z" fill="white"/>
<path d="M208.443 335.097C211.817 335.097 214.552 334.071 214.552 332.806C214.552 331.541 211.817 330.515 208.443 330.515C205.069 330.515 202.334 331.541 202.334 332.806C202.334 334.071 205.069 335.097 208.443 335.097Z" fill="white"/>
<path d="M256.287 335.097C259.661 335.097 262.396 334.071 262.396 332.806C262.396 331.541 259.661 330.515 256.287 330.515C252.913 330.515 250.177 331.541 250.177 332.806C250.177 334.071 252.913 335.097 256.287 335.097Z" fill="white"/>
<path d="M161.947 357.495C158.575 357.495 155.838 358.518 155.838 359.786C155.838 361.054 158.575 362.07 161.947 362.07C165.319 362.07 168.056 361.047 168.056 359.786C168.056 358.525 165.319 357.495 161.947 357.495Z" fill="white"/>
<path d="M208.443 357.495C205.072 357.495 202.334 358.518 202.334 359.786C202.334 361.054 205.072 362.07 208.443 362.07C211.815 362.07 214.552 361.047 214.552 359.786C214.552 358.525 211.844 357.495 208.443 357.495Z" fill="white"/>
<path d="M256.287 357.495C252.915 357.495 250.185 358.518 250.185 359.786C250.185 361.054 252.915 362.07 256.287 362.07C259.658 362.07 262.396 361.047 262.396 359.786C262.396 358.525 259.665 357.495 256.287 357.495Z" fill="white"/>
<path d="M119.039 304.818C116.258 308.946 112.382 314.313 110.314 318.621C111.099 315.783 111.87 313.095 112.569 310.696C113.628 308.614 116.467 303.362 119.773 299.89C123.93 295.438 125.71 292.578 123.469 292.333C121.92 292.16 117.382 298.204 114.536 304.205C115.155 302.152 115.645 300.603 115.977 299.674C116.114 299.256 116.243 298.802 116.373 298.319C119.317 294.201 121.997 289.901 124.398 285.445C128.599 277.6 129.953 270.194 127.15 273.378C124.571 276.31 120.083 290.892 116.517 297.75C116.82 296.569 117.108 295.265 117.36 293.975C117.864 292.729 118.527 291.461 118.902 290.308C119.485 288.536 119.997 286.749 120.407 284.927C121.085 282.095 121.428 279.193 121.43 276.282C121.503 272.862 120.571 269.495 118.75 266.599C118.268 265.879 115.314 261.463 114.428 263.717C114.312 264.093 114.29 264.491 114.363 264.877C114.795 268.631 116.157 272.082 117 275.734C118.26 281.202 117.425 290.38 117 294.285C116.841 294.905 116.64 295.668 116.402 296.554C116.985 289.754 114.039 281.692 111.308 280.28C107.93 278.537 111.244 285.381 113.851 291.36C115.087 293.977 115.668 296.855 115.544 299.746C115.011 301.705 114.399 303.917 113.765 306.15C113.635 306.453 113.52 306.763 113.405 307.065C113.698 305.608 113.816 304.12 113.758 302.635C113.513 298.73 109.089 290.913 106.15 292.016C103.211 293.118 108.189 297.239 110.847 302.037C112.242 304.69 112.778 307.711 112.382 310.682C112.382 310.862 112.324 311.035 112.303 311.201C111.993 312.224 111.69 313.203 111.402 314.14C110.682 316.301 110.069 318.376 109.457 320.379C110.209 317.473 110.539 314.474 110.437 311.474C110.069 305.754 106.719 300.351 103.953 299.609C101.186 298.867 106.467 308.204 108.239 313.448C109.203 316.512 109.367 319.77 108.715 322.915C107.858 325.753 107.051 328.556 106.222 331.517C106.454 327.638 106.369 323.747 105.97 319.882C105.43 313.513 101.647 309.45 99.0395 309.616C96.4316 309.781 99.1548 313.398 102.915 321.142C104.901 325.209 105.785 329.725 105.48 334.24C105.142 335.486 104.76 336.769 104.443 338.108C104.039 339.636 103.722 341.3 103.434 343C103.06 341.48 102.498 339.261 101.842 336.812C101.079 334.104 100.525 331.341 100.185 328.548C99.832 325.299 98.9747 321.243 95.7904 319.558C95.574 319.407 95.3272 319.305 95.0674 319.26C94.8075 319.215 94.5409 319.227 94.2863 319.295C94.0316 319.364 93.795 319.488 93.5932 319.657C93.3913 319.827 93.229 320.039 93.1176 320.278C92.8255 320.975 92.76 321.746 92.9303 322.482C93.3531 324.693 94.0805 326.834 95.0916 328.844C94.466 330.043 94.1819 331.391 94.2703 332.741C94.2703 333.246 94.3135 333.75 94.3496 334.254C94.0686 333.736 93.802 333.26 93.5499 332.813C93.0921 332.049 92.5295 331.353 91.8785 330.746C92.0417 329.552 92.1236 328.348 92.1235 327.144C92.1235 325.566 90.272 321.539 88.6006 324.521C87.9306 325.717 88.0603 328.059 87.9954 329.615C87.5416 330.047 87.4047 330.926 87.7865 332.309C87.5271 335.911 87.4767 339.6 88.3484 343.115L87.7721 342.114C86.9601 337.946 86.4783 333.721 86.3312 329.478C86.1223 322.468 87.239 316.719 85.3298 314.558C83.4207 312.397 82.3545 319.997 83.1686 328.282C83.5521 332.062 84.56 335.753 86.1511 339.204C84.278 335.839 82.4265 332.41 80.6759 329.118C79.9555 327.353 78.1688 322.576 78.6083 317.735C79.163 311.633 79.5665 306.633 77.2467 303.197C74.9269 299.76 74.4442 301.994 75.5825 309.155C76.3606 314.068 77.1891 320.638 78.6155 325.198C77.2611 322.583 75.9859 320.098 74.8477 317.85C74.1993 315.602 72.6864 309.832 72.6864 305.041C72.6864 298.946 72.038 295.675 70.237 296.994C68.9834 297.923 69.7903 305.444 71.8075 311.77C70.8637 309.846 70.1505 308.369 69.7399 307.498C69.5526 307.101 69.3436 306.676 69.1059 306.237C68.4467 301.219 67.4722 296.248 66.1882 291.353C63.9044 282.751 59.834 276.411 59.9637 280.655C60.079 284.559 66.7501 298.276 68.8321 305.725C68.2414 304.652 67.557 303.506 66.8654 302.39C66.3827 301.129 66.0009 299.753 65.4894 298.658C64.7041 296.965 63.8612 295.308 62.9174 293.694C61.4762 291.157 59.7426 288.797 57.752 286.663C55.4461 284.037 52.4079 282.161 49.0277 281.274C48.1776 281.072 43.0193 279.833 43.8982 282.139C44.0626 282.49 44.3098 282.797 44.6187 283.032C47.5004 285.481 50.8431 287.074 53.9842 289.17C58.6381 292.311 64.2935 299.587 66.6276 302.75L67.7371 304.818C63.5226 299.443 55.8645 295.567 52.9107 296.403C49.251 297.433 56.34 300.171 62.3267 302.757C65.0167 303.826 67.4055 305.535 69.286 307.735C70.237 309.536 71.296 311.561 72.355 313.628C72.4775 313.938 72.5928 314.241 72.7152 314.543C71.9367 313.278 71.0105 312.11 69.956 311.064C67.1103 308.384 58.5373 305.682 57.1468 308.492C55.7564 311.301 62.1898 310.927 67.4201 312.613C70.2371 313.601 72.6801 315.435 74.4154 317.865C74.5163 318.009 74.6099 318.16 74.7108 318.297C75.1863 319.248 75.6329 320.177 76.058 321.056C77.0378 323.124 77.9743 325.062 78.8893 326.942C77.4612 324.295 75.6583 321.869 73.5365 319.738C69.358 315.804 63.22 314.147 60.6769 315.516C58.1338 316.885 68.3783 320.076 73.2555 322.72C76.0511 324.303 78.3949 326.574 80.0635 329.319C81.3747 331.978 82.6931 334.578 84.1123 337.309C81.6343 334.317 78.9192 331.529 75.9931 328.973C71.2455 324.687 65.7055 324.298 63.9116 326.2C62.1178 328.102 66.5772 328.887 74.6027 331.963C78.8261 333.58 82.552 336.275 85.4091 339.78C86.0143 340.925 86.6338 342.1 87.2966 343.324C88.017 344.708 88.932 346.148 89.8973 347.582C88.5862 346.732 86.6554 345.493 84.5086 344.153C82.0994 342.695 79.8086 341.05 77.6573 339.232C75.1791 337.107 71.7859 334.722 68.2918 335.666C68.0317 335.704 67.7831 335.799 67.5636 335.943C67.3441 336.088 67.1591 336.279 67.0216 336.503C66.8842 336.727 66.7976 336.979 66.7681 337.24C66.7387 337.501 66.7669 337.766 66.851 338.015C67.1054 338.727 67.5829 339.339 68.2126 339.758C71.4977 342.301 75.9139 343.526 79.7394 345.032C83.245 346.411 86.8382 347.557 90.4953 348.461C91.403 349.765 92.3468 351.055 93.2977 352.279L91.5831 352.33C89.5515 352.395 80.3877 348.238 75.7338 346.905C71.0799 345.572 66.7285 348.094 71.6058 350.716C76.483 353.338 89.7461 352.755 89.7461 352.755L93.5715 352.639C94.472 353.792 95.351 354.887 96.1867 355.889H78.0103V360.932H81.6125L84.4942 378.863H108.65L111.568 360.932H115.17V355.889H103.132C103.034 353.709 103.092 351.526 103.304 349.354C104.108 348.538 104.999 347.813 105.963 347.193C111.251 343.54 120.213 343.238 122.597 336.199C123.174 334.506 122.518 332.331 120.494 332.424C119.053 332.489 117.49 333.772 116.582 334.816C113.556 338.31 111.28 341.934 107.346 344.585C105.995 345.624 104.696 346.73 103.456 347.899C103.593 346.754 103.766 345.529 103.989 344.218C104.939 342.532 106.023 340.925 107.231 339.412C110.451 335.414 115.35 333.073 118.83 329.262C119.896 328.095 121.301 323.902 118.044 324.939C116.603 325.4 114.889 327.597 113.722 328.599C110.516 331.481 107.238 334.55 105.149 338.339C105.235 337.964 105.329 337.619 105.415 337.215C107.663 333.611 110.195 330.193 112.987 326.992C117.612 321.733 122.352 318.29 122.432 315.408C122.511 312.526 116.546 317.353 111.481 323.952C109.184 326.979 107.402 330.365 106.208 333.973C107.137 330.241 108.124 326.466 109.089 322.85C109.752 321.049 111.719 316.366 115.343 313.117C119.917 309.032 123.62 305.661 124.276 301.59C124.932 297.52 123.094 298.809 119.039 304.818ZM93.4562 351.155C92.7718 350.226 92.0586 349.217 91.295 348.101C90.8401 346.207 90.5366 344.28 90.3872 342.337C90.2949 340.684 90.3722 339.026 90.6178 337.388C91.8473 338.911 93.1529 340.37 94.5297 341.761C94.4968 343.201 94.3206 344.635 94.0038 346.04C93.7339 347.735 93.5512 349.442 93.4562 351.155ZM97.3753 355.903C96.446 354.916 95.4302 353.742 94.328 352.301C94.3556 351.158 94.5127 350.022 94.7962 348.915C95.2361 347.169 95.8692 345.478 96.6837 343.872C98.3911 345.493 99.6447 346.566 99.6447 346.566L102.526 349.095C102.303 351.609 102.173 353.972 102.094 355.889L97.3753 355.903ZM102.562 348.655L101.273 347.524C100.552 346.876 99.2557 344.369 97.8436 341.48C98.4459 340.264 98.9799 339.016 99.443 337.741C100.97 340.572 102.325 342.784 103.124 343.958C102.894 345.522 102.714 347.114 102.562 348.655Z" fill="#FA5087"/>
<path opacity="0.5" d="M119.039 304.818C116.258 308.946 112.382 314.313 110.314 318.621C111.099 315.783 111.87 313.095 112.569 310.696C113.628 308.614 116.467 303.362 119.773 299.89C123.93 295.438 125.71 292.578 123.469 292.333C121.92 292.16 117.382 298.204 114.536 304.205C115.155 302.152 115.645 300.603 115.977 299.674C116.114 299.256 116.243 298.802 116.373 298.319C119.317 294.201 121.997 289.901 124.398 285.445C128.599 277.6 129.953 270.194 127.15 273.378C124.571 276.31 120.083 290.892 116.517 297.75C116.82 296.569 117.108 295.265 117.36 293.975C117.864 292.729 118.527 291.461 118.902 290.308C119.485 288.536 119.997 286.749 120.407 284.927C121.085 282.095 121.428 279.193 121.43 276.282C121.503 272.862 120.571 269.495 118.75 266.599C118.268 265.879 115.314 261.463 114.428 263.717C114.312 264.093 114.29 264.491 114.363 264.877C114.795 268.631 116.157 272.082 117 275.734C118.26 281.202 117.425 290.38 117 294.285C116.841 294.905 116.64 295.668 116.402 296.554C116.985 289.754 114.039 281.692 111.308 280.28C107.93 278.537 111.244 285.381 113.851 291.36C115.087 293.977 115.668 296.855 115.544 299.746C115.011 301.705 114.399 303.917 113.765 306.15C113.635 306.453 113.52 306.763 113.405 307.065C113.698 305.608 113.816 304.12 113.758 302.635C113.513 298.73 109.089 290.913 106.15 292.016C103.211 293.118 108.189 297.239 110.847 302.037C112.242 304.69 112.778 307.711 112.382 310.682C112.382 310.862 112.324 311.035 112.303 311.201C111.993 312.224 111.69 313.203 111.402 314.14C110.682 316.301 110.069 318.376 109.457 320.379C110.209 317.473 110.539 314.474 110.437 311.474C110.069 305.754 106.719 300.351 103.953 299.609C101.186 298.867 106.467 308.204 108.239 313.448C109.203 316.512 109.367 319.77 108.715 322.915C107.858 325.753 107.051 328.556 106.222 331.517C106.454 327.638 106.369 323.747 105.97 319.882C105.43 313.513 101.647 309.45 99.0395 309.616C96.4316 309.781 99.1548 313.398 102.915 321.142C104.901 325.209 105.785 329.725 105.48 334.24C105.142 335.486 104.76 336.769 104.443 338.108C104.039 339.636 103.722 341.3 103.434 343C103.06 341.48 102.498 339.261 101.842 336.812C101.079 334.104 100.525 331.341 100.185 328.548C99.832 325.299 98.9747 321.243 95.7904 319.558C95.574 319.407 95.3272 319.305 95.0674 319.26C94.8075 319.215 94.5409 319.227 94.2863 319.295C94.0316 319.364 93.795 319.488 93.5932 319.657C93.3913 319.827 93.229 320.039 93.1176 320.278C92.8255 320.975 92.76 321.746 92.9303 322.482C93.3531 324.693 94.0805 326.834 95.0916 328.844C94.466 330.043 94.1819 331.391 94.2703 332.741C94.2703 333.246 94.3135 333.75 94.3496 334.254C94.0686 333.736 93.802 333.26 93.5499 332.813C93.0921 332.049 92.5295 331.353 91.8785 330.746C92.0417 329.552 92.1236 328.348 92.1235 327.144C92.1235 325.566 90.272 321.539 88.6006 324.521C87.9306 325.717 88.0603 328.059 87.9954 329.615C87.5416 330.047 87.4047 330.926 87.7865 332.309C87.5271 335.911 87.4767 339.6 88.3484 343.115L87.7721 342.114C86.9601 337.946 86.4783 333.721 86.3312 329.478C86.1223 322.468 87.239 316.719 85.3298 314.558C83.4207 312.397 82.3545 319.997 83.1686 328.282C83.5521 332.062 84.56 335.753 86.1511 339.204C84.278 335.839 82.4265 332.41 80.6759 329.118C79.9555 327.353 78.1688 322.576 78.6083 317.735C79.163 311.633 79.5665 306.633 77.2467 303.197C74.9269 299.76 74.4442 301.994 75.5825 309.155C76.3606 314.068 77.1891 320.638 78.6155 325.198C77.2611 322.583 75.9859 320.098 74.8477 317.85C74.1993 315.602 72.6864 309.832 72.6864 305.041C72.6864 298.946 72.038 295.675 70.237 296.994C68.9834 297.923 69.7903 305.444 71.8075 311.77C70.8637 309.846 70.1505 308.369 69.7399 307.498C69.5526 307.101 69.3436 306.676 69.1059 306.237C68.4467 301.219 67.4722 296.248 66.1882 291.353C63.9044 282.751 59.834 276.411 59.9637 280.655C60.079 284.559 66.7501 298.276 68.8321 305.725C68.2414 304.652 67.557 303.506 66.8654 302.39C66.3827 301.129 66.0009 299.753 65.4894 298.658C64.7041 296.965 63.8612 295.308 62.9174 293.694C61.4762 291.157 59.7426 288.797 57.752 286.663C55.4461 284.037 52.4079 282.161 49.0277 281.274C48.1776 281.072 43.0193 279.833 43.8982 282.139C44.0626 282.49 44.3098 282.797 44.6187 283.032C47.5004 285.481 50.8431 287.074 53.9842 289.17C58.6381 292.311 64.2935 299.587 66.6276 302.75L67.7371 304.818C63.5226 299.443 55.8645 295.567 52.9107 296.403C49.251 297.433 56.34 300.171 62.3267 302.757C65.0167 303.826 67.4055 305.535 69.286 307.735C70.237 309.536 71.296 311.561 72.355 313.628C72.4775 313.938 72.5928 314.241 72.7152 314.543C71.9367 313.278 71.0105 312.11 69.956 311.064C67.1103 308.384 58.5373 305.682 57.1468 308.492C55.7564 311.301 62.1898 310.927 67.4201 312.613C70.2371 313.601 72.6801 315.435 74.4154 317.865C74.5163 318.009 74.6099 318.16 74.7108 318.297C75.1863 319.248 75.6329 320.177 76.058 321.056C77.0378 323.124 77.9743 325.062 78.8893 326.942C77.4612 324.295 75.6583 321.869 73.5365 319.738C69.358 315.804 63.22 314.147 60.6769 315.516C58.1338 316.885 68.3783 320.076 73.2555 322.72C76.0511 324.303 78.3949 326.574 80.0635 329.319C81.3747 331.978 82.6931 334.578 84.1123 337.309C81.6343 334.317 78.9192 331.529 75.9931 328.973C71.2455 324.687 65.7055 324.298 63.9116 326.2C62.1178 328.102 66.5772 328.887 74.6027 331.963C78.8261 333.58 82.552 336.275 85.4091 339.78C86.0143 340.925 86.6338 342.1 87.2966 343.324C88.017 344.708 88.932 346.148 89.8973 347.582C88.5862 346.732 86.6554 345.493 84.5086 344.153C82.0994 342.695 79.8086 341.05 77.6573 339.232C75.1791 337.107 71.7859 334.722 68.2918 335.666C68.0317 335.704 67.7831 335.799 67.5636 335.943C67.3441 336.088 67.1591 336.279 67.0216 336.503C66.8842 336.727 66.7976 336.979 66.7681 337.24C66.7387 337.501 66.7669 337.766 66.851 338.015C67.1054 338.727 67.5829 339.339 68.2126 339.758C71.4977 342.301 75.9139 343.526 79.7394 345.032C83.245 346.411 86.8382 347.557 90.4953 348.461C91.403 349.765 92.3468 351.055 93.2977 352.279L91.5831 352.33C89.5515 352.395 80.3877 348.238 75.7338 346.905C71.0799 345.572 66.7285 348.094 71.6058 350.716C76.483 353.338 89.7461 352.755 89.7461 352.755L93.5715 352.639C94.472 353.792 95.351 354.887 96.1867 355.889H78.0103V360.932H81.6125L84.4942 378.863H108.65L111.568 360.932H115.17V355.889H103.132C103.034 353.709 103.092 351.526 103.304 349.354C104.108 348.538 104.999 347.813 105.963 347.193C111.251 343.54 120.213 343.238 122.597 336.199C123.174 334.506 122.518 332.331 120.494 332.424C119.053 332.489 117.49 333.772 116.582 334.816C113.556 338.31 111.28 341.934 107.346 344.585C105.995 345.624 104.696 346.73 103.456 347.899C103.593 346.754 103.766 345.529 103.989 344.218C104.939 342.532 106.023 340.925 107.231 339.412C110.451 335.414 115.35 333.073 118.83 329.262C119.896 328.095 121.301 323.902 118.044 324.939C116.603 325.4 114.889 327.597 113.722 328.599C110.516 331.481 107.238 334.55 105.149 338.339C105.235 337.964 105.329 337.619 105.415 337.215C107.663 333.611 110.195 330.193 112.987 326.992C117.612 321.733 122.352 318.29 122.432 315.408C122.511 312.526 116.546 317.353 111.481 323.952C109.184 326.979 107.402 330.365 106.208 333.973C107.137 330.241 108.124 326.466 109.089 322.85C109.752 321.049 111.719 316.366 115.343 313.117C119.917 309.032 123.62 305.661 124.276 301.59C124.932 297.52 123.094 298.809 119.039 304.818ZM93.4562 351.155C92.7718 350.226 92.0586 349.217 91.295 348.101C90.8401 346.207 90.5366 344.28 90.3872 342.337C90.2949 340.684 90.3722 339.026 90.6178 337.388C91.8473 338.911 93.1529 340.37 94.5297 341.761C94.4968 343.201 94.3206 344.635 94.0038 346.04C93.7339 347.735 93.5512 349.442 93.4562 351.155ZM97.3753 355.903C96.446 354.916 95.4302 353.742 94.328 352.301C94.3556 351.158 94.5127 350.022 94.7962 348.915C95.2361 347.169 95.8692 345.478 96.6837 343.872C98.3911 345.493 99.6447 346.566 99.6447 346.566L102.526 349.095C102.303 351.609 102.173 353.972 102.094 355.889L97.3753 355.903ZM102.562 348.655L101.273 347.524C100.552 346.876 99.2557 344.369 97.8436 341.48C98.4459 340.264 98.9799 339.016 99.443 337.741C100.97 340.572 102.325 342.784 103.124 343.958C102.894 345.522 102.714 347.114 102.562 348.655Z" fill="white"/>
<path d="M47.983 169.147V242.198H103.456V169.147H47.983ZM99.6087 237.105H51.8589V174.248H99.6087V237.105Z" fill="#FA5087"/>
<path opacity="0.5" d="M47.983 169.147V242.198H103.456V169.147H47.983ZM99.6087 237.105H51.8589V174.248H99.6087V237.105Z" fill="white"/>
<path d="M242.101 204.787V258.732H283.079V204.787H242.101ZM280.219 254.964H244.983V208.583H280.241L280.219 254.964Z" fill="#FA5087"/>
<path opacity="0.5" d="M242.101 204.787V258.732H283.079V204.787H242.101ZM280.219 254.964H244.983V208.583H280.241L280.219 254.964Z" fill="white"/>
<path d="M7.80496 386.399C9.87258 379.396 31.2908 306.604 31.2188 306.057C31.1467 305.509 32.9694 295.733 37.2343 287.585C41.4992 279.437 47.4211 270.36 48.1631 269.25C49.2924 267.442 50.0469 265.426 50.382 263.321C50.9368 260.36 56.8659 252.205 58.7174 249.986C60.5688 247.767 66.1233 236.096 66.4979 234.245C66.8726 232.393 69.0843 230.909 72.0524 230.355C75.0206 229.8 79.091 229.245 79.091 229.245C79.8442 230.132 80.2981 231.234 80.3877 232.393C80.3877 234.058 73.7166 273.875 73.3492 280.547C72.9818 287.218 73.9039 290.913 70.943 297.772C67.982 304.63 59.2721 308.881 55.0144 311.662C50.7567 314.443 51.0809 315.019 51.0809 315.019C51.0809 315.019 53.4871 381.68 53.4294 386.917" fill="white"/>
<g style="mix-blend-mode:multiply" opacity="0.7">
<path d="M83.0965 272.925C82.3257 269.474 77.3331 271.39 77.3331 271.39C73.9333 275.079 69.7478 277.958 65.0859 279.812C57.2827 282.762 49.742 286.365 42.5438 290.582C43.3651 288.932 44.2584 287.268 45.2238 285.539C50.2019 276.736 59.0055 264.87 63.9548 263.336C67.0094 262.399 70.0568 264.337 71.9588 265.98L72.1749 230.319H72.0524C69.0843 230.873 66.8653 232.357 66.4979 234.209C66.1305 236.06 60.5688 247.724 58.7174 249.95C56.8659 252.176 50.9368 260.324 50.382 263.285C50.0469 265.39 49.2924 267.407 48.1631 269.214C47.4427 270.324 41.492 279.394 37.2343 287.549C32.9766 295.704 31.1467 305.466 31.2188 306.021C31.2692 306.424 23.0275 336.279 17.79 355.067C22.1126 346.566 28.8341 332.813 32.919 322.648C34.5255 322.49 37.6377 318.138 40.2168 314.594C43.2787 310.387 47.8678 309.234 57.0604 302.347C66.253 295.459 76.5767 285.885 78.1112 282.059C79.6457 278.234 83.8602 276.368 83.0965 272.925Z" fill="#FA5087"/>
</g>
<path d="M7.80496 386.399C9.87258 379.396 31.2908 306.604 31.2188 306.057C31.1467 305.509 32.9694 295.733 37.2343 287.585C41.4992 279.437 47.4211 270.36 48.1631 269.25C49.2924 267.442 50.0469 265.426 50.382 263.321C50.9368 260.36 56.8659 252.205 58.7173 249.986C60.5688 247.767 66.1233 236.096 66.4979 234.245C66.8726 232.393 69.0843 230.909 72.0524 230.355C75.0206 229.8 79.0909 229.245 79.0909 229.245C79.8442 230.132 80.2981 231.234 80.3877 232.393C80.3877 234.058 73.7166 273.875 73.3492 280.547C72.9818 287.218 73.9039 290.913 70.943 297.772C67.982 304.63 59.2721 308.881 55.0144 311.662C50.7567 314.443 51.0809 315.019 51.0809 315.019C51.0809 315.019 53.4871 381.68 53.4294 386.917" stroke="#2E353A" stroke-linecap="round" stroke-linejoin="round"/>
<path d="M71.6778 274.617C71.6778 274.617 69.6462 274.43 67.6074 270.727" stroke="#2E353A" stroke-linecap="round" stroke-linejoin="round"/>
<path d="M69.4589 250.728C69.4589 250.728 75.2223 251.838 75.9427 256.65" stroke="#2E353A" stroke-linecap="round" stroke-linejoin="round"/>
<path d="M71.3104 235.722C72.5851 236.692 73.6403 237.921 74.4064 239.327C75.1725 240.734 75.6322 242.287 75.7554 243.884" stroke="#2E353A" stroke-linecap="round" stroke-linejoin="round"/>
<path d="M258.059 274.632L257.605 197.712C257.603 195.47 256.711 193.321 255.125 191.736C253.539 190.152 251.389 189.262 249.147 189.262H80.82C78.5787 189.262 76.4293 190.152 74.8445 191.737C73.2597 193.322 72.3694 195.471 72.3694 197.712L71.9083 274.632C71.9074 275.753 72.1275 276.864 72.5562 277.9C72.9849 278.936 73.6137 279.878 74.4066 280.671C75.1995 281.464 76.141 282.092 77.1772 282.521C78.2134 282.95 79.324 283.17 80.4453 283.169H249.522C250.643 283.17 251.754 282.95 252.79 282.521C253.826 282.092 254.768 281.464 255.56 280.671C256.353 279.878 256.982 278.936 257.411 277.9C257.84 276.864 258.06 275.753 258.059 274.632Z" fill="#2E353A" stroke="#363636" stroke-width="0.868674" stroke-linecap="round" stroke-linejoin="round"/>
<path d="M248.6 278.99L248.232 193.397H81.7349L81.3747 278.99H248.6Z" fill="white" stroke="#363636" stroke-width="0.651505" stroke-linecap="round" stroke-linejoin="round"/>
<path d="M248.232 193.397H81.7349L81.7205 197.669H97.7139L101.806 203.519H248.275L248.232 193.397Z" fill="#FA5087" stroke="#2E353A" stroke-linecap="round" stroke-linejoin="round"/>
<g style="mix-blend-mode:multiply" opacity="0.5">
<path d="M248.232 210.428L131.199 278.99H248.6L248.232 210.428Z" fill="#FA5087"/>
</g>
<path d="M254.178 236.171C254.187 235.458 253.617 234.874 252.905 234.864C252.193 234.855 251.608 235.425 251.599 236.137C251.59 236.849 252.16 237.434 252.872 237.443C253.584 237.453 254.169 236.883 254.178 236.171Z" fill="white"/>
<path d="M94.5585 224.67C98.3662 224.67 101.453 221.584 101.453 217.776C101.453 213.968 98.3662 210.882 94.5585 210.882C90.7508 210.882 87.664 213.968 87.664 217.776C87.664 221.584 90.7508 224.67 94.5585 224.67Z" fill="#FA5087" stroke="#2E353A" stroke-linecap="round" stroke-linejoin="round"/>
<path d="M94.5585 253.019C98.3662 253.019 101.453 249.932 101.453 246.125C101.453 242.317 98.3662 239.23 94.5585 239.23C90.7508 239.23 87.664 242.317 87.664 246.125C87.664 249.932 90.7508 253.019 94.5585 253.019Z" fill="white" stroke="#2E353A" stroke-linecap="round" stroke-linejoin="round"/>
<path d="M141.674 224.67C145.482 224.67 148.569 221.584 148.569 217.776C148.569 213.968 145.482 210.882 141.674 210.882C137.867 210.882 134.78 213.968 134.78 217.776C134.78 221.584 137.867 224.67 141.674 224.67Z" fill="white" stroke="#2E353A" stroke-linecap="round" stroke-linejoin="round"/>
<path d="M141.674 253.019C145.482 253.019 148.569 249.932 148.569 246.125C148.569 242.317 145.482 239.23 141.674 239.23C137.867 239.23 134.78 242.317 134.78 246.125C134.78 249.932 137.867 253.019 141.674 253.019Z" fill="#FA5087" stroke="#2E353A" stroke-linecap="round" stroke-linejoin="round"/>
<path d="M188.797 224.67C192.605 224.67 195.692 221.584 195.692 217.776C195.692 213.968 192.605 210.882 188.797 210.882C184.989 210.882 181.903 213.968 181.903 217.776C181.903 221.584 184.989 224.67 188.797 224.67Z" fill="#FA5087" stroke="#2E353A" stroke-linecap="round" stroke-linejoin="round"/>
<path d="M188.797 253.019C192.605 253.019 195.692 249.932 195.692 246.125C195.692 242.317 192.605 239.23 188.797 239.23C184.989 239.23 181.903 242.317 181.903 246.125C181.903 249.932 184.989 253.019 188.797 253.019Z" fill="#FA5087" stroke="#2E353A" stroke-width="2" stroke-linecap="round" stroke-linejoin="round"/>
<path d="M235.913 224.67C239.721 224.67 242.807 221.584 242.807 217.776C242.807 213.968 239.721 210.882 235.913 210.882C232.105 210.882 229.018 213.968 229.018 217.776C229.018 221.584 232.105 224.67 235.913 224.67Z" fill="#FA5087" stroke="#2E353A" stroke-linecap="round" stroke-linejoin="round"/>
<path d="M235.913 253.019C239.721 253.019 242.807 249.932 242.807 246.125C242.807 242.317 239.721 239.23 235.913 239.23C232.105 239.23 229.018 242.317 229.018 246.125C229.018 249.932 232.105 253.019 235.913 253.019Z" fill="white" stroke="#2E353A" stroke-linecap="round" stroke-linejoin="round"/>
<path d="M106.539 227.113H129.124" stroke="#2E353A" stroke-linecap="round" stroke-linejoin="round"/>
<path d="M106.539 232.321H129.124" stroke="#2E353A" stroke-linecap="round" stroke-linejoin="round"/>
<path d="M106.539 237.537H129.124" stroke="#2E353A" stroke-linecap="round" stroke-linejoin="round"/>
<path d="M153.014 227.113H175.599" stroke="#2E353A" stroke-linecap="round" stroke-linejoin="round"/>
<path d="M153.014 232.321H175.599" stroke="#2E353A" stroke-linecap="round" stroke-linejoin="round"/>
<path d="M153.014 237.537H175.599" stroke="#2E353A" stroke-linecap="round" stroke-linejoin="round"/>
<path d="M202.528 227.113H225.114" stroke="#2E353A" stroke-linecap="round" stroke-linejoin="round"/>
<path d="M202.528 232.321H225.114" stroke="#2E353A" stroke-linecap="round" stroke-linejoin="round"/>
<path d="M202.528 237.537H225.114" stroke="#2E353A" stroke-linecap="round" stroke-linejoin="round"/>
<path d="M106.539 256.607H129.124" stroke="#2E353A" stroke-linecap="round" stroke-linejoin="round"/>
<path d="M106.539 261.823H129.124" stroke="#2E353A" stroke-linecap="round" stroke-linejoin="round"/>
<path d="M106.539 267.031H129.124" stroke="#2E353A" stroke-linecap="round" stroke-linejoin="round"/>
<path d="M153.014 256.607H175.599" stroke="#2E353A" stroke-linecap="round" stroke-linejoin="round"/>
<path d="M153.014 261.823H175.599" stroke="#2E353A" stroke-linecap="round" stroke-linejoin="round"/>
<path d="M153.014 267.031H175.599" stroke="#2E353A" stroke-linecap="round" stroke-linejoin="round"/>
<path d="M202.528 256.607H225.114" stroke="#2E353A" stroke-linecap="round" stroke-linejoin="round"/>
<path d="M202.528 261.823H225.114" stroke="#2E353A" stroke-linecap="round" stroke-linejoin="round"/>
<path d="M202.528 267.031H225.114" stroke="#2E353A" stroke-linecap="round" stroke-linejoin="round"/>
<path d="M175.196 246.478H179.475" stroke="#2E353A" stroke-linecap="round" stroke-linejoin="round"/>
<path d="M189.251 237.926V232.581" stroke="#2E353A" stroke-linecap="round" stroke-linejoin="round"/>
<path d="M179.777 238.539L182.529 240.678" stroke="#2E353A" stroke-linecap="round" stroke-linejoin="round"/>
<path d="M183.142 251.975L179.777 253.812" stroke="#2E353A" stroke-linecap="round" stroke-linejoin="round"/>
<path d="M203.609 246.478H199.33" stroke="#2E353A" stroke-linecap="round" stroke-linejoin="round"/>
<path d="M199.02 238.539L196.275 240.678" stroke="#2E353A" stroke-linecap="round" stroke-linejoin="round"/>
<path d="M185.923 260.641L189.525 273.508" stroke="#2E353A" stroke-linecap="round" stroke-linejoin="round"/>
<path d="M182.313 259.092L184.374 265.785" stroke="#2E353A" stroke-linecap="round" stroke-linejoin="round"/>
<path d="M271.091 381.629C271.091 381.629 253.981 350.075 251.546 344.542C249.111 339.009 247.274 330.292 246.676 327.9C245.811 325.094 245.731 322.104 246.446 319.255C247.346 315.221 246.813 303.708 247.216 301.064C247.62 298.42 245.984 290.15 245.055 285.518C244.126 280.885 242.022 277.593 239.184 277.233C238.358 277.134 237.521 277.241 236.747 277.544C235.972 277.846 235.285 278.336 234.746 278.969C234.746 278.969 233.564 269.106 232.419 267.06C231.273 265.014 227.542 265.31 225.546 265.8C223.55 266.289 222.592 272.672 222.592 272.672C222.592 272.672 220.863 266.542 220.813 263.804C220.762 261.066 217.434 258.711 214.841 259.359C212.247 260.007 210.849 261.196 210.143 266.873C209.437 272.55 210.77 281.332 210.77 281.332L209.423 281.879C209.423 281.879 204.567 264.877 203.026 260.389C201.484 255.901 200 250.764 198.962 247.421C197.925 244.079 196.383 238.776 192.14 239.59C187.897 240.405 188.941 249.676 188.941 249.676C188.941 249.676 195.576 278.09 195.922 280.33C196.268 282.571 197.363 290.352 197.147 292.945C196.931 295.539 196.938 302.311 196.938 302.311L190.62 294.775C189.841 292.736 188.859 290.781 187.688 288.94C185.526 285.453 180.721 282.204 177.602 283.176C174.482 284.149 176.946 287.362 178.236 289.156C179.525 290.95 180.57 295.985 180.57 298.521C180.57 301.057 182.731 302.844 185.339 307.498C187.947 312.152 201.037 328.232 203.018 331.128C204.485 333.074 206.331 334.703 208.443 335.918C208.443 335.918 216.008 342.51 219.538 350.738C223.068 358.965 233.896 382.588 233.896 382.588" fill="white"/>
<g style="mix-blend-mode:multiply" opacity="0.7">
<path d="M245.185 374.123C248.722 370.881 249.601 344.693 249.154 334.946C249.154 334.867 249.154 334.773 249.154 334.686C247.894 331.43 246.914 328.786 246.69 327.9C245.826 325.093 245.746 322.104 246.46 319.255C247.36 315.221 246.827 303.708 247.231 301.064C247.469 299.501 246.986 295.942 246.366 292.34C243.802 292.117 239.104 294.429 239.104 294.429C239.104 294.429 235.401 289.04 232.988 288.853C230.575 288.666 226.389 292.455 226.389 292.455C226.389 292.455 223.99 284.372 219.062 285.201C214.134 286.029 212.751 285.201 210.806 285.287C208.861 285.373 207.283 280.64 205.338 275.994C203.393 271.347 200.605 253.97 198.955 250.368C198.955 250.368 196.369 243.121 193.019 245.534C189.669 247.947 192.817 255.836 194.388 260.569C195.958 265.302 196.801 274.293 198.076 278.58C199.517 283.356 198.797 290.452 200.115 295.654C201.433 300.855 204.819 302.541 202.954 309.342C201.088 316.143 197.01 313.974 192.464 309.976C187.918 305.978 185.671 296.821 183.099 297.729C182.207 297.954 181.346 298.286 180.534 298.716C180.592 301.208 182.695 303.038 185.303 307.591C187.911 312.144 201.037 328.231 203.018 331.128C204.485 333.074 206.331 334.703 208.443 335.918C208.443 335.918 216.008 342.51 219.538 350.738C220.172 352.214 221.18 354.397 222.419 356.991C223.86 358.144 220.806 352.668 221.555 353.576C226.547 359.433 241.655 377.372 245.185 374.123Z" fill="#FA5087"/>
</g>
<path d="M271.091 381.629C271.091 381.629 253.981 350.075 251.546 344.542C249.111 339.009 247.274 330.292 246.676 327.9C245.811 325.094 245.731 322.104 246.446 319.255C247.346 315.221 246.813 303.708 247.216 301.064C247.62 298.42 245.984 290.15 245.055 285.518C244.126 280.885 242.022 277.593 239.184 277.233C238.358 277.134 237.521 277.241 236.747 277.544C235.972 277.846 235.285 278.336 234.746 278.969C234.746 278.969 233.564 269.106 232.419 267.06C231.273 265.014 227.542 265.31 225.546 265.8C223.55 266.289 222.592 272.672 222.592 272.672C222.592 272.672 220.863 266.542 220.813 263.804C220.762 261.066 217.434 258.711 214.841 259.359C212.247 260.007 210.849 261.196 210.143 266.873C209.437 272.55 210.77 281.332 210.77 281.332L209.423 281.879C209.423 281.879 204.567 264.877 203.026 260.389C201.484 255.901 200 250.764 198.962 247.421C197.925 244.079 196.383 238.776 192.14 239.59C187.897 240.405 188.941 249.676 188.941 249.676C188.941 249.676 195.576 278.09 195.922 280.33C196.268 282.571 197.363 290.352 197.147 292.945C196.931 295.539 196.938 302.311 196.938 302.311L190.62 294.775C189.841 292.736 188.859 290.781 187.688 288.94C185.526 285.453 180.721 282.204 177.602 283.176C174.482 284.149 176.946 287.362 178.236 289.156C179.525 290.95 180.57 295.985 180.57 298.521C180.57 301.057 182.731 302.844 185.339 307.498C187.947 312.152 201.037 328.232 203.018 331.128C204.485 333.074 206.331 334.703 208.443 335.918C208.443 335.918 216.008 342.51 219.538 350.738C223.068 358.965 233.896 382.588 233.896 382.588" stroke="#2E353A" stroke-linecap="round" stroke-linejoin="round"/>
<path d="M189.892 241.651C189.892 241.651 190.677 246.521 190.829 247.133C191.167 248.509 196.859 247.854 197.313 246.795C197.716 245.851 197.421 243.805 197.421 243.805" stroke="#2E353A" stroke-linecap="round" stroke-linejoin="round"/>
<path d="M180.145 289.379C180.618 288.898 180.912 288.269 180.976 287.597C181.04 286.926 180.871 286.252 180.498 285.69C179.158 283.695 178.409 283.248 178.409 283.248" stroke="#2E353A" stroke-linecap="round" stroke-linejoin="round"/>
<path d="M196.477 269.87C196.477 269.87 199.02 270.72 201.412 267.586" stroke="#2E353A" stroke-width="0.75" stroke-linecap="round" stroke-linejoin="round"/>
<path d="M196.779 267.658C196.779 267.658 200.173 265.115 202.766 265.324" stroke="#2E353A" stroke-width="0.75" stroke-linecap="round" stroke-linejoin="round"/>
<path d="M193.264 254.366C193.264 254.366 195.807 251.83 197.846 252.378" stroke="#2E353A" stroke-width="0.75" stroke-linecap="round" stroke-linejoin="round"/>
<path d="M195.656 253.768C196.701 253.944 197.772 253.895 198.797 253.624" stroke="#2E353A" stroke-width="0.75" stroke-linecap="round" stroke-linejoin="round"/>
<path d="M222.585 272.694L223.925 280.626" stroke="#2E353A" stroke-linecap="round" stroke-linejoin="round"/>
<path d="M234.739 278.99L236.172 287.319" stroke="#2E353A" stroke-linecap="round" stroke-linejoin="round"/>
<path d="M196.931 302.361C196.931 302.361 196.571 308.593 197.169 311.006" stroke="#2E353A" stroke-linecap="round" stroke-linejoin="round"/>
<path d="M223.932 284.848C223.932 284.848 225.409 288.759 225.049 291.331" stroke="#2E353A" stroke-width="0.75" stroke-linecap="round" stroke-linejoin="round"/>
<path d="M236.014 288.889C236.014 288.889 237.015 290.906 236.417 294.58" stroke="#2E353A" stroke-width="0.75" stroke-linecap="round" stroke-linejoin="round"/>
<path d="M64.8265 277.578C64.8265 277.578 70.9429 276.469 74.2713 272.399C77.5996 268.328 85.5676 263.134 88.1611 262.212C90.7546 261.29 94.8322 261.095 96.3163 262.392C97.8004 263.689 98.5352 266.837 96.3163 270.547C94.0974 274.257 85.0488 277.744 83.1613 279.43C81.2738 281.116 79.6457 282.211 77.3979 287.211C75.2101 292.054 72.0605 296.402 68.1405 299.991C64.6176 303.139 58.141 308.513 54.8054 310.545" fill="white"/>
<g style="mix-blend-mode:multiply" opacity="0.7">
<path d="M83.0965 272.925C82.3257 269.474 77.3331 271.39 77.3331 271.39C73.9333 275.079 69.7478 277.958 65.0859 279.812C57.2827 282.762 49.742 286.365 42.5438 290.582C43.3651 288.932 44.2584 287.268 45.2238 285.539C50.2019 276.736 59.0055 264.87 63.9548 263.336C67.0094 262.399 70.0568 264.337 71.9588 265.98L72.1749 230.319H72.0524C69.0843 230.873 66.8653 232.357 66.4979 234.209C66.1305 236.06 60.5688 247.724 58.7174 249.95C56.8659 252.176 50.9368 260.324 50.382 263.285C50.0469 265.39 49.2924 267.407 48.1631 269.214C47.4427 270.324 41.492 279.394 37.2343 287.549C32.9766 295.704 31.1467 305.466 31.2188 306.021C31.2692 306.424 23.0275 336.279 17.79 355.067C22.1126 346.566 28.8341 332.813 32.919 322.648C34.5255 322.49 37.6377 318.138 40.2168 314.594C43.2787 310.387 47.8678 309.234 57.0604 302.347C66.253 295.459 76.5767 285.885 78.1112 282.059C79.6457 278.234 83.8602 276.368 83.0965 272.925Z" fill="#FA5087"/>
</g>
<path d="M64.8265 277.578C64.8265 277.578 70.9429 276.469 74.2713 272.399C77.5996 268.328 85.5676 263.134 88.1611 262.212C90.7546 261.29 94.8322 261.095 96.3163 262.392C97.8004 263.689 98.5352 266.837 96.3163 270.547C94.0974 274.257 85.0488 277.744 83.1613 279.43C81.2738 281.116 79.6457 282.211 77.3979 287.211C75.2101 292.054 72.0605 296.402 68.1405 299.991C64.6176 303.139 58.141 308.513 54.8054 310.545" stroke="#2E353A" stroke-linecap="round" stroke-linejoin="round"/>
<path d="M96.4964 269.099C95.387 270.763 92.6061 270.951 92.6061 270.951C92.6061 270.951 91.4967 268.544 90.7546 267.06C90.1767 266.062 89.3471 265.232 88.3484 264.654C88.3484 264.654 89.2778 262.248 91.1293 262.248" stroke="#2E353A" stroke-linecap="round" stroke-linejoin="round"/>
<path d="M23.9929 315.149C30.8279 313.668 37.8288 313.099 44.8132 313.456C56.6353 314.025 59.445 320.775 59.445 320.775L58.8831 335.969C58.8831 335.969 52.6946 331.466 39.7486 329.78C26.8026 328.095 20.0522 329.218 20.0522 329.218L23.9929 315.149Z" fill="white" stroke="#2E353A" stroke-linecap="round" stroke-linejoin="round"/>
<path d="M59.5602 386.046L62.6076 337.28C42.9112 325.458 20.0522 329.218 20.0522 329.218L0.600708 386.046H59.5602Z" fill="#2E353A" stroke="#2E353A" stroke-linecap="round" stroke-linejoin="round"/>
<path d="M213.284 348.583C213.284 348.583 215.208 340.904 225.769 334.658C236.331 328.412 252.187 330.818 252.187 330.818L254.586 337.057C254.586 337.057 241.619 336.581 232.015 341.862C222.412 347.143 217.607 353.389 217.607 353.389L213.284 348.583Z" fill="white" stroke="#2E353A" stroke-linecap="round" stroke-linejoin="round"/>
<path d="M284.787 386.045L256.287 335.097C256.287 335.097 245.48 332.259 232.513 337.539C219.545 342.82 214.257 352.906 214.257 352.906L219.711 386.045H284.787Z" fill="#2E353A" stroke="#2E353A" stroke-linecap="round" stroke-linejoin="round"/>
<path d="M220.445 354.448C220.806 355.997 220.373 357.423 219.466 357.632C218.558 357.841 217.535 356.76 217.175 355.211C216.814 353.662 217.247 352.236 218.147 352.027C219.048 351.818 220.078 352.899 220.445 354.448Z" fill="white"/>
</g>
<defs>
<clipPath id="clip0_6_9382">
<rect width="289" height="362" fill="white"/>
</clipPath>
</defs>
</svg>
