<svg width="289" height="362" viewBox="0 0 289 362" fill="none" xmlns="http://www.w3.org/2000/svg">
<rect width="289" height="362" fill="#EBF5FF"/>
<path d="M30.9241 35H27.1457L32.0534 20.4545H36.7338L41.6414 35H37.863L34.4468 24.1193H34.3332L30.9241 35ZM30.4198 29.2756H38.3176V31.946H30.4198V29.2756ZM49.0839 35H43.7075V20.4545H49.0768C50.5588 20.4545 51.8348 20.7457 52.9049 21.3281C53.9797 21.9058 54.8083 22.7391 55.3907 23.8281C55.9731 24.9124 56.2643 26.2098 56.2643 27.7202C56.2643 29.2353 55.9731 30.5374 55.3907 31.6264C54.8131 32.7154 53.9868 33.5511 52.912 34.1335C51.8372 34.7112 50.5612 35 49.0839 35ZM47.2231 32.0028H48.949C49.7634 32.0028 50.4523 31.8655 51.0157 31.5909C51.5839 31.3116 52.0124 30.8594 52.3012 30.2344C52.5948 29.6046 52.7416 28.7666 52.7416 27.7202C52.7416 26.6738 52.5948 25.8404 52.3012 25.2202C52.0077 24.5952 51.5744 24.1454 51.0015 23.8707C50.4333 23.5914 49.7326 23.4517 48.8992 23.4517H47.2231V32.0028ZM61.26 20.4545L64.5129 31.108H64.6336L67.8865 20.4545H71.8211L66.9134 35H62.233L57.3254 20.4545H61.26ZM74.8655 35H71.0871L75.9948 20.4545H80.6752L85.5828 35H81.8044L78.3882 24.1193H78.2746L74.8655 35ZM74.3612 29.2756H82.259V31.946H74.3612V29.2756ZM100.028 20.4545V35H97.0452L91.2568 26.6051H91.1645V35H87.6489V20.4545H90.6745L96.3989 28.8352H96.5196V20.4545H100.028ZM115.942 25.7244H112.391C112.343 25.3598 112.246 25.0308 112.1 24.7372C111.953 24.4437 111.759 24.1927 111.517 23.9844C111.276 23.776 110.989 23.6174 110.658 23.5085C110.331 23.3949 109.969 23.3381 109.571 23.3381C108.866 23.3381 108.257 23.5109 107.746 23.8565C107.239 24.2022 106.849 24.7017 106.574 25.3551C106.304 26.0085 106.169 26.7992 106.169 27.7273C106.169 28.6932 106.306 29.5028 106.581 30.1562C106.86 30.8049 107.251 31.295 107.753 31.6264C108.26 31.9531 108.859 32.1165 109.55 32.1165C109.938 32.1165 110.291 32.0668 110.608 31.9673C110.93 31.8679 111.212 31.7235 111.453 31.5341C111.699 31.34 111.901 31.1056 112.057 30.831C112.218 30.5516 112.329 30.2367 112.391 29.8864L115.942 29.9077C115.88 30.5516 115.693 31.1861 115.381 31.8111C115.073 32.4361 114.649 33.0066 114.109 33.5227C113.57 34.0341 112.912 34.4413 112.135 34.7443C111.363 35.0473 110.478 35.1989 109.479 35.1989C108.162 35.1989 106.984 34.91 105.942 34.3324C104.905 33.75 104.086 32.9025 103.484 31.7898C102.883 30.6771 102.582 29.3229 102.582 27.7273C102.582 26.1269 102.888 24.7704 103.499 23.6577C104.109 22.545 104.936 21.6998 105.977 21.1222C107.019 20.5445 108.186 20.2557 109.479 20.2557C110.359 20.2557 111.174 20.3788 111.922 20.625C112.67 20.8665 113.328 21.2216 113.896 21.6903C114.465 22.1544 114.926 22.7249 115.281 23.402C115.636 24.0791 115.857 24.8532 115.942 25.7244ZM118.454 35V20.4545H128.596V23.3097H121.969V26.2926H128.077V29.1548H121.969V32.1449H128.596V35H118.454ZM136.674 35H131.297V20.4545H136.667C138.149 20.4545 139.425 20.7457 140.495 21.3281C141.57 21.9058 142.398 22.7391 142.981 23.8281C143.563 24.9124 143.854 26.2098 143.854 27.7202C143.854 29.2353 143.563 30.5374 142.981 31.6264C142.403 32.7154 141.577 33.5511 140.502 34.1335C139.427 34.7112 138.151 35 136.674 35ZM134.813 32.0028H136.539C137.353 32.0028 138.042 31.8655 138.606 31.5909C139.174 31.3116 139.602 30.8594 139.891 30.2344C140.185 29.6046 140.331 28.7666 140.331 27.7202C140.331 26.6738 140.185 25.8404 139.891 25.2202C139.598 24.5952 139.164 24.1454 138.591 23.8707C138.023 23.5914 137.322 23.4517 136.489 23.4517H134.813V32.0028ZM27.3019 47.3097V44.4545H39.596V47.3097H35.1855V59H31.7196V47.3097H27.3019ZM41.8129 59V44.4545H51.955V47.3097H45.3286V50.2926H51.4365V53.1548H45.3286V56.1449H51.955V59H41.8129ZM54.6567 59V44.4545H58.1723V56.1449H64.2235V59H54.6567ZM66.5434 59V44.4545H76.6855V47.3097H70.059V50.2926H76.167V53.1548H70.059V56.1449H76.6855V59H66.5434ZM79.3872 44.4545H83.7409L87.434 53.4602H87.6045L91.2977 44.4545H95.6514V59H92.2281V50.0653H92.1073L88.613 58.9077H86.4255L82.9312 50.0156H82.8105V59H79.3872V44.4545ZM98.3442 59V44.4545H108.486V47.3097H101.86V50.2926H107.968V53.1548H101.86V56.1449H108.486V59H98.3442ZM116.564 59H111.188V44.4545H116.557C118.039 44.4545 119.315 44.7457 120.385 45.3281C121.46 45.9058 122.289 46.7391 122.871 47.8281C123.454 48.9124 123.745 50.2098 123.745 51.7202C123.745 53.2353 123.454 54.5374 122.871 55.6264C122.294 56.7154 121.467 57.5511 120.392 58.1335C119.318 58.7112 118.042 59 116.564 59ZM114.704 56.0028H116.429C117.244 56.0028 117.933 55.8655 118.496 55.5909C119.064 55.3116 119.493 54.8594 119.782 54.2344C120.075 53.6046 120.222 52.7666 120.222 51.7202C120.222 50.6738 120.075 49.8404 119.782 49.2202C119.488 48.5952 119.055 48.1454 118.482 47.8707C117.914 47.5914 117.213 47.4517 116.38 47.4517H114.704V56.0028ZM129.813 44.4545V59H126.297V44.4545H129.813ZM145.723 49.7244H142.172C142.125 49.3598 142.028 49.0308 141.881 48.7372C141.734 48.4437 141.54 48.1927 141.298 47.9844C141.057 47.776 140.77 47.6174 140.439 47.5085C140.112 47.3949 139.75 47.3381 139.352 47.3381C138.647 47.3381 138.038 47.5109 137.527 47.8565C137.02 48.2022 136.63 48.7017 136.355 49.3551C136.085 50.0085 135.95 50.7992 135.95 51.7273C135.95 52.6932 136.088 53.5028 136.362 54.1562C136.642 54.8049 137.032 55.295 137.534 55.6264C138.041 55.9531 138.64 56.1165 139.331 56.1165C139.719 56.1165 140.072 56.0668 140.389 55.9673C140.711 55.8679 140.993 55.7235 141.234 55.5341C141.481 55.34 141.682 55.1056 141.838 54.831C141.999 54.5516 142.11 54.2367 142.172 53.8864L145.723 53.9077C145.662 54.5516 145.475 55.1861 145.162 55.8111C144.854 56.4361 144.43 57.0066 143.891 57.5227C143.351 58.0341 142.693 58.4413 141.916 58.7443C141.145 59.0473 140.259 59.1989 139.26 59.1989C137.944 59.1989 136.765 58.91 135.723 58.3324C134.686 57.75 133.867 56.9025 133.266 55.7898C132.664 54.6771 132.364 53.3229 132.364 51.7273C132.364 50.1269 132.669 48.7704 133.28 47.6577C133.891 46.545 134.717 45.6998 135.759 45.1222C136.8 44.5445 137.967 44.2557 139.26 44.2557C140.141 44.2557 140.955 44.3788 141.703 44.625C142.451 44.8665 143.109 45.2216 143.678 45.6903C144.246 46.1544 144.707 46.7249 145.063 47.402C145.418 48.0791 145.638 48.8532 145.723 49.7244ZM151.75 44.4545V59H148.235V44.4545H151.75ZM166.837 44.4545V59H163.854L158.065 50.6051H157.973V59H154.457V44.4545H157.483L163.207 52.8352H163.328V44.4545H166.837ZM169.547 59V44.4545H179.689V47.3097H173.063V50.2926H179.171V53.1548H173.063V56.1449H179.689V59H169.547Z" fill="#676767"/>
<path opacity="0.1" d="M26.6769 71.5H262.323" stroke="#0080FF"/>
<path d="M51.0247 255.779C52.7886 255.651 56.2591 253.724 56.2591 253.72C56.2591 253.716 54.2967 251.824 54.1556 251.718C52.5373 250.514 48.7052 249.138 46.8664 250.448C46.5659 250.674 46.3164 250.961 46.1342 251.289C45.9521 251.618 45.8413 251.982 45.8093 252.356C45.7773 252.731 45.8246 253.108 45.9482 253.463C46.0719 253.818 46.269 254.143 46.5268 254.417C47.5808 255.612 49.5254 255.89 51.0247 255.779Z" fill="#369AFE"/>
<path d="M57.5908 265.304C59.1915 264.735 61.8462 262.178 62.0534 261.975C63.5136 263.494 65.0721 264.916 66.7189 266.23C67.6758 266.998 68.6636 267.747 69.6602 268.479C69.1575 268.215 68.6989 267.977 68.6327 267.95C66.7542 267.218 62.6928 266.901 61.2641 268.651C61.035 268.948 60.8711 269.291 60.7831 269.655C60.695 270.02 60.6848 270.399 60.753 270.768C60.8212 271.137 60.9664 271.488 61.1791 271.797C61.3917 272.106 61.6671 272.367 61.9873 272.563C63.3102 273.445 65.2681 273.198 66.688 272.695C68.108 272.192 70.4319 270.049 71.036 269.476L72.1913 270.314C74.0478 271.637 75.9087 272.96 77.6903 274.304C78.3208 274.781 78.925 275.27 79.5291 275.76C79.0881 275.522 78.6957 275.319 78.6472 275.319C76.7686 274.582 72.7073 274.269 71.2785 276.02C71.0502 276.317 70.8868 276.659 70.7992 277.024C70.7115 277.389 70.7014 277.768 70.7696 278.137C70.8378 278.505 70.9827 278.856 71.195 279.165C71.4072 279.474 71.6821 279.735 72.0017 279.931C73.3246 280.813 75.2825 280.566 76.7025 280.064C78.1224 279.561 80.2302 277.625 80.9446 276.946C81.5443 277.466 82.1529 277.987 82.7085 278.516C83.0833 278.886 83.4714 279.217 83.8242 279.609L84.8957 280.743C85.5528 281.492 86.2186 282.255 86.8536 283C87.2946 283.512 87.6915 284.01 88.1016 284.513C87.4842 284.032 86.2495 283.119 86.1348 283.053C84.393 282.044 80.4243 281.117 78.7486 282.612C78.4781 282.871 78.2651 283.184 78.1232 283.53C77.9813 283.877 77.9138 284.249 77.925 284.623C77.9363 284.997 78.026 285.365 78.1883 285.702C78.3507 286.04 78.5822 286.339 78.8676 286.581C80.0494 287.648 82.0118 287.701 83.4934 287.419C85.125 287.11 88.0222 285.082 88.3838 284.826C89.0585 285.655 89.7067 286.471 90.3108 287.247C91.9248 289.337 93.2697 291.216 94.3148 292.693L95.6378 291.992C94.5353 290.479 93.0978 288.57 91.3515 286.418C90.6724 285.571 89.9272 284.681 89.1467 283.772C89.8841 282.904 90.5702 281.995 91.2016 281.047C92.8111 281.616 96.114 281.532 96.5417 281.519C96.6432 282.582 96.7358 283.618 96.8063 284.606C97.0004 287.163 97.093 289.403 97.1415 291.198L98.5879 290.44C98.4953 288.755 98.3585 286.749 98.1469 284.491C98.0455 283.406 97.9132 282.255 97.7676 281.069C98.1866 280.95 101.591 279.953 102.852 278.864C103.999 277.885 105.185 276.32 105.092 274.728C105.083 274.353 104.994 273.984 104.832 273.645C104.67 273.306 104.439 273.005 104.153 272.762C103.867 272.518 103.534 272.338 103.173 272.232C102.813 272.126 102.435 272.098 102.063 272.148C99.8579 272.51 98.094 276.183 97.7721 278.176C97.7721 278.295 97.7015 279.592 97.6839 280.412C97.6221 279.927 97.5648 279.459 97.4987 278.961C97.3664 277.978 97.2032 276.999 97.0577 275.949C96.9607 275.442 96.8592 274.931 96.7578 274.419C96.6564 273.908 96.5065 273.374 96.383 272.845C96.0699 271.628 95.6951 270.411 95.2894 269.189C96.1713 269.075 99.2008 268.612 100.488 267.813C101.776 267.015 103.178 265.653 103.328 264.065C103.375 263.693 103.344 263.315 103.235 262.955C103.127 262.596 102.944 262.264 102.698 261.98C102.453 261.696 102.151 261.466 101.811 261.307C101.471 261.147 101.102 261.061 100.727 261.053C98.4688 261.053 96.1713 264.44 95.5716 266.345C95.5319 266.464 95.2585 267.893 95.1306 268.682C94.8793 267.95 94.6323 267.218 94.3589 266.477C93.5608 264.365 92.6877 262.253 91.8234 260.141C91.5588 259.497 91.3074 258.848 91.0472 258.2C91.3515 258.161 94.9939 257.693 96.4315 256.798C97.7147 256.004 99.1258 254.637 99.2714 253.05C99.3185 252.678 99.2867 252.3 99.1781 251.941C99.0696 251.582 98.8866 251.249 98.6412 250.966C98.3958 250.682 98.0934 250.453 97.7537 250.294C97.414 250.135 97.0447 250.049 96.6696 250.042C94.4119 250.042 92.1188 253.425 91.5147 255.334C91.4706 255.479 91.0737 257.539 90.9987 258.064C90.4299 256.639 89.8787 255.215 89.3892 253.786C88.7126 251.89 88.1574 249.954 87.7267 247.987C87.8679 247.987 91.669 247.493 93.1463 246.581C94.4251 245.787 95.8362 244.42 95.9817 242.832C96.0295 242.46 95.9983 242.082 95.8903 241.723C95.7823 241.364 95.5999 241.031 95.3549 240.747C95.1099 240.463 94.8078 240.234 94.4683 240.074C94.1288 239.914 93.7595 239.828 93.3844 239.821C91.1222 239.821 88.8292 243.207 88.225 245.112C88.1809 245.267 87.7576 247.48 87.7091 247.886C87.6826 247.771 87.6474 247.652 87.6253 247.538C87.2645 245.526 87.0844 243.487 87.0873 241.443C87.0873 240.314 87.1226 239.239 87.1932 238.185C87.9119 238.185 91.1619 238.061 92.6039 237.386C94.0459 236.712 95.5187 235.534 95.8362 233.969C95.9241 233.604 95.9343 233.225 95.8661 232.856C95.7978 232.488 95.6527 232.137 95.4402 231.828C95.2276 231.519 94.9524 231.258 94.6324 231.063C94.3124 230.867 93.9548 230.741 93.5828 230.692C91.3339 230.463 88.6837 233.559 87.8767 235.406C87.8326 235.503 87.4974 236.575 87.2637 237.36C87.3034 236.888 87.3343 236.399 87.3828 235.944C87.5548 234.247 87.8238 232.699 88.0619 231.332C88.2074 230.556 88.3573 229.859 88.5028 229.206C89.1996 228.823 91.9821 227.249 92.9126 226.018C93.843 224.788 94.6456 223.033 94.209 221.498C94.1194 221.132 93.9533 220.789 93.7216 220.491C93.4899 220.194 93.1978 219.948 92.8646 219.772C92.5314 219.595 92.1646 219.491 91.7883 219.466C91.412 219.442 91.0347 219.497 90.6812 219.629C88.5778 220.458 87.6518 224.426 87.7841 226.437C87.7841 226.614 88.2868 229.312 88.3265 229.295L88.3661 229.268C88.2162 229.894 88.0619 230.591 87.9252 231.305C87.6518 232.668 87.3519 234.211 87.1403 235.914C86.8888 237.746 86.7416 239.59 86.6993 241.439C86.6544 243.505 86.7931 245.571 87.1138 247.613V247.683C86.8183 247.092 85.9276 245.478 85.8482 245.35C84.684 243.701 81.4694 241.196 79.313 241.871C78.9584 241.993 78.6334 242.188 78.359 242.444C78.0846 242.699 77.867 243.01 77.7202 243.355C77.5735 243.7 77.5009 244.072 77.5071 244.447C77.5133 244.822 77.5983 245.191 77.7564 245.531C78.3826 247 80.1465 247.868 81.6061 248.234C83.2553 248.644 86.8977 247.974 87.1667 247.921C87.5443 249.994 88.0599 252.038 88.7101 254.042C89.0849 255.215 89.495 256.379 89.9228 257.543C89.6494 257.04 89.398 256.595 89.3583 256.533C88.1942 254.884 84.9839 252.384 82.8276 253.054C82.4725 253.175 82.147 253.37 81.8723 253.626C81.5975 253.881 81.3796 254.192 81.2328 254.537C81.0859 254.882 81.0134 255.254 81.02 255.63C81.0266 256.005 81.1121 256.374 81.2709 256.714C81.8927 258.183 83.6566 259.051 85.1162 259.417C86.5758 259.783 89.7023 259.276 90.5181 259.131C90.6857 259.572 90.8532 260.013 91.0208 260.454C91.8366 262.588 92.6612 264.709 93.4064 266.821C93.671 267.562 93.9003 268.303 94.134 269.026C93.8915 268.585 93.6931 268.206 93.6446 268.144C92.4848 266.495 89.2701 263.99 87.1138 264.665C86.7584 264.786 86.4324 264.98 86.1572 265.235C85.8821 265.491 85.6639 265.801 85.517 266.147C85.3701 266.492 85.2977 266.865 85.3046 267.24C85.3115 267.615 85.3976 267.985 85.5572 268.325C86.1833 269.789 87.9428 270.662 89.4024 271.024C90.862 271.385 93.6843 270.935 94.6588 270.768C94.8749 271.531 95.0998 272.298 95.2718 273.052C95.3776 273.568 95.5187 274.058 95.5981 274.582C95.6774 275.107 95.7789 275.61 95.8671 276.117C96.0038 277.1 96.1449 278.114 96.2551 279.076C96.3345 279.746 96.3962 280.399 96.4624 281.029C96.211 280.288 95.6819 278.824 95.6245 278.727C94.7764 277.168 93.5419 275.853 92.0394 274.909C91.9551 274.73 91.8532 274.56 91.7352 274.402C91.5198 274.091 91.2412 273.83 90.9178 273.636C90.5944 273.441 90.2334 273.317 89.8586 273.271C89.4838 273.226 89.1036 273.26 88.743 273.372C88.3824 273.484 88.0496 273.671 87.7664 273.921C86.1084 275.451 86.6684 279.486 87.5151 281.316C87.5636 281.426 88.2383 282.537 88.6748 283.23C88.3529 282.859 88.0487 282.498 87.7179 282.123C87.0653 281.378 86.395 280.65 85.6718 279.865L84.5738 278.754C84.2166 278.375 83.7889 278.022 83.3964 277.647C82.466 276.805 81.4782 275.998 80.4684 275.204C81.121 274.631 83.4096 272.558 84.0446 271.187C84.6796 269.815 85.0986 267.902 84.3445 266.495C84.1783 266.158 83.9431 265.861 83.6543 265.621C83.3655 265.381 83.0295 265.205 82.6682 265.103C82.3068 265.002 81.9281 264.977 81.5567 265.032C81.1854 265.086 80.8296 265.218 80.5125 265.419C78.6427 266.68 78.5854 270.755 79.1455 272.691C79.1763 272.814 79.7364 274.159 80.0583 274.895C79.4453 274.424 78.8368 273.952 78.2062 273.493C76.3762 272.17 74.48 270.891 72.597 269.608L70.8772 268.418C71.111 268.215 73.8891 265.816 74.599 264.277C75.2252 262.91 75.6486 260.992 74.8945 259.585C74.7226 259.26 74.4858 258.975 74.1986 258.746C73.9115 258.517 73.5804 258.35 73.2258 258.255C72.8712 258.16 72.5008 258.139 72.1377 258.193C71.7746 258.247 71.4266 258.376 71.1154 258.571C69.2412 259.832 69.1839 263.906 69.744 265.842C69.788 265.988 70.5906 267.924 70.8199 268.404C69.5632 267.522 68.3152 266.64 67.1202 265.728C65.4991 264.493 63.9612 263.152 62.5164 261.715C62.6223 261.622 65.5327 259.131 66.2603 257.556C66.8909 256.185 67.3098 254.267 66.5601 252.86C66.3939 252.524 66.1588 252.226 65.87 251.986C65.5812 251.746 65.2452 251.57 64.8838 251.468C64.5225 251.367 64.1438 251.343 63.7724 251.397C63.401 251.451 63.0452 251.583 62.7281 251.784C60.854 253.05 60.7967 257.12 61.3567 259.06C61.4008 259.21 62.2695 261.291 62.4547 261.657C62.3709 261.574 62.2739 261.499 62.1945 261.411C60.783 259.933 59.5065 258.331 58.3801 256.626C57.7451 255.691 57.1939 254.765 56.6736 253.848C57.2645 253.442 59.9368 251.546 60.7437 250.197C61.5507 248.847 62.1504 247.048 61.5595 245.566C61.4313 245.214 61.2303 244.892 60.9696 244.622C60.7088 244.352 60.3942 244.139 60.0461 243.999C59.6981 243.858 59.3243 243.793 58.9492 243.806C58.574 243.819 58.2059 243.911 57.8686 244.076C55.871 245.125 55.3639 249.169 55.7079 251.131C55.7079 251.242 56.0386 252.318 56.2767 253.103C56.0474 252.684 55.8049 252.26 55.5976 251.855C54.8039 250.342 54.1689 248.909 53.6177 247.635C53.3134 246.907 53.0488 246.241 52.8107 245.619C53.1767 244.914 54.6319 242.065 54.7289 240.526C54.8259 238.987 54.5216 237.082 53.3134 236.041C53.0371 235.786 52.71 235.591 52.3534 235.471C51.9968 235.351 51.6188 235.307 51.2441 235.343C50.8694 235.378 50.5065 235.493 50.1792 235.679C49.8519 235.865 49.5675 236.117 49.3446 236.421C48.0526 238.273 49.4681 242.092 50.6676 243.697C50.7734 243.838 52.674 245.818 52.6916 245.778V245.738C52.9121 246.343 53.1546 246.986 53.4324 247.688C53.9528 248.98 54.5569 250.43 55.3198 251.965C56.1452 253.631 57.0669 255.248 58.0803 256.807C59.1851 258.557 60.4424 260.207 61.8373 261.737L61.8903 261.785C61.317 261.459 59.6854 260.595 59.5443 260.542C57.6658 259.81 53.6044 259.492 52.1757 261.243C51.9409 261.54 51.7721 261.884 51.6804 262.252C51.5887 262.619 51.5762 263.002 51.6437 263.375C51.7113 263.748 51.8573 264.102 52.0722 264.414C52.2871 264.726 52.5659 264.989 52.8901 265.185C54.2218 266.067 56.1709 265.807 57.5908 265.304Z" fill="#369AFE"/>
<path d="M86.9154 237.845C86.9595 237.845 86.3289 235.199 86.2671 235.014C85.5836 233.118 83.1451 229.855 80.8873 229.93C80.5126 229.953 80.1472 230.056 79.8146 230.23C79.4821 230.404 79.1898 230.646 78.957 230.94C78.7241 231.235 78.5557 231.575 78.4629 231.939C78.37 232.302 78.3546 232.682 78.4179 233.052C78.6339 234.63 80.1024 235.936 81.4165 236.672C82.9599 237.558 86.9154 237.845 86.9154 237.845Z" fill="#369AFE"/>
<path d="M222.421 323.164C221.098 323.067 218.532 321.638 218.532 321.634C218.532 321.629 219.991 320.223 220.097 320.143C221.297 319.261 224.15 318.225 225.517 319.2C225.739 319.368 225.924 319.581 226.058 319.825C226.193 320.069 226.275 320.339 226.298 320.617C226.322 320.894 226.287 321.174 226.196 321.437C226.104 321.701 225.959 321.942 225.768 322.145C224.983 323.041 223.541 323.243 222.421 323.164Z" fill="#369AFE"/>
<path d="M217.544 330.246C216.353 329.805 214.382 327.922 214.224 327.772C213.139 328.901 211.981 329.957 210.758 330.934C210.048 331.507 209.311 332.058 208.553 332.605C208.928 332.407 209.267 332.23 209.316 332.213C210.713 331.666 213.725 331.432 214.792 332.733C214.963 332.954 215.085 333.208 215.151 333.48C215.217 333.751 215.225 334.033 215.175 334.307C215.124 334.582 215.017 334.843 214.859 335.073C214.701 335.303 214.497 335.497 214.259 335.644C213.267 336.296 211.82 336.111 210.762 335.741C209.704 335.37 207.979 333.774 207.53 333.346L206.687 333.977C205.307 334.964 203.927 335.943 202.6 336.944C202.132 337.297 201.682 337.663 201.237 338.025C201.568 337.848 201.854 337.703 201.898 337.685C203.296 337.138 206.308 336.905 207.375 338.206C207.546 338.427 207.668 338.681 207.733 338.953C207.799 339.224 207.806 339.506 207.755 339.781C207.705 340.055 207.597 340.316 207.439 340.546C207.28 340.776 207.076 340.97 206.837 341.116C205.85 341.769 204.399 341.583 203.345 341.213C202.291 340.843 200.725 339.401 200.192 338.898C199.751 339.282 199.31 339.67 198.869 340.062C198.591 340.335 198.3 340.582 198.036 340.873L197.242 341.72C196.752 342.271 196.25 342.845 195.787 343.396C195.465 343.779 195.16 344.15 194.856 344.52C195.319 344.163 196.236 343.484 196.32 343.435C197.617 342.686 200.567 341.993 201.815 343.122C202.017 343.315 202.175 343.548 202.281 343.806C202.387 344.064 202.437 344.342 202.428 344.62C202.42 344.899 202.352 345.173 202.23 345.424C202.109 345.675 201.936 345.897 201.722 346.077C200.84 346.871 199.385 346.91 198.283 346.703C197.074 346.469 194.918 344.966 194.649 344.772C194.146 345.389 193.666 345.998 193.22 346.575C192.016 348.127 191.015 349.508 190.239 350.623L189.251 350.103C190.076 348.974 191.143 347.554 192.44 345.958C192.947 345.327 193.498 344.666 194.076 343.991C193.536 343.343 193.036 342.665 192.576 341.958C191.381 342.399 188.925 342.32 188.608 342.307C188.528 343.1 188.458 343.872 188.405 344.6C188.264 346.5 188.193 348.167 188.158 349.503L187.082 348.939C187.152 347.682 187.254 346.192 187.417 344.529C187.492 343.722 187.589 342.867 187.695 341.985C187.386 341.896 184.855 341.156 183.916 340.353C183.065 339.625 182.183 338.466 182.253 337.266C182.26 336.987 182.326 336.713 182.445 336.461C182.565 336.21 182.737 335.986 182.949 335.805C183.161 335.624 183.409 335.49 183.677 335.411C183.945 335.332 184.226 335.311 184.502 335.348C186.16 335.617 187.465 338.347 187.695 339.833C187.695 339.917 187.743 340.882 187.757 341.491C187.805 341.134 187.845 340.785 187.898 340.415C187.995 339.683 188.114 338.955 188.242 338.175C188.312 337.8 188.387 337.421 188.462 337.037C188.537 336.653 188.647 336.261 188.74 335.868C188.974 334.964 189.251 334.056 189.556 333.152C188.912 333.064 186.645 332.711 185.688 332.129C184.731 331.547 183.691 330.519 183.581 329.342C183.545 329.065 183.569 328.784 183.649 328.517C183.729 328.25 183.865 328.003 184.047 327.792C184.229 327.58 184.454 327.41 184.706 327.291C184.959 327.172 185.233 327.108 185.512 327.102C187.192 327.102 188.899 329.62 189.344 331.049C189.375 331.141 189.578 332.204 189.679 332.79C189.864 332.244 190.05 331.701 190.252 331.159C190.848 329.589 191.496 328.019 192.135 326.449C192.334 325.969 192.523 325.488 192.717 325.007C192.488 324.976 189.781 324.628 188.713 323.967C187.761 323.376 186.711 322.357 186.601 321.18C186.567 320.903 186.59 320.622 186.671 320.354C186.752 320.087 186.888 319.84 187.071 319.629C187.253 319.418 187.478 319.247 187.731 319.129C187.983 319.01 188.258 318.945 188.537 318.94C190.213 318.94 191.919 321.457 192.369 322.908C192.4 323.014 192.695 324.544 192.753 324.937C193.172 323.878 193.586 322.816 193.948 321.757C194.446 320.327 194.85 318.866 195.156 317.383C195.05 317.383 192.228 317.017 191.13 316.338C190.177 315.747 189.128 314.733 189.018 313.551C188.983 313.274 189.007 312.993 189.088 312.726C189.169 312.459 189.305 312.211 189.487 312C189.67 311.789 189.895 311.619 190.147 311.5C190.4 311.381 190.675 311.317 190.954 311.311C192.634 311.311 194.34 313.829 194.786 315.279C194.821 315.39 195.134 317.043 195.174 317.339C195.174 317.255 195.218 317.167 195.231 317.079C195.5 315.584 195.634 314.068 195.632 312.55C195.632 311.708 195.606 310.905 195.553 310.125C195.019 310.125 192.585 310.036 191.531 309.534C190.477 309.031 189.366 308.153 189.128 306.994C189.062 306.722 189.055 306.44 189.106 306.166C189.156 305.891 189.264 305.631 189.422 305.401C189.58 305.171 189.785 304.977 190.023 304.831C190.261 304.685 190.527 304.591 190.804 304.555C192.475 304.388 194.446 306.685 195.046 308.061C195.081 308.136 195.328 308.943 195.487 309.512C195.46 309.163 195.434 308.797 195.399 308.462C195.271 307.196 195.077 306.05 194.896 305.031C194.786 304.458 194.675 303.938 194.57 303.453C194.054 303.166 191.985 301.997 191.293 301.08C190.601 300.163 190.005 298.875 190.327 297.72C190.395 297.449 190.518 297.196 190.69 296.976C190.861 296.756 191.077 296.575 191.323 296.444C191.569 296.313 191.84 296.235 192.119 296.216C192.397 296.196 192.676 296.236 192.938 296.331C194.499 296.948 195.191 299.898 195.09 301.393C195.09 301.526 194.715 303.532 194.689 303.519H194.658C194.772 303.982 194.887 304.48 195.002 305.031C195.205 306.046 195.443 307.192 195.584 308.458C195.766 309.819 195.87 311.19 195.892 312.563C195.928 314.102 195.826 315.641 195.588 317.162V317.215C195.809 316.774 196.47 315.571 196.532 315.482C197.414 314.256 199.786 312.396 201.383 312.894C201.646 312.984 201.888 313.129 202.093 313.319C202.297 313.509 202.459 313.739 202.569 313.996C202.678 314.252 202.732 314.529 202.728 314.808C202.723 315.087 202.66 315.362 202.542 315.615C202.075 316.704 200.778 317.352 199.68 317.625C198.454 317.93 195.76 317.431 195.548 317.392C195.265 318.932 194.881 320.453 194.398 321.943C194.12 322.824 193.815 323.68 193.516 324.544C193.718 324.174 193.904 323.839 193.935 323.795C194.816 322.569 197.189 320.708 198.785 321.206C199.049 321.297 199.291 321.442 199.496 321.632C199.7 321.823 199.862 322.054 199.972 322.311C200.081 322.568 200.135 322.845 200.13 323.124C200.126 323.403 200.063 323.678 199.945 323.931C199.478 325.021 198.181 325.669 197.083 325.938C195.985 326.207 193.674 325.836 193.066 325.726L192.695 326.718C192.087 328.306 191.474 329.884 190.932 331.45C190.733 332.001 190.561 332.552 190.389 333.104C190.57 332.773 190.724 332.495 190.755 332.455C191.615 331.229 194.005 329.368 195.606 329.867C195.869 329.957 196.111 330.103 196.315 330.293C196.519 330.483 196.68 330.713 196.789 330.97C196.898 331.227 196.952 331.503 196.947 331.782C196.942 332.06 196.879 332.335 196.761 332.588C196.298 333.681 194.997 334.325 193.899 334.598C192.801 334.872 190.72 334.528 189.992 334.404C189.834 334.973 189.67 335.542 189.551 336.102C189.472 336.486 189.366 336.852 189.309 337.24C189.251 337.628 189.176 338.007 189.11 338.382C189.009 339.114 188.903 339.868 188.824 340.587C188.762 341.085 188.718 341.561 188.669 342.038C188.855 341.486 189.247 340.415 189.287 340.327C189.919 339.168 190.838 338.19 191.955 337.487C192 337.34 192.061 337.198 192.135 337.063C192.295 336.835 192.501 336.643 192.74 336.499C192.979 336.356 193.245 336.264 193.522 336.23C193.799 336.197 194.079 336.222 194.346 336.304C194.612 336.386 194.858 336.523 195.068 336.706C196.303 337.844 195.888 340.843 195.257 342.205C195.222 342.285 194.719 343.109 194.398 343.625C194.631 343.352 194.861 343.083 195.108 342.805C195.593 342.249 196.091 341.707 196.629 341.125L197.445 340.3C197.709 340.018 198.027 339.753 198.327 339.476C199.019 338.849 199.751 338.25 200.505 337.659C200.02 337.218 198.3 335.696 197.859 334.673C197.418 333.65 197.074 332.23 197.634 331.185C197.757 330.935 197.932 330.713 198.147 330.534C198.361 330.356 198.611 330.224 198.88 330.149C199.149 330.074 199.431 330.056 199.707 330.097C199.983 330.138 200.248 330.237 200.483 330.387C201.876 331.322 201.916 334.356 201.502 335.793C201.475 335.882 201.061 336.883 200.823 337.425C201.263 337.077 201.731 336.724 202.198 336.384C203.561 335.401 204.968 334.448 206.37 333.496L207.649 332.614C207.472 332.464 205.409 330.683 204.884 329.527C204.412 328.513 204.099 327.084 204.659 326.039C204.782 325.789 204.957 325.567 205.171 325.388C205.386 325.21 205.636 325.078 205.905 325.003C206.174 324.928 206.455 324.91 206.732 324.951C207.008 324.992 207.272 325.091 207.508 325.241C208.901 326.18 208.941 329.21 208.526 330.647C208.495 330.758 207.896 332.195 207.724 332.552C208.663 331.9 209.589 331.229 210.475 330.559C211.681 329.641 212.826 328.645 213.902 327.578C213.818 327.508 211.657 325.656 211.115 324.491C210.647 323.473 210.334 322.044 210.894 321.003C211.017 320.753 211.192 320.531 211.407 320.352C211.621 320.174 211.871 320.042 212.14 319.967C212.408 319.891 212.69 319.873 212.966 319.913C213.242 319.953 213.507 320.051 213.743 320.201C215.132 321.14 215.176 324.169 214.762 325.607C214.726 325.722 214.082 327.269 213.946 327.538L214.14 327.358C215.187 326.256 216.136 325.066 216.975 323.799C217.443 323.107 217.857 322.414 218.241 321.735C217.8 321.431 215.82 320.02 215.216 319.019C214.612 318.018 214.171 316.677 214.612 315.579C214.707 315.317 214.856 315.077 215.049 314.876C215.243 314.675 215.477 314.517 215.735 314.412C215.994 314.307 216.272 314.258 216.551 314.268C216.83 314.277 217.104 314.346 217.354 314.468C218.841 315.249 219.215 318.256 218.96 319.733C218.96 319.813 218.713 320.615 218.519 321.197C218.691 320.884 218.867 320.571 219.026 320.267C219.617 319.142 220.084 318.062 220.494 317.132C220.724 316.589 220.935 316.095 221.098 315.632C220.825 315.112 219.745 312.986 219.67 311.849C219.595 310.711 219.824 309.287 220.724 308.515C220.928 308.326 221.171 308.182 221.435 308.093C221.699 308.004 221.979 307.971 222.256 307.997C222.534 308.024 222.802 308.108 223.045 308.245C223.288 308.382 223.499 308.569 223.665 308.793C224.626 310.173 223.572 313.013 222.668 314.204C222.589 314.309 221.178 315.782 221.16 315.751V315.72C220.997 316.161 220.816 316.651 220.609 317.171C220.221 318.128 219.771 319.209 219.202 320.351C218.604 321.587 217.936 322.789 217.2 323.949C216.38 325.252 215.444 326.478 214.404 327.613L214.365 327.653C214.806 327.411 216.01 326.771 216.129 326.727C217.522 326.18 220.538 325.947 221.605 327.247C221.776 327.469 221.898 327.723 221.963 327.995C222.029 328.266 222.036 328.548 221.986 328.823C221.935 329.097 221.827 329.358 221.669 329.588C221.511 329.818 221.306 330.012 221.067 330.158C220.049 330.802 218.594 330.616 217.544 330.246Z" fill="#369AFE"/>
<path d="M195.743 309.847C195.712 309.847 196.183 307.862 196.223 307.739C196.735 306.332 198.547 303.902 200.223 303.964C200.501 303.981 200.773 304.057 201.021 304.186C201.268 304.315 201.485 304.495 201.658 304.714C201.832 304.933 201.957 305.186 202.025 305.456C202.094 305.727 202.105 306.009 202.057 306.284C201.898 307.457 200.805 308.427 199.83 308.974C198.684 309.617 195.743 309.847 195.743 309.847Z" fill="#369AFE"/>
<path d="M221.328 248.83C230.034 248.134 236.528 240.511 235.831 231.804C235.135 223.098 227.512 216.604 218.805 217.301C210.099 217.997 203.605 225.62 204.302 234.327C204.998 243.033 212.621 249.527 221.328 248.83Z" stroke="#263238" stroke-width="0.72648" stroke-linecap="round" stroke-linejoin="round"/>
<path d="M219.22 237.404C218.377 237.404 217.568 237.069 216.972 236.473C216.375 235.877 216.04 235.068 216.04 234.225V224.126C216.04 223.709 216.122 223.295 216.281 222.908C216.441 222.522 216.675 222.171 216.97 221.875C217.265 221.58 217.616 221.345 218.002 221.185C218.388 221.025 218.802 220.943 219.22 220.943V220.943C219.638 220.943 220.052 221.025 220.438 221.185C220.825 221.345 221.175 221.579 221.471 221.875C221.767 222.171 222.001 222.522 222.161 222.908C222.321 223.294 222.404 223.708 222.404 224.126V234.211C222.405 234.63 222.324 235.046 222.165 235.433C222.006 235.821 221.771 236.173 221.476 236.47C221.18 236.766 220.828 237.002 220.441 237.162C220.054 237.322 219.639 237.405 219.22 237.404Z" stroke="#263238" stroke-miterlimit="10"/>
<path d="M219.246 239.679C217.755 239.678 216.326 239.086 215.272 238.031C214.218 236.977 213.625 235.548 213.624 234.057V229.321C213.624 229.167 213.685 229.019 213.794 228.909C213.904 228.8 214.052 228.739 214.206 228.739C214.36 228.739 214.508 228.8 214.618 228.909C214.727 229.019 214.788 229.167 214.788 229.321V234.057C214.824 235.216 215.31 236.315 216.143 237.122C216.975 237.928 218.089 238.379 219.248 238.379C220.408 238.379 221.522 237.928 222.354 237.122C223.187 236.315 223.672 235.216 223.709 234.057V229.321C223.709 229.167 223.77 229.019 223.879 228.909C223.989 228.8 224.137 228.739 224.291 228.739C224.445 228.739 224.593 228.8 224.703 228.909C224.812 229.019 224.873 229.167 224.873 229.321V234.057C224.871 235.548 224.277 236.978 223.222 238.032C222.167 239.086 220.737 239.678 219.246 239.679V239.679Z" stroke="#263238" stroke-miterlimit="10"/>
<path d="M219.246 245.734C219.092 245.734 218.944 245.673 218.835 245.564C218.726 245.454 218.664 245.306 218.664 245.152V239.097C218.664 238.943 218.726 238.795 218.835 238.686C218.944 238.577 219.092 238.515 219.246 238.515C219.401 238.515 219.549 238.577 219.658 238.686C219.767 238.795 219.828 238.943 219.828 239.097V245.152C219.828 245.306 219.767 245.454 219.658 245.564C219.549 245.673 219.401 245.734 219.246 245.734V245.734Z" stroke="#263238" stroke-miterlimit="10"/>
<path d="M223.127 246.043H215.366C215.211 246.043 215.063 245.981 214.954 245.872C214.845 245.763 214.784 245.615 214.784 245.461C214.784 245.306 214.845 245.158 214.954 245.049C215.063 244.94 215.211 244.878 215.366 244.878H223.127C223.203 244.878 223.279 244.894 223.35 244.923C223.42 244.952 223.484 244.995 223.538 245.049C223.592 245.103 223.635 245.167 223.665 245.238C223.694 245.308 223.709 245.384 223.709 245.461C223.709 245.537 223.694 245.613 223.665 245.683C223.635 245.754 223.592 245.818 223.538 245.872C223.484 245.926 223.42 245.969 223.35 245.998C223.279 246.028 223.203 246.043 223.127 246.043V246.043Z" stroke="#263238" stroke-miterlimit="10"/>
<path d="M77.5649 204.522C85.0269 201.408 88.5518 192.835 85.4381 185.373C82.3243 177.911 73.751 174.386 66.289 177.5C58.827 180.614 55.3021 189.187 58.4159 196.649C61.5297 204.111 70.103 207.636 77.5649 204.522Z" stroke="#263238" stroke-width="0.724166" stroke-linecap="round" stroke-linejoin="round"/>
<path d="M80.9578 186.723L76.6804 189.193V187.169C76.6804 186.701 76.4946 186.252 76.1638 185.921C75.833 185.591 75.3844 185.405 74.9166 185.405H65.2769C64.8091 185.405 64.3605 185.591 64.0297 185.921C63.6989 186.252 63.513 186.701 63.513 187.169V194.947C63.513 195.415 63.6989 195.864 64.0297 196.195C64.3605 196.525 64.8091 196.711 65.2769 196.711H74.9342C75.402 196.711 75.8506 196.525 76.1814 196.195C76.5122 195.864 76.6981 195.415 76.6981 194.947V192.923L80.9755 195.393L80.9578 186.723Z" stroke="#263238" stroke-miterlimit="10"/>
<path d="M220.763 285.598C225.325 285.598 229.023 281.9 229.023 277.338C229.023 272.777 225.325 269.079 220.763 269.079C216.202 269.079 212.504 272.777 212.504 277.338C212.504 281.9 216.202 285.598 220.763 285.598Z" stroke="#263238" stroke-width="0.724166" stroke-linecap="round" stroke-linejoin="round"/>
<path d="M225.856 274.917L223.444 276.311V275.169C223.444 275.04 223.419 274.912 223.369 274.792C223.32 274.673 223.248 274.565 223.156 274.473C223.065 274.382 222.957 274.31 222.837 274.26C222.718 274.211 222.59 274.185 222.461 274.185H217.011C216.881 274.185 216.754 274.211 216.634 274.26C216.515 274.31 216.407 274.382 216.315 274.473C216.224 274.565 216.151 274.673 216.102 274.792C216.053 274.912 216.027 275.04 216.027 275.169V279.556C216.027 279.686 216.053 279.813 216.102 279.933C216.151 280.052 216.224 280.16 216.315 280.252C216.407 280.343 216.515 280.416 216.634 280.465C216.754 280.514 216.881 280.54 217.011 280.54H222.461C222.59 280.54 222.718 280.514 222.837 280.465C222.957 280.416 223.065 280.343 223.156 280.252C223.248 280.16 223.32 280.052 223.369 279.933C223.419 279.813 223.444 279.686 223.444 279.556V278.414L225.856 279.808V274.917Z" stroke="#263238" stroke-miterlimit="10"/>
<path d="M70.2396 337.829C75.2884 336.638 78.4152 331.579 77.2236 326.53C76.032 321.481 70.9732 318.355 65.9245 319.546C60.8757 320.738 57.7489 325.797 58.9405 330.845C60.1322 335.894 65.1909 339.021 70.2396 337.829Z" stroke="#263238" stroke-width="0.724166" stroke-linecap="round" stroke-linejoin="round"/>
<path d="M72.844 326.701H63.3367C63.0732 326.7 62.8128 326.758 62.5741 326.869C62.3354 326.981 62.1242 327.144 61.9558 327.346C61.7873 327.549 61.6656 327.786 61.5994 328.041C61.5332 328.296 61.5241 328.563 61.5728 328.822L61.8462 330.308C61.865 330.411 61.9196 330.503 62.0003 330.57C62.0811 330.636 62.1827 330.671 62.2871 330.669H65.1358C65.2528 330.669 65.3649 330.623 65.4476 330.54C65.5303 330.458 65.5768 330.345 65.5768 330.228V328.61H70.5906V330.228C70.5906 330.345 70.6371 330.458 70.7198 330.54C70.8025 330.623 70.9146 330.669 71.0316 330.669H73.8979C74.0023 330.671 74.104 330.636 74.1847 330.57C74.2655 330.503 74.3201 330.411 74.3389 330.308L74.6123 328.822C74.661 328.562 74.6518 328.296 74.5854 328.04C74.5189 327.785 74.3969 327.547 74.2279 327.345C74.0589 327.142 73.8472 326.979 73.608 326.868C73.3688 326.756 73.1079 326.699 72.844 326.701V326.701Z" stroke="#263238" stroke-miterlimit="10"/>
<path d="M183.259 175.699H151.672L150.349 178.133C149.64 179.412 148.601 180.478 147.341 181.22C146.081 181.962 144.646 182.354 143.183 182.354C141.721 182.354 140.285 181.962 139.025 181.22C137.765 180.478 136.726 179.412 136.017 178.133L134.695 175.699H103.13C102.339 175.689 101.553 175.834 100.819 176.127C100.084 176.42 99.4138 176.855 98.8471 177.407C98.2803 177.959 97.8279 178.617 97.5156 179.344C97.2033 180.071 97.0372 180.852 97.0268 181.643V344.3C97.0372 345.091 97.2033 345.872 97.5157 346.598C97.828 347.325 98.2806 347.983 98.8473 348.535C99.4141 349.086 100.084 349.521 100.819 349.813C101.554 350.106 102.339 350.251 103.13 350.24H183.259C184.049 350.25 184.834 350.105 185.568 349.812C186.303 349.519 186.972 349.085 187.538 348.533C188.105 347.981 188.557 347.324 188.869 346.597C189.181 345.871 189.347 345.09 189.357 344.3V181.643C189.347 180.852 189.182 180.071 188.87 179.344C188.558 178.618 188.106 177.959 187.54 177.407C186.973 176.855 186.304 176.42 185.569 176.127C184.835 175.834 184.049 175.689 183.259 175.699Z" fill="#D6D6D6"/>
<path d="M183.007 178.036H176.64V181.529H183.007V178.036Z" stroke="#263238" stroke-width="0.821067" stroke-linecap="round" stroke-linejoin="round"/>
<path d="M181.605 178.036H176.64V181.529H181.605V178.036Z" fill="#263238" stroke="#263238" stroke-width="0.725073" stroke-linecap="round" stroke-linejoin="round"/>
<path d="M183.889 179.015H182.994V180.554H183.889V179.015Z" fill="#263238" stroke="#263238" stroke-width="0.725073" stroke-linecap="round" stroke-linejoin="round"/>
<path d="M103.452 179.121H102.283V181.123H103.452V179.121Z" fill="#263238" stroke="#263238" stroke-width="0.883086" stroke-linecap="round" stroke-linejoin="round"/>
<path d="M105.286 178.415H104.118V181.119H105.286V178.415Z" fill="#263238" stroke="#263238" stroke-width="0.883086" stroke-linecap="round" stroke-linejoin="round"/>
<path d="M107.121 177.586H105.952V181.123H107.121V177.586Z" fill="#263238" stroke="#263238" stroke-width="0.883086" stroke-linecap="round" stroke-linejoin="round"/>
<path d="M99.849 182.724H186.517" stroke="#263238" stroke-linecap="round" stroke-linejoin="round"/>
<path opacity="0.2" d="M159.693 286.056C159.429 284.068 159.098 281.858 158.838 280.183C161.067 277.229 162.52 273.763 163.062 270.102C163.327 268.069 163.278 264.475 163.089 260.498C163.73 260.005 164.221 259.344 164.509 258.588C165.421 256.383 168.504 249.531 164.95 247.485C164.343 247.075 163.605 246.908 162.881 247.017C163.112 245.521 163.527 244.059 164.116 242.665C165.986 238.506 169.522 234.56 168.085 228.739C166.647 222.918 160.386 219.8 158.489 222.296C156.593 224.792 156.62 226.869 153.087 224.166C149.555 221.463 144.568 217.723 136.877 219.8C129.187 221.877 128.353 223.769 132.097 227.698C132.097 227.698 119.834 227.076 116.716 233.934C114.511 238.749 118.171 240.901 120.469 242.114C120.176 242.248 119.937 242.476 119.79 242.762L113.616 254.73L115.164 238.723C115.205 238.258 115.068 237.796 114.78 237.429C114.493 237.062 114.078 236.818 113.617 236.745C113.157 236.673 112.686 236.778 112.3 237.04C111.915 237.301 111.643 237.699 111.539 238.154L107.844 254.373L106.605 254.214L107.381 237.968C107.405 237.509 107.253 237.058 106.955 236.707C106.657 236.357 106.236 236.134 105.779 236.084C105.321 236.034 104.862 236.162 104.496 236.44C104.129 236.718 103.884 237.126 103.809 237.58L101.313 253.896L99.0641 253.768V240.804C99.063 240.547 99.0069 240.294 98.8994 240.061C98.792 239.828 98.6358 239.621 98.4413 239.454C98.2469 239.287 98.0188 239.163 97.7725 239.092C97.5261 239.02 97.2673 239.003 97.0136 239.04V294.986L97.3179 294.422L98.4864 295.326L104.616 286.899L102.23 285.677C104.382 282.074 107.469 276.672 107.469 276.672C107.469 276.672 113.462 275.601 115.186 272.536C116.91 269.471 118.052 265.626 120.143 262.773C122.233 259.92 124.164 258.751 124.927 256.454C124.929 256.432 124.929 256.41 124.927 256.388C125.902 258.694 127.736 260.952 128.543 261.993C129.654 263.421 131.123 263.999 131.762 263.271C131.819 263.712 131.877 264.175 131.938 264.634C132.666 268.263 133.5 271.628 134.364 273.427C135.168 274.98 136.21 276.397 137.451 277.629C137.081 277.409 136.639 277.343 136.221 277.445C135.802 277.547 135.441 277.81 135.215 278.176C134.782 278.694 134.438 279.279 134.196 279.909C132.582 283.741 128.962 288.288 129.262 291C129.262 291.079 129.262 291.198 129.288 291.339C125.108 291.701 114.432 292.733 112.814 294.025C111.654 294.955 103.628 302.637 97.0092 309.018V340.657L111.059 332.12L113.462 350.253H176.609V288.429C169.553 287.154 160.214 285.959 160.214 285.959L159.693 286.056ZM125.236 251.396C124.354 252.278 124.186 253.407 124.402 254.624C123.675 254.43 122.444 254.844 121.099 255.876C118.608 257.794 116.121 259.898 116.121 259.898L120.755 248.181L120.87 248.278C122.687 249.601 124.887 250.258 125.827 250.893C125.616 251.044 125.418 251.212 125.236 251.396Z" fill="black"/>
<path d="M123.609 351.787H190.438V286.215C182.981 284.866 173.081 283.6 173.081 283.6L142.12 289.152C142.12 289.152 125.037 290.431 122.903 292.142C120.769 293.853 96.6035 317.22 96.6035 317.22V347.303L121.046 332.451L123.609 351.787Z" fill="white"/>
<path d="M166.07 346.13C166.024 346.176 165.998 346.239 165.998 346.304C165.998 346.369 166.024 346.432 166.07 346.478L169.8 350.006C169.846 350.048 169.906 350.071 169.968 350.072C170.036 350.072 170.101 350.045 170.149 349.997C170.195 349.951 170.22 349.888 170.22 349.823C170.22 349.758 170.195 349.695 170.149 349.649L166.418 346.121C166.395 346.098 166.367 346.08 166.337 346.068C166.307 346.056 166.274 346.051 166.242 346.052C166.209 346.052 166.177 346.06 166.148 346.073C166.118 346.087 166.092 346.106 166.07 346.13Z" fill="#B2B2B2"/>
<path d="M170.806 319.35C170.759 319.304 170.697 319.278 170.631 319.278C170.566 319.278 170.504 319.304 170.457 319.35L168.023 321.956C168.028 321.922 168.025 321.888 168.015 321.855C168.005 321.822 167.988 321.792 167.966 321.766C167.92 321.72 167.857 321.694 167.792 321.694C167.726 321.694 167.664 321.72 167.617 321.766L165.205 323.971C165.16 324.018 165.135 324.08 165.135 324.145C165.135 324.21 165.16 324.273 165.205 324.319C165.252 324.366 165.314 324.391 165.379 324.391C165.445 324.391 165.507 324.366 165.554 324.319L167.512 322.556L167.401 322.675C167.37 322.71 167.35 322.754 167.343 322.8C167.335 322.847 167.342 322.894 167.361 322.937C167.38 322.981 167.411 323.017 167.45 323.043C167.489 323.07 167.535 323.084 167.582 323.085C167.615 323.085 167.648 323.079 167.678 323.066C167.709 323.053 167.736 323.034 167.759 323.01L170.845 319.716C170.869 319.69 170.887 319.66 170.898 319.627C170.91 319.594 170.913 319.558 170.91 319.524C170.906 319.489 170.895 319.455 170.877 319.425C170.859 319.395 170.834 319.369 170.806 319.35Z" fill="#B2B2B2"/>
<path d="M168.195 302.478C168.154 302.428 168.096 302.395 168.031 302.388C167.967 302.38 167.902 302.399 167.851 302.438L164.557 305.084C164.507 305.126 164.476 305.185 164.469 305.249C164.463 305.313 164.481 305.378 164.522 305.428C164.544 305.457 164.573 305.481 164.606 305.497C164.639 305.513 164.675 305.521 164.711 305.521C164.767 305.52 164.821 305.502 164.866 305.468L168.155 302.822C168.206 302.781 168.238 302.723 168.246 302.658C168.253 302.594 168.235 302.529 168.195 302.478Z" fill="#B2B2B2"/>
<path d="M123.855 299.286L126.942 295.996C126.987 295.949 127.012 295.887 127.012 295.822C127.012 295.757 126.987 295.694 126.942 295.648C126.895 295.603 126.833 295.577 126.768 295.577C126.703 295.577 126.641 295.603 126.594 295.648L123.507 298.942C123.484 298.964 123.465 298.991 123.453 299.02C123.44 299.05 123.434 299.081 123.434 299.114C123.434 299.146 123.44 299.178 123.453 299.207C123.465 299.237 123.484 299.263 123.507 299.286C123.551 299.328 123.609 299.352 123.67 299.352C123.704 299.354 123.738 299.35 123.77 299.338C123.802 299.327 123.831 299.309 123.855 299.286Z" fill="#B2B2B2"/>
<path d="M163.393 314.508C163.427 314.508 163.461 314.501 163.492 314.487C163.523 314.474 163.551 314.454 163.574 314.428C163.597 314.406 163.615 314.38 163.628 314.35C163.641 314.32 163.647 314.289 163.647 314.256C163.647 314.224 163.641 314.192 163.628 314.163C163.615 314.133 163.597 314.107 163.574 314.084L159.848 310.557C159.799 310.517 159.738 310.496 159.675 310.5C159.613 310.504 159.554 310.531 159.511 310.576C159.467 310.622 159.443 310.682 159.443 310.745C159.442 310.807 159.465 310.868 159.508 310.914L163.239 314.442C163.281 314.481 163.335 314.504 163.393 314.508Z" fill="#B2B2B2"/>
<path d="M156.152 323.283H156.183C156.215 323.279 156.246 323.268 156.274 323.252C156.302 323.236 156.327 323.214 156.346 323.188C156.366 323.162 156.38 323.133 156.389 323.102C156.397 323.07 156.399 323.038 156.395 323.005L155.738 317.961C155.734 317.929 155.723 317.898 155.707 317.87C155.691 317.842 155.67 317.818 155.645 317.798C155.619 317.779 155.59 317.764 155.559 317.756C155.528 317.747 155.496 317.745 155.464 317.749C155.432 317.753 155.402 317.763 155.374 317.779C155.346 317.795 155.321 317.816 155.302 317.842C155.282 317.867 155.268 317.896 155.259 317.927C155.251 317.958 155.249 317.991 155.253 318.022L155.91 323.072C155.918 323.13 155.947 323.183 155.992 323.222C156.036 323.261 156.093 323.283 156.152 323.283Z" fill="#B2B2B2"/>
<path d="M161.461 340.428L158.375 343.718C158.351 343.74 158.333 343.767 158.32 343.796C158.308 343.826 158.301 343.857 158.301 343.89C158.301 343.922 158.308 343.954 158.32 343.983C158.333 344.013 158.351 344.039 158.375 344.062C158.42 344.105 158.48 344.128 158.542 344.128C158.575 344.128 158.608 344.121 158.638 344.108C158.668 344.095 158.696 344.076 158.719 344.053L161.805 340.759C161.849 340.711 161.873 340.649 161.87 340.584C161.868 340.52 161.84 340.459 161.792 340.415C161.745 340.371 161.682 340.348 161.617 340.35C161.553 340.353 161.492 340.381 161.448 340.428H161.461Z" fill="#B2B2B2"/>
<path d="M123.238 324.161C123.269 324.167 123.3 324.167 123.331 324.161C123.361 324.149 123.388 324.131 123.411 324.108C123.434 324.085 123.453 324.058 123.465 324.028C123.477 323.998 123.483 323.965 123.483 323.933C123.483 323.901 123.476 323.869 123.463 323.839L121.258 318.574C121.232 318.514 121.184 318.467 121.124 318.443C121.064 318.418 120.997 318.418 120.936 318.441C120.876 318.467 120.829 318.515 120.804 318.575C120.779 318.635 120.779 318.703 120.804 318.763L123.009 324.028C123.03 324.07 123.063 324.105 123.104 324.129C123.145 324.152 123.191 324.163 123.238 324.161Z" fill="#B2B2B2"/>
<path d="M171.295 341.059C171.351 341.058 171.405 341.039 171.449 341.006L174.739 338.36C174.769 338.342 174.795 338.318 174.815 338.289C174.835 338.26 174.849 338.227 174.855 338.192C174.861 338.158 174.86 338.122 174.852 338.088C174.843 338.054 174.828 338.022 174.806 337.995C174.784 337.967 174.756 337.945 174.725 337.928C174.694 337.912 174.66 337.903 174.624 337.901C174.589 337.9 174.554 337.905 174.522 337.918C174.489 337.931 174.459 337.951 174.435 337.976L171.141 340.622C171.116 340.642 171.095 340.667 171.079 340.695C171.064 340.724 171.054 340.755 171.051 340.787C171.048 340.819 171.051 340.851 171.06 340.882C171.07 340.913 171.085 340.941 171.105 340.966C171.128 340.995 171.156 341.019 171.189 341.035C171.222 341.051 171.258 341.059 171.295 341.059Z" fill="#B2B2B2"/>
<path d="M170.642 309.34C170.617 309.28 170.569 309.232 170.509 309.207C170.448 309.182 170.381 309.182 170.321 309.207C170.291 309.22 170.264 309.238 170.241 309.261C170.219 309.284 170.201 309.311 170.189 309.341C170.177 309.371 170.171 309.403 170.172 309.436C170.173 309.468 170.18 309.5 170.193 309.529L172.398 314.794C172.416 314.839 172.448 314.876 172.488 314.903C172.528 314.93 172.574 314.944 172.622 314.944C172.654 314.951 172.687 314.951 172.719 314.944C172.779 314.918 172.826 314.87 172.85 314.81C172.875 314.75 172.875 314.683 172.852 314.622L170.642 309.34Z" fill="#B2B2B2"/>
<path d="M171.732 337.764H171.767C171.798 337.76 171.829 337.75 171.856 337.734C171.884 337.717 171.908 337.696 171.927 337.671C171.946 337.645 171.961 337.616 171.969 337.586C171.977 337.555 171.979 337.523 171.974 337.491L171.317 332.442C171.308 332.378 171.275 332.32 171.224 332.28C171.173 332.241 171.108 332.223 171.044 332.23C171.012 332.235 170.981 332.245 170.953 332.262C170.925 332.278 170.9 332.3 170.88 332.325C170.861 332.351 170.846 332.381 170.838 332.412C170.83 332.443 170.828 332.476 170.832 332.508L171.489 337.553C171.498 337.611 171.527 337.665 171.571 337.704C171.616 337.742 171.673 337.764 171.732 337.764Z" fill="#B2B2B2"/>
<path d="M97.5075 345.601C97.5307 345.578 97.5492 345.552 97.5618 345.522C97.5744 345.493 97.5809 345.461 97.5809 345.429C97.5809 345.397 97.5744 345.365 97.5618 345.335C97.5492 345.306 97.5307 345.279 97.5075 345.257C97.4849 345.234 97.4581 345.216 97.4286 345.204C97.3991 345.192 97.3675 345.185 97.3355 345.185C97.3035 345.185 97.2719 345.192 97.2424 345.204C97.2128 345.216 97.1861 345.234 97.1635 345.257L96.5858 345.781V346.443L97.5075 345.601Z" fill="#B2B2B2"/>
<path d="M110.115 319.8C110.092 319.822 110.074 319.849 110.062 319.878C110.05 319.908 110.043 319.94 110.043 319.971C110.043 320.003 110.05 320.035 110.062 320.065C110.074 320.094 110.092 320.121 110.115 320.143L113.845 323.671C113.891 323.714 113.951 323.738 114.013 323.737C114.046 323.738 114.079 323.731 114.11 323.717C114.14 323.703 114.167 323.683 114.189 323.658C114.212 323.635 114.23 323.609 114.242 323.579C114.255 323.55 114.261 323.518 114.261 323.486C114.261 323.454 114.255 323.422 114.242 323.393C114.23 323.363 114.212 323.337 114.189 323.314L110.459 319.786C110.411 319.744 110.348 319.722 110.284 319.725C110.22 319.727 110.16 319.754 110.115 319.8Z" fill="#B2B2B2"/>
<path d="M114.86 308.841C114.837 308.818 114.811 308.8 114.781 308.787C114.752 308.774 114.72 308.768 114.688 308.768C114.656 308.768 114.624 308.774 114.594 308.787C114.565 308.8 114.538 308.818 114.516 308.841L112.099 311.046C112.053 311.092 112.027 311.155 112.027 311.22C112.027 311.286 112.053 311.348 112.099 311.394C112.122 311.42 112.15 311.44 112.181 311.453C112.212 311.467 112.246 311.474 112.28 311.474C112.341 311.474 112.399 311.45 112.443 311.408L114.86 309.203C114.885 309.18 114.904 309.152 114.918 309.121C114.931 309.09 114.938 309.056 114.938 309.022C114.938 308.988 114.931 308.955 114.918 308.923C114.904 308.892 114.885 308.864 114.86 308.841Z" fill="#B2B2B2"/>
<path d="M119.283 301.848C119.301 301.892 119.332 301.93 119.372 301.957C119.412 301.983 119.459 301.998 119.508 301.998C119.538 302.004 119.57 302.004 119.6 301.998C119.63 301.985 119.658 301.967 119.681 301.945C119.704 301.922 119.722 301.895 119.734 301.865C119.747 301.835 119.753 301.802 119.753 301.77C119.752 301.737 119.745 301.705 119.732 301.676L117.757 296.935L117.373 297.292L119.283 301.848Z" fill="#B2B2B2"/>
<path d="M118.82 311.694C118.779 311.644 118.72 311.612 118.656 311.604C118.591 311.597 118.527 311.615 118.476 311.655L115.186 314.301C115.136 314.341 115.103 314.4 115.096 314.464C115.088 314.529 115.106 314.593 115.146 314.644C115.169 314.674 115.199 314.697 115.232 314.713C115.266 314.73 115.303 314.738 115.34 314.737C115.395 314.737 115.448 314.718 115.49 314.684L118.784 312.038C118.809 312.018 118.83 311.993 118.846 311.965C118.861 311.937 118.871 311.906 118.874 311.874C118.877 311.842 118.874 311.809 118.865 311.779C118.855 311.748 118.84 311.719 118.82 311.694Z" fill="#B2B2B2"/>
<path d="M118.246 330.978L115.83 333.183C115.784 333.229 115.758 333.292 115.758 333.357C115.758 333.422 115.784 333.485 115.83 333.531C115.853 333.556 115.881 333.576 115.912 333.59C115.943 333.604 115.977 333.611 116.011 333.611C116.071 333.61 116.13 333.586 116.174 333.544L118.59 331.34C118.636 331.293 118.662 331.231 118.662 331.165C118.662 331.1 118.636 331.038 118.59 330.991C118.569 330.968 118.543 330.949 118.513 330.935C118.484 330.922 118.453 330.914 118.421 330.913C118.389 330.912 118.357 330.917 118.327 330.928C118.297 330.939 118.27 330.956 118.246 330.978Z" fill="#B2B2B2"/>
<path d="M106.781 332.499H106.812C106.845 332.496 106.878 332.485 106.907 332.469C106.936 332.452 106.962 332.429 106.982 332.403C107.002 332.376 107.017 332.345 107.024 332.312C107.032 332.28 107.034 332.246 107.028 332.213L106.371 327.168C106.36 327.106 106.326 327.05 106.275 327.012C106.223 326.974 106.16 326.957 106.097 326.965C106.034 326.973 105.976 327.005 105.936 327.054C105.896 327.104 105.876 327.167 105.882 327.23L106.543 332.279C106.547 332.339 106.574 332.395 106.619 332.436C106.663 332.477 106.721 332.5 106.781 332.499Z" fill="#B2B2B2"/>
<path d="M102.618 317.797C102.652 317.798 102.686 317.791 102.717 317.777C102.748 317.763 102.776 317.743 102.799 317.718L105.886 314.428C105.926 314.38 105.946 314.318 105.942 314.255C105.937 314.192 105.909 314.133 105.863 314.09C105.817 314.048 105.756 314.024 105.693 314.025C105.63 314.025 105.57 314.05 105.524 314.093L102.438 317.387C102.415 317.41 102.397 317.437 102.385 317.466C102.372 317.496 102.366 317.527 102.366 317.559C102.366 317.591 102.372 317.623 102.385 317.652C102.397 317.682 102.415 317.709 102.438 317.731C102.462 317.754 102.49 317.771 102.521 317.782C102.552 317.794 102.585 317.799 102.618 317.797Z" fill="#B2B2B2"/>
<path d="M96.6035 327.19L97.7147 326.308C97.7564 326.265 97.781 326.208 97.784 326.149C97.7869 326.089 97.768 326.03 97.7308 325.983C97.6936 325.936 97.6406 325.904 97.5816 325.893C97.5227 325.883 97.4619 325.894 97.4105 325.924L96.6035 326.568V327.19Z" fill="#B2B2B2"/>
<path d="M99.8843 332.689C99.8543 332.701 99.827 332.718 99.804 332.741C99.781 332.763 99.7627 332.79 99.7504 332.819C99.738 332.849 99.7318 332.881 99.7321 332.913C99.7324 332.945 99.7391 332.977 99.752 333.006L101.957 338.276C101.976 338.321 102.009 338.358 102.049 338.385C102.09 338.412 102.138 338.426 102.186 338.426C102.217 338.432 102.248 338.432 102.279 338.426C102.308 338.414 102.335 338.396 102.358 338.374C102.381 338.351 102.399 338.324 102.411 338.295C102.423 338.265 102.43 338.234 102.43 338.202C102.43 338.17 102.423 338.138 102.411 338.109L100.206 332.839C100.197 332.807 100.18 332.777 100.158 332.752C100.136 332.726 100.109 332.706 100.079 332.692C100.048 332.678 100.015 332.67 99.9819 332.67C99.9483 332.669 99.9151 332.676 99.8843 332.689Z" fill="#B2B2B2"/>
<path d="M126.801 346.915C126.846 346.957 126.906 346.981 126.969 346.981C127.002 346.981 127.034 346.975 127.065 346.962C127.095 346.949 127.123 346.93 127.145 346.906L130.232 343.612C130.276 343.565 130.299 343.502 130.297 343.437C130.294 343.373 130.266 343.312 130.219 343.268C130.171 343.224 130.108 343.201 130.044 343.203C129.979 343.206 129.919 343.234 129.875 343.281L126.788 346.571C126.766 346.594 126.749 346.622 126.738 346.652C126.727 346.682 126.722 346.714 126.723 346.746C126.724 346.777 126.732 346.809 126.745 346.838C126.759 346.867 126.778 346.893 126.801 346.915Z" fill="#B2B2B2"/>
<path d="M145.626 347.739C145.601 347.68 145.554 347.634 145.494 347.609C145.435 347.584 145.368 347.584 145.309 347.607C145.279 347.619 145.251 347.637 145.228 347.66C145.205 347.683 145.187 347.71 145.174 347.74C145.162 347.77 145.156 347.802 145.156 347.835C145.157 347.867 145.163 347.899 145.176 347.929L146.782 351.787H147.315L145.626 347.739Z" fill="#B2B2B2"/>
<path d="M134.809 348.97C134.763 348.924 134.7 348.898 134.635 348.898C134.57 348.898 134.507 348.924 134.461 348.97C134.415 349.016 134.389 349.079 134.389 349.144C134.389 349.209 134.415 349.272 134.461 349.318L137.067 351.774H137.781L134.809 348.97Z" fill="#B2B2B2"/>
<path d="M175.414 325.056C175.368 325.01 175.305 324.984 175.24 324.984C175.174 324.984 175.112 325.01 175.065 325.056C175.019 325.102 174.994 325.165 174.994 325.23C174.994 325.295 175.019 325.358 175.065 325.404L178.792 328.932C178.839 328.975 178.9 328.998 178.964 328.998C179.016 329.001 179.069 328.988 179.113 328.959C179.157 328.931 179.191 328.889 179.21 328.839C179.229 328.79 179.231 328.736 179.217 328.685C179.203 328.634 179.173 328.59 179.131 328.557L175.414 325.056Z" fill="#B2B2B2"/>
<path d="M155.222 304.873C155.176 304.828 155.114 304.803 155.05 304.803C154.986 304.803 154.924 304.828 154.878 304.873L151.791 308.167C151.768 308.189 151.749 308.216 151.737 308.245C151.724 308.275 151.718 308.306 151.718 308.339C151.718 308.371 151.724 308.403 151.737 308.432C151.749 308.462 151.768 308.488 151.791 308.511C151.836 308.553 151.896 308.577 151.959 308.577C151.992 308.577 152.025 308.57 152.055 308.556C152.086 308.542 152.113 308.522 152.135 308.497L155.222 305.208C155.264 305.162 155.287 305.102 155.287 305.04C155.287 304.978 155.264 304.918 155.222 304.873Z" fill="#B2B2B2"/>
<path d="M135.087 305.314C135.121 305.314 135.155 305.307 135.186 305.293C135.217 305.279 135.245 305.259 135.268 305.234C135.291 305.212 135.309 305.185 135.322 305.156C135.335 305.126 135.341 305.094 135.341 305.062C135.341 305.03 135.335 304.998 135.322 304.969C135.309 304.939 135.291 304.912 135.268 304.89L131.537 301.362C131.515 301.339 131.488 301.321 131.459 301.308C131.429 301.296 131.397 301.289 131.365 301.289C131.333 301.289 131.301 301.296 131.272 301.308C131.242 301.321 131.215 301.339 131.193 301.362C131.171 301.385 131.153 301.412 131.14 301.441C131.128 301.471 131.122 301.502 131.122 301.534C131.122 301.566 131.128 301.598 131.14 301.628C131.153 301.657 131.171 301.684 131.193 301.706L134.924 305.234C134.966 305.281 135.024 305.309 135.087 305.314Z" fill="#B2B2B2"/>
<path d="M134.43 338.863H134.461C134.493 338.858 134.524 338.848 134.552 338.831C134.58 338.815 134.605 338.793 134.624 338.768C134.644 338.742 134.658 338.712 134.667 338.681C134.675 338.65 134.677 338.617 134.672 338.585L134.015 333.536C134.005 333.473 133.97 333.417 133.919 333.379C133.868 333.342 133.804 333.325 133.741 333.333C133.678 333.341 133.621 333.373 133.581 333.422C133.541 333.471 133.521 333.534 133.526 333.598L134.187 338.647C134.193 338.707 134.221 338.762 134.266 338.802C134.311 338.843 134.37 338.864 134.43 338.863Z" fill="#B2B2B2"/>
<path d="M183.201 336.243L180.785 338.448C180.74 338.479 180.707 338.523 180.691 338.575C180.675 338.626 180.676 338.681 180.695 338.732C180.714 338.783 180.749 338.826 180.794 338.854C180.84 338.882 180.894 338.895 180.948 338.889C181.009 338.889 181.069 338.867 181.116 338.827L183.528 336.622C183.576 336.579 183.604 336.519 183.608 336.454C183.611 336.39 183.589 336.326 183.545 336.278C183.524 336.255 183.498 336.235 183.469 336.222C183.44 336.208 183.409 336.2 183.377 336.198C183.312 336.195 183.249 336.218 183.201 336.261V336.243Z" fill="#B2B2B2"/>
<path d="M186.222 323.834C186.197 323.775 186.149 323.729 186.09 323.704C186.031 323.679 185.964 323.678 185.904 323.702C185.874 323.714 185.847 323.732 185.824 323.755C185.801 323.778 185.783 323.805 185.77 323.835C185.758 323.865 185.752 323.897 185.752 323.93C185.752 323.962 185.759 323.994 185.772 324.024L187.977 329.289C187.996 329.334 188.028 329.373 188.068 329.4C188.109 329.426 188.157 329.44 188.206 329.439C188.237 329.445 188.268 329.445 188.299 329.439C188.359 329.414 188.407 329.366 188.431 329.305C188.456 329.245 188.456 329.177 188.431 329.117L186.222 323.834Z" fill="#B2B2B2"/>
<path d="M183.757 316.96C183.737 316.934 183.712 316.914 183.684 316.898C183.655 316.883 183.624 316.873 183.592 316.87C183.56 316.867 183.528 316.87 183.497 316.879C183.466 316.888 183.438 316.904 183.413 316.924L180.119 319.57C180.094 319.59 180.073 319.615 180.058 319.643C180.042 319.672 180.033 319.703 180.029 319.735C180.026 319.767 180.029 319.799 180.038 319.83C180.048 319.861 180.063 319.889 180.084 319.914C180.106 319.943 180.135 319.967 180.168 319.983C180.201 319.999 180.237 320.007 180.273 320.007C180.329 320.007 180.383 319.988 180.428 319.954L183.717 317.308C183.743 317.288 183.764 317.263 183.78 317.234C183.796 317.206 183.806 317.174 183.81 317.142C183.813 317.11 183.811 317.077 183.802 317.046C183.793 317.014 183.777 316.985 183.757 316.96Z" fill="#B2B2B2"/>
<path d="M176.904 344.754C176.845 344.78 176.798 344.828 176.773 344.888C176.749 344.948 176.748 345.016 176.772 345.076L178.977 350.341C178.995 350.386 179.026 350.425 179.066 350.452C179.106 350.48 179.153 350.495 179.202 350.495C179.234 350.502 179.267 350.502 179.299 350.495C179.358 350.47 179.405 350.423 179.429 350.363C179.454 350.304 179.455 350.238 179.431 350.178L177.226 344.908C177.215 344.877 177.198 344.848 177.176 344.823C177.154 344.799 177.127 344.778 177.097 344.764C177.067 344.75 177.035 344.741 177.002 344.74C176.969 344.738 176.935 344.743 176.904 344.754Z" fill="#B2B2B2"/>
<path d="M133.513 320.792C133.553 320.743 133.573 320.681 133.568 320.618C133.564 320.555 133.536 320.496 133.49 320.454C133.444 320.411 133.383 320.387 133.32 320.388C133.257 320.388 133.197 320.413 133.151 320.456L130.064 323.751C130.042 323.773 130.024 323.8 130.011 323.829C129.999 323.859 129.993 323.891 129.993 323.922C129.993 323.954 129.999 323.986 130.011 324.016C130.024 324.045 130.042 324.072 130.064 324.094C130.11 324.136 130.17 324.16 130.232 324.161C130.266 324.161 130.3 324.154 130.331 324.14C130.362 324.126 130.39 324.106 130.413 324.081L133.513 320.792Z" fill="#B2B2B2"/>
<path d="M146.468 318.058C146.428 318.007 146.369 317.975 146.305 317.967C146.24 317.96 146.176 317.978 146.124 318.018L142.835 320.664C142.791 320.694 142.759 320.738 142.743 320.788C142.727 320.839 142.727 320.893 142.745 320.943C142.762 320.993 142.796 321.036 142.84 321.065C142.884 321.094 142.936 321.108 142.989 321.105C143.044 321.105 143.097 321.086 143.139 321.052L146.433 318.406C146.459 318.386 146.48 318.361 146.496 318.332C146.512 318.303 146.522 318.272 146.525 318.239C146.528 318.207 146.525 318.174 146.515 318.143C146.506 318.112 146.49 318.083 146.468 318.058Z" fill="#B2B2B2"/>
<path d="M145.895 337.341L143.483 339.546C143.442 339.578 143.412 339.623 143.398 339.673C143.384 339.723 143.386 339.777 143.404 339.826C143.422 339.875 143.455 339.917 143.499 339.946C143.542 339.975 143.594 339.989 143.646 339.987C143.706 339.987 143.764 339.965 143.809 339.925L146.222 337.72C146.245 337.699 146.265 337.673 146.278 337.644C146.292 337.615 146.3 337.584 146.302 337.552C146.303 337.52 146.299 337.488 146.288 337.458C146.277 337.428 146.261 337.4 146.239 337.377C146.218 337.353 146.192 337.333 146.163 337.32C146.134 337.306 146.103 337.298 146.071 337.296C146.039 337.295 146.007 337.3 145.977 337.31C145.947 337.321 145.919 337.337 145.895 337.359V337.341Z" fill="#B2B2B2"/>
<path d="M137.063 315.165C137.123 315.165 137.182 315.141 137.226 315.099L139.642 312.894C139.688 312.848 139.714 312.785 139.714 312.72C139.714 312.654 139.688 312.592 139.642 312.546C139.62 312.523 139.593 312.505 139.563 312.493C139.534 312.48 139.502 312.474 139.47 312.474C139.438 312.474 139.407 312.48 139.377 312.493C139.348 312.505 139.321 312.523 139.298 312.546L136.886 314.75C136.845 314.783 136.815 314.827 136.801 314.877C136.787 314.928 136.789 314.981 136.807 315.03C136.825 315.079 136.858 315.121 136.902 315.15C136.945 315.179 136.997 315.194 137.049 315.191L137.063 315.165Z" fill="#B2B2B2"/>
<path d="M148.598 324.787C148.538 324.812 148.491 324.86 148.466 324.92C148.441 324.981 148.441 325.048 148.466 325.109L150.671 330.374C150.689 330.418 150.72 330.456 150.761 330.483C150.801 330.51 150.848 330.524 150.896 330.524C150.926 330.53 150.958 330.53 150.988 330.524C151.019 330.512 151.046 330.494 151.069 330.471C151.092 330.448 151.11 330.421 151.123 330.391C151.135 330.361 151.141 330.329 151.141 330.296C151.14 330.264 151.134 330.232 151.121 330.202L148.916 324.937C148.893 324.875 148.847 324.825 148.788 324.797C148.728 324.769 148.66 324.765 148.598 324.787Z" fill="#B2B2B2"/>
<path d="M139.885 293.262C139.865 293.236 139.84 293.215 139.812 293.199C139.784 293.184 139.753 293.174 139.721 293.17C139.689 293.166 139.657 293.169 139.626 293.178C139.595 293.187 139.566 293.202 139.541 293.222L136.251 295.868C136.201 295.909 136.168 295.968 136.161 296.032C136.154 296.096 136.172 296.161 136.211 296.212C136.235 296.241 136.264 296.265 136.298 296.281C136.331 296.297 136.368 296.305 136.405 296.305C136.46 296.305 136.513 296.286 136.555 296.252L139.849 293.606C139.875 293.586 139.895 293.561 139.911 293.533C139.926 293.504 139.936 293.473 139.939 293.441C139.942 293.409 139.939 293.377 139.93 293.346C139.921 293.315 139.905 293.287 139.885 293.262Z" fill="#B2B2B2"/>
<path d="M142.015 299.991C141.955 300.017 141.908 300.065 141.884 300.125C141.859 300.185 141.859 300.253 141.882 300.313L144.087 305.578C144.106 305.623 144.137 305.661 144.177 305.687C144.217 305.714 144.264 305.728 144.312 305.728C144.343 305.735 144.374 305.735 144.405 305.728C144.435 305.716 144.462 305.698 144.485 305.675C144.508 305.652 144.527 305.625 144.539 305.595C144.551 305.565 144.557 305.533 144.557 305.5C144.557 305.468 144.55 305.436 144.537 305.406L142.332 300.141C142.309 300.079 142.263 300.029 142.204 300.001C142.145 299.973 142.077 299.97 142.015 299.991Z" fill="#B2B2B2"/>
<path d="M139.695 343.912C139.751 343.911 139.805 343.893 139.849 343.859L143.139 341.213C143.189 341.173 143.222 341.114 143.229 341.05C143.236 340.986 143.217 340.922 143.177 340.871C143.136 340.821 143.078 340.789 143.013 340.782C142.949 340.775 142.885 340.793 142.835 340.834L139.541 343.48C139.516 343.5 139.495 343.525 139.479 343.553C139.464 343.581 139.454 343.612 139.451 343.644C139.448 343.676 139.451 343.709 139.46 343.739C139.47 343.77 139.485 343.799 139.506 343.824C139.528 343.852 139.557 343.874 139.59 343.89C139.623 343.905 139.659 343.912 139.695 343.912Z" fill="#B2B2B2"/>
<path d="M127.846 314.067H127.877C127.909 314.062 127.94 314.052 127.968 314.035C127.996 314.019 128.021 313.998 128.041 313.972C128.06 313.946 128.075 313.917 128.083 313.885C128.091 313.854 128.093 313.821 128.089 313.789L127.432 308.744C127.428 308.712 127.417 308.682 127.401 308.654C127.386 308.626 127.364 308.601 127.339 308.582C127.314 308.562 127.284 308.548 127.254 308.539C127.223 308.531 127.19 308.529 127.158 308.533C127.126 308.537 127.096 308.547 127.068 308.563C127.04 308.579 127.016 308.6 126.996 308.625C126.976 308.651 126.962 308.68 126.953 308.711C126.945 308.742 126.943 308.774 126.947 308.806L127.604 313.855C127.61 313.914 127.639 313.969 127.684 314.008C127.729 314.047 127.787 314.068 127.846 314.067Z" fill="#B2B2B2"/>
<path d="M141.503 330.008C141.548 330.051 141.608 330.074 141.671 330.074C141.704 330.074 141.737 330.067 141.767 330.053C141.798 330.04 141.825 330.02 141.847 329.995C141.87 329.972 141.888 329.945 141.9 329.916C141.912 329.886 141.919 329.855 141.919 329.823C141.919 329.791 141.912 329.759 141.9 329.73C141.888 329.7 141.87 329.673 141.847 329.651L138.116 326.123C138.07 326.078 138.009 326.053 137.944 326.053C137.88 326.053 137.819 326.078 137.773 326.123C137.749 326.145 137.731 326.172 137.718 326.201C137.706 326.231 137.699 326.263 137.699 326.295C137.699 326.327 137.706 326.359 137.718 326.388C137.731 326.418 137.749 326.445 137.773 326.467L141.503 330.008Z" fill="#B2B2B2"/>
<path d="M123.609 351.787H190.438V286.215C182.981 284.866 173.081 283.6 173.081 283.6L142.12 289.152C142.12 289.152 125.037 290.431 122.903 292.142C120.769 293.853 96.6035 317.22 96.6035 317.22V347.303L121.046 332.451L123.609 351.787Z" stroke="#263238" stroke-linecap="round" stroke-linejoin="round"/>
<path d="M166.89 306.231C166.89 306.231 162.193 314.988 159.834 322.675C157.475 330.361 153.661 352.14 153.661 352.14H174.386C174.386 352.14 176.521 324.8 180.15 315.412C183.779 306.023 184.207 304.312 184.207 304.312L166.89 306.231Z" fill="#369AFE" stroke="#263238" stroke-linecap="round" stroke-linejoin="round"/>
<path d="M146.08 301.221C146.08 301.221 156.223 310.548 167.688 314.309C179.153 318.071 186.928 309.741 187.615 306.875C188.303 304.008 168.177 307.113 159.345 304.167C150.512 301.221 145.097 297.949 146.08 301.221Z" fill="#263238" stroke="#263238" stroke-linecap="round" stroke-linejoin="round"/>
<path d="M149.167 275.059C149.167 275.059 147.245 273.136 145.538 277.193C143.981 280.893 140.762 290.025 140.626 289.58C141.481 292.353 140.185 296.41 147.681 302.174C155.178 307.937 167.027 312.21 173.729 312.21C180.992 312.21 185.9 310.076 187.611 306.875C189.322 303.673 189.529 299.819 189.529 297.266C189.529 294.713 188.89 292.353 187.611 288.724C186.332 285.095 179.925 281.466 176.935 278.048C173.945 274.631 176.701 275.486 170.528 273.123C164.354 270.759 156.417 271.844 154.088 272.267C151.76 272.69 149.167 275.059 149.167 275.059Z" fill="#263238" stroke="#263238" stroke-linecap="round" stroke-linejoin="round"/>
<path d="M148.739 271.429C148.739 271.429 149.595 283.812 150.243 287.234C150.891 290.656 163.697 297.91 168.177 297.482C172.658 297.054 173.302 290.651 172.878 286.594C172.455 282.537 171.167 274.635 171.167 274.635C171.167 274.635 159.212 278.48 154.939 275.076C150.666 271.672 148.739 271.429 148.739 271.429Z" fill="white" stroke="#263238" stroke-linecap="round" stroke-linejoin="round"/>
<path d="M150.349 284.632C155.996 283.845 161.54 282.442 166.881 280.447L171.524 276.919C171.308 275.548 171.158 274.626 171.158 274.626C171.158 274.626 159.204 278.472 154.931 275.067C150.658 271.663 148.757 271.438 148.757 271.438C148.757 271.438 149.335 279.817 149.895 284.667C150.036 284.659 150.19 284.654 150.349 284.632Z" fill="#263238" stroke="#263238" stroke-linecap="round" stroke-linejoin="round"/>
<path d="M186.297 286.568C186.504 288.332 186.354 291.837 182.262 292.781C176.71 294.06 163.9 292.781 155.147 288.508C147.597 284.839 146.715 277.378 146.618 275.363C146.16 275.909 145.795 276.528 145.538 277.193C143.827 281.25 139.999 286.052 140.317 288.936C140.436 289.994 140.198 296.41 147.672 302.165C155.147 307.92 167.018 312.201 173.72 312.201C180.983 312.201 185.891 310.067 187.602 306.866C189.313 303.664 189.52 299.81 189.52 297.257C189.52 294.704 188.881 292.345 187.602 288.715C187.292 287.931 186.851 287.204 186.297 286.568Z" fill="#369AFE" stroke="#263238" stroke-linecap="round" stroke-linejoin="round"/>
<path d="M186.905 296.935C187.498 296.325 188.051 295.678 188.563 294.999" stroke="#263238" stroke-linecap="round" stroke-linejoin="round"/>
<path d="M143.54 281.47C143.54 281.47 141.19 288.323 151.566 297.526C160.487 305.437 175.352 305.966 184.564 298.981" stroke="#263238" stroke-linecap="round" stroke-linejoin="round"/>
<path d="M143.734 286.758C143.734 286.758 143.342 298.893 155.676 307.117" stroke="#263238" stroke-linecap="round" stroke-linejoin="round"/>
<path d="M143.298 221.926C143.298 221.926 130.316 221.265 127.013 228.541C123.71 235.817 132.957 237.36 132.745 238.44C132.534 239.521 129.002 241.968 131.423 243.732C133.843 245.496 136.926 246.149 137.155 247.03C137.384 247.912 139.135 251.652 139.135 251.652C139.135 251.652 141.34 252.975 142.875 252.093C144.409 251.211 143.973 247.242 145.295 245.271C146.618 243.3 146.618 240.861 151.028 237.567C155.438 234.273 165.77 234.039 167.529 234.71C169.289 235.38 171.939 235.592 173.033 237.356C174.126 239.119 173.914 248.133 174.796 248.133C175.678 248.133 175.237 242.193 177.217 237.792C179.197 233.391 182.95 229.211 181.398 223.05C179.846 216.89 173.257 213.592 171.277 216.233C169.298 218.874 169.293 221.084 165.545 218.213C161.797 215.342 156.501 211.387 148.356 213.565C140.211 215.744 139.338 217.746 143.298 221.926Z" fill="#263238" stroke="#263238" stroke-linecap="round" stroke-linejoin="round"/>
<path d="M149.74 215.858C149.169 215.651 148.578 215.503 147.977 215.417" stroke="#7D7D7D" stroke-linecap="round" stroke-linejoin="round"/>
<path d="M158.441 231.791C158.441 231.791 162.934 229.489 162.934 226.058C162.934 222.089 157.202 218.791 152.792 216.969" stroke="#7D7D7D" stroke-linecap="round" stroke-linejoin="round"/>
<path d="M157.259 232.183C157.259 232.183 158.71 227.169 153.515 224.686C149.815 222.923 145.234 222.715 145.234 222.715" stroke="#7D7D7D" stroke-linecap="round" stroke-linejoin="round"/>
<path d="M132.132 228.814C131.564 228.814 131.065 228.814 130.646 228.814" stroke="#7D7D7D" stroke-linecap="round" stroke-linejoin="round"/>
<path d="M153.33 230.41C153.33 230.41 150.768 227.451 144.259 228.042C140.268 228.408 136.943 228.62 134.421 228.735" stroke="#7D7D7D" stroke-linecap="round" stroke-linejoin="round"/>
<path d="M173.368 226.084C173.949 225.665 174.495 225.199 174.999 224.691C177.76 221.935 174.999 217.988 174.999 217.988" stroke="#7D7D7D" stroke-linecap="round" stroke-linejoin="round"/>
<path d="M169.284 228.042C170.174 227.824 171.031 227.489 171.833 227.046" stroke="#7D7D7D" stroke-linecap="round" stroke-linejoin="round"/>
<path d="M142.257 236.478C142.257 236.478 137.12 241.042 134.553 241.611" stroke="#7D7D7D" stroke-linecap="round" stroke-linejoin="round"/>
<path d="M173.584 245.685C173.584 245.685 174.28 240.707 178.06 242.872C181.839 245.037 178.576 252.309 177.619 254.624C176.662 256.939 174.642 257.94 174.064 255.815C173.487 253.689 173.584 245.685 173.584 245.685Z" fill="white" stroke="#263238" stroke-linecap="round" stroke-linejoin="round"/>
<path d="M141.097 248.547C141.097 248.547 139.117 243.926 136.035 247.008C132.953 250.091 138.015 256.269 139.563 258.231C141.111 260.193 143.302 260.652 143.302 258.452C143.302 256.251 141.097 248.547 141.097 248.547Z" fill="white" stroke="#263238" stroke-linecap="round" stroke-linejoin="round"/>
<path d="M141.635 245.399C141.635 245.399 143.077 264.832 145.719 270.331C148.36 275.83 157.599 282.652 163.759 282.432C169.919 282.211 175.224 273.612 176.08 266.812C176.935 260.013 174.541 236.447 174.541 236.447C174.541 236.447 172.561 229.625 169.042 229.184C165.523 228.743 161.779 232.271 158.04 232.487C154.3 232.703 151.425 228.96 147.478 230.507C143.532 232.055 141.746 235.358 143.298 236.681C144.85 238.004 146.385 239.102 144.621 241.532C142.857 243.961 141.635 245.399 141.635 245.399Z" fill="white" stroke="#263238" stroke-linecap="round" stroke-linejoin="round"/>
<path d="M173.222 240.628C173.222 240.628 172.12 239.305 169.694 239.305C168.201 239.326 166.747 239.786 165.514 240.628" stroke="#263238" stroke-width="3" stroke-linecap="round" stroke-linejoin="round"/>
<path d="M156.28 242.828C156.28 242.828 151.659 240.848 148.135 244.808" stroke="#263238" stroke-width="3" stroke-linecap="round" stroke-linejoin="round"/>
<path d="M154.3 249.099C154.3 250.254 153.758 251.189 153.087 251.189C152.417 251.189 151.879 250.254 151.879 249.099C151.879 247.943 152.422 247.008 153.087 247.008C153.753 247.008 154.3 247.943 154.3 249.099Z" fill="#263238"/>
<path d="M168.601 247.339C168.601 248.495 168.058 249.429 167.388 249.429C166.718 249.429 166.18 248.495 166.18 247.339C166.18 246.184 166.722 245.249 167.388 245.249C168.054 245.249 168.601 246.184 168.601 247.339Z" fill="#263238"/>
<path d="M150.336 252.071L154.737 252.291" stroke="#263238" stroke-linecap="round" stroke-linejoin="round"/>
<path d="M167.719 251.409L171.242 249.65" stroke="#263238" stroke-linecap="round" stroke-linejoin="round"/>
<path d="M176.08 266.812C176.424 264.167 176.269 259.016 175.952 253.693C175.827 255.386 175.501 257.057 174.982 258.672C173.879 261.759 173.879 262.852 173.218 263.523C172.556 264.193 171.895 262.641 170.797 261.102C169.699 259.563 159.795 261.102 159.795 261.102C158.692 260.881 153.414 261.763 150.975 262.645C148.537 263.527 148.113 266.385 148.329 267.496C148.545 268.607 145.913 265.957 144.59 262.204C143.267 258.452 141.944 251.863 141.944 251.863C141.944 251.863 142.5 256.273 143.117 261.04C143.884 264.881 144.775 268.444 145.688 270.345C148.334 275.843 157.568 282.665 163.728 282.445C169.888 282.224 175.202 273.63 176.08 266.812Z" fill="#263238" stroke="#263238" stroke-linecap="round" stroke-linejoin="round"/>
<path d="M150.142 275.213C150.142 275.213 152.858 278.772 158.3 281.073" stroke="#7D7D7D" stroke-linecap="round" stroke-linejoin="round"/>
<path d="M157.158 266.812C157.158 266.812 158.697 269.67 162.008 270.111C165.32 270.552 166.189 265.49 166.189 265.49L157.607 265.93C157.607 265.93 156.717 265.49 157.158 266.812Z" fill="white" stroke="#263238" stroke-linecap="round" stroke-linejoin="round"/>
<path d="M156.28 265.93C156.28 265.93 157.162 271.222 161.779 272.104C166.396 272.986 167.512 265.049 167.512 265.049L156.28 265.93Z" fill="white" stroke="#263238" stroke-linecap="round" stroke-linejoin="round"/>
<path d="M159.252 266.129C159.252 266.129 159.693 268.722 161.951 269.154C164.209 269.586 164.76 265.697 164.76 265.697L159.252 266.129Z" fill="#263238" stroke="#263238" stroke-linecap="round" stroke-linejoin="round"/>
<path d="M169.699 264.391C169.699 264.391 164.2 266.812 160.879 266.812C158.569 266.743 156.277 266.373 154.062 265.71C154.062 265.71 160.236 263.946 163.08 263.946C165.924 263.946 169.699 264.391 169.699 264.391Z" fill="white" stroke="#263238" stroke-linecap="round" stroke-linejoin="round"/>
<path d="M164.861 241.946C164.861 241.946 162.216 245.69 162.44 246.356C162.665 247.022 165.968 258.681 164.42 260.44C162.873 262.2 160.452 261.979 158.688 260.881C156.924 259.783 155.16 258.024 155.83 257.142C156.281 256.592 156.901 256.206 157.594 256.044" fill="white"/>
<path d="M164.861 241.946C164.861 241.946 162.216 245.69 162.44 246.356C162.665 247.022 165.968 258.681 164.42 260.44C162.873 262.2 160.452 261.979 158.688 260.881C156.924 259.783 155.16 258.024 155.83 257.142C156.281 256.592 156.901 256.206 157.594 256.044" stroke="#263238" stroke-linecap="round" stroke-linejoin="round"/>
<path d="M99.0156 283.177L102.72 273.771C102.72 273.771 103.161 272.889 101.331 270.468C99.5007 268.047 100.233 265.34 101.45 260.268C102.482 255.96 104.096 240.226 104.567 235.605C104.604 235.225 104.755 234.866 105.001 234.575C105.247 234.283 105.575 234.074 105.943 233.973C106.224 233.896 106.52 233.885 106.806 233.94C107.092 233.995 107.362 234.116 107.594 234.293C107.826 234.469 108.015 234.697 108.144 234.958C108.274 235.22 108.342 235.507 108.342 235.799V249.526L110.723 249.663L113.369 232.381C113.439 231.955 113.651 231.565 113.972 231.276C114.292 230.986 114.702 230.815 115.133 230.789C115.401 230.775 115.668 230.817 115.918 230.912C116.169 231.008 116.396 231.155 116.586 231.344C116.775 231.534 116.923 231.761 117.019 232.011C117.115 232.261 117.158 232.528 117.144 232.796L116.324 249.994L117.647 250.161L121.549 232.994C121.652 232.524 121.925 232.109 122.316 231.829C122.707 231.549 123.188 231.424 123.666 231.477C124.174 231.534 124.64 231.788 124.962 232.185C125.285 232.582 125.438 233.089 125.39 233.598L123.75 250.545L130.267 237.876C130.43 237.561 130.697 237.312 131.022 237.171C131.348 237.03 131.712 237.007 132.053 237.104C132.259 237.162 132.451 237.263 132.615 237.4C132.78 237.537 132.914 237.707 133.009 237.899C133.103 238.091 133.157 238.301 133.165 238.515C133.174 238.729 133.138 238.942 133.059 239.141L126.387 256.013C126.387 256.013 129.032 253.782 131.656 251.753C134.28 249.725 136.507 249.932 135.709 252.362C134.911 254.791 132.873 256.013 130.642 259.051C128.411 262.09 127.194 266.146 125.35 269.392C123.507 272.638 117.179 273.771 117.179 273.771C117.179 273.771 110.146 286.219 109.537 286.625L99.0156 283.177Z" fill="white" stroke="#263238" stroke-linecap="round" stroke-linejoin="round"/>
<path d="M106.34 249.438L125.024 250.744" stroke="#263238" stroke-linecap="round" stroke-linejoin="round"/>
<path d="M112.134 271.451C112.134 271.451 110.168 267.566 114.829 261.688C119.49 255.81 122.127 256.622 122.127 256.622" fill="white"/>
<path d="M112.134 271.451C112.134 271.451 110.168 267.566 114.829 261.688C119.49 255.81 122.127 256.622 122.127 256.622" stroke="#263238" stroke-linecap="round" stroke-linejoin="round"/>
<path d="M95.8406 311.946L107.531 290.678L96.9915 281.351L95.8406 282.277V311.946Z" fill="white"/>
<path d="M96.8857 292.124C96.9417 292.125 96.9963 292.106 97.04 292.071L100.334 289.425C100.379 289.383 100.407 289.325 100.411 289.263C100.416 289.201 100.396 289.139 100.357 289.091C100.318 289.042 100.262 289.01 100.201 289.001C100.139 288.992 100.077 289.007 100.025 289.042L96.7358 291.688C96.6854 291.728 96.653 291.787 96.6455 291.851C96.6381 291.916 96.6563 291.98 96.6961 292.032C96.7185 292.061 96.7472 292.084 96.7801 292.1C96.813 292.116 96.8491 292.124 96.8857 292.124Z" fill="#B2B2B2"/>
<path d="M102.834 295.952C102.809 295.893 102.762 295.846 102.702 295.821C102.643 295.797 102.577 295.796 102.517 295.819C102.457 295.845 102.409 295.893 102.384 295.953C102.36 296.013 102.36 296.081 102.385 296.141L103.311 298.346L103.611 297.799L102.834 295.952Z" fill="#B2B2B2"/>
<path d="M95.8406 311.946L107.531 290.678L96.9915 281.351L95.8406 282.277V311.946Z" stroke="#263238" stroke-linecap="round" stroke-linejoin="round"/>
<path d="M98.8127 276.69L95.8406 281.016V284.328L107.734 293.518L114.22 284.597L98.8127 276.69Z" fill="white" stroke="#263238" stroke-linecap="round" stroke-linejoin="round"/>
<path d="M121.754 344.286C125.21 343.943 127.733 340.863 127.39 337.407C127.047 333.951 123.967 331.428 120.512 331.771C117.056 332.114 114.532 335.194 114.875 338.65C115.218 342.106 118.298 344.629 121.754 344.286Z" fill="white" stroke="#263238" stroke-width="0.724166" stroke-linecap="round" stroke-linejoin="round"/>
<path d="M121.139 339.581C120.802 339.581 120.479 339.448 120.241 339.209C120.003 338.971 119.869 338.648 119.869 338.311V334.29C119.869 333.953 120.003 333.63 120.241 333.392C120.479 333.154 120.802 333.02 121.139 333.02C121.475 333.021 121.797 333.155 122.034 333.393C122.271 333.631 122.405 333.954 122.405 334.29V338.311C122.405 338.647 122.271 338.97 122.034 339.208C121.797 339.446 121.475 339.58 121.139 339.581Z" fill="#263238"/>
<path d="M121.139 340.494C120.544 340.493 119.974 340.256 119.553 339.835C119.133 339.415 118.896 338.845 118.895 338.25V336.362C118.895 336.3 118.919 336.241 118.963 336.197C119.007 336.153 119.066 336.129 119.128 336.129C119.159 336.129 119.189 336.135 119.217 336.146C119.245 336.158 119.271 336.175 119.292 336.197C119.313 336.219 119.33 336.245 119.341 336.273C119.353 336.301 119.358 336.332 119.358 336.362V338.25C119.358 338.722 119.545 339.174 119.879 339.508C120.212 339.841 120.665 340.029 121.137 340.029C121.609 340.029 122.061 339.841 122.395 339.508C122.729 339.174 122.916 338.722 122.916 338.25V336.362C122.916 336.3 122.941 336.241 122.985 336.197C123.028 336.153 123.088 336.129 123.15 336.129C123.212 336.129 123.271 336.153 123.315 336.197C123.359 336.241 123.384 336.3 123.384 336.362V338.25C123.382 338.845 123.146 339.415 122.725 339.835C122.304 340.256 121.734 340.493 121.139 340.494Z" fill="#263238"/>
<path d="M121.139 342.906C121.077 342.906 121.018 342.882 120.974 342.838C120.93 342.794 120.905 342.735 120.905 342.673V340.26C120.905 340.198 120.93 340.139 120.974 340.095C121.018 340.051 121.077 340.027 121.139 340.027C121.201 340.027 121.261 340.051 121.304 340.095C121.348 340.139 121.373 340.198 121.373 340.26V342.673C121.373 342.735 121.348 342.794 121.304 342.838C121.261 342.882 121.201 342.906 121.139 342.906Z" fill="#263238"/>
<path d="M122.682 343.03H119.596C119.536 343.026 119.48 343 119.439 342.957C119.398 342.913 119.375 342.856 119.375 342.796C119.375 342.766 119.381 342.735 119.393 342.707C119.405 342.679 119.422 342.654 119.444 342.632C119.466 342.611 119.491 342.594 119.52 342.583C119.548 342.572 119.578 342.566 119.609 342.567H122.696C122.757 342.567 122.815 342.591 122.858 342.634C122.901 342.677 122.925 342.735 122.925 342.796C122.926 342.828 122.92 342.859 122.908 342.888C122.896 342.918 122.878 342.944 122.855 342.966C122.832 342.988 122.805 343.005 122.775 343.016C122.746 343.027 122.714 343.032 122.682 343.03Z" fill="#263238"/>
<path d="M164.231 344.13C167.61 343.327 169.698 339.937 168.895 336.558C168.092 333.18 164.702 331.092 161.323 331.895C157.944 332.698 155.856 336.088 156.659 339.467C157.462 342.845 160.852 344.933 164.231 344.13Z" fill="white" stroke="#263238" stroke-width="0.724166" stroke-linecap="round" stroke-linejoin="round"/>
<path d="M166.643 336.182L164.795 337.244V336.362C164.795 336.164 164.716 335.973 164.576 335.832C164.435 335.692 164.244 335.613 164.046 335.613H159.896C159.697 335.613 159.507 335.692 159.366 335.832C159.225 335.973 159.146 336.164 159.146 336.362V339.709C159.146 339.908 159.225 340.099 159.366 340.239C159.507 340.38 159.697 340.459 159.896 340.459H164.046C164.244 340.459 164.435 340.38 164.576 340.239C164.716 340.099 164.795 339.908 164.795 339.709V338.827L166.63 339.89L166.643 336.182Z" fill="#263238"/>
<path d="M143.413 344.133C146.792 343.33 148.88 339.94 148.077 336.561C147.273 333.183 143.883 331.095 140.505 331.898C137.126 332.701 135.038 336.091 135.841 339.469C136.644 342.848 140.034 344.936 143.413 344.133Z" fill="#263238" stroke="#263238" stroke-width="0.724166" stroke-linecap="round" stroke-linejoin="round"/>
<path d="M145.132 336.697H138.778C138.601 336.697 138.427 336.735 138.267 336.81C138.107 336.885 137.966 336.994 137.853 337.13C137.74 337.265 137.659 337.424 137.614 337.595C137.57 337.765 137.564 337.944 137.596 338.117L137.781 339.11C137.794 339.178 137.83 339.239 137.883 339.284C137.936 339.328 138.003 339.352 138.072 339.352H139.991C140.069 339.352 140.144 339.321 140.2 339.265C140.255 339.21 140.286 339.135 140.286 339.057V337.976H143.629V339.057C143.629 339.135 143.66 339.21 143.715 339.265C143.771 339.321 143.846 339.352 143.924 339.352H145.833C145.903 339.352 145.97 339.328 146.023 339.284C146.076 339.239 146.112 339.178 146.124 339.11L146.31 338.117C146.342 337.944 146.336 337.766 146.292 337.596C146.248 337.425 146.166 337.267 146.054 337.131C145.942 336.996 145.801 336.887 145.642 336.812C145.482 336.737 145.308 336.698 145.132 336.697Z" fill="#369AFE"/>
<path d="M193.855 231.601C193.94 231.601 194.024 231.585 194.103 231.553C194.182 231.521 194.253 231.474 194.313 231.414C194.374 231.354 194.421 231.283 194.454 231.204C194.487 231.126 194.503 231.042 194.503 230.957V213.614C194.503 213.529 194.487 213.445 194.454 213.366C194.421 213.288 194.374 213.217 194.313 213.157C194.253 213.097 194.182 213.05 194.103 213.018C194.024 212.985 193.94 212.969 193.855 212.97H192.171V179.844C192.171 178.75 191.956 177.667 191.538 176.657C191.12 175.646 190.507 174.728 189.734 173.954C188.961 173.181 188.043 172.567 187.032 172.148C186.022 171.73 184.939 171.514 183.845 171.514H102.539C101.445 171.514 100.362 171.73 99.3519 172.148C98.3415 172.567 97.4235 173.181 96.6504 173.954C95.8772 174.728 95.264 175.646 94.8459 176.657C94.4278 177.667 94.2128 178.75 94.2134 179.844V350.786C94.2134 352.994 95.0906 355.112 96.6519 356.673C98.2133 358.235 100.331 359.112 102.539 359.112H183.845C186.053 359.112 188.171 358.235 189.732 356.673C191.294 355.112 192.171 352.994 192.171 350.786V246.51H193.855C194.026 246.51 194.191 246.442 194.312 246.322C194.433 246.201 194.502 246.037 194.503 245.866V238.149C194.503 238.064 194.487 237.98 194.454 237.902C194.421 237.823 194.374 237.752 194.313 237.692C194.253 237.633 194.182 237.585 194.103 237.553C194.024 237.521 193.94 237.505 193.855 237.505H192.171V231.601H193.855ZM189.357 344.3C189.347 345.09 189.181 345.871 188.869 346.597C188.557 347.324 188.105 347.981 187.538 348.533C186.972 349.084 186.303 349.519 185.568 349.812C184.834 350.105 184.049 350.25 183.259 350.24H103.13C102.339 350.251 101.554 350.106 100.819 349.813C100.084 349.521 99.4141 349.086 98.8474 348.534C98.2806 347.983 97.828 347.325 97.5157 346.598C97.2033 345.872 97.0372 345.091 97.0268 344.3V181.643C97.0372 180.852 97.2033 180.071 97.5156 179.344C97.8279 178.617 98.2804 177.959 98.8471 177.407C99.4138 176.855 100.084 176.42 100.819 176.127C101.553 175.834 102.339 175.688 103.13 175.699H134.712L136.035 178.133C136.744 179.412 137.783 180.478 139.043 181.22C140.303 181.962 141.738 182.354 143.201 182.354C144.663 182.354 146.099 181.962 147.359 181.22C148.619 180.478 149.658 179.412 150.367 178.133L151.69 175.699H183.276C184.87 175.682 186.406 176.299 187.546 177.414C188.686 178.528 189.338 180.049 189.357 181.643V344.3Z" fill="#263238" stroke="#263238" stroke-linecap="round" stroke-linejoin="round"/>
<path d="M145.366 176.629C145.366 176.2 145.239 175.78 145 175.422C144.761 175.065 144.422 174.786 144.025 174.621C143.628 174.457 143.191 174.413 142.77 174.497C142.348 174.58 141.961 174.787 141.656 175.091C141.352 175.394 141.145 175.781 141.06 176.203C140.976 176.624 141.018 177.061 141.182 177.458C141.346 177.856 141.624 178.196 141.981 178.435C142.338 178.674 142.758 178.803 143.188 178.803C143.473 178.804 143.757 178.748 144.021 178.639C144.285 178.53 144.525 178.37 144.728 178.168C144.93 177.966 145.091 177.727 145.2 177.462C145.31 177.198 145.366 176.915 145.366 176.629Z" fill="white" stroke="#263238" stroke-linecap="round" stroke-linejoin="round"/>
<path d="M130.62 186.494H103.787V232.686H130.62V186.494Z" fill="white" stroke="white" stroke-width="3" stroke-linecap="round" stroke-linejoin="round"/>
<path d="M130.62 232.686V218.575C130.405 218.288 130.151 218.033 129.866 217.816C127.621 216.118 120.645 216.992 119.327 217.066C118.008 217.141 116.064 217.137 116.064 217.137C116.064 217.137 112.183 217.274 108.92 217.41C107.939 217.475 106.985 217.76 106.13 218.245C105.274 218.73 104.54 219.402 103.981 220.211V232.686H130.62Z" fill="#369AFE" stroke="#263238" stroke-linecap="round" stroke-linejoin="round"/>
<path d="M113.202 217.155C112.29 217.315 111.454 217.766 110.818 218.44C110.183 219.114 109.781 219.974 109.674 220.894C109.198 224.228 110.353 226.27 113.074 228.104C114.677 229.186 116.194 230.39 117.611 231.707C117.611 231.707 123.392 226.812 124.274 223.681C125.156 220.55 123.869 217.834 122.44 217.358C121.011 216.881 113.202 217.155 113.202 217.155Z" fill="#A3A3A3" stroke="#263238" stroke-miterlimit="10"/>
<path d="M130.62 232.686V229.383L129.526 229.669L129.152 232.686H130.62Z" fill="#A3A3A3" stroke="#263238" stroke-miterlimit="10"/>
<path d="M106.706 232.686L106.472 231.707L103.981 231.46V232.686H106.706Z" fill="#A3A3A3" stroke="#263238" stroke-miterlimit="10"/>
<path d="M105.114 225.52L106.49 231.429" stroke="#263238" stroke-miterlimit="10"/>
<path d="M129.518 211.387C129.756 211.202 130.183 210.946 130.633 210.602V197.602C130.13 197.161 129.337 196.905 129.156 196.341C128.883 195.503 129.791 194.383 129.156 193.356C128.521 192.328 126.069 193.263 124.892 192.981C123.714 192.698 123.441 192.143 122.991 191.115C122.541 190.088 120.8 190.555 120.257 190.661C119.715 190.767 121.615 188.897 120.619 187.768C119.622 186.64 116.355 187.676 115.993 188.796C115.631 189.916 114.269 188.796 113.907 187.861C113.546 186.926 110.917 186.097 110.917 187.768C110.91 188.082 110.966 188.394 111.082 188.686C111.198 188.978 111.371 189.243 111.592 189.466C110.732 188.924 109.352 188.249 108.466 188.796C107.107 189.634 109.193 190.754 109.193 190.754H106.653C105.717 190.803 104.804 191.061 103.981 191.508V194.961H104.025H103.981V216.304C104.951 216.304 105.657 216.008 105.657 216.498C105.657 217.243 105.93 218.641 107.381 218.085C108.832 217.53 110.027 216.498 110.027 217.243C110.027 217.988 110.75 219.39 111.658 219.007C112.567 218.623 113.202 216.767 113.744 217.609C114.286 218.451 115.649 219.752 116.557 218.822C117.466 217.891 117.916 217.141 119.005 218.539C120.094 219.937 121.452 220.219 121.814 218.822C122.175 217.424 122.996 218.076 124.354 218.822C125.712 219.567 127.71 219.192 127.71 217.794C127.71 216.396 126.982 215.184 127.89 214.994C128.799 214.804 130.611 214.249 130.157 213.314C129.703 212.379 128.781 211.925 129.518 211.387Z" fill="#263238"/>
<path d="M129.235 231.698C129.512 229.478 129.791 227.26 130.073 225.044" stroke="#263238" stroke-miterlimit="10"/>
<path d="M113.479 222.12C113.479 222.12 113.682 218.513 113.682 217.269V214.412L120.209 214.002C120.209 214.002 120.548 219.104 121.911 221.212" fill="#A3A3A3"/>
<path d="M113.479 222.12C113.479 222.12 113.682 218.513 113.682 217.269V214.412L120.209 214.002C120.209 214.002 120.548 219.104 121.911 221.212" stroke="#263238" stroke-miterlimit="10"/>
<path d="M109.118 206.748C109.118 206.748 107.729 208.269 107.729 208.789C107.729 209.31 108.686 210.699 109.423 210.915C110.159 211.131 110.419 210.615 110.419 210.311C110.419 210.007 109.118 206.748 109.118 206.748Z" fill="#A3A3A3" stroke="#263238" stroke-linecap="round" stroke-linejoin="round"/>
<path d="M123 206.139C123 206.139 124.874 206.99 125.081 207.462C125.289 207.934 124.953 209.592 124.358 210.082C124.283 210.171 124.187 210.24 124.078 210.281C123.969 210.323 123.851 210.336 123.735 210.32C123.62 210.304 123.51 210.258 123.417 210.188C123.324 210.118 123.25 210.025 123.203 209.918C123.084 209.645 123 206.139 123 206.139Z" fill="#A3A3A3" stroke="#263238" stroke-miterlimit="10"/>
<path d="M111.23 198.189C111.23 198.189 108.713 199.833 108.422 202.157C108.13 204.481 110.185 211.934 111.036 213.182C111.888 214.429 116.65 217.34 118.004 217.15C119.358 216.961 122.555 212.599 123.137 211.629C123.719 210.659 123.234 203.405 122.749 200.305C122.264 197.205 118.877 196.53 115.693 196.53C112.509 196.53 111.23 198.189 111.23 198.189Z" fill="#A3A3A3" stroke="#263238" stroke-linecap="round" stroke-linejoin="round"/>
<path d="M114.551 205.703C114.551 206.144 114.326 206.523 114.044 206.523C113.762 206.523 113.537 206.153 113.537 205.703C113.537 205.253 113.766 204.878 114.044 204.878C114.322 204.878 114.551 205.249 114.551 205.703Z" fill="#263238"/>
<path d="M119.984 205.072C119.984 205.513 119.759 205.892 119.477 205.892C119.194 205.892 118.97 205.526 118.97 205.072C118.97 204.618 119.199 204.252 119.477 204.252C119.754 204.252 119.984 204.618 119.984 205.072Z" fill="#263238"/>
<path d="M117.611 204.265C117.611 204.265 117.404 206.752 117.96 206.911C118.515 207.07 118.996 208.291 117.96 208.706C116.923 209.12 116.438 208.64 116.297 208.154" stroke="#263238" stroke-linecap="round" stroke-linejoin="round"/>
<path d="M112.62 206.96L114.485 206.893" stroke="#263238" stroke-width="0.5" stroke-linecap="round" stroke-linejoin="round"/>
<path d="M119.322 206.338L120.914 205.579" stroke="#263238" stroke-width="0.5" stroke-linecap="round" stroke-linejoin="round"/>
<path d="M110.357 197.417C110.357 197.417 112.002 197.898 111.425 198.674C110.847 199.45 109.683 200.707 110.543 200.879C111.402 201.051 111.61 201.267 111.028 201.456C110.446 201.646 109.383 202.523 110.931 202.717C112.478 202.911 113.135 202.523 113.643 201.17C114.15 199.816 114.123 200.199 115.287 200.879C116.452 201.558 117.32 199.428 116.835 198.674C116.35 197.92 115.578 198.48 115.675 197.32C115.715 196.654 115.95 196.015 116.35 195.481L117.801 196.363C117.801 196.363 116.641 197.333 117.514 198.202C118.387 199.071 119.45 199.269 118.771 199.463C118.092 199.657 117.126 200.817 118.383 201.011C119.64 201.205 120.513 200.332 120.513 199.556C120.513 198.78 119.931 198.008 120.513 197.43L121.77 196.169C121.77 196.169 121.58 194.63 118.101 194.026C114.622 193.422 111.813 194.908 111.23 195.481C110.648 196.054 110.357 197.417 110.357 197.417Z" fill="#263238"/>
<path d="M113.643 210.558C113.643 210.558 115.089 212.529 115.944 213.005C116.8 213.481 118.507 213.301 119.283 212.674C120.059 212.048 120.654 209.835 120.654 209.835C119.483 210.391 118.217 210.719 116.923 210.8C115.824 210.86 114.721 210.778 113.643 210.558Z" fill="#A6A6A6" stroke="#263238" stroke-width="0.5" stroke-miterlimit="10"/>
<path d="M115.195 211.153C115.443 211.457 115.756 211.701 116.111 211.869C116.465 212.037 116.853 212.124 117.245 212.123C117.81 212.087 118.352 211.886 118.805 211.546C119.258 211.206 119.601 210.742 119.794 210.209L114.502 210.712L115.195 211.153Z" fill="white" stroke="#263238" stroke-linecap="round" stroke-linejoin="round"/>
<path d="M120.8 209.544C120.386 209.815 119.901 209.956 119.406 209.949C118.751 209.991 118.102 210.101 117.47 210.28C116.937 210.171 116.384 210.192 115.861 210.342C115.048 210.473 114.22 210.484 113.404 210.373C113.404 210.373 114.555 211.158 117.342 210.95C120.531 210.717 120.8 209.544 120.8 209.544Z" fill="#808080" stroke="#263238" stroke-width="0.5" stroke-miterlimit="10"/>
<path d="M111.535 204.093C111.901 203.617 112.38 203.24 112.928 202.995C114.114 202.417 114.846 202.704 114.846 202.704" stroke="#263238" stroke-width="2" stroke-miterlimit="10" stroke-linecap="round"/>
<path d="M117.942 201.91C118.297 201.718 118.688 201.598 119.09 201.559C119.492 201.52 119.898 201.561 120.284 201.681C120.674 201.807 121.021 202.041 121.285 202.356" stroke="#263238" stroke-width="2" stroke-miterlimit="10" stroke-linecap="round"/>
<path d="M47.938 359.112H245.052" stroke="#263238" stroke-linecap="round" stroke-linejoin="round"/>
</svg>
