<svg width="347" height="362" viewBox="0 0 347 362" fill="none" xmlns="http://www.w3.org/2000/svg">
<g clip-path="url(#clip0_36_6509)">
<rect width="347" height="362" fill="#EBF5FF"/>
<path d="M90.8475 25.206C90.767 24.9077 90.6486 24.6449 90.4924 24.4176C90.3361 24.1856 90.1444 23.9891 89.9171 23.8281C89.6898 23.6671 89.4294 23.5464 89.1358 23.4659C88.8423 23.3807 88.5203 23.3381 88.1699 23.3381C87.4644 23.3381 86.8536 23.5085 86.3375 23.8494C85.8262 24.1903 85.4308 24.6875 85.1515 25.3409C84.8721 25.9896 84.7324 26.7779 84.7324 27.706C84.7324 28.6387 84.8674 29.4342 85.1373 30.0923C85.4071 30.7505 85.7978 31.2524 86.3091 31.598C86.8205 31.9437 87.4408 32.1165 88.1699 32.1165C88.8139 32.1165 89.3584 32.0123 89.8034 31.804C90.2533 31.5909 90.5942 31.2902 90.8262 30.902C91.0582 30.5137 91.1742 30.0568 91.1742 29.5312L91.8276 29.6094H88.2907V27.0455H94.562V28.9702C94.562 30.2723 94.285 31.3873 93.731 32.3153C93.1818 33.2434 92.4242 33.956 91.4583 34.4531C90.4971 34.9503 89.3915 35.1989 88.1415 35.1989C86.7542 35.1989 85.535 34.8982 84.4838 34.2969C83.4327 33.6955 82.6136 32.8385 82.0265 31.7259C81.4393 30.6084 81.1458 29.2827 81.1458 27.7486C81.1458 26.5554 81.3233 25.4972 81.6784 24.5739C82.0336 23.6458 82.5283 22.8598 83.1628 22.2159C83.802 21.572 84.5407 21.0843 85.3787 20.7528C86.2215 20.4214 87.1283 20.2557 88.0989 20.2557C88.9417 20.2557 89.7253 20.3764 90.4498 20.6179C91.1789 20.8594 91.8229 21.2003 92.3816 21.6406C92.945 22.081 93.4019 22.6042 93.7523 23.2102C94.1027 23.8163 94.3205 24.4815 94.4057 25.206H90.8475ZM95.7846 20.4545H99.7122L102.787 26.5412H102.915L105.991 20.4545H109.918L104.599 30.142V35H101.104V30.142L95.7846 20.4545ZM111.892 20.4545H116.246L119.939 29.4602H120.109L123.802 20.4545H128.156V35H124.733V26.0653H124.612L121.118 34.9077H118.93L115.436 26.0156H115.315V35H111.892V20.4545ZM140.22 35.2202C139.197 35.2202 138.314 35.0379 137.57 34.6733C136.832 34.3087 136.264 33.8187 135.866 33.2031C135.468 32.5829 135.269 31.8939 135.269 31.1364C135.269 30.5777 135.378 30.0852 135.596 29.6591C135.819 29.2282 136.124 28.8329 136.512 28.473C136.905 28.1084 137.362 27.7509 137.883 27.4006L140.937 25.4474C141.283 25.2296 141.526 25 141.669 24.7585C141.815 24.517 141.889 24.2756 141.889 24.0341C141.889 23.7737 141.787 23.5369 141.583 23.3239C141.384 23.1108 141.088 23.0066 140.695 23.0114C140.445 23.0114 140.227 23.0634 140.042 23.1676C139.857 23.2718 139.713 23.4115 139.609 23.5866C139.509 23.7618 139.46 23.9607 139.46 24.1832C139.46 24.4721 139.543 24.768 139.708 25.071C139.874 25.3741 140.097 25.696 140.376 26.0369C140.66 26.3778 140.975 26.7543 141.32 27.1662L148.288 35H144.751L138.92 28.6719C138.588 28.3026 138.24 27.8883 137.876 27.429C137.511 26.9697 137.204 26.4678 136.953 25.9233C136.702 25.3741 136.576 24.7775 136.576 24.1335C136.576 23.4091 136.747 22.7533 137.088 22.1662C137.428 21.5791 137.907 21.1127 138.522 20.767C139.142 20.4167 139.865 20.2415 140.688 20.2415C141.484 20.2415 142.17 20.4048 142.748 20.7315C143.326 21.0582 143.771 21.4915 144.083 22.0312C144.396 22.571 144.552 23.1629 144.552 23.8068C144.552 24.4886 144.384 25.116 144.048 25.6889C143.712 26.2571 143.236 26.7614 142.62 27.2017L139.63 29.3395C139.313 29.5668 139.064 29.8106 138.884 30.071C138.704 30.3267 138.615 30.6061 138.615 30.9091C138.615 31.2216 138.688 31.4938 138.835 31.7259C138.986 31.9579 139.199 32.1402 139.474 32.2727C139.749 32.4053 140.07 32.4716 140.44 32.4716C140.932 32.4716 141.425 32.3556 141.917 32.1236C142.41 31.8868 142.859 31.5554 143.267 31.1293C143.674 30.6984 144 30.1894 144.247 29.6023C144.493 29.0104 144.616 28.3617 144.616 27.6562H147.414C147.414 28.5275 147.322 29.3371 147.137 30.0852C146.953 30.8286 146.676 31.4962 146.306 32.0881C145.942 32.6752 145.49 33.1629 144.95 33.5511C144.779 33.6458 144.614 33.7358 144.453 33.821C144.292 33.9062 144.126 33.9962 143.955 34.0909C143.397 34.4934 142.791 34.7822 142.137 34.9574C141.489 35.1326 140.849 35.2202 140.22 35.2202ZM158.141 35L153.908 20.4545H157.793L159.987 29.9858H160.108L162.615 20.4545H165.783L168.29 30.0071H168.411L170.612 20.4545H174.49L170.264 35H166.877L164.256 26.179H164.142L161.521 35H158.141ZM176.443 35V20.4545H186.585V23.3097H179.958V26.2926H186.066V29.1548H179.958V32.1449H186.585V35H176.443ZM189.286 35V20.4545H192.802V32.1449H198.853V35H189.286ZM201.173 35V20.4545H204.689V32.1449H210.74V35H201.173ZM225.439 20.4545V35H222.456L216.668 26.6051H216.575V35H213.06V20.4545H216.085L221.81 28.8352H221.931V20.4545H225.439ZM228.15 35V20.4545H238.292V23.3097H231.665V26.2926H237.773V29.1548H231.665V32.1449H238.292V35H228.15ZM248.856 24.8153C248.808 24.2945 248.598 23.8897 248.224 23.6009C247.854 23.3073 247.326 23.1605 246.64 23.1605C246.185 23.1605 245.806 23.2197 245.503 23.3381C245.2 23.4564 244.973 23.6198 244.822 23.8281C244.67 24.0317 244.592 24.2661 244.587 24.5312C244.578 24.7491 244.62 24.9408 244.715 25.1065C244.814 25.2723 244.956 25.419 245.141 25.5469C245.331 25.67 245.558 25.7789 245.823 25.8736C246.088 25.9683 246.386 26.0511 246.718 26.1222L247.968 26.4062C248.688 26.5625 249.322 26.7708 249.871 27.0312C250.425 27.2917 250.889 27.6018 251.263 27.9616C251.642 28.3215 251.929 28.7358 252.123 29.2045C252.317 29.6733 252.416 30.1989 252.421 30.7812C252.416 31.6998 252.184 32.4882 251.725 33.1463C251.266 33.8045 250.605 34.3087 249.743 34.6591C248.886 35.0095 247.852 35.1847 246.64 35.1847C245.423 35.1847 244.362 35.0024 243.458 34.6378C242.554 34.2732 241.85 33.7192 241.349 32.9759C240.847 32.2325 240.589 31.2926 240.574 30.1562H243.941C243.969 30.625 244.095 31.0156 244.317 31.3281C244.54 31.6406 244.845 31.8774 245.233 32.0384C245.626 32.1993 246.081 32.2798 246.597 32.2798C247.071 32.2798 247.473 32.2159 247.805 32.0881C248.141 31.9602 248.399 31.7827 248.579 31.5554C248.759 31.3281 248.851 31.0677 248.856 30.7741C248.851 30.4995 248.766 30.2652 248.6 30.071C248.434 29.8722 248.179 29.7017 247.833 29.5597C247.492 29.4129 247.056 29.2779 246.526 29.1548L245.006 28.7997C243.747 28.5109 242.755 28.0445 242.03 27.4006C241.306 26.7519 240.946 25.8759 240.951 24.7727C240.946 23.8731 241.188 23.0848 241.675 22.4077C242.163 21.7306 242.838 21.2027 243.699 20.8239C244.561 20.4451 245.544 20.2557 246.647 20.2557C247.774 20.2557 248.751 20.4474 249.58 20.831C250.413 21.2098 251.06 21.7424 251.519 22.429C251.978 23.1155 252.213 23.911 252.222 24.8153H248.856ZM262.559 24.8153C262.511 24.2945 262.301 23.8897 261.927 23.6009C261.557 23.3073 261.029 23.1605 260.343 23.1605C259.888 23.1605 259.51 23.2197 259.206 23.3381C258.903 23.4564 258.676 23.6198 258.525 23.8281C258.373 24.0317 258.295 24.2661 258.29 24.5312C258.281 24.7491 258.323 24.9408 258.418 25.1065C258.518 25.2723 258.66 25.419 258.844 25.5469C259.034 25.67 259.261 25.7789 259.526 25.8736C259.791 25.9683 260.09 26.0511 260.421 26.1222L261.671 26.4062C262.391 26.5625 263.025 26.7708 263.574 27.0312C264.128 27.2917 264.592 27.6018 264.966 27.9616C265.345 28.3215 265.632 28.7358 265.826 29.2045C266.02 29.6733 266.119 30.1989 266.124 30.7812C266.119 31.6998 265.887 32.4882 265.428 33.1463C264.969 33.8045 264.308 34.3087 263.447 34.6591C262.59 35.0095 261.555 35.1847 260.343 35.1847C259.126 35.1847 258.065 35.0024 257.161 34.6378C256.257 34.2732 255.554 33.7192 255.052 32.9759C254.55 32.2325 254.292 31.2926 254.278 30.1562H257.644C257.672 30.625 257.798 31.0156 258.02 31.3281C258.243 31.6406 258.548 31.8774 258.937 32.0384C259.33 32.1993 259.784 32.2798 260.3 32.2798C260.774 32.2798 261.176 32.2159 261.508 32.0881C261.844 31.9602 262.102 31.7827 262.282 31.5554C262.462 31.3281 262.554 31.0677 262.559 30.7741C262.554 30.4995 262.469 30.2652 262.303 30.071C262.137 29.8722 261.882 29.7017 261.536 29.5597C261.195 29.4129 260.76 29.2779 260.229 29.1548L258.709 28.7997C257.45 28.5109 256.458 28.0445 255.733 27.4006C255.009 26.7519 254.649 25.8759 254.654 24.7727C254.649 23.8731 254.891 23.0848 255.378 22.4077C255.866 21.7306 256.541 21.2027 257.403 20.8239C258.264 20.4451 259.247 20.2557 260.35 20.2557C261.477 20.2557 262.455 20.4474 263.283 20.831C264.117 21.2098 264.763 21.7424 265.222 22.429C265.681 23.1155 265.916 23.911 265.925 24.8153H262.559Z" fill="#676767"/>
<path opacity="0.1" d="M52 47.5H287.646" stroke="#0080FF"/>
<path d="M319.502 251.872H28.3232V254.526H319.502V251.872Z" fill="#263238"/>
<path d="M251.663 253.438V106.416" stroke="#263238" stroke-linecap="round" stroke-linejoin="round"/>
<path d="M120.162 253.438V107.331" stroke="#263238" stroke-linecap="round" stroke-linejoin="round"/>
<path d="M36.2129 181.269H308.99" stroke="#263238" stroke-linecap="round" stroke-linejoin="round"/>
<path d="M36.2129 321.348H308.99" stroke="#263238" stroke-linecap="round" stroke-linejoin="round"/>
<path d="M202.866 154.687L201.058 155.799" stroke="#263238" stroke-width="0.5" stroke-linecap="round" stroke-linejoin="round"/>
<path d="M233.252 135.964L205.285 153.192" stroke="#263238" stroke-width="0.5" stroke-linecap="round" stroke-linejoin="round"/>
<path d="M236.939 137.123L214.537 150.93" stroke="#263238" stroke-width="0.5" stroke-linecap="round" stroke-linejoin="round"/>
<path d="M246.724 131.095L239.961 135.267" stroke="#263238" stroke-width="0.5" stroke-linecap="round" stroke-linejoin="round"/>
<path d="M30.2565 252.036L26.8516 254.134" stroke="#263238" stroke-width="0.5" stroke-linecap="round" stroke-linejoin="round"/>
<path d="M87.5994 216.704L34.8271 249.219" stroke="#263238" stroke-width="0.5" stroke-linecap="round" stroke-linejoin="round"/>
<path d="M94.5599 218.895L52.2842 244.953" stroke="#263238" stroke-width="0.5" stroke-linecap="round" stroke-linejoin="round"/>
<path d="M113.023 207.514L100.257 215.389" stroke="#263238" stroke-width="0.5" stroke-linecap="round" stroke-linejoin="round"/>
<path d="M220.964 249.266L217.559 251.363" stroke="#263238" stroke-width="0.5" stroke-linecap="round" stroke-linejoin="round"/>
<path d="M278.306 213.925L225.534 246.448" stroke="#263238" stroke-width="0.5" stroke-linecap="round" stroke-linejoin="round"/>
<path d="M285.265 216.125L242.989 242.182" stroke="#263238" stroke-width="0.5" stroke-linecap="round" stroke-linejoin="round"/>
<path d="M303.729 204.743L290.963 212.61" stroke="#263238" stroke-width="0.5" stroke-linecap="round" stroke-linejoin="round"/>
<path d="M170 362.387C256.156 362.387 326 355.459 326 346.912C326 338.366 256.156 331.438 170 331.438C83.8436 331.438 14 338.366 14 346.912C14 355.459 83.8436 362.387 170 362.387Z" fill="#369AFE"/>
<path opacity="0.5" d="M170 362.387C256.156 362.387 326 355.459 326 346.912C326 338.366 256.156 331.438 170 331.438C83.8436 331.438 14 338.366 14 346.912C14 355.459 83.8436 362.387 170 362.387Z" fill="white"/>
<path d="M212.685 233.681C208.92 236.812 206.25 240.561 203.033 244.569C200.252 247.848 197.672 251.293 195.308 254.886C191.621 260.85 199.409 310.499 199.409 310.499L191.997 313.286C191.997 313.286 175.739 266.533 174.307 256.021C172.874 245.508 184.819 226.198 189.962 221.369C195.104 216.539 213.256 213.408 219.784 220.797C223.565 225.071 219.894 228.906 216.176 231.192C214.953 231.936 213.786 232.768 212.685 233.681Z" fill="#263238" stroke="#263238" stroke-linecap="round" stroke-linejoin="round"/>
<path d="M203.134 320.941C203.134 319.423 200.958 314.1 199.416 310.523C194.876 312.527 191.91 312.331 191.91 312.331C190.938 313.009 190.135 313.901 189.562 314.937C188.779 316.503 183.041 319.117 179.91 320.158C176.779 321.199 174.956 322.765 176.779 324.072C178.603 325.379 191.652 324.596 196.348 323.814C201.044 323.031 203.134 323.289 203.134 320.941Z" fill="white" stroke="#263238" stroke-linecap="round" stroke-linejoin="round"/>
<path d="M189.568 314.914C188.786 316.479 183.048 319.094 179.917 320.135C176.786 321.176 174.963 322.741 176.786 324.048C178.61 325.356 191.658 324.573 196.355 323.79C201.051 323.007 203.133 323.289 203.133 320.941C203.133 319.923 202.147 317.192 201.043 314.421L193.74 316.245L191.909 312.331C190.943 313.003 190.143 313.887 189.568 314.914Z" fill="white" stroke="#263238" stroke-linecap="round" stroke-linejoin="round"/>
<path d="M132.923 240.319H141.58C142.165 240.319 142.744 240.44 143.28 240.675C143.815 240.91 144.297 241.254 144.693 241.684C145.089 242.114 145.392 242.622 145.583 243.175C145.773 243.728 145.847 244.315 145.799 244.898L144.672 258.831L132.688 256.075L132.923 240.319Z" fill="white" stroke="#263238" stroke-miterlimit="10"/>
<path d="M181.93 279.221C170.386 280.088 158.978 282.268 147.928 285.718C147.928 285.718 155.927 297.968 147.928 313.975L181.429 329.982L195.432 287.471L181.93 279.221ZM170.58 296.144L166.346 308.339C166.168 308.854 165.802 309.283 165.322 309.54C164.841 309.797 164.282 309.863 163.755 309.725L153.18 306.977C153.18 306.977 155.685 302.727 154.683 294.453L168.349 293.248C168.712 293.216 169.077 293.275 169.411 293.422C169.745 293.568 170.036 293.796 170.259 294.084C170.481 294.373 170.627 294.713 170.683 295.073C170.739 295.433 170.704 295.801 170.58 296.144Z" fill="white"/>
<path opacity="0.31" d="M181.93 279.221C170.386 280.088 158.978 282.268 147.928 285.718C147.928 285.718 155.927 297.968 147.928 313.975L181.429 329.982L195.432 287.471L181.93 279.221ZM170.58 296.144L166.346 308.339C166.168 308.854 165.802 309.283 165.322 309.54C164.841 309.797 164.282 309.863 163.755 309.725L153.18 306.977C153.18 306.977 155.685 302.727 154.683 294.453L168.349 293.248C168.712 293.216 169.077 293.275 169.411 293.422C169.745 293.568 170.036 293.796 170.259 294.084C170.481 294.373 170.627 294.713 170.683 295.073C170.739 295.433 170.704 295.801 170.58 296.144Z" fill="black" stroke="#263238" stroke-miterlimit="10"/>
<path d="M181.93 279.221C170.386 280.088 158.978 282.268 147.928 285.718C147.928 285.718 155.927 297.968 147.928 313.975L181.429 329.982L195.432 287.471L181.93 279.221ZM170.58 296.144L166.346 308.339C166.168 308.854 165.802 309.283 165.322 309.54C164.841 309.797 164.282 309.863 163.755 309.725L153.18 306.977C153.18 306.977 155.685 302.727 154.683 294.453L168.349 293.248C168.712 293.216 169.077 293.275 169.411 293.422C169.745 293.568 170.036 293.796 170.259 294.084C170.481 294.373 170.627 294.713 170.683 295.073C170.739 295.433 170.704 295.801 170.58 296.144V296.144Z" stroke="#263238" stroke-miterlimit="10"/>
<path d="M130.441 250.808C130.441 250.808 194.235 263.331 245.113 340.823H232.198C232.198 340.823 190.712 278.595 132.398 259.809L130.441 250.808Z" fill="#369AFE" stroke="#263238" stroke-miterlimit="10"/>
<path d="M154.895 312.012C161.394 295.871 153.577 277.518 137.436 271.02C121.295 264.522 102.943 272.338 96.4441 288.479C89.9457 304.62 97.7625 322.973 113.903 329.471C130.044 335.97 148.397 328.153 154.895 312.012Z" fill="#263238" stroke="#263238" stroke-miterlimit="10"/>
<path d="M129.614 324.292C142.903 322.114 151.909 309.575 149.731 296.287C147.552 282.998 135.014 273.992 121.725 276.17C108.437 278.349 99.4301 290.887 101.609 304.176C103.787 317.464 116.326 326.471 129.614 324.292Z" fill="#369AFE" stroke="#263238" stroke-miterlimit="10"/>
<path d="M213.717 261.179L209.036 260.795L214.335 234.832L219.016 235.215L213.717 261.179Z" fill="white" stroke="#263238" stroke-miterlimit="10"/>
<path d="M217.811 265.907H212.849V268.153H217.811V265.907Z" fill="white" stroke="#263238" stroke-miterlimit="10"/>
<path d="M203.487 256.224L215.518 257.453L203.73 333.066C203.73 333.066 223.862 337.488 236.143 341.676V348.306C236.143 348.306 211.346 340.94 185.562 338.975C159.779 337.011 125.174 342.662 125.174 342.662V335.539C125.174 335.539 153.157 331.367 176.24 331.625L203.487 256.224Z" fill="white" stroke="#263238" stroke-miterlimit="10"/>
<path d="M220.167 263.065H217.451V270.274H220.167V263.065Z" fill="#263238" stroke="#263238" stroke-linecap="round" stroke-linejoin="round"/>
<path d="M128.808 230.155L119.972 340.615L127.799 341.241L136.636 230.781L128.808 230.155Z" fill="white" stroke="#263238" stroke-width="1.00319" stroke-miterlimit="10"/>
<path d="M131.38 213.038L129.872 231.417L134.553 231.801L136.061 213.422L131.38 213.038Z" fill="white" stroke="#263238" stroke-miterlimit="10"/>
<path d="M208.535 235.623C208.535 235.623 222.523 237.525 230.82 236.335C239.117 235.145 238.17 228.507 236.745 225.196C235.321 221.885 229.873 223.06 223.705 224.014C217.537 224.969 216.12 227.091 210.907 228.28C205.694 229.47 201.428 228.985 201.898 232.069C202.367 235.153 208.535 235.623 208.535 235.623Z" fill="white"/>
<path opacity="0.2" d="M208.536 235.623C208.536 235.623 222.524 237.525 230.821 236.335C239.118 235.145 238.171 228.507 236.746 225.196C235.322 221.885 229.874 223.06 223.706 224.014C217.538 224.969 216.121 227.091 210.908 228.28C205.695 229.47 201.429 228.985 201.899 232.069C202.368 235.153 208.536 235.623 208.536 235.623Z" fill="black" stroke="#263238" stroke-miterlimit="10"/>
<path d="M208.535 235.623C208.535 235.623 222.523 237.525 230.82 236.335C239.117 235.145 238.17 228.507 236.745 225.196C235.321 221.885 229.873 223.06 223.705 224.014C217.537 224.969 216.12 227.091 210.907 228.28C205.694 229.47 201.428 228.985 201.898 232.069C202.367 235.153 208.535 235.623 208.535 235.623Z" stroke="#263238" stroke-miterlimit="10"/>
<path d="M150.283 216.492C142.174 216.492 128.962 215.749 123.428 212.978C115.78 209.158 101.096 195.758 100.47 195.217C100.166 194.94 99.9201 194.605 99.7456 194.233C99.5712 193.86 99.4719 193.457 99.4534 193.046C99.4348 192.635 99.4974 192.224 99.6376 191.837C99.7778 191.45 99.9928 191.095 100.27 190.791C100.548 190.487 100.883 190.241 101.255 190.067C101.628 189.892 102.031 189.793 102.442 189.775C102.853 189.756 103.264 189.819 103.651 189.959C104.038 190.099 104.393 190.314 104.697 190.591C104.838 190.725 119.357 203.945 126.23 207.381C132.163 210.348 152.475 210.395 155.379 210.121C156.161 209.97 156.972 210.122 157.645 210.548C158.319 210.973 158.805 211.639 159.005 212.411C159.204 213.182 159.102 214 158.719 214.699C158.337 215.398 157.702 215.924 156.945 216.171C154.737 216.463 152.509 216.57 150.283 216.492Z" fill="#263238"/>
<path d="M192.959 302.625L192.747 317.622C192.743 317.908 192.796 318.192 192.902 318.457C193.008 318.722 193.166 318.963 193.366 319.167C193.566 319.371 193.805 319.533 194.068 319.644C194.331 319.755 194.614 319.813 194.9 319.814C195.209 319.815 195.514 319.749 195.796 319.621C196.077 319.494 196.328 319.307 196.53 319.074C196.733 318.841 196.883 318.566 196.971 318.27C197.058 317.974 197.081 317.662 197.037 317.356L194.892 302.155L192.959 302.625Z" fill="#369AFE" stroke="#263238" stroke-miterlimit="10"/>
<path d="M197.413 317.669C197.413 317.135 197.254 316.613 196.958 316.169C196.661 315.725 196.239 315.379 195.746 315.174C195.252 314.97 194.709 314.916 194.185 315.021C193.661 315.125 193.18 315.382 192.803 315.76C192.425 316.137 192.168 316.619 192.064 317.142C191.959 317.666 192.013 318.209 192.217 318.703C192.422 319.196 192.768 319.618 193.212 319.915C193.656 320.211 194.178 320.37 194.712 320.37C195.428 320.37 196.115 320.085 196.622 319.579C197.128 319.072 197.413 318.385 197.413 317.669Z" fill="#369AFE" stroke="#263238" stroke-miterlimit="10"/>
<path d="M201.521 299.432H186.79V302.868H201.521V299.432Z" fill="#263238" stroke="#263238" stroke-linecap="round" stroke-linejoin="round"/>
<path d="M119.288 341.363L111.625 354.184V355.585H125.824V353.581L127.084 342.005L119.288 341.363Z" fill="white" stroke="#263238" stroke-miterlimit="10"/>
<path d="M111.625 354.184H125.229" stroke="#263238" stroke-miterlimit="10"/>
<path d="M245.112 340.823L246.951 354.184L246.936 355.585H229.849L230.044 353.581L232.197 340.823H245.112Z" fill="#369AFE" stroke="#263238" stroke-miterlimit="10"/>
<path d="M246.951 354.184H230.584" stroke="#263238" stroke-miterlimit="10"/>
<path d="M143.325 124.552C143.325 124.552 138.918 128.051 138.464 131.096C138.01 134.14 138.918 137.944 137.854 140.074C136.789 142.203 134.355 142.962 135.114 143.987C135.873 145.013 138.308 145.811 138.308 145.811C138.308 145.811 139.826 151.439 141.352 154.03C142.879 156.621 144.546 159.509 146.98 159.509C148.532 159.444 150 158.792 151.09 157.685C151.09 157.685 157.352 162.554 158.995 163.947C160.639 165.34 171.167 147.776 171.167 147.776L165.688 144.934C166.1 143.955 166.407 142.934 166.604 141.889C167.102 137.92 166.244 133.898 164.169 130.477C160.976 125.014 152.913 118.619 143.325 124.552Z" fill="white"/>
<path d="M165.689 144.942C166.101 143.962 166.408 142.942 166.604 141.897C167.103 137.927 166.245 133.906 164.17 130.485C162.461 127.569 159.965 125.192 156.969 123.628L148.75 129.248C148.75 129.248 146.339 131.056 147.341 133.271C148.343 135.487 152.781 140.715 154.19 144.535C155.599 148.355 153.783 153.388 150.77 155.603C148.985 156.91 146.645 158.217 145.564 159.196C146.004 159.419 146.489 159.537 146.981 159.54C148.533 159.475 150.001 158.823 151.091 157.716C151.091 157.716 155.787 161.356 158.135 163.196L160.069 163.595C163.2 161.098 171.207 147.752 171.207 147.752L165.689 144.942Z" fill="#369AFE"/>
<path opacity="0.5" d="M165.689 144.942C166.101 143.962 166.408 142.942 166.604 141.897C167.103 137.927 166.245 133.906 164.17 130.485C162.461 127.569 159.965 125.192 156.969 123.628L148.75 129.248C148.75 129.248 146.339 131.056 147.341 133.271C148.343 135.487 152.781 140.715 154.19 144.535C155.599 148.355 153.783 153.388 150.77 155.603C148.985 156.91 146.645 158.217 145.564 159.196C146.004 159.419 146.489 159.537 146.981 159.54C148.533 159.475 150.001 158.823 151.091 157.716C151.091 157.716 155.787 161.356 158.135 163.196L160.069 163.595C163.2 161.098 171.207 147.752 171.207 147.752L165.689 144.942Z" fill="white"/>
<path d="M143.325 124.552C143.325 124.552 138.918 128.051 138.464 131.096C138.01 134.14 138.918 137.944 137.854 140.074C136.789 142.203 134.355 142.962 135.114 143.987C135.873 145.013 138.308 145.811 138.308 145.811C138.308 145.811 139.826 151.439 141.352 154.03C142.879 156.621 144.546 159.509 146.98 159.509C148.532 159.444 150 158.792 151.09 157.685C151.09 157.685 157.352 162.554 158.995 163.947C160.639 165.34 171.167 147.776 171.167 147.776L165.688 144.934C166.1 143.955 166.407 142.934 166.604 141.889C167.102 137.92 166.244 133.898 164.169 130.477C160.976 125.014 152.913 118.619 143.325 124.552Z" stroke="#263238" stroke-linecap="round" stroke-linejoin="round"/>
<path d="M140.445 147.564C140.445 147.564 140.79 145.999 142.167 146.359" stroke="#263238" stroke-linecap="round" stroke-linejoin="round"/>
<path d="M143.176 138.931C143.176 139.713 142.871 140.379 142.495 140.379C142.12 140.379 141.807 139.729 141.807 138.931C141.807 138.132 142.112 137.483 142.495 137.483C142.879 137.483 143.176 138.132 143.176 138.931Z" fill="#263238"/>
<path d="M140.898 136.575C140.898 136.575 141.806 133.835 144.241 135.353" stroke="#263238" stroke-width="1.5" stroke-linecap="round" stroke-linejoin="round"/>
<path d="M151.09 157.717C151.09 157.717 155.497 154.977 156.569 150.108" stroke="#263238" stroke-linecap="round" stroke-linejoin="round"/>
<path d="M179.503 149.474C179.503 149.474 172.286 144.942 164.921 147.909C157.555 150.875 151.34 170.694 151.614 178.052C151.888 185.41 158.267 197.44 165.907 199.28C173.547 201.119 175.104 198.998 175.104 198.998C175.104 198.998 175.535 203.53 178.924 206.215C182.313 208.9 183.738 209.189 183.738 209.189C183.738 209.189 180.349 218.402 191.534 224.664C202.719 230.926 219.415 231.709 227.055 228.906C234.694 226.104 238.663 215.177 238.944 204.704C239.226 194.231 232.291 188.995 229.035 185.918C225.779 182.842 215.024 178.983 215.024 178.983C215.024 178.983 204.974 167.023 196.34 159.697C191.349 155.358 185.655 151.901 179.503 149.474Z" fill="white"/>
<path d="M214.352 186.365C215.181 184.799 215.494 182.114 215.353 179.03L215.025 178.905C215.025 178.905 204.974 167.023 196.341 159.697C191.346 155.375 185.653 151.934 179.504 149.521C177.994 148.648 176.372 147.984 174.682 147.549C172.467 147.94 172.334 148.958 175.512 151.58C181.249 156.323 182.557 170.882 180.929 173.943C179.3 177.003 174.103 171.352 170.103 174.647C166.103 177.942 167.419 194.035 175.113 199.053C181.036 200.403 187.096 201.059 193.171 201.01C203.761 200.963 211.745 191.312 214.352 186.365Z" fill="#369AFE"/>
<path opacity="0.5" d="M214.352 186.365C215.181 184.799 215.494 182.114 215.353 179.03L215.025 178.905C215.025 178.905 204.974 167.023 196.341 159.697C191.346 155.375 185.653 151.934 179.504 149.521C177.994 148.648 176.372 147.984 174.682 147.549C172.467 147.94 172.334 148.958 175.512 151.58C181.249 156.323 182.557 170.882 180.929 173.943C179.3 177.003 174.103 171.352 170.103 174.647C166.103 177.942 167.419 194.035 175.113 199.053C181.036 200.403 187.096 201.059 193.171 201.01C203.761 200.963 211.745 191.312 214.352 186.365Z" fill="white"/>
<path d="M179.503 149.474C179.503 149.474 172.286 144.942 164.921 147.909C157.555 150.875 151.34 170.694 151.614 178.052C151.888 185.41 158.267 197.44 165.907 199.28C173.547 201.119 175.104 198.998 175.104 198.998C175.104 198.998 175.535 203.53 178.924 206.215C182.313 208.9 183.738 209.189 183.738 209.189C183.738 209.189 180.349 218.402 191.534 224.664C202.719 230.926 219.415 231.709 227.055 228.906C234.694 226.104 238.663 215.177 238.944 204.704C239.226 194.231 232.291 188.995 229.035 185.918C225.779 182.842 215.024 178.983 215.024 178.983C215.024 178.983 204.974 167.023 196.34 159.697C191.349 155.358 185.655 151.901 179.503 149.474V149.474Z" stroke="#263238" stroke-linecap="round" stroke-linejoin="round"/>
<path d="M191.103 181.613C194.479 175.409 197.146 168.845 199.056 162.045C198.148 161.199 197.242 160.393 196.34 159.626C194.245 157.844 192.036 156.202 189.725 154.711L187.565 157.646C187.565 157.646 180.325 150.327 175.511 148.206C174.853 147.916 171.668 147.079 170.995 146.899C168.922 146.785 166.85 147.121 164.92 147.885C163.905 148.332 162.983 148.966 162.204 149.756C163.206 149.646 166.118 148.441 167.277 148.441C173.789 148.441 177.914 152.722 179.753 154.562C181.593 156.401 185.444 161.606 185.444 161.606C183.776 166.86 180.323 171.365 175.683 174.342C167.754 179.578 158.979 182.263 155.442 182.263C154.398 182.216 153.352 182.237 152.311 182.326C154.205 189.37 159.621 197.738 165.899 199.248C173.538 201.088 175.096 198.967 175.096 198.967C175.096 198.967 183.886 194.92 191.103 181.613Z" fill="#369AFE"/>
<path opacity="0.15" d="M191.103 181.613C183.886 194.92 175.112 199.022 175.112 199.022C175.112 199.022 173.546 201.143 165.915 199.303C163.877 198.74 162.01 197.681 160.482 196.219C163.66 196.478 170.22 196.446 169.875 191.797C169.594 188.126 167.527 183.187 166.079 179.477C168.648 178.409 171.138 177.161 173.531 175.743C177.53 176.737 182.18 177.786 185.875 177.676C185.875 177.676 190.438 178.107 193.397 177.128C192.692 178.569 191.941 180.048 191.103 181.613ZM179.753 154.609C180.168 155.024 180.693 155.619 181.249 156.292C187.69 160.542 193.608 168.698 195.166 173.176C196.708 169.569 198.015 165.867 199.079 162.092C198.171 161.247 197.266 160.44 196.363 159.673C194.269 157.891 192.059 156.249 189.749 154.758L187.589 157.693C187.589 157.693 180.348 150.374 175.534 148.253C174.877 147.963 171.691 147.126 171.018 146.946C168.946 146.832 166.874 147.168 164.944 147.932C163.929 148.379 163.007 149.013 162.228 149.803C163.23 149.693 166.142 148.488 167.3 148.488C173.789 148.472 177.914 152.754 179.753 154.593V154.609Z" fill="black"/>
<path d="M191.103 181.613C194.479 175.409 197.146 168.845 199.056 162.045C198.148 161.199 197.242 160.393 196.34 159.626C194.245 157.844 192.036 156.202 189.725 154.711L187.565 157.646C187.565 157.646 180.325 150.327 175.511 148.206C174.853 147.916 171.668 147.079 170.995 146.899C168.922 146.785 166.85 147.121 164.92 147.885C163.905 148.332 162.983 148.966 162.204 149.756C163.206 149.646 166.118 148.441 167.277 148.441C173.789 148.441 177.914 152.722 179.753 154.562C181.593 156.401 185.444 161.606 185.444 161.606C183.776 166.86 180.323 171.365 175.683 174.342C167.754 179.578 158.979 182.263 155.442 182.263C154.398 182.216 153.352 182.237 152.311 182.326C154.205 189.37 159.621 197.738 165.899 199.248C173.538 201.088 175.096 198.967 175.096 198.967C175.096 198.967 183.886 194.92 191.103 181.613Z" stroke="#263238" stroke-linecap="round" stroke-linejoin="round"/>
<path d="M166.839 152.448C166.839 152.448 160.577 153.231 156.405 160.01C152.233 166.788 143.099 194.45 143.099 194.45C143.099 194.45 128.751 195.233 123.006 193.934C117.26 192.634 111.265 189.754 108.4 187.406C105.535 185.057 104.486 182.975 101.872 183.234C99.2574 183.492 95.876 184.799 95.6099 186.365C95.467 187.14 95.3806 187.925 95.3516 188.713C95.3516 188.713 98.2477 196.016 100.596 196.016C102.944 196.016 102.678 194.192 104.243 193.151C105.809 192.11 105.809 194.497 109.981 194.716C109.981 194.716 124.36 202.786 132.422 206.935C139.976 210.849 148.601 212.156 151.732 209.808C154.863 207.459 168.428 187.108 173.391 168.847" fill="white"/>
<path d="M168.451 170.123C165.625 171.305 160.216 184.486 155.739 193.425C151.262 202.364 144.428 208.227 135.035 204.728C130.777 203.162 113.377 196.486 113.377 196.486L113.69 196.838C118.504 199.515 126.918 204.149 132.405 207.013C139.959 210.927 148.585 212.234 151.716 209.886C154.197 208.023 163.222 194.865 169.327 180.4C169.758 177.379 170.767 169.16 168.451 170.123Z" fill="#369AFE"/>
<path opacity="0.5" d="M168.451 170.123C165.625 171.305 160.216 184.486 155.739 193.425C151.262 202.364 144.428 208.227 135.035 204.728C130.777 203.162 113.377 196.486 113.377 196.486L113.69 196.838C118.504 199.515 126.918 204.149 132.405 207.013C139.959 210.927 148.585 212.234 151.716 209.886C154.197 208.023 163.222 194.865 169.327 180.4C169.758 177.379 170.767 169.16 168.451 170.123Z" fill="white"/>
<path d="M166.839 152.448C166.839 152.448 160.577 153.231 156.405 160.01C152.233 166.788 143.099 194.45 143.099 194.45C143.099 194.45 128.751 195.233 123.006 193.934C117.26 192.634 111.265 189.754 108.4 187.406C105.535 185.057 104.486 182.975 101.872 183.234C99.2574 183.492 95.876 184.799 95.6099 186.365C95.467 187.14 95.3806 187.925 95.3516 188.713C95.3516 188.713 98.2477 196.016 100.596 196.016C102.944 196.016 102.678 194.192 104.243 193.151C105.809 192.11 105.809 194.497 109.981 194.716C109.981 194.716 124.36 202.786 132.422 206.935C139.976 210.849 148.601 212.156 151.732 209.808C154.863 207.459 168.428 187.108 173.391 168.847" stroke="#263238" stroke-linecap="round" stroke-linejoin="round"/>
<path d="M95.8994 189.762C95.8994 189.762 96.6352 187.053 97.9893 186.318C98.8874 185.846 99.8351 185.476 100.815 185.214" stroke="#263238" stroke-linecap="round" stroke-linejoin="round"/>
<path d="M97.0967 191.852C97.8015 190.491 98.7124 189.247 99.7971 188.165C100.722 187.475 101.837 187.087 102.991 187.053" stroke="#263238" stroke-linecap="round" stroke-linejoin="round"/>
<path d="M99.5549 195.413C99.5549 195.413 98.6939 192.83 99.9228 191.726C101.152 190.623 104.345 189.762 104.345 189.762" stroke="#263238" stroke-linecap="round" stroke-linejoin="round"/>
<path d="M229.035 185.84C225.771 183.187 216.394 179.406 215.157 178.96C199.729 204.25 183.746 209.197 183.746 209.197C183.746 209.197 180.349 218.402 191.534 224.664C202.719 230.926 219.415 231.709 227.055 228.906C234.694 226.104 240.111 215.991 240.361 205.518C240.612 195.045 233.152 189.19 229.035 185.84Z" fill="#263238" stroke="#263238" stroke-linecap="round" stroke-linejoin="round"/>
<path d="M216.676 200.196C216.676 200.196 199.456 205.15 184.326 213.236C169.195 221.322 153.275 241.415 155.098 244.546C156.922 247.677 194.76 288.379 194.76 288.379C193.789 289.061 192.986 289.955 192.411 290.993C191.629 292.559 185.891 295.165 182.76 296.206C179.629 297.247 177.798 298.821 179.629 300.12C181.461 301.419 194.501 300.645 199.198 299.862C203.894 299.079 205.976 299.337 205.976 296.989C205.976 294.641 200.787 283.166 200.787 283.166L186.697 244.546C186.697 244.546 226.876 234.636 233.396 223.936C239.916 213.236 238.969 204.665 238.969 204.665" fill="#263238"/>
<path d="M216.676 200.196C216.676 200.196 199.456 205.15 184.326 213.236C169.195 221.322 153.275 241.415 155.098 244.546C156.922 247.677 194.76 288.379 194.76 288.379C193.789 289.061 192.986 289.955 192.411 290.993C191.629 292.559 185.891 295.165 182.76 296.206C179.629 297.247 177.798 298.821 179.629 300.12C181.461 301.419 194.501 300.645 199.198 299.862C203.894 299.079 205.976 299.337 205.976 296.989C205.976 294.641 200.787 283.166 200.787 283.166L186.697 244.546C186.697 244.546 226.876 234.636 233.396 223.936C239.916 213.236 238.969 204.665 238.969 204.665" stroke="#263238" stroke-linecap="round" stroke-linejoin="round"/>
<path d="M186.673 244.546L178.062 246.377" stroke="white" stroke-linecap="round" stroke-linejoin="round"/>
<path d="M205.976 296.989C205.976 295.478 203.8 290.156 202.258 286.571C197.718 288.575 194.759 288.379 194.759 288.379C193.788 289.061 192.985 289.955 192.411 290.993C191.628 292.559 185.89 295.165 182.76 296.206C179.629 297.247 177.797 298.821 179.629 300.12C181.46 301.419 194.501 300.645 199.197 299.862C203.893 299.079 205.976 299.337 205.976 296.989Z" fill="white" stroke="#263238" stroke-linecap="round" stroke-linejoin="round"/>
<path d="M192.411 290.993C191.628 292.559 185.89 295.166 182.76 296.207C179.629 297.248 177.797 298.821 179.629 300.12C181.46 301.42 194.501 300.645 199.197 299.862C203.893 299.079 205.976 299.338 205.976 296.989C205.976 295.972 204.997 293.24 203.886 290.469L196.583 292.293L194.759 288.379C193.788 289.061 192.985 289.955 192.411 290.993Z" fill="white" stroke="#263238" stroke-linecap="round" stroke-linejoin="round"/>
<path d="M186.017 212.845C186.017 212.845 208.716 199.929 222.805 196.407" stroke="white" stroke-linecap="round" stroke-linejoin="round"/>
<path d="M141.196 126.986C141.196 126.986 146.98 125.162 147.591 126.383C148.201 127.604 145.156 131.863 146.808 132.465C148.46 133.068 151.833 134.9 151.982 136.379C152.131 137.858 153.547 139.729 154.573 138.97C155.598 138.211 154.722 135.768 157.461 135.768C160.201 135.768 160.803 140.034 159.441 141.858C158.079 143.682 155.786 144.903 156.702 145.052C157.618 145.2 162.635 145.506 166.134 144.136C169.633 142.766 171.01 133.96 170.048 128.309C169.582 125.305 168.164 122.529 166.002 120.391C163.841 118.254 161.05 116.867 158.04 116.435C154.064 116.09 148.46 118.736 148.46 118.736C148.46 118.736 143.442 116.302 140.397 120.255C139.523 121.36 138.985 122.694 138.846 124.097C138.708 125.499 138.974 126.912 139.615 128.168L141.196 126.986Z" fill="#263238" stroke="#263238" stroke-linecap="round" stroke-linejoin="round"/>
<path d="M168.427 132.771C168.337 132.303 168.353 131.822 168.473 131.362C168.593 130.901 168.813 130.473 169.119 130.109C169.425 129.745 169.808 129.453 170.241 129.255C170.674 129.058 171.145 128.959 171.621 128.966C175.425 128.661 179.229 132.011 179.385 135.354C179.542 138.696 178.313 143.267 173.75 143.111C169.186 142.954 168.271 140.379 168.271 140.379L168.427 132.771Z" fill="#263238" stroke="#263238" stroke-linecap="round" stroke-linejoin="round"/>
</g>
<defs>
<clipPath id="clip0_36_6509">
<rect width="347" height="362" fill="white"/>
</clipPath>
</defs>
</svg>
