<svg width="644" height="417" viewBox="0 0 644 417" fill="none" xmlns="http://www.w3.org/2000/svg">
<path d="M345.764 96.2905C351.352 96.2905 490.942 95.2817 530.364 95.2817C533.117 95.2817 529.637 90.5104 528.114 90.1775C523.262 89.1687 518.218 89.0578 513.286 88.5534C508.427 88.087 503.667 86.8935 499.163 85.0127C495.28 83.3685 491.406 81.472 487.21 80.8264C479.089 79.5453 471.957 83.9535 464.341 85.8701C462.029 86.539 459.602 86.7167 457.217 86.3918C454.832 86.0669 452.541 85.2467 450.491 83.9838C446.971 81.8654 443.763 79.3335 440.081 77.4673C433.031 73.9987 425.34 72.0229 417.491 71.6636C409.642 71.3043 401.803 72.5692 394.466 75.3792C390.972 76.7286 387.628 78.4393 384.489 80.4835C380.767 82.9246 377.559 86.0517 373.827 88.4626C365.555 93.809 355.337 92.0739 346.319 95.1405C345.834 95.3624 345.28 96.2905 345.764 96.2905Z" fill="#EBEBEB"/>
<path d="M503.077 168.698C510.471 168.698 634.93 169.515 642.748 169.263C642.878 169.259 643.003 169.214 643.106 169.134C643.208 169.053 643.282 168.942 643.316 168.816C643.35 168.69 643.342 168.557 643.295 168.435C643.247 168.314 643.161 168.212 643.05 168.143C638.117 165.702 632.529 166.196 627.405 164.471C624.378 163.463 622.542 161.445 620.444 159.226C618.711 157.251 616.472 155.786 613.968 154.989C611.673 154.302 609.239 154.229 606.907 154.777C604.385 155.373 602.196 156.795 599.785 157.733C593.803 159.993 587.993 157.844 583.726 153.416C580.206 149.774 576.745 146.354 571.954 144.337C570.001 143.454 567.886 142.983 565.743 142.954C563.599 142.924 561.473 143.337 559.496 144.165C554.926 146.183 551.799 150.399 547.502 152.891C542.458 155.867 536.345 155.161 530.727 156.058C525.108 156.956 520.811 161.687 515.888 164.411C514.279 165.439 512.42 166.01 510.511 166.065C509.415 165.969 508.324 165.818 507.243 165.611C505.548 165.399 503.945 165.45 502.805 166.862C502.532 167.235 502.593 168.698 503.077 168.698Z" fill="#EBEBEB"/>
<path d="M0.340133 176.728C5.73691 176.728 96.5944 177.323 102.304 177.141C102.717 177.141 102.939 176.526 102.526 176.324C98.9346 174.539 94.8492 174.902 91.1068 173.641C88.9077 172.894 87.556 171.462 86.0631 169.808C84.8024 168.365 83.1692 167.297 81.3422 166.721C79.667 166.221 77.8907 166.166 76.1875 166.559C74.3516 167.003 72.7477 168.052 70.9925 168.718C66.6246 170.373 62.3778 168.799 59.2608 165.571C56.6986 162.908 54.2171 160.396 50.6764 158.964C49.2521 158.323 47.7114 157.981 46.1496 157.96C44.5879 157.939 43.0385 158.24 41.5977 158.843C38.2285 160.376 35.9084 163.402 32.7813 165.208C29.0691 167.377 24.6307 166.872 20.5352 167.518C16.4397 168.163 13.2823 171.623 9.69118 173.57C8.52132 174.324 7.16843 174.746 5.77726 174.791C4.97509 174.717 4.17716 174.602 3.38654 174.448C2.14578 174.297 0.975644 174.337 0.138388 175.366C-0.103711 175.658 -0.0230143 176.728 0.340133 176.728Z" fill="#EBEBEB"/>
<path d="M476.023 64.9186C481.419 64.9186 572.287 65.5137 577.996 65.3322C578.4 65.3322 578.622 64.7168 578.218 64.5151C574.617 62.7296 570.532 63.0927 566.789 61.8318C564.59 61.0853 563.238 59.6429 561.745 57.9986C560.479 56.5577 558.843 55.4903 557.014 54.9118C555.344 54.4052 553.569 54.3495 551.87 54.7505C550.024 55.1842 548.42 56.2434 546.665 56.9092C542.297 58.5534 538.06 56.9899 534.943 53.7619C532.371 51.0988 529.839 48.587 526.349 47.1546C524.925 46.5131 523.385 46.1705 521.823 46.1479C520.261 46.1254 518.712 46.4234 517.27 47.0235C513.931 48.5366 511.641 51.5729 508.514 53.3987C504.802 55.5675 500.364 55.0531 496.268 55.7088C492.173 56.3644 489.025 59.8143 485.424 61.7612C484.255 62.5168 482.902 62.9388 481.51 62.9818C480.708 62.9078 479.91 62.7933 479.119 62.6388C478.547 62.4837 477.944 62.4872 477.373 62.6489C476.803 62.8106 476.287 63.1245 475.881 63.5568C475.649 63.8493 475.69 64.9186 476.023 64.9186Z" fill="#EBEBEB"/>
<path d="M79.496 65.2918C79.6069 65.5944 222.737 65.2918 220.901 65.2918C220.084 65.2918 222.152 64.0611 221.345 63.6677C216.685 61.3476 211.591 61.2871 206.517 60.8231C203.521 60.6952 200.58 59.9789 197.862 58.7148C195.158 57.3026 193.474 54.8513 191.567 52.5917C188.612 49.1042 184.818 46.4268 180.541 44.8119C176.265 43.1971 171.648 42.698 167.125 43.3617C156.947 44.9556 148.968 52.7027 138.739 54.1351C132.616 54.9925 126.826 52.622 120.844 51.7847C116.214 51.1466 111.502 52.0092 107.398 54.2461C104.17 55.8399 101.194 57.1916 97.5424 57.4438C94.7381 57.6455 91.9237 57.3227 89.1194 57.2925C84.5215 57.378 80.113 59.1392 76.7219 62.2454C76.268 62.6186 74.8255 65.2918 79.496 65.2918Z" fill="#EBEBEB"/>
<path d="M33.1749 416.052H67.7646L67.7646 234.73H33.1749L33.1749 416.052Z" fill="#DBDBDB"/>
<path d="M55.6699 247.541H62.3982V240.621H55.6699V247.541Z" fill="#EBEBEB"/>
<path d="M47.0651 247.541H53.7935V240.621H47.0651V247.541Z" fill="#EBEBEB"/>
<path d="M55.6699 259.283H62.3982V252.363H55.6699V259.283Z" fill="#EBEBEB"/>
<path d="M47.0651 259.283H53.7935V252.363H47.0651V259.283Z" fill="#EBEBEB"/>
<path d="M55.6699 271.045H62.3982V264.125H55.6699V271.045Z" fill="#EBEBEB"/>
<path d="M47.0651 271.045H53.7935V264.125H47.0651V271.045Z" fill="#EBEBEB"/>
<path d="M55.6699 282.807H62.3982V275.887H55.6699V282.807Z" fill="#EBEBEB"/>
<path d="M47.0651 282.807H53.7935V275.887H47.0651V282.807Z" fill="#EBEBEB"/>
<path d="M55.6699 294.559H62.3982V287.639H55.6699V294.559Z" fill="#EBEBEB"/>
<path d="M47.0651 294.559H53.7935V287.639H47.0651V294.559Z" fill="#EBEBEB"/>
<path d="M55.6699 306.311H62.3982V299.391H55.6699V306.311Z" fill="#EBEBEB"/>
<path d="M47.0651 306.311H53.7935V299.391H47.0651V306.311Z" fill="#EBEBEB"/>
<path d="M55.6699 318.062H62.3982V311.142H55.6699V318.062Z" fill="#EBEBEB"/>
<path d="M47.0651 318.062H53.7935V311.142H47.0651V318.062Z" fill="#EBEBEB"/>
<path d="M55.6699 329.824H62.3982V322.904H55.6699V329.824Z" fill="#EBEBEB"/>
<path d="M47.0651 329.824H53.7935V322.904H47.0651V329.824Z" fill="#EBEBEB"/>
<path d="M55.6699 341.576H62.3982V334.656H55.6699V341.576Z" fill="#EBEBEB"/>
<path d="M47.0651 341.576H53.7935V334.656H47.0651V341.576Z" fill="#EBEBEB"/>
<path d="M55.6699 353.328H62.3982V346.408H55.6699V353.328Z" fill="#EBEBEB"/>
<path d="M47.0651 353.328H53.7935V346.408H47.0651V353.328Z" fill="#EBEBEB"/>
<path d="M55.6699 365.08H62.3982V358.16H55.6699V365.08Z" fill="#EBEBEB"/>
<path d="M47.0651 365.08H53.7935V358.16H47.0651V365.08Z" fill="#EBEBEB"/>
<path d="M55.6699 376.842H62.3982V369.922H55.6699V376.842Z" fill="#EBEBEB"/>
<path d="M47.0651 376.842H53.7935V369.922H47.0651V376.842Z" fill="#EBEBEB"/>
<path d="M55.6699 388.584H62.3982V381.664H55.6699V388.584Z" fill="#EBEBEB"/>
<path d="M47.0651 388.584H53.7935V381.664H47.0651V388.584Z" fill="#EBEBEB"/>
<path d="M55.6699 400.346H62.3982V393.426H55.6699V400.346Z" fill="#EBEBEB"/>
<path d="M45.2693 393.426H38.541V400.346H45.2693V393.426Z" fill="#EBEBEB"/>
<path d="M45.2693 381.674H38.541V388.594H45.2693V381.674Z" fill="#EBEBEB"/>
<path d="M45.2693 369.912H38.541V376.832H45.2693V369.912Z" fill="#EBEBEB"/>
<path d="M45.2693 358.16H38.541V365.08H45.2693V358.16Z" fill="#EBEBEB"/>
<path d="M45.2693 346.408H38.541V353.328H45.2693V346.408Z" fill="#EBEBEB"/>
<path d="M45.2693 334.646H38.541V341.566H45.2693V334.646Z" fill="#EBEBEB"/>
<path d="M45.2693 322.894H38.541V329.814H45.2693V322.894Z" fill="#EBEBEB"/>
<path d="M45.2693 311.142H38.541V318.062H45.2693V311.142Z" fill="#EBEBEB"/>
<path d="M45.2693 299.391H38.541V306.311H45.2693V299.391Z" fill="#EBEBEB"/>
<path d="M45.2693 287.629H38.541V294.549H45.2693V287.629Z" fill="#EBEBEB"/>
<path d="M45.2693 275.877H38.541V282.797H45.2693V275.877Z" fill="#EBEBEB"/>
<path d="M45.2693 264.125H38.541V271.045H45.2693V264.125Z" fill="#EBEBEB"/>
<path d="M45.2693 252.373H38.541V259.293H45.2693V252.373Z" fill="#EBEBEB"/>
<path d="M45.2693 240.611H38.541V247.531H45.2693V240.611Z" fill="#EBEBEB"/>
<path d="M47.0651 400.346H53.7935V393.426H47.0651V400.346Z" fill="#EBEBEB"/>
<path d="M5.89817 416.052H33.1746L33.1746 234.73H5.89817L5.89817 416.052Z" fill="#A6A6A6"/>
<path d="M14.2607 393.426H8.71265V400.346H14.2607V393.426Z" fill="#C7C7C7"/>
<path d="M21.3625 393.426H15.8145V400.346H21.3625V393.426Z" fill="#C7C7C7"/>
<path d="M14.2607 381.674H8.71265V388.594H14.2607V381.674Z" fill="#C7C7C7"/>
<path d="M21.3625 381.674H15.8145V388.594H21.3625V381.674Z" fill="#C7C7C7"/>
<path d="M14.2607 369.912H8.71265V376.832H14.2607V369.912Z" fill="#C7C7C7"/>
<path d="M21.3625 369.912H15.8145V376.832H21.3625V369.912Z" fill="#C7C7C7"/>
<path d="M14.2607 358.16H8.71265V365.08H14.2607V358.16Z" fill="#C7C7C7"/>
<path d="M21.3625 358.16H15.8145V365.08H21.3625V358.16Z" fill="#C7C7C7"/>
<path d="M14.2607 346.408H8.71265V353.328H14.2607V346.408Z" fill="#C7C7C7"/>
<path d="M21.3625 346.408H15.8145V353.328H21.3625V346.408Z" fill="#C7C7C7"/>
<path d="M14.2607 334.646H8.71265V341.566H14.2607V334.646Z" fill="#C7C7C7"/>
<path d="M21.3625 334.646H15.8145V341.566H21.3625V334.646Z" fill="#C7C7C7"/>
<path d="M14.2607 322.894H8.71265V329.814H14.2607V322.894Z" fill="#C7C7C7"/>
<path d="M21.3625 322.894H15.8145V329.814H21.3625V322.894Z" fill="#C7C7C7"/>
<path d="M14.2607 311.142H8.71265V318.062H14.2607V311.142Z" fill="#C7C7C7"/>
<path d="M21.3625 311.142H15.8145V318.062H21.3625V311.142Z" fill="#C7C7C7"/>
<path d="M14.2607 299.391H8.71265V306.311H14.2607V299.391Z" fill="#C7C7C7"/>
<path d="M21.3625 299.391H15.8145V306.311H21.3625V299.391Z" fill="#C7C7C7"/>
<path d="M14.2607 287.629H8.71265V294.549H14.2607V287.629Z" fill="#C7C7C7"/>
<path d="M21.3625 287.629H15.8145V294.549H21.3625V287.629Z" fill="#C7C7C7"/>
<path d="M14.2607 275.877H8.71265V282.797H14.2607V275.877Z" fill="#C7C7C7"/>
<path d="M21.3625 275.877H15.8145V282.797H21.3625V275.877Z" fill="#C7C7C7"/>
<path d="M14.2607 264.125H8.71265V271.045H14.2607V264.125Z" fill="#C7C7C7"/>
<path d="M21.3625 264.125H15.8145V271.045H21.3625V264.125Z" fill="#C7C7C7"/>
<path d="M14.2607 252.373H8.71265V259.293H14.2607V252.373Z" fill="#C7C7C7"/>
<path d="M21.3625 252.373H15.8145V259.293H21.3625V252.373Z" fill="#C7C7C7"/>
<path d="M14.2607 240.611H8.71265V247.531H14.2607V240.611Z" fill="#C7C7C7"/>
<path d="M22.8652 247.541H28.4133V240.621H22.8652V247.541Z" fill="#C7C7C7"/>
<path d="M22.8652 259.283H28.4133V252.363H22.8652V259.283Z" fill="#C7C7C7"/>
<path d="M22.8652 271.045H28.4133V264.125H22.8652V271.045Z" fill="#C7C7C7"/>
<path d="M22.8652 282.807H28.4133V275.887H22.8652V282.807Z" fill="#C7C7C7"/>
<path d="M22.8652 294.559H28.4133V287.639H22.8652V294.559Z" fill="#C7C7C7"/>
<path d="M22.8652 306.311H28.4133V299.391H22.8652V306.311Z" fill="#C7C7C7"/>
<path d="M22.8652 318.062H28.4133V311.142H22.8652V318.062Z" fill="#C7C7C7"/>
<path d="M22.8652 329.824H28.4133V322.904H22.8652V329.824Z" fill="#C7C7C7"/>
<path d="M22.8652 341.576H28.4133V334.656H22.8652V341.576Z" fill="#C7C7C7"/>
<path d="M22.8652 353.328H28.4133V346.408H22.8652V353.328Z" fill="#C7C7C7"/>
<path d="M22.8652 365.08H28.4133V358.16H22.8652V365.08Z" fill="#C7C7C7"/>
<path d="M22.8652 376.842H28.4133V369.922H22.8652V376.842Z" fill="#C7C7C7"/>
<path d="M22.8652 388.584H28.4133V381.664H22.8652V388.584Z" fill="#C7C7C7"/>
<path d="M22.8652 400.346H28.4133V393.426H22.8652V400.346Z" fill="#C7C7C7"/>
<path d="M21.3625 240.611H15.8145V247.531H21.3625V240.611Z" fill="#C7C7C7"/>
<path d="M636.604 230.766H600.522V416.042H636.604V230.766Z" fill="#EBEBEB"/>
<path d="M600.511 230.776H637.462V227.084H600.511V230.776Z" fill="#C7C7C7"/>
<path d="M633.336 236.203H629.684V416.042H633.336V236.203Z" fill="white"/>
<path d="M626.86 236.203H623.208V416.042H626.86V236.203Z" fill="white"/>
<path d="M620.384 236.203H616.732V416.042H620.384V236.203Z" fill="white"/>
<path d="M613.908 236.203H610.256V416.042H613.908V236.203Z" fill="white"/>
<path d="M607.432 236.203H603.78V416.042H607.432V236.203Z" fill="white"/>
<path d="M629.684 248.157H633.336V240.873H629.684V248.157Z" fill="#EBEBEB"/>
<path d="M623.208 248.157H626.86V240.873H623.208V248.157Z" fill="#EBEBEB"/>
<path d="M616.732 248.157H620.384V240.873H616.732V248.157Z" fill="#EBEBEB"/>
<path d="M610.256 248.157H613.908V240.873H610.256V248.157Z" fill="#EBEBEB"/>
<path d="M603.78 248.157H607.431V240.873H603.78V248.157Z" fill="#EBEBEB"/>
<path d="M629.684 259.989H633.336V252.706H629.684V259.989Z" fill="#EBEBEB"/>
<path d="M623.208 259.989H626.86V252.706H623.208V259.989Z" fill="#EBEBEB"/>
<path d="M616.732 259.989H620.384V252.706H616.732V259.989Z" fill="#EBEBEB"/>
<path d="M610.256 259.989H613.908V252.706H610.256V259.989Z" fill="#EBEBEB"/>
<path d="M603.78 259.989H607.431V252.706H603.78V259.989Z" fill="#EBEBEB"/>
<path d="M629.684 271.822H633.336V264.539H629.684V271.822Z" fill="#EBEBEB"/>
<path d="M623.208 271.822H626.86V264.539H623.208V271.822Z" fill="#EBEBEB"/>
<path d="M616.732 271.822H620.384V264.539H616.732V271.822Z" fill="#EBEBEB"/>
<path d="M610.256 271.822H613.908V264.539H610.256V271.822Z" fill="#EBEBEB"/>
<path d="M603.78 271.822H607.431V264.539H603.78V271.822Z" fill="#EBEBEB"/>
<path d="M629.684 283.654H633.336V276.371H629.684V283.654Z" fill="#EBEBEB"/>
<path d="M623.208 283.654H626.86V276.371H623.208V283.654Z" fill="#EBEBEB"/>
<path d="M616.732 283.654H620.384V276.371H616.732V283.654Z" fill="#EBEBEB"/>
<path d="M610.256 283.654H613.908V276.371H610.256V283.654Z" fill="#EBEBEB"/>
<path d="M603.78 283.654H607.431V276.371H603.78V283.654Z" fill="#EBEBEB"/>
<path d="M629.684 295.497H633.336V288.214H629.684V295.497Z" fill="#EBEBEB"/>
<path d="M623.208 295.497H626.86V288.214H623.208V295.497Z" fill="#EBEBEB"/>
<path d="M616.732 295.497H620.384V288.214H616.732V295.497Z" fill="#EBEBEB"/>
<path d="M610.256 295.497H613.908V288.214H610.256V295.497Z" fill="#EBEBEB"/>
<path d="M603.78 295.497H607.431V288.214H603.78V295.497Z" fill="#EBEBEB"/>
<path d="M629.684 307.329H633.336V300.046H629.684V307.329Z" fill="#EBEBEB"/>
<path d="M623.208 307.329H626.86V300.046H623.208V307.329Z" fill="#EBEBEB"/>
<path d="M616.732 307.329H620.384V300.046H616.732V307.329Z" fill="#EBEBEB"/>
<path d="M610.256 307.329H613.908V300.046H610.256V307.329Z" fill="#EBEBEB"/>
<path d="M603.78 307.329H607.431V300.046H603.78V307.329Z" fill="#EBEBEB"/>
<path d="M629.684 319.172H633.336V311.889H629.684V319.172Z" fill="#EBEBEB"/>
<path d="M623.208 319.172H626.86V311.889H623.208V319.172Z" fill="#EBEBEB"/>
<path d="M616.732 319.172H620.384V311.889H616.732V319.172Z" fill="#EBEBEB"/>
<path d="M610.256 319.172H613.908V311.889H610.256V319.172Z" fill="#EBEBEB"/>
<path d="M603.78 319.172H607.431V311.889H603.78V319.172Z" fill="#EBEBEB"/>
<path d="M629.684 331.015H633.336V323.732H629.684V331.015Z" fill="#EBEBEB"/>
<path d="M623.208 331.015H626.86V323.732H623.208V331.015Z" fill="#EBEBEB"/>
<path d="M616.732 331.015H620.384V323.732H616.732V331.015Z" fill="#EBEBEB"/>
<path d="M610.256 331.015H613.908V323.732H610.256V331.015Z" fill="#EBEBEB"/>
<path d="M603.78 331.015H607.431V323.732H603.78V331.015Z" fill="#EBEBEB"/>
<path d="M629.684 342.847H633.336V335.564H629.684V342.847Z" fill="#EBEBEB"/>
<path d="M623.208 342.847H626.86V335.564H623.208V342.847Z" fill="#EBEBEB"/>
<path d="M616.732 342.847H620.384V335.564H616.732V342.847Z" fill="#EBEBEB"/>
<path d="M610.256 342.847H613.908V335.564H610.256V342.847Z" fill="#EBEBEB"/>
<path d="M603.78 342.847H607.431V335.564H603.78V342.847Z" fill="#EBEBEB"/>
<path d="M629.684 354.68H633.336V347.397H629.684V354.68Z" fill="#EBEBEB"/>
<path d="M623.208 354.68H626.86V347.397H623.208V354.68Z" fill="#EBEBEB"/>
<path d="M616.732 354.68H620.384V347.397H616.732V354.68Z" fill="#EBEBEB"/>
<path d="M610.256 354.68H613.908V347.397H610.256V354.68Z" fill="#EBEBEB"/>
<path d="M603.78 354.68H607.431V347.397H603.78V354.68Z" fill="#EBEBEB"/>
<path d="M629.684 366.512H633.336V359.229H629.684V366.512Z" fill="#EBEBEB"/>
<path d="M623.208 366.512H626.86V359.229H623.208V366.512Z" fill="#EBEBEB"/>
<path d="M616.732 366.512H620.384V359.229H616.732V366.512Z" fill="#EBEBEB"/>
<path d="M610.256 366.512H613.908V359.229H610.256V366.512Z" fill="#EBEBEB"/>
<path d="M603.78 366.512H607.431V359.229H603.78V366.512Z" fill="#EBEBEB"/>
<path d="M629.684 378.355H633.336V371.072H629.684V378.355Z" fill="#EBEBEB"/>
<path d="M623.208 378.355H626.86V371.072H623.208V378.355Z" fill="#EBEBEB"/>
<path d="M616.732 378.355H620.384V371.072H616.732V378.355Z" fill="#EBEBEB"/>
<path d="M610.256 378.355H613.908V371.072H610.256V378.355Z" fill="#EBEBEB"/>
<path d="M603.78 378.355H607.431V371.072H603.78V378.355Z" fill="#EBEBEB"/>
<path d="M629.684 390.198H633.336V382.915H629.684V390.198Z" fill="#EBEBEB"/>
<path d="M623.208 390.198H626.86V382.915H623.208V390.198Z" fill="#EBEBEB"/>
<path d="M616.732 390.198H620.384V382.915H616.732V390.198Z" fill="#EBEBEB"/>
<path d="M610.256 390.198H613.908V382.915H610.256V390.198Z" fill="#EBEBEB"/>
<path d="M603.78 390.198H607.431V382.915H603.78V390.198Z" fill="#EBEBEB"/>
<path d="M633.336 394.747H629.684V416.052H633.336V394.747Z" fill="#EBEBEB"/>
<path d="M626.86 394.747H623.208V416.052H626.86V394.747Z" fill="#EBEBEB"/>
<path d="M620.384 394.747H616.732V416.052H620.384V394.747Z" fill="#EBEBEB"/>
<path d="M613.908 394.747H610.256V416.052H613.908V394.747Z" fill="#EBEBEB"/>
<path d="M607.432 394.747H603.78V416.052H607.432V394.747Z" fill="#EBEBEB"/>
<path d="M600.521 230.766H577.351V416.042H600.521V230.766Z" fill="#DBDBDB"/>
<path d="M576.342 230.776H600.511V227.084H576.342V230.776Z" fill="#C7C7C7"/>
<path d="M597.253 236.203H593.602V416.042H597.253V236.203Z" fill="#C7C7C7"/>
<path d="M590.778 236.203H587.126V416.042H590.778V236.203Z" fill="#C7C7C7"/>
<path d="M584.301 236.203H580.649V416.042H584.301V236.203Z" fill="#C7C7C7"/>
<path d="M593.602 248.157H597.253V240.873H593.602V248.157Z" fill="#DBDBDB"/>
<path d="M587.126 248.157H590.777V240.873H587.126V248.157Z" fill="#DBDBDB"/>
<path d="M580.65 248.157H584.301V240.873H580.65V248.157Z" fill="#DBDBDB"/>
<path d="M593.602 259.989H597.253V252.706H593.602V259.989Z" fill="#DBDBDB"/>
<path d="M587.126 259.989H590.777V252.706H587.126V259.989Z" fill="#DBDBDB"/>
<path d="M580.65 259.989H584.301V252.706H580.65V259.989Z" fill="#DBDBDB"/>
<path d="M593.602 271.822H597.253V264.539H593.602V271.822Z" fill="#DBDBDB"/>
<path d="M587.126 271.822H590.777V264.539H587.126V271.822Z" fill="#DBDBDB"/>
<path d="M580.65 271.822H584.301V264.539H580.65V271.822Z" fill="#DBDBDB"/>
<path d="M593.602 283.654H597.253V276.371H593.602V283.654Z" fill="#DBDBDB"/>
<path d="M587.126 283.654H590.777V276.371H587.126V283.654Z" fill="#DBDBDB"/>
<path d="M580.65 283.654H584.301V276.371H580.65V283.654Z" fill="#DBDBDB"/>
<path d="M593.602 295.497H597.253V288.214H593.602V295.497Z" fill="#DBDBDB"/>
<path d="M587.126 295.497H590.777V288.214H587.126V295.497Z" fill="#DBDBDB"/>
<path d="M580.65 295.497H584.301V288.214H580.65V295.497Z" fill="#DBDBDB"/>
<path d="M593.602 307.329H597.253V300.046H593.602V307.329Z" fill="#DBDBDB"/>
<path d="M587.126 307.329H590.777V300.046H587.126V307.329Z" fill="#DBDBDB"/>
<path d="M580.65 307.329H584.301V300.046H580.65V307.329Z" fill="#DBDBDB"/>
<path d="M593.602 319.172H597.253V311.889H593.602V319.172Z" fill="#DBDBDB"/>
<path d="M587.126 319.172H590.777V311.889H587.126V319.172Z" fill="#DBDBDB"/>
<path d="M580.65 319.172H584.301V311.889H580.65V319.172Z" fill="#DBDBDB"/>
<path d="M593.602 331.015H597.253V323.732H593.602V331.015Z" fill="#DBDBDB"/>
<path d="M587.126 331.015H590.777V323.732H587.126V331.015Z" fill="#DBDBDB"/>
<path d="M580.65 331.015H584.301V323.732H580.65V331.015Z" fill="#DBDBDB"/>
<path d="M593.602 342.847H597.253V335.564H593.602V342.847Z" fill="#DBDBDB"/>
<path d="M587.126 342.847H590.777V335.564H587.126V342.847Z" fill="#DBDBDB"/>
<path d="M580.65 342.847H584.301V335.564H580.65V342.847Z" fill="#DBDBDB"/>
<path d="M593.602 354.68H597.253V347.397H593.602V354.68Z" fill="#DBDBDB"/>
<path d="M587.126 354.68H590.777V347.397H587.126V354.68Z" fill="#DBDBDB"/>
<path d="M580.65 354.68H584.301V347.397H580.65V354.68Z" fill="#DBDBDB"/>
<path d="M593.602 366.512H597.253V359.229H593.602V366.512Z" fill="#DBDBDB"/>
<path d="M587.126 366.512H590.777V359.229H587.126V366.512Z" fill="#DBDBDB"/>
<path d="M580.65 366.512H584.301V359.229H580.65V366.512Z" fill="#DBDBDB"/>
<path d="M593.602 378.355H597.253V371.072H593.602V378.355Z" fill="#DBDBDB"/>
<path d="M587.126 378.355H590.777V371.072H587.126V378.355Z" fill="#DBDBDB"/>
<path d="M580.65 378.355H584.301V371.072H580.65V378.355Z" fill="#DBDBDB"/>
<path d="M593.602 390.198H597.253V382.915H593.602V390.198Z" fill="#DBDBDB"/>
<path d="M587.126 390.198H590.777V382.915H587.126V390.198Z" fill="#DBDBDB"/>
<path d="M580.65 390.198H584.301V382.915H580.65V390.198Z" fill="#DBDBDB"/>
<path d="M597.253 394.747H593.602V416.052H597.253V394.747Z" fill="#DBDBDB"/>
<path d="M590.778 394.747H587.126V416.052H590.778V394.747Z" fill="#DBDBDB"/>
<path d="M584.301 394.747H580.649V416.052H584.301V394.747Z" fill="#DBDBDB"/>
<path d="M46.9643 310.043H65.2427V288.456H46.9643V310.043Z" fill="#DBDBDB"/>
<path d="M35.3739 310.83H46.9644V288.446H35.3739V310.83Z" fill="#C7C7C7"/>
<path d="M34.6073 310.83H46.1069V297.978H34.6073V310.83Z" fill="#DBDBDB"/>
<path d="M27.4248 310.83H34.5969V297.978H27.4248V310.83Z" fill="#C7C7C7"/>
<path d="M42.6975 416.052H72.2537L72.2537 308.641H42.6975L42.6975 416.052Z" fill="#EBEBEB"/>
<path d="M59.5835 317.054H68.874V313.261H59.5835V317.054Z" fill="white"/>
<path d="M47.7004 317.054H56.991V313.261H47.7004V317.054Z" fill="white"/>
<path d="M59.5835 323.5H68.874V319.707H59.5835V323.5Z" fill="white"/>
<path d="M47.7004 323.5H56.991V319.707H47.7004V323.5Z" fill="white"/>
<path d="M59.5835 329.945H68.874V326.153H59.5835V329.945Z" fill="white"/>
<path d="M47.7004 329.945H56.991V326.153H47.7004V329.945Z" fill="white"/>
<path d="M59.5835 336.391H68.874V332.598H59.5835V336.391Z" fill="white"/>
<path d="M47.7004 336.391H56.991V332.598H47.7004V336.391Z" fill="white"/>
<path d="M59.5835 342.837H68.874V339.044H59.5835V342.837Z" fill="white"/>
<path d="M47.7004 342.837H56.991V339.044H47.7004V342.837Z" fill="white"/>
<path d="M59.5835 349.283H68.874V345.49H59.5835V349.283Z" fill="white"/>
<path d="M47.7004 349.283H56.991V345.49H47.7004V349.283Z" fill="white"/>
<path d="M59.5835 355.729H68.874V351.936H59.5835V355.729Z" fill="white"/>
<path d="M47.7004 355.729H56.991V351.936H47.7004V355.729Z" fill="white"/>
<path d="M59.5835 362.185H68.874V358.392H59.5835V362.185Z" fill="white"/>
<path d="M47.7004 362.185H56.991V358.392H47.7004V362.185Z" fill="white"/>
<path d="M59.5835 368.631H68.874V364.838H59.5835V368.631Z" fill="white"/>
<path d="M47.7004 368.631H56.991V364.838H47.7004V368.631Z" fill="white"/>
<path d="M59.5835 375.077H68.874V371.284H59.5835V375.077Z" fill="white"/>
<path d="M47.7004 375.077H56.991V371.284H47.7004V375.077Z" fill="white"/>
<path d="M59.5835 381.522H68.874V377.73H59.5835V381.522Z" fill="white"/>
<path d="M47.7004 381.522H56.991V377.73H47.7004V381.522Z" fill="white"/>
<path d="M59.5835 387.968H68.874V384.175H59.5835V387.968Z" fill="white"/>
<path d="M47.7004 387.968H56.991V384.175H47.7004V387.968Z" fill="white"/>
<path d="M59.5835 394.414H68.874V390.621H59.5835V394.414Z" fill="white"/>
<path d="M47.7004 394.414H56.991V390.621H47.7004V394.414Z" fill="white"/>
<path d="M59.5835 400.86H68.874V397.067H59.5835V400.86Z" fill="white"/>
<path d="M47.7004 400.86H56.991V397.067H47.7004V400.86Z" fill="white"/>
<path d="M18.7495 416.052H42.697L42.697 308.641H18.7495L18.7495 416.052Z" fill="#C7C7C7"/>
<path d="M28.7767 397.067H21.1506V400.86H28.7767V397.067Z" fill="#EBEBEB"/>
<path d="M38.5414 397.067H30.9153V400.86H38.5414V397.067Z" fill="#EBEBEB"/>
<path d="M28.7767 390.621H21.1506V394.414H28.7767V390.621Z" fill="#EBEBEB"/>
<path d="M38.5414 390.621H30.9153V394.414H38.5414V390.621Z" fill="#EBEBEB"/>
<path d="M28.7767 384.175H21.1506V387.968H28.7767V384.175Z" fill="#EBEBEB"/>
<path d="M38.5414 384.175H30.9153V387.968H38.5414V384.175Z" fill="#EBEBEB"/>
<path d="M28.7767 377.73H21.1506V381.522H28.7767V377.73Z" fill="#EBEBEB"/>
<path d="M38.5414 377.73H30.9153V381.522H38.5414V377.73Z" fill="#EBEBEB"/>
<path d="M28.7767 371.274H21.1506V375.067H28.7767V371.274Z" fill="#EBEBEB"/>
<path d="M38.5414 371.274H30.9153V375.067H38.5414V371.274Z" fill="#EBEBEB"/>
<path d="M28.7767 364.828H21.1506V368.621H28.7767V364.828Z" fill="#EBEBEB"/>
<path d="M38.5414 364.828H30.9153V368.621H38.5414V364.828Z" fill="#EBEBEB"/>
<path d="M28.7767 358.382H21.1506V362.175H28.7767V358.382Z" fill="#EBEBEB"/>
<path d="M38.5414 358.382H30.9153V362.175H38.5414V358.382Z" fill="#EBEBEB"/>
<path d="M28.7767 351.936H21.1506V355.729H28.7767V351.936Z" fill="#EBEBEB"/>
<path d="M38.5414 351.936H30.9153V355.729H38.5414V351.936Z" fill="#EBEBEB"/>
<path d="M28.7767 345.49H21.1506V349.283H28.7767V345.49Z" fill="#EBEBEB"/>
<path d="M38.5414 345.49H30.9153V349.283H38.5414V345.49Z" fill="#EBEBEB"/>
<path d="M28.7767 339.044H21.1506V342.837H28.7767V339.044Z" fill="#EBEBEB"/>
<path d="M38.5414 339.044H30.9153V342.837H38.5414V339.044Z" fill="#EBEBEB"/>
<path d="M28.7767 332.598H21.1506V336.391H28.7767V332.598Z" fill="#EBEBEB"/>
<path d="M38.5414 332.598H30.9153V336.391H38.5414V332.598Z" fill="#EBEBEB"/>
<path d="M28.7767 326.142H21.1506V329.935H28.7767V326.142Z" fill="#EBEBEB"/>
<path d="M38.5414 326.142H30.9153V329.935H38.5414V326.142Z" fill="#EBEBEB"/>
<path d="M28.7767 319.697H21.1506V323.49H28.7767V319.697Z" fill="#EBEBEB"/>
<path d="M38.5414 319.697H30.9153V323.49H38.5414V319.697Z" fill="#EBEBEB"/>
<path d="M28.7767 313.251H21.1506V317.044H28.7767V313.251Z" fill="#EBEBEB"/>
<path d="M38.5414 313.251H30.9153V317.044H38.5414V313.251Z" fill="#EBEBEB"/>
<path d="M564.873 310.043H583.151V288.456H564.873V310.043Z" fill="#DBDBDB"/>
<path d="M553.272 310.83H564.863V288.446H553.272V310.83Z" fill="#C7C7C7"/>
<path d="M552.505 310.83H564.005V297.978H552.505V310.83Z" fill="#DBDBDB"/>
<path d="M545.333 310.83H552.505V297.978H545.333V310.83Z" fill="#C7C7C7"/>
<path d="M560.605 416.052H590.162V308.641H560.605V416.052Z" fill="#EBEBEB"/>
<path d="M577.482 317.054H586.772V313.261H577.482V317.054Z" fill="white"/>
<path d="M565.599 317.054H574.89V313.261H565.599V317.054Z" fill="white"/>
<path d="M577.482 323.5H586.772V319.707H577.482V323.5Z" fill="white"/>
<path d="M565.599 323.5H574.89V319.707H565.599V323.5Z" fill="white"/>
<path d="M577.482 329.945H586.772V326.153H577.482V329.945Z" fill="white"/>
<path d="M565.599 329.945H574.89V326.153H565.599V329.945Z" fill="white"/>
<path d="M577.482 336.391H586.772V332.598H577.482V336.391Z" fill="white"/>
<path d="M565.599 336.391H574.89V332.598H565.599V336.391Z" fill="white"/>
<path d="M577.482 342.837H586.772V339.044H577.482V342.837Z" fill="white"/>
<path d="M565.599 342.837H574.89V339.044H565.599V342.837Z" fill="white"/>
<path d="M577.482 349.283H586.772V345.49H577.482V349.283Z" fill="white"/>
<path d="M565.599 349.283H574.89V345.49H565.599V349.283Z" fill="white"/>
<path d="M577.482 355.729H586.772V351.936H577.482V355.729Z" fill="white"/>
<path d="M565.599 355.729H574.89V351.936H565.599V355.729Z" fill="white"/>
<path d="M577.482 362.185H586.772V358.392H577.482V362.185Z" fill="white"/>
<path d="M565.599 362.185H574.89V358.392H565.599V362.185Z" fill="white"/>
<path d="M577.482 368.631H586.772V364.838H577.482V368.631Z" fill="white"/>
<path d="M565.599 368.631H574.89V364.838H565.599V368.631Z" fill="white"/>
<path d="M577.482 375.077H586.772V371.284H577.482V375.077Z" fill="white"/>
<path d="M565.599 375.077H574.89V371.284H565.599V375.077Z" fill="white"/>
<path d="M577.482 381.522H586.772V377.73H577.482V381.522Z" fill="white"/>
<path d="M565.599 381.522H574.89V377.73H565.599V381.522Z" fill="white"/>
<path d="M577.482 387.968H586.772V384.175H577.482V387.968Z" fill="white"/>
<path d="M565.599 387.968H574.89V384.175H565.599V387.968Z" fill="white"/>
<path d="M577.482 394.414H586.772V390.621H577.482V394.414Z" fill="white"/>
<path d="M565.599 394.414H574.89V390.621H565.599V394.414Z" fill="white"/>
<path d="M577.482 400.86H586.772V397.067H577.482V400.86Z" fill="white"/>
<path d="M565.599 400.86H574.89V397.067H565.599V400.86Z" fill="white"/>
<path d="M536.658 416.052H560.605V308.641H536.658V416.052Z" fill="#C7C7C7"/>
<path d="M546.675 397.067H539.049V400.86H546.675V397.067Z" fill="#EBEBEB"/>
<path d="M556.44 397.067H548.813V400.86H556.44V397.067Z" fill="#EBEBEB"/>
<path d="M546.675 390.621H539.049V394.414H546.675V390.621Z" fill="#EBEBEB"/>
<path d="M556.44 390.621H548.813V394.414H556.44V390.621Z" fill="#EBEBEB"/>
<path d="M546.675 384.175H539.049V387.968H546.675V384.175Z" fill="#EBEBEB"/>
<path d="M556.44 384.175H548.813V387.968H556.44V384.175Z" fill="#EBEBEB"/>
<path d="M546.675 377.73H539.049V381.522H546.675V377.73Z" fill="#EBEBEB"/>
<path d="M556.44 377.73H548.813V381.522H556.44V377.73Z" fill="#EBEBEB"/>
<path d="M546.675 371.274H539.049V375.067H546.675V371.274Z" fill="#EBEBEB"/>
<path d="M556.44 371.274H548.813V375.067H556.44V371.274Z" fill="#EBEBEB"/>
<path d="M546.675 364.828H539.049V368.621H546.675V364.828Z" fill="#EBEBEB"/>
<path d="M556.44 364.828H548.813V368.621H556.44V364.828Z" fill="#EBEBEB"/>
<path d="M546.675 358.382H539.049V362.175H546.675V358.382Z" fill="#EBEBEB"/>
<path d="M556.44 358.382H548.813V362.175H556.44V358.382Z" fill="#EBEBEB"/>
<path d="M546.675 351.936H539.049V355.729H546.675V351.936Z" fill="#EBEBEB"/>
<path d="M556.44 351.936H548.813V355.729H556.44V351.936Z" fill="#EBEBEB"/>
<path d="M546.675 345.49H539.049V349.283H546.675V345.49Z" fill="#EBEBEB"/>
<path d="M556.44 345.49H548.813V349.283H556.44V345.49Z" fill="#EBEBEB"/>
<path d="M546.675 339.044H539.049V342.837H546.675V339.044Z" fill="#EBEBEB"/>
<path d="M556.44 339.044H548.813V342.837H556.44V339.044Z" fill="#EBEBEB"/>
<path d="M546.675 332.598H539.049V336.391H546.675V332.598Z" fill="#EBEBEB"/>
<path d="M556.44 332.598H548.813V336.391H556.44V332.598Z" fill="#EBEBEB"/>
<path d="M546.675 326.142H539.049V329.935H546.675V326.142Z" fill="#EBEBEB"/>
<path d="M556.44 326.142H548.813V329.935H556.44V326.142Z" fill="#EBEBEB"/>
<path d="M546.675 319.697H539.049V323.49H546.675V319.697Z" fill="#EBEBEB"/>
<path d="M556.44 319.697H548.813V323.49H556.44V319.697Z" fill="#EBEBEB"/>
<path d="M546.675 313.251H539.049V317.044H546.675V313.251Z" fill="#EBEBEB"/>
<path d="M556.44 313.251H548.813V317.044H556.44V313.251Z" fill="#EBEBEB"/>
<path d="M596.093 416.052H630.956V346.065H596.093V416.052Z" fill="#C7C7C7"/>
<path d="M619.305 356.405H625.478V352.118H619.305V356.405Z" fill="#DBDBDB"/>
<path d="M619.305 365.554H625.478V361.267H619.305V365.554Z" fill="#DBDBDB"/>
<path d="M619.305 374.713H625.478V370.426H619.305V374.713Z" fill="#DBDBDB"/>
<path d="M619.305 383.873H625.478V379.586H619.305V383.873Z" fill="#DBDBDB"/>
<path d="M619.305 393.032H625.478V388.745H619.305V393.032Z" fill="#DBDBDB"/>
<path d="M619.305 402.192H625.478V397.904H619.305V402.192Z" fill="#DBDBDB"/>
<path d="M619.305 411.351H625.478V407.064H619.305V411.351Z" fill="#DBDBDB"/>
<path d="M610.428 356.405H616.601V352.118H610.428V356.405Z" fill="#DBDBDB"/>
<path d="M610.428 365.554H616.601V361.267H610.428V365.554Z" fill="#DBDBDB"/>
<path d="M610.428 374.713H616.601V370.426H610.428V374.713Z" fill="#DBDBDB"/>
<path d="M610.428 383.873H616.601V379.586H610.428V383.873Z" fill="#DBDBDB"/>
<path d="M610.428 393.032H616.601V388.745H610.428V393.032Z" fill="#DBDBDB"/>
<path d="M610.428 402.192H616.601V397.904H610.428V402.192Z" fill="#DBDBDB"/>
<path d="M610.428 411.351H616.601V407.064H610.428V411.351Z" fill="#DBDBDB"/>
<path d="M601.581 356.405H607.754V352.118H601.581V356.405Z" fill="#DBDBDB"/>
<path d="M601.581 365.554H607.754V361.267H601.581V365.554Z" fill="#DBDBDB"/>
<path d="M601.581 374.713H607.754V370.426H601.581V374.713Z" fill="#DBDBDB"/>
<path d="M601.581 383.873H607.754V379.586H601.581V383.873Z" fill="#DBDBDB"/>
<path d="M601.581 393.032H607.754V388.745H601.581V393.032Z" fill="#DBDBDB"/>
<path d="M601.581 402.192H607.754V397.904H601.581V402.192Z" fill="#DBDBDB"/>
<path d="M601.581 411.351H607.754V407.064H601.581V411.351Z" fill="#DBDBDB"/>
<path d="M596.094 346.055H619.305V338.762H596.094V346.055Z" fill="#DBDBDB"/>
<path d="M596.093 338.762H610.811V334.243H596.093V338.762Z" fill="#EBEBEB"/>
<path d="M571.642 416.052H596.104V346.065H571.642V416.052Z" fill="#A6A6A6"/>
<path d="M579.167 406.388H574.143V410.675H579.167V406.388Z" fill="#C7C7C7"/>
<path d="M579.167 397.229H574.143V401.516H579.167V397.229Z" fill="#C7C7C7"/>
<path d="M579.167 388.069H574.143V392.356H579.167V388.069Z" fill="#C7C7C7"/>
<path d="M579.167 378.91H574.143V383.197H579.167V378.91Z" fill="#C7C7C7"/>
<path d="M579.167 369.75H574.143V374.038H579.167V369.75Z" fill="#C7C7C7"/>
<path d="M579.167 360.591H574.143V364.878H579.167V360.591Z" fill="#C7C7C7"/>
<path d="M579.167 351.432H574.143V355.719H579.167V351.432Z" fill="#C7C7C7"/>
<path d="M586.389 406.388H581.366V410.675H586.389V406.388Z" fill="#C7C7C7"/>
<path d="M586.389 397.229H581.366V401.516H586.389V397.229Z" fill="#C7C7C7"/>
<path d="M586.389 388.069H581.366V392.356H586.389V388.069Z" fill="#C7C7C7"/>
<path d="M586.389 378.91H581.366V383.197H586.389V378.91Z" fill="#C7C7C7"/>
<path d="M586.389 369.75H581.366V374.038H586.389V369.75Z" fill="#C7C7C7"/>
<path d="M586.389 360.591H581.366V364.878H586.389V360.591Z" fill="#C7C7C7"/>
<path d="M586.389 351.432H581.366V355.719H586.389V351.432Z" fill="#C7C7C7"/>
<path d="M593.602 406.388H588.578V410.675H593.602V406.388Z" fill="#C7C7C7"/>
<path d="M593.602 397.229H588.578V401.516H593.602V397.229Z" fill="#C7C7C7"/>
<path d="M593.602 388.069H588.578V392.356H593.602V388.069Z" fill="#C7C7C7"/>
<path d="M593.602 378.91H588.578V383.197H593.602V378.91Z" fill="#C7C7C7"/>
<path d="M593.602 369.75H588.578V374.038H593.602V369.75Z" fill="#C7C7C7"/>
<path d="M593.602 360.591H588.578V364.878H593.602V360.591Z" fill="#C7C7C7"/>
<path d="M593.602 351.432H588.578V355.719H593.602V351.432Z" fill="#C7C7C7"/>
<path d="M575.344 346.055H596.094V338.762H575.344V346.055Z" fill="#C7C7C7"/>
<path d="M584.856 338.762H596.103V334.243H584.856V338.762Z" fill="#DBDBDB"/>
<path d="M582.536 150.349H60.8442V184.767H582.536V150.349Z" fill="#65A999"/>
<path opacity="0.7" d="M582.536 150.349H60.8442V184.767H582.536V150.349Z" fill="white"/>
<path opacity="0.5" d="M582.536 150.349H60.8442V160.114L582.536 156.502V150.349Z" fill="#65A999"/>
<path d="M588.174 143.086H55.1951V150.359H588.174V143.086Z" fill="#65A999"/>
<path d="M153.134 132.393H105.501V143.076H153.134V132.393Z" fill="#C7C7C7"/>
<path d="M119.442 126.089H112.704V132.393H119.442V126.089Z" fill="#C7C7C7"/>
<path d="M145.922 126.089H139.183V132.393H145.922V126.089Z" fill="#C7C7C7"/>
<path d="M560.777 132.393H513.144V143.076H560.777V132.393Z" fill="#C7C7C7"/>
<path d="M527.085 126.089H520.347V132.393H527.085V126.089Z" fill="#C7C7C7"/>
<path d="M553.575 126.089H546.836V132.393H553.575V126.089Z" fill="#C7C7C7"/>
<path d="M501.726 132.393H454.093V143.076H501.726V132.393Z" fill="#C7C7C7"/>
<path d="M468.033 126.089H461.295V132.393H468.033V126.089Z" fill="#C7C7C7"/>
<path d="M494.513 126.089H487.774V132.393H494.513V126.089Z" fill="#C7C7C7"/>
<path d="M616.127 192.04H27.2432V416.021H616.127V192.04Z" fill="#65A999"/>
<path opacity="0.7" d="M616.127 192.04H27.2432V416.021H616.127V192.04Z" fill="white"/>
<path opacity="0.5" d="M616.127 384.125H27.2432V416.021H616.127V384.125Z" fill="#65A999"/>
<path d="M621.766 184.777H21.5942V192.05H621.766V184.777Z" fill="#65A999"/>
<path opacity="0.5" d="M616.127 192.04H27.2432V201.805L616.127 198.194V192.04Z" fill="#65A999"/>
<path d="M63.79 213.123H37.946V250.961H63.79V213.123Z" fill="#37474F"/>
<path d="M91.5605 213.123H65.7166V250.961H91.5605V213.123Z" fill="#37474F"/>
<path d="M119.331 213.123H93.4871V250.961H119.331V213.123Z" fill="#37474F"/>
<path d="M154.567 213.123H128.723V250.961H154.567V213.123Z" fill="#37474F"/>
<path d="M182.337 213.123H156.493V250.961H182.337V213.123Z" fill="#37474F"/>
<path d="M210.108 213.123H184.264V250.961H210.108V213.123Z" fill="#37474F"/>
<path d="M63.79 264.226H37.946V302.064H63.79V264.226Z" fill="#37474F"/>
<path d="M91.5605 264.226H65.7166V302.064H91.5605V264.226Z" fill="#37474F"/>
<path d="M119.331 264.226H93.4871V302.064H119.331V264.226Z" fill="#37474F"/>
<path d="M154.567 264.226H128.723V302.064H154.567V264.226Z" fill="#37474F"/>
<path d="M182.337 264.226H156.493V302.064H182.337V264.226Z" fill="#37474F"/>
<path d="M210.108 264.226H184.264V302.064H210.108V264.226Z" fill="#37474F"/>
<path d="M63.79 315.319H37.946V353.157H63.79V315.319Z" fill="#37474F"/>
<path d="M91.5605 315.319H65.7166V353.157H91.5605V315.319Z" fill="#37474F"/>
<path d="M119.331 315.319H93.4871V353.157H119.331V315.319Z" fill="#37474F"/>
<path d="M154.567 315.319H128.723V353.157H154.567V315.319Z" fill="#37474F"/>
<path d="M182.337 315.319H156.493V353.157H182.337V315.319Z" fill="#37474F"/>
<path d="M210.108 315.319H184.264V353.157H210.108V315.319Z" fill="#37474F"/>
<path d="M459.106 213.123H433.262V250.961H459.106V213.123Z" fill="#37474F"/>
<path d="M486.877 213.123H461.033V250.961H486.877V213.123Z" fill="#37474F"/>
<path d="M514.647 213.123H488.803V250.961H514.647V213.123Z" fill="#37474F"/>
<path d="M549.883 213.123H524.039V250.961H549.883V213.123Z" fill="#37474F"/>
<path d="M577.653 213.123H551.809V250.961H577.653V213.123Z" fill="#37474F"/>
<path d="M605.424 213.123H579.58V250.961H605.424V213.123Z" fill="#37474F"/>
<path d="M459.106 264.226H433.262V302.064H459.106V264.226Z" fill="#37474F"/>
<path d="M486.877 264.226H461.033V302.064H486.877V264.226Z" fill="#37474F"/>
<path d="M514.647 264.226H488.803V302.064H514.647V264.226Z" fill="#37474F"/>
<path d="M549.883 264.226H524.039V302.064H549.883V264.226Z" fill="#37474F"/>
<path d="M577.653 264.226H551.809V302.064H577.653V264.226Z" fill="#37474F"/>
<path d="M605.424 264.226H579.58V302.064H605.424V264.226Z" fill="#37474F"/>
<path d="M459.106 315.319H433.262V353.157H459.106V315.319Z" fill="#37474F"/>
<path d="M486.877 315.319H461.033V353.157H486.877V315.319Z" fill="#37474F"/>
<path d="M514.647 315.319H488.803V353.157H514.647V315.319Z" fill="#37474F"/>
<path d="M549.883 315.319H524.039V353.157H549.883V315.319Z" fill="#37474F"/>
<path d="M577.653 315.319H551.809V353.157H577.653V315.319Z" fill="#37474F"/>
<path d="M605.424 315.319H579.58V353.157H605.424V315.319Z" fill="#37474F"/>
<path d="M616.127 255.349H27.2432V259.717H616.127V255.349Z" fill="white"/>
<path d="M616.127 306.442H27.2432V310.81H616.127V306.442Z" fill="white"/>
<path d="M616.127 357.545H27.2432V361.912H616.127V357.545Z" fill="white"/>
<path opacity="0.5" d="M616.127 259.717H27.2432V262.864L616.127 261.29V259.717Z" fill="#65A999"/>
<path opacity="0.5" d="M616.127 310.81H27.2432V313.957L616.127 312.383V310.81Z" fill="#65A999"/>
<path opacity="0.5" d="M616.127 361.913H27.2432V365.05L616.127 363.486V361.913Z" fill="#65A999"/>
<path opacity="0.2" d="M37.946 244.888L63.79 219.044V230.504L43.3327 250.961H37.946V244.888ZM69.7113 213.123L65.6764 217.158V228.617L81.1404 213.163L69.7113 213.123ZM138.921 353.157H150.391L182.337 321.21V315.319H176.759L138.921 353.157ZM184.315 319.283L188.279 315.319H184.315V319.283ZM190.074 302.054H201.544L210.159 293.439V281.97L190.074 302.054ZM442.089 213.123L433.313 221.899V233.358L453.558 213.123H442.089ZM459.157 353.157V350.342L456.342 353.157H459.157ZM461.083 353.157H467.812L486.978 334.041V322.572L461.134 348.416L461.083 353.157ZM494.18 315.319L488.854 320.645V332.114L505.649 315.319H494.18ZM514.698 302.054V294.801L507.445 302.054H514.698ZM524.039 285.46V296.929L549.883 271.085V264.276H545.222L524.039 285.46ZM551.81 269.159L556.722 264.276H551.84L551.81 269.159ZM569.967 251.001L577.664 243.305V231.795L558.498 250.961L569.967 251.001ZM596.335 213.163L579.59 229.908V241.378L605.434 215.534V213.163H596.335ZM592.815 353.197H604.284L605.434 352.047V340.537L592.815 353.197ZM38.0066 266.546V272.286L46.0765 264.266H40.246L38.0066 266.546ZM59.291 251.001L63.8506 246.442V240.702L53.4908 250.961L59.291 251.001ZM91.3892 213.163L65.7772 238.775V244.515L91.6212 218.671V213.163H91.3892ZM93.5479 213.163V216.744L97.129 213.163H93.5479ZM433.323 279.206V284.945L454.002 264.266H448.262L433.323 279.206ZM467.267 250.961L486.937 231.29V225.551L461.467 250.961H467.267ZM499.365 213.123L488.803 223.624V229.364L505.054 213.123H499.365ZM559.657 353.157L577.714 335.1V329.36L553.918 353.157H559.657ZM591.756 315.319L579.651 327.424V333.163L597.506 315.309L591.756 315.319ZM605.021 302.054H605.485V301.6L605.021 302.054ZM486.877 353.157V347.76L481.48 353.157H486.877ZM488.803 351.573L514.647 325.729V319.989L488.803 345.833V351.573ZM524.039 316.337L525.048 315.329H524.039V316.337ZM538.323 302.054L549.883 290.504V284.754L532.583 302.054H538.323ZM570.411 264.276L551.81 282.878V288.617L576.151 264.276H570.411ZM583.676 251.011H589.415L605.424 235.003V229.263L583.676 251.011ZM37.946 282.434V283.745L57.3946 264.276H56.0832L37.946 282.434ZM107.216 213.163L69.3785 250.961H70.6898L91.5607 230.09L93.4874 228.163L108.528 213.123L107.216 213.163ZM161.527 353.197L182.337 332.387V331.075L160.216 353.197H161.527ZM198.054 315.359L184.264 329.149V330.46L199.395 315.329L198.054 315.359ZM95.283 353.157L119.331 329.108V327.827L93.9716 353.187L95.283 353.157ZM131.81 315.319L128.723 318.405V319.757L133.121 315.359L131.81 315.319ZM146.386 302.054L154.567 293.873V292.521L145.074 302.013L146.386 302.054ZM156.473 290.635V291.946L182.317 266.102V264.791L156.473 290.635ZM196.147 250.961H197.458L210.088 238.331V237.04L196.147 250.961ZM46.8532 353.157L63.79 336.22V330.48L41.1135 353.157H46.8532ZM78.9514 315.319L65.7167 328.553V334.293L84.6912 315.319H78.9514ZM93.4874 302.054H97.9561L119.331 280.678V274.939L93.4874 300.783V302.054ZM130.024 264.276L128.703 265.598V271.338L135.764 264.276H130.024ZM149.029 251.011L154.547 245.494V239.754L143.309 250.961L149.029 251.011ZM181.127 213.173L156.473 237.827V243.567L182.317 217.733V213.173H181.127ZM184.244 213.173V215.806L186.877 213.173H184.244ZM169.668 353.157L182.337 340.487V334.747L163.928 353.157H169.668ZM201.766 315.319L184.264 332.871V338.611L207.465 315.409L201.766 315.319ZM201.897 353.157H203.208L210.108 346.257V344.976L201.897 353.157ZM448.111 353.157L459.106 342.161V340.85L446.769 353.157H448.111ZM484.637 315.319L461.033 338.923V340.235L485.949 315.319H484.637ZM499.224 302.054L514.658 286.62V285.309L497.912 302.054H499.224ZM535.74 264.226L524.039 275.917V277.229L537.042 264.276L535.74 264.226ZM549.863 250.961V250.073L548.975 250.961H549.863ZM551.789 249.458L577.633 223.624V222.313L551.81 248.136L551.789 249.458ZM586.823 213.143L579.56 220.406V221.717L588.134 213.143H586.823ZM551.81 333.012L549.883 334.939L531.665 353.157H532.976L549.883 336.25L551.81 334.323L570.845 315.319H569.533L551.81 333.012ZM582.768 302.054H584.079L605.424 280.709V279.407L582.768 302.054ZM586.107 353.157H587.418L605.424 335.151V333.88L586.107 353.157Z" fill="white"/>
<path opacity="0.5" d="M216.634 416.052H220.165V150.349H212.771L216.634 416.052Z" fill="#65A999"/>
<path opacity="0.5" d="M426.735 416.052H423.205V150.349H430.599L426.735 416.052Z" fill="#65A999"/>
<path d="M392.479 42.2723H250.881V70.5574H392.479V42.2723Z" fill="#65A999"/>
<path opacity="0.6" d="M392.479 42.2723H250.881V70.5574H392.479V42.2723Z" fill="white"/>
<path opacity="0.5" d="M392.489 42.2723H250.881V52.0369L392.489 48.4256V42.2723Z" fill="#65A999"/>
<path d="M398.127 35.0093H245.242V42.2824H398.127V35.0093Z" fill="#65A999"/>
<path d="M423.205 95.6247H220.165V416.021H423.205V95.6247Z" fill="#65A999"/>
<path opacity="0.7" d="M423.205 95.6247H220.165V416.021H423.205V95.6247Z" fill="white"/>
<path d="M238.938 76.6401H220.165V416.021H238.938V76.6401Z" fill="#65A999"/>
<path opacity="0.8" d="M238.938 76.6401H220.165V416.021H238.938V76.6401Z" fill="white"/>
<path d="M423.205 76.6401H404.432V416.021H423.205V76.6401Z" fill="#65A999"/>
<path opacity="0.8" d="M423.205 76.6401H404.432V416.021H423.205V76.6401Z" fill="white"/>
<path d="M404.422 64.8984H238.938V95.6146H404.422V64.8984Z" fill="#65A999"/>
<path d="M257.62 88.7551V72.3126C257.617 72.1105 257.655 71.9099 257.731 71.7227C257.807 71.5354 257.92 71.3653 258.063 71.2224C258.205 71.0795 258.376 70.9666 258.563 70.8905C258.75 70.8144 258.951 70.7766 259.153 70.7794C259.357 70.7753 259.559 70.812 259.749 70.8873C259.938 70.9625 260.111 71.0748 260.257 71.2176C260.402 71.3604 260.518 71.5308 260.597 71.7188C260.676 71.9068 260.716 72.1087 260.716 72.3126V79.0006H267.929V72.3126C267.926 72.1105 267.964 71.9099 268.04 71.7227C268.116 71.5354 268.229 71.3653 268.372 71.2224C268.515 71.0795 268.685 70.9666 268.872 70.8905C269.059 70.8144 269.26 70.7766 269.462 70.7794C269.666 70.7753 269.869 70.812 270.058 70.8873C270.248 70.9625 270.42 71.0748 270.566 71.2176C270.712 71.3604 270.827 71.5308 270.906 71.7188C270.985 71.9068 271.026 72.1087 271.026 72.3126V88.7551C271.024 88.9587 270.983 89.1599 270.903 89.3474C270.824 89.5348 270.708 89.7046 270.563 89.8471C270.418 89.9896 270.246 90.102 270.057 90.1777C269.868 90.2535 269.666 90.2911 269.462 90.2884C269.26 90.2898 269.06 90.251 268.874 90.1744C268.687 90.0979 268.518 89.985 268.375 89.8423C268.232 89.6997 268.119 89.5301 268.043 89.3435C267.966 89.1569 267.928 88.9569 267.929 88.7551V82.0672H260.716V88.7551C260.715 88.9587 260.674 89.1599 260.594 89.3474C260.515 89.5348 260.399 89.7046 260.254 89.8471C260.108 89.9896 259.936 90.102 259.747 90.1777C259.558 90.2535 259.356 90.2911 259.153 90.2884C258.951 90.2898 258.751 90.251 258.564 90.1744C258.378 90.0979 258.208 89.985 258.066 89.8423C257.923 89.6997 257.81 89.5301 257.734 89.3435C257.657 89.1569 257.618 88.9569 257.62 88.7551Z" fill="white"/>
<path d="M291.927 73.2104C293.74 75.1142 294.752 77.6425 294.752 80.2716C294.752 82.9007 293.74 85.429 291.927 87.3328C291.088 88.2713 290.063 89.025 288.917 89.5459C287.77 90.0669 286.528 90.3438 285.27 90.359C283.985 90.3498 282.715 90.0764 281.54 89.5558C280.366 89.0352 279.31 88.2785 278.44 87.3328C276.659 85.4131 275.668 82.8908 275.668 80.2716C275.668 77.6525 276.659 75.1301 278.44 73.2104C279.307 72.2609 280.362 71.5017 281.537 70.9807C282.713 70.4598 283.984 70.1886 285.27 70.1842C286.528 70.1994 287.77 70.4763 288.917 70.9973C290.063 71.5183 291.088 72.2719 291.927 73.2104ZM291.564 80.2716C291.564 78.4675 290.887 76.7291 289.668 75.3994C289.113 74.7787 288.436 74.2791 287.679 73.932C286.922 73.5849 286.102 73.3976 285.27 73.3819C284.417 73.3808 283.573 73.5599 282.794 73.9076C282.015 74.2553 281.319 74.7637 280.75 75.3994C279.518 76.721 278.839 78.4647 278.854 80.2716C278.836 82.0731 279.516 83.8116 280.75 85.1237C281.309 85.7553 281.995 86.261 282.764 86.6074C283.532 86.9538 284.366 87.1329 285.209 87.1329C286.052 87.1329 286.886 86.9538 287.654 86.6074C288.423 86.261 289.109 85.7553 289.668 85.1237C290.892 83.8013 291.57 82.0638 291.564 80.2615V80.2716Z" fill="white"/>
<path d="M299.492 85.4465C299.736 85.1557 300.084 84.9725 300.462 84.9367C300.839 84.9008 301.216 85.0151 301.51 85.2548C303.007 86.5248 304.876 87.2752 306.836 87.3933C308.072 87.425 309.288 87.0725 310.316 86.3846C310.665 86.1715 310.957 85.8763 311.166 85.5247C311.376 85.1731 311.496 84.7757 311.516 84.3671C311.521 84.0529 311.434 83.7442 311.264 83.4794C311.053 83.1402 310.766 82.8538 310.427 82.6422C309.247 81.9758 307.954 81.5314 306.614 81.3308H306.553C305.315 81.1197 304.109 80.7537 302.962 80.2414C301.906 79.7852 301.005 79.0316 300.37 78.0726C299.942 77.3897 299.718 76.5987 299.724 75.7928C299.758 74.9935 299.977 74.213 300.364 73.5128C300.751 72.8126 301.295 72.2118 301.954 71.7578C303.368 70.7759 305.054 70.2609 306.775 70.2851C308.971 70.4027 311.08 71.1796 312.828 72.5144C312.988 72.6191 313.126 72.755 313.233 72.914C313.34 73.073 313.414 73.2518 313.451 73.4399C313.488 73.6281 313.486 73.8217 313.447 74.0092C313.407 74.1968 313.331 74.3745 313.221 74.5319C313.121 74.6974 312.988 74.8404 312.83 74.9519C312.672 75.0635 312.492 75.1411 312.303 75.18C312.113 75.2188 311.918 75.218 311.729 75.1777C311.54 75.1373 311.361 75.0582 311.204 74.9455C309.924 73.9095 308.357 73.29 306.715 73.1701C305.603 73.1492 304.513 73.4773 303.598 74.1082C303.292 74.295 303.036 74.5532 302.851 74.8606C302.667 75.168 302.559 75.5156 302.539 75.8735C302.521 76.1459 302.588 76.4171 302.73 76.6502C302.934 76.9384 303.191 77.1849 303.487 77.3765C304.557 78.0037 305.739 78.4182 306.967 78.5971H307.028C308.35 78.834 309.64 79.2268 310.871 79.7672C311.998 80.26 312.963 81.0607 313.655 82.0773C314.088 82.7923 314.318 83.6118 314.321 84.4478C314.296 85.3061 314.066 86.1459 313.65 86.897C313.234 87.6482 312.644 88.2888 311.93 88.7652C310.424 89.8296 308.619 90.3878 306.775 90.359C304.158 90.2335 301.654 89.2558 299.644 87.5749C299.491 87.4471 299.365 87.2899 299.275 87.1125C299.184 86.9352 299.13 86.7414 299.116 86.5428C299.102 86.3442 299.128 86.1447 299.193 85.9564C299.257 85.768 299.359 85.5946 299.492 85.4465Z" fill="white"/>
<path d="M325.195 82.7027H321.766V88.7551C321.766 89.1645 321.603 89.557 321.314 89.8465C321.024 90.1359 320.632 90.2985 320.222 90.2985C319.813 90.2985 319.42 90.1359 319.131 89.8465C318.842 89.557 318.679 89.1645 318.679 88.7551V72.3126C318.678 72.1109 318.716 71.9109 318.793 71.7243C318.87 71.5377 318.982 71.3681 319.125 71.2255C319.268 71.0828 319.437 70.9699 319.624 70.8933C319.811 70.8168 320.011 70.778 320.212 70.7794H325.195C326.777 70.7794 328.293 71.4075 329.411 72.5255C330.529 73.6435 331.157 75.1599 331.157 76.741C331.157 78.3222 330.529 79.8385 329.411 80.9566C328.293 82.0746 326.777 82.7027 325.195 82.7027ZM321.766 79.6159H325.195C325.587 79.6391 325.978 79.5821 326.347 79.4484C326.715 79.3147 327.052 79.107 327.337 78.8383C327.623 78.5695 327.85 78.2453 328.005 77.8855C328.16 77.5257 328.241 77.1379 328.241 76.7461C328.241 76.3542 328.16 75.9665 328.005 75.6067C327.85 75.2469 327.623 74.9227 327.337 74.6539C327.052 74.3851 326.715 74.1775 326.347 74.0438C325.978 73.91 325.587 73.853 325.195 73.8762H321.766V79.6159Z" fill="white"/>
<path d="M335.111 72.3227C335.109 72.1206 335.146 71.92 335.222 71.7328C335.299 71.5455 335.411 71.3754 335.554 71.2325C335.697 71.0896 335.867 70.9767 336.055 70.9006C336.242 70.8245 336.442 70.7867 336.644 70.7894C337.055 70.7867 337.449 70.9465 337.742 71.2337C338.035 71.521 338.203 71.9125 338.208 72.3227V88.7551C338.2 89.1646 338.032 89.5545 337.74 89.8412C337.447 90.1279 337.054 90.2885 336.644 90.2884C336.443 90.2898 336.243 90.251 336.056 90.1744C335.87 90.0979 335.7 89.985 335.557 89.8423C335.415 89.6997 335.302 89.5301 335.225 89.3435C335.149 89.1569 335.11 88.9569 335.111 88.7551V72.3227Z" fill="white"/>
<path d="M355.347 73.8863H350.939V88.7551C350.88 89.114 350.695 89.4403 350.418 89.6758C350.141 89.9113 349.789 90.0405 349.425 90.0405C349.062 90.0405 348.71 89.9113 348.433 89.6758C348.156 89.4403 347.971 89.114 347.912 88.7551V73.8863H343.504C343.095 73.8784 342.705 73.7101 342.418 73.4178C342.131 73.1254 341.971 72.7322 341.971 72.3227C341.968 72.1206 342.006 71.92 342.082 71.7328C342.158 71.5455 342.271 71.3754 342.414 71.2325C342.557 71.0896 342.727 70.9767 342.914 70.9006C343.101 70.8245 343.302 70.7867 343.504 70.7894H355.407C355.609 70.7881 355.809 70.8268 355.996 70.9034C356.182 70.98 356.352 71.0929 356.494 71.2355C356.637 71.3782 356.75 71.5478 356.827 71.7344C356.903 71.921 356.942 72.121 356.941 72.3227C356.939 72.5302 356.897 72.7354 356.816 72.9265C356.735 73.1176 356.617 73.2908 356.469 73.4361C356.321 73.5814 356.145 73.696 355.953 73.7733C355.76 73.8505 355.554 73.8889 355.347 73.8863Z" fill="white"/>
<path d="M368.773 85.7289H362.035L360.673 89.3503C360.561 89.6454 360.362 89.8997 360.103 90.0798C359.844 90.2598 359.536 90.3572 359.22 90.359C359.041 90.3609 358.864 90.3301 358.696 90.2682C358.307 90.1211 357.993 89.8264 357.821 89.4485C357.649 89.0707 357.634 88.6401 357.778 88.2508L363.931 71.8486C364.043 71.5494 364.245 71.2921 364.508 71.1116C364.772 70.9311 365.084 70.8362 365.404 70.8399C365.726 70.8311 366.042 70.9238 366.308 71.1048C366.574 71.2859 366.777 71.5461 366.887 71.8486L373.04 88.2508C373.184 88.6401 373.168 89.0707 372.996 89.4485C372.825 89.8264 372.51 90.1211 372.122 90.2682C371.955 90.332 371.777 90.3628 371.597 90.359C371.285 90.3611 370.979 90.2649 370.724 90.0839C370.469 89.9029 370.277 89.6463 370.175 89.3503L368.773 85.7289ZM367.633 82.7027L365.374 76.6502L363.124 82.6422L367.633 82.7027Z" fill="white"/>
<path d="M376.833 88.7551V72.3126C376.831 72.1109 376.87 71.9109 376.947 71.7243C377.023 71.5377 377.136 71.3681 377.279 71.2255C377.422 71.0828 377.591 70.9699 377.778 70.8933C377.964 70.8168 378.164 70.778 378.366 70.7794C378.775 70.7793 379.167 70.9402 379.457 71.2272C379.748 71.5142 379.914 71.9041 379.92 72.3126V87.1916H387.475C387.864 87.223 388.227 87.3998 388.492 87.6867C388.756 87.9736 388.903 88.3497 388.903 88.74C388.903 89.1304 388.756 89.5064 388.492 89.7933C388.227 90.0803 387.864 90.257 387.475 90.2884H378.396C378.192 90.2939 377.989 90.2581 377.799 90.1834C377.609 90.1086 377.435 89.9964 377.289 89.8533C377.144 89.7102 377.028 89.5393 376.95 89.3506C376.871 89.162 376.831 88.9595 376.833 88.7551Z" fill="white"/>
<path opacity="0.5" d="M400.901 416.021H404.432V95.6247L397.058 106.126L400.901 416.021Z" fill="#65A999"/>
<path opacity="0.5" d="M242.468 416.021H238.938V95.6247L246.312 106.126L242.468 416.021Z" fill="#65A999"/>
<path d="M404.422 152.245H238.938V156.613H404.422V152.245Z" fill="white"/>
<path opacity="0.5" d="M404.432 156.613H238.938V159.761L404.432 158.187V156.613Z" fill="#65A999"/>
<path opacity="0.5" d="M404.432 215.292H238.938V218.439L404.432 216.865V215.292Z" fill="#65A999"/>
<path opacity="0.5" d="M404.432 273.97H238.938V277.118L404.432 275.544V273.97Z" fill="#65A999"/>
<path d="M404.422 210.924H238.938V215.292H404.422V210.924Z" fill="white"/>
<path d="M281.194 106.166H255.35V144.004H281.194V106.166Z" fill="#37474F"/>
<path d="M316.803 106.166H290.959V144.004H316.803V106.166Z" fill="#37474F"/>
<path d="M352.411 106.166H326.567V144.004H352.411V106.166Z" fill="#37474F"/>
<path d="M388.02 106.166H362.176V144.004H388.02V106.166Z" fill="#37474F"/>
<path d="M281.194 164.855H255.35V202.693H281.194V164.855Z" fill="#37474F"/>
<path d="M316.803 164.855H290.959V202.693H316.803V164.855Z" fill="#37474F"/>
<path d="M352.411 164.855H326.567V202.693H352.411V164.855Z" fill="#37474F"/>
<path d="M388.02 164.855H362.176V202.693H388.02V164.855Z" fill="#37474F"/>
<path d="M281.194 223.533H255.35V261.371H281.194V223.533Z" fill="#37474F"/>
<path d="M316.803 223.533H290.959V261.371H316.803V223.533Z" fill="#37474F"/>
<path d="M352.411 223.533H326.567V261.371H352.411V223.533Z" fill="#37474F"/>
<path d="M388.02 223.533H362.176V261.371H388.02V223.533Z" fill="#37474F"/>
<path d="M281.194 282.202H255.35V320.04H281.194V282.202Z" fill="#37474F"/>
<path d="M316.803 282.202H290.959V320.04H316.803V282.202Z" fill="#37474F"/>
<path d="M352.411 282.202H326.567V320.04H352.411V282.202Z" fill="#37474F"/>
<path d="M388.02 282.202H362.176V320.04H388.02V282.202Z" fill="#37474F"/>
<path opacity="0.5" d="M404.432 273.97H238.938V277.108L404.432 275.544V273.97Z" fill="#65A999"/>
<path d="M404.422 269.602H238.938V273.97H404.422V269.602Z" fill="white"/>
<path opacity="0.5" d="M404.432 332.649H238.938V335.796L404.432 334.223V332.649Z" fill="#65A999"/>
<path opacity="0.5" d="M404.432 332.639H238.938V335.786L404.432 334.212V332.639Z" fill="#65A999"/>
<path d="M404.422 328.271H238.938V332.639H404.422V328.271Z" fill="white"/>
<path d="M353.541 354.892H288.366V416.021H353.541V354.892Z" fill="white"/>
<path d="M319.284 358.917H288.366V416.021H319.284V358.917Z" fill="#37474F"/>
<path d="M353.551 358.917H322.633V416.021H353.551V358.917Z" fill="#37474F"/>
<path d="M288.366 354.892H278.399V416.021H288.366V354.892Z" fill="white"/>
<path d="M370.155 354.892V344.925H273.215V354.892H370.155Z" fill="white"/>
<path d="M363.507 354.892H353.541V416.021H363.507V354.892Z" fill="white"/>
<path d="M278.399 354.892V356.596L363.517 357.212V354.892H278.399Z" fill="#EBEBEB"/>
<g opacity="0.2">
<path opacity="0.2" d="M307.704 358.917L288.366 378.254V366.795L296.244 358.917H307.704Z" fill="white"/>
<path opacity="0.2" d="M319.284 393.153V398.883L302.145 416.021H296.416L319.284 393.153Z" fill="white"/>
<path opacity="0.2" d="M353.54 358.917V364.626L322.633 395.534V389.804L353.52 358.917H353.54Z" fill="white"/>
</g>
<g opacity="0.2">
<path opacity="0.2" d="M268.544 223.533H280.014L255.35 248.197V236.728L268.544 223.533Z" fill="white"/>
<path opacity="0.2" d="M290.959 201.119L316.803 175.275V186.744L300.865 202.683H290.959V201.119Z" fill="white"/>
<path opacity="0.2" d="M327.223 164.855H338.692L326.567 176.98V165.51L327.223 164.855Z" fill="white"/>
<path opacity="0.2" d="M352.411 139.666V144.004H348.074L352.411 139.666Z" fill="white"/>
<path opacity="0.2" d="M335.122 320.04L352.412 302.75V314.209L346.581 320.04H335.122Z" fill="white"/>
<path opacity="0.2" d="M384.419 282.202L362.176 304.444V292.985L372.959 282.202H384.419Z" fill="white"/>
<path opacity="0.2" d="M326.567 318.012L352.411 292.168V293.479L326.567 319.323V318.012Z" fill="white"/>
<path opacity="0.2" d="M363.689 282.202L362.176 283.715V282.403L362.378 282.202H363.689Z" fill="white"/>
<path opacity="0.2" d="M388.02 256.559V257.871L384.52 261.371H383.208L388.02 256.559Z" fill="white"/>
<path opacity="0.2" d="M255.35 258.022L281.194 232.178V233.49L255.35 259.333V258.022Z" fill="white"/>
<path opacity="0.2" d="M290.959 223.533H291.15L290.959 223.725V223.533Z" fill="white"/>
<path opacity="0.2" d="M310.69 202.683L316.803 196.57V197.881L312.001 202.683H310.69Z" fill="white"/>
<path opacity="0.2" d="M348.518 164.855H349.829L326.567 188.116V186.805L348.518 164.855Z" fill="white"/>
<path opacity="0.2" d="M388.02 125.352V126.664L370.68 144.004H369.368L388.02 125.352Z" fill="white"/>
<path opacity="0.2" d="M255.35 191.778L281.194 165.934V167.245L255.35 193.089V191.778Z" fill="white"/>
<path opacity="0.2" d="M303.125 144.004L316.803 130.325V131.637L304.436 144.004H303.125Z" fill="white"/>
<path opacity="0.2" d="M342.274 106.166L326.567 121.872V120.561L340.962 106.166H342.274Z" fill="white"/>
<path opacity="0.2" d="M281.194 113.076V118.826L256.016 144.004H255.35V138.92L281.194 113.076Z" fill="white"/>
<path opacity="0.2" d="M255.35 308.126L281.194 282.282V288.032L255.35 313.876V308.126Z" fill="white"/>
<path opacity="0.2" d="M339.943 223.533H345.693L326.567 242.659L316.803 252.424L307.855 261.371H302.105L316.803 246.674L326.567 236.909L339.943 223.533Z" fill="white"/>
<path opacity="0.2" d="M388.02 175.467V181.206L366.544 202.683H362.176V201.311L388.02 175.467Z" fill="white"/>
<path opacity="0.2" d="M255.713 261.371L281.194 235.89V241.63L261.453 261.371H255.713Z" fill="white"/>
<path opacity="0.2" d="M293.551 223.533H299.291L290.959 231.865V226.126L293.551 223.533Z" fill="white"/>
<path opacity="0.2" d="M314.402 202.683L316.803 200.282V202.683H314.402Z" fill="white"/>
<path opacity="0.2" d="M352.23 164.855H352.411V170.413L326.567 196.257V190.517L352.23 164.855Z" fill="white"/>
<path opacity="0.2" d="M388.02 129.064V134.804L378.821 144.004H373.081L388.02 129.064Z" fill="white"/>
<path opacity="0.2" d="M272.852 282.202H274.163L255.35 301.015V299.703L272.852 282.202Z" fill="white"/>
<path opacity="0.2" d="M331.52 223.533H332.831L326.567 229.798L316.803 239.562L294.994 261.371H293.682L331.52 223.533Z" fill="white"/>
<path opacity="0.2" d="M352.371 202.682L352.41 202.642V202.682H352.371Z" fill="white"/>
<path opacity="0.2" d="M388.02 167.034V168.345L362.176 194.189V192.878L388.02 167.034Z" fill="white"/>
</g>
<path d="M321.685 54.236C332.304 54.236 340.912 45.6279 340.912 35.0093C340.912 24.3908 332.304 15.7827 321.685 15.7827C311.067 15.7827 302.458 24.3908 302.458 35.0093C302.458 45.6279 311.067 54.236 321.685 54.236Z" fill="#37474F"/>
<path d="M324.812 22.9751H318.558V47.0336H324.812V22.9751Z" fill="white"/>
<path d="M309.651 31.8822V38.1364H333.709V31.8822H309.651Z" fill="white"/>
<path d="M4.63745 416.021C207.758 415.406 435.613 415.396 638.733 416.021C435.613 416.647 207.758 416.637 4.63745 416.021Z" fill="#263238"/>
<path d="M197.125 365.403H191.456L191.93 363.042L192.324 361.156C192.354 360.997 192.439 360.853 192.565 360.75C192.69 360.647 192.847 360.591 193.01 360.591H195.784C195.95 360.592 196.111 360.652 196.237 360.761C196.363 360.871 196.445 361.021 196.47 361.186V361.378L197.125 365.403Z" fill="#65A999"/>
<path d="M197.872 366.412L190.377 367.672L190.881 365.393L190.932 365.151H197.63L197.761 365.867L197.872 366.412Z" fill="#EBEBEB"/>
<path d="M200.999 365.645L199.899 390.026L199.677 394.868L199.153 406.509H165.703L168.104 395.06L168.85 391.479C168.895 391.293 168.962 391.113 169.052 390.944C169.184 390.686 169.369 390.459 169.597 390.278C169.781 390.131 169.989 390.015 170.212 389.935L180.299 386.425C180.587 386.322 180.849 386.158 181.067 385.944C181.285 385.73 181.453 385.47 181.56 385.184L187.613 368.943C187.74 368.599 187.956 368.294 188.24 368.06C188.523 367.826 188.864 367.671 189.227 367.612L200.999 365.645Z" fill="white"/>
<path d="M196.722 370.467L196.631 372.091L196.611 372.474L196.299 378.022L196.117 381.169L196.046 382.329L196.026 382.713L195.935 384.256L194.331 384.407L193.928 384.448L192.728 384.559L189.449 384.861L184.637 385.315L185.081 384.004L185.263 383.449L187.159 377.881L187.926 375.631L189.51 370.971L192.818 370.739L194.412 370.628L196.722 370.467Z" fill="#37474F"/>
<g opacity="0.3">
<path opacity="0.3" d="M196.298 378.022L196.116 381.169L192.727 384.559L189.448 384.861L196.298 378.022Z" fill="white"/>
<path opacity="0.3" d="M194.412 370.628L187.159 377.881L187.925 375.631L192.818 370.739L194.412 370.628Z" fill="white"/>
<path opacity="0.3" d="M196.631 372.091L196.611 372.474L185.081 384.004L185.262 383.449L196.631 372.091Z" fill="white"/>
<path opacity="0.3" d="M196.046 382.329L196.026 382.713L194.331 384.407L193.927 384.448L196.046 382.329Z" fill="white"/>
</g>
<path d="M184.637 385.315L189.51 370.971L196.722 370.467L189.964 371.758L184.637 385.315Z" fill="#263238"/>
<path d="M180.935 386.738H180.703V405.833H180.935V386.738Z" fill="#EBEBEB"/>
<path d="M199.799 390.036L199.567 394.868L168.104 395.009L168.85 391.428C168.895 391.242 168.963 391.063 169.052 390.894L199.799 390.036Z" fill="#65A999"/>
<path d="M167.69 390.248L170.404 389.824L168.82 395.413L167.418 395.262C167.269 395.246 167.132 395.173 167.035 395.058C166.939 394.943 166.892 394.796 166.903 394.646L167.206 390.773C167.216 390.643 167.269 390.521 167.357 390.426C167.445 390.331 167.562 390.268 167.69 390.248Z" fill="#65A999"/>
<path d="M182.902 381.835C183.558 382.39 182.963 387.393 182.499 387.303C181.849 387.223 181.22 387.025 180.642 386.717C180.239 386.395 177.979 382.35 178.534 381.512C179.089 380.675 182.398 381.412 182.902 381.835Z" fill="#EBEBEB"/>
<path d="M255.511 364.555L204.338 362.709L206.012 359.239L207.021 357.131C207.296 356.56 207.725 356.076 208.259 355.736C208.794 355.396 209.413 355.211 210.047 355.204L249.923 354.307C250.671 354.287 251.405 354.514 252.01 354.954C252.616 355.393 253.059 356.02 253.272 356.738L253.585 357.807L255.511 364.555Z" fill="#EBEBEB"/>
<path d="M207.747 359.966L208.262 358.644L212.045 358.614L211.934 360.127L207.747 359.966Z" fill="#263238"/>
<path d="M248.127 360.591L248.228 358.755L252.758 359.088L252.788 360.561L248.127 360.591Z" fill="#263238"/>
<path d="M260.928 406.509H199.022L199.566 394.919L199.798 390.087L200.999 364.626V364.162C201.017 363.785 201.11 363.416 201.272 363.075C201.435 362.735 201.664 362.43 201.946 362.179C202.228 361.928 202.557 361.736 202.914 361.614C203.271 361.492 203.649 361.443 204.025 361.469L255.108 362.871C255.793 362.915 256.439 363.204 256.928 363.686C257.417 364.167 257.717 364.809 257.771 365.494L259.536 388.695L259.99 394.596L260.928 406.509Z" fill="white"/>
<path d="M227.378 371.294L227.357 371.939L227.246 375.228L227.236 375.601L227.176 377.538L227.075 380.605L226.964 383.933L223.706 383.974L220.7 384.014L218.813 384.034H218.44L215.222 384.075L213.729 384.095L207.082 384.175H206.708L204.671 384.206H204.025L204.136 381.775L204.277 378.315L204.298 377.941L204.368 376.216L204.439 374.673L204.63 370.235L208.686 370.426L210.098 370.487L211.671 370.568L212.014 370.578L215.182 370.729L218.016 370.86L219.933 370.951L220.286 370.961L226.56 371.264L227.378 371.294Z" fill="#37474F"/>
<g opacity="0.3">
<path opacity="0.3" d="M218.016 370.86L204.671 384.206H204.025L204.136 381.775L215.182 370.729L218.016 370.86Z" fill="white"/>
<path opacity="0.3" d="M227.176 377.538L227.075 380.605L223.706 383.974L220.7 384.014L227.176 377.538Z" fill="white"/>
<path opacity="0.3" d="M227.378 371.294L227.358 371.939L215.222 384.075L213.729 384.095L226.561 371.264L227.378 371.294Z" fill="white"/>
<path opacity="0.3" d="M210.098 370.487L204.368 376.216L204.439 374.673L208.686 370.426L210.098 370.487Z" fill="white"/>
<path opacity="0.3" d="M212.014 370.578L204.277 378.315L204.298 377.941L211.671 370.568L212.014 370.578Z" fill="white"/>
<path opacity="0.3" d="M220.286 370.961L207.082 384.175H206.708L219.933 370.951L220.286 370.961Z" fill="white"/>
<path opacity="0.3" d="M227.246 375.228L227.236 375.601L218.813 384.034H218.44L227.246 375.228Z" fill="white"/>
</g>
<path d="M204.025 384.206L204.63 370.235L227.378 371.294L205.871 371.435L204.025 384.206Z" fill="#263238"/>
<path d="M260.03 394.606L199.677 394.868H199.566L199.788 390.036L199.899 390.026L259.576 388.715L260.03 394.606Z" fill="#65A999"/>
<path d="M245.969 382.188H243.275L243.003 372.262H245.969V382.188Z" fill="#65A999"/>
<path d="M249.55 375.752L249.631 378.708L239.694 378.698L239.624 376.015L249.55 375.752Z" fill="#65A999"/>
<path d="M260.929 408.658H164.16V405.541H260.929V408.658Z" fill="#EBEBEB"/>
<path d="M161.971 404.038L172.451 404.683V409.142H161.194L161.971 404.038Z" fill="#DBDBDB"/>
<path d="M262.663 404.088L258.205 404.623C257.95 404.641 257.711 404.755 257.537 404.942C257.362 405.129 257.266 405.376 257.267 405.631V409.142H264.328L263.682 404.945C263.645 404.703 263.522 404.483 263.334 404.325C263.147 404.167 262.908 404.083 262.663 404.088Z" fill="#DBDBDB"/>
<path d="M249.368 409.283C249.087 409.281 248.817 409.178 248.606 408.993C248.394 408.807 248.257 408.552 248.218 408.274C248.218 408.052 247.32 402.827 242.055 402.827C236.789 402.827 236.002 408.042 236.002 408.264C235.938 408.547 235.77 408.795 235.532 408.96C235.293 409.126 235.002 409.195 234.714 409.156C234.427 409.117 234.165 408.971 233.979 408.748C233.794 408.526 233.699 408.241 233.712 407.952C233.951 405.9 234.936 404.008 236.48 402.637C238.024 401.265 240.02 400.511 242.085 400.517C244.156 400.515 246.157 401.267 247.713 402.634C249.269 404.001 250.273 405.888 250.538 407.941C250.56 408.094 250.55 408.249 250.511 408.398C250.471 408.547 250.403 408.686 250.309 408.809C250.215 408.931 250.098 409.033 249.964 409.109C249.83 409.185 249.682 409.234 249.53 409.253L249.368 409.283Z" fill="#DBDBDB"/>
<path d="M242.095 401.909C251.174 401.909 251.174 416.032 242.095 416.032C233.017 416.032 232.976 401.909 242.095 401.909Z" fill="#263238"/>
<path d="M242.095 405.763C246.231 405.763 246.231 412.188 242.095 412.188C237.959 412.188 237.959 405.763 242.095 405.763Z" fill="#EBEBEB"/>
<path d="M190.649 409.283C190.369 409.283 190.099 409.18 189.889 408.994C189.679 408.809 189.544 408.552 189.51 408.274C189.51 408.052 188.612 402.827 183.346 402.827C178.08 402.827 177.294 408.042 177.294 408.264C177.276 408.417 177.229 408.564 177.153 408.698C177.078 408.832 176.977 408.949 176.856 409.043C176.734 409.137 176.596 409.206 176.447 409.245C176.299 409.285 176.144 409.294 175.992 409.273C175.687 409.233 175.409 409.073 175.22 408.83C175.032 408.586 174.946 408.278 174.984 407.972C175.337 405.399 177.536 400.537 183.366 400.537C189.197 400.537 191.436 405.389 191.809 407.962C191.832 408.114 191.824 408.27 191.785 408.419C191.746 408.569 191.678 408.709 191.583 408.831C191.489 408.954 191.371 409.056 191.237 409.132C191.103 409.208 190.954 409.256 190.801 409.273L190.649 409.283Z" fill="#DBDBDB"/>
<path d="M183.346 401.909C192.425 401.909 192.425 416.032 183.346 416.032C174.267 416.032 174.227 401.909 183.346 401.909Z" fill="#263238"/>
<path d="M183.346 405.763C187.482 405.763 187.482 412.188 183.346 412.188C179.21 412.188 179.21 405.763 183.346 405.763Z" fill="#EBEBEB"/>
</svg>
