<svg width="347" height="362" viewBox="0 0 347 362" fill="none" xmlns="http://www.w3.org/2000/svg">
<rect width="347" height="362" fill="#EBF5FF"/>
<path d="M93.804 35V20.4545H97.3196V32.1449H103.371V35H93.804ZM109.032 35H105.254L110.162 20.4545H114.842L119.75 35H115.971L112.555 24.1193H112.441L109.032 35ZM108.528 29.2756H116.426V31.946H108.528V29.2756ZM121.816 35V20.4545H127.881C128.97 20.4545 129.882 20.6084 130.615 20.9162C131.354 21.224 131.908 21.6548 132.277 22.2088C132.651 22.7628 132.838 23.4044 132.838 24.1335C132.838 24.6875 132.722 25.1823 132.49 25.6179C132.258 26.0488 131.939 26.4062 131.532 26.6903C131.124 26.9744 130.653 27.1733 130.118 27.2869V27.429C130.705 27.4574 131.248 27.616 131.745 27.9048C132.247 28.1937 132.649 28.5961 132.952 29.1122C133.255 29.6236 133.407 30.2296 133.407 30.9304C133.407 31.7116 133.208 32.41 132.81 33.0256C132.412 33.6364 131.837 34.1193 131.084 34.4744C130.331 34.8248 129.417 35 128.343 35H121.816ZM125.331 32.1662H127.505C128.267 32.1662 128.828 32.0218 129.188 31.733C129.552 31.4441 129.735 31.0417 129.735 30.5256C129.735 30.1515 129.647 29.8295 129.472 29.5597C129.297 29.285 129.048 29.0743 128.726 28.9276C128.404 28.776 128.018 28.7003 127.569 28.7003H125.331V32.1662ZM125.331 26.4347H127.277C127.661 26.4347 128.002 26.3707 128.3 26.2429C128.598 26.1151 128.83 25.9304 128.996 25.6889C129.167 25.4474 129.252 25.1562 129.252 24.8153C129.252 24.3277 129.079 23.9441 128.733 23.6648C128.388 23.3854 127.921 23.2457 127.334 23.2457H125.331V26.4347ZM149.326 27.7273C149.326 29.3277 149.018 30.6842 148.402 31.7969C147.787 32.9096 146.953 33.7547 145.902 34.3324C144.856 34.91 143.682 35.1989 142.38 35.1989C141.073 35.1989 139.896 34.9077 138.85 34.3253C137.803 33.7429 136.972 32.8977 136.357 31.7898C135.746 30.6771 135.441 29.3229 135.441 27.7273C135.441 26.1269 135.746 24.7704 136.357 23.6577C136.972 22.545 137.803 21.6998 138.85 21.1222C139.896 20.5445 141.073 20.2557 142.38 20.2557C143.682 20.2557 144.856 20.5445 145.902 21.1222C146.953 21.6998 147.787 22.545 148.402 23.6577C149.018 24.7704 149.326 26.1269 149.326 27.7273ZM145.732 27.7273C145.732 26.7803 145.597 25.9801 145.327 25.3267C145.062 24.6733 144.678 24.1785 144.176 23.8423C143.679 23.5062 143.08 23.3381 142.38 23.3381C141.684 23.3381 141.085 23.5062 140.583 23.8423C140.081 24.1785 139.695 24.6733 139.425 25.3267C139.16 25.9801 139.027 26.7803 139.027 27.7273C139.027 28.6742 139.16 29.4744 139.425 30.1278C139.695 30.7812 140.081 31.276 140.583 31.6122C141.085 31.9484 141.684 32.1165 142.38 32.1165C143.08 32.1165 143.679 31.9484 144.176 31.6122C144.678 31.276 145.062 30.7812 145.327 30.1278C145.597 29.4744 145.732 28.6742 145.732 27.7273ZM151.878 35V20.4545H157.887C158.976 20.4545 159.916 20.651 160.706 21.044C161.502 21.4323 162.115 21.991 162.546 22.7202C162.977 23.4446 163.192 24.304 163.192 25.2983C163.192 26.3068 162.972 27.1638 162.532 27.8693C162.091 28.5701 161.466 29.1051 160.657 29.4744C159.847 29.839 158.888 30.0213 157.78 30.0213H153.98V27.2514H157.127C157.657 27.2514 158.1 27.1828 158.455 27.0455C158.815 26.9034 159.087 26.6903 159.272 26.4062C159.456 26.1174 159.549 25.7481 159.549 25.2983C159.549 24.8485 159.456 24.4768 159.272 24.1832C159.087 23.8849 158.815 23.6624 158.455 23.5156C158.095 23.3641 157.652 23.2884 157.127 23.2884H155.394V35H151.878ZM160.067 28.3523L163.689 35H159.854L156.303 28.3523H160.067ZM168.767 35H164.988L169.896 20.4545H174.576L179.484 35H175.706L172.289 24.1193H172.176L168.767 35ZM168.262 29.2756H176.16V31.946H168.262V29.2756ZM179.258 23.3097V20.4545H191.552V23.3097H187.141V35H183.675V23.3097H179.258ZM206.833 27.7273C206.833 29.3277 206.526 30.6842 205.91 31.7969C205.295 32.9096 204.461 33.7547 203.41 34.3324C202.364 34.91 201.19 35.1989 199.887 35.1989C198.581 35.1989 197.404 34.9077 196.358 34.3253C195.311 33.7429 194.48 32.8977 193.865 31.7898C193.254 30.6771 192.949 29.3229 192.949 27.7273C192.949 26.1269 193.254 24.7704 193.865 23.6577C194.48 22.545 195.311 21.6998 196.358 21.1222C197.404 20.5445 198.581 20.2557 199.887 20.2557C201.19 20.2557 202.364 20.5445 203.41 21.1222C204.461 21.6998 205.295 22.545 205.91 23.6577C206.526 24.7704 206.833 26.1269 206.833 27.7273ZM203.24 27.7273C203.24 26.7803 203.105 25.9801 202.835 25.3267C202.57 24.6733 202.186 24.1785 201.684 23.8423C201.187 23.5062 200.588 23.3381 199.887 23.3381C199.191 23.3381 198.592 23.5062 198.091 23.8423C197.589 24.1785 197.203 24.6733 196.933 25.3267C196.668 25.9801 196.535 26.7803 196.535 27.7273C196.535 28.6742 196.668 29.4744 196.933 30.1278C197.203 30.7812 197.589 31.276 198.091 31.6122C198.592 31.9484 199.191 32.1165 199.887 32.1165C200.588 32.1165 201.187 31.9484 201.684 31.6122C202.186 31.276 202.57 30.7812 202.835 30.1278C203.105 29.4744 203.24 28.6742 203.24 27.7273ZM209.386 35V20.4545H215.395C216.484 20.4545 217.423 20.651 218.214 21.044C219.01 21.4323 219.623 21.991 220.054 22.7202C220.484 23.4446 220.7 24.304 220.7 25.2983C220.7 26.3068 220.48 27.1638 220.039 27.8693C219.599 28.5701 218.974 29.1051 218.164 29.4744C217.355 29.839 216.396 30.0213 215.288 30.0213H211.488V27.2514H214.635C215.165 27.2514 215.608 27.1828 215.963 27.0455C216.323 26.9034 216.595 26.6903 216.779 26.4062C216.964 26.1174 217.056 25.7481 217.056 25.2983C217.056 24.8485 216.964 24.4768 216.779 24.1832C216.595 23.8849 216.323 23.6624 215.963 23.5156C215.603 23.3641 215.16 23.2884 214.635 23.2884H212.902V35H209.386ZM217.575 28.3523L221.197 35H217.362L213.811 28.3523H217.575ZM226.644 20.4545V35H223.128V20.4545H226.644ZM229.351 35V20.4545H239.493V23.3097H232.866V26.2926H238.974V29.1548H232.866V32.1449H239.493V35H229.351ZM250.057 24.8153C250.009 24.2945 249.799 23.8897 249.425 23.6009C249.055 23.3073 248.527 23.1605 247.841 23.1605C247.386 23.1605 247.008 23.2197 246.705 23.3381C246.402 23.4564 246.174 23.6198 246.023 23.8281C245.871 24.0317 245.793 24.2661 245.788 24.5312C245.779 24.7491 245.821 24.9408 245.916 25.1065C246.016 25.2723 246.158 25.419 246.342 25.5469C246.532 25.67 246.759 25.7789 247.024 25.8736C247.289 25.9683 247.588 26.0511 247.919 26.1222L249.169 26.4062C249.889 26.5625 250.523 26.7708 251.072 27.0312C251.626 27.2917 252.09 27.6018 252.464 27.9616C252.843 28.3215 253.13 28.7358 253.324 29.2045C253.518 29.6733 253.617 30.1989 253.622 30.7812C253.617 31.6998 253.385 32.4882 252.926 33.1463C252.467 33.8045 251.806 34.3087 250.945 34.6591C250.088 35.0095 249.053 35.1847 247.841 35.1847C246.624 35.1847 245.563 35.0024 244.659 34.6378C243.755 34.2732 243.052 33.7192 242.55 32.9759C242.048 32.2325 241.79 31.2926 241.776 30.1562H245.142C245.17 30.625 245.296 31.0156 245.518 31.3281C245.741 31.6406 246.046 31.8774 246.435 32.0384C246.828 32.1993 247.282 32.2798 247.798 32.2798C248.272 32.2798 248.674 32.2159 249.006 32.0881C249.342 31.9602 249.6 31.7827 249.78 31.5554C249.96 31.3281 250.052 31.0677 250.057 30.7741C250.052 30.4995 249.967 30.2652 249.801 30.071C249.635 29.8722 249.38 29.7017 249.034 29.5597C248.693 29.4129 248.258 29.2779 247.727 29.1548L246.207 28.7997C244.948 28.5109 243.956 28.0445 243.232 27.4006C242.507 26.7519 242.147 25.8759 242.152 24.7727C242.147 23.8731 242.389 23.0848 242.876 22.4077C243.364 21.7306 244.039 21.2027 244.901 20.8239C245.762 20.4451 246.745 20.2557 247.848 20.2557C248.975 20.2557 249.953 20.4474 250.781 20.831C251.615 21.2098 252.261 21.7424 252.72 22.429C253.179 23.1155 253.414 23.911 253.423 24.8153H250.057Z" fill="#676767"/>
<path opacity="0.1" d="M52 47.5H287.646" stroke="#0080FF"/>
<path d="M320.062 162.019H221.592V321.122H320.062V162.019Z" stroke="#263238" stroke-miterlimit="10"/>
<path d="M314.776 167.31H227.289V234.857H314.776V167.31Z" stroke="#263238" stroke-miterlimit="10"/>
<path d="M269.69 167.31V234.857" stroke="#263238" stroke-miterlimit="10"/>
<path d="M227.707 202.34H314.772" stroke="#263238" stroke-miterlimit="10"/>
<path d="M314.776 246.655H227.289V314.203H314.776V246.655Z" stroke="#263238" stroke-miterlimit="10"/>
<path d="M269.69 246.655V314.203" stroke="#263238" stroke-miterlimit="10"/>
<path d="M227.707 281.685H314.772" stroke="#263238" stroke-miterlimit="10"/>
<path d="M184.156 162.019H20.1699V219.801H184.156V162.019Z" stroke="#263238" stroke-miterlimit="10"/>
<path d="M181.069 165.371H23.2617V216.454H181.069V165.371Z" stroke="#263238" stroke-miterlimit="10"/>
<path d="M102.161 165.371V216.454" stroke="#263238" stroke-miterlimit="10"/>
<path d="M105.469 165.371V216.454" stroke="#263238" stroke-miterlimit="10"/>
<path d="M98.7061 165.371V216.454" stroke="#263238" stroke-miterlimit="10"/>
<path d="M94.6378 191.528C94.6388 191.972 94.5081 192.406 94.2623 192.776C94.0164 193.145 93.6665 193.434 93.2568 193.604C92.847 193.775 92.3959 193.82 91.9606 193.734C91.5252 193.648 91.1251 193.434 90.811 193.121C90.4968 192.808 90.2827 192.408 90.1958 191.973C90.1089 191.538 90.153 191.086 90.3226 190.676C90.4922 190.266 90.7797 189.916 91.1486 189.669C91.5175 189.422 91.9513 189.291 92.3951 189.291C92.9887 189.292 93.5576 189.528 93.9778 189.947C94.398 190.366 94.6353 190.935 94.6378 191.528Z" stroke="#263238" stroke-miterlimit="10"/>
<path d="M110.503 193.757C111.739 193.757 112.741 192.755 112.741 191.519C112.741 190.283 111.739 189.281 110.503 189.281C109.268 189.281 108.266 190.283 108.266 191.519C108.266 192.755 109.268 193.757 110.503 193.757Z" stroke="#263238" stroke-miterlimit="10"/>
<path d="M77.6761 238.646H63.4688V344.168H77.6761V238.646Z" fill="#A8A8A8" stroke="#263238" stroke-miterlimit="10"/>
<path d="M79.139 238.646H64.9316V344.168H79.139V238.646Z" fill="#A8A8A8" stroke="#263238" stroke-miterlimit="10"/>
<path d="M114.483 238.646H23.1387V308.633H114.483V238.646Z" fill="#263238" stroke="#263238" stroke-miterlimit="10"/>
<path d="M116.245 238.646H24.9004V308.633H116.245V238.646Z" fill="#263238" stroke="white" stroke-miterlimit="10"/>
<path d="M110.91 242.729H30.2295V304.54H110.91V242.729Z" fill="white" stroke="#263238" stroke-miterlimit="10"/>
<path d="M110.91 242.729H30.2295V245.983H110.91V242.729Z" fill="#D6D6D6" stroke="#263238" stroke-miterlimit="10"/>
<path d="M52.726 256.308C52.726 256.308 44.3538 259.606 42.8275 261C41.3013 262.394 40.6731 264.926 40.4179 266.712C39.9988 270.249 39.8708 273.814 40.0351 277.372C40.2903 281.052 39.402 282.451 42.9551 285.366C46.5082 288.281 50.8072 292.855 53.364 292.094C55.9209 291.334 63.3902 286.382 64.406 284.605C65.4219 282.829 66.9432 271.787 66.6881 266.585C66.4329 261.383 63.0074 259.714 60.215 257.957C57.4226 256.2 55.2682 256.19 52.726 256.308Z" stroke="#263238" stroke-miterlimit="10"/>
<path d="M52.0934 251.366L51.8382 253.653C51.8382 253.653 44.2265 256.951 42.5776 257.967C40.9287 258.983 41.4341 259.361 40.0355 259.616C38.6368 259.871 36.4824 259.999 36.4824 259.999" stroke="#263238" stroke-miterlimit="10"/>
<path d="M35.0889 261.265L39.0149 262.281C39.0149 262.281 37.2384 269.897 37.4887 274.211C37.7389 278.525 38.3769 283.476 38.3769 283.476L35.9673 285.631" stroke="#263238" stroke-miterlimit="10"/>
<path d="M37.248 287.663L40.1631 285.886C41.6127 287.778 43.3735 289.409 45.3701 290.71C47.4534 292.133 49.6609 293.365 51.9658 294.391L51.8382 297.178" stroke="#263238" stroke-miterlimit="10"/>
<path d="M55.5186 297.178L55.7737 294.263C55.7737 294.263 58.5662 292.865 61.3586 291.088C63.5298 289.617 65.6035 288.008 67.5666 286.269L69.8535 286.392" stroke="#263238" stroke-miterlimit="10"/>
<path d="M70.3696 283.982L67.5674 282.318C67.5674 282.318 68.8384 278.638 68.8384 272.925C68.8384 267.213 68.5833 262.772 68.5833 262.772L70.615 261.123" stroke="#263238" stroke-miterlimit="10"/>
<path d="M69.2253 259.253L67.1985 260.141C67.1985 260.141 65.6722 258.114 60.9757 255.724C56.2792 253.334 55.2682 253.187 55.2682 253.187L55.1406 251.155" stroke="#263238" stroke-miterlimit="10"/>
<path d="M53.7623 278.476C53.408 276.85 52.5388 275.382 51.284 274.29C50.6291 273.638 50.0883 272.882 49.6841 272.052C47.9076 268.754 47.0193 266.217 44.4821 267.233C41.9449 268.248 42.578 269.515 42.578 272.685C42.578 275.855 44.4821 280.174 48.0352 281.572C51.5882 282.971 54.5082 282.461 53.8703 279.03C53.8261 278.839 53.7966 278.652 53.7623 278.476Z" stroke="#263238" stroke-miterlimit="10"/>
<path d="M49.5563 285.376C49.5563 285.376 50.1893 283.854 47.0191 282.711C43.8488 281.568 42.6023 282.711 43.466 284.488C44.3297 286.264 49.8115 287.03 49.5563 285.376Z" stroke="#263238" stroke-miterlimit="10"/>
<path d="M57.0449 287.407C57.0449 287.407 57.5357 285.253 55.1408 284.87C52.7459 284.487 51.2147 286.269 51.9656 287.28C52.7164 288.291 56.1566 290.71 57.0449 287.407Z" stroke="#263238" stroke-miterlimit="10"/>
<path d="M61.1031 279.668C61.1031 279.668 58.3107 281.445 58.8211 282.839C58.9513 283.189 59.1657 283.502 59.4454 283.751C59.725 283.999 60.0615 284.175 60.425 284.262C60.7886 284.35 61.1681 284.347 61.5302 284.254C61.8924 284.16 62.226 283.979 62.5018 283.727C63.8955 282.588 63.0073 278.27 61.1031 279.668Z" stroke="#263238" stroke-miterlimit="10"/>
<path d="M63.1502 266.85C63.103 267.784 62.8428 268.696 62.3895 269.515C61.6288 270.908 60.613 272.95 61.3736 273.441C62.1343 273.931 64.5439 272.95 65.0543 270.776C65.5647 268.602 64.912 265.201 63.1502 266.85Z" stroke="#263238" stroke-miterlimit="10"/>
<path d="M54.6306 259.744C54.6306 259.744 51.5879 259.999 50.3169 262.281C49.0458 264.563 48.7955 268.499 51.8382 270.133C54.8809 271.767 58.9493 271.149 60.5982 268.867C61.2716 267.918 61.6844 266.809 61.7954 265.651C61.9065 264.493 61.712 263.326 61.2313 262.266C60.4706 260.632 57.5506 258.983 54.6306 259.744Z" stroke="#263238" stroke-miterlimit="10"/>
<path d="M56.157 266.089C57.6287 266.089 58.8218 264.925 58.8218 263.488C58.8218 262.052 57.6287 260.887 56.157 260.887C54.6853 260.887 53.4922 262.052 53.4922 263.488C53.4922 264.925 54.6853 266.089 56.157 266.089Z" stroke="#263238" stroke-miterlimit="10"/>
<path d="M90.1415 290.17C90.1415 290.17 85.1995 291.545 81.3079 289.351C77.4162 287.157 76.0322 282.21 76.0322 282.21C76.0322 282.21 80.9741 280.831 84.8658 283.03C88.7575 285.229 90.1415 290.17 90.1415 290.17Z" stroke="#263238" stroke-miterlimit="10"/>
<path d="M90.6328 290.17C90.6328 290.17 95.5747 291.545 99.4664 289.351C103.358 287.157 104.737 282.21 104.737 282.21C104.737 282.21 99.8001 280.831 95.9035 283.03C92.0069 285.229 90.6328 290.17 90.6328 290.17Z" stroke="#263238" stroke-miterlimit="10"/>
<path d="M90.2051 279.094C90.2051 279.094 86.6814 280.076 83.9037 278.51C81.1261 276.945 80.1396 273.421 80.1396 273.421C80.1396 273.421 83.6633 272.439 86.4459 274.005C89.2284 275.57 90.2051 279.094 90.2051 279.094Z" stroke="#263238" stroke-miterlimit="10"/>
<path d="M90.5439 279.094C90.5439 279.094 94.0725 280.076 96.8502 278.51C99.6278 276.945 100.614 273.421 100.614 273.421C100.614 273.421 97.0906 272.439 94.308 274.005C91.5255 275.57 90.5439 279.094 90.5439 279.094Z" stroke="#263238" stroke-miterlimit="10"/>
<path d="M90.2246 271.389C90.2246 271.389 87.0396 272.278 84.5269 270.859C82.0142 269.441 81.1309 266.261 81.1309 266.261C81.1309 266.261 84.311 265.373 86.8236 266.791C89.3363 268.209 90.2246 271.389 90.2246 271.389Z" stroke="#263238" stroke-miterlimit="10"/>
<path d="M90.5293 271.389C90.5293 271.389 93.7143 272.277 96.2221 270.859C98.7298 269.441 99.623 266.261 99.623 266.261C99.623 266.261 96.438 265.373 93.9253 266.791C91.4127 268.209 90.5293 271.389 90.5293 271.389Z" stroke="#263238" stroke-miterlimit="10"/>
<path d="M90.2539 264.077C90.2539 264.077 87.7462 264.779 85.7635 263.66C83.7809 262.541 83.084 260.033 83.084 260.033C83.084 260.033 85.5967 259.331 87.5744 260.45C89.5521 261.569 90.2539 264.077 90.2539 264.077Z" stroke="#263238" stroke-miterlimit="10"/>
<path d="M90.4951 264.077C90.4951 264.077 93.0078 264.779 94.9855 263.66C96.9633 262.541 97.6651 260.033 97.6651 260.033C97.6651 260.033 95.1573 259.331 93.1746 260.45C91.192 261.569 90.4951 264.077 90.4951 264.077Z" stroke="#263238" stroke-miterlimit="10"/>
<path d="M90.352 261.751C90.352 261.751 92.2071 259.915 92.2218 257.643C92.2365 255.371 90.4011 253.516 90.4011 253.516C90.4011 253.516 88.5509 255.346 88.5362 257.619C88.5215 259.891 90.352 261.751 90.352 261.751Z" stroke="#263238" stroke-miterlimit="10"/>
<path d="M90.3525 261.751V296.374" stroke="#263238" stroke-miterlimit="10"/>
<path d="M251.64 323.817C249.27 318.134 237.757 296.997 232.236 285.636C226.715 274.275 220.404 263.39 218.823 259.626C217.243 255.862 214.564 254.89 214.564 254.89L183.798 251.401C183.798 251.401 160.924 249.668 156.193 250.454C156.193 250.454 120.368 258.502 117.384 258.973C114.4 259.444 111.387 261.972 111.073 264.97C110.926 266.344 110.219 270.859 109.493 275.374C109.002 277.308 108.099 280.773 107.039 283.776C102.755 295.672 99.5649 300.771 94.8046 312.431C94.3138 313.688 89.5927 325.991 89.6173 327.345C89.7547 334.407 113.861 321.098 117.821 324.43C117.154 328.229 116.349 332.081 116.525 332.209C117.316 332.842 115.544 343.987 115.544 343.987H249.746C249.746 343.987 254.006 329.495 251.64 323.817Z" fill="white" stroke="#263238" stroke-miterlimit="10"/>
<path d="M216.228 287.874L210.3 343.437" stroke="#263238" stroke-miterlimit="10"/>
<path d="M217.081 279.914L216.625 284.154" stroke="#263238" stroke-miterlimit="10"/>
<path d="M222.75 289.763C223.232 288.917 223.76 288.098 224.33 287.309" stroke="#263238" stroke-miterlimit="10"/>
<path d="M213.926 311.44C213.926 311.44 217.165 300.835 221.091 292.879" stroke="#263238" stroke-miterlimit="10"/>
<path d="M231.239 304.761C232.858 304.163 234.597 303.966 236.309 304.186" stroke="#263238" stroke-miterlimit="10"/>
<path d="M212.832 320.107C212.832 320.107 220.051 310.684 227.879 306.292" stroke="#263238" stroke-miterlimit="10"/>
<path d="M240.368 315.439C243.548 317.476 246.022 320.234 246.4 320.897" stroke="#263238" stroke-miterlimit="10"/>
<path d="M219.761 317.584C219.761 317.584 227.642 313.486 233.472 313.167C234.675 313.124 235.875 313.321 237.001 313.746" stroke="#263238" stroke-miterlimit="10"/>
<path d="M153.239 257.648C153.239 257.648 152.198 263.12 152.198 267.031C152.198 271.08 152.198 275.688 153.096 279.585C155.516 279.32 158.004 279.393 160.458 279.33L154.593 284.772C154.398 284.914 154.261 285.121 154.205 285.356C154.213 285.611 154.314 285.854 154.49 286.038C161.145 294.872 166.872 304.623 175.651 311.592C172.574 309.138 189.962 287.825 191.802 285.356C191.989 285.111 184.932 278.427 184.514 277.995L195.208 277.465C195.208 277.465 197.034 271.733 193.643 260.288C190.251 248.844 177.654 241.517 170.705 243.603C163.756 245.688 154.804 251.892 153.239 257.648Z" fill="white" stroke="#263238" stroke-miterlimit="10"/>
<path d="M152.562 210.226C152.562 210.226 143.237 221.744 141.834 230.421C140.43 239.098 142.781 246.984 142.325 254.242C141.868 261.501 140.906 265.441 139.802 272.066C139.182 276.328 139.45 280.672 140.587 284.826L151.158 284.988L152.895 275.836L154 285.302C155.207 285.386 156.419 285.386 157.626 285.302C158.888 285.145 163.623 284.811 163.623 284.811C163.623 284.811 162.519 281.185 161.415 276.469C159.31 267.448 159.207 268.42 159.207 261.795C159.207 255.17 161.729 230.877 163.937 224.718C166.146 218.559 168.511 210.364 168.511 210.364C168.511 210.364 159.506 204.391 152.562 210.226Z" fill="#263238" stroke="#263238" stroke-miterlimit="10"/>
<path d="M196.863 205.069C196.863 205.069 206.187 217.377 207.59 226.662C208.994 235.947 206.648 244.363 207.1 252.117C207.551 259.871 208.518 264.087 209.622 271.168C210.245 275.729 209.979 280.367 208.837 284.826L198.266 284.993L196.529 275.217L195.425 285.332C194.217 285.421 193.005 285.421 191.798 285.332C190.537 285.16 185.801 284.841 185.801 284.841C185.801 284.841 186.905 280.964 188.009 275.904C190.115 266.266 190.218 267.306 190.218 260.225C190.218 253.143 187.695 227.182 185.487 220.606C183.278 214.03 180.933 205.235 180.933 205.235C180.933 205.235 189.923 198.831 196.863 205.069Z" fill="#263238" stroke="#263238" stroke-miterlimit="10"/>
<path d="M150.29 238.842C150.29 238.842 147.988 228.826 148.778 220.974C149.569 213.122 154.456 204.725 161.715 201.255C168.973 197.786 181.59 197.781 191.214 201.255C200.838 204.73 202.889 218.609 201.785 225.867C200.681 233.125 199.262 239.274 199.105 239.907C198.948 240.54 196.578 244.952 195.003 245.585C193.427 246.218 192.004 235.486 184.903 232.826C177.802 230.166 168.34 236.452 163.133 238.19C159.987 239.256 157.131 241.039 154.79 243.397C154.79 243.397 150.849 242.533 150.29 238.842Z" fill="#263238" stroke="#263238" stroke-miterlimit="10"/>
<path d="M165.185 269.701C165.185 269.701 166.289 279.482 168.816 282.794C170.476 285.017 172.004 287.336 173.39 289.739C173.39 289.739 175.122 286.74 177.316 282.794C179.51 278.849 180.948 271.124 180.948 271.124C180.948 271.124 168.816 271.438 165.185 269.701Z" fill="#D9D9D9" stroke="#263238" stroke-miterlimit="10"/>
<path d="M195.164 241.586C195.164 241.586 197.034 237.296 199.017 238.401C200.999 239.505 198.796 246.537 197.255 249.173C196.823 249.937 196.239 250.604 195.539 251.134C194.84 251.664 194.039 252.046 193.187 252.255L195.164 241.586Z" fill="#D9D9D9" stroke="#263238" stroke-miterlimit="10"/>
<path d="M154.466 239.623C154.466 239.623 151.276 235.039 150.289 238.852C148.636 245.232 154.706 251.278 154.706 251.278L154.466 239.623Z" fill="#D9D9D9" stroke="#263238" stroke-miterlimit="10"/>
<path d="M153.994 233.194C153.994 233.194 166.631 233.724 173.654 229.862C177.954 227.415 181.434 223.75 183.656 219.33C183.656 219.33 188.745 230.038 190.85 232.144L195.944 237.233C195.944 237.233 193.741 249.875 192.509 255.665C191.277 261.456 185.408 269.701 182.07 271.983C178.733 274.265 175.053 276.547 172.417 276.022C169.782 275.497 164.482 272.096 160.639 266.992C156.797 261.888 155.579 260.22 154.701 251.288C154.154 245.273 153.919 239.233 153.994 233.194Z" fill="#D9D9D9" stroke="#263238" stroke-miterlimit="10"/>
<path d="M168.664 258.419C168.664 258.419 171.967 262.374 177.242 258.968" stroke="#263238" stroke-miterlimit="10"/>
<path d="M166.343 262.688C168.2 264.377 170.652 265.259 173.159 265.142C175.82 265.057 178.361 264.011 180.31 262.197" stroke="#263238" stroke-miterlimit="10"/>
<path d="M158.211 238.69C162.628 236.614 167.992 239.461 167.992 239.461C167.992 239.461 169.194 240.771 168.944 238.97C168.693 237.169 166.318 236.516 162.52 236.639C158.721 236.762 158.211 238.69 158.211 238.69Z" fill="#263238" stroke="#263238" stroke-miterlimit="10"/>
<path d="M189.648 240.948C185.281 238.734 179.833 241.409 179.833 241.409C179.833 241.409 178.596 242.68 178.901 240.918C179.205 239.156 181.595 238.572 185.393 238.788C189.192 239.004 189.648 240.948 189.648 240.948Z" fill="#263238" stroke="#263238" stroke-miterlimit="10"/>
<path d="M165.194 247.254C165.194 248.446 164.561 249.418 163.776 249.418C162.99 249.418 162.362 248.437 162.362 247.254C162.362 246.071 162.995 245.095 163.776 245.095C164.556 245.095 165.194 246.061 165.194 247.254Z" fill="#263238"/>
<path d="M160.87 245.242C160.87 245.242 165.046 244.795 166.533 246.287" stroke="#263238" stroke-miterlimit="10"/>
<path d="M184.368 249.045C184.368 250.238 183.735 251.205 182.949 251.205C182.164 251.205 181.536 250.223 181.536 249.045C181.536 247.867 182.169 246.886 182.949 246.886C183.73 246.886 184.368 247.853 184.368 249.045Z" fill="#263238"/>
<path d="M180.049 247.033C180.049 247.033 184.225 246.586 185.712 248.078" stroke="#263238" stroke-miterlimit="10"/>
<path d="M152.925 237.743C152.925 237.743 162.495 241.375 172.609 242.253C182.724 243.132 195.37 239.942 196.362 239.834C197.353 239.726 195.812 245.109 194.821 248.849C193.829 252.588 192.951 254.566 188.883 255.557C184.814 256.549 180.417 256.765 178.655 255.116C176.893 253.467 174.371 246.542 172.83 246.65C171.289 246.758 168.649 252.696 166.784 254.129C164.919 255.562 158.863 253.909 155.457 251.931C152.051 249.953 151.487 236.644 152.925 237.743Z" stroke="white" stroke-miterlimit="10"/>
<path d="M152.925 239.441C152.925 239.441 162.495 243.073 172.609 243.951C182.724 244.83 195.371 241.64 196.362 241.532C196.403 241.525 196.446 241.532 196.483 241.55C196.521 241.569 196.552 241.598 196.573 241.635C196.75 240.516 196.73 239.79 196.362 239.834C195.38 239.942 182.729 243.132 172.609 242.253C162.49 241.375 152.925 237.743 152.925 237.743C152.375 237.321 152.12 239.039 152.209 241.419C152.272 239.991 152.518 239.132 152.925 239.441Z" fill="#0080FF" stroke="#263238" stroke-miterlimit="10"/>
<path d="M110.205 297.385C110.205 297.385 102.956 305.335 97.5038 310.817C92.0515 316.298 86.9035 330.079 88.6702 334.319C90.4369 338.559 94.677 341.916 100.684 343.329C106.691 344.743 110.754 342.092 114.975 338.206C119.195 334.319 127.523 306.042 127.523 306.042L110.205 297.385Z" fill="#D9D9D9" stroke="#263238" stroke-miterlimit="10"/>
<path d="M88.6704 334.339C90.4371 338.579 94.6773 341.935 100.684 343.349C106.691 344.762 110.754 342.092 114.975 338.206C116.354 336.944 118.165 333.102 119.976 328.494C117.443 329.303 110.573 330.947 104.375 327.429C96.5961 323.012 97.4795 310.817 97.4795 310.817C92.0026 316.293 86.8792 330.079 88.6704 334.339Z" fill="white" stroke="#263238" stroke-miterlimit="10"/>
<path d="M113.752 272.994C113.752 272.994 115.661 284.218 115.661 285.008C115.661 285.798 107.456 298.749 107.456 298.749C107.456 298.749 108.246 299.539 112.982 304.432C117.718 309.325 122.763 310.581 124.971 310.581H127.97C127.97 310.581 129.545 299.539 131.439 295.279C133.334 291.019 133.805 289.601 134.595 288.497C135.385 287.393 136.803 286.289 137.907 283.133C139.012 279.977 139.959 270.373 141.063 267.988C142.167 265.603 146.27 261.834 146.427 259.645C146.584 257.457 146.741 256.333 143.271 257.28C139.802 258.227 137.117 261.697 136.327 263.429C135.537 265.162 136.327 265.481 134.909 263.92C133.491 262.359 131.596 259.66 131.596 259.66L114.68 268.577C114.68 268.577 112.967 271.124 113.752 272.994Z" fill="#A8A8A8" stroke="#263238" stroke-miterlimit="10"/>
<path d="M127.956 278.064C127.956 278.064 129.845 280.429 129.217 284.532" stroke="#263238" stroke-miterlimit="10"/>
<path d="M151.679 291.868C151.589 291.909 151.488 291.912 151.396 291.878C151.304 291.844 151.23 291.776 151.188 291.687L130.576 247.941L131.931 247.318L151.855 291.373C151.897 291.462 151.902 291.564 151.869 291.657C151.836 291.75 151.768 291.826 151.679 291.868Z" fill="#263238" stroke="#263238" stroke-miterlimit="10"/>
<path d="M149.819 284.821L147.527 285.881L126.636 240.604C126.497 240.3 126.484 239.954 126.6 239.64C126.716 239.327 126.951 239.072 127.254 238.931C127.404 238.861 127.567 238.822 127.733 238.816C127.898 238.81 128.063 238.836 128.219 238.893C128.374 238.951 128.517 239.038 128.638 239.151C128.76 239.263 128.858 239.399 128.927 239.549L149.819 284.821Z" fill="white" stroke="#263238" stroke-miterlimit="10"/>
<path d="M148.386 284.61L141.245 269.613" stroke="#0080FF" stroke-miterlimit="10"/>
<path d="M130.478 259.449C130.478 259.449 134.737 264.813 136.632 266.389C138.526 267.964 140.892 268.754 141.206 266.074C141.52 263.395 138.05 258.816 136.156 255.98C134.261 253.143 132.843 251.72 130.635 253.452C128.426 255.185 126.375 260.868 126.375 260.868L130.478 259.449Z" fill="#A8A8A8" stroke="#263238" stroke-miterlimit="10"/>
<path d="M118.96 275.065C118.96 275.065 120.221 279.482 122.116 279.644C124.01 279.806 124.01 279.011 126.375 277.907C128.741 276.802 130.478 276.169 132.215 275.384C133.953 274.599 135.685 272.386 135.685 270.334C135.685 268.283 130.478 259.449 130.478 259.449C130.478 259.449 129.987 258.345 127.956 258.816C125.924 259.287 114.705 264.494 113.439 266.231C112.173 267.969 112.178 269.23 112.948 271.91C113.719 274.589 115.314 279.644 115.314 279.644" fill="#A8A8A8"/>
<path d="M118.96 275.065C118.96 275.065 120.221 279.482 122.116 279.644C124.01 279.806 124.01 279.011 126.375 277.907C128.741 276.802 130.478 276.169 132.215 275.384C133.953 274.599 135.685 272.386 135.685 270.334C135.685 268.283 130.478 259.449 130.478 259.449C130.478 259.449 129.987 258.345 127.956 258.816C125.924 259.287 114.705 264.494 113.439 266.231C112.173 267.969 112.178 269.23 112.948 271.91C113.719 274.589 115.314 279.644 115.314 279.644" stroke="#263238" stroke-miterlimit="10"/>
<path d="M124.8 260.867C124.8 260.867 130.164 268.916 130.478 270.805C130.792 272.695 130.969 275.384 129.987 276.326" stroke="#263238" stroke-miterlimit="10"/>
<path d="M119.907 262.605C119.907 262.605 124.324 269.858 125.742 272.229C127.161 274.599 127.48 276.959 126.375 277.907C126.375 277.907 127.48 280.905 124.957 284.846" stroke="#263238" stroke-miterlimit="10"/>
<path d="M117.065 274.28L121.487 276.169" stroke="#263238" stroke-miterlimit="10"/>
<path d="M247.676 343.908C247.676 343.908 250.355 336.503 244.682 328.307C239.009 320.111 222.456 319.474 217.411 320.264C212.366 321.054 203.508 324.523 198.634 326.727C193.761 328.93 183.819 328.621 182.896 328.449C181.973 328.278 167.452 326.555 163.982 327.188C160.513 327.821 160.513 330.81 160.198 331.757C159.884 332.704 156.729 338.696 156.415 340.743C156.101 342.789 157.519 343.579 158.309 343.736C158.847 343.857 159.373 344.021 159.884 344.227L247.676 343.908Z" fill="#D9D9D9" stroke="#263238" stroke-miterlimit="10"/>
<path d="M182.896 328.449C181.954 328.292 167.452 326.555 163.982 327.188C160.513 327.821 160.513 330.81 160.198 331.757C159.884 332.704 156.729 338.696 156.415 340.743C156.101 342.789 157.519 343.579 158.309 343.736C158.847 343.857 159.373 344.021 159.884 344.227L203.513 344.07C203.685 342.869 203.749 341.656 203.704 340.443C203.547 335.084 198.659 326.727 198.659 326.727C193.751 328.94 183.819 328.621 182.896 328.449Z" fill="#A8A8A8" stroke="#263238" stroke-miterlimit="10"/>
<path d="M169.002 328.145C169.002 328.145 167.265 328.307 166.48 329.568C165.694 330.83 165.989 330.987 164.585 334.476C163.182 337.965 160.801 341.096 161.906 342.515C163.01 343.933 162.853 344.095 165.218 344.252" stroke="#263238" stroke-miterlimit="10"/>
<path d="M175.146 329.431C175.146 329.431 173.527 329.578 172.786 330.741C172.045 331.904 172.344 332.047 171.019 335.241C169.694 338.436 167.476 341.346 168.511 342.652C169.547 343.957 169.395 344.124 171.608 344.252" stroke="#263238" stroke-miterlimit="10"/>
<path d="M179.249 331.772C178.896 331.818 178.556 331.939 178.254 332.128C177.951 332.317 177.693 332.569 177.497 332.866C176.947 333.848 177.168 333.965 176.172 336.65C175.176 339.334 173.522 341.778 174.297 342.878C175.073 343.977 174.96 344.1 176.614 344.222C177.613 344.106 178.599 343.894 179.558 343.589C180.976 343.098 181.767 342.014 181.448 341.067C182.481 341.73 183.594 342.261 184.76 342.647" stroke="#263238" stroke-miterlimit="10"/>
<path d="M179.72 341.209C181.093 340.242 182.405 339.19 183.646 338.058" stroke="#263238" stroke-miterlimit="10"/>
<path d="M141.736 316.529C141.736 316.529 140.426 310.277 139.812 303.769C139.199 297.262 142.659 291.407 142.659 291.407" stroke="#263238" stroke-width="2" stroke-miterlimit="10"/>
<path d="M140.646 309.801C140.646 309.801 138.139 299.775 133.511 294.793" stroke="#263238" stroke-width="2" stroke-miterlimit="10"/>
<path d="M139.616 299.828C138.103 299.1 136.431 298.763 134.753 298.847" stroke="#263238" stroke-width="2" stroke-miterlimit="10"/>
<path d="M139.513 301.904C139.513 301.904 141.549 299.073 144.101 299.397C146.653 299.721 147.242 300.648 147.242 300.648" stroke="#263238" stroke-width="2" stroke-miterlimit="10"/>
<path d="M136.662 298.837C136.638 296.549 136.222 294.281 135.43 292.133C134.11 288.526 131.44 288.369 128.388 288.571C125.335 288.772 118.15 289.793 118.15 289.793C118.15 289.793 122.332 292.933 124.923 295.304C127.514 297.674 130.513 298.072 132.633 298.464C133.963 298.701 135.311 298.826 136.662 298.837Z" fill="#0080FF" stroke="#263238" stroke-miterlimit="10"/>
<path d="M139.861 297.733C139.861 297.733 138.717 292.482 139.925 289.051C141.132 285.621 144.41 283.162 147.463 282.981C150.515 282.799 154.667 282.981 154.667 282.981C154.667 282.981 152.375 287.888 148.69 291.446C145.004 295.004 139.861 297.733 139.861 297.733Z" fill="#0080FF" stroke="#263238" stroke-miterlimit="10"/>
<path d="M136.662 298.837C136.662 298.837 135.028 296.874 131.161 297.527C127.294 298.18 126.631 302.228 126.979 304.397C127.328 306.567 126.602 309.305 126.602 309.305C126.602 309.305 128.466 308.122 131.892 304.775C135.317 301.428 135.038 299.691 136.662 298.837Z" fill="#0080FF" stroke="#263238" stroke-miterlimit="10"/>
<path d="M142.262 299.838C142.262 299.838 144.377 296.56 146.973 297.169C149.569 297.777 151.62 297.738 153.353 300.246C155.085 302.753 153.844 309.57 153.844 309.57C152.899 307.892 151.662 306.397 150.192 305.153C147.994 303.465 144.912 299.853 142.262 299.838Z" fill="#0080FF" stroke="#263238" stroke-miterlimit="10"/>
<path d="M173.538 317.245C173.538 317.245 173.827 310.866 173.395 304.334C172.963 297.802 168.605 292.585 168.605 292.585" stroke="#263238" stroke-width="2" stroke-miterlimit="10"/>
<path d="M173.537 310.424C173.537 310.424 174.411 300.118 178.18 294.469" stroke="#263238" stroke-width="2" stroke-miterlimit="10"/>
<path d="M172.958 300.417C174.335 299.456 175.931 298.857 177.601 298.675" stroke="#263238" stroke-width="2" stroke-miterlimit="10"/>
<path d="M173.395 302.439C173.395 302.439 170.941 299.985 168.463 300.697C165.985 301.409 165.562 302.439 165.562 302.439" stroke="#263238" stroke-width="2" stroke-miterlimit="10"/>
<path d="M175.716 298.965C175.376 296.701 175.424 294.396 175.859 292.148C176.585 288.379 179.196 287.8 182.238 287.506C185.281 287.211 192.544 287.074 192.544 287.074C192.544 287.074 188.918 290.843 186.744 293.601C184.569 296.359 181.669 297.227 179.637 297.954C178.361 298.4 177.049 298.738 175.716 298.965Z" fill="#0080FF" stroke="#263238" stroke-miterlimit="10"/>
<path d="M172.379 298.386C172.379 298.386 172.668 293.022 170.906 289.827C169.144 286.632 165.542 284.752 162.495 285.042C159.447 285.332 155.413 286.2 155.413 286.2C155.413 286.2 158.456 290.7 162.666 293.601C166.877 296.501 172.379 298.386 172.379 298.386Z" fill="#0080FF" stroke="#263238" stroke-miterlimit="10"/>
<path d="M175.716 298.965C175.716 298.965 177.021 296.791 180.937 296.791C184.854 296.791 186.159 300.717 186.159 302.881C186.159 305.045 187.317 307.671 187.317 307.671C187.317 307.671 185.286 306.802 181.369 304.044C177.453 301.286 177.453 299.549 175.716 298.965Z" fill="#0080FF" stroke="#263238" stroke-miterlimit="10"/>
<path d="M170.347 300.854C170.347 300.854 167.736 297.954 165.272 298.965C162.809 299.976 160.772 300.27 159.467 303.028C158.161 305.786 160.483 312.313 160.483 312.313C161.149 310.51 162.131 308.84 163.383 307.381C165.272 305.35 167.736 301.286 170.347 300.854Z" fill="#0080FF" stroke="#263238" stroke-miterlimit="10"/>
<path d="M157.145 317.388C157.145 317.388 157.145 303.318 156.714 296.776C156.282 290.234 151.924 285.027 151.924 285.027" stroke="#263238" stroke-width="2" stroke-miterlimit="10"/>
<path d="M156.856 302.881C156.856 302.881 157.73 292.575 161.499 286.927" stroke="#263238" stroke-width="2" stroke-miterlimit="10"/>
<path d="M156.277 292.875C157.655 291.915 159.251 291.316 160.92 291.132" stroke="#263238" stroke-width="2" stroke-miterlimit="10"/>
<path d="M156.714 294.906C156.714 294.906 154.26 292.452 151.807 293.164C149.353 293.876 148.906 294.906 148.906 294.906" stroke="#263238" stroke-width="2" stroke-miterlimit="10"/>
<path d="M159.035 291.427C158.691 289.162 158.739 286.854 159.177 284.605C159.904 280.836 162.515 280.257 165.557 279.968C168.6 279.678 175.863 279.531 175.863 279.531C175.863 279.531 172.236 283.3 170.062 286.058C167.888 288.816 164.988 289.685 162.956 290.411C161.68 290.857 160.368 291.197 159.035 291.427Z" fill="#0080FF" stroke="#263238" stroke-miterlimit="10"/>
<path d="M155.698 290.843C155.698 290.843 155.987 285.479 154.226 282.284C152.464 279.089 148.862 277.21 145.814 277.499C142.766 277.789 138.728 278.662 138.728 278.662C138.728 278.662 141.77 283.158 145.981 286.058C150.192 288.958 155.698 290.843 155.698 290.843Z" fill="#0080FF" stroke="#263238" stroke-miterlimit="10"/>
<path d="M159.035 291.427C159.035 291.427 160.341 289.248 164.257 289.248C168.173 289.248 169.478 293.174 169.478 295.343C169.478 297.512 170.637 300.128 170.637 300.128C170.637 300.128 168.605 299.259 164.689 296.501C160.772 293.743 160.772 292.006 159.035 291.427Z" fill="#0080FF" stroke="#263238" stroke-miterlimit="10"/>
<path d="M153.666 293.311C153.666 293.311 151.055 290.411 148.592 291.427C146.128 292.443 144.091 292.732 142.786 295.485C141.481 298.238 143.802 304.77 143.802 304.77C144.468 302.967 145.45 301.297 146.702 299.838C148.592 297.807 151.055 293.743 153.666 293.311Z" fill="#0080FF" stroke="#263238" stroke-miterlimit="10"/>
<path d="M163.324 331.301C163.324 331.301 156.704 331.615 155.762 332.248C154.819 332.881 151.502 335.713 148.822 336.665C146.143 337.617 146.776 339.972 149.456 340.762C152.135 341.553 153.71 339.972 155.129 339.658C156.547 339.344 160.964 339.167 160.964 339.167L163.324 331.301Z" fill="#A8A8A8" stroke="#263238" stroke-miterlimit="10"/>
<path d="M137.319 302.93H144.73V338.755C144.73 339.377 144.483 339.974 144.043 340.414C143.603 340.854 143.006 341.101 142.384 341.101H139.66C139.038 341.101 138.441 340.854 138.002 340.414C137.562 339.974 137.314 339.377 137.314 338.755V302.93H137.319Z" stroke="#263238" stroke-miterlimit="10"/>
<path d="M138.851 311.597H143.194V337.808C143.194 338.173 143.049 338.522 142.791 338.78C142.534 339.037 142.184 339.182 141.82 339.182H140.2C139.836 339.182 139.486 339.037 139.229 338.78C138.971 338.522 138.826 338.173 138.826 337.808V311.597H138.851Z" fill="#0080FF" stroke="#263238" stroke-miterlimit="10"/>
<path d="M153.554 302.93H160.964V338.755C160.964 339.377 160.717 339.974 160.277 340.414C159.837 340.854 159.24 341.101 158.618 341.101H155.904C155.282 341.101 154.686 340.854 154.246 340.414C153.806 339.974 153.559 339.377 153.559 338.755V302.93H153.554Z" stroke="#263238" stroke-miterlimit="10"/>
<path d="M155.085 311.597H159.428V337.808C159.428 338.173 159.283 338.522 159.026 338.78C158.768 339.037 158.418 339.182 158.054 339.182H156.459C156.095 339.182 155.745 339.037 155.487 338.78C155.23 338.522 155.085 338.173 155.085 337.808V311.597Z" fill="#0080FF" stroke="#263238" stroke-miterlimit="10"/>
<path d="M169.788 302.93H177.199V338.755C177.199 339.377 176.951 339.974 176.511 340.414C176.071 340.854 175.475 341.101 174.853 341.101H172.134C171.512 341.101 170.915 340.854 170.475 340.414C170.035 339.974 169.788 339.377 169.788 338.755V302.93V302.93Z" stroke="#263238" stroke-miterlimit="10"/>
<path d="M171.324 311.597H175.667V337.808C175.667 338.173 175.523 338.522 175.265 338.78C175.007 339.037 174.658 339.182 174.293 339.182H172.698C172.334 339.182 171.984 339.037 171.727 338.78C171.469 338.522 171.324 338.173 171.324 337.808V311.597Z" fill="#0080FF" stroke="#263238" stroke-miterlimit="10"/>
<path d="M181.924 315.38H135.582V317.432H181.924V315.38Z" fill="white" stroke="#263238" stroke-miterlimit="10"/>
<path d="M182.876 310.964H180.511V344.222H182.876V310.964Z" fill="white" stroke="#263238" stroke-miterlimit="10"/>
<path d="M182.871 339.496H134.635V344.227H182.871V339.496Z" fill="white" stroke="#263238" stroke-miterlimit="10"/>
<path d="M261.652 270.099C261.652 270.099 260.179 268.769 258.059 279.055C255.939 289.341 256.999 305.286 261.416 312.21C265.833 319.135 275.265 324.17 275.265 324.17L281.768 315.778C281.768 315.778 268.974 311.582 265.833 299.2C262.692 286.819 264.572 279.079 266.878 278.633C269.185 278.186 272.566 284.056 272.566 284.056L263.001 265.633L261.652 270.099Z" fill="white" stroke="#263238" stroke-miterlimit="10"/>
<path d="M263.516 278.844C263.516 278.47 263.405 278.105 263.198 277.794C262.99 277.483 262.695 277.241 262.35 277.098C262.005 276.955 261.625 276.918 261.258 276.991C260.892 277.064 260.555 277.244 260.291 277.508C260.026 277.772 259.847 278.109 259.774 278.475C259.701 278.842 259.738 279.222 259.881 279.567C260.024 279.912 260.266 280.207 260.577 280.415C260.888 280.622 261.253 280.733 261.627 280.733C261.875 280.733 262.121 280.684 262.35 280.589C262.579 280.494 262.787 280.355 262.963 280.18C263.138 280.004 263.277 279.796 263.372 279.567C263.467 279.338 263.516 279.092 263.516 278.844Z" fill="#263238" stroke="#263238" stroke-miterlimit="10"/>
<path d="M262.815 278.844C262.815 278.609 262.745 278.379 262.615 278.184C262.484 277.989 262.299 277.836 262.082 277.747C261.865 277.657 261.626 277.633 261.395 277.679C261.165 277.725 260.953 277.838 260.787 278.004C260.621 278.17 260.508 278.382 260.462 278.612C260.416 278.842 260.44 279.081 260.53 279.298C260.62 279.515 260.772 279.701 260.967 279.831C261.163 279.962 261.392 280.031 261.627 280.031C261.942 280.031 262.244 279.906 262.467 279.684C262.69 279.461 262.815 279.159 262.815 278.844Z" fill="white" stroke="#263238" stroke-miterlimit="10"/>
<path d="M267.908 254.365L259.953 258.63L260.753 262.026L270.298 256.912L267.908 254.365Z" fill="white" stroke="#263238" stroke-miterlimit="10"/>
<path d="M255.412 231.046L247.458 235.311L259.953 258.614L267.907 254.349L255.412 231.046Z" fill="#263238" stroke="#263238" stroke-miterlimit="10"/>
<path d="M255.411 231.047L247.457 235.312L248.246 236.783L256.199 232.518L255.411 231.047Z" fill="white" stroke="#263238" stroke-miterlimit="10"/>
<path d="M270.245 256.924L260.756 262.012L275.027 288.628L284.517 283.54L270.245 256.924Z" fill="white" stroke="#263238" stroke-miterlimit="10"/>
<path d="M282.051 278.949L272.562 284.037L275.024 288.63L284.514 283.542L282.051 278.949Z" fill="#263238" stroke="#263238" stroke-miterlimit="10"/>
<path d="M288.458 283.809L285.5 285.395L289.864 293.535L292.823 291.949L288.458 283.809Z" fill="white" stroke="#263238" stroke-miterlimit="10"/>
<path d="M284.122 285.563L280.913 286.549L283.626 295.377L286.834 294.391L284.122 285.563Z" fill="white" stroke="#263238" stroke-miterlimit="10"/>
<path d="M295.897 289.558L298.494 287.431L292.642 280.286L290.045 282.413L295.897 289.558Z" fill="white" stroke="#263238" stroke-miterlimit="10"/>
<path d="M293.573 278.682L278.777 286.616L280.166 289.206L294.962 281.273L293.573 278.682Z" fill="white" stroke="#263238" stroke-miterlimit="10"/>
<path d="M302.77 296.216L279.189 308.86L280.189 310.724L303.769 298.08L302.77 296.216Z" fill="#263238" stroke="#263238" stroke-miterlimit="10"/>
<path d="M309.412 314.693L292.422 322.065L290.675 317.466L307.665 310.095L309.412 314.693Z" fill="#263238" stroke="#263238" stroke-miterlimit="10"/>
<path d="M286.696 307.605L281.519 310.381L283.105 313.339L288.282 310.563L286.696 307.605Z" fill="white" stroke="#263238" stroke-miterlimit="10"/>
<path d="M268.564 272.547C270.778 270.334 270.778 266.745 268.564 264.531C266.351 262.318 262.762 262.318 260.548 264.531C258.335 266.745 258.334 270.334 260.548 272.547C262.762 274.761 266.351 274.761 268.564 272.547Z" fill="#263238" stroke="#263238" stroke-miterlimit="10"/>
<path d="M267.457 266.987C267.15 266.413 266.679 265.943 266.104 265.636C265.529 265.33 264.876 265.201 264.228 265.265C263.58 265.33 262.965 265.585 262.462 265.999C261.959 266.413 261.59 266.967 261.402 267.591C261.214 268.214 261.215 268.88 261.405 269.503C261.595 270.126 261.966 270.679 262.47 271.091C262.974 271.504 263.59 271.757 264.238 271.82C264.886 271.882 265.539 271.751 266.113 271.443C266.494 271.24 266.832 270.963 267.106 270.628C267.381 270.294 267.586 269.909 267.711 269.495C267.836 269.081 267.878 268.646 267.834 268.216C267.791 267.785 267.663 267.368 267.457 266.987Z" fill="white" stroke="#263238" stroke-miterlimit="10"/>
<path d="M286.67 319.827L295.769 315.901C295.974 315.81 296.195 315.762 296.42 315.76C296.644 315.757 296.867 315.799 297.074 315.885C297.282 315.97 297.47 316.096 297.628 316.256C297.785 316.415 297.909 316.605 297.992 316.814C298.149 317.202 298.154 317.634 298.007 318.026C297.859 318.418 297.57 318.74 297.197 318.929L287.48 323.876L286.67 319.827Z" fill="white" stroke="#263238" stroke-miterlimit="10"/>
<path d="M283.245 314.517H283.682C284.429 314.518 285.16 314.733 285.789 315.135C286.419 315.538 286.92 316.112 287.235 316.789L290.4 323.606C290.524 323.873 290.575 324.168 290.548 324.461C290.521 324.754 290.416 325.035 290.245 325.274C290.074 325.514 289.842 325.703 289.574 325.824C289.306 325.945 289.01 325.992 288.717 325.961L287.652 325.848L283.245 314.517Z" fill="white" stroke="#263238" stroke-miterlimit="10"/>
<path d="M280.732 312.475L265.833 334.456H295.21L287.652 325.848L283.059 312.775C282.977 312.546 282.834 312.344 282.645 312.192C282.456 312.039 282.228 311.942 281.987 311.911C281.746 311.88 281.502 311.916 281.28 312.016C281.059 312.116 280.869 312.275 280.732 312.475Z" fill="white" stroke="#263238" stroke-miterlimit="10"/>
<path d="M283.034 317.456C283.034 317.083 282.923 316.717 282.715 316.407C282.508 316.096 282.213 315.854 281.867 315.711C281.522 315.568 281.142 315.53 280.776 315.603C280.409 315.676 280.073 315.856 279.808 316.12C279.544 316.385 279.364 316.721 279.291 317.088C279.218 317.454 279.256 317.834 279.399 318.179C279.542 318.525 279.784 318.82 280.095 319.027C280.405 319.235 280.771 319.346 281.144 319.346C281.392 319.346 281.638 319.297 281.867 319.202C282.097 319.107 282.305 318.968 282.48 318.792C282.656 318.617 282.795 318.409 282.89 318.179C282.985 317.95 283.034 317.705 283.034 317.456Z" fill="white" stroke="#263238" stroke-miterlimit="10"/>
<path d="M263.761 333.73H319.86C320.132 333.73 320.402 333.784 320.654 333.888C320.906 333.992 321.135 334.145 321.328 334.338C321.52 334.531 321.673 334.76 321.778 335.011C321.882 335.263 321.936 335.533 321.936 335.806V344.006H261.686V335.811C261.685 335.538 261.738 335.267 261.842 335.015C261.946 334.762 262.099 334.533 262.292 334.34C262.485 334.146 262.714 333.993 262.966 333.888C263.218 333.784 263.488 333.73 263.761 333.73Z" fill="white" stroke="#263238" stroke-miterlimit="10"/>
<path d="M36.3402 312.348V291.319H24.4688V312.348C20.8759 313.734 17.8812 316.333 16.0036 319.695C14.126 323.057 13.484 326.97 14.1888 330.756C14.8936 334.542 16.9008 337.962 19.8625 340.423C22.8242 342.884 26.5536 344.231 30.4045 344.231C34.2553 344.231 37.9848 342.884 40.9465 340.423C43.9082 337.962 45.9154 334.542 46.6202 330.756C47.325 326.97 46.6829 323.057 44.8054 319.695C42.9278 316.333 39.933 313.734 36.3402 312.348Z" fill="white" stroke="#263238" stroke-miterlimit="10"/>
<path d="M19.1441 321.176C17.9176 323.178 17.2468 325.47 17.2008 327.817C17.1547 330.164 17.7351 332.481 18.8822 334.529C20.0292 336.577 21.7015 338.283 23.7267 339.47C25.752 340.657 28.057 341.283 30.4045 341.283C32.7519 341.283 35.057 340.657 37.0822 339.47C39.1075 338.283 40.7797 336.577 41.9268 334.529C43.0738 332.481 43.6542 330.164 43.6082 327.817C43.5621 325.47 42.8913 323.178 41.6649 321.176H19.1441Z" fill="#0080FF" stroke="#263238" stroke-miterlimit="10"/>
<path d="M29.1157 324.636C29.1157 324.991 29.0107 325.337 28.8138 325.631C28.617 325.926 28.3373 326.156 28.0099 326.291C27.6826 326.427 27.3225 326.462 26.975 326.393C26.6275 326.324 26.3084 326.153 26.0579 325.903C25.8073 325.652 25.6367 325.333 25.5676 324.986C25.4985 324.638 25.534 324.278 25.6696 323.951C25.8051 323.623 26.0347 323.344 26.3293 323.147C26.6239 322.95 26.9702 322.845 27.3245 322.845C27.5599 322.844 27.7931 322.89 28.0107 322.98C28.2283 323.07 28.4261 323.202 28.5925 323.368C28.759 323.535 28.8909 323.732 28.9807 323.95C29.0705 324.168 29.1164 324.401 29.1157 324.636Z" fill="#0080FF" stroke="#263238" stroke-miterlimit="10"/>
<path d="M38.5492 327.262C38.5501 327.499 38.4807 327.731 38.3498 327.928C38.2188 328.126 38.0321 328.28 37.8134 328.372C37.5947 328.463 37.3537 328.487 37.1211 328.442C36.8885 328.396 36.6747 328.283 36.5068 328.115C36.3388 327.948 36.2243 327.735 36.1777 327.502C36.1311 327.27 36.1545 327.029 36.245 326.81C36.3355 326.591 36.4889 326.403 36.686 326.271C36.883 326.14 37.1147 326.069 37.3517 326.069C37.6685 326.069 37.9723 326.195 38.1967 326.418C38.4211 326.642 38.5479 326.945 38.5492 327.262Z" fill="#0080FF" stroke="#263238" stroke-miterlimit="10"/>
<path d="M28.876 332.694C28.876 332.848 28.8305 332.998 28.7453 333.125C28.6601 333.253 28.539 333.352 28.3973 333.411C28.2556 333.47 28.0997 333.485 27.9493 333.455C27.7989 333.425 27.6607 333.351 27.5523 333.243C27.4439 333.134 27.37 332.996 27.3401 332.846C27.3102 332.695 27.3255 332.539 27.3842 332.398C27.4429 332.256 27.5423 332.135 27.6698 332.05C27.7973 331.965 27.9472 331.919 28.1006 331.919C28.3062 331.919 28.5035 332.001 28.6489 332.146C28.7943 332.292 28.876 332.489 28.876 332.694Z" fill="#0080FF" stroke="#263238" stroke-miterlimit="10"/>
<path d="M32.4585 329.235C32.4585 329.436 32.3989 329.632 32.2873 329.799C32.1757 329.966 32.017 330.096 31.8314 330.173C31.6458 330.25 31.4415 330.27 31.2444 330.231C31.0474 330.192 30.8664 330.095 30.7243 329.953C30.5822 329.811 30.4855 329.63 30.4463 329.433C30.4071 329.236 30.4272 329.031 30.5041 328.846C30.581 328.66 30.7112 328.502 30.8782 328.39C31.0453 328.278 31.2417 328.219 31.4426 328.219C31.5762 328.218 31.7086 328.244 31.8321 328.295C31.9557 328.346 32.0679 328.42 32.1624 328.515C32.2569 328.609 32.3317 328.722 32.3825 328.845C32.4333 328.969 32.4591 329.101 32.4585 329.235Z" fill="#0080FF" stroke="#263238" stroke-miterlimit="10"/>
<path d="M26.6084 300.403V312.461" stroke="#263238" stroke-miterlimit="10"/>
<path d="M26.6084 294.435V297.9" stroke="#263238" stroke-miterlimit="10"/>
<path d="M18.8548 318.831C17.5769 320.442 16.646 322.3 16.1204 324.288C15.5948 326.277 15.486 328.352 15.8008 330.384C16.1155 332.417 16.8471 334.362 17.9494 336.098C19.0518 337.834 20.5012 339.324 22.2067 340.473" stroke="#263238" stroke-miterlimit="10"/>
<path d="M24.8713 314.301C23.5262 314.856 22.2696 315.605 21.1416 316.524" stroke="#263238" stroke-miterlimit="10"/>
<path d="M36.816 292.286H23.9238C23.7182 292.286 23.521 292.204 23.3755 292.059C23.2301 291.913 23.1484 291.716 23.1484 291.51C23.1484 291.305 23.2301 291.107 23.3755 290.962C23.521 290.817 23.7182 290.735 23.9238 290.735H36.816C37.0216 290.735 37.2189 290.817 37.3643 290.962C37.5097 291.107 37.5914 291.305 37.5914 291.51C37.5914 291.716 37.5097 291.913 37.3643 292.059C37.2189 292.204 37.0216 292.286 36.816 292.286Z" fill="white" stroke="#263238" stroke-miterlimit="10"/>
<path d="M50.3027 344.227H333.994" stroke="#263238" stroke-miterlimit="10"/>
<path d="M2.26758 344.227H46.3522" stroke="#263238" stroke-miterlimit="10"/>
</svg>
