<svg width="71" height="77" viewBox="0 0 71 77" fill="none" xmlns="http://www.w3.org/2000/svg">
<path opacity="0.5" d="M39.6117 18.7822C39.6117 18.7822 41.7628 16.3168 44.901 16.3168C44.901 16.3168 45.0053 14.401 47.1469 13.9872C49.2886 13.5734 49.7055 15.486 49.7055 15.486C49.7055 15.486 51.2849 14.6474 53.4123 15.486C55.5397 16.3247 55.107 18.7759 55.107 18.7759C55.107 18.7759 61.2365 18.5753 62.2884 19.6998H34.7314C34.7314 19.6998 35.2874 18.3242 39.6117 18.7822Z" stroke="#263238" stroke-linecap="round" stroke-linejoin="round"/>
<path d="M39.6117 18.7822C39.6117 18.7822 41.7628 16.3168 44.901 16.3168C44.901 16.3168 45.0053 14.401 47.1469 13.9872C49.2886 13.5734 49.7055 15.486 49.7055 15.486C49.7055 15.486 51.2849 14.6474 53.4123 15.486C55.5397 16.3247 55.107 18.7759 55.107 18.7759C55.107 18.7759 61.2365 18.5753 62.2884 19.6998H34.7314C34.7314 19.6998 35.2874 18.3242 39.6117 18.7822Z" stroke="#263238" stroke-linecap="round" stroke-linejoin="round"/>
<path opacity="0.5" d="M65.8595 34.9503C65.8595 34.9503 64.1427 32.984 61.641 32.984C61.641 32.984 61.5573 31.4567 59.85 31.1266C58.1426 30.7965 57.8094 32.3222 57.8094 32.3222C57.8094 32.3222 56.5459 31.6525 54.8528 32.3222C53.1597 32.9919 53.5009 34.9455 53.5009 34.9455C53.5009 34.9455 48.6048 34.7876 47.7725 35.6831H69.7479C69.7479 35.6831 69.3041 34.5854 65.8595 34.9503Z" stroke="#263238" stroke-linecap="round" stroke-linejoin="round"/>
<path d="M65.8595 34.9503C65.8595 34.9503 64.1427 32.984 61.641 32.984C61.641 32.984 61.5573 31.4567 59.85 31.1266C58.1426 30.7965 57.8094 32.3222 57.8094 32.3222C57.8094 32.3222 56.5459 31.6525 54.8528 32.3222C53.1597 32.9919 53.5009 34.9455 53.5009 34.9455C53.5009 34.9455 48.6048 34.7876 47.7725 35.6831H69.7479C69.7479 35.6831 69.3041 34.5854 65.8595 34.9503Z" stroke="#263238" stroke-linecap="round" stroke-linejoin="round"/>
<path opacity="0.5" d="M7.55049 23.3387C7.55049 23.3387 8.56761 22.17 10.0538 22.17C10.0821 21.8935 10.2021 21.6344 10.3947 21.434C10.5874 21.2337 10.8415 21.1035 11.1167 21.0644C12.1323 20.8686 12.3297 21.7736 12.3297 21.7736C12.6071 21.6542 12.9059 21.5927 13.2078 21.5927C13.5098 21.5927 13.8086 21.6542 14.0859 21.7736C15.092 22.1716 14.8883 23.3324 14.8883 23.3324C14.8883 23.3324 17.7927 23.2376 18.2902 23.7699H5.23828C5.23828 23.7699 5.4973 23.1176 7.55049 23.3387Z" stroke="#263238" stroke-linecap="round" stroke-linejoin="round"/>
<path d="M7.55049 23.3387C7.55049 23.3387 8.56761 22.1699 10.0538 22.1699C10.0821 21.8934 10.2021 21.6344 10.3947 21.434C10.5874 21.2336 10.8415 21.1035 11.1167 21.0644C12.1323 20.8685 12.3297 21.7735 12.3297 21.7735C12.6071 21.6542 12.9059 21.5927 13.2078 21.5927C13.5098 21.5927 13.8086 21.6542 14.0859 21.7735C15.092 22.1715 14.8883 23.3324 14.8883 23.3324C14.8883 23.3324 17.7927 23.2376 18.2902 23.7699H5.23828C5.23828 23.7699 5.4973 23.1176 7.55049 23.3387Z" stroke="#263238" stroke-linecap="round" stroke-linejoin="round"/>
<path d="M1 67.667C1 67.667 2.37406 64.9821 5.49806 65.4796C5.64104 65.1316 5.89853 64.8428 6.22794 64.661C6.55735 64.4792 6.93894 64.4153 7.30961 64.4799C7.30961 64.4799 6.49781 62.2308 8.62207 60.5488C10.7463 58.8668 13.6287 60.2977 13.6287 60.2977C13.6287 60.2977 13.4471 59.0342 14.6269 58.5762L32.8071 59.1795C32.8071 59.1795 34.8018 59.7354 35.2393 61.6101C35.2393 61.6101 36.9892 60.6104 39.1751 61.6101C41.361 62.6099 41.3625 65.11 41.3625 65.11C41.3625 65.11 43.8437 64.8589 44.0475 68.2514C44.0475 68.2514 45.6174 66.2693 47.9217 68.2514" fill="white"/>
<path d="M1 67.667C1 67.667 2.37406 64.9821 5.49806 65.4796C5.64104 65.1316 5.89853 64.8428 6.22794 64.661C6.55735 64.4792 6.93894 64.4153 7.30961 64.4799C7.30961 64.4799 6.49781 62.2308 8.62207 60.5488C10.7463 58.8668 13.6287 60.2977 13.6287 60.2977C13.6287 60.2977 13.4471 59.0342 14.6269 58.5762L32.8071 59.1795C32.8071 59.1795 34.8018 59.7354 35.2393 61.6101C35.2393 61.6101 36.9892 60.6104 39.1751 61.6101C41.361 62.6099 41.3625 65.11 41.3625 65.11C41.3625 65.11 43.8437 64.8589 44.0475 68.2514C44.0475 68.2514 45.6174 66.2693 47.9217 68.2514" stroke="#263238" stroke-linecap="round" stroke-linejoin="round"/>
<path d="M6.68532 68.7284C6.63807 68.8313 6.59642 68.9368 6.56055 69.0442" stroke="#263238" stroke-linecap="round" stroke-linejoin="round"/>
<path d="M14.0518 62.5199C13.5275 62.7283 13.0079 63.1437 12.6209 63.9176C12.6209 63.9176 11.5706 63.4643 10.9957 64.2919C10.4208 65.1195 11.3716 65.9787 11.3716 65.9787C11.3716 65.9787 10.0592 66.2298 9.99598 67.4159C9.99598 67.4159 8.65509 67.0337 7.59375 67.6828" stroke="#263238" stroke-linecap="round" stroke-linejoin="round"/>
<path d="M15.2304 62.3382C15.0193 62.327 14.8076 62.3376 14.5986 62.3698" stroke="#263238" stroke-linecap="round" stroke-linejoin="round"/>
<path d="M27.3201 59.9612L26.8952 58.5714H20.6188L19.5401 60.9815C19.5401 60.9815 16.8077 60.1681 16.2439 62.5435C16.1615 62.5109 16.0771 62.4834 15.9912 62.4614" stroke="#263238" stroke-linecap="round" stroke-linejoin="round"/>
<path d="M35.2792 63.5591C34.4405 64.0693 34.2415 65.0422 34.2415 65.0422C33.4929 63.7929 32.2404 64.5431 32.2404 64.5431C32.2404 64.5431 32.0525 62.3556 30.6153 61.5423C29.724 61.0603 28.6805 60.9431 27.7045 61.2153L27.4502 60.3988" stroke="#263238" stroke-linecap="round" stroke-linejoin="round"/>
<path d="M40.5595 67.686C40.1015 67.2643 39.4239 67.2911 39.4239 67.2911C39.4239 67.2911 40.2373 64.2303 37.4876 63.4169C36.6663 63.1753 36.0456 63.2227 35.5781 63.409" stroke="#263238" stroke-linecap="round" stroke-linejoin="round"/>
<path d="M40.9722 68.7284C40.9723 68.5654 40.9494 68.4033 40.9043 68.2467" stroke="#263238" stroke-linecap="round" stroke-linejoin="round"/>
<path d="M33.2304 59.1747H26.8955L28.4749 56.2213H31.651L33.2304 59.1747Z" fill="#757575" stroke="#263238" stroke-linecap="round" stroke-linejoin="round"/>
<path d="M19.9638 59.1747H13.6289L15.2083 56.2213H18.3844L19.9638 59.1747Z" fill="#757575" stroke="#263238" stroke-linecap="round" stroke-linejoin="round"/>
<path d="M27.7023 59.1747H19.1562L20.7356 56.2213H26.1229L27.7023 59.1747Z" fill="#999999" stroke="#263238" stroke-linecap="round" stroke-linejoin="round"/>
<path d="M32.8071 56.4329H27.3203V27.5304C27.3199 24.1509 28.2706 20.8396 30.0637 17.9751C31.8568 20.8396 32.8075 24.1509 32.8071 27.5304V56.4329Z" fill="#92E3A9"/>
<path opacity="0.3" d="M32.7871 26.7501C32.7982 27.0059 32.8061 27.2634 32.8061 27.5208V56.4329H27.3193V27.5303C27.3193 27.2729 27.3193 27.0154 27.3367 26.7596L32.7871 26.7501Z" fill="white"/>
<path opacity="0.2" d="M29.0961 27.7293V56.4329H27.3193V27.5303C27.317 25.4034 27.6913 23.2929 28.4249 21.2965C28.868 23.4122 29.0929 25.5677 29.0961 27.7293Z" fill="black"/>
<path opacity="0.2" d="M32.8059 27.5224V56.4329H32.0683V27.8367C32.0684 24.4456 31.3862 21.0892 30.0625 17.9672C31.8556 20.8317 32.8063 24.143 32.8059 27.5224Z" fill="black"/>
<path d="M32.8071 56.4329H27.3203V27.5304C27.3199 24.1509 28.2706 20.8396 30.0637 17.9751V17.9751C31.8568 20.8396 32.8075 24.1509 32.8071 27.5304V56.4329Z" stroke="#263238" stroke-linecap="round" stroke-linejoin="round"/>
<path d="M19.5405 56.4329H14.0537V27.5304C14.0533 24.1509 15.004 20.8396 16.7971 17.9751C18.5902 20.8396 19.5409 24.1509 19.5405 27.5304V56.4329Z" fill="#92E3A9"/>
<path opacity="0.3" d="M19.5193 26.6901C19.532 26.9665 19.5414 27.2444 19.5414 27.5224V56.4329H14.0547V27.5303C14.0547 27.2523 14.0642 26.9744 14.0768 26.698L19.5193 26.6901Z" fill="white"/>
<path opacity="0.2" d="M18.8414 22.5505C19.3059 24.1669 19.5414 25.8405 19.5411 27.5224V56.4329H17.7627V27.7293C17.7628 26.4565 17.8398 25.1849 17.9933 23.9214C18.0986 23.038 18.2434 22.1604 18.4276 21.2886C18.5808 21.704 18.7198 22.1241 18.8414 22.5505Z" fill="black"/>
<path opacity="0.2" d="M16.7981 17.9672C15.4731 21.0889 14.7904 24.4455 14.7907 27.8367V56.4329H14.0547V27.5303C14.0528 24.1482 15.0036 20.834 16.7981 17.9672Z" fill="black"/>
<path d="M19.5405 56.4329H14.0537V27.5304C14.0533 24.1509 15.004 20.8396 16.7971 17.9751C18.5902 20.8396 19.5409 24.1509 19.5405 27.5304V56.4329Z" stroke="#263238" stroke-linecap="round" stroke-linejoin="round"/>
<path d="M32.7884 26.7312H27.3838" stroke="#263238" stroke-linecap="round" stroke-linejoin="round"/>
<path d="M27.3189 32.8481H32.8057V32.4375H27.3189V32.8481Z" stroke="#263238" stroke-linecap="round" stroke-linejoin="round"/>
<path d="M27.3203 44.5181H32.7881V43.4773H27.3203V44.5181Z" stroke="#263238" stroke-linecap="round" stroke-linejoin="round"/>
<path d="M14.0713 26.7312H19.4775" stroke="#263238" stroke-linecap="round" stroke-linejoin="round"/>
<path d="M19.5405 32.4375H14.0537V32.8481H19.5405V32.4375Z" stroke="#263238" stroke-linecap="round" stroke-linejoin="round"/>
<path d="M19.5391 43.4758H14.0713V44.5166H19.5391V43.4758Z" stroke="#263238" stroke-linecap="round" stroke-linejoin="round"/>
<path d="M27.3829 56.4329H19.4766V14.7706C19.4748 9.90086 20.843 5.12887 23.425 1C26.0061 5.1287 27.3743 9.89992 27.3734 14.769L27.3829 56.4329Z" fill="#92E3A9"/>
<path opacity="0.2" d="M27.31 12.8185H19.5537C19.8692 8.62491 21.1999 4.57101 23.4311 1.0063C25.6637 4.57278 26.995 8.62894 27.31 12.8248V12.8185Z" fill="black" fill-opacity="0.7"/>
<g opacity="0.2">
<path opacity="0.2" d="M24.866 56.4329H21.9932V16.0625C21.9932 11.3433 22.4907 6.71893 23.4304 2.71837C24.3685 6.71893 24.866 11.3433 24.866 16.0609V56.4329Z" fill="white"/>
</g>
<path opacity="0.2" d="M27.3021 49.7253V56.4329H19.541V49.7442C19.8262 49.4648 20.0814 49.1561 20.3023 48.8235V39.611C20.3023 36.4238 21.5658 34.6628 23.431 34.6628C25.2963 34.6628 26.5598 36.4238 26.5598 39.611V48.8235C26.7747 49.1494 27.0236 49.4517 27.3021 49.7253Z" fill="black"/>
<path d="M27.3829 56.4329H19.4766V14.7706C19.4748 9.90086 20.843 5.12887 23.425 1V1C26.0061 5.1287 27.3743 9.89992 27.3734 14.769L27.3829 56.4329Z" stroke="#263238" stroke-linecap="round" stroke-linejoin="round"/>
<path d="M27.3829 19.6919H19.4766V20.7548H27.3829V19.6919Z" stroke="#263238" stroke-linecap="round" stroke-linejoin="round"/>
<path d="M27.3829 28.9392H19.4766V32.8481H27.3829V28.9392Z" stroke="#263238" stroke-linecap="round" stroke-linejoin="round"/>
<path d="M27.3829 47.4636H19.4766V50.6192H27.3829V47.4636Z" stroke="#263238" stroke-linecap="round" stroke-linejoin="round"/>
<path d="M26.2441 49.2294V44.9272H25.3691V55.4411H29.7014V53.478C29.7013 53.2291 29.6425 52.9839 29.5297 52.7621C29.4169 52.5403 29.2533 52.3484 29.0522 52.2018L26.9912 50.6982C26.7598 50.5295 26.5716 50.3085 26.4418 50.0533C26.312 49.798 26.2443 49.5158 26.2441 49.2294Z" fill="#92E3A9" stroke="#263238" stroke-linecap="round" stroke-linejoin="round"/>
<path d="M20.6145 49.2294V44.9272H21.4895V55.4411H17.1572V53.478C17.1573 53.2291 17.2161 52.9839 17.3289 52.7621C17.4417 52.5403 17.6053 52.3484 17.8064 52.2018L19.869 50.6982C20.1001 50.5294 20.2881 50.3084 20.4177 50.0531C20.5472 49.7979 20.6146 49.5157 20.6145 49.2294Z" fill="#92E3A9" stroke="#263238" stroke-linecap="round" stroke-linejoin="round"/>
<path d="M17.1572 54.5251H29.7022" stroke="#263238" stroke-linecap="round" stroke-linejoin="round"/>
<path d="M24.8141 56.4329H22.0471L21.5732 55.0589H25.2879L24.8141 56.4329Z" fill="#92E3A9" stroke="#263238" stroke-linecap="round" stroke-linejoin="round"/>
<path d="M26.2573 39.6299V55.4411H20.6348V39.6299C20.637 38.0695 21.155 36.5536 22.1083 35.3182C22.2666 35.1142 22.4694 34.9491 22.7013 34.8356C22.9331 34.722 23.1879 34.6629 23.4461 34.6629C23.7042 34.6629 23.959 34.722 24.1909 34.8356C24.4227 34.9491 24.6255 35.1142 24.7838 35.3182C25.0586 35.674 25.2988 36.0553 25.5008 36.457C25.6477 36.7456 25.7738 37.0443 25.8783 37.3509C26.1293 38.0845 26.2573 38.8546 26.2573 39.6299Z" fill="white"/>
<path opacity="0.3" d="M26.2417 39.6299V55.4411H24.8519V40.0422C24.8528 39.2979 24.7894 38.5549 24.6623 37.8216C24.6108 37.5236 24.5476 37.2335 24.4728 36.9513C24.3772 36.5755 24.2574 36.2062 24.1143 35.8458C23.9453 35.4193 23.6958 35.214 23.4462 35.214C23.1967 35.214 22.9456 35.4272 22.7766 35.8458C22.6348 36.2067 22.5151 36.5759 22.4181 36.9513C22.1628 37.9616 22.036 39.0001 22.0406 40.0422V55.4411H20.6191V39.6299C20.6213 38.0695 21.1394 36.5536 22.0927 35.3182C22.251 35.1142 22.4538 34.9491 22.6856 34.8356C22.9175 34.722 23.1722 34.6629 23.4304 34.6629C23.6886 34.6629 23.9434 34.722 24.1752 34.8356C24.4071 34.9491 24.6099 35.1142 24.7682 35.3182C25.043 35.674 25.2831 36.0553 25.4852 36.457C25.6321 36.7456 25.7582 37.0443 25.8627 37.3509C26.1136 38.0845 26.2417 38.8546 26.2417 39.6299Z" fill="#92E3A9"/>
<path d="M26.2573 39.6299V55.4411H20.6348V39.6299C20.637 38.0695 21.155 36.5536 22.1083 35.3182C22.2666 35.1142 22.4694 34.9491 22.7013 34.8356C22.9331 34.722 23.1879 34.6629 23.4461 34.6629C23.7042 34.6629 23.959 34.722 24.1909 34.8356C24.4227 34.9491 24.6255 35.1142 24.7838 35.3182C25.0586 35.674 25.2988 36.0553 25.5008 36.457C25.6477 36.7456 25.7738 37.0443 25.8783 37.3509C26.1293 38.0845 26.2573 38.8546 26.2573 39.6299V39.6299Z" stroke="#263238" stroke-linecap="round" stroke-linejoin="round"/>
<path d="M24.6068 39.4467C24.1472 38.0474 22.7021 38.0474 22.2378 39.4467L21.7197 39.1308C22.3799 37.1203 24.4568 37.1203 25.1185 39.1308L24.6068 39.4467Z" fill="white"/>
<path d="M24.6068 39.4467C24.1472 38.0474 22.7021 38.0474 22.2378 39.4467L21.7197 39.1308C22.3799 37.1203 24.4568 37.1203 25.1185 39.1308L24.6068 39.4467Z" fill="#BFBFBF" stroke="#263238" stroke-miterlimit="10"/>
<path d="M25.4853 36.457H21.3789C21.581 36.0553 21.8211 35.674 22.0959 35.3182C22.2542 35.1142 22.457 34.9491 22.6889 34.8356C22.9207 34.722 23.1755 34.6629 23.4337 34.6629C23.6919 34.6629 23.9466 34.722 24.1785 34.8356C24.4103 34.9491 24.6131 35.1142 24.7714 35.3182C25.0452 35.6742 25.2842 36.0555 25.4853 36.457Z" fill="#92E3A9" stroke="#263238" stroke-linecap="round" stroke-linejoin="round"/>
<path d="M46.6371 56.6318C46.7003 59.1588 45.451 58.9519 45.451 58.9519C45.3192 58.6614 45.1605 58.3838 44.9772 58.1227C44.3234 57.1167 43.322 55.7063 43.6979 54.8708C43.9434 54.3723 44.2226 53.891 44.5334 53.4304C45.2031 52.4038 45.9722 51.3662 45.9722 51.3662L42.6366 50.8134C42.6366 50.8134 40.2675 51.7958 38.3865 51.9095H38.2412C36.5291 51.9426 36.8055 50.6002 36.8055 50.1722C36.8055 49.9874 37.2683 49.6494 37.81 49.3161C38.5823 48.8423 39.5189 48.3764 39.5189 48.3764L39.0119 47.3261C38.7205 47.385 38.422 47.4009 38.1259 47.3735C36.8276 47.2314 37.0061 45.9521 37.2162 45.3961C37.2762 45.2382 37.5747 44.995 37.9964 44.717C39.331 43.8373 41.8864 42.6117 41.8864 42.6117H45.6342L49.3221 52.6786C49.3221 52.6786 46.5756 54.108 46.6371 56.6318Z" fill="white"/>
<path opacity="0.4" d="M46.6371 56.6318C46.7003 59.1588 45.451 58.9519 45.451 58.9519C45.3192 58.6614 45.1605 58.3838 44.9772 58.1227C44.3234 57.1167 43.322 55.7063 43.6979 54.8708C43.9434 54.3723 44.2226 53.891 44.5334 53.4304C45.2031 52.4038 45.9722 51.3662 45.9722 51.3662L42.6366 50.8134C42.6366 50.8134 40.2675 51.7958 38.3865 51.9095H38.2412C36.5291 51.9426 36.8055 50.6002 36.8055 50.1722C36.8055 49.9874 37.2683 49.6494 37.81 49.3161C38.5823 48.8423 39.5189 48.3764 39.5189 48.3764L39.0119 47.3261C38.7205 47.385 38.422 47.4009 38.1259 47.3735C36.8276 47.2314 37.0061 45.9521 37.2162 45.3961C37.2762 45.2382 37.5747 44.995 37.9964 44.717C39.331 43.8373 41.8864 42.6117 41.8864 42.6117H45.6342L49.3221 52.6786C49.3221 52.6786 46.5756 54.108 46.6371 56.6318Z" fill="#92E3A9"/>
<path opacity="0.4" d="M46.6367 56.6319C46.6999 59.1589 45.4506 58.952 45.4506 58.952C45.3187 58.6615 45.1601 58.3839 44.9768 58.1228C45.0243 57.8809 45.047 57.6348 45.0447 57.3884C45.0289 56.5245 44.3198 54.8708 44.3198 54.8708L45.0447 53.7242C44.8956 53.5929 44.7215 53.493 44.533 53.4305C45.2026 52.4039 45.9718 51.3662 45.9718 51.3662L42.6361 50.8134C42.6361 50.8134 40.2671 51.7958 38.386 51.9095H38.2407C38.3497 50.9698 37.9786 49.7853 37.8096 49.3114C38.5819 48.8376 39.5185 48.3717 39.5185 48.3717L39.0115 47.3214C38.72 47.3803 38.4215 47.3962 38.1254 47.3688C38.296 46.5491 38.1333 45.412 37.9959 44.7123C39.3305 43.8326 41.8859 42.607 41.8859 42.607H45.6338L49.3216 52.6739C49.3216 52.6739 46.5751 54.108 46.6367 56.6319Z" fill="#92E3A9"/>
<path d="M45.6372 42.6117H41.8894C41.8894 42.6117 37.4671 44.7328 37.2192 45.3961C36.9712 46.0595 36.7659 47.7304 39.0149 47.3261L39.5219 48.3764C39.5219 48.3764 36.8085 49.7252 36.8085 50.1722C36.8085 50.6191 36.5163 52.0216 38.3879 51.9095C40.2595 51.7973 42.638 50.8134 42.638 50.8134L45.9737 51.3662C45.9737 51.3662 44.2016 53.7573 43.7009 54.8708C43.2003 55.9843 45.1382 58.1117 45.454 58.9519C45.454 58.9519 46.7033 59.1557 46.6402 56.6318C46.577 54.108 49.3251 52.6834 49.3251 52.6834" stroke="#263238" stroke-linecap="round" stroke-linejoin="round"/>
<path d="M44.75 54.4207C44.75 54.4207 45.6897 53.8948 46.2014 54.8708" stroke="#263238" stroke-linecap="round" stroke-linejoin="round"/>
<path d="M46.0212 27.3202H46.3797C46.4304 27.3202 46.479 27.3403 46.5148 27.3762C46.5507 27.412 46.5708 27.4606 46.5708 27.5113V35.2029H45.8301V27.5113C45.8301 27.4862 45.835 27.4614 45.8446 27.4382C45.8542 27.415 45.8683 27.3939 45.8861 27.3762C45.9038 27.3584 45.9249 27.3444 45.948 27.3348C45.9712 27.3251 45.9961 27.3202 46.0212 27.3202Z" fill="#263238"/>
<path d="M46.4299 19.0427H45.9688V27.6993H46.4299V19.0427Z" fill="#263238"/>
<path d="M46.4996 18.1851H45.8994V19.3586H46.4996V18.1851Z" fill="#757575" stroke="#263238" stroke-linecap="round" stroke-linejoin="round"/>
<path opacity="0.3" d="M46.0479 33.1876V33.3439" stroke="white" stroke-linecap="round" stroke-linejoin="round"/>
<path opacity="0.3" d="M46.3527 27.554H46.0479V32.8117" stroke="white" stroke-linecap="round" stroke-linejoin="round"/>
<path opacity="0.3" d="M46.1699 24.6163V24.9085" stroke="white" stroke-linecap="round" stroke-linejoin="round"/>
<path opacity="0.3" d="M46.1699 19.6192V24.013" stroke="white" stroke-linecap="round" stroke-linejoin="round"/>
<path d="M52.6827 34.7764H39.7176C39.2431 34.7764 38.8584 35.1611 38.8584 35.6356V51.0314C38.8584 51.5059 39.2431 51.8906 39.7176 51.8906H52.6827C53.1572 51.8906 53.5419 51.5059 53.5419 51.0314V35.6356C53.5419 35.1611 53.1572 34.7764 52.6827 34.7764Z" fill="#757575"/>
<path opacity="0.2" d="M39.3896 48.8202V35.8125C39.3894 35.7325 39.405 35.6532 39.4354 35.5793C39.4659 35.5053 39.5106 35.4381 39.5671 35.3815C39.6236 35.3248 39.6907 35.2799 39.7646 35.2492C39.8385 35.2186 39.9177 35.2028 39.9977 35.2028H51.9204C51.9464 35.203 51.972 35.1963 51.9945 35.1832C52.017 35.1701 52.0356 35.1513 52.0483 35.1286C52.0604 35.1064 52.0664 35.0815 52.066 35.0563C52.0655 35.0311 52.0584 35.0064 52.0455 34.9847C52.0326 34.9631 52.0143 34.9451 51.9923 34.9327C51.9704 34.9202 51.9456 34.9137 51.9204 34.9138H39.7686C39.5827 34.9138 39.4043 34.9877 39.2728 35.1192C39.1413 35.2507 39.0674 35.4291 39.0674 35.615V48.8613C39.0669 48.8914 39.076 48.921 39.0933 48.9457C39.1106 48.9704 39.1352 48.9891 39.1637 48.9991C39.1921 49.009 39.223 49.0098 39.252 49.0012C39.2809 48.9926 39.3064 48.9752 39.3248 48.9513L39.3533 48.9134C39.3764 48.8878 39.3893 48.8547 39.3896 48.8202Z" fill="white"/>
<path opacity="0.4" d="M53.5425 35.6356V51.0313C53.5425 51.2592 53.452 51.4777 53.2908 51.6389C53.1297 51.8 52.9112 51.8905 52.6833 51.8905H39.7182C39.5166 51.8905 39.3214 51.8195 39.167 51.6899C39.3876 51.5268 39.6293 51.3945 39.8856 51.2967H44.8259H52.3785C52.546 51.2967 52.7067 51.2301 52.8252 51.1116C52.9437 50.9931 53.0102 50.8325 53.0102 50.6649V35.9499C53.1315 35.717 53.2918 35.5065 53.484 35.3276C53.5228 35.4256 53.5426 35.5301 53.5425 35.6356Z" fill="black" fill-opacity="0.7"/>
<path opacity="0.2" d="M53.5419 47.5267V51.0313C53.5419 51.2592 53.4514 51.4777 53.2903 51.6389C53.1291 51.8 52.9106 51.8905 52.6827 51.8905H44.9154L44.8253 51.2998C44.8885 51.055 44.8253 49.9747 44.8253 49.9747C44.3262 48.6433 44.8253 46.6454 44.8253 46.6454L47.9604 44.7059C47.9604 44.7059 50.0736 45.8604 50.4795 46.2853C50.8854 46.7101 51.1981 49.3888 51.1981 49.3888C51.6167 49.2893 52.3463 48.6749 53.0112 48.0416C53.1929 47.871 53.3761 47.6941 53.5419 47.5267Z" fill="black" fill-opacity="0.7"/>
<path d="M52.6827 34.7764H39.7176C39.2431 34.7764 38.8584 35.1611 38.8584 35.6356V51.0314C38.8584 51.5059 39.2431 51.8906 39.7176 51.8906H52.6827C53.1572 51.8906 53.5419 51.5059 53.5419 51.0314V35.6356C53.5419 35.1611 53.1572 34.7764 52.6827 34.7764Z" stroke="#263238" stroke-linecap="round" stroke-linejoin="round"/>
<path d="M53.0117 48.6355V49.1046" stroke="#263238" stroke-linecap="round" stroke-linejoin="round"/>
<path d="M44.3232 35.3608H52.4223C52.5785 35.3608 52.7284 35.4228 52.8388 35.5333C52.9493 35.6438 53.0114 35.7936 53.0114 35.9499V48.0116" stroke="#263238" stroke-linecap="round" stroke-linejoin="round"/>
<path d="M39.3896 38.071V35.9499C39.3896 35.7936 39.4517 35.6438 39.5622 35.5333C39.6727 35.4228 39.8225 35.3608 39.9788 35.3608H42.5752" stroke="#263238" stroke-linecap="round" stroke-linejoin="round"/>
<path d="M39.3896 39.5083V39.1024" stroke="#263238" stroke-linecap="round" stroke-linejoin="round"/>
<path d="M41.9798 51.3062H39.9788C39.8225 51.3062 39.6727 51.2441 39.5622 51.1336C39.4517 51.0231 39.3896 50.8733 39.3896 50.717V40.2932" stroke="#263238" stroke-linecap="round" stroke-linejoin="round"/>
<path d="M53.0117 50.7171C53.0117 50.8734 52.9496 51.0232 52.8392 51.1337C52.7287 51.2442 52.5788 51.3062 52.4226 51.3062H42.5752" stroke="#263238" stroke-linecap="round" stroke-linejoin="round"/>
<path d="M46.2013 47.6767C47.842 47.6767 49.1721 46.3467 49.1721 44.7059C49.1721 43.0652 47.842 41.7351 46.2013 41.7351C44.5605 41.7351 43.2305 43.0652 43.2305 44.7059C43.2305 46.3467 44.5605 47.6767 46.2013 47.6767Z" fill="#92E3A9"/>
<path opacity="0.2" d="M49.1723 44.706C49.1725 45.2846 49.0037 45.8507 48.6866 46.3348C48.3695 46.8188 47.9179 47.1997 47.3873 47.4307C46.8568 47.6617 46.2703 47.7327 45.7 47.635C45.1296 47.5373 44.6002 47.2751 44.1768 46.8808C44.2807 46.6812 44.4267 46.5066 44.6048 46.369C44.6048 46.369 46.3247 47.841 47.8962 46.268C49.0728 45.0897 48.0541 43.3335 48.0541 43.3335C48.0541 43.3335 48.2121 43.1629 48.6859 43.0855C49.0021 43.5669 49.1711 44.13 49.1723 44.706Z" fill="black" fill-opacity="0.7"/>
<path opacity="0.2" d="M44.4594 45.3756C44.4269 45.3895 44.3903 45.3909 44.3568 45.3795C44.3233 45.3681 44.2952 45.3448 44.2778 45.314C44.2429 45.2605 44.2217 45.1992 44.2162 45.1355C44.014 43.872 44.6821 42.678 46.0293 42.5659C46.2804 42.5438 46.9248 42.5659 46.8332 42.9765C46.7945 43.1076 46.7091 43.22 46.5932 43.2924C46.1961 43.5445 45.8123 43.8171 45.4434 44.1089C45.2611 44.2631 45.1016 44.4423 44.9696 44.6412C44.9016 44.7422 44.6742 45.2871 44.4594 45.3756Z" fill="black" fill-opacity="0.7"/>
<path d="M46.2013 47.6767C47.842 47.6767 49.1721 46.3467 49.1721 44.7059C49.1721 43.0652 47.842 41.7351 46.2013 41.7351C44.5605 41.7351 43.2305 43.0652 43.2305 44.7059C43.2305 46.3467 44.5605 47.6767 46.2013 47.6767Z" stroke="#263238" stroke-linecap="round" stroke-linejoin="round"/>
<path d="M43.8936 44.706C43.8936 44.4031 43.9532 44.1031 44.0692 43.8232C44.1852 43.5433 44.3552 43.2891 44.5695 43.0749C44.7838 42.8608 45.0382 42.691 45.3181 42.5752C45.5981 42.4594 45.8981 42.3999 46.201 42.4001" stroke="#263238" stroke-linecap="round" stroke-linejoin="round"/>
<path d="M45.5982 46.9313C45.1861 46.8199 44.813 46.5963 44.5205 46.2854C44.2279 45.9744 44.0275 45.5884 43.9414 45.1703" stroke="#263238" stroke-linecap="round" stroke-linejoin="round"/>
<path d="M47.6763 42.9339C48.0405 43.2372 48.3025 43.6453 48.4264 44.1027C48.5504 44.5601 48.5305 45.0447 48.3692 45.4903C48.208 45.936 47.9134 46.3212 47.5255 46.5934C47.1375 46.8657 46.6751 47.0118 46.2012 47.0118" stroke="#263238" stroke-linecap="round" stroke-linejoin="round"/>
<path d="M46.666 42.4459C46.8572 42.4849 47.0425 42.5486 47.2172 42.6354" stroke="#263238" stroke-linecap="round" stroke-linejoin="round"/>
<path d="M44.0823 37.9984C44.3887 37.9984 44.5466 38.1816 44.5466 38.5006V38.5638H44.2497V38.4817C44.2497 38.3379 44.1913 38.2842 44.0918 38.2842C43.9923 38.2842 43.9338 38.3379 43.9338 38.4817C43.9338 38.6254 43.997 38.736 44.2039 38.916C44.4661 39.1482 44.5498 39.314 44.5498 39.5477C44.5498 39.8636 44.3919 40.05 44.076 40.05C43.7601 40.05 43.6022 39.8668 43.6022 39.5477V39.4246H43.8991V39.5667C43.8991 39.7104 43.9623 39.761 44.057 39.761C44.1518 39.761 44.215 39.7104 44.215 39.5667C44.215 39.423 44.1534 39.3124 43.9465 39.1324C43.6843 38.9002 43.6006 38.7344 43.6006 38.5006C43.6195 38.1816 43.7775 37.9984 44.0823 37.9984Z" fill="white"/>
<path d="M44.6383 38.0205H45.6128V38.3064H45.2811V40.0168H44.9652V38.3064H44.6367L44.6383 38.0205Z" fill="white"/>
<path d="M46.6569 40.0168H46.341L46.2873 39.6536H45.9003L45.8466 40.0168H45.5576L45.8735 38.0142H46.3331L46.6569 40.0168ZM45.9398 39.3851H46.2446L46.0962 38.3727L45.9398 39.3851Z" fill="white"/>
<path d="M47.4604 40.0168C47.4344 39.9375 47.4247 39.8536 47.4319 39.7704V39.4546C47.4319 39.2682 47.3688 39.2003 47.2266 39.2003H47.1176V40.0168H46.8018V38.0205H47.2756C47.6025 38.0205 47.7494 38.1784 47.7494 38.4817V38.6396C47.7605 38.7201 47.7466 38.802 47.7096 38.8743C47.6726 38.9467 47.6142 39.0059 47.5425 39.0439C47.7004 39.1103 47.751 39.2587 47.751 39.4672V39.7831C47.7452 39.8657 47.7571 39.9486 47.7857 40.0263L47.4604 40.0168ZM47.1176 38.3V38.916H47.2408C47.3577 38.916 47.4288 38.8639 47.4288 38.7044V38.5069C47.4288 38.3632 47.3814 38.3 47.2708 38.3H47.1176Z" fill="white"/>
<path d="M47.861 38.0205H48.8338V38.3064H48.5038V40.0168H48.1879V38.3064H47.8594L47.861 38.0205Z" fill="white"/>
<path d="M55.3215 39.4909C55.3215 39.4909 54.0723 39.8779 53.6348 40.9629" stroke="#263238" stroke-linecap="round" stroke-linejoin="round"/>
<path d="M60.9853 73.9149C60.8447 71.5001 60.7531 69.0331 60.6331 67.0478C60.3836 62.9304 60.1956 60.168 59.8213 57.3568C59.447 54.5455 59.5054 50.2985 59.3206 48.8155C59.1359 47.3325 58.5752 47.0182 58.1345 45.2556C57.6939 43.493 57.2959 39.9836 56.5725 39.4909C55.8492 38.9981 53.6349 38.0694 53.6349 38.0694V48.01C52.3224 50.0269 50.7604 50.526 50.7604 50.526C49.7607 47.6325 49.887 46.4843 48.8873 45.4214C47.8875 44.3585 47.1673 42.9702 45.5974 43.5514C44.8504 43.8278 44.4508 44.1089 44.8251 46.6438C45.1994 49.1787 45.9497 49.9732 45.9497 49.9732C46.0744 50.8387 45.8881 53.3562 45.5753 54.645C45.2626 55.9337 46.4503 59.3547 47.0126 61.5421C47.5748 63.7295 50.5741 68.1597 50.5741 68.1597C50.6414 69.8284 50.5997 71.4998 50.4493 73.1631C50.4256 73.3985 50.3972 73.6496 50.364 73.9133C50.364 73.9133 51.7428 76.0376 53.2179 76.0376C58.7584 76.0392 60.9853 73.9149 60.9853 73.9149Z" fill="white"/>
<path opacity="0.4" d="M45.0486 44.2985C45.1064 44.154 45.1064 43.9928 45.0486 43.8484C45.2104 43.7143 45.3972 43.6139 45.5982 43.553C47.1681 42.9718 47.8883 44.3617 48.8881 45.423C48.9781 45.5181 49.0619 45.6189 49.1392 45.7247C48.2342 45.3835 47.0481 45.3898 46.5711 46.0516C45.971 46.8808 44.7485 45.3867 45.0486 44.2985Z" fill="#92E3A9"/>
<path opacity="0.4" d="M51.8277 71.4764L52.3221 73.329C52.3221 73.329 51.6256 72.6467 50.5848 70.9916C50.6353 69.3759 50.5737 68.1613 50.5737 68.1613C50.5737 68.1613 47.5729 63.7296 47.0122 61.5437C46.4515 59.3579 45.2623 55.9338 45.575 54.6466C45.8877 53.3594 46.0741 50.8403 45.9493 49.9748C45.8025 49.7943 45.6804 49.5952 45.586 49.3825C45.7155 49.2482 45.8794 49.152 46.0599 49.1046C46.579 50.5099 46.7865 52.0113 46.6679 53.5047C46.4737 56.0033 46.9017 56.2118 47.7293 59.4605C48.5569 62.7093 49.9309 66.3877 50.5721 67.0415C51.2134 67.6954 51.4992 70.6804 51.8277 71.4764Z" fill="#92E3A9"/>
<path opacity="0.4" d="M53.0113 49.5878C53.0113 49.5878 53.9969 49.7457 54.3933 49.9747C54.3933 49.9747 52.4696 50.477 52.3401 51.0124C52.2106 51.5478 51.8031 52.1037 51.0766 51.4499C51.0766 51.4499 51.0387 51.0408 50.9629 50.447C51.4272 50.2401 52.607 49.5909 53.6352 48.0116V38.071C53.6352 38.071 54.7281 38.529 55.6299 38.9712C54.9619 39.0597 54.278 39.265 54.0111 39.7167C54.0979 39.9932 54.2432 40.2479 54.4373 40.4632C54.6313 40.6785 54.8695 40.8494 55.1356 40.9644C55.8463 41.2803 55.1356 46.6501 55.1356 46.6501C55.1356 46.6501 56.3012 46.9376 56.6755 48.0163C56.6755 48.0163 54.7597 48.2121 53.9684 48.8202C53.1772 49.4283 53.0113 49.5878 53.0113 49.5878Z" fill="#92E3A9"/>
<path opacity="0.4" d="M60.6336 67.0479C60.7315 68.6557 60.8089 70.5794 60.9084 72.5362C60.6621 68.8168 59.915 62.4282 59.915 62.4282C59.915 62.4282 59.2469 64.7894 59.1964 64.5382C59.0479 63.7991 59.5123 59.6216 59.468 58.1339C59.4491 57.4595 59.4981 55.7301 59.5581 54.0433C59.6118 55.2026 59.6892 56.365 59.8218 57.36C60.1961 60.1681 60.3841 62.9304 60.6336 67.0479Z" fill="#92E3A9"/>
<path d="M60.9853 73.9149C60.8447 71.5001 60.7531 69.0331 60.6331 67.0478C60.3836 62.9304 60.1956 60.168 59.8213 57.3568C59.447 54.5455 59.5054 50.2985 59.3206 48.8155C59.1359 47.3325 58.5752 47.0182 58.1345 45.2556C57.6939 43.493 57.2959 39.9836 56.5725 39.4909C55.8492 38.9981 53.6349 38.0694 53.6349 38.0694V48.01C52.3224 50.0269 50.7604 50.526 50.7604 50.526C49.7607 47.6325 49.887 46.4843 48.8873 45.4214C47.8875 44.3585 47.1673 42.9702 45.5974 43.5514C44.8504 43.8278 44.4508 44.1089 44.8251 46.6438C45.1994 49.1787 45.9496 49.9732 45.9496 49.9732C46.0744 50.8387 45.8881 53.3562 45.5753 54.645C45.2626 55.9337 46.4503 59.3547 47.0126 61.5421C47.5748 63.7295 50.5741 68.1597 50.5741 68.1597C50.6414 69.8284 50.5997 71.4998 50.4493 73.1631C50.4256 73.3985 50.3972 73.6496 50.364 73.9134" stroke="#263238" stroke-linecap="round" stroke-linejoin="round"/>
<path d="M50.7607 50.5276C50.7607 50.5276 51.0766 51.9206 51.6989 52.2333C52.3212 52.546 53.223 52.2333 53.223 52.2333" stroke="#263238" stroke-linecap="round" stroke-linejoin="round"/>
<path d="M53.6348 48.0116C53.6348 48.0116 54.2665 46.6217 56.2597 47.8268" stroke="#263238" stroke-linecap="round" stroke-linejoin="round"/>
<path d="M53.6348 42.4001C53.6348 42.4001 53.7595 41.6625 54.7909 41.4761" stroke="#263238" stroke-linecap="round" stroke-linejoin="round"/>
<path d="M50.5742 68.1613C51.7603 69.6665 51.5345 71.1021 51.9957 71.8523C52.4568 72.6025 52.3889 75.2891 52.3889 75.2891" stroke="#263238" stroke-linecap="round" stroke-linejoin="round"/>
<path d="M59.1953 53.7242V58.9519C59.1789 60.4501 59.0325 61.944 58.7578 63.4168" stroke="#263238" stroke-linecap="round" stroke-linejoin="round"/>
<path d="M45.9502 49.9748C45.9502 49.9748 45.9502 49.0824 46.2013 48.8155" stroke="#263238" stroke-linecap="round" stroke-linejoin="round"/>
<path d="M46.6367 47.1683C46.6367 47.1683 47.1911 45.3046 48.8147 46.118" stroke="#263238" stroke-linecap="round" stroke-linejoin="round"/>
<path d="M51.6445 50.0663C52.8512 50.0932 54.0736 49.5578 54.7922 50.2085" stroke="#263238" stroke-linecap="round" stroke-linejoin="round"/>
</svg>
