<svg width="347" height="362" viewBox="0 0 347 362" fill="none" xmlns="http://www.w3.org/2000/svg">
<g clip-path="url(#clip0_36_6150)">
<rect width="347" height="362" fill="#FEE3EC"/>
<path d="M104.167 35V20.4545H110.176C111.265 20.4545 112.205 20.6676 112.995 21.0938C113.791 21.5152 114.404 22.1046 114.835 22.8622C115.266 23.6151 115.481 24.491 115.481 25.4901C115.481 26.4938 115.261 27.3722 114.821 28.125C114.385 28.8731 113.762 29.4531 112.953 29.8651C112.143 30.277 111.182 30.483 110.069 30.483H106.362V27.7131H109.416C109.946 27.7131 110.389 27.6207 110.744 27.4361C111.104 27.2514 111.376 26.9934 111.561 26.6619C111.745 26.3258 111.838 25.9351 111.838 25.4901C111.838 25.0402 111.745 24.652 111.561 24.3253C111.376 23.9938 111.104 23.7382 110.744 23.5582C110.384 23.3783 109.941 23.2884 109.416 23.2884H107.683V35H104.167ZM117.714 35V20.4545H121.23V26.2926H126.961V20.4545H130.47V35H126.961V29.1548H121.23V35H117.714ZM136.321 35H132.543L137.451 20.4545H142.131L147.039 35H143.26L139.844 24.1193H139.73L136.321 35ZM135.817 29.2756H143.715V31.946H135.817V29.2756ZM149.105 35V20.4545H155.113C156.202 20.4545 157.142 20.651 157.933 21.044C158.728 21.4323 159.342 21.991 159.772 22.7202C160.203 23.4446 160.419 24.304 160.419 25.2983C160.419 26.3068 160.199 27.1638 159.758 27.8693C159.318 28.5701 158.693 29.1051 157.883 29.4744C157.074 29.839 156.115 30.0213 155.007 30.0213H151.207V27.2514H154.353C154.884 27.2514 155.326 27.1828 155.681 27.0455C156.041 26.9034 156.314 26.6903 156.498 26.4062C156.683 26.1174 156.775 25.7481 156.775 25.2983C156.775 24.8485 156.683 24.4768 156.498 24.1832C156.314 23.8849 156.041 23.6624 155.681 23.5156C155.322 23.3641 154.879 23.2884 154.353 23.2884H152.62V35H149.105ZM157.294 28.3523L160.916 35H157.081L153.529 28.3523H157.294ZM162.847 20.4545H167.201L170.894 29.4602H171.064L174.757 20.4545H179.111V35H175.688V26.0653H175.567L172.073 34.9077H169.885L166.391 26.0156H166.27V35H162.847V20.4545ZM184.95 35H181.172L186.08 20.4545H190.76L195.668 35H191.889L188.473 24.1193H188.359L184.95 35ZM184.446 29.2756H192.344V31.946H184.446V29.2756ZM210.253 25.7244H206.702C206.655 25.3598 206.558 25.0308 206.411 24.7372C206.264 24.4437 206.07 24.1927 205.828 23.9844C205.587 23.776 205.301 23.6174 204.969 23.5085C204.642 23.3949 204.28 23.3381 203.882 23.3381C203.177 23.3381 202.569 23.5109 202.057 23.8565C201.551 24.2022 201.16 24.7017 200.885 25.3551C200.615 26.0085 200.48 26.7992 200.48 27.7273C200.48 28.6932 200.618 29.5028 200.892 30.1562C201.172 30.8049 201.562 31.295 202.064 31.6264C202.571 31.9531 203.17 32.1165 203.861 32.1165C204.249 32.1165 204.602 32.0668 204.919 31.9673C205.241 31.8679 205.523 31.7235 205.765 31.5341C206.011 31.34 206.212 31.1056 206.368 30.831C206.529 30.5516 206.641 30.2367 206.702 29.8864L210.253 29.9077C210.192 30.5516 210.005 31.1861 209.692 31.8111C209.384 32.4361 208.961 33.0066 208.421 33.5227C207.881 34.0341 207.223 34.4413 206.446 34.7443C205.675 35.0473 204.789 35.1989 203.79 35.1989C202.474 35.1989 201.295 34.91 200.253 34.3324C199.216 33.75 198.397 32.9025 197.796 31.7898C197.194 30.6771 196.894 29.3229 196.894 27.7273C196.894 26.1269 197.199 24.7704 197.81 23.6577C198.421 22.545 199.247 21.6998 200.289 21.1222C201.33 20.5445 202.498 20.2557 203.79 20.2557C204.671 20.2557 205.485 20.3788 206.233 20.625C206.981 20.8665 207.64 21.2216 208.208 21.6903C208.776 22.1544 209.238 22.7249 209.593 23.402C209.948 24.0791 210.168 24.8532 210.253 25.7244ZM216.281 20.4545V35H212.765V20.4545H216.281ZM218.988 35V20.4545H229.13V23.3097H222.503V26.2926H228.611V29.1548H222.503V32.1449H229.13V35H218.988ZM239.694 24.8153C239.646 24.2945 239.435 23.8897 239.061 23.6009C238.692 23.3073 238.164 23.1605 237.478 23.1605C237.023 23.1605 236.644 23.2197 236.341 23.3381C236.038 23.4564 235.811 23.6198 235.659 23.8281C235.508 24.0317 235.43 24.2661 235.425 24.5312C235.416 24.7491 235.458 24.9408 235.553 25.1065C235.652 25.2723 235.794 25.419 235.979 25.5469C236.168 25.67 236.396 25.7789 236.661 25.8736C236.926 25.9683 237.224 26.0511 237.556 26.1222L238.806 26.4062C239.525 26.5625 240.16 26.7708 240.709 27.0312C241.263 27.2917 241.727 27.6018 242.101 27.9616C242.48 28.3215 242.766 28.7358 242.961 29.2045C243.155 29.6733 243.254 30.1989 243.259 30.7812C243.254 31.6998 243.022 32.4882 242.563 33.1463C242.104 33.8045 241.443 34.3087 240.581 34.6591C239.724 35.0095 238.69 35.1847 237.478 35.1847C236.261 35.1847 235.2 35.0024 234.296 34.6378C233.391 34.2732 232.688 33.7192 232.186 32.9759C231.685 32.2325 231.426 31.2926 231.412 30.1562H234.779C234.807 30.625 234.933 31.0156 235.155 31.3281C235.378 31.6406 235.683 31.8774 236.071 32.0384C236.464 32.1993 236.919 32.2798 237.435 32.2798C237.908 32.2798 238.311 32.2159 238.642 32.0881C238.979 31.9602 239.237 31.7827 239.417 31.5554C239.596 31.3281 239.689 31.0677 239.694 30.7741C239.689 30.4995 239.604 30.2652 239.438 30.071C239.272 29.8722 239.016 29.7017 238.671 29.5597C238.33 29.4129 237.894 29.2779 237.364 29.1548L235.844 28.7997C234.585 28.5109 233.593 28.0445 232.868 27.4006C232.144 26.7519 231.784 25.8759 231.789 24.7727C231.784 23.8731 232.025 23.0848 232.513 22.4077C233.001 21.7306 233.676 21.2027 234.537 20.8239C235.399 20.4451 236.382 20.2557 237.485 20.2557C238.612 20.2557 239.589 20.4474 240.418 20.831C241.251 21.2098 241.898 21.7424 242.357 22.429C242.816 23.1155 243.051 23.911 243.06 24.8153H239.694Z" fill="#FA5087"/>
<path opacity="0.1" d="M52 47.5H287.646" stroke="#0080FF"/>
<path d="M224.157 151.577H28.2871V345.152H224.157V151.577Z" fill="white" stroke="#263238" stroke-linecap="round" stroke-linejoin="round"/>
<path d="M118.971 171.961H106.671V185.969H118.971V171.961Z" fill="white" stroke="#263238" stroke-linecap="round" stroke-linejoin="round"/>
<path d="M114.652 171.961H106.671V185.969H114.652V171.961Z" fill="white" stroke="#263238" stroke-linecap="round" stroke-linejoin="round"/>
<path d="M113.658 177.911H107.566V184.486H113.658V177.911Z" fill="#FA5087" stroke="#263238" stroke-linecap="round" stroke-linejoin="round"/>
<path d="M108.578 171.961H96.2783V185.969H108.578V171.961Z" fill="white" stroke="#263238" stroke-linecap="round" stroke-linejoin="round"/>
<path d="M104.259 171.961H96.2783V185.969H104.259V171.961Z" fill="white" stroke="#263238" stroke-linecap="round" stroke-linejoin="round"/>
<path d="M103.267 177.911H97.1748V184.486H103.267V177.911Z" fill="#FA5087" stroke="#263238" stroke-linecap="round" stroke-linejoin="round"/>
<path d="M98.7218 165.353H86.4219V185.969H98.7218V165.353Z" fill="#FA5087" stroke="#263238" stroke-linecap="round" stroke-linejoin="round"/>
<path d="M94.4026 165.353H86.4219V185.969H94.4026V165.353Z" fill="white" stroke="#263238" stroke-linecap="round" stroke-linejoin="round"/>
<path d="M93.4103 174.114H87.3184V183.79H93.4103V174.114Z" fill="#FA5087" stroke="#263238" stroke-linecap="round" stroke-linejoin="round"/>
<path d="M88.3302 165.353H76.0303V185.969H88.3302V165.353Z" fill="#FA5087" stroke="#263238" stroke-linecap="round" stroke-linejoin="round"/>
<path d="M84.011 165.353H76.0303V185.969H84.011V165.353Z" fill="#FA5087" stroke="#263238" stroke-linecap="round" stroke-linejoin="round"/>
<path d="M83.0177 174.114H76.9258V183.79H83.0177V174.114Z" fill="white" stroke="#263238" stroke-linecap="round" stroke-linejoin="round"/>
<path d="M79.1895 171.961H66.8896V185.969H79.1895V171.961Z" fill="white" stroke="#263238" stroke-linecap="round" stroke-linejoin="round"/>
<path d="M74.8704 171.961H66.8896V185.969H74.8704V171.961Z" fill="white" stroke="#263238" stroke-linecap="round" stroke-linejoin="round"/>
<path d="M73.8771 177.911H67.7852V184.486H73.8771V177.911Z" fill="#FA5087" stroke="#263238" stroke-linecap="round" stroke-linejoin="round"/>
<path d="M68.7979 171.961H56.498V185.969H68.7979V171.961Z" fill="white" stroke="#263238" stroke-linecap="round" stroke-linejoin="round"/>
<path d="M64.4788 171.961H56.498V185.969H64.4788V171.961Z" fill="white" stroke="#263238" stroke-linecap="round" stroke-linejoin="round"/>
<path d="M63.4845 177.911H57.3926V184.486H63.4845V177.911Z" fill="#FA5087" stroke="#263238" stroke-linecap="round" stroke-linejoin="round"/>
<path d="M58.9395 165.353H46.6396V185.969H58.9395V165.353Z" fill="white" stroke="#263238" stroke-linecap="round" stroke-linejoin="round"/>
<path d="M54.6204 165.353H46.6396V185.969H54.6204V165.353Z" fill="white" stroke="#263238" stroke-linecap="round" stroke-linejoin="round"/>
<path d="M53.629 174.114H47.5371V183.79H53.629V174.114Z" fill="#FA5087" stroke="#263238" stroke-linecap="round" stroke-linejoin="round"/>
<path d="M48.5479 165.353H36.248V185.969H48.5479V165.353Z" fill="white" stroke="#263238" stroke-linecap="round" stroke-linejoin="round"/>
<path d="M44.2288 165.353H36.248V185.969H44.2288V165.353Z" fill="white" stroke="#263238" stroke-linecap="round" stroke-linejoin="round"/>
<path d="M43.2374 174.114H37.1455V183.79H43.2374V174.114Z" fill="#FA5087" stroke="#263238" stroke-linecap="round" stroke-linejoin="round"/>
<path d="M214.655 171.961H202.355V185.969H214.655V171.961Z" fill="white" stroke="#263238" stroke-linecap="round" stroke-linejoin="round"/>
<path d="M210.336 171.961H202.355V185.969H210.336V171.961Z" fill="white" stroke="#263238" stroke-linecap="round" stroke-linejoin="round"/>
<path d="M209.343 177.911H203.251V184.486H209.343V177.911Z" fill="#FA5087" stroke="#263238" stroke-linecap="round" stroke-linejoin="round"/>
<path d="M204.263 171.961H191.963V185.969H204.263V171.961Z" fill="white" stroke="#263238" stroke-linecap="round" stroke-linejoin="round"/>
<path d="M199.944 171.961H191.963V185.969H199.944V171.961Z" fill="white" stroke="#263238" stroke-linecap="round" stroke-linejoin="round"/>
<path d="M198.951 177.911H192.859V184.486H198.951V177.911Z" fill="#FA5087" stroke="#263238" stroke-linecap="round" stroke-linejoin="round"/>
<path d="M194.407 165.353H182.107V185.969H194.407V165.353Z" fill="#FA5087" stroke="#263238" stroke-linecap="round" stroke-linejoin="round"/>
<path d="M190.088 165.353H182.107V185.969H190.088V165.353Z" fill="white" stroke="#263238" stroke-linecap="round" stroke-linejoin="round"/>
<path d="M189.095 174.114H183.003V183.79H189.095V174.114Z" fill="#FA5087" stroke="#263238" stroke-linecap="round" stroke-linejoin="round"/>
<path d="M184.015 165.353H171.715V185.969H184.015V165.353Z" fill="#FA5087" stroke="#263238" stroke-linecap="round" stroke-linejoin="round"/>
<path d="M179.696 165.353H171.715V185.969H179.696V165.353Z" fill="#FA5087" stroke="#263238" stroke-linecap="round" stroke-linejoin="round"/>
<path d="M178.702 174.114H172.61V183.79H178.702V174.114Z" fill="white" stroke="#263238" stroke-linecap="round" stroke-linejoin="round"/>
<path d="M174.88 171.961H162.58V185.969H174.88V171.961Z" fill="white" stroke="#263238" stroke-linecap="round" stroke-linejoin="round"/>
<path d="M170.561 171.961H162.58V185.969H170.561V171.961Z" fill="white" stroke="#263238" stroke-linecap="round" stroke-linejoin="round"/>
<path d="M169.562 177.911H163.47V184.486H169.562V177.911Z" fill="#FA5087" stroke="#263238" stroke-linecap="round" stroke-linejoin="round"/>
<path d="M164.482 171.961H152.182V185.969H164.482V171.961Z" fill="white" stroke="#263238" stroke-linecap="round" stroke-linejoin="round"/>
<path d="M160.162 171.961H152.182V185.969H160.162V171.961Z" fill="white" stroke="#263238" stroke-linecap="round" stroke-linejoin="round"/>
<path d="M159.171 177.911H153.079V184.486H159.171V177.911Z" fill="#FA5087" stroke="#263238" stroke-linecap="round" stroke-linejoin="round"/>
<path d="M154.633 165.353H142.333V185.969H154.633V165.353Z" fill="white" stroke="#263238" stroke-linecap="round" stroke-linejoin="round"/>
<path d="M150.314 165.353H142.333V185.969H150.314V165.353Z" fill="white" stroke="#263238" stroke-linecap="round" stroke-linejoin="round"/>
<path d="M149.313 174.114H143.221V183.79H149.313V174.114Z" fill="#FA5087" stroke="#263238" stroke-linecap="round" stroke-linejoin="round"/>
<path d="M144.233 165.353H131.934V185.969H144.233V165.353Z" fill="white" stroke="#263238" stroke-linecap="round" stroke-linejoin="round"/>
<path d="M139.914 165.353H131.934V185.969H139.914V165.353Z" fill="white" stroke="#263238" stroke-linecap="round" stroke-linejoin="round"/>
<path d="M138.921 174.114H132.829V183.79H138.921V174.114Z" fill="#FA5087" stroke="#263238" stroke-linecap="round" stroke-linejoin="round"/>
<path d="M118.971 280.655H106.671V294.663H118.971V280.655Z" fill="white" stroke="#263238" stroke-linecap="round" stroke-linejoin="round"/>
<path d="M114.652 280.655H106.671V294.663H114.652V280.655Z" fill="white" stroke="#263238" stroke-linecap="round" stroke-linejoin="round"/>
<path d="M113.658 286.605H107.566V293.181H113.658V286.605Z" fill="#FA5087" stroke="#263238" stroke-linecap="round" stroke-linejoin="round"/>
<path d="M108.578 280.655H96.2783V294.663H108.578V280.655Z" fill="white" stroke="#263238" stroke-linecap="round" stroke-linejoin="round"/>
<path d="M104.259 280.655H96.2783V294.663H104.259V280.655Z" fill="white" stroke="#263238" stroke-linecap="round" stroke-linejoin="round"/>
<path d="M103.267 286.605H97.1748V293.181H103.267V286.605Z" fill="#FA5087" stroke="#263238" stroke-linecap="round" stroke-linejoin="round"/>
<path d="M98.7218 274.047H86.4219V294.663H98.7218V274.047Z" fill="#FA5087" stroke="#263238" stroke-linecap="round" stroke-linejoin="round"/>
<path d="M94.4026 274.047H86.4219V294.663H94.4026V274.047Z" fill="white" stroke="#263238" stroke-linecap="round" stroke-linejoin="round"/>
<path d="M93.4103 282.802H87.3184V292.478H93.4103V282.802Z" fill="#FA5087" stroke="#263238" stroke-linecap="round" stroke-linejoin="round"/>
<path d="M88.3302 274.047H76.0303V294.663H88.3302V274.047Z" fill="#FA5087" stroke="#263238" stroke-linecap="round" stroke-linejoin="round"/>
<path d="M84.011 274.047H76.0303V294.663H84.011V274.047Z" fill="#FA5087" stroke="#263238" stroke-linecap="round" stroke-linejoin="round"/>
<path d="M83.0177 282.802H76.9258V292.478H83.0177V282.802Z" fill="white" stroke="#263238" stroke-linecap="round" stroke-linejoin="round"/>
<path d="M79.1895 280.655H66.8896V294.663H79.1895V280.655Z" fill="white" stroke="#263238" stroke-linecap="round" stroke-linejoin="round"/>
<path d="M74.8704 280.655H66.8896V294.663H74.8704V280.655Z" fill="white" stroke="#263238" stroke-linecap="round" stroke-linejoin="round"/>
<path d="M73.8771 286.605H67.7852V293.181H73.8771V286.605Z" fill="#FA5087" stroke="#263238" stroke-linecap="round" stroke-linejoin="round"/>
<path d="M68.7979 280.655H56.498V294.663H68.7979V280.655Z" fill="white" stroke="#263238" stroke-linecap="round" stroke-linejoin="round"/>
<path d="M64.4788 280.655H56.498V294.663H64.4788V280.655Z" fill="white" stroke="#263238" stroke-linecap="round" stroke-linejoin="round"/>
<path d="M63.4845 286.605H57.3926V293.181H63.4845V286.605Z" fill="#FA5087" stroke="#263238" stroke-linecap="round" stroke-linejoin="round"/>
<path d="M58.9395 274.047H46.6396V294.663H58.9395V274.047Z" fill="white" stroke="#263238" stroke-linecap="round" stroke-linejoin="round"/>
<path d="M54.6204 274.047H46.6396V294.663H54.6204V274.047Z" fill="white" stroke="#263238" stroke-linecap="round" stroke-linejoin="round"/>
<path d="M53.629 282.802H47.5371V292.478H53.629V282.802Z" fill="#FA5087" stroke="#263238" stroke-linecap="round" stroke-linejoin="round"/>
<path d="M48.5479 274.047H36.248V294.663H48.5479V274.047Z" fill="white" stroke="#263238" stroke-linecap="round" stroke-linejoin="round"/>
<path d="M44.2288 274.047H36.248V294.663H44.2288V274.047Z" fill="white" stroke="#263238" stroke-linecap="round" stroke-linejoin="round"/>
<path d="M43.2374 282.802H37.1455V292.478H43.2374V282.802Z" fill="#FA5087" stroke="#263238" stroke-linecap="round" stroke-linejoin="round"/>
<path d="M214.655 280.655H202.355V294.663H214.655V280.655Z" fill="white" stroke="#263238" stroke-linecap="round" stroke-linejoin="round"/>
<path d="M210.336 280.655H202.355V294.663H210.336V280.655Z" fill="white" stroke="#263238" stroke-linecap="round" stroke-linejoin="round"/>
<path d="M209.343 286.605H203.251V293.181H209.343V286.605Z" fill="#FA5087" stroke="#263238" stroke-linecap="round" stroke-linejoin="round"/>
<path d="M204.263 280.655H191.963V294.663H204.263V280.655Z" fill="white" stroke="#263238" stroke-linecap="round" stroke-linejoin="round"/>
<path d="M199.944 280.655H191.963V294.663H199.944V280.655Z" fill="white" stroke="#263238" stroke-linecap="round" stroke-linejoin="round"/>
<path d="M198.951 286.605H192.859V293.181H198.951V286.605Z" fill="#FA5087" stroke="#263238" stroke-linecap="round" stroke-linejoin="round"/>
<path d="M194.407 274.047H182.107V294.663H194.407V274.047Z" fill="#FA5087" stroke="#263238" stroke-linecap="round" stroke-linejoin="round"/>
<path d="M190.088 274.047H182.107V294.663H190.088V274.047Z" fill="white" stroke="#263238" stroke-linecap="round" stroke-linejoin="round"/>
<path d="M189.095 282.802H183.003V292.478H189.095V282.802Z" fill="#FA5087" stroke="#263238" stroke-linecap="round" stroke-linejoin="round"/>
<path d="M184.015 274.047H171.715V294.663H184.015V274.047Z" fill="#FA5087" stroke="#263238" stroke-linecap="round" stroke-linejoin="round"/>
<path d="M179.696 274.047H171.715V294.663H179.696V274.047Z" fill="#FA5087" stroke="#263238" stroke-linecap="round" stroke-linejoin="round"/>
<path d="M178.702 282.802H172.61V292.478H178.702V282.802Z" fill="white" stroke="#263238" stroke-linecap="round" stroke-linejoin="round"/>
<path d="M174.88 280.655H162.58V294.663H174.88V280.655Z" fill="white" stroke="#263238" stroke-linecap="round" stroke-linejoin="round"/>
<path d="M170.561 280.655H162.58V294.663H170.561V280.655Z" fill="white" stroke="#263238" stroke-linecap="round" stroke-linejoin="round"/>
<path d="M169.562 286.605H163.47V293.181H169.562V286.605Z" fill="#FA5087" stroke="#263238" stroke-linecap="round" stroke-linejoin="round"/>
<path d="M164.482 280.655H152.182V294.663H164.482V280.655Z" fill="white" stroke="#263238" stroke-linecap="round" stroke-linejoin="round"/>
<path d="M160.162 280.655H152.182V294.663H160.162V280.655Z" fill="white" stroke="#263238" stroke-linecap="round" stroke-linejoin="round"/>
<path d="M159.171 286.605H153.079V293.181H159.171V286.605Z" fill="#FA5087" stroke="#263238" stroke-linecap="round" stroke-linejoin="round"/>
<path d="M154.633 274.047H142.333V294.663H154.633V274.047Z" fill="white" stroke="#263238" stroke-linecap="round" stroke-linejoin="round"/>
<path d="M150.314 274.047H142.333V294.663H150.314V274.047Z" fill="white" stroke="#263238" stroke-linecap="round" stroke-linejoin="round"/>
<path d="M149.313 282.802H143.221V292.478H149.313V282.802Z" fill="#FA5087" stroke="#263238" stroke-linecap="round" stroke-linejoin="round"/>
<path d="M144.233 274.047H131.934V294.663H144.233V274.047Z" fill="white" stroke="#263238" stroke-linecap="round" stroke-linejoin="round"/>
<path d="M139.914 274.047H131.934V294.663H139.914V274.047Z" fill="white" stroke="#263238" stroke-linecap="round" stroke-linejoin="round"/>
<path d="M138.921 282.802H132.829V292.478H138.921V282.802Z" fill="#FA5087" stroke="#263238" stroke-linecap="round" stroke-linejoin="round"/>
<path d="M36.3258 206.514H40.4451C41.3718 206.514 42.2605 206.882 42.9158 207.537C43.571 208.193 43.9391 209.081 43.9391 210.008V221.921H32.8447V210.008C32.8447 209.084 33.2111 208.197 33.8635 207.542C34.516 206.887 35.4014 206.517 36.3258 206.514Z" fill="#FA5087" stroke="#263238" stroke-linecap="round" stroke-linejoin="round"/>
<path d="M40.9084 202.214H36.3379V206.514H40.9084V202.214Z" fill="#263238" stroke="#263238" stroke-linecap="round" stroke-linejoin="round"/>
<path d="M40.9087 211.175H33.7402V218.343H40.9087V211.175Z" fill="white" stroke="#263238" stroke-linecap="round" stroke-linejoin="round"/>
<path d="M49.4198 206.514H53.5391C54.4657 206.514 55.3545 206.882 56.0097 207.537C56.665 208.193 57.0331 209.081 57.0331 210.008V221.921H45.9258V210.008C45.9258 209.549 46.0162 209.095 46.1917 208.671C46.3673 208.247 46.6247 207.862 46.9491 207.537C47.2736 207.213 47.6588 206.956 48.0827 206.78C48.5066 206.604 48.9609 206.514 49.4198 206.514Z" fill="#FA5087" stroke="#263238" stroke-linecap="round" stroke-linejoin="round"/>
<path d="M53.9895 202.214H49.4189V206.514H53.9895V202.214Z" fill="#263238" stroke="#263238" stroke-linecap="round" stroke-linejoin="round"/>
<path d="M53.9898 211.175H46.8213V218.343H53.9898V211.175Z" fill="white" stroke="#263238" stroke-linecap="round" stroke-linejoin="round"/>
<path d="M62.4989 198.269H66.6246C67.5502 198.271 68.4372 198.639 69.0911 199.295C69.7449 199.95 70.1122 200.837 70.1122 201.763V221.921H59.0049V201.763C59.0049 200.836 59.373 199.948 60.0282 199.292C60.6835 198.637 61.5722 198.269 62.4989 198.269Z" fill="#FA5087" stroke="#263238" stroke-linecap="round" stroke-linejoin="round"/>
<path d="M67.0696 193.969H62.499V198.269H67.0696V193.969Z" fill="#263238" stroke="#263238" stroke-linecap="round" stroke-linejoin="round"/>
<path d="M67.0689 202.93H59.9004V218.337H67.0689V202.93Z" fill="white" stroke="#263238" stroke-linecap="round" stroke-linejoin="round"/>
<path d="M75.579 206.514H79.6983C80.6249 206.514 81.5136 206.882 82.1689 207.537C82.8241 208.193 83.1923 209.081 83.1923 210.008V221.921H72.085V210.008C72.085 209.081 72.4531 208.193 73.1083 207.537C73.7636 206.882 74.6523 206.514 75.579 206.514Z" fill="#FA5087" stroke="#263238" stroke-linecap="round" stroke-linejoin="round"/>
<path d="M80.1487 202.214H75.5781V206.514H80.1487V202.214Z" fill="#263238" stroke="#263238" stroke-linecap="round" stroke-linejoin="round"/>
<path d="M80.1499 211.175H72.9814V218.343H80.1499V211.175Z" fill="white" stroke="#263238" stroke-linecap="round" stroke-linejoin="round"/>
<path d="M88.6581 206.514H92.7774C93.704 206.514 94.5927 206.882 95.248 207.537C95.9032 208.193 96.2714 209.081 96.2714 210.008V221.921H85.1641V210.008C85.1641 209.081 85.5322 208.193 86.1874 207.537C86.8427 206.882 87.7314 206.514 88.6581 206.514Z" fill="#FA5087" stroke="#263238" stroke-linecap="round" stroke-linejoin="round"/>
<path d="M93.2288 202.214H88.6582V206.514H93.2288V202.214Z" fill="#263238" stroke="#263238" stroke-linecap="round" stroke-linejoin="round"/>
<path d="M93.229 211.175H86.0605V218.343H93.229V211.175Z" fill="white" stroke="#263238" stroke-linecap="round" stroke-linejoin="round"/>
<path d="M101.745 202.214H105.864C106.791 202.214 107.679 202.582 108.335 203.238C108.99 203.893 109.358 204.782 109.358 205.708V221.928H98.2441V205.708C98.2441 205.249 98.3347 204.794 98.5107 204.37C98.6867 203.945 98.9447 203.56 99.2698 203.235C99.5949 202.911 99.9809 202.653 100.406 202.478C100.83 202.303 101.285 202.213 101.745 202.214Z" fill="#FA5087" stroke="#263238" stroke-linecap="round" stroke-linejoin="round"/>
<path d="M106.316 197.914H101.745V202.214H106.316V197.914Z" fill="#263238" stroke="#263238" stroke-linecap="round" stroke-linejoin="round"/>
<path d="M106.31 206.869H99.1416V218.337H106.31V206.869Z" fill="white" stroke="#263238" stroke-linecap="round" stroke-linejoin="round"/>
<path d="M136.537 206.514H140.656C141.583 206.514 142.471 206.882 143.127 207.537C143.782 208.193 144.15 209.081 144.15 210.008V221.921H133.023V210.008C133.023 209.548 133.114 209.092 133.291 208.667C133.468 208.241 133.727 207.855 134.054 207.531C134.38 207.206 134.768 206.949 135.194 206.774C135.62 206.6 136.076 206.512 136.537 206.514Z" fill="#FA5087" stroke="#263238" stroke-linecap="round" stroke-linejoin="round"/>
<path d="M141.107 202.214H136.536V206.514H141.107V202.214Z" fill="#263238" stroke="#263238" stroke-linecap="round" stroke-linejoin="round"/>
<path d="M141.107 211.175H133.938V218.343H141.107V211.175Z" fill="white" stroke="#263238" stroke-linecap="round" stroke-linejoin="round"/>
<path d="M149.617 206.514H153.736C154.663 206.514 155.552 206.882 156.207 207.537C156.862 208.193 157.23 209.081 157.23 210.008V221.921H146.123V210.008C146.123 209.081 146.491 208.193 147.146 207.537C147.802 206.882 148.69 206.514 149.617 206.514Z" fill="#FA5087" stroke="#263238" stroke-linecap="round" stroke-linejoin="round"/>
<path d="M154.187 202.214H149.616V206.514H154.187V202.214Z" fill="#263238" stroke="#263238" stroke-linecap="round" stroke-linejoin="round"/>
<path d="M154.186 211.175H147.018V218.343H154.186V211.175Z" fill="white" stroke="#263238" stroke-linecap="round" stroke-linejoin="round"/>
<path d="M162.677 198.269H166.796C167.723 198.269 168.612 198.637 169.267 199.292C169.922 199.948 170.29 200.836 170.29 201.763V221.921H159.209V201.763C159.209 200.841 159.574 199.956 160.223 199.301C160.873 198.647 161.755 198.276 162.677 198.269Z" fill="#FA5087" stroke="#263238" stroke-linecap="round" stroke-linejoin="round"/>
<path d="M167.274 193.969H162.703V198.269H167.274V193.969Z" fill="#263238" stroke="#263238" stroke-linecap="round" stroke-linejoin="round"/>
<path d="M167.273 202.93H160.104V218.337H167.273V202.93Z" fill="white" stroke="#263238" stroke-linecap="round" stroke-linejoin="round"/>
<path d="M175.782 206.514H179.901C180.36 206.514 180.815 206.604 181.238 206.78C181.662 206.956 182.048 207.213 182.372 207.537C182.696 207.862 182.954 208.247 183.129 208.671C183.305 209.095 183.395 209.549 183.395 210.008V221.921H172.288V210.008C172.288 209.081 172.656 208.193 173.311 207.537C173.967 206.882 174.855 206.514 175.782 206.514Z" fill="#FA5087" stroke="#263238" stroke-linecap="round" stroke-linejoin="round"/>
<path d="M180.353 202.214H175.782V206.514H180.353V202.214Z" fill="#263238" stroke="#263238" stroke-linecap="round" stroke-linejoin="round"/>
<path d="M180.354 211.175H173.186V218.343H180.354V211.175Z" fill="white" stroke="#263238" stroke-linecap="round" stroke-linejoin="round"/>
<path d="M188.863 206.514H192.976C193.435 206.514 193.889 206.604 194.313 206.78C194.737 206.956 195.122 207.213 195.447 207.537C195.771 207.862 196.028 208.247 196.204 208.671C196.38 209.095 196.47 209.549 196.47 210.008V221.921H185.369V210.008C185.369 209.081 185.737 208.193 186.392 207.537C187.048 206.882 187.936 206.514 188.863 206.514Z" fill="#FA5087" stroke="#263238" stroke-linecap="round" stroke-linejoin="round"/>
<path d="M193.434 202.214H188.863V206.514H193.434V202.214Z" fill="#263238" stroke="#263238" stroke-linecap="round" stroke-linejoin="round"/>
<path d="M193.434 211.175H186.266V218.343H193.434V211.175Z" fill="white" stroke="#263238" stroke-linecap="round" stroke-linejoin="round"/>
<path d="M201.942 202.214H206.062C206.988 202.214 207.877 202.582 208.532 203.238C209.187 203.893 209.556 204.782 209.556 205.708V221.928H198.448V205.708C198.448 204.782 198.816 203.893 199.472 203.238C200.127 202.582 201.016 202.214 201.942 202.214Z" fill="#FA5087" stroke="#263238" stroke-linecap="round" stroke-linejoin="round"/>
<path d="M206.514 197.914H201.943V202.214H206.514V197.914Z" fill="#263238" stroke="#263238" stroke-linecap="round" stroke-linejoin="round"/>
<path d="M206.513 206.869H199.345V218.337H206.513V206.869Z" fill="white" stroke="#263238" stroke-linecap="round" stroke-linejoin="round"/>
<path d="M36.3258 316.136H40.4451C41.3718 316.136 42.2605 316.505 42.9158 317.16C43.571 317.815 43.9391 318.704 43.9391 319.63V331.544H32.8447V319.63C32.8447 318.706 33.2111 317.819 33.8635 317.164C34.516 316.509 35.4014 316.14 36.3258 316.136Z" fill="#FA5087" stroke="#263238" stroke-linecap="round" stroke-linejoin="round"/>
<path d="M40.9084 311.837H36.3379V316.136H40.9084V311.837Z" fill="#263238" stroke="#263238" stroke-linecap="round" stroke-linejoin="round"/>
<path d="M40.9087 320.791H33.7402V327.959H40.9087V320.791Z" fill="white" stroke="#263238" stroke-linecap="round" stroke-linejoin="round"/>
<path d="M49.4198 316.136H53.5391C54.4657 316.136 55.3545 316.505 56.0097 317.16C56.665 317.815 57.0331 318.704 57.0331 319.63V331.544H45.9258V319.63C45.9258 319.172 46.0162 318.717 46.1917 318.293C46.3673 317.869 46.6247 317.484 46.9491 317.16C47.2736 316.835 47.6588 316.578 48.0827 316.402C48.5066 316.227 48.9609 316.136 49.4198 316.136Z" fill="#FA5087" stroke="#263238" stroke-linecap="round" stroke-linejoin="round"/>
<path d="M53.9895 311.837H49.4189V316.136H53.9895V311.837Z" fill="#263238" stroke="#263238" stroke-linecap="round" stroke-linejoin="round"/>
<path d="M53.9898 320.791H46.8213V327.959H53.9898V320.791Z" fill="white" stroke="#263238" stroke-linecap="round" stroke-linejoin="round"/>
<path d="M62.4989 307.891H66.6246C67.5513 307.891 68.44 308.26 69.0953 308.915C69.7505 309.57 70.1186 310.459 70.1186 311.385V331.544H59.0049V311.385C59.0049 310.459 59.373 309.57 60.0282 308.915C60.6835 308.26 61.5722 307.891 62.4989 307.891Z" fill="#FA5087" stroke="#263238" stroke-linecap="round" stroke-linejoin="round"/>
<path d="M67.0696 303.592H62.499V307.891H67.0696V303.592Z" fill="#263238" stroke="#263238" stroke-linecap="round" stroke-linejoin="round"/>
<path d="M67.0689 312.552H59.9004V327.959H67.0689V312.552Z" fill="white" stroke="#263238" stroke-linecap="round" stroke-linejoin="round"/>
<path d="M75.579 316.136H79.6983C80.6249 316.136 81.5136 316.505 82.1689 317.16C82.8241 317.815 83.1923 318.704 83.1923 319.63V331.544H72.085V319.63C72.085 318.704 72.4531 317.815 73.1083 317.16C73.7636 316.505 74.6523 316.136 75.579 316.136Z" fill="#FA5087" stroke="#263238" stroke-linecap="round" stroke-linejoin="round"/>
<path d="M80.1487 311.837H75.5781V316.136H80.1487V311.837Z" fill="#263238" stroke="#263238" stroke-linecap="round" stroke-linejoin="round"/>
<path d="M80.1499 320.791H72.9814V327.959H80.1499V320.791Z" fill="white" stroke="#263238" stroke-linecap="round" stroke-linejoin="round"/>
<path d="M88.6581 316.136H92.7774C93.704 316.136 94.5927 316.505 95.248 317.16C95.9032 317.815 96.2714 318.704 96.2714 319.63V331.544H85.1641V319.63C85.1641 318.704 85.5322 317.815 86.1874 317.16C86.8427 316.505 87.7314 316.136 88.6581 316.136Z" fill="#FA5087" stroke="#263238" stroke-linecap="round" stroke-linejoin="round"/>
<path d="M93.2288 311.837H88.6582V316.136H93.2288V311.837Z" fill="#263238" stroke="#263238" stroke-linecap="round" stroke-linejoin="round"/>
<path d="M93.229 320.791H86.0605V327.959H93.229V320.791Z" fill="white" stroke="#263238" stroke-linecap="round" stroke-linejoin="round"/>
<path d="M101.745 311.837H105.864C106.791 311.837 107.679 312.205 108.335 312.86C108.99 313.515 109.358 314.404 109.358 315.331V331.55H98.2441V315.331C98.2441 314.871 98.3347 314.416 98.5107 313.992C98.6867 313.568 98.9447 313.182 99.2698 312.858C99.5949 312.533 99.9809 312.276 100.406 312.101C100.83 311.926 101.285 311.836 101.745 311.837Z" fill="#FA5087" stroke="#263238" stroke-linecap="round" stroke-linejoin="round"/>
<path d="M106.316 307.537H101.745V311.837H106.316V307.537Z" fill="#263238" stroke="#263238" stroke-linecap="round" stroke-linejoin="round"/>
<path d="M106.31 316.491H99.1416V327.959H106.31V316.491Z" fill="white" stroke="#263238" stroke-linecap="round" stroke-linejoin="round"/>
<path d="M136.537 316.137H140.656C141.583 316.137 142.471 316.505 143.127 317.16C143.782 317.815 144.15 318.704 144.15 319.631V331.544H133.023V319.631C133.023 319.17 133.114 318.714 133.291 318.289C133.468 317.864 133.727 317.478 134.054 317.153C134.38 316.828 134.768 316.571 135.194 316.397C135.62 316.222 136.076 316.134 136.537 316.137Z" fill="#FA5087" stroke="#263238" stroke-linecap="round" stroke-linejoin="round"/>
<path d="M141.107 311.837H136.536V316.136H141.107V311.837Z" fill="#263238" stroke="#263238" stroke-linecap="round" stroke-linejoin="round"/>
<path d="M141.107 320.791H133.938V327.959H141.107V320.791Z" fill="white" stroke="#263238" stroke-linecap="round" stroke-linejoin="round"/>
<path d="M149.617 316.136H153.736C154.663 316.136 155.552 316.505 156.207 317.16C156.862 317.815 157.23 318.704 157.23 319.63V331.544H146.123V319.63C146.123 318.704 146.491 317.815 147.146 317.16C147.802 316.505 148.69 316.136 149.617 316.136Z" fill="#FA5087" stroke="#263238" stroke-linecap="round" stroke-linejoin="round"/>
<path d="M154.187 311.837H149.616V316.136H154.187V311.837Z" fill="#263238" stroke="#263238" stroke-linecap="round" stroke-linejoin="round"/>
<path d="M154.186 320.791H147.018V327.959H154.186V320.791Z" fill="white" stroke="#263238" stroke-linecap="round" stroke-linejoin="round"/>
<path d="M162.677 307.891H166.796C167.723 307.891 168.612 308.26 169.267 308.915C169.922 309.57 170.29 310.459 170.29 311.385V331.544H159.209V311.385C159.209 310.463 159.574 309.578 160.223 308.924C160.873 308.269 161.755 307.898 162.677 307.891Z" fill="#FA5087" stroke="#263238" stroke-linecap="round" stroke-linejoin="round"/>
<path d="M167.274 303.592H162.703V307.891H167.274V303.592Z" fill="#263238" stroke="#263238" stroke-linecap="round" stroke-linejoin="round"/>
<path d="M167.273 312.552H160.104V327.959H167.273V312.552Z" fill="white" stroke="#263238" stroke-linecap="round" stroke-linejoin="round"/>
<path d="M175.782 316.136H179.901C180.36 316.136 180.815 316.227 181.238 316.402C181.662 316.578 182.048 316.835 182.372 317.16C182.696 317.484 182.954 317.869 183.129 318.293C183.305 318.717 183.395 319.172 183.395 319.63V331.544H172.288V319.63C172.288 318.704 172.656 317.815 173.311 317.16C173.967 316.505 174.855 316.136 175.782 316.136Z" fill="#FA5087" stroke="#263238" stroke-linecap="round" stroke-linejoin="round"/>
<path d="M180.353 311.837H175.782V316.136H180.353V311.837Z" fill="#263238" stroke="#263238" stroke-linecap="round" stroke-linejoin="round"/>
<path d="M180.354 320.791H173.186V327.959H180.354V320.791Z" fill="white" stroke="#263238" stroke-linecap="round" stroke-linejoin="round"/>
<path d="M188.863 316.136H192.976C193.435 316.136 193.889 316.227 194.313 316.402C194.737 316.578 195.122 316.835 195.447 317.16C195.771 317.484 196.028 317.869 196.204 318.293C196.38 318.717 196.47 319.172 196.47 319.63V331.544H185.369V319.63C185.369 318.704 185.737 317.815 186.392 317.16C187.048 316.505 187.936 316.136 188.863 316.136Z" fill="#FA5087" stroke="#263238" stroke-linecap="round" stroke-linejoin="round"/>
<path d="M193.434 311.837H188.863V316.136H193.434V311.837Z" fill="#263238" stroke="#263238" stroke-linecap="round" stroke-linejoin="round"/>
<path d="M193.434 320.791H186.266V327.959H193.434V320.791Z" fill="white" stroke="#263238" stroke-linecap="round" stroke-linejoin="round"/>
<path d="M201.942 311.837H206.062C206.988 311.837 207.877 312.205 208.532 312.86C209.187 313.515 209.556 314.404 209.556 315.331V331.55H198.448V315.331C198.448 314.404 198.816 313.515 199.472 312.86C200.127 312.205 201.016 311.837 201.942 311.837Z" fill="#FA5087" stroke="#263238" stroke-linecap="round" stroke-linejoin="round"/>
<path d="M206.514 307.537H201.943V311.837H206.514V307.537Z" fill="#263238" stroke="#263238" stroke-linecap="round" stroke-linejoin="round"/>
<path d="M206.513 316.491H199.345V327.959H206.513V316.491Z" fill="white" stroke="#263238" stroke-linecap="round" stroke-linejoin="round"/>
<path d="M44.0038 236.194H33.7861L36.3389 258.125H41.451L44.0038 236.194Z" fill="white" stroke="#263238" stroke-linecap="round" stroke-linejoin="round"/>
<path d="M35.9316 254.637L36.3378 258.125H41.4498L41.856 254.637H35.9316Z" fill="#263238" stroke="#263238" stroke-linecap="round" stroke-linejoin="round"/>
<path d="M40.7598 240.429H36.5244V250.898H40.7598V240.429Z" fill="#FA5087" stroke="#263238" stroke-linecap="round" stroke-linejoin="round"/>
<path d="M56.4712 236.194H46.2471L48.8063 258.125H53.9119L56.4712 236.194Z" fill="white" stroke="#263238" stroke-linecap="round" stroke-linejoin="round"/>
<path d="M48.4004 254.637L48.8065 258.125H53.9121L54.3183 254.637H48.4004Z" fill="#263238" stroke="#263238" stroke-linecap="round" stroke-linejoin="round"/>
<path d="M53.2275 240.429H48.9922V250.898H53.2275V240.429Z" fill="#FA5087" stroke="#263238" stroke-linecap="round" stroke-linejoin="round"/>
<path d="M68.9331 236.194H58.709L61.2682 258.125H66.3739L68.9331 236.194Z" fill="white" stroke="#263238" stroke-linecap="round" stroke-linejoin="round"/>
<path d="M60.8613 254.637L61.2675 258.125H66.3731L66.7856 254.637H60.8613Z" fill="#263238" stroke="#263238" stroke-linecap="round" stroke-linejoin="round"/>
<path d="M65.6894 240.429H61.4541V250.898H65.6894V240.429Z" fill="#FA5087" stroke="#263238" stroke-linecap="round" stroke-linejoin="round"/>
<path d="M81.3944 236.194H71.1768L73.7296 258.125H78.8416L81.3944 236.194Z" fill="white" stroke="#263238" stroke-linecap="round" stroke-linejoin="round"/>
<path d="M73.3213 254.637L73.7274 258.125H78.8395L79.2456 254.637H73.3213Z" fill="#263238" stroke="#263238" stroke-linecap="round" stroke-linejoin="round"/>
<path d="M78.1504 240.429H73.915V250.898H78.1504V240.429Z" fill="#FA5087" stroke="#263238" stroke-linecap="round" stroke-linejoin="round"/>
<path d="M95.2076 246.411H84.4033V250.15H95.2076V246.411Z" fill="#263238" stroke="#263238" stroke-linecap="round" stroke-linejoin="round"/>
<path d="M96.8531 250.15H82.7676V258.376H96.8531V250.15Z" fill="#FA5087" stroke="#263238" stroke-linecap="round" stroke-linejoin="round"/>
<path d="M94.8657 251.897H84.7383V256.635H94.8657V251.897Z" fill="white" stroke="#263238" stroke-linecap="round" stroke-linejoin="round"/>
<path d="M111.163 246.411H100.358V250.15H111.163V246.411Z" fill="#263238" stroke="#263238" stroke-linecap="round" stroke-linejoin="round"/>
<path d="M112.8 250.15H98.7148V258.376H112.8V250.15Z" fill="#FA5087" stroke="#263238" stroke-linecap="round" stroke-linejoin="round"/>
<path d="M110.822 251.897H100.694V256.635H110.822V251.897Z" fill="white" stroke="#263238" stroke-linecap="round" stroke-linejoin="round"/>
<path d="M143.705 236.194H133.487L136.04 258.125H141.152L143.705 236.194Z" fill="white" stroke="#263238" stroke-linecap="round" stroke-linejoin="round"/>
<path d="M135.634 254.637L136.04 258.125H141.152L141.558 254.637H135.634Z" fill="#263238" stroke="#263238" stroke-linecap="round" stroke-linejoin="round"/>
<path d="M140.463 240.429H136.228V250.898H140.463V240.429Z" fill="#FA5087" stroke="#263238" stroke-linecap="round" stroke-linejoin="round"/>
<path d="M156.173 236.194H145.949L148.508 258.125H153.614L156.173 236.194Z" fill="white" stroke="#263238" stroke-linecap="round" stroke-linejoin="round"/>
<path d="M148.102 254.637L148.508 258.125H153.613L154.019 254.637H148.102Z" fill="#263238" stroke="#263238" stroke-linecap="round" stroke-linejoin="round"/>
<path d="M152.93 240.429H148.694V250.898H152.93V240.429Z" fill="#FA5087" stroke="#263238" stroke-linecap="round" stroke-linejoin="round"/>
<path d="M168.635 236.194H158.417L160.97 258.125H166.082L168.635 236.194Z" fill="white" stroke="#263238" stroke-linecap="round" stroke-linejoin="round"/>
<path d="M160.562 254.637L160.968 258.125H166.08L166.486 254.637H160.562Z" fill="#263238" stroke="#263238" stroke-linecap="round" stroke-linejoin="round"/>
<path d="M165.392 240.429H161.156V250.898H165.392V240.429Z" fill="#FA5087" stroke="#263238" stroke-linecap="round" stroke-linejoin="round"/>
<path d="M181.095 236.194H170.877L173.43 258.125H178.542L181.095 236.194Z" fill="white" stroke="#263238" stroke-linecap="round" stroke-linejoin="round"/>
<path d="M173.023 254.637L173.43 258.125H178.542L178.948 254.637H173.023Z" fill="#263238" stroke="#263238" stroke-linecap="round" stroke-linejoin="round"/>
<path d="M177.852 240.429H173.616V250.898H177.852V240.429Z" fill="#FA5087" stroke="#263238" stroke-linecap="round" stroke-linejoin="round"/>
<path d="M194.909 246.411H184.104V250.15H194.909V246.411Z" fill="#263238" stroke="#263238" stroke-linecap="round" stroke-linejoin="round"/>
<path d="M196.554 250.15H182.469V258.376H196.554V250.15Z" fill="#FA5087" stroke="#263238" stroke-linecap="round" stroke-linejoin="round"/>
<path d="M194.575 251.897H184.447V256.635H194.575V251.897Z" fill="white" stroke="#263238" stroke-linecap="round" stroke-linejoin="round"/>
<path d="M210.865 246.411H200.061V250.15H210.865V246.411Z" fill="#263238" stroke="#263238" stroke-linecap="round" stroke-linejoin="round"/>
<path d="M212.501 250.15H198.415V258.376H212.501V250.15Z" fill="#FA5087" stroke="#263238" stroke-linecap="round" stroke-linejoin="round"/>
<path d="M210.523 251.897H200.396V256.635H210.523V251.897Z" fill="white" stroke="#263238" stroke-linecap="round" stroke-linejoin="round"/>
<path d="M223.977 189.876V185.208H29.4087V189.876H223.977Z" fill="white" stroke="#263238" stroke-linecap="round" stroke-linejoin="round"/>
<path d="M223.982 226.266V221.599H29.4146V226.266H223.982Z" fill="white" stroke="#263238" stroke-linecap="round" stroke-linejoin="round"/>
<path d="M223.977 262.663V257.996H29.4087V262.663H223.977Z" fill="white" stroke="#263238" stroke-linecap="round" stroke-linejoin="round"/>
<path d="M223.977 299.06V294.392H29.4087V299.06H223.977Z" fill="white" stroke="#263238" stroke-linecap="round" stroke-linejoin="round"/>
<path d="M223.982 335.063V330.396H29.4146V335.063H223.982Z" fill="white" stroke="#263238" stroke-linecap="round" stroke-linejoin="round"/>
<path d="M30.343 157.682H25.6758V346.184H30.343V157.682Z" fill="white" stroke="#263238" stroke-linecap="round" stroke-linejoin="round"/>
<path d="M128.329 157.682H123.662V346.184H128.329V157.682Z" fill="white" stroke="#263238" stroke-linecap="round" stroke-linejoin="round"/>
<path d="M226.317 157.682H221.649V346.184H226.317V157.682Z" fill="white" stroke="#263238" stroke-linecap="round" stroke-linejoin="round"/>
<path d="M228.179 138.085H21.0088V158.146H228.179V138.085Z" fill="#FA5087" stroke="#263238" stroke-linecap="round" stroke-linejoin="round"/>
<path d="M167.524 138.085H81.6699V158.146H167.524V138.085Z" fill="white" stroke="#263238" stroke-linecap="round" stroke-linejoin="round"/>
<path d="M57.2452 145.769H52.9067V141.424H48.4328V145.769H44.0879V150.243H48.4328V154.581H52.9067V150.243H57.2452V145.769Z" fill="white"/>
<path d="M203.825 145.769H199.487V141.424H195.013V145.769H190.668V150.243H195.013V154.581H199.487V150.243H203.825V145.769Z" fill="white"/>
<path d="M95.1049 141.166C97.3224 141.166 98.2701 142.455 98.2701 144.615V146.323C98.2701 148.56 97.2258 149.727 94.9824 149.727H93.5964V155.297H92.0234V141.166H95.1049ZM94.9888 148.302C96.1621 148.302 96.7229 147.761 96.7229 146.407V144.531C96.7229 143.242 96.2588 142.597 95.1113 142.597H93.6028V148.302H94.9888Z" fill="#FA5087"/>
<path d="M101.138 148.902V155.258H99.5654V141.166H101.138V147.516H104.607V141.166H106.18V155.284H104.607V148.902H101.138Z" fill="#FA5087"/>
<path d="M109.384 152.441L108.842 155.284H107.392L110.093 141.166H112.394L115.095 155.284H113.522L112.981 152.441H109.384ZM109.59 151.087H112.736L111.137 142.939L109.59 151.087Z" fill="#FA5087"/>
<path d="M119.447 141.166C121.671 141.166 122.593 142.294 122.593 144.389V145.543C122.593 147.097 122.051 148.064 120.839 148.444C122.129 148.831 122.619 149.875 122.619 151.39V153.588C122.573 154.168 122.668 154.749 122.896 155.284H121.304C121.085 154.74 120.996 154.153 121.046 153.569V151.351C121.046 149.759 120.298 149.25 118.989 149.25H117.874V155.284H116.308V141.166H119.447ZM119.047 147.819C120.298 147.819 121.046 147.419 121.046 145.885V144.531C121.046 143.242 120.582 142.597 119.408 142.597H117.874V147.819H119.047Z" fill="#FA5087"/>
<path d="M129.452 155.264H127.944L125.604 144.028V155.284H124.23V141.166H126.429L128.749 152.441L130.986 141.166H133.185V155.284H131.695V143.931L129.452 155.264Z" fill="#FA5087"/>
<path d="M136.394 152.441L135.846 155.284H134.396L137.097 141.166H139.379L142.08 155.284H140.507L139.959 152.441H136.394ZM136.594 151.087H139.74L138.18 142.939L136.594 151.087Z" fill="#FA5087"/>
<path d="M149.538 144.576V145.865H148.049V144.512C148.049 143.222 147.546 142.475 146.392 142.475C145.238 142.475 144.742 143.242 144.742 144.512V151.977C144.742 153.266 145.264 154.007 146.392 154.007C147.521 154.007 148.049 153.247 148.049 151.977V150.139H149.538V151.893C149.538 154.033 148.533 155.445 146.354 155.445C144.175 155.445 143.188 154.033 143.188 151.893V144.576C143.188 142.436 144.194 141.024 146.354 141.024C148.513 141.024 149.538 142.455 149.538 144.576Z" fill="#FA5087"/>
<path d="M153.252 150.191L150.268 141.166H151.905L154.103 148.102L156.321 141.166H157.81L154.806 150.191V155.258H153.252V150.191Z" fill="#FA5087"/>
<path d="M306.615 155.561H238.302V257.467H306.615V155.561Z" stroke="#263238" stroke-linecap="round" stroke-linejoin="round"/>
<path d="M282.162 181.469L258.833 195.903C257.645 196.639 256.323 197.133 254.944 197.358C253.565 197.583 252.155 197.534 250.795 197.213C249.435 196.893 248.151 196.308 247.017 195.491C245.883 194.675 244.921 193.643 244.186 192.454V192.454C242.703 190.055 242.232 187.165 242.879 184.42C243.526 181.675 245.237 179.299 247.635 177.814L270.978 163.374C273.378 161.89 276.269 161.42 279.015 162.067C281.761 162.713 284.139 164.424 285.624 166.823V166.823C286.359 168.012 286.853 169.334 287.077 170.713C287.301 172.093 287.25 173.503 286.929 174.864C286.607 176.224 286.021 177.507 285.203 178.641C284.385 179.774 283.352 180.735 282.162 181.469V181.469Z" stroke="#263238" stroke-linecap="round" stroke-linejoin="round"/>
<path d="M270.979 163.374L259.079 170.743L270.277 188.831L282.177 181.469C283.365 180.734 284.397 179.772 285.213 178.638C286.029 177.504 286.614 176.221 286.935 174.861C287.255 173.5 287.304 172.091 287.08 170.712C286.855 169.333 286.361 168.011 285.626 166.823C284.89 165.635 283.928 164.603 282.794 163.787C281.66 162.97 280.377 162.385 279.017 162.065C277.657 161.745 276.247 161.696 274.868 161.92C273.489 162.145 272.167 162.639 270.979 163.374V163.374Z" stroke="#263238" stroke-linecap="round" stroke-linejoin="round"/>
<path d="M288.926 226.111L263.011 217.086C261.691 216.629 260.475 215.915 259.431 214.987C258.387 214.059 257.536 212.934 256.927 211.676C256.318 210.419 255.963 209.054 255.882 207.659C255.801 206.265 255.996 204.868 256.455 203.549C256.913 202.229 257.626 201.012 258.554 199.968C259.483 198.924 260.608 198.074 261.865 197.465C263.122 196.856 264.487 196.501 265.882 196.42C267.276 196.339 268.673 196.533 269.993 196.993L295.907 206.018C298.572 206.944 300.76 208.89 301.989 211.429C303.218 213.968 303.389 216.891 302.464 219.555V219.555C301.538 222.22 299.591 224.407 297.052 225.637C294.514 226.866 291.591 227.037 288.926 226.111V226.111Z" stroke="#263238" stroke-linecap="round" stroke-linejoin="round"/>
<path d="M295.908 206.011L282.687 201.415L275.705 221.515L288.927 226.111C291.592 227.037 294.516 226.866 297.056 225.636C299.595 224.406 301.542 222.218 302.468 219.552C303.393 216.887 303.223 213.963 301.992 211.423C300.762 208.884 298.574 206.937 295.908 206.011V206.011Z" stroke="#263238" stroke-linecap="round" stroke-linejoin="round"/>
<path d="M292.685 235.072H295.979" stroke="#263238" stroke-linecap="round" stroke-linejoin="round"/>
<path d="M248.384 235.072H289.048" stroke="#263238" stroke-linecap="round" stroke-linejoin="round"/>
<path d="M248.384 242.35H295.978" stroke="#263238" stroke-linecap="round" stroke-linejoin="round"/>
<path d="M256.52 249.635H295.978" stroke="#263238" stroke-linecap="round" stroke-linejoin="round"/>
<path d="M248.384 249.635H251.742" stroke="#263238" stroke-linecap="round" stroke-linejoin="round"/>
<path d="M277.671 225.557H280.862" stroke="#263238" stroke-linecap="round" stroke-linejoin="round"/>
<path d="M246.702 200.918V225.557H273.578" stroke="#263238" stroke-linecap="round" stroke-linejoin="round"/>
<path d="M291.775 164.206H288.7" stroke="#263238" stroke-linecap="round" stroke-linejoin="round"/>
<path d="M299.338 203.716V164.206H295.412" stroke="#263238" stroke-linecap="round" stroke-linejoin="round"/>
<path d="M264.062 163.961H246.141V175.719" stroke="#263238" stroke-linecap="round" stroke-linejoin="round"/>
<path d="M197.747 242.943C195.233 245.715 185.944 246.108 177.795 246.076C169.647 246.044 159.294 241.441 155.832 236.497C152.37 231.552 159.358 221.463 160.583 219.123C161.808 216.783 162.298 205.289 169.318 201.918C176.338 198.546 191.12 200.3 195.923 203.852C200.726 207.404 210.847 213.612 212.497 219.755C214.147 225.899 208.39 225.969 207.9 226.266C207.411 226.563 206.611 226.853 205.373 229.199C204.997 229.885 204.454 230.464 203.793 230.882C203.132 231.3 202.376 231.544 201.596 231.591L197.747 242.943Z" fill="#263238" stroke="#263238" stroke-linecap="round" stroke-linejoin="round"/>
<path d="M205.336 217.879C210.003 219.11 213.072 220.612 210.745 222.25" stroke="#545454" stroke-linecap="round" stroke-linejoin="round"/>
<path d="M186.531 214.656C186.531 214.656 195.737 215.668 202.989 217.286" stroke="#545454" stroke-linecap="round" stroke-linejoin="round"/>
<path d="M182.56 213.147C182.56 213.147 194.376 209.209 205.593 214.056" stroke="#545454" stroke-linecap="round" stroke-linejoin="round"/>
<path d="M196.296 207.739C196.88 207.887 197.452 208.074 198.011 208.3" stroke="#545454" stroke-linecap="round" stroke-linejoin="round"/>
<path d="M178.317 211.935C178.317 211.935 185.454 207.043 193.035 207.288" stroke="#545454" stroke-linecap="round" stroke-linejoin="round"/>
<path d="M160.036 235.568C159.188 235.871 158.307 236.075 157.412 236.174" stroke="#545454" stroke-linecap="round" stroke-linejoin="round"/>
<path d="M181.374 218.298C181.374 218.298 172.89 226.782 167.436 231.326C165.856 232.662 164.112 233.79 162.247 234.685" stroke="#545454" stroke-linecap="round" stroke-linejoin="round"/>
<path d="M175.893 216.48C175.893 216.48 167.106 226.479 159.229 229.483" stroke="#545454" stroke-linecap="round" stroke-linejoin="round"/>
<path d="M256.798 332.962C256.798 332.962 259.834 335.702 260.234 336.482C260.634 337.262 262.123 340.588 261.575 340.672C261.027 340.756 259.705 338.635 259.312 337.745C258.919 336.855 257.378 334.522 257.378 334.522L256.798 332.962Z" fill="white" stroke="#263238" stroke-linecap="round" stroke-linejoin="round"/>
<path d="M254.895 331.034C254.895 331.034 256.99 332.968 257.389 333.748C257.789 334.528 259.658 341.568 259.658 341.568C259.658 341.568 258.756 342.29 258.124 341.942C257.492 341.594 255.281 334.638 255.281 334.638L254.895 331.034Z" fill="white" stroke="#263238" stroke-linecap="round" stroke-linejoin="round"/>
<path d="M250.132 327.998C250.132 327.998 253.961 330.016 254.896 331.034C255.831 332.053 257.313 340.491 257.61 341.265C257.906 342.038 256.134 342.612 255.715 342.271C255.296 341.929 253.574 334.561 253.574 334.561L250.119 328.978L250.132 327.998Z" fill="white" stroke="#263238" stroke-linecap="round" stroke-linejoin="round"/>
<path d="M241.043 327.063L248.289 327.205C248.906 327.218 249.511 327.374 250.058 327.661C250.605 327.947 251.078 328.356 251.441 328.855L254.484 333.084L255.006 341.497C255.01 341.602 254.993 341.707 254.955 341.805C254.918 341.903 254.86 341.992 254.786 342.067C254.713 342.142 254.624 342.201 254.527 342.241C254.429 342.28 254.325 342.299 254.219 342.296C254.057 342.287 253.902 342.227 253.775 342.125C253.648 342.024 253.555 341.885 253.51 341.729L251.402 334.122L248.637 332.833C248.637 332.833 244.401 335.154 244.492 335.592C244.582 336.03 246.954 338.963 247.47 339.634C247.986 340.304 249.243 341.452 248.888 342.09C248.534 342.728 246.387 342.09 245.665 341.619C244.943 341.149 241.004 336.198 239.528 335.173C238.052 334.148 236.466 333.078 236.466 333.078L241.043 327.063Z" fill="white" stroke="#263238" stroke-linecap="round" stroke-linejoin="round"/>
<path d="M239.746 329.01L238.76 334.457L237.109 333.136L239.746 329.01Z" fill="#263238" stroke="#263238" stroke-linecap="round" stroke-linejoin="round"/>
<path d="M208.448 258.55C208.448 258.55 214.965 260.291 215.881 264.545C216.796 268.8 220.825 310.708 220.825 310.708L242.421 324.742L235.884 334.831L215.378 330.802L203.368 257.203L208.448 258.55Z" fill="white" stroke="#263238" stroke-linecap="round" stroke-linejoin="round"/>
<path d="M220.826 310.708C220.826 310.708 217.97 312.217 216.958 313.571" stroke="#263238" stroke-linecap="round" stroke-linejoin="round"/>
<path d="M211.994 268.336L217.757 345.784L144.97 342.818C144.97 342.818 147.02 262.805 147.896 261.09C148.773 259.375 155.839 258.556 161.673 256.726C167.507 254.895 177.911 251.401 177.911 251.401L191.604 251.981C195.433 252.149 211.259 259.543 211.233 260.181" fill="white"/>
<path d="M211.994 268.336L217.757 345.784L144.97 342.818C144.97 342.818 147.02 262.805 147.896 261.09C148.773 259.375 155.839 258.556 161.673 256.726C167.507 254.895 177.911 251.401 177.911 251.401L191.604 251.981C195.433 252.149 211.259 259.543 211.233 260.181" stroke="#263238" stroke-linecap="round" stroke-linejoin="round"/>
<path d="M212.658 283.62H205.432V286.418H212.658V283.62Z" fill="#263238" stroke="#263238" stroke-linecap="round" stroke-linejoin="round"/>
<path d="M170.234 254.54L170.918 283.182L179.143 285.135L174.508 292.446L186.067 324.594" fill="white"/>
<path d="M170.234 254.54L170.918 283.182L179.143 285.135L174.508 292.446L186.067 324.594" stroke="#263238" stroke-linecap="round" stroke-linejoin="round"/>
<path d="M194.764 252.884C194.764 252.884 202.39 268.716 204.562 273.925C206.735 279.134 207.624 280.771 207.624 280.771L202.184 284.536L207.747 288.932L202.545 316.833" fill="white"/>
<path d="M194.764 252.884C194.764 252.884 202.39 268.716 204.562 273.925C206.735 279.134 207.624 280.771 207.624 280.771L202.184 284.536L207.747 288.932L202.545 316.833" stroke="#263238" stroke-linecap="round" stroke-linejoin="round"/>
<path d="M172.993 253.335C172.993 253.335 184.017 282.931 184.887 292.394C185.757 301.857 187.885 345.113 187.885 345.113L202.067 345.758C202.067 345.758 201.538 302.567 199.359 286.502C197.18 270.437 194.08 257.022 193.512 255.404C193.014 254.18 192.364 253.024 191.578 251.962L182.824 250.672L172.993 253.335Z" fill="#FA5087" stroke="#263238" stroke-linecap="round" stroke-linejoin="round"/>
<path d="M200.042 301.735L194.634 312.9" stroke="#263238" stroke-linecap="round" stroke-linejoin="round"/>
<path d="M198.012 301.735L190.237 317.974" stroke="#263238" stroke-linecap="round" stroke-linejoin="round"/>
<path d="M177.57 240.152C177.57 240.152 177.616 250.228 177.409 251.336C177.203 252.445 173.973 252.046 173.909 253.483C173.844 254.921 178.744 268.497 183.514 272.7C188.284 276.903 189.754 276.323 191.173 273.029C192.591 269.735 193.01 263.262 193.106 261.187C193.145 260.265 193.339 257.963 193.106 256.842C192.771 255.262 192.346 253.006 191.011 252.091L190.502 251.743L190.715 246.798C190.715 246.798 182.586 246.128 177.57 240.152Z" fill="white" stroke="#263238" stroke-linecap="round" stroke-linejoin="round"/>
<path d="M190.495 251.743L190.707 246.798C190.707 246.798 182.585 246.153 177.569 240.152V240.216L177.905 241.763C177.905 241.763 181.063 251.053 191.004 252.078L190.495 251.743Z" fill="#263238" stroke="#263238" stroke-linecap="round" stroke-linejoin="round"/>
<path d="M185.343 215.713C185.343 215.713 176.318 212.928 175.925 211.632C175.532 210.337 175.964 207.159 174.816 207.765C173.669 208.371 173.824 212.193 175.371 213.379C176.918 214.566 185.479 216.216 186.065 217.518C186.652 218.82 185.808 219.742 182.926 223.455C180.044 227.168 167.506 232.706 167.448 233.995C167.39 235.285 168.821 239.153 171.052 239.423C172.463 239.547 173.876 239.217 175.087 238.482C176.655 241.463 178.97 243.986 181.804 245.805C186.317 248.558 192.828 249.635 196.779 246.933C198.939 245.451 202.749 238.237 203.039 235.214C203.329 232.19 201.717 228.767 201.75 227.478C201.782 226.189 201.872 224.609 201.872 224.609C201.872 224.609 190.636 218.369 189.095 217.022C188.023 216.184 186.704 215.724 185.343 215.713Z" fill="white" stroke="#263238" stroke-linecap="round" stroke-linejoin="round"/>
<path d="M183.41 224.583C183.41 224.583 186.633 222.521 189.857 224.139" stroke="#263238" stroke-linecap="round" stroke-linejoin="round"/>
<path d="M196.077 224.287C196.077 224.287 198.134 223.255 200.068 225.615" stroke="#263238" stroke-linecap="round" stroke-linejoin="round"/>
<path d="M194.317 229.85C194.317 229.85 194.066 232.074 194.678 232.584C195.29 233.093 196.56 233.46 195.883 234.395C195.207 235.33 193.118 235.394 192.209 234.234" stroke="#263238" stroke-linecap="round" stroke-linejoin="round"/>
<path d="M197.013 237.799C197.013 237.799 194.377 239.604 190.135 237.979" stroke="#263238" stroke-linecap="round" stroke-linejoin="round"/>
<path d="M187.505 229.444C187.466 230.327 186.931 231.024 186.319 230.991C185.706 230.959 185.229 230.231 185.268 229.347C185.307 228.464 185.835 227.774 186.454 227.8C187.073 227.826 187.543 228.567 187.505 229.444Z" fill="#263238"/>
<path d="M198.831 229.934C198.792 230.817 198.257 231.514 197.645 231.481C197.032 231.449 196.555 230.721 196.594 229.837C196.633 228.954 197.168 228.264 197.78 228.29C198.393 228.316 198.87 229.057 198.831 229.934Z" fill="#263238"/>
<path d="M190.555 225.86L182.762 225.522C181.83 225.482 181.041 226.204 181.001 227.136L180.871 230.144C180.831 231.076 181.553 231.864 182.485 231.905L190.278 232.242C191.21 232.282 191.998 231.56 192.039 230.628L192.169 227.62C192.209 226.688 191.486 225.9 190.555 225.86Z" stroke="#263238" stroke-linecap="round" stroke-linejoin="round"/>
<path d="M202.201 226.369L196.006 226.101C195.074 226.061 194.286 226.783 194.245 227.715L194.115 230.723C194.075 231.655 194.797 232.443 195.729 232.483L201.925 232.752C202.857 232.792 203.645 232.069 203.686 231.137L203.816 228.13C203.856 227.198 203.133 226.41 202.201 226.369Z" stroke="#263238" stroke-linecap="round" stroke-linejoin="round"/>
<path d="M192.216 226.724L194.13 226.808" stroke="#263238" stroke-linecap="round" stroke-linejoin="round"/>
<path d="M180.962 228.316L176.494 228.123" stroke="#263238" stroke-linecap="round" stroke-linejoin="round"/>
<path d="M184.655 323.273C184.655 323.273 189.342 323.066 191.005 322.325C192.668 321.584 204.388 318.457 204.987 318.657C206.988 319.482 208.927 320.449 210.789 321.551C211.737 322.248 213.774 327.798 214.548 329.996C214.642 330.24 214.639 330.51 214.538 330.751C214.436 330.991 214.246 331.183 214.006 331.286C213.782 331.39 213.527 331.408 213.29 331.338C213.052 331.268 212.849 331.114 212.717 330.905L211.028 328.198L212.246 333.265C212.313 333.53 212.277 333.812 212.144 334.051C212.011 334.291 211.791 334.471 211.531 334.554C211.323 334.622 211.1 334.625 210.891 334.564C210.682 334.504 210.496 334.381 210.357 334.212L206.386 329.307L204.452 327.373L208.514 334.915C208.587 335.053 208.627 335.207 208.63 335.364C208.633 335.52 208.599 335.675 208.53 335.816C208.461 335.957 208.361 336.079 208.236 336.174C208.111 336.268 207.965 336.332 207.811 336.359C207.657 336.385 207.5 336.374 207.351 336.329C207.202 336.283 207.066 336.203 206.954 336.095C205.787 334.96 202.177 331.447 201.861 330.938C201.211 330.167 200.493 329.457 199.714 328.817L203.659 336.307C203.732 336.411 203.781 336.53 203.803 336.654C203.825 336.779 203.82 336.907 203.789 337.029C203.757 337.152 203.699 337.266 203.619 337.364C203.538 337.462 203.438 337.541 203.324 337.597H203.266C201.925 337.648 201.248 336.694 200.288 335.753L196.136 331.692C196.136 331.692 189.774 333.039 187.962 332.556C186.151 332.072 182.019 328.842 182.019 328.842L184.655 323.273Z" fill="white" stroke="#263238" stroke-linecap="round" stroke-linejoin="round"/>
<path d="M184.655 323.273L184.475 330.493L181.974 328.849L184.655 323.273Z" fill="#263238" stroke="#263238" stroke-linecap="round" stroke-linejoin="round"/>
<path d="M211.001 328.198L209.576 325.316L204.548 321.642" fill="white"/>
<path d="M211.001 328.198L209.576 325.316L204.548 321.642" stroke="#263238" stroke-linecap="round" stroke-linejoin="round"/>
<path d="M204.407 327.379L202.125 324.994" stroke="#263238" stroke-linecap="round" stroke-linejoin="round"/>
<path d="M154.679 259.336C154.679 259.336 148.387 259.066 146.659 261.432C144.932 263.797 140.909 320.062 141.006 322.506C141.102 324.949 179.884 334.857 179.884 334.857L185.486 322.899L162.324 309.194L163.671 277.219" fill="white"/>
<path d="M154.679 259.336C154.679 259.336 148.387 259.066 146.659 261.432C144.932 263.797 140.909 320.062 141.006 322.506C141.102 324.949 179.884 334.857 179.884 334.857L185.486 322.899L162.324 309.194L163.671 277.219" stroke="#263238" stroke-linecap="round" stroke-linejoin="round"/>
<path d="M152.016 309.516C152.016 309.516 158.088 306.499 162.33 309.193" stroke="#263238" stroke-linecap="round" stroke-linejoin="round"/>
<path d="M154.414 311.418C156.321 310.265 158.503 309.646 160.732 309.625" stroke="#263238" stroke-linecap="round" stroke-linejoin="round"/>
<path d="M151.392 314.402C151.533 314.151 151.695 313.912 151.875 313.687" stroke="#263238" stroke-linecap="round" stroke-linejoin="round"/>
<path d="M302.309 325.845C302.309 325.845 299.427 322.183 299.427 319.959C299.427 317.735 301.651 321.01 301.651 321.01C301.651 321.01 296.946 312.378 297.339 308.845C297.732 305.313 301.258 314.995 301.258 314.995C301.258 314.995 300.085 295.121 302.045 295.772C304.004 296.423 306.493 315.111 306.493 316.304C306.493 317.497 308.188 308.065 309.497 310.812C310.805 313.558 310.786 320.095 310.786 320.095C310.786 320.095 312.488 310.154 313.797 313.558C315.105 316.962 312.237 325.974 312.237 325.974" fill="#FA5087"/>
<path d="M315.517 328.868H299.601V342.077H315.517V328.868Z" stroke="#263238" stroke-linecap="round" stroke-linejoin="round"/>
<path d="M315.646 333.445V325.935H299.529V334.561C299.529 335.073 299.733 335.565 300.096 335.928C300.458 336.291 300.95 336.495 301.463 336.495H301.566C302.079 336.495 302.571 336.291 302.934 335.928C303.297 335.565 303.5 335.073 303.5 334.561V333.471H303.603V334.561C303.603 335.073 303.807 335.565 304.17 335.928C304.533 336.291 305.024 336.495 305.537 336.495H305.641C306.153 336.495 306.645 336.291 307.008 335.928C307.371 335.565 307.574 335.073 307.574 334.561V333.471H307.678V334.561C307.678 335.073 307.881 335.565 308.244 335.928C308.607 336.291 309.099 336.495 309.612 336.495H309.708C310.221 336.495 310.713 336.291 311.076 335.928C311.438 335.565 311.642 335.073 311.642 334.561V333.471H311.745V334.561C311.745 335.073 311.949 335.565 312.312 335.928C312.675 336.291 313.166 336.495 313.679 336.495H313.776C314.289 336.495 314.781 336.291 315.144 335.928C315.506 335.565 315.71 335.073 315.71 334.561V333.471L315.646 333.445Z" fill="white" stroke="#263238" stroke-linecap="round" stroke-linejoin="round"/>
<path d="M122.2 332.22V326.67H110.067V332.014L122.2 332.22Z" fill="#BFBFBF" stroke="#263238" stroke-linecap="round" stroke-linejoin="round"/>
<path d="M110.067 326.67L108.836 323.788C111.241 323.569 113.666 323.708 116.03 324.201C118.226 324.62 120.321 325.458 122.2 326.67H110.067Z" fill="white" stroke="#263238" stroke-linecap="round" stroke-linejoin="round"/>
<path d="M108.838 323.788C108.838 323.788 104.725 323.995 102.462 326.876C101.054 328.802 100.2 331.076 99.9932 333.452L110.069 332.014V326.67L108.838 323.788Z" fill="white" stroke="#263238" stroke-linecap="round" stroke-linejoin="round"/>
<path d="M106.78 328.52V332.627L103.692 332.833C103.608 331.697 103.831 330.559 104.337 329.539C104.545 329.096 104.911 328.747 105.362 328.559C105.814 328.371 106.319 328.357 106.78 328.52Z" fill="white" stroke="#263238" stroke-linecap="round" stroke-linejoin="round"/>
<path d="M109.656 344.353H103.287L99.1738 337.152L107.193 335.102L109.656 344.353Z" fill="white" stroke="#263238" stroke-linecap="round" stroke-linejoin="round"/>
<path d="M137.414 336.54L133.301 344.353H109.655L106.161 337.565L137.414 336.54Z" fill="#A6A6A6" stroke="#263238" stroke-linecap="round" stroke-linejoin="round"/>
<path d="M106.169 337.571H138.652V331.814H106.169V337.571Z" fill="#BFBFBF" stroke="#263238" stroke-linecap="round" stroke-linejoin="round"/>
<path d="M106.162 331.808L98.5547 334.483V337.977L106.162 337.565V331.808Z" fill="white" stroke="#263238" stroke-linecap="round" stroke-linejoin="round"/>
<path d="M190.476 340.601L232.114 339.969L236.382 339.273H279.805L278.381 342.2H189.406L190.476 340.601Z" fill="#263238" stroke="#263238" stroke-linecap="round" stroke-linejoin="round"/>
<path d="M288.894 329.706H235.504L242.988 276.001H296.372L288.894 329.706Z" fill="#263238" stroke="#263238" stroke-linecap="round" stroke-linejoin="round"/>
<path d="M291.279 329.706H237.89L245.374 276.001H298.764L291.279 329.706Z" fill="#3D3D3D" stroke="#263238" stroke-linecap="round" stroke-linejoin="round"/>
<path d="M275.286 312.965H258.545L261.362 292.749H278.104L275.286 312.965Z" fill="#3D3D3D" stroke="#263238" stroke-linecap="round" stroke-linejoin="round"/>
<path d="M261.362 292.749L245.375 276.001H298.765L278.104 292.749H261.362Z" fill="#595959" stroke="#263238" stroke-linecap="round" stroke-linejoin="round"/>
<path d="M258.546 312.965L239.077 329.532L291.281 329.706L275.287 312.965H258.546Z" fill="#2E2E2E" stroke="#263238" stroke-linecap="round" stroke-linejoin="round"/>
<path d="M270.457 316.646C275.99 316.646 280.475 312.161 280.475 306.628C280.475 301.095 275.99 296.61 270.457 296.61C264.925 296.61 260.439 301.095 260.439 306.628C260.439 312.161 264.925 316.646 270.457 316.646Z" fill="#263238" stroke="#263238" stroke-linecap="round" stroke-linejoin="round"/>
<path d="M271.374 301.548H272.018C273.752 301.548 275.415 302.237 276.64 303.463C277.866 304.688 278.555 306.351 278.555 308.085V343.54H264.837V308.085C264.837 306.351 265.526 304.688 266.751 303.463C267.977 302.237 269.64 301.548 271.374 301.548Z" fill="#595959" stroke="#263238" stroke-linecap="round" stroke-linejoin="round"/>
<path d="M278.554 343.534V308.407C278.372 306.879 277.591 305.485 276.381 304.533C275.171 303.581 273.633 303.148 272.105 303.331C270.576 303.513 269.183 304.294 268.231 305.504C267.279 306.714 266.846 308.252 267.028 309.78V343.534H278.554Z" fill="#595959" stroke="#263238" stroke-linecap="round" stroke-linejoin="round"/>
<path d="M273.83 325.967H273.669C272.729 325.967 271.967 326.729 271.967 327.669V333.323C271.967 334.263 272.729 335.025 273.669 335.025H273.83C274.77 335.025 275.532 334.263 275.532 333.323V327.669C275.532 326.729 274.77 325.967 273.83 325.967Z" fill="#263238" stroke="#263238" stroke-linecap="round" stroke-linejoin="round"/>
<path d="M278.825 340.24H253.581V343.534H278.825V340.24Z" fill="#595959" stroke="#263238" stroke-linecap="round" stroke-linejoin="round"/>
<path d="M322.132 342.161H20.1143V347.924H322.132V342.161Z" fill="#263238" stroke="#263238" stroke-linecap="round" stroke-linejoin="round"/>
</g>
<defs>
<clipPath id="clip0_36_6150">
<rect width="347" height="362" fill="white"/>
</clipPath>
</defs>
</svg>
