<svg width="347" height="362" viewBox="0 0 347 362" fill="none" xmlns="http://www.w3.org/2000/svg">
<rect width="347" height="362" fill="#F3A712" fill-opacity="0.2"/>
<path d="M68.2727 35V20.4545H74.2812C75.3703 20.4545 76.3101 20.6676 77.1009 21.0938C77.8963 21.5152 78.5095 22.1046 78.9403 22.8622C79.3712 23.6151 79.5866 24.491 79.5866 25.4901C79.5866 26.4938 79.3665 27.3722 78.9261 28.125C78.4905 28.8731 77.8679 29.4531 77.0582 29.8651C76.2486 30.277 75.2874 30.483 74.1747 30.483H70.4673V27.7131H73.5213C74.0516 27.7131 74.4943 27.6207 74.8494 27.4361C75.2093 27.2514 75.4815 26.9934 75.6662 26.6619C75.8509 26.3258 75.9432 25.9351 75.9432 25.4901C75.9432 25.0402 75.8509 24.652 75.6662 24.3253C75.4815 23.9938 75.2093 23.7382 74.8494 23.5582C74.4896 23.3783 74.0469 23.2884 73.5213 23.2884H71.7884V35H68.2727ZM81.8196 35V20.4545H85.3352V26.2926H91.0668V20.4545H94.5753V35H91.0668V29.1548H85.3352V35H81.8196ZM96.5561 20.4545H100.484L103.559 26.5412H103.687L106.762 20.4545H110.69L105.37 30.142V35H101.876V30.142L96.5561 20.4545ZM120.526 24.8153C120.478 24.2945 120.268 23.8897 119.893 23.6009C119.524 23.3073 118.996 23.1605 118.31 23.1605C117.855 23.1605 117.476 23.2197 117.173 23.3381C116.87 23.4564 116.643 23.6198 116.491 23.8281C116.34 24.0317 116.262 24.2661 116.257 24.5312C116.248 24.7491 116.29 24.9408 116.385 25.1065C116.484 25.2723 116.626 25.419 116.811 25.5469C117 25.67 117.228 25.7789 117.493 25.8736C117.758 25.9683 118.056 26.0511 118.388 26.1222L119.638 26.4062C120.357 26.5625 120.992 26.7708 121.541 27.0312C122.095 27.2917 122.559 27.6018 122.933 27.9616C123.312 28.3215 123.598 28.7358 123.793 29.2045C123.987 29.6733 124.086 30.1989 124.091 30.7812C124.086 31.6998 123.854 32.4882 123.395 33.1463C122.936 33.8045 122.275 34.3087 121.413 34.6591C120.556 35.0095 119.522 35.1847 118.31 35.1847C117.093 35.1847 116.032 35.0024 115.128 34.6378C114.223 34.2732 113.52 33.7192 113.018 32.9759C112.517 32.2325 112.259 31.2926 112.244 30.1562H115.611C115.639 30.625 115.765 31.0156 115.987 31.3281C116.21 31.6406 116.515 31.8774 116.903 32.0384C117.296 32.1993 117.751 32.2798 118.267 32.2798C118.741 32.2798 119.143 32.2159 119.474 32.0881C119.811 31.9602 120.069 31.7827 120.249 31.5554C120.429 31.3281 120.521 31.0677 120.526 30.7741C120.521 30.4995 120.436 30.2652 120.27 30.071C120.104 29.8722 119.848 29.7017 119.503 29.5597C119.162 29.4129 118.726 29.2779 118.196 29.1548L116.676 28.7997C115.417 28.5109 114.425 28.0445 113.7 27.4006C112.976 26.7519 112.616 25.8759 112.621 24.7727C112.616 23.8731 112.857 23.0848 113.345 22.4077C113.833 21.7306 114.508 21.2027 115.369 20.8239C116.231 20.4451 117.214 20.2557 118.317 20.2557C119.444 20.2557 120.421 20.4474 121.25 20.831C122.083 21.2098 122.73 21.7424 123.189 22.429C123.648 23.1155 123.883 23.911 123.892 24.8153H120.526ZM129.882 20.4545V35H126.366V20.4545H129.882ZM146.318 27.7273C146.318 29.3277 146.01 30.6842 145.395 31.7969C144.779 32.9096 143.946 33.7547 142.895 34.3324C141.848 34.91 140.674 35.1989 139.372 35.1989C138.065 35.1989 136.888 34.9077 135.842 34.3253C134.796 33.7429 133.965 32.8977 133.349 31.7898C132.738 30.6771 132.433 29.3229 132.433 27.7273C132.433 26.1269 132.738 24.7704 133.349 23.6577C133.965 22.545 134.796 21.6998 135.842 21.1222C136.888 20.5445 138.065 20.2557 139.372 20.2557C140.674 20.2557 141.848 20.5445 142.895 21.1222C143.946 21.6998 144.779 22.545 145.395 23.6577C146.01 24.7704 146.318 26.1269 146.318 27.7273ZM142.724 27.7273C142.724 26.7803 142.589 25.9801 142.319 25.3267C142.054 24.6733 141.671 24.1785 141.169 23.8423C140.672 23.5062 140.073 23.3381 139.372 23.3381C138.676 23.3381 138.077 23.5062 137.575 23.8423C137.073 24.1785 136.687 24.6733 136.417 25.3267C136.152 25.9801 136.02 26.7803 136.02 27.7273C136.02 28.6742 136.152 29.4744 136.417 30.1278C136.687 30.7812 137.073 31.276 137.575 31.6122C138.077 31.9484 138.676 32.1165 139.372 32.1165C140.073 32.1165 140.672 31.9484 141.169 31.6122C141.671 31.276 142.054 30.7812 142.319 30.1278C142.589 29.4744 142.724 28.6742 142.724 27.7273ZM147.73 23.3097V20.4545H160.025V23.3097H155.614V35H152.148V23.3097H147.73ZM162.241 35V20.4545H165.757V26.2926H171.489V20.4545H174.997V35H171.489V29.1548H165.757V35H162.241ZM177.702 35V20.4545H187.844V23.3097H181.218V26.2926H187.326V29.1548H181.218V32.1449H187.844V35H177.702ZM190.546 35V20.4545H196.555C197.644 20.4545 198.584 20.651 199.374 21.044C200.17 21.4323 200.783 21.991 201.214 22.7202C201.645 23.4446 201.86 24.304 201.86 25.2983C201.86 26.3068 201.64 27.1638 201.2 27.8693C200.759 28.5701 200.134 29.1051 199.325 29.4744C198.515 29.839 197.556 30.0213 196.448 30.0213H192.648V27.2514H195.795C196.325 27.2514 196.768 27.1828 197.123 27.0455C197.483 26.9034 197.755 26.6903 197.94 26.4062C198.124 26.1174 198.217 25.7481 198.217 25.2983C198.217 24.8485 198.124 24.4768 197.94 24.1832C197.755 23.8849 197.483 23.6624 197.123 23.5156C196.763 23.3641 196.32 23.2884 195.795 23.2884H194.062V35H190.546ZM198.735 28.3523L202.357 35H198.522L194.971 28.3523H198.735ZM207.435 35H203.656L208.564 20.4545H213.244L218.152 35H214.374L210.957 24.1193H210.844L207.435 35ZM206.93 29.2756H214.828V31.946H206.93V29.2756ZM220.218 35V20.4545H226.227C227.316 20.4545 228.255 20.6676 229.046 21.0938C229.842 21.5152 230.455 22.1046 230.886 22.8622C231.317 23.6151 231.532 24.491 231.532 25.4901C231.532 26.4938 231.312 27.3722 230.871 28.125C230.436 28.8731 229.813 29.4531 229.004 29.8651C228.194 30.277 227.233 30.483 226.12 30.483H222.413V27.7131H225.467C225.997 27.7131 226.44 27.6207 226.795 27.4361C227.155 27.2514 227.427 26.9934 227.612 26.6619C227.796 26.3258 227.888 25.9351 227.888 25.4901C227.888 25.0402 227.796 24.652 227.612 24.3253C227.427 23.9938 227.155 23.7382 226.795 23.5582C226.435 23.3783 225.992 23.2884 225.467 23.2884H223.734V35H220.218ZM237.281 20.4545V35H233.765V20.4545H237.281ZM247.85 24.8153C247.802 24.2945 247.592 23.8897 247.218 23.6009C246.848 23.3073 246.32 23.1605 245.634 23.1605C245.179 23.1605 244.801 23.2197 244.498 23.3381C244.194 23.4564 243.967 23.6198 243.816 23.8281C243.664 24.0317 243.586 24.2661 243.581 24.5312C243.572 24.7491 243.614 24.9408 243.709 25.1065C243.809 25.2723 243.951 25.419 244.135 25.5469C244.325 25.67 244.552 25.7789 244.817 25.8736C245.082 25.9683 245.381 26.0511 245.712 26.1222L246.962 26.4062C247.682 26.5625 248.316 26.7708 248.865 27.0312C249.419 27.2917 249.883 27.6018 250.257 27.9616C250.636 28.3215 250.923 28.7358 251.117 29.2045C251.311 29.6733 251.41 30.1989 251.415 30.7812C251.41 31.6998 251.178 32.4882 250.719 33.1463C250.26 33.8045 249.599 34.3087 248.738 34.6591C247.881 35.0095 246.846 35.1847 245.634 35.1847C244.417 35.1847 243.356 35.0024 242.452 34.6378C241.548 34.2732 240.845 33.7192 240.343 32.9759C239.841 32.2325 239.583 31.2926 239.569 30.1562H242.935C242.963 30.625 243.089 31.0156 243.311 31.3281C243.534 31.6406 243.839 31.8774 244.228 32.0384C244.621 32.1993 245.075 32.2798 245.591 32.2798C246.065 32.2798 246.467 32.2159 246.799 32.0881C247.135 31.9602 247.393 31.7827 247.573 31.5554C247.753 31.3281 247.845 31.0677 247.85 30.7741C247.845 30.4995 247.76 30.2652 247.594 30.071C247.428 29.8722 247.173 29.7017 246.827 29.5597C246.486 29.4129 246.051 29.2779 245.52 29.1548L244 28.7997C242.741 28.5109 241.749 28.0445 241.025 27.4006C240.3 26.7519 239.94 25.8759 239.945 24.7727C239.94 23.8731 240.182 23.0848 240.669 22.4077C241.157 21.7306 241.832 21.2027 242.694 20.8239C243.555 20.4451 244.538 20.2557 245.641 20.2557C246.768 20.2557 247.746 20.4474 248.574 20.831C249.408 21.2098 250.054 21.7424 250.513 22.429C250.972 23.1155 251.207 23.911 251.216 24.8153H247.85ZM253.215 23.3097V20.4545H265.509V23.3097H261.098V35H257.632V23.3097H253.215ZM275.588 24.8153C275.541 24.2945 275.33 23.8897 274.956 23.6009C274.587 23.3073 274.059 23.1605 273.372 23.1605C272.918 23.1605 272.539 23.2197 272.236 23.3381C271.933 23.4564 271.705 23.6198 271.554 23.8281C271.402 24.0317 271.324 24.2661 271.32 24.5312C271.31 24.7491 271.353 24.9408 271.447 25.1065C271.547 25.2723 271.689 25.419 271.874 25.5469C272.063 25.67 272.29 25.7789 272.555 25.8736C272.821 25.9683 273.119 26.0511 273.45 26.1222L274.7 26.4062C275.42 26.5625 276.054 26.7708 276.604 27.0312C277.158 27.2917 277.622 27.6018 277.996 27.9616C278.375 28.3215 278.661 28.7358 278.855 29.2045C279.049 29.6733 279.149 30.1989 279.153 30.7812C279.149 31.6998 278.917 32.4882 278.457 33.1463C277.998 33.8045 277.338 34.3087 276.476 34.6591C275.619 35.0095 274.584 35.1847 273.372 35.1847C272.155 35.1847 271.095 35.0024 270.19 34.6378C269.286 34.2732 268.583 33.7192 268.081 32.9759C267.579 32.2325 267.321 31.2926 267.307 30.1562H270.673C270.702 30.625 270.827 31.0156 271.05 31.3281C271.272 31.6406 271.578 31.8774 271.966 32.0384C272.359 32.1993 272.813 32.2798 273.33 32.2798C273.803 32.2798 274.205 32.2159 274.537 32.0881C274.873 31.9602 275.131 31.7827 275.311 31.5554C275.491 31.3281 275.583 31.0677 275.588 30.7741C275.583 30.4995 275.498 30.2652 275.332 30.071C275.167 29.8722 274.911 29.7017 274.565 29.5597C274.224 29.4129 273.789 29.2779 273.259 29.1548L271.739 28.7997C270.479 28.5109 269.487 28.0445 268.763 27.4006C268.038 26.7519 267.679 25.8759 267.683 24.7727C267.679 23.8731 267.92 23.0848 268.408 22.4077C268.895 21.7306 269.57 21.2027 270.432 20.8239C271.294 20.4451 272.276 20.2557 273.379 20.2557C274.506 20.2557 275.484 20.4474 276.312 20.831C277.146 21.2098 277.792 21.7424 278.251 22.429C278.711 23.1155 278.945 23.911 278.955 24.8153H275.588Z" fill="#676767"/>
<path opacity="0.1" d="M52 47.5H287.646" stroke="#0080FF"/>
<path d="M32.9014 320.121H310.478" stroke="#263238" stroke-linecap="round" stroke-linejoin="round"/>
<path opacity="0.2" d="M267.204 215.307H248.045V223.062H267.204V215.307Z" fill="black"/>
<path opacity="0.2" d="M259.909 187.711H240.75V195.466H259.909V187.711Z" fill="black"/>
<path opacity="0.2" d="M190.581 215.078H171.423V222.833H190.581V215.078Z" fill="black"/>
<path opacity="0.2" d="M218.402 161.126H199.243V168.881H218.402V161.126Z" fill="black"/>
<path opacity="0.2" d="M239.384 161.126H220.226V168.881H239.384V161.126Z" fill="black"/>
<path opacity="0.2" d="M157.744 272.411H138.585V280.166H157.744V272.411Z" fill="black"/>
<path opacity="0.2" d="M147.711 281.99H128.553V289.745H147.711V281.99Z" fill="black"/>
<path opacity="0.1" d="M249.416 198.432H230.258V206.187H249.416V198.432Z" fill="black"/>
<path opacity="0.1" d="M278.149 241.985H258.99V249.741H278.149V241.985Z" fill="black"/>
<path opacity="0.1" d="M165.951 253.848H146.792V261.603H165.951V253.848Z" fill="black"/>
<path opacity="0.1" d="M187.846 253.848H168.688V261.603H187.846V253.848Z" fill="black"/>
<path opacity="0.1" d="M189.67 242.897H170.512V250.652H189.67V242.897Z" fill="black"/>
<path opacity="0.1" d="M271.305 198.432H252.146V206.187H271.305V198.432Z" fill="black"/>
<path opacity="0.2" d="M214.294 281.208H195.136V288.964H214.294V281.208Z" fill="black"/>
<path opacity="0.1" d="M203.809 291.929H184.65V299.684H203.809V291.929Z" fill="black"/>
<path opacity="0.1" d="M225.698 291.929H206.539V299.684H225.698V291.929Z" fill="black"/>
<path opacity="0.2" d="M121.436 184.708H102.277V192.463H121.436V184.708Z" fill="black"/>
<path opacity="0.1" d="M110.945 195.423H91.7861V203.178H110.945V195.423Z" fill="black"/>
<path opacity="0.1" d="M132.833 195.423H113.675V203.178H132.833V195.423Z" fill="black"/>
<path opacity="0.2" d="M113.959 242.444H94.8008V250.2H113.959V242.444Z" fill="black"/>
<path opacity="0.1" d="M198.79 205.368H179.632V213.123H198.79V205.368Z" fill="black"/>
<path opacity="0.1" d="M170.059 281.537H150.9V289.292H170.059V281.537Z" fill="black"/>
<path opacity="0.1" d="M229.346 151.552H210.188V159.308H229.346V151.552Z" fill="black"/>
<path opacity="0.2" d="M103.009 216.771H83.8506V224.527H103.009V216.771Z" fill="black"/>
<path opacity="0.1" d="M113.959 207.192H94.8008V214.947H113.959V207.192Z" fill="black"/>
<path opacity="0.1" d="M162.756 160.573H143.598V168.329H162.756V160.573Z" fill="black"/>
<path opacity="0.2" d="M229.346 215.307H210.188V223.062H229.346V215.307Z" fill="black"/>
<path opacity="0.2" d="M156.415 107.931H137.257V115.686H156.415V107.931Z" fill="black"/>
<path opacity="0.1" d="M79.0239 162.869H59.8652V170.624H79.0239V162.869Z" fill="black"/>
<path opacity="0.1" d="M102.911 169.557H83.752V177.313H102.911V169.557Z" fill="black"/>
<path opacity="0.1" d="M56.0932 177.201H36.9346V184.956H56.0932V177.201Z" fill="black"/>
<path opacity="0.1" d="M90.6996 177.548H71.541V185.303H90.6996V177.548Z" fill="black"/>
<path opacity="0.2" d="M144.695 118.8H125.536V126.556H144.695V118.8Z" fill="black"/>
<path d="M106.119 101.714H47.1475V154.686H106.119V101.714Z" stroke="#263238" stroke-linecap="round" stroke-linejoin="round"/>
<path d="M88.9642 117.125H64.3086V139.274H88.9642V117.125Z" stroke="#263238" stroke-width="3" stroke-linecap="round" stroke-linejoin="round"/>
<path d="M64.3086 139.064C64.3086 139.064 65.8224 145.001 66.8833 149.859C67.9443 154.717 67.5038 157.428 67.5038 157.428" stroke="#263238" stroke-linecap="round" stroke-linejoin="round"/>
<path d="M67.1191 138.549C68.2455 142.105 69.155 145.727 69.8428 149.394C70.32 152.08 70.5958 154.799 70.668 157.527" stroke="#263238" stroke-linecap="round" stroke-linejoin="round"/>
<path d="M71.4922 138.269C71.4922 138.269 73.5024 147.805 73.856 150.796C74.0814 152.937 74.1994 155.089 74.2096 157.242" stroke="#263238" stroke-linecap="round" stroke-linejoin="round"/>
<path d="M88.8704 139.064C88.8704 139.064 87.3566 145.001 86.2647 149.84C85.1727 154.68 85.6442 157.409 85.6442 157.409" stroke="#263238" stroke-linecap="round" stroke-linejoin="round"/>
<path d="M86.0536 138.549C84.9275 142.105 84.02 145.727 83.3361 149.394C82.8693 152.081 82.6039 154.8 82.542 157.527" stroke="#263238" stroke-linecap="round" stroke-linejoin="round"/>
<path d="M81.6803 138.269C81.6803 138.269 79.6764 147.805 79.3165 150.796C79.0912 152.937 78.9731 155.089 78.9629 157.242" stroke="#263238" stroke-linecap="round" stroke-linejoin="round"/>
<path d="M75.9844 138.927C76.5172 142.364 76.8734 145.827 77.0515 149.301C77.1694 153.6 76.9336 157.242 76.9336 157.242" stroke="#263238" stroke-linecap="round" stroke-linejoin="round"/>
<path d="M64.6367 140.608C64.6367 140.608 73.7383 149.766 76.6977 155.654" stroke="#263238" stroke-linecap="round" stroke-linejoin="round"/>
<path d="M66.4111 147.712C69.2283 150.442 71.8742 153.343 74.3339 156.398" stroke="#263238" stroke-linecap="round" stroke-linejoin="round"/>
<path d="M67.4785 154.344C68.7111 154.771 69.7902 155.553 70.5806 156.59" stroke="#263238" stroke-linecap="round" stroke-linejoin="round"/>
<path d="M67.4785 139.672C67.4785 139.672 78.1125 151.081 82.6044 156.218" stroke="#263238" stroke-linecap="round" stroke-linejoin="round"/>
<path d="M72.6777 139.206C72.6777 139.206 81.4257 148.271 85.5577 155.561" stroke="#263238" stroke-linecap="round" stroke-linejoin="round"/>
<path d="M77.6416 139.113C77.6416 139.113 83.6721 143.692 86.2717 149.04" stroke="#263238" stroke-linecap="round" stroke-linejoin="round"/>
<path d="M83.0752 139.578C83.0752 139.578 86.5061 143.04 87.3313 144.815" stroke="#263238" stroke-linecap="round" stroke-linejoin="round"/>
<path d="M90.7938 137.029H63.1416V139.696H90.7938V137.029Z" fill="#263238" stroke="#263238" stroke-linecap="round" stroke-linejoin="round"/>
<path d="M55.2186 154.667H51.3037V164.83H55.2186V154.667Z" fill="#263238" stroke="#263238" stroke-linecap="round" stroke-linejoin="round"/>
<path d="M101.359 154.667H97.4443V164.83H101.359V154.667Z" fill="#263238" stroke="#263238" stroke-linecap="round" stroke-linejoin="round"/>
<path d="M256.879 286.836C256.879 286.836 257.45 313.688 257.165 315.965C256.639 319.258 256.448 322.596 256.594 325.928C256.879 329.918 257.63 341.948 257.63 341.948C256.933 343.279 256.312 344.648 255.769 346.049C254.571 348.952 249.105 350.832 250.129 353.91C251.153 356.987 254.23 356.981 257.475 355.616C260.72 354.251 261.576 352.712 262.773 350.652C263.971 348.593 265.844 348.257 266.359 346.036C266.874 343.815 265.739 342.562 265.881 339.714C266.024 336.867 267.284 329.477 267.854 324.638C268.425 319.799 267.712 316.237 267.997 313.532C268.282 310.827 269.703 290.099 269.703 289.671C269.703 289.243 256.879 286.836 256.879 286.836Z" fill="white" stroke="#263238" stroke-linecap="round" stroke-linejoin="round"/>
<path d="M262.736 350.665C263.928 348.611 265.807 348.27 266.322 346.049C266.639 344.659 265.907 342.227 265.745 340.341C264.84 341.425 263.653 342.239 262.314 342.692C262.314 342.692 261.638 340.08 259.616 340.161C257.593 340.241 257.605 341.948 257.605 341.948C256.909 343.279 256.287 344.648 255.744 346.049C254.547 348.952 249.081 350.832 250.105 353.909C251.128 356.987 254.206 356.98 257.45 355.615C260.695 354.251 261.539 352.718 262.736 350.665Z" fill="white" stroke="#263238" stroke-linecap="round" stroke-linejoin="round"/>
<path d="M262.736 348.934C261.049 351.459 260.205 353.736 255.818 354.834C254.722 355.154 253.548 355.071 252.507 354.601C251.466 354.132 250.627 353.305 250.142 352.271C249.926 352.793 249.908 353.376 250.092 353.909C251.116 356.98 254.193 356.98 257.438 355.616C260.682 354.251 261.539 352.712 262.736 350.652C263.934 348.592 265.807 348.257 266.322 346.036C266.38 345.764 266.422 345.488 266.446 345.211C265.016 346.243 263.763 347.5 262.736 348.934Z" fill="white" stroke="#263238" stroke-linecap="round" stroke-linejoin="round"/>
<path d="M291.393 286.836C291.393 286.836 290.822 313.688 291.108 315.965C291.636 319.258 291.827 322.596 291.678 325.928C291.393 329.918 290.642 342.171 290.642 342.171C291.338 343.503 291.959 344.872 292.504 346.272C293.695 349.176 299.161 351.056 298.137 354.127C297.113 357.198 294.036 357.229 290.791 355.839C287.546 354.449 286.69 352.935 285.499 350.876C284.308 348.816 282.397 348.487 281.913 346.266C281.429 344.045 282.254 341.141 282.081 337.723C281.907 334.304 280.982 329.484 280.412 324.644C279.841 319.805 280.554 316.244 280.269 313.539C279.984 310.834 278.594 290.112 278.594 289.683C278.594 289.255 291.393 286.836 291.393 286.836Z" fill="white" stroke="#263238" stroke-linecap="round" stroke-linejoin="round"/>
<path d="M285.517 350.857C284.32 348.81 282.415 348.468 281.931 346.247C281.608 344.851 281.819 343.195 281.987 341.284C283.47 343.083 285.933 342.866 285.933 342.866C285.933 342.866 286.609 340.248 288.632 340.335C290.654 340.421 290.642 342.121 290.642 342.121C291.337 343.453 291.959 344.822 292.503 346.222C293.694 349.126 299.16 351.006 298.136 354.077C297.113 357.148 294.035 357.179 290.791 355.789C287.546 354.4 286.708 352.935 285.517 350.857Z" fill="white" stroke="#263238" stroke-linecap="round" stroke-linejoin="round"/>
<path d="M285.512 349.151C287.199 351.682 288.043 353.959 292.429 355.057C293.527 355.377 294.703 355.294 295.745 354.823C296.787 354.352 297.627 353.524 298.112 352.489C298.325 353.011 298.341 353.593 298.156 354.127C297.132 357.229 294.055 357.229 290.81 355.839C287.565 354.449 286.709 352.935 285.518 350.876C284.327 348.816 282.416 348.487 281.932 346.266C281.871 345.994 281.829 345.718 281.808 345.441C283.233 346.47 284.484 347.723 285.512 349.151Z" fill="white" stroke="#263238" stroke-linecap="round" stroke-linejoin="round"/>
<path d="M269.623 182.84C269.623 182.84 268.779 175.83 270.181 173.311C271.583 170.792 279.059 169.663 282.893 170.972C286.728 172.281 287.937 178.169 288.589 180.129C289.24 182.09 299.806 187.512 299.992 191.998C300.178 196.484 296.816 200.684 295.227 201.155C293.639 201.627 292.609 201.534 293.174 203.122C293.738 204.71 296.276 206.671 293.918 209.847C291.561 213.024 289.153 213.57 288.955 214.612C288.842 215.48 288.811 216.357 288.862 217.23C288.862 217.23 282.689 213.868 279.326 213.868C275.963 213.868 270.168 214.426 268.208 214.24C266.247 214.054 259.702 210.784 260.825 205.641C261.948 200.498 266.055 199.102 266.34 197.048C266.626 194.995 269.623 182.84 269.623 182.84Z" fill="#263238" stroke="#263238" stroke-linecap="round" stroke-linejoin="round"/>
<path d="M274.667 180.036C274.667 180.036 274.109 178.076 275.225 177.232C276.342 176.388 278.03 176.86 278.501 177.796C278.784 178.474 278.88 179.215 278.78 179.943L274.667 180.036Z" fill="white" stroke="#263238" stroke-linecap="round" stroke-linejoin="round"/>
<path d="M254.149 265.766L248.193 285.123C248.193 285.123 252.89 287.971 261.148 290.533C269.406 293.096 272.799 292.537 272.799 292.537L273.631 289.683L275.051 292.785C278.355 292.706 281.644 292.326 284.879 291.65C290.432 290.509 298.683 286.525 298.683 286.525L293.72 266.169C293.72 266.169 269.387 269.321 254.149 265.766Z" fill="#263238" stroke="#263238" stroke-linecap="round" stroke-linejoin="round"/>
<path d="M250.055 284.131L254.652 265.859L254.149 265.747L248.193 285.123C248.193 285.123 252.89 287.971 261.148 290.533C269.406 293.096 272.799 292.537 272.799 292.537L273.631 289.683C266.111 290.111 250.055 284.131 250.055 284.131Z" fill="white" stroke="#263238" stroke-linecap="round" stroke-linejoin="round"/>
<path d="M291.083 266.48L296.716 284.695C289.546 288.197 281.631 289.9 273.655 289.659L275.076 292.761C278.38 292.681 281.669 292.301 284.904 291.625C290.456 290.484 298.708 286.501 298.708 286.501L293.745 266.145C293.745 266.145 292.758 266.318 291.083 266.48Z" fill="white" stroke="#263238" stroke-linecap="round" stroke-linejoin="round"/>
<path d="M273.655 289.683L273.941 274.452" stroke="#9E9E9E" stroke-linecap="round" stroke-linejoin="round"/>
<path d="M269.808 211.808C269.808 211.808 263.263 211.622 260.744 212.28C258.225 212.937 240.09 214.892 240.09 214.892C240.09 214.892 229.828 222.684 230.852 223.435C231.876 224.185 235.046 223.211 243.453 223.211C251.86 223.211 256.444 222.932 256.444 222.932C256.444 222.932 258.306 239.007 258.405 240.503C258.504 241.998 256.165 253.674 255.508 257.601C254.85 261.529 252.443 266.908 252.443 266.908C252.443 266.908 258.126 270.971 268.406 271.065C278.687 271.158 294.855 269.011 294.855 269.011C294.855 269.011 287.565 240.416 287.658 239.014C287.751 237.611 289.153 224.992 289.153 224.992C289.153 224.992 310.551 226.487 314.851 225.65C319.151 224.812 317.376 222.864 317.19 222.002C316.731 219.929 314.386 218.453 313.542 217.516C312.698 216.579 307.375 217.516 305.228 217.237C303.082 216.958 295.413 215.928 293.074 215.276C290.735 214.625 288.874 213.502 284.388 212.937C279.903 212.373 278.407 212.286 278.407 212.286L269.808 211.808Z" fill="white" stroke="#263238" stroke-linecap="round" stroke-linejoin="round"/>
<path d="M293.074 215.27C290.741 214.612 288.873 213.496 284.388 212.931C279.902 212.366 278.407 212.28 278.407 212.28L269.808 211.808C269.808 211.808 263.262 211.622 260.744 212.28C259.118 212.701 251.028 213.663 245.469 214.296L248.962 223.168C253.838 223.093 256.444 222.932 256.444 222.932C256.444 222.932 258.305 239.007 258.405 240.503C258.504 241.998 256.165 253.674 255.507 257.601C254.85 261.529 252.442 266.908 252.442 266.908C252.442 266.908 258.125 270.971 268.406 271.065C278.686 271.158 294.854 269.011 294.854 269.011C294.854 269.011 287.564 240.416 287.657 239.014C287.751 237.611 289.153 224.992 289.153 224.992C289.153 224.992 292.019 225.197 295.866 225.408L297.826 216.17C295.828 215.859 294.017 215.531 293.074 215.27Z" fill="#D28B00" stroke="#263238" stroke-linecap="round" stroke-linejoin="round"/>
<path d="M266.223 214.86C266.011 216.706 266.253 218.575 266.929 220.305C267.605 222.036 268.694 223.574 270.101 224.787" stroke="#263238" stroke-linecap="round" stroke-linejoin="round"/>
<path d="M280.995 215.834C280.096 217.564 279.012 219.191 277.763 220.686" stroke="#263238" stroke-linecap="round" stroke-linejoin="round"/>
<path d="M264.821 214.755C264.821 214.755 264.17 221.114 266.434 225.972" stroke="#263238" stroke-linecap="round" stroke-linejoin="round"/>
<path d="M270.528 206.112L268.847 213.682C268.847 213.682 271.186 217.323 273.99 217.323C276.794 217.323 280.157 214.333 280.25 213.396C280.343 212.459 279.313 207.322 279.313 207.322C279.313 207.322 272.427 207.322 270.528 206.112Z" fill="white" stroke="#263238" stroke-linecap="round" stroke-linejoin="round"/>
<path d="M276.559 209.395L269.809 211.808L271.304 206.187L276.559 209.395Z" fill="#263238" stroke="#263238" stroke-linecap="round" stroke-linejoin="round"/>
<path d="M261.222 208.867C261.78 209.519 263.74 209.488 263.474 209.99C263.345 210.287 263.113 210.527 262.821 210.666C262.529 210.805 262.197 210.834 261.885 210.747C260.986 210.604 260.415 209.506 260.415 209.506C260.415 209.506 260.645 208.216 261.222 208.867Z" fill="white" stroke="#263238" stroke-linecap="round" stroke-linejoin="round"/>
<path d="M237.975 220.835C239.401 220.148 240.632 219.113 241.555 217.826C242.72 216.06 243.777 214.224 244.719 212.329C245.407 211.125 250.96 204.834 252.226 203.407C252.4 204.028 252.673 205.052 252.995 206.243C253.585 208.371 254.112 208.265 254.639 209.196C255.235 210.341 255.952 211.419 256.78 212.41C257.611 213.291 258.021 213.651 258.567 213.44C258.759 213.371 258.616 212.987 258.356 212.515C258.729 212.915 259.233 213.168 259.776 213.229C260.446 213.229 260.397 213.055 260.397 213.055C260.716 213.121 261.045 213.121 261.365 213.055C261.482 213.04 261.589 212.981 261.665 212.89C261.741 212.799 261.78 212.683 261.774 212.565C261.933 212.68 262.121 212.749 262.317 212.765C262.513 212.78 262.71 212.741 262.885 212.652C263.431 212.317 262.035 211.094 261.389 209.779C260.744 208.464 260.242 206.193 259.218 204.927C258.194 203.662 256.736 201.385 255.626 200.113C255.382 199.76 255.036 199.49 254.635 199.34C254.233 199.191 253.795 199.168 253.38 199.275C252.655 199.313 251.95 199.526 251.326 199.896C250.011 200.516 243.137 206.807 239.377 209.283C235.617 211.758 231.591 217.789 231.249 219.402C230.908 221.015 229.537 223.373 230.865 223.472C231.191 223.491 231.519 223.454 231.833 223.36" fill="white"/>
<path d="M237.975 220.835C239.401 220.148 240.632 219.113 241.555 217.826C242.72 216.06 243.777 214.224 244.719 212.329C245.407 211.125 250.96 204.834 252.226 203.407C252.4 204.028 252.673 205.052 252.995 206.243C253.585 208.371 254.112 208.265 254.639 209.196C255.235 210.341 255.952 211.419 256.78 212.41C257.611 213.291 258.021 213.651 258.567 213.44C258.759 213.371 258.616 212.987 258.356 212.515C258.729 212.915 259.233 213.168 259.776 213.229C260.446 213.229 260.397 213.055 260.397 213.055C260.716 213.121 261.045 213.121 261.365 213.055C261.482 213.04 261.589 212.981 261.665 212.89C261.741 212.799 261.78 212.683 261.774 212.565C261.933 212.68 262.121 212.749 262.317 212.765C262.513 212.78 262.71 212.741 262.885 212.652C263.431 212.317 262.035 211.094 261.389 209.779C260.744 208.464 260.242 206.193 259.218 204.927C258.194 203.662 256.736 201.385 255.626 200.113C255.382 199.76 255.036 199.49 254.635 199.34C254.233 199.191 253.795 199.168 253.38 199.275C252.655 199.313 251.95 199.526 251.326 199.896C250.011 200.516 243.137 206.807 239.377 209.283C235.617 211.758 231.591 217.789 231.249 219.402C230.908 221.015 229.537 223.373 230.865 223.472C231.191 223.491 231.519 223.454 231.833 223.36" stroke="#263238" stroke-linecap="round" stroke-linejoin="round"/>
<path d="M260.384 213.055C259.886 212.339 259.426 211.598 259.007 210.834C258.746 210.251 257.716 208.296 257.53 207.85" stroke="#263238" stroke-linecap="round" stroke-linejoin="round"/>
<path d="M261.763 212.559C261.763 212.559 260.677 210.697 260.23 209.661C259.789 208.738 259.292 207.843 258.741 206.981" stroke="#263238" stroke-linecap="round" stroke-linejoin="round"/>
<path d="M258.033 212.093L255.961 208.427" stroke="#263238" stroke-linecap="round" stroke-linejoin="round"/>
<path d="M286.764 209.401C286.206 210.052 284.245 210.021 284.512 210.53C284.641 210.827 284.873 211.066 285.165 211.206C285.457 211.345 285.789 211.374 286.1 211.287C287 211.144 287.571 210.046 287.571 210.046C287.571 210.046 287.323 208.78 286.764 209.401Z" fill="white" stroke="#263238" stroke-linecap="round" stroke-linejoin="round"/>
<path d="M317.11 223.993C318.444 223.894 317.079 221.511 316.731 219.923C316.384 218.335 312.388 212.279 308.604 209.81C304.819 207.341 297.97 201.068 296.654 200.423C296.027 200.055 295.321 199.843 294.595 199.803C294.595 199.803 293.447 199.368 292.349 200.647C291.251 201.925 289.786 204.189 288.763 205.455C287.739 206.72 287.243 208.997 286.591 210.313C285.94 211.628 284.55 212.85 285.096 213.179C285.271 213.269 285.467 213.308 285.663 213.294C285.858 213.28 286.047 213.212 286.207 213.098C286.199 213.217 286.238 213.334 286.314 213.425C286.39 213.516 286.498 213.575 286.616 213.589C286.936 213.652 287.264 213.652 287.584 213.589C287.584 213.589 287.522 213.744 288.204 213.768C288.748 213.702 289.25 213.448 289.625 213.049C289.365 213.52 289.222 213.911 289.414 213.973C289.948 214.159 290.37 213.831 291.195 212.95C292.025 211.959 292.745 210.882 293.341 209.736C293.869 208.799 294.396 208.911 294.979 206.783C295.308 205.591 295.6 204.592 295.755 203.941C296.996 205.368 302.58 211.665 303.256 212.863C304.203 214.758 305.261 216.596 306.426 218.366C307.01 219.214 307.731 219.958 308.56 220.568" fill="white"/>
<path d="M317.11 223.993C318.444 223.894 317.079 221.511 316.731 219.923C316.384 218.335 312.388 212.279 308.604 209.81C304.819 207.341 297.97 201.068 296.654 200.423C296.027 200.055 295.321 199.843 294.595 199.803C294.595 199.803 293.447 199.368 292.349 200.647C291.251 201.925 289.786 204.189 288.763 205.455C287.739 206.72 287.243 208.997 286.591 210.313C285.94 211.628 284.55 212.85 285.096 213.179C285.271 213.269 285.467 213.308 285.663 213.294C285.858 213.28 286.047 213.212 286.207 213.098C286.199 213.217 286.238 213.334 286.314 213.425C286.39 213.516 286.498 213.575 286.616 213.589C286.936 213.652 287.264 213.652 287.584 213.589C287.584 213.589 287.522 213.744 288.204 213.768C288.748 213.702 289.25 213.448 289.625 213.049C289.365 213.52 289.222 213.911 289.414 213.973C289.948 214.159 290.37 213.831 291.195 212.95C292.025 211.959 292.745 210.882 293.341 209.736C293.869 208.799 294.396 208.911 294.979 206.783C295.308 205.591 295.6 204.592 295.755 203.941C296.996 205.368 302.58 211.665 303.256 212.863C304.203 214.758 305.261 216.596 306.426 218.366C307.01 219.214 307.731 219.958 308.56 220.568" stroke="#263238" stroke-linecap="round" stroke-linejoin="round"/>
<path d="M287.584 213.613C288.081 212.899 288.541 212.16 288.961 211.399C289.222 210.809 290.252 208.861 290.438 208.408" fill="white"/>
<path d="M287.584 213.613C288.081 212.899 288.541 212.16 288.961 211.399C289.222 210.809 290.252 208.861 290.438 208.408" stroke="#263238" stroke-linecap="round" stroke-linejoin="round"/>
<path d="M286.206 213.123C286.206 213.123 287.292 211.262 287.738 210.226C288.184 209.301 288.685 208.404 289.24 207.539" fill="white"/>
<path d="M286.206 213.123C286.206 213.123 287.292 211.262 287.738 210.226C288.184 209.301 288.685 208.404 289.24 207.539" stroke="#263238" stroke-linecap="round" stroke-linejoin="round"/>
<path d="M289.99 212.745L292 208.991" stroke="#263238" stroke-linecap="round" stroke-linejoin="round"/>
<path d="M285.506 195.454C285.506 195.454 287.194 193.959 287.566 196.204C287.938 198.45 284.464 200.597 284.464 200.597L285.506 195.454Z" fill="white" stroke="#263238" stroke-linecap="round" stroke-linejoin="round"/>
<path d="M272.142 180.241C270.728 180.807 269.472 181.707 268.481 182.862C267.489 184.018 266.791 185.396 266.446 186.879C265.323 191.923 265.975 199.12 267.098 201.36C268.221 203.6 271.211 209.68 274.667 210.238C278.122 210.797 282.987 205.939 284.196 201.738C285.406 197.538 286.908 187.717 285.319 184.075C283.731 180.433 276.255 177.139 272.142 180.241Z" fill="white" stroke="#263238" stroke-linecap="round" stroke-linejoin="round"/>
<path d="M274.48 199.66C274.48 199.66 276.162 200.411 277.099 199.567" stroke="#263238" stroke-linecap="round" stroke-linejoin="round"/>
<path d="M271.955 201.72C271.955 201.72 273.922 203.401 276.068 203.401C277.414 203.357 278.688 202.786 279.617 201.813" stroke="#263238" stroke-linecap="round" stroke-linejoin="round"/>
<path d="M268.779 192.563C270.173 191.873 271.776 191.738 273.265 192.184" stroke="#263238" stroke-linecap="round" stroke-linejoin="round"/>
<path d="M278.594 192.562C278.594 192.562 281.398 191.905 282.986 193.586" stroke="#263238" stroke-linecap="round" stroke-linejoin="round"/>
<path d="M271.862 195.038C271.862 195.658 271.57 196.111 271.242 196.111C270.913 196.111 270.584 195.627 270.584 195.038C270.584 194.449 270.882 193.958 271.242 193.958C271.601 193.958 271.862 194.442 271.862 195.038Z" fill="#263238"/>
<path d="M280.555 196.111C280.915 196.111 281.206 195.631 281.206 195.038C281.206 194.445 280.915 193.965 280.555 193.965C280.195 193.965 279.903 194.445 279.903 195.038C279.903 195.631 280.195 196.111 280.555 196.111Z" fill="#263238"/>
<path d="M272.141 180.241C270.727 180.807 269.472 181.707 268.48 182.862C267.488 184.018 266.791 185.396 266.446 186.879C266.052 188.786 265.859 190.728 265.869 192.674C266.764 191.558 267.376 190.243 267.655 188.84C268.034 186.408 270.367 182.015 277.005 181.922C278.022 181.858 279.042 181.999 280.003 182.339C280.965 182.679 281.847 183.21 282.598 183.899C283.348 184.589 283.951 185.424 284.371 186.353C284.791 187.282 285.018 188.286 285.04 189.305C284.947 190.987 284.388 191.551 284.946 193.028C285.12 193.487 285.356 194.039 285.598 194.579C286.119 190.534 286.262 186.216 285.319 184.032C283.73 180.408 276.254 177.139 272.141 180.241Z" fill="#263238" stroke="#263238" stroke-linecap="round" stroke-linejoin="round"/>
<path d="M265.882 194.709C265.882 194.709 264.759 192.749 263.735 195.081C262.711 197.414 266.632 200.225 266.632 200.225L265.882 194.709Z" fill="white" stroke="#263238" stroke-linecap="round" stroke-linejoin="round"/>
<path d="M149.249 339.993C149.249 339.993 145.26 344.957 142.71 347.811C140.16 350.665 139.354 352.278 140.47 353.394C141.587 354.511 143.504 356.906 148.449 355.467C153.394 354.027 154.355 352.755 156.905 349.883C159.455 347.01 161.372 347.811 162.173 344.299C162.973 340.788 151.644 337.276 149.249 339.993Z" fill="white" stroke="#263238" stroke-linecap="round" stroke-linejoin="round"/>
<path d="M162.173 344.299C162.229 344.06 162.229 343.812 162.173 343.573C159.979 344.411 158.127 345.957 156.912 347.966C154.839 351.477 152.445 353.072 147.338 354.034C142.822 354.877 140.557 352.228 140.092 351.608C139.975 351.911 139.948 352.241 140.017 352.559C140.085 352.876 140.245 353.167 140.477 353.395C141.6 354.511 143.51 356.906 148.455 355.467C153.4 354.027 154.362 352.755 156.912 349.883C159.462 347.01 161.372 347.811 162.173 344.299Z" fill="white" stroke="#263238" stroke-linecap="round" stroke-linejoin="round"/>
<path d="M203.045 339.993C203.045 339.993 207.035 344.957 209.584 347.811C212.134 350.665 212.935 352.278 211.818 353.394C210.701 354.511 208.79 356.906 203.839 355.467C198.888 354.027 197.939 352.755 195.383 349.883C192.827 347.01 190.916 347.811 190.122 344.299C189.328 340.788 200.65 337.276 203.045 339.993Z" fill="white" stroke="#263238" stroke-linecap="round" stroke-linejoin="round"/>
<path d="M190.122 344.299C190.066 344.06 190.066 343.812 190.122 343.573C192.313 344.412 194.163 345.958 195.377 347.966C197.455 351.477 199.85 353.072 204.956 354.034C209.473 354.877 211.737 352.228 212.203 351.608C212.321 351.911 212.347 352.242 212.278 352.56C212.208 352.878 212.046 353.168 211.812 353.395C210.695 354.511 208.784 356.906 203.833 355.467C198.882 354.027 197.933 352.755 195.377 349.883C192.821 347.01 190.916 347.811 190.122 344.299Z" fill="white" stroke="#263238" stroke-linecap="round" stroke-linejoin="round"/>
<path d="M204.454 338.448C204.293 337.015 202.543 336.538 202.543 336.538C202.543 336.538 202.22 330.631 202.22 325.525C202.22 320.419 202.382 310.685 202.22 301.751C202.059 292.816 199.987 281.649 200.148 272.076C200.309 262.503 197.114 239.367 197.114 239.367L176.454 243.257L155.788 239.367C155.788 239.367 152.599 262.503 152.76 272.076C152.922 281.649 150.843 292.816 150.682 301.751C150.521 310.685 150.682 320.419 150.682 325.525C150.682 330.631 150.366 336.538 150.366 336.538C150.366 336.538 148.61 337.015 148.448 338.448C148.287 339.882 147.971 341.482 147.971 341.482C150.522 342.841 153.193 343.963 155.949 344.833C157.862 345.409 159.875 345.571 161.856 345.31C161.856 345.31 163.289 344.994 163.767 340.682C164.244 336.37 163.45 335.719 164.089 333.504C164.728 331.289 170.293 285.477 170.79 281.01C171.286 276.543 175.573 252.47 175.573 252.47L176.454 252.377L177.329 252.47C177.329 252.47 181.672 276.561 182.119 281.01C182.565 285.458 188.18 331.264 188.819 333.504C189.458 335.743 188.658 336.376 189.136 340.682C189.613 344.988 191.053 345.31 191.053 345.31C193.031 345.571 195.042 345.409 196.953 344.833C199.71 343.963 202.38 342.841 204.932 341.482C204.932 341.482 204.615 339.913 204.454 338.448Z" fill="#263238" stroke="#263238" stroke-linecap="round" stroke-linejoin="round"/>
<path d="M197.704 243.878C197.356 241.148 197.114 239.392 197.114 239.392L176.454 243.282L155.788 239.392C155.788 239.392 155.552 241.104 155.211 243.785C158.71 245.205 167.34 248.245 176.814 248.245C186.089 248.245 194.217 245.329 197.704 243.878Z" fill="#D28B00" stroke="#263238" stroke-linecap="round" stroke-linejoin="round"/>
<path d="M158.462 182.723C158.462 182.723 153.499 182.406 151.637 182.828C149.776 183.25 144.707 186.191 144.707 186.191C144.707 186.191 131.679 189.764 128.105 190.918C124.531 192.072 116.441 201.428 117.489 202.266C118.538 203.103 125.555 201.323 131.679 200.163C137.802 199.002 153.213 195.962 153.213 195.962C153.213 195.962 159.728 213.955 160.15 215.506C160.572 217.057 154.163 238.306 154.163 239.355C154.163 240.403 156.365 241.458 157.209 241.669C162.428 244.047 168.078 245.332 173.811 245.447C183.893 245.764 192.802 244.504 196.06 242.506C199.317 240.509 199.944 240.093 199.733 237.99C199.522 235.887 195.005 215.822 194.689 214.767C194.372 213.713 199.733 198.066 199.733 198.066C199.733 198.066 208.09 201.745 215.02 201.745C221.95 201.745 235.959 202.899 237.219 202.266C238.478 201.633 234.786 193.282 230.791 191.719C226.795 190.155 214.579 188.201 211.006 187.376C207.432 186.551 205.962 185.378 203.126 185.173C200.956 185.055 198.782 185.055 196.612 185.173L158.462 182.723Z" fill="#D28B00" stroke="#263238" stroke-linecap="round" stroke-linejoin="round"/>
<path d="M172.539 178.938C172.539 178.938 166.335 177.362 165.094 177.995C163.853 178.628 158.369 181.885 158.474 182.723C158.58 183.56 177.385 201.335 178.228 200.901C179.072 200.467 196.09 185.874 196.618 185.142C197.145 184.41 193.466 179.558 191.989 178.833C190.513 178.107 180.747 179.043 180.437 179.043L172.539 178.938Z" fill="#D28B00" stroke="#263238" stroke-linecap="round" stroke-linejoin="round"/>
<path d="M172.751 171.902C172.751 171.902 169.81 182.301 170.443 183.771C171.076 185.241 177.063 199.952 178.006 199.43C178.949 198.909 185.047 182.195 185.047 182.195L183.887 171.797L172.751 171.902Z" fill="#B2B2B2" stroke="#263238" stroke-linecap="round" stroke-linejoin="round"/>
<path d="M170.958 179.087L180.767 176.475L172.664 172.225C172.391 173.205 171.547 176.314 170.958 179.087Z" fill="#263238" stroke="#263238" stroke-linecap="round" stroke-linejoin="round"/>
<path d="M178.006 199.431C178.006 199.431 190.507 188.083 192.822 185.037" stroke="#263238" stroke-linecap="round" stroke-linejoin="round"/>
<path d="M177.063 198.798C177.063 198.798 165.61 188.505 162.979 183.771" stroke="#263238" stroke-linecap="round" stroke-linejoin="round"/>
<path d="M165.888 156.044C165.888 156.044 163.245 152.496 163.021 157.558C162.798 162.621 166.57 163.297 166.57 163.297L165.888 156.044Z" fill="#B2B2B2" stroke="#263238" stroke-linecap="round" stroke-linejoin="round"/>
<path d="M190.805 156.466C190.805 156.466 193.374 154.431 193.597 157.087C193.82 159.742 189.974 162.9 189.974 162.9L190.805 156.466Z" fill="#B2B2B2" stroke="#263238" stroke-linecap="round" stroke-linejoin="round"/>
<path d="M173.122 139.634C173.122 139.634 171.013 137.593 170.709 135.099C170.405 132.605 175.617 129.062 179.165 129.286C182.714 129.509 186.567 131.476 187.696 134.193C188.825 136.911 186.033 139.157 185.283 139.634C184.532 140.112 181.43 139.858 181.43 139.858L173.122 139.634Z" fill="#263238" stroke="#263238" stroke-linecap="round" stroke-linejoin="round"/>
<path d="M170.343 139.647C169.176 140.157 168.162 140.963 167.402 141.986C166.161 143.667 164.3 146.422 164.151 148.19C163.928 150.833 165.392 154.68 165.51 155.207C165.628 155.734 166.043 160.722 167.098 164.569C168.153 168.416 173.588 175.067 174.798 176.047C176.007 177.027 179.482 177.027 180.766 176.5C182.05 175.972 187.485 168.019 188.633 166.132C189.781 164.246 190.897 157.676 191.35 154.506C191.803 151.335 193.392 147.936 191.884 144.542C190.376 141.148 185.314 138.648 180.096 138.338C175.803 138.102 173.122 138.462 170.343 139.647Z" fill="#B2B2B2" stroke="#263238" stroke-linecap="round" stroke-linejoin="round"/>
<path d="M191.867 144.542C190.353 141.142 185.296 138.648 180.079 138.338C175.798 138.089 173.099 138.449 170.338 139.634C169.171 140.145 168.157 140.951 167.397 141.973C166.156 143.655 164.295 146.409 164.146 148.178C163.923 150.821 165.387 154.667 165.505 155.195C165.567 155.399 165.654 156.255 165.803 157.447L166.789 156.33C166.789 156.33 168.148 153.085 168.073 151.367C167.999 149.648 166.789 145.783 172.981 143.363C179.173 140.943 185.588 143.667 187.406 146.006C189.224 148.345 188.231 152.576 188.535 154.072C188.839 155.567 189.67 156.032 190.123 157.242C190.265 157.674 190.452 158.09 190.682 158.483C190.955 156.981 191.178 155.561 191.302 154.512C191.786 151.335 193.374 147.936 191.867 144.542Z" fill="#263238" stroke="#263238" stroke-linecap="round" stroke-linejoin="round"/>
<path d="M173.892 158.998C173.892 159.73 173.538 160.319 173.098 160.319C172.657 160.319 172.31 159.73 172.31 158.998C172.31 158.266 172.663 157.676 173.098 157.676C173.532 157.676 173.892 158.266 173.892 158.998Z" fill="#263238"/>
<path d="M183.707 158.998C183.707 159.73 183.353 160.319 182.913 160.319C182.472 160.319 182.125 159.73 182.125 158.998C182.125 158.266 182.479 157.676 182.913 157.676C183.347 157.676 183.707 158.266 183.707 158.998Z" fill="#263238"/>
<path d="M175.325 164.321C175.325 164.321 174.047 165.078 174.952 165.909C175.858 166.741 178.954 166.585 180.232 166.281C181.51 165.977 180.853 164.774 180.536 164.321" stroke="#263238" stroke-linecap="round" stroke-linejoin="round"/>
<path d="M173.29 167.944C174.603 169.229 176.36 169.96 178.198 169.985C179.04 170.01 179.876 169.823 180.627 169.44C181.379 169.057 182.022 168.492 182.497 167.795" stroke="#263238" stroke-linecap="round" stroke-linejoin="round"/>
<path d="M169.741 155.716C170.628 155.098 171.668 154.735 172.747 154.669C173.826 154.602 174.902 154.833 175.859 155.337" stroke="#263238" stroke-linecap="round" stroke-linejoin="round"/>
<path d="M180.158 155.716C181.045 155.098 182.085 154.735 183.164 154.669C184.243 154.602 185.319 154.833 186.276 155.337" stroke="#263238" stroke-linecap="round" stroke-linejoin="round"/>
<path d="M170.442 183.771L177.379 216.765L184.625 183.672L181.79 190.602L177.379 210.989L173.383 190.391L170.442 183.771Z" fill="#263238" stroke="#263238" stroke-linecap="round" stroke-linejoin="round"/>
<path d="M177.372 216.765V221.282" stroke="#263238" stroke-linecap="round" stroke-linejoin="round"/>
<path d="M179.265 223.435C179.263 223.051 179.149 222.676 178.934 222.358C178.72 222.039 178.417 221.791 178.062 221.645C177.707 221.499 177.316 221.461 176.94 221.537C176.564 221.613 176.218 221.798 175.947 222.07C175.676 222.342 175.492 222.688 175.418 223.064C175.343 223.441 175.382 223.831 175.529 224.186C175.676 224.54 175.925 224.843 176.245 225.056C176.564 225.269 176.939 225.383 177.323 225.383L177.372 227.275L178.322 227.486L179.072 224.272C179.197 224.011 179.263 223.725 179.265 223.435Z" fill="white" stroke="#263238" stroke-linecap="round" stroke-linejoin="round"/>
<path d="M127.255 197.855C129.195 196.737 130.821 195.147 131.982 193.233C133.875 190.081 134.929 187.134 135.872 185.167C136.816 183.2 145.824 171.325 145.824 171.325L146.668 165.81C145.652 165.926 144.679 166.286 143.832 166.858C142.046 167.907 133.012 177.468 127.968 181.358C122.924 185.248 117.905 194.176 117.589 196.49C117.272 198.804 115.597 202.266 117.483 202.266C119.369 202.266 121.057 200.585 121.057 200.585" fill="#D28B00"/>
<path d="M127.255 197.855C129.195 196.737 130.821 195.147 131.982 193.233C133.875 190.081 134.929 187.134 135.872 185.167C136.816 183.2 145.824 171.325 145.824 171.325L146.668 165.81C145.652 165.926 144.679 166.286 143.832 166.858C142.046 167.907 133.012 177.468 127.968 181.358C122.924 185.248 117.905 194.176 117.589 196.49C117.272 198.804 115.597 202.266 117.483 202.266C119.369 202.266 121.057 200.585 121.057 200.585" stroke="#263238" stroke-linecap="round" stroke-linejoin="round"/>
<path d="M158.754 178.516C159.61 179.372 162.377 179.137 162.054 179.869C161.903 180.301 161.601 180.665 161.203 180.893C160.805 181.121 160.339 181.198 159.889 181.11C158.605 181.004 157.687 179.49 157.687 179.49C157.687 179.49 157.897 177.66 158.754 178.516Z" fill="#B2B2B2" stroke="#263238" stroke-linecap="round" stroke-linejoin="round"/>
<path d="M146.694 165.81C146.694 165.81 148.269 165.072 149.951 166.753C151.632 168.434 153.946 171.481 155.535 173.162C157.123 174.843 158.054 177.995 159.108 179.782C160.163 181.569 162.26 183.144 161.522 183.672C161.284 183.816 161.012 183.892 160.734 183.892C160.456 183.892 160.183 183.816 159.946 183.672C159.968 183.837 159.927 184.005 159.83 184.141C159.733 184.277 159.588 184.371 159.425 184.404C158.979 184.531 158.513 184.567 158.054 184.509C158.054 184.509 158.159 184.72 157.216 184.826C156.273 184.931 154.796 183.877 154.381 183.144C153.965 182.486 153.51 181.854 153.016 181.252C153.016 181.252 156.273 184.931 155.535 185.248C154.796 185.564 154.17 185.142 152.91 184.007C151.634 182.7 150.507 181.256 149.548 179.701C148.704 178.46 147.972 178.653 146.917 175.706C145.862 172.759 145.13 170.668 145.13 170.668C145.13 170.668 144.491 167.386 146.694 165.81Z" fill="#B2B2B2" stroke="#263238" stroke-linecap="round" stroke-linejoin="round"/>
<path d="M158.04 184.509C157.265 183.553 156.54 182.557 155.869 181.525C155.441 180.725 153.778 178.082 153.468 177.468" stroke="#263238" stroke-linecap="round" stroke-linejoin="round"/>
<path d="M159.933 183.672C159.933 183.672 158.202 181.159 157.451 179.745C156.73 178.486 155.93 177.274 155.057 176.115" stroke="#263238" stroke-linecap="round" stroke-linejoin="round"/>
<path d="M153.003 181.252L151.321 178.454" stroke="#263238" stroke-linecap="round" stroke-linejoin="round"/>
<path d="M227.441 197.855C225.502 196.735 223.877 195.145 222.713 193.233C220.821 190.081 219.772 187.134 218.823 185.167C217.874 183.2 208.847 171.35 208.847 171.35L208.003 165.835C209.019 165.951 209.991 166.311 210.838 166.883C212.625 167.932 221.658 177.493 226.702 181.383C231.746 185.273 236.791 194.201 237.107 196.515C237.423 198.829 239.105 202.291 237.212 202.291C235.32 202.291 233.639 200.609 233.639 200.609" fill="#D28B00"/>
<path d="M227.441 197.855C225.502 196.735 223.877 195.145 222.713 193.233C220.821 190.081 219.772 187.134 218.823 185.167C217.874 183.2 208.847 171.35 208.847 171.35L208.003 165.835C209.019 165.951 209.991 166.311 210.838 166.883C212.625 167.932 221.658 177.493 226.702 181.383C231.746 185.273 236.791 194.201 237.107 196.515C237.423 198.829 239.105 202.291 237.212 202.291C235.32 202.291 233.639 200.609 233.639 200.609" stroke="#263238" stroke-linecap="round" stroke-linejoin="round"/>
<path d="M195.942 178.516C195.086 179.372 192.319 179.137 192.641 179.869C192.792 180.301 193.095 180.665 193.492 180.893C193.89 181.121 194.357 181.198 194.807 181.11C196.091 181.004 197.009 179.49 197.009 179.49C197.009 179.49 196.798 177.66 195.942 178.516Z" fill="#B2B2B2" stroke="#263238" stroke-linecap="round" stroke-linejoin="round"/>
<path d="M208.003 165.81C208.003 165.81 206.427 165.072 204.746 166.753C203.064 168.434 200.75 171.481 199.162 173.162C197.574 174.843 196.643 177.995 195.595 179.782C194.546 181.569 192.437 183.144 193.175 183.672C193.412 183.816 193.685 183.893 193.963 183.893C194.241 183.893 194.513 183.816 194.751 183.672C194.729 183.838 194.771 184.006 194.869 184.143C194.967 184.279 195.113 184.372 195.278 184.404C195.721 184.531 196.186 184.567 196.643 184.509C196.643 184.509 196.538 184.72 197.481 184.826C198.424 184.931 199.9 183.877 200.322 183.144C200.735 182.484 201.191 181.852 201.687 181.252C201.687 181.252 198.43 184.931 199.162 185.248C199.894 185.564 200.527 185.142 201.793 184.007C203.065 182.696 204.192 181.253 205.155 179.701C205.993 178.46 206.731 178.653 207.78 175.706C208.828 172.759 209.566 170.668 209.566 170.668C209.566 170.668 210.212 167.386 208.003 165.81Z" fill="#B2B2B2" stroke="#263238" stroke-linecap="round" stroke-linejoin="round"/>
<path d="M196.655 184.509C197.431 183.553 198.156 182.557 198.827 181.525C199.261 180.725 200.918 178.082 201.228 177.468" stroke="#263238" stroke-linecap="round" stroke-linejoin="round"/>
<path d="M194.764 183.672C194.764 183.672 196.495 181.159 197.245 179.745C197.969 178.487 198.769 177.275 199.64 176.115" stroke="#263238" stroke-linecap="round" stroke-linejoin="round"/>
<path d="M201.699 181.252L203.381 178.454" stroke="#263238" stroke-linecap="round" stroke-linejoin="round"/>
<path d="M60.9078 340.483C60.9078 340.483 57.8057 345.503 55.8886 347.308C53.9715 349.114 50.7018 352.489 52.3211 354.592C53.9404 356.695 59.2885 357.185 62.1983 355.889C65.108 354.592 67.2175 351.192 69.0229 349.573C70.8283 347.953 73.0681 346.334 73.0681 343.908C73.0681 341.482 61.8756 339.689 60.9078 340.483Z" fill="white" stroke="#263238" stroke-linecap="round" stroke-linejoin="round"/>
<path d="M73.0492 343.883C73.0459 343.772 73.0206 343.662 72.9747 343.561C70.804 345.237 68.8676 347.196 67.2172 349.386C65.4366 351.974 63.9786 353.27 60.3926 354.406C56.8065 355.541 58.6119 353.593 57.6441 352.625C56.6762 351.657 55.696 352.302 53.9216 353.245C52.1471 354.189 52.4698 351.304 52.4698 351.304H52.4387C51.8183 352.464 51.6012 353.624 52.3022 354.536C53.9216 356.639 59.2696 357.129 62.1794 355.833C65.0891 354.536 67.1986 351.136 69.004 349.517C70.8094 347.897 73.0492 346.309 73.0492 343.883Z" fill="white" stroke="#263238" stroke-linecap="round" stroke-linejoin="round"/>
<path d="M93.1756 340.483C93.1756 340.483 96.2777 345.503 98.1948 347.308C100.112 349.114 103.375 352.489 101.756 354.592C100.137 356.695 94.7949 357.185 91.8789 355.889C88.9629 354.592 86.8597 351.192 85.0543 349.573C83.2489 347.953 81.0029 346.334 81.0029 343.908C81.0029 341.482 92.2015 339.689 93.1756 340.483Z" fill="white" stroke="#263238" stroke-linecap="round" stroke-linejoin="round"/>
<path d="M81.0273 343.883C81.0306 343.772 81.0559 343.662 81.1018 343.561C83.2725 345.237 85.2089 347.196 86.8593 349.386C88.6399 351.974 90.0979 353.27 93.684 354.406C97.27 355.541 95.4646 353.593 96.4386 352.625C97.4127 351.657 98.3805 352.302 100.161 353.245C101.942 354.189 101.619 351.304 101.619 351.304C102.24 352.464 102.457 353.624 101.756 354.536C100.136 356.639 94.7945 357.129 91.8785 355.833C88.9625 354.536 86.8593 351.136 85.0539 349.517C83.2485 347.897 81.0273 346.309 81.0273 343.883Z" fill="white" stroke="#263238" stroke-linecap="round" stroke-linejoin="round"/>
<path d="M59.4491 263.892C59.4491 263.892 58.9589 305.504 59.4491 314.575C59.9392 323.645 60.2556 335.787 60.2556 335.787C60.2556 335.787 58.475 335.787 58.6363 337.406C58.7976 339.025 59.5856 342.425 59.5856 342.425C59.5856 342.425 63.4694 343.716 66.2241 344.367C68.9787 345.019 72.8626 346.632 73.6691 345.335C74.4757 344.038 75.4497 342.233 75.6173 340.806C75.7848 339.379 74.4819 337.567 74.4819 335.458C74.4819 333.349 76.5851 282.679 76.5851 282.679C76.5851 282.679 80.3076 333.032 80.469 334.006C80.6303 334.98 79.8485 337.89 79.8485 339.671C79.8485 341.451 80.3325 345.013 80.3325 345.013C81.8055 345.671 83.4202 345.951 85.0291 345.825C87.2998 345.503 91.1836 344.206 92.1515 343.555C93.1306 343.042 94.1739 342.662 95.2536 342.425C95.2536 342.425 95.0923 339.187 95.0923 337.567C95.0923 335.948 94.6084 336.916 94.6084 333.845V307.285C94.6084 301.459 93.473 265.673 93.473 265.673C93.473 265.673 70.6167 268.266 59.4491 263.892Z" fill="#263238" stroke="#263238" stroke-linecap="round" stroke-linejoin="round"/>
<path d="M72.0566 205.12L71.2811 210.983L70.2822 214.525C70.2822 214.525 72.4971 218.397 76.8091 218.62C81.121 218.844 84.4465 214.079 84.4465 214.079C84.4465 214.079 82.7837 210.102 82.6721 208.991C82.5099 207.874 82.2883 206.766 82.0082 205.672C82.0082 205.672 76.2569 206.783 72.0566 205.12Z" fill="white" stroke="#263238" stroke-linecap="round" stroke-linejoin="round"/>
<path d="M75.9458 205.957C74.6152 205.87 73.3046 205.588 72.0558 205.12L71.2803 210.983C72.5211 210.455 79.5257 207.186 79.5257 207.186L75.9458 205.957Z" fill="#263238" stroke="#263238" stroke-linecap="round" stroke-linejoin="round"/>
<path d="M70.2823 214.525C69.8256 213.935 69.411 213.313 69.0415 212.664C68.0488 211.001 67.385 211.001 66.8266 211.423C66.2682 211.845 57.8677 212.193 55.3239 213.409C52.7802 214.625 44.1564 215.27 44.1564 215.27C44.1564 215.27 39.3977 218.142 36.854 220.581C34.3103 223.019 30.3271 225.333 31.2144 225.221C32.1016 225.11 33.7581 225.885 42.6053 225.885C51.4525 225.885 59.4249 225.445 59.4249 225.445C59.4249 225.445 58.8728 259.301 58.7611 261.069C58.6494 262.838 57.9856 265.27 58.4261 265.828C58.8666 266.386 61.3048 268.93 68.936 269.917C76.5672 270.903 77.5661 272.131 84.8684 270.915C92.1708 269.699 96.5944 266.572 97.0411 265.828C97.4878 265.083 94.7145 244.585 94.7145 239.15C94.7145 233.715 95.2667 226.741 95.2667 226.741C95.2667 226.741 105.56 226.301 111.528 226.189C117.496 226.078 122.46 226.357 123.856 224.669C125.252 222.982 120.493 219.439 119.165 218.663C117.838 217.888 113.966 217.23 112.961 216.895C111.956 216.56 100.174 214.414 97.2521 213.688C94.3299 212.962 88.2932 212.031 88.2932 212.031C88.1597 211.837 87.9616 211.697 87.7343 211.636C87.507 211.574 87.2653 211.596 87.0523 211.696C86.2768 212.031 84.3969 214.017 84.3969 214.017C84.3969 214.017 77.808 222.82 70.2823 214.525Z" fill="#D28B00" stroke="#263238" stroke-linecap="round" stroke-linejoin="round"/>
<path d="M87.8712 213.744C87.8712 213.744 85.222 219.383 81.4561 222.374" stroke="#263238" stroke-linecap="round" stroke-linejoin="round"/>
<path d="M66.9629 213.973C66.9629 213.973 73.4897 228.243 78.5834 230.675" stroke="#263238" stroke-linecap="round" stroke-linejoin="round"/>
<path d="M94.1801 229.254C94.1801 229.254 90.197 243.747 84.334 250.497" stroke="#263238" stroke-linecap="round" stroke-linejoin="round"/>
<path d="M88.1258 248.711C88.1258 248.711 81.599 257.117 75.8477 260.213" stroke="#263238" stroke-linecap="round" stroke-linejoin="round"/>
<path d="M95.2852 226.803L97.165 221.381" stroke="#263238" stroke-linecap="round" stroke-linejoin="round"/>
<path d="M59.444 225.476L57.7812 218.837" stroke="#263238" stroke-linecap="round" stroke-linejoin="round"/>
<path d="M69.2145 182.586C69.2145 182.586 65.9759 186.079 66.4102 190.254C66.8445 194.43 67.7751 202.179 69.7357 204.989C71.6962 207.8 76.8891 209.506 79.6996 208.569C82.5101 207.632 85.4075 205.076 86.0031 203.457C86.5987 201.838 88.1374 190.335 87.5418 187.103C86.9462 183.87 84.7251 179.006 78.5953 179.093C72.4655 179.18 69.2145 182.586 69.2145 182.586Z" fill="white" stroke="#263238" stroke-linecap="round" stroke-linejoin="round"/>
<path d="M66.745 194.597C66.745 194.597 65.0388 191.446 63.7608 193.487C62.4827 195.528 64.102 198.258 65.1257 199.027C65.9186 199.514 66.8393 199.752 67.7687 199.71L66.745 194.597Z" fill="white" stroke="#263238" stroke-linecap="round" stroke-linejoin="round"/>
<path d="M87.6169 194.169C87.6169 194.169 88.473 192.637 90.2599 193.661C92.0467 194.684 90.5142 197.836 89.6394 198.624C88.787 199.262 87.8624 199.797 86.8848 200.218L87.6169 194.169Z" fill="white" stroke="#263238" stroke-linecap="round" stroke-linejoin="round"/>
<path d="M79.1849 181.308C79.1849 181.308 75.0964 185.396 72.0253 187.103C70.6176 187.917 69.168 188.656 67.6823 189.318C67.6823 189.318 68.3027 193.406 67.8498 194.002C67.7246 194.182 67.5602 194.331 67.3689 194.439C67.1776 194.546 66.9645 194.609 66.7455 194.622C66.0609 194.035 65.4065 193.414 64.7849 192.761C64.0218 191.911 63.6806 191.911 63.5937 190.713C63.5559 189.72 63.585 188.725 63.6806 187.735C63.6806 187.735 61.3788 188.157 61.7201 184.751C62.0613 181.345 65.0393 175.209 70.9209 172.485C76.8025 169.762 82.0885 172.485 82.9323 174.272C83.4036 175.236 83.8018 176.233 84.1235 177.257C84.1235 177.257 85.7428 175.805 87.5358 177.765C89.3288 179.726 91.5375 184.925 91.1094 186.799C90.7404 188.042 89.9593 189.123 88.8945 189.863C88.8945 189.863 88.1314 193.698 87.6165 194.206C87.1015 194.715 86.3384 194.548 86.2577 193.189C86.1771 191.83 85.8297 188.331 85.8297 188.331L79.1849 181.308Z" fill="#263238" stroke="#263238" stroke-linecap="round" stroke-linejoin="round"/>
<path d="M74.24 193.406C74.24 194.157 73.8615 194.765 73.39 194.765C72.9185 194.765 72.54 194.144 72.54 193.406C72.54 192.668 72.9185 192.041 73.39 192.041C73.8615 192.041 74.24 192.649 74.24 193.406Z" fill="#263238"/>
<path d="M82.1628 193.406C82.1628 194.157 81.7844 194.765 81.3129 194.765C80.8413 194.765 80.4629 194.144 80.4629 193.406C80.4629 192.668 80.8413 192.041 81.3129 192.041C81.7844 192.041 82.1628 192.649 82.1628 193.406Z" fill="#263238"/>
<path d="M75.5186 197.662C75.9715 198.088 76.5309 198.384 77.1379 198.518C77.6006 198.57 78.069 198.52 78.5104 198.372C78.9519 198.225 79.3558 197.982 79.694 197.662" stroke="#263238" stroke-linecap="round" stroke-linejoin="round"/>
<path d="M73.6445 200.138C73.6445 200.138 75.6919 201.583 77.3112 201.583C78.9305 201.583 81.1454 200.647 81.9954 199.455" stroke="#263238" stroke-linecap="round" stroke-linejoin="round"/>
<path d="M70.0645 190.676C70.7131 190.254 71.4442 189.975 72.209 189.858C72.9738 189.74 73.755 189.786 74.5005 189.994" stroke="#263238" stroke-width="2" stroke-linecap="round" stroke-linejoin="round"/>
<path d="M79.2715 190.255C79.2715 190.255 82.082 188.803 83.9557 190.763" stroke="#263238" stroke-width="2" stroke-linecap="round" stroke-linejoin="round"/>
<path d="M61.726 209.097C62.3464 209.792 64.431 209.754 64.1457 210.3C64.006 210.619 63.7559 210.877 63.4413 211.027C63.1267 211.176 62.7687 211.207 62.4333 211.113C61.4716 210.964 60.8574 209.761 60.8574 209.761C60.8574 209.761 61.1242 208.396 61.726 209.097Z" fill="white" stroke="#263238" stroke-linecap="round" stroke-linejoin="round"/>
<path d="M36.7911 221.946C38.3228 221.206 39.6435 220.092 40.6315 218.707C41.8782 216.808 43.0134 214.838 44.0314 212.807C44.7635 211.516 50.7258 204.741 52.0969 203.228C52.283 203.922 52.5746 204.996 52.9283 206.274C53.5487 208.557 54.1257 208.439 54.6903 209.444C55.3299 210.674 56.1017 211.831 56.992 212.894C57.8792 213.837 58.3321 214.19 58.9091 213.998C59.1077 213.924 58.9588 213.508 58.6796 212.999C59.0809 213.431 59.6211 213.707 60.2058 213.781C60.9255 213.75 60.8262 213.589 60.8262 213.589C61.1681 213.658 61.5204 213.658 61.8623 213.589C61.9885 213.574 62.1044 213.513 62.1863 213.416C62.2683 213.319 62.31 213.194 62.3028 213.067C62.4755 213.19 62.6784 213.262 62.8894 213.278C63.1005 213.293 63.3117 213.25 63.5002 213.154C64.0834 212.801 62.582 211.485 61.8871 210.052C61.1923 208.619 60.6463 206.199 59.5606 204.841C58.4748 203.482 56.8865 201.044 55.7077 199.672C54.5289 198.301 53.2943 198.773 53.2943 198.773C52.5212 198.802 51.7662 199.014 51.0918 199.393C49.6772 200.088 42.3004 206.838 38.2615 209.469C34.2225 212.1 29.923 218.633 29.557 220.364C29.1909 222.095 27.6957 224.626 29.1475 224.707C29.495 224.727 29.8436 224.688 30.1774 224.589" fill="white"/>
<path d="M36.7911 221.946C38.3228 221.206 39.6435 220.092 40.6315 218.707C41.8782 216.808 43.0134 214.838 44.0314 212.807C44.7635 211.516 50.7258 204.741 52.0969 203.228C52.283 203.922 52.5746 204.996 52.9283 206.274C53.5487 208.557 54.1257 208.439 54.6903 209.444C55.3299 210.674 56.1017 211.831 56.992 212.894C57.8792 213.837 58.3321 214.19 58.9091 213.998C59.1077 213.924 58.9588 213.508 58.6796 212.999C59.0809 213.431 59.6211 213.707 60.2058 213.781C60.9255 213.75 60.8262 213.589 60.8262 213.589C61.1681 213.658 61.5204 213.658 61.8623 213.589C61.9885 213.574 62.1044 213.513 62.1863 213.416C62.2683 213.319 62.31 213.194 62.3028 213.067C62.4755 213.19 62.6784 213.262 62.8894 213.278C63.1005 213.293 63.3117 213.25 63.5002 213.154C64.0834 212.801 62.582 211.485 61.8871 210.052C61.1923 208.619 60.6463 206.199 59.5606 204.841C58.4748 203.482 56.8865 201.044 55.7077 199.672C54.5289 198.301 53.2943 198.773 53.2943 198.773C52.5213 198.802 51.7662 199.014 51.0918 199.393C49.6772 200.088 42.3004 206.838 38.2615 209.469C34.2225 212.1 29.923 218.633 29.557 220.364C29.1909 222.095 27.6957 224.626 29.1475 224.707C29.495 224.727 29.8436 224.688 30.1774 224.589" stroke="#263238" stroke-linecap="round" stroke-linejoin="round"/>
<path d="M60.8266 213.589C60.2925 212.821 59.7996 212.026 59.35 211.206C59.0708 210.586 57.9603 208.482 57.7617 207.999" stroke="#263238" stroke-linecap="round" stroke-linejoin="round"/>
<path d="M62.3223 213.061C62.3223 213.061 61.1559 211.057 60.6782 209.959C60.2016 208.968 59.665 208.006 59.0713 207.08" stroke="#263238" stroke-linecap="round" stroke-linejoin="round"/>
<path d="M58.3207 212.553L56.0996 208.625" stroke="#263238" stroke-linecap="round" stroke-linejoin="round"/>
<path d="M36.0097 223.484C37.0983 222.867 38.1357 222.164 39.1118 221.381C40.9178 219.896 42.4851 218.143 43.7588 216.182C44.7515 214.525 48.6229 209.767 48.6229 209.767L43.3121 205.424C43.3121 205.424 37.0954 208.78 33.7762 212.751C30.4569 216.722 28.242 220.277 27.8015 222.492C27.361 224.707 28.0249 225.476 30.3453 225.364C31.8114 225.288 33.2662 225.065 34.6882 224.7" fill="#D28B00"/>
<path d="M36.0097 223.484C37.0983 222.867 38.1357 222.164 39.1118 221.381C40.9178 219.896 42.4851 218.143 43.7588 216.182C44.7515 214.525 48.6229 209.767 48.6229 209.767L43.3121 205.424C43.3121 205.424 37.0954 208.78 33.7762 212.751C30.4569 216.722 28.242 220.277 27.8015 222.492C27.361 224.707 28.0249 225.476 30.3453 225.364C31.8114 225.288 33.2662 225.065 34.6882 224.7" stroke="#263238" stroke-linecap="round" stroke-linejoin="round"/>
<path d="M91.2959 209.097C90.6755 209.792 88.5909 209.754 88.8763 210.3C89.016 210.619 89.2661 210.877 89.5807 211.027C89.8953 211.176 90.2532 211.207 90.5887 211.113C91.5503 210.964 92.1645 209.761 92.1645 209.761C92.1645 209.761 91.8977 208.396 91.2959 209.097Z" fill="white" stroke="#263238" stroke-linecap="round" stroke-linejoin="round"/>
<path d="M116.231 221.946C114.7 221.207 113.379 220.096 112.39 218.713C111.141 216.815 110.006 214.845 108.99 212.813C108.258 211.523 102.296 204.748 100.925 203.234C100.739 203.929 100.447 205.002 100.093 206.28C99.4729 208.563 98.8959 208.445 98.3314 209.45C97.6895 210.679 96.9178 211.836 96.0296 212.9C95.1424 213.843 94.6895 214.197 94.1125 214.004C93.914 213.93 94.0629 213.514 94.342 213.005C93.9398 213.435 93.3997 213.709 92.8158 213.781C92.0961 213.75 92.1954 213.589 92.1954 213.589C91.8514 213.658 91.4971 213.658 91.1531 213.589C91.0281 213.573 90.9136 213.511 90.833 213.414C90.7524 213.317 90.7115 213.193 90.7188 213.067C90.5461 213.19 90.3432 213.262 90.1322 213.278C89.9211 213.293 89.7099 213.25 89.5214 213.154C88.9382 212.801 90.4396 211.485 91.1345 210.052C91.8293 208.619 92.3753 206.199 93.4611 204.841C94.5468 203.482 96.1351 201.044 97.3139 199.672C98.4927 198.301 99.7273 198.773 99.7273 198.773C100.5 198.802 101.255 199.014 101.93 199.393C103.344 200.088 110.721 206.838 114.76 209.469C118.799 212.1 123.117 218.602 123.483 220.333C123.849 222.064 125.345 224.595 123.893 224.675C123.543 224.696 123.193 224.656 122.857 224.558" fill="white"/>
<path d="M116.231 221.946C114.7 221.207 113.379 220.096 112.39 218.713C111.141 216.815 110.006 214.845 108.99 212.813C108.258 211.523 102.296 204.748 100.925 203.234C100.739 203.929 100.447 205.002 100.093 206.28C99.4729 208.563 98.8959 208.445 98.3314 209.45C97.6895 210.679 96.9178 211.836 96.0296 212.9C95.1424 213.843 94.6895 214.197 94.1125 214.004C93.914 213.93 94.0629 213.514 94.342 213.005C93.9398 213.435 93.3997 213.709 92.8158 213.781C92.0961 213.75 92.1954 213.589 92.1954 213.589C91.8514 213.658 91.4971 213.658 91.1531 213.589C91.0281 213.573 90.9136 213.511 90.833 213.414C90.7524 213.317 90.7115 213.193 90.7188 213.067C90.5461 213.19 90.3432 213.262 90.1322 213.278C89.9211 213.293 89.7099 213.25 89.5214 213.154C88.9382 212.801 90.4396 211.485 91.1345 210.052C91.8293 208.619 92.3753 206.199 93.4611 204.841C94.5468 203.482 96.1351 201.044 97.3139 199.672C98.4927 198.301 99.7273 198.773 99.7273 198.773C100.5 198.802 101.255 199.014 101.93 199.393C103.344 200.088 110.721 206.838 114.76 209.469C118.799 212.1 123.117 218.602 123.483 220.333C123.849 222.064 125.345 224.595 123.893 224.675C123.543 224.696 123.193 224.656 122.857 224.558" stroke="#263238" stroke-linecap="round" stroke-linejoin="round"/>
<path d="M92.1768 213.589C92.7109 212.821 93.2038 212.026 93.6534 211.206C93.9326 210.586 95.0431 208.482 95.2416 207.999" stroke="#263238" stroke-linecap="round" stroke-linejoin="round"/>
<path d="M90.7002 213.061C90.7002 213.061 91.8666 211.057 92.3443 209.959C92.8209 208.968 93.3575 208.006 93.9512 207.08" stroke="#263238" stroke-linecap="round" stroke-linejoin="round"/>
<path d="M94.7012 212.553L96.9223 208.625" stroke="#263238" stroke-linecap="round" stroke-linejoin="round"/>
<path d="M117.03 223.484C115.942 222.867 114.904 222.164 113.928 221.381C112.122 219.896 110.555 218.143 109.281 216.182C108.288 214.525 104.417 209.767 104.417 209.767L109.728 205.424C109.728 205.424 115.932 208.743 119.239 212.72C122.546 216.697 124.773 220.246 125.214 222.461C125.654 224.676 124.99 225.445 122.67 225.333C121.204 225.257 119.749 225.034 118.327 224.669" fill="#D28B00"/>
<path d="M117.03 223.484C115.942 222.867 114.904 222.164 113.928 221.381C112.122 219.896 110.555 218.143 109.281 216.182C108.288 214.525 104.417 209.767 104.417 209.767L109.728 205.424C109.728 205.424 115.932 208.743 119.239 212.72C122.546 216.697 124.773 220.246 125.214 222.461C125.654 224.676 124.99 225.445 122.67 225.333C121.204 225.257 119.749 225.034 118.327 224.669" stroke="#263238" stroke-linecap="round" stroke-linejoin="round"/>
</svg>
