<svg width="431" height="445" viewBox="0 0 431 445" fill="none" xmlns="http://www.w3.org/2000/svg">
<path d="M101.668 29.7585L67.6183 3.09836C65.4328 1.38718 62.274 1.77168 60.5628 3.95717L4.05492 76.128C2.34375 78.3135 2.72825 81.4724 4.91373 83.1836L38.9636 109.844C41.1491 111.555 44.308 111.17 46.0191 108.985L102.527 36.814C104.238 34.6285 103.854 31.4697 101.668 29.7585Z" fill="#F5F5F5"/>
<path d="M40.1228 100.171C40.0649 100.229 34.5374 95.9937 27.7752 90.6977C21.013 85.4018 15.5724 81.0512 15.6206 80.9837C15.6689 80.9162 21.1963 85.1606 27.9682 90.4566C34.74 95.7525 40.171 100.103 40.1228 100.171Z" fill="#E0E0E0"/>
<path d="M91.336 31.9314C91.2781 31.9989 85.7507 27.7544 78.9885 22.4585C72.2263 17.1626 66.776 12.812 66.8339 12.7444C66.8918 12.6769 72.4096 16.9214 79.1814 22.2173C85.9533 27.5133 91.3843 31.8638 91.336 31.9314Z" fill="#E0E0E0"/>
<path d="M27.1771 89.8296C27.1096 89.7718 38.8108 74.7232 53.2999 56.2212C67.7889 37.7192 79.5963 22.7478 79.6638 22.796C79.7313 22.8442 68.0397 37.8928 53.541 56.4045C39.0423 74.9161 27.2446 89.8779 27.1771 89.8296Z" fill="#E0E0E0"/>
<path d="M59.5026 27.407L62.5798 23.2783L66.4384 26.1723C66.7094 26.3739 66.9379 26.6271 67.1108 26.9173C67.2837 27.2074 67.3977 27.5289 67.446 27.8632C67.4944 28.1975 67.4764 28.538 67.3928 28.8653C67.3093 29.1926 67.162 29.5002 66.9593 29.7704C66.5519 30.3171 65.9444 30.6799 65.2699 30.7793C64.5954 30.8788 63.909 30.7068 63.3612 30.301L59.5026 27.407Z" fill="#EBEBEB"/>
<path d="M63.2744 23.7991L60.1971 27.9182L56.3385 25.0242C55.7837 24.6223 55.4111 24.0166 55.3025 23.3401C55.194 22.6636 55.3585 21.9718 55.7597 21.4164C55.9614 21.1455 56.2145 20.9169 56.5047 20.744C56.7949 20.5711 57.1163 20.4572 57.4506 20.4088C57.7849 20.3604 58.1255 20.3785 58.4528 20.462C58.7801 20.5455 59.0876 20.6929 59.3579 20.8955L63.2744 23.7991Z" fill="#E0E0E0"/>
<path d="M79.4323 42.6292L82.5095 38.5005L86.3681 41.3944C86.9154 41.8036 87.2784 42.4128 87.3778 43.0889C87.4772 43.7649 87.305 44.4528 86.8986 45.0022C86.488 45.548 85.8782 45.9091 85.2022 46.0067C84.5262 46.1043 83.8391 45.9305 83.2909 45.5232L79.4323 42.6292Z" fill="#EBEBEB"/>
<path d="M83.204 39.0118L80.1268 43.1405L76.2682 40.2465C75.9972 40.0449 75.7687 39.7917 75.5958 39.5015C75.4229 39.2114 75.3089 38.8899 75.2605 38.5556C75.2121 38.2213 75.2302 37.8808 75.3138 37.5535C75.3973 37.2262 75.5446 36.9186 75.7473 36.6484C75.9489 36.3774 76.2021 36.1489 76.4923 35.976C76.7824 35.8031 77.1039 35.6891 77.4382 35.6407C77.7725 35.5923 78.113 35.6104 78.4403 35.6939C78.7676 35.7775 79.0752 35.9248 79.3454 36.1275L83.204 39.0118Z" fill="#E0E0E0"/>
<path d="M50.8689 38.7898L53.9461 34.6611L57.8047 37.5551C58.352 37.9643 58.7151 38.5734 58.8145 39.2495C58.9139 39.9256 58.7416 40.6135 58.3353 41.1629C57.9247 41.7087 57.3148 42.0698 56.6388 42.1674C55.9629 42.265 55.2757 42.0911 54.7275 41.6838L50.8689 38.7898Z" fill="#EBEBEB"/>
<path d="M54.631 35.1724L51.5634 39.3011L47.7048 36.4072C47.4339 36.2055 47.2053 35.9523 47.0324 35.6622C46.8595 35.372 46.7456 35.0506 46.6972 34.7163C46.6488 34.382 46.6669 34.0414 46.7504 33.7141C46.8339 33.3868 46.9813 33.0792 47.1839 32.809C47.3856 32.538 47.6387 32.3095 47.9289 32.1366C48.2191 31.9637 48.5405 31.8498 48.8748 31.8014C49.2091 31.753 49.5497 31.7711 49.877 31.8546C50.2043 31.9381 50.5118 32.0854 50.7821 32.2881L54.631 35.1724Z" fill="#E0E0E0"/>
<path d="M71.252 54.3403L74.3292 50.2212L78.1878 53.1151C78.7344 53.5226 79.0973 54.1301 79.1967 54.8046C79.2962 55.4791 79.1241 56.1654 78.7184 56.7133C78.5165 56.9853 78.2631 57.2149 77.9724 57.3888C77.6817 57.5628 77.3596 57.6777 77.0245 57.727C76.6894 57.7763 76.3478 57.759 76.0194 57.6761C75.691 57.5932 75.3821 57.4463 75.1106 57.2439L71.252 54.3403Z" fill="#EBEBEB"/>
<path d="M75.0527 50.7319L71.9851 54.8606L68.1265 51.9667C67.8555 51.765 67.627 51.5118 67.4541 51.2217C67.2812 50.9315 67.1673 50.61 67.1189 50.2758C67.0705 49.9415 67.0886 49.6009 67.1721 49.2736C67.2556 48.9463 67.4029 48.6387 67.6056 48.3685C68.013 47.8219 68.6206 47.459 69.295 47.3596C69.9695 47.2601 70.6559 47.4322 71.2038 47.8379L75.0527 50.7319Z" fill="#E0E0E0"/>
<path d="M42.2546 50.1634L45.3318 46.0347L49.1904 48.9286C49.4614 49.1303 49.6899 49.3834 49.8628 49.6736C50.0357 49.9638 50.1497 50.2852 50.1981 50.6195C50.2465 50.9538 50.2284 51.2944 50.1449 51.6217C50.0613 51.949 49.914 52.2565 49.7113 52.5268C49.3039 53.0734 48.6964 53.4362 48.0219 53.5357C47.3474 53.6351 46.661 53.4631 46.1132 53.0573L42.2546 50.1634Z" fill="#EBEBEB"/>
<path d="M45.9975 46.5751L42.9202 50.7038L39.0616 47.8099C38.7899 47.609 38.5605 47.3563 38.3867 47.0665C38.2129 46.7767 38.098 46.4554 38.0487 46.1211C37.9995 45.7867 38.0167 45.4459 38.0995 45.1183C38.1822 44.7906 38.3289 44.4826 38.5311 44.2117C38.9379 43.6734 39.5398 43.3162 40.2072 43.217C40.8747 43.1178 41.5544 43.2844 42.1003 43.6812L45.9975 46.5751Z" fill="#E0E0E0"/>
<path d="M63.0717 66.0603L66.1393 61.9316L69.9979 64.8256C70.2689 65.0272 70.4974 65.2804 70.6703 65.5706C70.8432 65.8608 70.9572 66.1822 71.0056 66.5165C71.0539 66.8508 71.0359 67.1914 70.9523 67.5187C70.8688 67.8459 70.7215 68.1535 70.5188 68.4237C70.1114 68.9704 69.5039 69.3332 68.8294 69.4327C68.1549 69.5321 67.4685 69.3601 66.9207 68.9543L63.0717 66.0603Z" fill="#EBEBEB"/>
<path d="M66.8339 62.4533L63.7567 66.582L59.8981 63.688C59.6238 63.4884 59.3917 63.2365 59.215 62.9469C59.0384 62.6573 58.9207 62.3356 58.8687 62.0004C58.8167 61.6651 58.8314 61.3229 58.9121 60.9934C58.9927 60.6639 59.1377 60.3536 59.3386 60.0802C59.7478 59.5329 60.3569 59.1699 61.033 59.0705C61.7091 58.9711 62.397 59.1433 62.9464 59.5497L66.8339 62.4533Z" fill="#E0E0E0"/>
<path d="M32.4344 61.8548L35.502 57.7261L39.3606 60.62C39.6316 60.8217 39.8601 61.0749 40.033 61.365C40.206 61.6552 40.3199 61.9766 40.3683 62.3109C40.4167 62.6452 40.3986 62.9858 40.3151 63.3131C40.2315 63.6404 40.0842 63.948 39.8816 64.2182C39.6799 64.4892 39.4267 64.7177 39.1366 64.8906C38.8464 65.0635 38.5249 65.1774 38.1907 65.2258C37.8564 65.2742 37.5158 65.2561 37.1885 65.1726C36.8612 65.0891 36.5536 64.9418 36.2834 64.7391L32.4344 61.8548Z" fill="#EBEBEB"/>
<path d="M36.1966 58.2376L33.1193 62.3663L29.2607 59.4723C28.7164 59.0603 28.3572 58.4497 28.2614 57.7738C28.1656 57.0979 28.3411 56.4116 28.7495 55.8645C29.1601 55.3188 29.7699 54.9576 30.4459 54.86C31.1219 54.7624 31.809 54.9363 32.3572 55.3436L36.1966 58.2376Z" fill="#E0E0E0"/>
<path d="M53.4445 77.511L56.5218 73.3823L60.3804 76.2763C60.6521 76.4772 60.8814 76.7298 61.0553 77.0197C61.2291 77.3095 61.3439 77.6308 61.3932 77.9651C61.4425 78.2994 61.4253 78.6402 61.3425 78.9679C61.2598 79.2955 61.1131 79.6036 60.9109 79.8744C60.7093 80.1454 60.4561 80.3739 60.1659 80.5468C59.8758 80.7198 59.5543 80.8337 59.22 80.8821C58.8857 80.9305 58.5452 80.9124 58.2179 80.8289C57.8906 80.7453 57.583 80.598 57.3128 80.3953L53.4445 77.511Z" fill="#EBEBEB"/>
<path d="M57.2163 73.9036L54.139 78.0227L50.2804 75.1287C49.7347 74.7181 49.3735 74.1082 49.2759 73.4323C49.1783 72.7563 49.3522 72.0692 49.7595 71.5209C49.9612 71.25 50.2144 71.0214 50.5045 70.8485C50.7947 70.6756 51.1161 70.5617 51.4504 70.5133C51.7847 70.4649 52.1253 70.483 52.4526 70.5665C52.7799 70.65 53.0875 70.7974 53.3577 71L57.2163 73.9036Z" fill="#E0E0E0"/>
<path d="M23.7719 75.0227L26.8201 70.894L30.6788 73.788C31.2245 74.1986 31.5857 74.8085 31.6833 75.4845C31.7809 76.1604 31.607 76.8476 31.1997 77.3958C30.998 77.6668 30.7448 77.8953 30.4547 78.0682C30.1645 78.2411 29.8431 78.355 29.5088 78.4034C29.1745 78.4518 28.8339 78.4338 28.5066 78.3502C28.1793 78.2667 27.8717 78.1194 27.6015 77.9167L23.7719 75.0227Z" fill="#EBEBEB"/>
<path d="M27.5436 71.4052L24.4664 75.5146L20.6078 72.6207C20.0624 72.2149 19.6995 71.6099 19.5983 70.9377C19.4972 70.2655 19.6658 69.5805 20.0676 69.0322C20.2692 68.7612 20.5224 68.5327 20.8125 68.3598C21.1027 68.1868 21.4242 68.0729 21.7585 68.0245C22.0928 67.9761 22.4333 67.9942 22.7606 68.0777C23.0879 68.1613 23.3955 68.3086 23.6657 68.5112L27.5436 71.4052Z" fill="#E0E0E0"/>
<path d="M43.769 89.9168L46.8463 85.7881L50.7049 88.682C50.9766 88.883 51.206 89.1356 51.3798 89.4254C51.5536 89.7152 51.6685 90.0365 51.7178 90.3709C51.7671 90.7052 51.7498 91.046 51.6671 91.3736C51.5843 91.7013 51.4376 92.0094 51.2354 92.2802C51.0338 92.5512 50.7806 92.7797 50.4905 92.9526C50.2003 93.1255 49.8788 93.2394 49.5445 93.2878C49.2102 93.3362 48.8697 93.3181 48.5424 93.2346C48.2151 93.1511 47.9075 93.0038 47.6373 92.8011L43.769 89.9168Z" fill="#EBEBEB"/>
<path d="M47.5408 86.2993L44.4636 90.428L40.605 87.534C40.0592 87.1234 39.6981 86.5135 39.6005 85.8375C39.5029 85.1616 39.6767 84.4744 40.0841 83.9262C40.2857 83.6552 40.5389 83.4267 40.829 83.2538C41.1192 83.0809 41.4407 82.967 41.775 82.9186C42.1093 82.8702 42.4498 82.8883 42.7771 82.9718C43.1044 83.0553 43.412 83.2026 43.6822 83.4053L47.5408 86.2993Z" fill="#E0E0E0"/>
<path d="M427.594 271.782L365.625 292.899C365 293.111 364.339 293.198 363.68 293.155C363.021 293.112 362.377 292.939 361.785 292.647C361.193 292.355 360.664 291.95 360.229 291.453C359.794 290.957 359.461 290.379 359.249 289.754L316.023 162.864C315.808 162.239 315.72 161.577 315.762 160.918C315.803 160.258 315.975 159.614 316.266 159.021C316.557 158.427 316.962 157.898 317.459 157.461C317.955 157.025 318.532 156.691 319.158 156.478L381.127 135.371C382.388 134.942 383.768 135.031 384.964 135.619C386.16 136.207 387.073 137.245 387.503 138.506L430.729 265.406C430.943 266.031 431.032 266.691 430.99 267.35C430.948 268.009 430.777 268.653 430.485 269.245C430.194 269.837 429.789 270.367 429.293 270.802C428.796 271.237 428.219 271.571 427.594 271.782Z" fill="#EBEBEB"/>
<path d="M347.49 174.043C347.843 175.078 347.882 176.194 347.601 177.251C347.321 178.308 346.733 179.258 345.912 179.98C345.091 180.703 344.075 181.166 342.991 181.311C341.907 181.455 340.804 181.275 339.823 180.793C338.841 180.311 338.025 179.549 337.477 178.603C336.928 177.657 336.673 176.569 336.743 175.478C336.813 174.387 337.205 173.341 337.87 172.472C338.534 171.604 339.441 170.952 340.476 170.6C341.863 170.127 343.381 170.224 344.696 170.87C346.011 171.516 347.016 172.657 347.49 174.043Z" fill="#FAFAFA"/>
<path d="M377.876 163.693C378.228 164.726 378.265 165.84 377.984 166.894C377.703 167.949 377.115 168.896 376.295 169.617C375.476 170.337 374.461 170.798 373.379 170.942C372.297 171.085 371.197 170.905 370.218 170.423C369.239 169.942 368.424 169.181 367.878 168.236C367.331 167.292 367.076 166.207 367.146 165.118C367.217 164.029 367.608 162.985 368.271 162.118C368.934 161.252 369.84 160.601 370.873 160.249C371.559 160.015 372.284 159.919 373.007 159.965C373.73 160.012 374.437 160.201 375.088 160.52C375.738 160.84 376.319 161.285 376.797 161.829C377.276 162.374 377.642 163.007 377.876 163.693Z" fill="#FAFAFA"/>
<path d="M357.107 202.299C357.459 203.332 357.497 204.446 357.215 205.5C356.934 206.554 356.346 207.502 355.526 208.222C354.707 208.943 353.692 209.404 352.61 209.547C351.528 209.691 350.428 209.511 349.449 209.029C348.47 208.548 347.655 207.786 347.109 206.842C346.562 205.898 346.307 204.812 346.377 203.723C346.448 202.634 346.839 201.59 347.502 200.724C348.165 199.857 349.071 199.207 350.104 198.855C350.79 198.62 351.515 198.522 352.239 198.568C352.962 198.614 353.67 198.802 354.321 199.122C354.971 199.442 355.552 199.888 356.03 200.433C356.509 200.978 356.875 201.612 357.107 202.299Z" fill="#FAFAFA"/>
<path d="M387.503 191.947C387.855 192.98 387.893 194.094 387.611 195.149C387.33 196.203 386.742 197.15 385.923 197.871C385.103 198.591 384.088 199.052 383.006 199.196C381.925 199.34 380.825 199.159 379.845 198.678C378.866 198.196 378.051 197.435 377.505 196.491C376.958 195.546 376.704 194.461 376.774 193.372C376.844 192.283 377.235 191.239 377.898 190.373C378.562 189.506 379.467 188.856 380.5 188.504C381.186 188.27 381.911 188.173 382.634 188.22C383.358 188.266 384.065 188.455 384.715 188.775C385.365 189.095 385.946 189.539 386.425 190.084C386.903 190.628 387.27 191.261 387.503 191.947Z" fill="#FAFAFA"/>
<path d="M366.734 230.563C367.086 231.596 367.124 232.71 366.842 233.765C366.561 234.819 365.973 235.766 365.154 236.487C364.334 237.207 363.319 237.668 362.237 237.812C361.156 237.955 360.056 237.775 359.076 237.294C358.097 236.812 357.283 236.051 356.736 235.107C356.189 234.162 355.935 233.077 356.005 231.988C356.075 230.899 356.466 229.855 357.129 228.988C357.793 228.122 358.698 227.471 359.731 227.119C360.417 226.885 361.142 226.789 361.865 226.836C362.589 226.882 363.296 227.071 363.946 227.39C364.596 227.71 365.177 228.155 365.656 228.699C366.134 229.244 366.501 229.877 366.734 230.563Z" fill="#FAFAFA"/>
<path d="M397.13 220.212C397.482 221.245 397.52 222.359 397.239 223.413C396.957 224.468 396.37 225.415 395.55 226.136C394.73 226.856 393.715 227.317 392.634 227.461C391.552 227.604 390.452 227.424 389.472 226.942C388.493 226.461 387.679 225.7 387.132 224.755C386.585 223.811 386.331 222.726 386.401 221.637C386.471 220.548 386.862 219.504 387.526 218.637C388.189 217.771 389.094 217.12 390.127 216.768C390.813 216.534 391.538 216.438 392.262 216.485C392.985 216.531 393.692 216.72 394.342 217.039C394.992 217.359 395.573 217.804 396.052 218.348C396.53 218.893 396.897 219.526 397.13 220.212Z" fill="#FAFAFA"/>
<path d="M376.362 258.798C376.713 259.831 376.751 260.945 376.47 261.999C376.188 263.054 375.601 264.001 374.781 264.721C373.961 265.442 372.946 265.903 371.865 266.047C370.783 266.19 369.683 266.01 368.703 265.528C367.724 265.047 366.91 264.286 366.363 263.341C365.816 262.397 365.562 261.312 365.632 260.223C365.702 259.134 366.093 258.09 366.757 257.223C367.42 256.357 368.325 255.706 369.358 255.354C370.044 255.12 370.769 255.024 371.493 255.07C372.216 255.117 372.923 255.306 373.573 255.625C374.224 255.945 374.805 256.39 375.283 256.934C375.761 257.479 376.128 258.112 376.362 258.798Z" fill="#FAFAFA"/>
<path d="M406.758 248.467C407.11 249.5 407.147 250.614 406.866 251.668C406.584 252.723 405.997 253.67 405.177 254.39C404.357 255.111 403.343 255.572 402.261 255.716C401.179 255.859 400.079 255.679 399.1 255.197C398.12 254.716 397.306 253.955 396.759 253.01C396.212 252.066 395.958 250.981 396.028 249.892C396.098 248.803 396.49 247.759 397.153 246.892C397.816 246.026 398.721 245.375 399.754 245.023C400.44 244.789 401.166 244.693 401.889 244.739C402.612 244.786 403.319 244.975 403.969 245.294C404.62 245.614 405.201 246.059 405.679 246.603C406.158 247.148 406.524 247.781 406.758 248.467Z" fill="#FAFAFA"/>
<path d="M344.528 171.082C343.94 172.715 343.217 174.296 342.367 175.809C341.652 177.391 340.799 178.908 339.821 180.343C340.409 178.71 341.132 177.129 341.981 175.616C342.695 174.033 343.547 172.515 344.528 171.082Z" fill="#E0E0E0"/>
<path d="M374.288 160.693C373.703 162.329 372.984 163.913 372.136 165.429C371.414 167.008 370.562 168.525 369.59 169.963C370.176 168.328 370.895 166.744 371.741 165.227C372.466 163.649 373.318 162.133 374.288 160.693Z" fill="#E0E0E0"/>
<path d="M354.435 199.337C353.928 201.043 353.283 202.704 352.506 204.305C351.872 205.975 351.097 207.589 350.191 209.128C350.701 207.424 351.346 205.762 352.12 204.16C352.756 202.491 353.531 200.878 354.435 199.337Z" fill="#E0E0E0"/>
<path d="M384.455 188.919C384.05 190.572 383.502 192.185 382.815 193.742C382.264 195.357 381.576 196.922 380.76 198.421C381.167 196.769 381.715 195.155 382.4 193.598C382.956 191.985 383.644 190.42 384.455 188.919Z" fill="#E0E0E0"/>
<path d="M363.155 227.476C362.141 230.564 360.849 233.553 359.297 236.409C360.312 233.321 361.603 230.331 363.155 227.476Z" fill="#E0E0E0"/>
<path d="M394.285 217.598C393.01 220.643 391.467 223.567 389.674 226.338C390.241 224.788 390.948 223.293 391.786 221.872C392.496 220.379 393.332 218.949 394.285 217.598Z" fill="#E0E0E0"/>
<path d="M373.603 256.136C372.972 257.744 372.207 259.296 371.316 260.776C370.553 262.325 369.659 263.806 368.644 265.203C370.037 262.046 371.695 259.012 373.603 256.136Z" fill="#E0E0E0"/>
<path d="M403.931 244.868C403.427 246.681 402.782 248.452 402.002 250.164C401.36 251.93 400.58 253.643 399.668 255.286C400.172 253.473 400.817 251.703 401.597 249.99C402.236 248.223 403.017 246.51 403.931 244.868Z" fill="#E0E0E0"/>
<path d="M415.015 263.621C415.015 263.737 405.745 267.007 394.227 270.933C382.709 274.859 373.323 277.946 373.284 277.83C373.246 277.715 382.555 274.444 394.082 270.518C405.61 266.592 414.977 263.486 415.015 263.621Z" fill="#E0E0E0"/>
<path d="M373.709 149.995C373.709 150.101 364.438 153.381 352.911 157.307C341.383 161.233 332.016 164.32 331.978 164.204C331.939 164.088 341.248 160.818 352.776 156.892C364.303 152.966 373.67 149.879 373.709 149.995Z" fill="#E0E0E0"/>
<path d="M353.441 162.767C353.388 162.781 353.331 162.781 353.277 162.767H353.22L353.644 162.632C353.644 162.699 353.644 162.796 353.49 162.834C353.335 162.873 353.258 162.834 353.229 162.767L353.654 162.632C353.654 162.632 353.654 162.68 353.654 162.69C353.626 162.718 353.593 162.739 353.556 162.753C353.52 162.766 353.48 162.771 353.441 162.767Z" fill="#E0E0E0"/>
<path d="M392.732 270.943C392.616 270.943 383.818 245.457 373.072 213.932C362.326 182.407 353.721 156.805 353.837 156.767C353.953 156.728 362.75 182.253 373.487 213.787C384.223 245.322 392.847 270.904 392.732 270.943Z" fill="#E0E0E0"/>
<path d="M163.096 437.333L166.405 387.648L263.513 394.115C265.116 394.222 266.611 394.961 267.67 396.17C268.728 397.379 269.262 398.959 269.155 400.562L266.652 438.158C266.545 439.762 265.806 441.257 264.597 442.315C263.387 443.373 261.808 443.907 260.204 443.8L163.096 437.333Z" fill="#F5F5F5"/>
<path d="M193.479 407.99L191.399 439.214L236.041 442.187L238.12 410.963L193.479 407.99Z" fill="#E0E0E0"/>
<path d="M157.365 384.767L153.657 440.439C153.583 441.555 154.428 442.52 155.544 442.595L168.75 443.474C169.866 443.548 170.831 442.704 170.906 441.587L174.613 385.915C174.687 384.799 173.843 383.834 172.726 383.759L159.521 382.88C158.404 382.806 157.439 383.65 157.365 384.767Z" fill="#EBEBEB"/>
<path d="M171.093 438.86C168.196 438.935 165.296 438.832 162.412 438.551C159.529 438.445 156.655 438.165 153.807 437.712C156.704 437.636 159.604 437.74 162.489 438.021C165.371 438.126 168.245 438.406 171.093 438.86Z" fill="#E0E0E0"/>
<path d="M171.412 434.036C168.53 434.116 165.647 434.013 162.778 433.728C159.896 433.623 157.022 433.342 154.173 432.888C157.055 432.82 159.938 432.924 162.807 433.197C165.69 433.302 168.563 433.582 171.412 434.036Z" fill="#E0E0E0"/>
<path d="M171.74 429.223C168.842 429.298 165.943 429.195 163.058 428.914C160.175 428.809 157.302 428.529 154.453 428.075C157.351 427.999 160.25 428.102 163.135 428.383C166.018 428.489 168.891 428.769 171.74 429.223Z" fill="#E0E0E0"/>
<path d="M172.058 424.4C169.16 424.475 166.261 424.372 163.376 424.091C160.494 423.986 157.62 423.706 154.771 423.252C157.669 423.182 160.568 423.286 163.453 423.561C166.336 423.666 169.209 423.946 172.058 424.4Z" fill="#E0E0E0"/>
<path d="M172.376 419.586C169.495 419.66 166.612 419.557 163.743 419.278C160.857 419.172 157.98 418.892 155.128 418.438C158.026 418.363 160.925 418.466 163.81 418.747C166.68 418.854 169.541 419.134 172.376 419.586Z" fill="#E0E0E0"/>
<path d="M172.704 414.763C169.807 414.838 166.907 414.735 164.022 414.454C161.14 414.349 158.266 414.069 155.418 413.615C158.315 413.545 161.214 413.648 164.1 413.924C166.982 414.029 169.856 414.31 172.704 414.763Z" fill="#E0E0E0"/>
<path d="M173.023 409.949C170.125 410.025 167.226 409.921 164.341 409.64C161.458 409.535 158.585 409.255 155.736 408.801C158.634 408.726 161.533 408.829 164.418 409.11C167.301 409.216 170.174 409.496 173.023 409.949Z" fill="#E0E0E0"/>
<path d="M173.341 405.126C170.444 405.201 167.544 405.098 164.659 404.817C161.777 404.712 158.903 404.431 156.055 403.978C158.952 403.909 161.851 404.012 164.736 404.287C167.619 404.392 170.492 404.672 173.341 405.126Z" fill="#E0E0E0"/>
<path d="M173.659 400.312C170.778 400.386 167.895 400.283 165.026 400.004C162.143 399.899 159.27 399.618 156.421 399.164C159.319 399.088 162.218 399.191 165.103 399.473C167.969 399.58 170.827 399.86 173.659 400.312Z" fill="#E0E0E0"/>
<path d="M173.987 395.489C171.09 395.564 168.19 395.461 165.305 395.18C162.423 395.075 159.549 394.795 156.701 394.341C159.598 394.271 162.497 394.374 165.383 394.649C168.265 394.755 171.139 395.035 173.987 395.489Z" fill="#E0E0E0"/>
<path d="M174.306 390.676C171.408 390.751 168.509 390.648 165.624 390.367C162.741 390.262 159.868 389.982 157.019 389.528C159.917 389.452 162.816 389.556 165.701 389.836C168.584 389.941 171.457 390.222 174.306 390.676Z" fill="#E0E0E0"/>
<path d="M174.624 385.852C171.743 385.926 168.859 385.823 165.99 385.543C163.105 385.438 160.228 385.158 157.376 384.704C160.274 384.629 163.173 384.732 166.058 385.013C168.928 385.119 171.788 385.4 174.624 385.852Z" fill="#E0E0E0"/>
<path d="M257.126 434.056L254.325 433.869C253.559 433.818 252.845 433.465 252.339 432.888C251.834 432.31 251.579 431.555 251.63 430.79L252.264 421.261L260.927 421.838L260.292 431.367C260.267 431.753 260.164 432.131 259.99 432.477C259.815 432.823 259.573 433.13 259.278 433.381C258.983 433.632 258.64 433.821 258.27 433.937C257.901 434.053 257.512 434.093 257.126 434.056Z" fill="#EBEBEB"/>
<path d="M254.972 412.351L257.866 412.554C258.633 412.607 259.348 412.964 259.853 413.544C260.357 414.125 260.611 414.883 260.557 415.65L259.888 425.2L251.207 424.592L251.875 415.042C251.929 414.275 252.285 413.56 252.866 413.055C253.447 412.551 254.204 412.297 254.972 412.351Z" fill="#E0E0E0"/>
<path d="M236.813 403.5L236.083 406.223C235.883 406.968 235.396 407.603 234.728 407.988C234.061 408.373 233.268 408.478 232.523 408.278L223.26 405.795L225.517 397.374L234.78 399.857C235.156 399.957 235.508 400.132 235.815 400.371C236.122 400.61 236.378 400.909 236.567 401.249C236.757 401.588 236.876 401.963 236.918 402.35C236.961 402.736 236.925 403.128 236.813 403.5Z" fill="#EBEBEB"/>
<path d="M215.441 399.739L216.167 397.027C216.366 396.286 216.851 395.653 217.516 395.27C218.18 394.886 218.97 394.782 219.711 394.98L228.937 397.45L226.691 405.837L217.466 403.367C217.092 403.266 216.741 403.092 216.435 402.854C216.13 402.616 215.875 402.319 215.686 401.981C215.497 401.643 215.378 401.27 215.336 400.885C215.294 400.499 215.33 400.11 215.441 399.739Z" fill="#E0E0E0"/>
<path d="M263.919 399.06L264.677 401.755C264.884 402.492 264.79 403.281 264.415 403.948C264.041 404.616 263.417 405.107 262.68 405.315L253.512 407.893L251.168 399.558L260.336 396.98C260.707 396.875 261.097 396.846 261.48 396.895C261.863 396.943 262.233 397.068 262.567 397.262C262.901 397.456 263.193 397.715 263.425 398.024C263.657 398.333 263.825 398.685 263.919 399.06Z" fill="#EBEBEB"/>
<path d="M237.648 407.886L236.89 405.192C236.683 404.455 236.777 403.666 237.151 402.998C237.526 402.331 238.15 401.839 238.887 401.632L248.092 399.043L250.436 407.378L241.268 409.956C240.895 410.067 240.502 410.101 240.115 410.056C239.728 410.011 239.354 409.888 239.016 409.694C238.678 409.501 238.382 409.241 238.147 408.93C237.912 408.62 237.742 408.264 237.648 407.886Z" fill="#E0E0E0"/>
<path d="M241.658 433.572L239.059 432.512C238.348 432.222 237.781 431.662 237.484 430.955C237.186 430.247 237.182 429.45 237.472 428.74L241.079 419.897L249.118 423.176L245.511 432.019C245.221 432.729 244.661 433.296 243.953 433.593C243.246 433.891 242.449 433.895 241.738 433.605L241.658 433.572Z" fill="#EBEBEB"/>
<path d="M247.924 410.765L250.523 411.825C251.234 412.115 251.8 412.676 252.098 413.383C252.395 414.091 252.399 414.887 252.11 415.598L248.503 424.441L240.464 421.162L244.071 412.319C244.217 411.96 244.434 411.634 244.708 411.361C244.983 411.087 245.309 410.872 245.668 410.727C246.028 410.582 246.413 410.511 246.8 410.517C247.187 410.524 247.57 410.608 247.924 410.765Z" fill="#E0E0E0"/>
<path d="M376.255 54.292L382.776 62.588C382.895 62.7438 382.949 62.9399 382.925 63.1344C382.902 63.329 382.804 63.5067 382.651 63.6299L374.268 70.1413C373.645 70.6271 372.933 70.9852 372.171 71.1953C371.409 71.4054 370.614 71.4633 369.83 71.3656C369.046 71.268 368.289 71.0167 367.602 70.6262C366.915 70.2357 366.312 69.7136 365.828 69.0898C365.341 68.466 364.983 67.7525 364.773 66.9902C364.563 66.2278 364.505 65.4315 364.602 64.6468C364.7 63.862 364.951 63.1042 365.342 62.4166C365.733 61.729 366.255 61.1251 366.879 60.6395L375.262 54.1281C375.418 54.0278 375.607 53.989 375.79 54.0193C375.974 54.0496 376.139 54.1468 376.255 54.292Z" fill="#EBEBEB"/>
<path d="M381.137 63.8225L374.654 55.4975C374.595 55.4202 374.551 55.332 374.525 55.2378C374.5 55.1436 374.493 55.0454 374.506 54.9486C374.518 54.8519 374.55 54.7586 374.598 54.674C374.647 54.5894 374.712 54.5152 374.789 54.4557L383.162 47.9443C383.785 47.4585 384.498 47.1003 385.26 46.8902C386.021 46.6801 386.817 46.6223 387.601 46.7199C388.385 46.8176 389.142 47.0689 389.828 47.4594C390.515 47.8499 391.118 48.372 391.603 48.9958C392.089 49.6196 392.447 50.333 392.658 51.0954C392.868 51.8577 392.926 52.6541 392.828 53.4388C392.731 54.2236 392.479 54.9814 392.089 55.669C391.698 56.3566 391.176 56.9605 390.552 57.4461L382.178 63.9382C382.025 64.0606 381.829 64.1172 381.634 64.0955C381.438 64.0738 381.26 63.9756 381.137 63.8225Z" fill="#E0E0E0"/>
<path d="M4.94187 251.814L14.8681 255.421C15.0546 255.491 15.206 255.631 15.2892 255.812C15.3723 255.993 15.3805 256.199 15.3119 256.386L11.6848 266.351C11.4154 267.095 11.0021 267.778 10.4683 268.362C9.93456 268.947 9.29089 269.42 8.57414 269.755C7.85738 270.09 7.0816 270.28 6.29116 270.315C5.50072 270.35 4.71114 270.229 3.96757 269.959C2.46667 269.413 1.24379 268.293 0.567376 266.846C-0.109034 265.4 -0.183698 263.743 0.359777 262.242L3.98687 252.277C4.01829 252.183 4.0681 252.096 4.13339 252.022C4.19867 251.948 4.27811 251.888 4.36706 251.844C4.456 251.801 4.55265 251.776 4.65136 251.771C4.75006 251.766 4.84883 251.78 4.94187 251.814Z" fill="#EBEBEB"/>
<path d="M14.1736 257.322L4.25697 253.714C4.16303 253.682 4.07661 253.631 4.00293 253.565C3.92926 253.498 3.86987 253.417 3.82838 253.327C3.78688 253.237 3.76415 253.139 3.76154 253.04C3.75894 252.941 3.77652 252.842 3.81323 252.75L7.44032 242.775C7.70955 242.031 8.12299 241.348 8.65693 240.764C9.19086 240.18 9.83479 239.708 10.5518 239.373C11.2688 239.039 12.0447 238.85 12.835 238.816C13.6254 238.782 14.4147 238.905 15.1575 239.177C15.9014 239.446 16.5848 239.86 17.1685 240.393C17.7522 240.927 18.2248 241.571 18.5591 242.288C18.8934 243.005 19.0828 243.781 19.1166 244.572C19.1503 245.362 19.0277 246.151 18.7557 246.894L15.1286 256.869C15.061 257.055 14.9229 257.206 14.7441 257.291C14.5654 257.376 14.3604 257.387 14.1736 257.322Z" fill="#E0E0E0"/>
<path d="M421.363 442.989C421.363 443.133 328.91 443.239 214.927 443.239C100.944 443.239 8.49182 443.133 8.49182 442.989C8.49182 442.844 100.925 442.738 214.975 442.738C329.026 442.738 421.363 442.854 421.363 442.989Z" fill="#263238"/>
<path d="M342.541 16.8345H110.089C104.708 16.8345 100.346 21.1966 100.346 26.5775V339.848C100.346 345.229 104.708 349.591 110.089 349.591H342.541C347.922 349.591 352.284 345.229 352.284 339.848V26.5775C352.284 21.1966 347.922 16.8345 342.541 16.8345Z" fill="#455A64"/>
<path d="M335.402 32.5581H117.208V326.729H335.402V32.5581Z" fill="white"/>
<path d="M335.412 326.729C335.412 324.722 335.316 206.736 335.181 32.5102L335.412 32.7321H117.237L117.488 32.4813C117.488 142.191 117.488 243.846 117.488 326.7L117.276 326.488L335.48 326.7L117.276 326.902H117.073V326.7C117.073 243.894 117.073 142.239 117.025 32.4813V32.2305H117.304H335.48H335.701V32.462C335.509 206.707 335.412 324.722 335.412 326.729Z" fill="#263238"/>
<path d="M259.639 61.0347H222.191V70.305H259.639V61.0347Z" fill="#E0E0E0"/>
<path d="M314.556 66.8905C314.556 67.0352 304.312 67.1413 291.675 67.1413C279.038 67.1413 268.803 67.0352 268.803 66.8905C268.803 66.7458 279.038 66.6396 291.675 66.6396C304.312 66.6396 314.556 66.7554 314.556 66.8905Z" fill="#263238"/>
<path d="M313.698 78.0129C313.698 78.1479 293.209 78.2637 267.944 78.2637C242.68 78.2637 222.191 78.1479 222.191 78.0129C222.191 77.8778 242.671 77.7524 267.944 77.7524C293.218 77.7524 313.698 77.8682 313.698 78.0129Z" fill="#263238"/>
<path d="M313.698 88.9031C313.698 89.0382 293.209 89.154 267.944 89.154C242.68 89.154 222.191 89.0382 222.191 88.9031C222.191 88.7681 242.671 88.6523 267.944 88.6523C293.218 88.6523 313.698 88.7585 313.698 88.9031Z" fill="#263238"/>
<path d="M327.975 117.959C327.975 118.094 282.453 118.21 226.32 118.21C170.187 118.21 124.655 118.094 124.655 117.959C124.655 117.824 170.158 117.698 226.32 117.698C282.482 117.698 327.975 117.795 327.975 117.959Z" fill="#263238"/>
<path d="M327.975 282.393C327.975 282.528 282.453 282.644 226.32 282.644C170.187 282.644 124.655 282.528 124.655 282.393C124.655 282.258 170.158 282.143 226.32 282.143C282.482 282.143 327.975 282.249 327.975 282.393Z" fill="#263238"/>
<path d="M204.133 134.58H141.401V146.348H204.133V134.58Z" fill="#E0E0E0"/>
<path d="M168.556 299.178H141.401V310.947H168.556V299.178Z" fill="#E0E0E0"/>
<path d="M259.735 299.178H232.58V310.947H259.735V299.178Z" fill="#E0E0E0"/>
<path d="M214.069 307.329C214.069 307.474 205.589 307.58 195.133 307.58C184.676 307.58 176.187 307.474 176.187 307.329C176.187 307.184 184.666 307.078 195.133 307.078C205.599 307.078 214.069 307.194 214.069 307.329Z" fill="#263238"/>
<path d="M311.576 307.329C311.576 307.474 303.096 307.58 292.639 307.58C282.183 307.58 273.694 307.474 273.694 307.329C273.694 307.184 282.173 307.078 292.639 307.078C303.106 307.078 311.576 307.194 311.576 307.329Z" fill="#263238"/>
<path d="M309.328 164.07C309.328 164.205 272.16 164.32 226.368 164.32C180.576 164.32 143.408 164.205 143.408 164.07C143.408 163.935 180.557 163.819 226.368 163.819C272.179 163.819 309.328 163.925 309.328 164.07Z" fill="#263238"/>
<path d="M312.55 177.497C312.55 177.642 274.668 177.748 227.95 177.748C181.232 177.748 143.34 177.642 143.34 177.497C143.34 177.352 181.213 177.246 227.95 177.246C274.687 177.246 312.55 177.362 312.55 177.497Z" fill="#263238"/>
<path d="M225.365 190.935C225.365 191.07 206.564 191.186 183.383 191.186C160.202 191.186 141.401 191.07 141.401 190.935C141.401 190.8 160.193 190.684 183.383 190.684C206.573 190.684 225.365 190.79 225.365 190.935Z" fill="#263238"/>
<path d="M311.305 239.65C311.305 239.65 311.122 239.727 310.746 239.843L309.106 240.344C306.987 240.975 304.832 241.477 302.653 241.849C301.079 242.126 299.485 242.278 297.887 242.302C295.976 242.34 294.069 242.103 292.225 241.598C290.101 240.991 288.144 239.905 286.504 238.425C284.656 236.736 283.44 234.465 283.06 231.99C282.862 230.653 283.025 229.288 283.533 228.035C284.102 226.733 285.033 225.621 286.215 224.833C286.826 224.409 287.515 224.112 288.242 223.958C288.969 223.804 289.72 223.796 290.45 223.935C291.189 224.117 291.884 224.445 292.495 224.9C293.09 225.398 293.588 226.004 293.961 226.685C294.67 228.096 295.025 229.659 294.993 231.238C295 232.854 294.706 234.457 294.125 235.965C292.866 239.086 290.79 241.812 288.115 243.856C285.313 246.033 281.985 247.431 278.469 247.907C276.666 248.164 274.834 248.141 273.038 247.84C272.126 247.693 271.226 247.477 270.346 247.193C269.467 246.87 268.61 246.489 267.78 246.055C266.125 245.132 264.651 243.916 263.43 242.466C262.167 240.987 261.283 239.222 260.854 237.325C260.383 235.376 260.626 233.322 261.539 231.537C262.446 229.73 263.948 228.292 265.793 227.466C266.727 227.044 267.752 226.864 268.774 226.945C269.787 227.046 270.755 227.412 271.581 228.006C273.15 229.25 274.232 231.005 274.639 232.965C275.083 234.841 275.187 236.782 274.948 238.695C274.759 240.568 274.341 242.412 273.703 244.184C272.52 247.68 270.429 250.799 267.645 253.222C264.94 255.544 261.556 256.928 257.999 257.168C254.713 257.502 251.416 256.656 248.697 254.781C245.978 252.905 244.016 250.123 243.162 246.933C242.29 244.085 242.405 241.025 243.49 238.251C244.001 236.927 244.878 235.776 246.018 234.933C246.588 234.516 247.249 234.241 247.947 234.132C248.633 234.031 249.333 234.163 249.934 234.508C250.485 234.867 250.945 235.347 251.28 235.913C251.615 236.478 251.814 237.113 251.864 237.769C252.025 238.967 251.976 240.185 251.719 241.367C251.338 243.522 250.69 245.622 249.79 247.618C249.01 249.35 248.039 250.991 246.896 252.508C245.94 253.794 244.861 254.983 243.674 256.058C242.055 257.569 240.229 258.842 238.252 259.84C237.745 260.11 237.224 260.352 236.69 260.563L236.14 260.776L236.67 260.515C237.018 260.341 237.558 260.129 238.214 259.753C240.157 258.712 241.952 257.414 243.548 255.894C246.082 253.507 248.126 250.65 249.568 247.483C250.468 245.511 251.117 243.433 251.497 241.299C251.733 240.147 251.775 238.964 251.623 237.798C251.576 237.197 251.393 236.616 251.089 236.096C250.785 235.576 250.367 235.132 249.867 234.797C249.332 234.492 248.71 234.377 248.102 234.469C247.475 234.581 246.883 234.839 246.375 235.222C245.293 236.024 244.463 237.118 243.982 238.376C242.938 241.074 242.839 244.046 243.703 246.807C244.541 249.894 246.448 252.584 249.084 254.396C251.719 256.209 254.913 257.027 258.095 256.705C261.545 256.456 264.822 255.103 267.443 252.846C270.16 250.477 272.198 247.427 273.346 244.01C273.967 242.271 274.375 240.464 274.562 238.627C274.792 236.771 274.688 234.889 274.253 233.071C273.871 231.224 272.846 229.573 271.359 228.411C270.6 227.865 269.709 227.531 268.778 227.445C267.847 227.358 266.91 227.522 266.063 227.919C264.321 228.705 262.904 230.068 262.05 231.778C261.194 233.454 260.968 235.381 261.414 237.209C261.88 238.999 262.714 240.671 263.863 242.12C265.013 243.568 266.452 244.761 268.089 245.621C268.892 246.039 269.72 246.406 270.568 246.721C273.114 247.55 275.816 247.791 278.469 247.425C280.191 247.185 281.874 246.721 283.475 246.045C285.04 245.378 286.515 244.516 287.864 243.479C290.48 241.481 292.509 238.815 293.739 235.762C294.304 234.307 294.595 232.76 294.598 231.199C294.632 229.693 294.301 228.2 293.633 226.849C293.284 226.218 292.827 225.653 292.283 225.18C291.727 224.735 291.087 224.407 290.401 224.215C289.723 224.085 289.026 224.092 288.35 224.234C287.674 224.376 287.034 224.652 286.466 225.045C285.342 225.784 284.458 226.832 283.919 228.064C283.429 229.257 283.266 230.559 283.446 231.836C283.813 234.233 284.983 236.433 286.765 238.077C288.364 239.533 290.274 240.605 292.35 241.212C294.164 241.723 296.042 241.969 297.926 241.946C299.513 241.935 301.096 241.8 302.662 241.54C304.837 241.184 306.991 240.714 309.116 240.132L310.775 239.679L311.305 239.65Z" fill="#263238"/>
<path d="M262.716 14.0078H189.904V41.8476H262.716V14.0078Z" fill="#E0E0E0"/>
<path d="M262.716 41.8382C262.716 41.8382 262.716 41.6646 262.716 41.3366C262.716 41.0086 262.716 40.5167 262.716 39.8896C262.716 38.6067 262.716 36.7545 262.716 34.3622C262.716 29.5389 262.658 22.6224 262.62 14.0081L262.793 14.1817L189.991 14.2589L190.242 14.0081C190.242 23.7317 190.242 33.1371 190.242 41.8382L190.001 41.5971L242.092 41.7128L257.266 41.7804H261.346H262.407H262.774C262.662 41.7899 262.549 41.7899 262.436 41.7804H261.404H257.381L242.256 41.8479L189.962 41.954H189.721V41.7128C189.721 33.031 189.721 23.6063 189.721 13.8826L189.972 13.6318L262.774 13.709H262.948V13.8826C262.948 22.5645 262.88 29.51 262.851 34.3429C262.851 36.7159 262.851 38.5584 262.851 39.8318C262.851 40.4395 262.851 40.9122 262.851 41.2498C262.851 41.5874 262.716 41.8382 262.716 41.8382Z" fill="#263238"/>
<path d="M349.92 442.564H302.768C301.757 442.564 300.785 442.167 300.063 441.458C299.342 440.749 298.927 439.785 298.91 438.773L297.771 311.603H352.583L353.721 438.696C353.724 439.711 353.326 440.686 352.615 441.41C351.904 442.134 350.935 442.549 349.92 442.564Z" fill="#65A999"/>
<g opacity="0.3">
<path opacity="0.3" d="M342.985 339.829V437.732C342.985 437.732 350.702 440.298 351.078 433.545C351.454 426.793 351.252 339.81 351.252 339.81L342.985 339.829Z" fill="white"/>
</g>
<path d="M347.412 305.15H303.038C302.271 305.15 301.535 305.455 300.992 305.998C300.449 306.54 300.144 307.276 300.144 308.044V310.89H350.306V307.996C350.294 307.237 349.983 306.513 349.442 305.98C348.9 305.448 348.172 305.15 347.412 305.15Z" fill="#FAFAFA"/>
<path d="M347.412 305.149C347.572 305.126 347.735 305.126 347.895 305.149C348.371 305.209 348.823 305.392 349.207 305.68C349.525 305.916 349.792 306.213 349.993 306.554C350.193 306.896 350.323 307.274 350.374 307.667C350.374 308.632 350.374 309.596 350.374 310.831V310.947H350.248C341.055 311.014 323.296 311.072 302.981 311.072H299.845V308.13C299.83 307.651 299.924 307.175 300.12 306.737C300.315 306.299 300.607 305.911 300.974 305.603C301.341 305.297 301.773 305.079 302.238 304.966C302.683 304.886 303.136 304.857 303.588 304.879H306.154H315.907L332.306 304.937L343.332 305.014H346.322H347.094H347.354H347.094H346.322H343.332L332.306 305.091L315.907 305.149H306.154H303.588C303.175 305.125 302.76 305.151 302.353 305.227C301.965 305.324 301.603 305.505 301.292 305.757C299.903 306.809 300.463 308.834 300.328 310.58L300.077 310.33H302.971C323.315 310.33 341.075 310.378 350.239 310.455L350.113 310.58C350.113 309.394 350.113 308.323 350.113 307.445C350.076 307.07 349.964 306.705 349.784 306.374C349.603 306.042 349.357 305.751 349.062 305.516C348.553 305.252 347.985 305.125 347.412 305.149Z" fill="#263238"/>
<path d="M355.834 309.51H294.569C293.162 309.51 292.022 310.65 292.022 312.056V337.263C292.022 338.669 293.162 339.809 294.569 339.809H355.834C357.24 339.809 358.38 338.669 358.38 337.263V312.056C358.38 310.65 357.24 309.51 355.834 309.51Z" fill="#FAFAFA"/>
<path d="M355.834 339.829C355.834 339.829 356.007 339.829 356.316 339.752C356.779 339.655 357.204 339.427 357.541 339.096C358.67 338.247 358.216 336.202 358.284 333.858C358.284 329.035 358.236 322.137 358.207 313.6C358.207 313.07 358.207 312.529 358.207 311.98C358.19 311.464 358.004 310.969 357.676 310.571C357.335 310.166 356.871 309.881 356.355 309.761C355.797 309.7 355.236 309.684 354.676 309.713H347.403H331.351H294.588C294.22 309.71 293.857 309.797 293.529 309.965C293.202 310.132 292.92 310.377 292.707 310.677C292.5 310.963 292.365 311.294 292.311 311.642C292.292 312.034 292.292 312.427 292.311 312.819V326.999C292.311 330.067 292.311 333.086 292.311 336.048V337.157C292.313 337.49 292.385 337.819 292.524 338.122C292.661 338.422 292.861 338.69 293.111 338.906C293.36 339.122 293.654 339.283 293.971 339.376C294.3 339.467 294.643 339.5 294.984 339.472H298.186L328.216 339.52L348.473 339.607H353.972H355.409H355.892H355.409H353.972L348.473 339.655L328.216 339.733L298.186 339.79H294.984C294.6 339.818 294.215 339.779 293.845 339.675C293.462 339.564 293.107 339.373 292.804 339.113C292.501 338.853 292.258 338.532 292.09 338.17C291.926 337.802 291.84 337.405 291.839 337.003V335.893C291.839 332.935 291.839 329.919 291.839 326.845C291.839 323.768 291.839 320.633 291.839 317.459V312.636C291.839 312.221 291.839 311.845 291.839 311.391C291.905 310.947 292.073 310.524 292.331 310.156C292.589 309.791 292.932 309.493 293.33 309.289C293.728 309.084 294.169 308.978 294.617 308.98H331.38H347.432H354.705C355.294 308.95 355.885 308.972 356.47 309.047C357.068 309.198 357.602 309.536 357.995 310.012C358.368 310.479 358.581 311.054 358.602 311.652V313.282C358.602 321.809 358.535 328.716 358.515 333.54C358.515 334.726 358.515 335.787 358.515 336.713C358.545 337.111 358.484 337.51 358.337 337.881C358.19 338.252 357.961 338.585 357.667 338.855C357.311 339.188 356.864 339.406 356.384 339.482C356.226 339.634 356.039 339.752 355.834 339.829Z" fill="#263238"/>
<path d="M295.881 339.308C295.736 339.308 295.63 332.854 295.63 324.906C295.63 316.957 295.736 310.494 295.881 310.494C296.025 310.494 296.131 316.947 296.131 324.906C296.131 332.864 296.016 339.308 295.881 339.308Z" fill="#263238"/>
<path d="M300.897 339.308C300.752 339.308 300.646 332.854 300.646 324.906C300.646 316.957 300.752 310.494 300.897 310.494C301.042 310.494 301.148 316.947 301.148 324.906C301.148 332.864 301.032 339.308 300.897 339.308Z" fill="#263238"/>
<path d="M305.913 339.308C305.778 339.308 305.662 332.854 305.662 324.906C305.662 316.957 305.778 310.494 305.913 310.494C306.048 310.494 306.164 316.947 306.164 324.906C306.164 332.864 306.048 339.308 305.913 339.308Z" fill="#263238"/>
<path d="M310.929 339.308C310.794 339.308 310.678 332.854 310.678 324.906C310.678 316.957 310.794 310.494 310.929 310.494C311.064 310.494 311.18 316.947 311.18 324.906C311.18 332.864 311.074 339.308 310.929 339.308Z" fill="#263238"/>
<path d="M315.955 339.308C315.81 339.308 315.704 332.854 315.704 324.906C315.704 316.957 315.81 310.494 315.955 310.494C316.1 310.494 316.206 316.947 316.206 324.906C316.206 332.864 316.09 339.308 315.955 339.308Z" fill="#263238"/>
<path d="M320.971 339.308C320.827 339.308 320.72 332.854 320.72 324.906C320.72 316.957 320.827 310.494 320.971 310.494C321.116 310.494 321.222 316.947 321.222 324.906C321.222 332.864 321.106 339.308 320.971 339.308Z" fill="#263238"/>
<path d="M325.987 339.308C325.852 339.308 325.737 332.854 325.737 324.906C325.737 316.957 325.852 310.494 325.987 310.494C326.123 310.494 326.238 316.947 326.238 324.906C326.238 332.864 326.123 339.308 325.987 339.308Z" fill="#263238"/>
<path d="M331.004 339.308C330.869 339.308 330.753 332.854 330.753 324.906C330.753 316.957 330.869 310.494 331.004 310.494C331.139 310.494 331.254 316.947 331.254 324.906C331.254 332.864 331.148 339.308 331.004 339.308Z" fill="#263238"/>
<path d="M336.02 339.308C335.885 339.308 335.769 332.854 335.769 324.906C335.769 316.957 335.885 310.494 336.02 310.494C336.155 310.494 336.28 316.947 336.28 324.906C336.28 332.864 336.165 339.308 336.02 339.308Z" fill="#263238"/>
<path d="M341.046 339.308C340.901 339.308 340.795 332.854 340.795 324.906C340.795 316.957 340.901 310.494 341.046 310.494C341.19 310.494 341.296 316.947 341.296 324.906C341.296 332.864 341.181 339.308 341.046 339.308Z" fill="#263238"/>
<path d="M346.062 339.308C345.927 339.308 345.811 332.854 345.811 324.906C345.811 316.957 345.927 310.494 346.062 310.494C346.197 310.494 346.313 316.947 346.313 324.906C346.313 332.864 346.197 339.308 346.062 339.308Z" fill="#263238"/>
<path d="M351.078 339.308C350.943 339.308 350.827 332.854 350.827 324.906C350.827 316.957 350.943 310.494 351.078 310.494C351.213 310.494 351.329 316.947 351.329 324.906C351.329 332.864 351.223 339.308 351.078 339.308Z" fill="#263238"/>
<path d="M356.094 339.308C355.959 339.308 355.843 332.854 355.843 324.906C355.843 316.957 355.959 310.494 356.094 310.494C356.229 310.494 356.345 316.947 356.345 324.906C356.345 332.864 356.239 339.308 356.094 339.308Z" fill="#263238"/>
<path d="M349.544 362.633H302.093V400.63H349.544V362.633Z" fill="white"/>
<path d="M310.244 374.73L309.135 373.129H307.92V374.73H306.569V369H309.048C309.499 368.989 309.947 369.078 310.36 369.26C310.714 369.407 311.016 369.655 311.228 369.974C311.435 370.307 311.539 370.692 311.527 371.084C311.538 371.473 311.43 371.856 311.219 372.183C311.005 372.499 310.703 372.744 310.35 372.887L311.633 374.73H310.244ZM309.907 370.341C309.644 370.151 309.323 370.059 309 370.08H307.92V372.077H309C309.323 372.099 309.644 372.007 309.907 371.817C310.005 371.721 310.083 371.606 310.136 371.479C310.19 371.352 310.217 371.216 310.217 371.079C310.217 370.941 310.19 370.805 310.136 370.678C310.083 370.552 310.005 370.437 309.907 370.341Z" fill="#263238"/>
<path d="M313.138 378.685L311.826 376.804L310.543 378.685H309.106L311.113 375.926L309.183 373.264H310.611L311.855 375.019L313.08 373.264H314.441L312.511 375.878L314.527 378.685H313.138Z" fill="#263238"/>
<path d="M346.062 368.99H318.965V373.109H346.062V368.99Z" fill="#E0E0E0"/>
<path d="M342.985 383.334C342.985 383.469 335.074 383.585 325.312 383.585C315.55 383.585 307.64 383.469 307.64 383.334C307.64 383.199 315.55 383.083 325.312 383.083C335.074 383.083 342.985 383.238 342.985 383.334Z" fill="#263238"/>
<path d="M342.985 387.618C342.985 387.762 335.074 387.868 325.312 387.868C315.55 387.868 307.64 387.762 307.64 387.618C307.64 387.473 315.55 387.367 325.312 387.367C335.074 387.367 342.985 387.482 342.985 387.618Z" fill="#263238"/>
<path d="M323.393 392.991H305.083V396.521H323.393V392.991Z" fill="#E0E0E0"/>
<path d="M348.464 399.454C348.464 399.454 348.464 399.222 348.464 398.778C348.464 398.335 348.464 397.679 348.464 396.849C348.464 395.142 348.464 392.682 348.416 389.547C348.416 383.257 348.348 374.305 348.309 363.501L348.512 363.713H303.029C302.971 363.761 303.501 363.241 303.28 363.472V373.041C303.28 376.186 303.28 379.273 303.28 382.283C303.28 388.312 303.28 394.061 303.28 399.415L303.058 399.193L335.856 399.309L345.174 399.367H347.663H348.531C348.531 399.367 348.473 399.367 348.329 399.367H347.711H345.271L336.001 399.425L303.048 399.54H302.826V399.309C302.826 393.955 302.826 388.206 302.826 382.177C302.826 379.167 302.826 376.08 302.826 372.935V363.366C302.604 363.578 303.135 363.048 303.077 363.106H348.56H348.772V363.318C348.772 374.17 348.686 383.18 348.666 389.498C348.666 392.605 348.618 395.055 348.608 396.753C348.608 397.563 348.608 398.19 348.608 398.682C348.608 399.174 348.464 399.454 348.464 399.454Z" fill="#263238"/>
<path d="M300.897 432.194C300.752 432.194 300.646 412.36 300.646 387.897C300.646 363.433 300.752 343.6 300.897 343.6C301.042 343.6 301.148 363.433 301.148 387.897C301.148 412.36 301.032 432.194 300.897 432.194Z" fill="white"/>
<path d="M349.592 440.5C349.592 440.635 339.242 440.751 326.441 440.751C313.64 440.751 303.289 440.635 303.289 440.5C303.289 440.365 313.64 440.249 326.441 440.249C339.242 440.249 349.592 440.365 349.592 440.5Z" fill="#263238"/>
<path d="M396.619 442.506H358.419C357.6 442.506 356.814 442.183 356.233 441.607C355.651 441.031 355.32 440.248 355.313 439.429L354.348 336.414H398.722L399.639 439.371C399.649 440.186 399.338 440.972 398.773 441.559C398.207 442.146 397.434 442.486 396.619 442.506Z" fill="#455A64"/>
<g opacity="0.3">
<path opacity="0.3" d="M390.995 359.257V438.59C390.995 438.59 397.246 440.664 397.555 435.194C397.864 429.725 397.69 359.257 397.69 359.257H390.995Z" fill="white"/>
</g>
<path d="M394.034 331.147H359.143C358.375 331.147 357.639 331.452 357.096 331.995C356.553 332.537 356.249 333.273 356.249 334.041V335.768H396.899V334.041C396.899 333.278 396.598 332.547 396.062 332.005C395.525 331.463 394.796 331.155 394.034 331.147Z" fill="#FAFAFA"/>
<path d="M394.034 331.147C394.172 331.128 394.311 331.128 394.449 331.147C394.86 331.182 395.257 331.314 395.606 331.533C396.187 331.886 396.629 332.427 396.86 333.067C396.993 333.474 397.051 333.902 397.034 334.33C397.034 334.784 397.034 335.295 397.034 335.758V335.97H396.909C389.394 336.047 375.281 336.096 359.143 336.096H355.998V335.845C355.998 335.112 355.998 334.446 355.998 333.674C356.108 332.917 356.492 332.226 357.077 331.732C357.661 331.238 358.406 330.975 359.171 330.993H361.217H368.982L382.043 331.041L390.793 331.118L393.166 331.166C393.44 331.161 393.714 331.177 393.986 331.214C393.713 331.235 393.439 331.235 393.166 331.214L390.793 331.263L382.043 331.34L368.982 331.398H359.22C358.58 331.382 357.957 331.598 357.464 332.005C356.96 332.419 356.632 333.009 356.548 333.655C356.49 334.292 356.548 335.054 356.548 335.758L356.297 335.507H359.191C375.329 335.507 389.442 335.555 396.957 335.632L396.831 335.758C396.831 335.256 396.831 334.793 396.831 334.33C396.863 333.927 396.817 333.52 396.696 333.134C396.501 332.525 396.102 332 395.568 331.648C395.103 331.363 394.578 331.191 394.034 331.147Z" fill="#263238"/>
<path d="M400.931 334.716H352.265C350.858 334.716 349.718 335.856 349.718 337.263V356.72C349.718 358.126 350.858 359.267 352.265 359.267H400.931C402.338 359.267 403.478 358.126 403.478 356.72V337.263C403.478 335.856 402.338 334.716 400.931 334.716Z" fill="#FAFAFA"/>
<path d="M400.922 359.257C401.434 359.22 401.926 359.046 402.349 358.756C402.839 358.392 403.181 357.865 403.314 357.27C403.375 356.881 403.391 356.486 403.362 356.093C403.362 355.669 403.362 355.206 403.362 354.733C403.362 350.874 403.314 345.289 403.285 338.421C403.285 337.996 403.285 337.543 403.285 337.118C403.259 336.704 403.123 336.304 402.889 335.961C402.65 335.603 402.318 335.316 401.929 335.131C401.541 334.946 401.109 334.87 400.68 334.909H394.815H381.889H352.265C351.67 334.911 351.098 335.143 350.67 335.557C350.243 335.971 349.991 336.533 349.969 337.128C349.969 338.421 349.969 339.704 349.969 340.987V348.55C349.969 351.032 349.969 353.463 349.969 355.842C349.916 356.404 349.972 356.97 350.133 357.511C350.336 358.007 350.7 358.421 351.165 358.688C351.651 358.93 352.196 359.031 352.737 358.977H354.454L378.648 359.035L394.96 359.112H399.397H400.545H400.941H400.545H399.397L394.96 359.161L378.648 359.238L354.454 359.296H352.737C352.135 359.403 351.514 359.343 350.943 359.122C350.381 358.802 349.943 358.303 349.699 357.704C349.58 357.396 349.514 357.07 349.506 356.739V355.842C349.506 353.463 349.506 351.032 349.506 348.55V337.167C349.533 336.442 349.84 335.757 350.361 335.253C350.882 334.75 351.578 334.468 352.303 334.466H381.928H394.854H400.719C401.211 334.441 401.702 334.542 402.144 334.76C402.587 334.977 402.966 335.305 403.246 335.71C403.508 336.111 403.657 336.573 403.68 337.051C403.68 337.514 403.68 337.938 403.68 338.372C403.68 345.241 403.613 350.807 403.594 354.685C403.594 355.157 403.594 355.649 403.594 356.045C403.613 356.448 403.587 356.853 403.516 357.251C403.367 357.882 402.984 358.433 402.446 358.794C402.121 359.016 401.747 359.155 401.356 359.199C401.216 359.244 401.069 359.264 400.922 359.257Z" fill="#263238"/>
<path d="M352.872 358.852C352.737 358.852 352.621 353.633 352.621 347.189C352.621 340.745 352.737 335.517 352.872 335.517C353.007 335.517 353.123 340.735 353.123 347.189C353.123 353.642 352.969 358.852 352.872 358.852Z" fill="#263238"/>
<path d="M356.895 358.852C356.76 358.852 356.644 353.633 356.644 347.189C356.644 340.745 356.76 335.517 356.895 335.517C357.03 335.517 357.146 340.735 357.146 347.189C357.146 353.642 357.04 358.852 356.895 358.852Z" fill="#263238"/>
<path d="M360.966 358.852C360.821 358.852 360.715 353.633 360.715 347.189C360.715 340.745 360.821 335.517 360.966 335.517C361.11 335.517 361.217 340.735 361.217 347.189C361.217 353.642 361.101 358.852 360.966 358.852Z" fill="#263238"/>
<path d="M365.027 358.852C364.892 358.852 364.776 353.633 364.776 347.189C364.776 340.745 364.892 335.517 365.027 335.517C365.162 335.517 365.278 340.735 365.278 347.189C365.278 353.642 365.172 358.852 365.027 358.852Z" fill="#263238"/>
<path d="M369.098 358.852C368.953 358.852 368.847 353.633 368.847 347.189C368.847 340.745 368.953 335.517 369.098 335.517C369.242 335.517 369.349 340.735 369.349 347.189C369.349 353.642 369.271 358.852 369.098 358.852Z" fill="#263238"/>
<path d="M373.13 358.852C372.995 358.852 372.879 353.633 372.879 347.189C372.879 340.745 372.995 335.517 373.13 335.517C373.265 335.517 373.381 340.735 373.381 347.189C373.381 353.642 373.304 358.852 373.13 358.852Z" fill="#263238"/>
<path d="M377.23 358.852C377.085 358.852 376.979 353.633 376.979 347.189C376.979 340.745 377.085 335.517 377.23 335.517C377.374 335.517 377.481 340.735 377.481 347.189C377.481 353.642 377.365 358.852 377.23 358.852Z" fill="#263238"/>
<path d="M381.291 358.852C381.156 358.852 381.04 353.633 381.04 347.189C381.04 340.745 381.156 335.517 381.291 335.517C381.426 335.517 381.542 340.735 381.542 347.189C381.542 353.642 381.426 358.852 381.291 358.852Z" fill="#263238"/>
<path d="M385.362 358.852C385.217 358.852 385.101 353.633 385.101 347.189C385.101 340.745 385.217 335.517 385.362 335.517C385.506 335.517 385.613 340.735 385.613 347.189C385.613 353.642 385.497 358.852 385.362 358.852Z" fill="#263238"/>
<path d="M389.423 358.852C389.288 358.852 389.172 353.633 389.172 347.189C389.172 340.745 389.288 335.517 389.423 335.517C389.558 335.517 389.674 340.735 389.674 347.189C389.674 353.642 389.529 358.852 389.423 358.852Z" fill="#263238"/>
<path d="M393.484 358.852C393.349 358.852 393.233 353.633 393.233 347.189C393.233 340.745 393.349 335.517 393.484 335.517C393.619 335.517 393.735 340.735 393.735 347.189C393.735 353.642 393.629 358.852 393.484 358.852Z" fill="#263238"/>
<path d="M397.555 358.852C397.41 358.852 397.304 353.633 397.304 347.189C397.304 340.745 397.41 335.517 397.555 335.517C397.7 335.517 397.806 340.735 397.806 347.189C397.806 353.642 397.69 358.852 397.555 358.852Z" fill="#263238"/>
<path d="M401.616 358.852C401.481 358.852 401.365 353.633 401.365 347.189C401.365 340.745 401.481 335.517 401.616 335.517C401.751 335.517 401.867 340.735 401.867 347.189C401.867 353.642 401.761 358.852 401.616 358.852Z" fill="#263238"/>
<path d="M396.311 377.749H357.869V408.531H396.311V377.749Z" fill="white"/>
<path d="M364.448 387.55L363.561 386.257H362.596V387.55H361.554V382.91H363.483C363.851 382.901 364.216 382.97 364.554 383.113C364.839 383.235 365.081 383.44 365.249 383.701C365.412 383.97 365.499 384.279 365.499 384.593C365.499 384.908 365.412 385.217 365.249 385.486C365.076 385.741 364.831 385.94 364.545 386.055L365.586 387.55H364.448ZM364.178 383.99C363.964 383.842 363.705 383.77 363.445 383.788H362.567V385.399H363.483C363.745 385.419 364.006 385.343 364.217 385.187C364.303 385.114 364.37 385.022 364.414 384.918C364.457 384.814 364.476 384.701 364.467 384.588C364.473 384.475 364.451 384.361 364.404 384.257C364.357 384.153 364.286 384.062 364.197 383.99H364.178Z" fill="#263238"/>
<path d="M366.821 390.752L365.76 389.228L364.718 390.752H363.551L365.172 388.514L363.628 386.363H364.786L365.75 387.781L366.715 386.363H367.815L366.377 388.476L368.008 390.752H366.821Z" fill="#263238"/>
<path d="M393.484 382.9H371.538V386.238H393.484V382.9Z" fill="#E0E0E0"/>
<path d="M390.995 394.515C390.995 394.66 384.59 394.766 376.68 394.766C368.77 394.766 362.364 394.66 362.364 394.515C362.364 394.37 368.77 394.264 376.68 394.264C384.59 394.264 390.995 394.38 390.995 394.515Z" fill="#263238"/>
<path d="M390.995 397.997C390.995 398.132 384.59 398.248 376.68 398.248C368.77 398.248 362.364 398.132 362.364 397.997C362.364 397.862 368.77 397.747 376.68 397.747C384.59 397.747 390.995 397.853 390.995 397.997Z" fill="#263238"/>
<path d="M375.127 402.338H360.29V405.194H375.127V402.338Z" fill="#E0E0E0"/>
<path d="M395.433 407.586C395.433 407.586 395.433 407.384 395.433 407.027C395.433 406.67 395.433 406.12 395.433 405.464C395.433 404.065 395.433 402.068 395.384 399.541C395.384 394.438 395.317 387.193 395.278 378.454L395.481 378.666H358.641L358.892 378.415V382.274C358.892 383.576 358.892 384.859 358.892 386.132V393.618C358.892 398.499 358.892 403.149 358.892 407.499L358.67 407.268L385.227 407.384L392.79 407.441H394.806H395.327H395.51H394.854H392.925L385.41 407.499L358.708 407.615H358.477V407.393C358.477 403.043 358.477 398.393 358.477 393.512V378.27C358.255 378.492 358.786 377.962 358.737 378.02H395.577H395.79V378.415C395.79 387.203 395.703 394.505 395.684 399.637C395.684 402.146 395.635 404.123 395.626 405.502C395.626 406.149 395.626 406.66 395.626 407.036C395.577 407.225 395.512 407.409 395.433 407.586Z" fill="#263238"/>
<path d="M356.895 434.104C356.76 434.104 356.644 418.033 356.644 398.219C356.644 378.405 356.76 362.334 356.895 362.334C357.03 362.334 357.146 378.395 357.146 398.219C357.146 418.043 357.04 434.104 356.895 434.104Z" fill="white"/>
<path d="M396.349 440.828C396.349 440.973 387.957 441.079 377.616 441.079C367.274 441.079 358.892 440.973 358.892 440.828C358.892 440.683 367.274 440.577 377.616 440.577C387.957 440.577 396.349 440.693 396.349 440.828Z" fill="#263238"/>
<path d="M87.8923 401.306L81.4966 424.023C81.4966 424.023 101.88 438.319 101.098 442.631L57.689 431.47L66.2455 395.663L87.8923 401.306Z" fill="#455A64"/>
<path d="M68.5317 418.65C68.0771 418.68 67.6497 418.877 67.3312 419.203C67.0126 419.528 66.8253 419.96 66.8049 420.415C66.8067 420.871 66.9826 421.308 67.2964 421.638C67.6102 421.968 68.0383 422.166 68.4931 422.19C68.9763 422.164 69.432 421.957 69.7697 421.61C70.1074 421.263 70.3025 420.802 70.3163 420.319C70.2294 419.402 69.2359 418.447 68.387 418.669" fill="#E0E0E0"/>
<g opacity="0.6">
<path opacity="0.6" d="M57.689 431.471L58.6537 427.901L99.9215 439.911C99.9215 439.911 101.648 441.262 101.089 442.603L57.689 431.471Z" fill="white"/>
</g>
<path d="M82.2587 423.975C82.1911 424.197 81.1107 423.975 79.8953 424.448C78.6798 424.921 77.8984 425.654 77.7248 425.519C77.5512 425.384 78.1782 424.207 79.6541 423.715C81.13 423.223 82.3455 423.753 82.2587 423.975Z" fill="#263238"/>
<path d="M86.3391 427.072C86.3391 427.304 85.3745 427.429 84.4098 428.172C83.4452 428.915 83.0208 429.821 82.8085 429.754C82.5963 429.686 82.8085 428.432 83.9565 427.545C85.1044 426.657 86.3874 426.87 86.3391 427.072Z" fill="#263238"/>
<path d="M87.5932 433.323C87.3906 433.323 87.3617 432.165 88.1913 431.114C89.0209 430.062 90.1206 429.84 90.1785 430.043C90.2364 430.245 89.455 430.728 88.7797 431.606C88.1045 432.483 87.7765 433.4 87.5932 433.323Z" fill="#263238"/>
<path d="M83.1558 418.641C83.0111 418.814 82.114 418.265 80.8985 418.043C79.6831 417.821 78.6509 417.966 78.5834 417.744C78.5159 417.522 79.6059 416.991 81.0336 417.271C82.4613 417.551 83.3005 418.496 83.1558 418.641Z" fill="#263238"/>
<path d="M72.6701 406.66L71.7054 430.274C71.7054 430.274 94.8571 439.255 95.0307 443.644L50.2612 443.287L50.3577 406.418L72.6701 406.66Z" fill="#455A64"/>
<path d="M57.8337 428.182C57.3977 428.318 57.0266 428.609 56.7902 429C56.5539 429.391 56.4687 429.854 56.5507 430.304C56.6524 430.747 56.923 431.133 57.3049 431.38C57.6868 431.627 58.1499 431.715 58.5958 431.625C59.0585 431.48 59.4518 431.17 59.7008 430.754C59.9498 430.338 60.0371 429.844 59.9463 429.368C59.7923 428.922 59.4698 428.554 59.0479 428.343C58.6259 428.132 58.1381 428.095 57.689 428.239" fill="#E0E0E0"/>
<g opacity="0.6">
<path opacity="0.6" d="M50.213 443.288L50.3673 439.574L93.2364 441.3C93.2364 441.3 95.2236 442.207 94.9824 443.645L50.213 443.288Z" fill="white"/>
</g>
<path d="M72.3903 430.052C72.3903 430.274 71.2906 430.371 70.2006 431.075C69.1105 431.779 68.5414 432.724 68.3388 432.638C68.1362 432.551 68.4738 431.258 69.805 430.419C71.1363 429.58 72.4385 429.84 72.3903 430.052Z" fill="#263238"/>
<path d="M77.0688 432.079C77.0688 432.291 76.1717 432.667 75.4193 433.612C74.6668 434.558 74.4546 435.542 74.2328 435.542C74.0109 435.542 73.8855 434.259 74.8405 433.111C75.7955 431.963 77.0688 431.866 77.0688 432.079Z" fill="#263238"/>
<path d="M79.6927 437.857C79.4901 437.905 79.2007 436.786 79.7699 435.561C80.339 434.336 81.3616 433.854 81.458 434.047C81.5545 434.239 80.9082 434.886 80.4934 435.889C80.0786 436.892 79.876 437.838 79.6927 437.857Z" fill="#263238"/>
<path d="M72.0334 424.641C71.9465 424.844 70.9433 424.525 69.7085 424.641C68.4738 424.757 67.4995 425.114 67.3934 424.921C67.2873 424.728 68.2133 423.956 69.67 423.86C71.1266 423.763 72.1588 424.467 72.0334 424.641Z" fill="#263238"/>
<path d="M44.9749 233.823V252.498L49.8657 325.252C49.8657 325.252 46.8174 360.549 44.9459 380.479C43.3253 397.775 45.9781 427.911 45.9781 427.911H74.4739L84.6992 327.423L91.0273 264.721L102.063 236.225L44.9749 233.823Z" fill="#263238"/>
<path d="M120.015 237.074L114.555 338.584L85.7315 414.589L84.4002 419.161L67.3838 414.946L80.04 235.096L120.015 237.074Z" fill="#263238"/>
<path d="M90.9309 265.493C90.9413 265.634 90.9413 265.776 90.9309 265.917C90.9309 266.226 90.9309 266.631 90.9309 267.152C90.9309 268.271 90.8537 269.872 90.7862 271.917C90.6704 276.046 90.381 282.017 89.9759 289.397C89.1173 304.156 87.516 324.52 85.0079 346.938C82.4998 369.357 79.8277 389.595 77.8406 404.238C76.8759 411.531 76.0174 417.445 75.4482 421.602C75.1588 423.628 74.9273 425.21 74.773 426.31C74.6862 426.831 74.6283 427.274 74.58 427.535C74.5639 427.675 74.5348 427.814 74.4932 427.95V427.525C74.4932 427.226 74.58 426.821 74.6379 426.3C74.773 425.191 74.9659 423.609 75.2167 421.573C75.7376 417.454 76.4997 411.531 77.4451 404.21C79.3744 389.556 81.9886 369.318 84.4581 346.9C86.9276 324.481 88.6157 304.156 89.5707 289.406C90.0241 282.036 90.3714 276.065 90.5354 271.937C90.6415 269.891 90.7187 268.3 90.7765 267.181C90.7765 266.66 90.8344 266.216 90.8537 265.946C90.8629 265.793 90.8887 265.641 90.9309 265.493Z" fill="#455A64"/>
<path d="M92.7348 240.103C92.7272 240.391 92.6348 240.671 92.4691 240.907C92.3035 241.143 92.0719 241.325 91.8034 241.43C91.5349 241.535 91.2414 241.559 90.9595 241.498C90.6777 241.437 90.42 241.294 90.2188 241.088C90.0176 240.881 89.8817 240.62 89.8282 240.337C89.7747 240.053 89.8059 239.76 89.9179 239.495C90.0299 239.229 90.2178 239.002 90.458 238.843C90.6983 238.683 90.9802 238.598 91.2685 238.598C91.464 238.599 91.6572 238.639 91.8371 238.716C92.017 238.793 92.1798 238.904 92.3162 239.044C92.4526 239.184 92.5599 239.35 92.6317 239.532C92.7036 239.713 92.7386 239.908 92.7348 240.103Z" fill="#455A64"/>
<path d="M117.787 254.283C117.028 253.741 116.352 253.091 115.78 252.354C114.307 250.611 113.098 248.661 112.192 246.566C111.28 244.474 110.676 242.262 110.398 239.997C110.236 239.067 110.213 238.117 110.33 237.18C110.417 237.18 110.475 238.251 110.764 239.949C111.153 242.149 111.801 244.296 112.693 246.344C113.591 248.379 114.727 250.299 116.079 252.065C117.102 253.454 117.845 254.216 117.787 254.283Z" fill="#455A64"/>
<path d="M114.382 142.249C114.382 142.249 119.832 144.391 122.359 152.378C124.115 157.934 132.334 199.299 132.334 199.299L120.874 206.852L116.214 168.121L114.382 142.249Z" fill="#E0E0E0"/>
<path d="M70.7986 122.493L67.2102 128.859C67.2102 128.859 43.2193 141.053 43.3061 142.249C43.3061 142.249 44.647 187.761 44.8978 221.148C44.9942 233.756 44.5312 245.341 44.2804 250.907C43.6148 265.522 43.0939 322.291 43.0939 322.291L129.912 320.237L114.382 142.249L102.131 136.895L100.568 133.702L94.9439 129.129L70.7986 122.493Z" fill="#E0E0E0"/>
<path d="M108.816 320.71C108.828 320.581 108.828 320.452 108.816 320.324C108.816 320.044 108.816 319.668 108.767 319.195C108.709 318.163 108.632 316.697 108.526 314.825C108.304 311.015 107.976 305.536 107.561 298.793C106.742 285.23 105.632 266.535 104.368 245.882C103.105 225.228 102.102 206.533 101.32 192.961C100.963 186.208 100.664 180.739 100.462 176.919C100.356 175.047 100.278 173.591 100.22 172.558C100.22 172.086 100.163 171.71 100.143 171.43C100.136 171.3 100.12 171.171 100.095 171.044C100.084 171.172 100.084 171.301 100.095 171.43C100.095 171.71 100.095 172.086 100.095 172.568C100.095 173.591 100.172 175.057 100.24 176.928C100.375 180.719 100.616 186.208 100.934 192.98C101.571 206.485 102.594 225.248 103.828 245.92C105.063 266.593 106.259 285.278 107.176 298.812C107.639 305.565 108.024 311.025 108.285 314.845C108.43 316.706 108.545 318.173 108.623 319.195L108.719 320.333C108.737 320.462 108.769 320.588 108.816 320.71Z" fill="#263238"/>
<path d="M94.9439 129.129L96.96 143.069L100.568 171.044L84.844 144.053L71.1942 126.168L93.6898 141.93L93.9696 128.869" fill="#65A999"/>
<path d="M67.104 129.708C67.2136 130.084 67.359 130.449 67.5381 130.798C67.8757 131.56 68.3195 132.573 68.879 133.817L73.7601 144.429L73.818 144.564H73.9723H77.2521L77.0978 144.12L74.6862 146.097L74.4643 146.281L74.6669 146.483L79.2393 150.959L93.9502 165.226L98.4455 169.5L99.6899 170.648C99.8258 170.791 99.978 170.917 100.143 171.024C100.037 170.855 99.9072 170.702 99.7574 170.571L98.5902 169.355L94.2011 164.956L79.6059 150.583C78.0335 149.04 76.4901 147.544 75.0238 146.117V146.493L77.4258 144.506L77.9563 144.062H77.2618H73.982L74.1942 144.197C72.1395 139.914 70.4031 136.287 69.1394 133.663C68.5317 132.438 68.0494 131.444 67.6828 130.702C67.5161 130.356 67.3226 130.024 67.104 129.708Z" fill="#263238"/>
<path d="M100.568 171.015C100.718 170.445 100.824 169.864 100.886 169.278C101.06 168.072 101.282 166.471 101.552 164.532C102.092 160.519 102.806 154.972 103.558 148.847L104.253 143.136V142.914L104.031 142.856L100.085 141.892V142.355L104.04 141.651L104.311 141.602L104.195 141.361L101.59 135.699C101.291 135.091 101.05 134.58 100.847 134.165C100.776 133.977 100.675 133.801 100.548 133.644C100.589 133.841 100.654 134.032 100.741 134.213C100.915 134.638 101.127 135.178 101.378 135.795C101.995 137.242 102.825 139.181 103.819 141.525L103.973 141.246L100.008 141.892L98.8699 142.075L99.9889 142.355L103.925 143.319L103.732 143.049C103.5 144.863 103.269 146.783 103.018 148.75C102.266 154.886 101.61 160.432 101.166 164.455C100.963 166.384 100.79 168.015 100.664 169.278C100.587 169.854 100.555 170.434 100.568 171.015Z" fill="#263238"/>
<path d="M87.1495 245.495H86.59L84.9211 245.601L78.5158 246.064L55.5764 247.83H55.3449V248.061C55.7115 252.373 56.1166 257.061 56.5411 262C56.7533 264.483 56.972 267.02 57.197 269.611C57.3128 270.914 57.4189 272.216 57.5347 273.538C57.5751 274.221 57.6817 274.9 57.853 275.563C58.0566 276.248 58.3623 276.899 58.7598 277.493C60.058 279.245 61.9963 280.414 64.1522 280.743C66.1807 280.995 68.2243 281.105 70.2681 281.071C74.1261 281.082 77.9732 280.661 81.7378 279.817C82.6306 279.601 83.5048 279.314 84.352 278.959C84.7739 278.788 85.1806 278.581 85.5674 278.342C85.7636 278.21 85.9476 278.062 86.1173 277.898C86.273 277.727 86.418 277.546 86.5514 277.358C87.3737 275.844 87.8822 274.181 88.0466 272.467C88.4264 269.457 88.578 266.422 88.5 263.389C88.4132 257.833 88.0176 253.357 87.7186 250.27C87.5739 248.727 87.4292 247.54 87.3231 246.73C87.3231 246.344 87.2266 246.045 87.1977 245.765C87.1923 245.659 87.1695 245.555 87.1302 245.457C87.1302 245.457 87.1302 245.563 87.1302 245.775C87.1302 245.987 87.1302 246.315 87.2073 246.74C87.2845 247.588 87.381 248.775 87.5064 250.289C87.7475 253.376 88.0852 257.852 88.1238 263.389C88.1675 266.401 87.9967 269.412 87.6125 272.399C87.4418 274.046 86.9468 275.643 86.1559 277.097C85.6575 277.776 84.954 278.276 84.1494 278.525C83.3271 278.866 82.4787 279.14 81.6124 279.345C77.8841 280.167 74.0763 280.575 70.2584 280.56C68.2468 280.59 66.2355 280.481 64.239 280.232C62.2169 279.925 60.3973 278.833 59.1746 277.194C58.8195 276.656 58.5403 276.071 58.345 275.457C58.1855 274.825 58.0853 274.179 58.0459 273.528C57.9302 272.206 57.8144 270.894 57.7083 269.592C57.4768 267.007 57.2549 264.46 57.033 261.991C56.5893 257.042 56.1745 252.344 55.7886 248.051L55.5861 248.302L78.3615 246.315L84.8054 245.727L86.5224 245.563C86.7328 245.555 86.9423 245.532 87.1495 245.495Z" fill="#263238"/>
<g opacity="0.3">
<path opacity="0.3" d="M57.9012 274.946C60.3514 281.332 66.7471 281.699 73.6347 280.734C80.1075 279.77 86.3391 278.429 86.8215 276.577C86.6478 279.962 84.159 282.557 81.0335 283.918C77.8602 285.13 74.4533 285.608 71.0687 285.316C67.5284 285.152 64.4705 285.316 61.5476 283.3C58.6247 281.284 57.8916 277.86 57.9012 274.946Z" fill="black"/>
</g>
<path d="M123.565 247.473C123.556 247.393 123.556 247.312 123.565 247.232L123.478 246.537C123.414 245.894 123.317 244.997 123.189 243.846C122.957 241.454 122.629 238.058 122.224 233.929C121.433 225.556 120.372 213.98 119.253 201.199C118.134 188.417 117.169 176.832 116.523 168.401C116.205 164.204 115.973 160.809 115.838 158.465C115.761 157.288 115.732 156.381 115.713 155.754C115.713 155.474 115.713 155.243 115.713 155.05C115.699 154.97 115.699 154.888 115.713 154.809C115.944 157.529 117.555 175.963 119.755 201.112C120.854 213.884 121.858 225.44 122.581 233.862C122.919 238.019 123.198 241.396 123.391 243.788C123.478 244.926 123.546 245.833 123.594 246.489C123.594 246.769 123.594 247 123.594 247.193C123.598 247.287 123.588 247.382 123.565 247.473Z" fill="#263238"/>
<path d="M136.144 200.215C136.514 201.551 136.651 202.941 136.549 204.324C136.347 206.437 136.25 211.627 130.626 213.401C125.002 215.176 122.272 213.479 120.546 211.096L119.687 200.774L125.707 196.8L136.144 200.215Z" fill="#E0E0E0"/>
<g opacity="0.3">
<path opacity="0.3" d="M89.156 206.852C89.156 206.852 74.773 221.061 63.6024 223.106C52.4317 225.151 48.438 221.177 45.4669 211.173L89.156 206.852Z" fill="black"/>
</g>
<path d="M43.5665 141.902C43.5665 141.902 34.4313 150.371 37.0358 170.427C39.4475 189.064 43.7884 215.013 49.4606 218.032C55.1327 221.051 67.5285 219.537 76.5673 214.415C85.606 209.292 111.796 195.44 111.796 195.44L100.954 176.147L66.0236 189.652C66.0236 189.652 61.509 158.783 58.7984 153.42" fill="#E0E0E0"/>
<path d="M58.6537 153.063C58.6537 153.063 58.7501 153.265 58.9238 153.661C59.0009 153.854 59.1167 154.095 59.2324 154.394C59.3482 154.693 59.4447 155.06 59.5797 155.455C60.091 157.056 60.6987 159.458 61.3643 162.584C62.7148 168.825 64.3451 177.931 66.0622 189.276L65.8114 189.121L100.722 175.52L100.915 175.443L101.021 175.626C104.446 181.723 108.092 188.166 111.873 194.919L111.999 195.151L111.767 195.276L89.3681 207.344L78.3808 213.257C76.5769 214.222 74.7826 215.235 72.9208 216.035C71.0632 216.82 69.1554 217.481 67.2101 218.013C63.4212 219.074 59.4883 219.53 55.5571 219.363C53.6408 219.278 51.7526 218.87 49.9718 218.157L49.3158 217.868C49.1036 217.762 48.901 217.608 48.6888 217.473C48.3304 217.168 48.0069 216.826 47.7242 216.45C47.15 215.71 46.6553 214.911 46.2482 214.067C44.7433 210.823 43.567 207.436 42.7369 203.958C41.8591 200.61 41.1645 197.321 40.5375 194.128C39.3028 187.752 38.3863 181.771 37.6436 176.301C36.9008 170.832 36.1966 165.854 36.3992 161.446C36.4943 157.678 37.1645 153.947 38.3863 150.381C39.1782 148.135 40.2928 146.016 41.6951 144.092C42.0635 143.594 42.463 143.12 42.8913 142.673C43.0376 142.524 43.1922 142.382 43.3543 142.249L42.9298 142.712C42.521 143.17 42.1378 143.65 41.7819 144.149C40.4239 146.088 39.3457 148.209 38.5793 150.449C37.3824 153.999 36.7319 157.71 36.65 161.455C36.4763 165.835 37.1709 170.783 37.9619 176.243C38.7529 181.703 39.6886 187.684 40.9427 194.051C41.5697 197.225 42.2739 200.504 43.1614 203.842C43.9874 207.287 45.1539 210.641 46.6438 213.855C47.0334 214.661 47.5019 215.427 48.0425 216.141C48.3275 216.497 48.651 216.821 49.0071 217.106C49.1853 217.232 49.3722 217.345 49.5666 217.444L50.184 217.723C51.9212 218.403 53.7606 218.784 55.6247 218.852C59.5009 219.011 63.378 218.558 67.1136 217.511C69.0309 216.989 70.9126 216.345 72.7472 215.582C74.5993 214.781 76.355 213.788 78.1685 212.823L89.1559 206.9L111.565 194.842L111.459 195.189L100.635 175.896L100.934 176.002L65.985 189.507L65.7631 189.594V189.363C64.0943 178.028 62.5219 168.912 61.2389 162.661C60.6119 159.536 60.0331 157.124 59.5508 155.523C59.435 155.127 59.3289 154.77 59.2324 154.462L58.9527 153.719C58.7598 153.275 58.6537 153.063 58.6537 153.063Z" fill="#263238"/>
<path d="M71.1941 176.176H88.5289V170.407H71.1941V176.176Z" fill="white"/>
<path d="M74.7826 172.944C76.5708 172.684 78.3798 172.597 80.1847 172.684C81.9927 172.597 83.805 172.684 85.5964 172.944C83.8038 173.192 81.9924 173.276 80.1847 173.195C78.3801 173.276 76.5719 173.192 74.7826 172.944Z" fill="#263238"/>
<g opacity="0.3">
<path opacity="0.3" d="M99.6899 170.668L74.1749 149.966L74.7826 148.162H72.5639L68.879 133.818L74.1845 144.236L77.2521 144.091L75.0238 146.136L99.6899 170.668Z" fill="black"/>
</g>
<path d="M68.1748 147.072L69.1394 146.686C69.1394 146.638 67.0462 141.651 64.9914 136.364C64.2534 134.74 63.9541 132.951 64.1233 131.174C64.2389 130.616 64.5481 130.116 64.9964 129.763C65.4447 129.41 66.0032 129.226 66.5735 129.245L67.2487 128.888L67.596 128.271C65.8114 127.885 63.4191 129.38 63.1297 131.03C62.9415 132.991 63.2743 134.968 64.0943 136.76C66.0719 142.075 68.1459 147.024 68.1748 147.072Z" fill="#455A64"/>
<path d="M66.6699 158.725L67.9529 158.224C66.9014 155.513 65.4641 150.719 66.0815 149.368C66.3859 148.886 66.7893 148.474 67.2649 148.16C67.7405 147.846 68.2776 147.636 68.8404 147.545C69.5294 147.363 70.2512 147.343 70.9491 147.487C71.6471 147.631 72.3022 147.935 72.863 148.374C74.3292 149.619 76.5479 153.998 77.2811 155.59L78.5255 155.011C78.4193 154.77 75.7569 149.011 73.7504 147.294C73.0284 146.716 72.1819 146.314 71.2778 146.12C70.3738 145.926 69.4369 145.945 68.5413 146.175C67.764 146.31 67.0271 146.618 66.3857 147.078C65.7442 147.537 65.2149 148.135 64.8371 148.828C63.7952 151.066 66.1779 157.51 66.6699 158.725Z" fill="#455A64"/>
<path d="M80.5223 179.639C82.1043 179.639 83.667 178.79 85.1622 177.112L84.6413 176.649C83.0014 178.51 81.3036 179.243 79.6251 178.848C72.7665 177.237 67.5381 158.185 67.4898 157.992L66.8242 158.166C67.0461 158.966 72.207 177.816 79.4611 179.514C79.8085 179.598 80.1648 179.64 80.5223 179.639Z" fill="#263238"/>
<path d="M83.8407 177.893C83.9801 178.032 84.1651 178.117 84.3617 178.131C84.5584 178.145 84.7536 178.088 84.9115 177.97L86.3971 176.861C86.5079 176.791 86.6035 176.7 86.6781 176.593C86.7527 176.485 86.8046 176.364 86.8308 176.236C86.8569 176.108 86.8568 175.976 86.8303 175.848C86.8038 175.72 86.7516 175.598 86.6768 175.491C86.598 175.367 86.492 175.263 86.3669 175.186C86.2418 175.11 86.1009 175.063 85.9549 175.049C85.8089 175.035 85.6616 175.054 85.5242 175.106C85.3869 175.157 85.2631 175.24 85.1623 175.346L83.8214 176.735C83.6708 176.892 83.5883 177.101 83.5919 177.318C83.5955 177.535 83.685 177.742 83.8407 177.893Z" fill="#263238"/>
<path d="M77.609 180.266C78.5015 180.334 79.3969 180.179 80.214 179.813C81.031 179.448 81.7438 178.884 82.2876 178.173C86.5031 172.259 78.5544 155.841 78.2167 155.146L77.5994 155.446C77.6765 155.619 85.7121 172.192 81.7281 177.777C80.6862 179.234 78.8341 179.813 76.3067 179.494L76.2199 180.17C76.6802 180.234 77.1443 180.266 77.609 180.266Z" fill="#263238"/>
<path d="M77.7345 179.889C77.7212 180.086 77.638 180.27 77.4999 180.41C77.3618 180.55 77.178 180.636 76.9821 180.652L75.1299 180.806C75.0016 180.826 74.8705 180.821 74.7445 180.789C74.6185 180.757 74.5001 180.701 74.3965 180.622C74.2929 180.544 74.2062 180.446 74.1416 180.333C74.077 180.22 74.0359 180.096 74.0206 179.967C73.9966 179.822 74.006 179.673 74.048 179.533C74.09 179.392 74.1636 179.263 74.2632 179.155C74.3627 179.047 74.4856 178.963 74.6224 178.91C74.7593 178.857 74.9064 178.835 75.0528 178.848L76.9821 179.012C77.197 179.031 77.3959 179.134 77.5364 179.298C77.6769 179.462 77.7479 179.674 77.7345 179.889Z" fill="#263238"/>
<path d="M110.745 159.748C113.451 159.748 115.645 157.554 115.645 154.847C115.645 152.141 113.451 149.947 110.745 149.947C108.038 149.947 105.844 152.141 105.844 154.847C105.844 157.554 108.038 159.748 110.745 159.748Z" fill="#263238"/>
<path d="M110.745 159.748C113.451 159.748 115.645 157.554 115.645 154.847C115.645 152.141 113.451 149.947 110.745 149.947C108.038 149.947 105.844 152.141 105.844 154.847C105.844 157.554 108.038 159.748 110.745 159.748Z" fill="#263238"/>
<path d="M107.127 154.847C107.125 155.566 107.337 156.268 107.735 156.866C108.132 157.464 108.699 157.93 109.362 158.206C110.025 158.482 110.755 158.555 111.46 158.415C112.164 158.275 112.811 157.93 113.319 157.422C113.827 156.914 114.173 156.267 114.312 155.562C114.452 154.858 114.379 154.128 114.104 153.465C113.828 152.801 113.362 152.235 112.764 151.837C112.166 151.439 111.463 151.228 110.745 151.23C109.785 151.23 108.865 151.611 108.187 152.29C107.509 152.968 107.127 153.888 107.127 154.847Z" fill="#E0E0E0"/>
<path d="M100.346 133.5C100.809 134.165 105.931 144.979 108.729 150.429L109.549 150.005C109.134 149.204 101.687 133.837 101.108 132.979L95.6866 128.57L95.4937 129.602L100.346 133.5Z" fill="#455A64"/>
<path d="M98.2911 154.731C101.841 158.272 110.832 167.484 110.832 167.484L113.234 166.037L100.577 152.532C100.321 152.258 99.975 152.085 99.6022 152.042C99.2294 152 98.8536 152.091 98.542 152.301C98.3472 152.43 98.1835 152.6 98.0625 152.8C97.9416 153 97.8664 153.224 97.8424 153.457C97.8184 153.689 97.8463 153.924 97.9238 154.144C98.0014 154.365 98.1269 154.565 98.2911 154.731Z" fill="#263238"/>
<path d="M100.848 175.752L103.867 167.243C104.18 166.326 104.763 165.523 105.539 164.942C106.315 164.36 107.249 164.026 108.217 163.983H108.671C110.484 164.185 119.716 164.793 119.716 164.793L123.285 168.797C123.579 169.13 123.741 169.558 123.741 170.002C123.741 170.446 123.579 170.875 123.285 171.208L124.317 178.443L122.321 179.832L122.523 184.887C122.523 184.887 120.719 186.083 119.919 185.688L119.108 185.282L117.912 184.077L114.497 188.9L109.78 191.63L100.848 175.752Z" fill="#FFBF9D"/>
<path d="M123.343 171.613C122.94 171.122 122.508 170.655 122.051 170.214C121.537 169.773 120.953 169.421 120.324 169.172C119.504 168.978 118.667 168.865 117.825 168.834C115.609 168.712 113.406 168.416 111.237 167.947C113.455 167.894 115.674 168.017 117.874 168.314C118.758 168.343 119.636 168.479 120.488 168.719C121.164 169.005 121.779 169.418 122.301 169.934C122.824 170.363 123.191 170.954 123.343 171.613Z" fill="#FF9A6C"/>
<path d="M123.141 178.259C122.934 177.629 122.686 177.014 122.398 176.417C121.574 175.05 120.318 173.998 118.829 173.426C117.313 172.881 115.712 172.61 114.102 172.626C113.426 172.672 112.748 172.652 112.076 172.568C112.729 172.35 113.414 172.246 114.102 172.259C115.771 172.13 117.449 172.36 119.022 172.934C120.622 173.543 121.941 174.721 122.726 176.243C123.088 176.849 123.234 177.56 123.141 178.259Z" fill="#FF9A6C"/>
<path d="M122.234 184.462C121.9 183.854 121.733 183.168 121.751 182.475C121.712 181.764 121.559 181.063 121.298 180.401C121.12 180.021 120.85 179.691 120.514 179.44C120.177 179.189 119.784 179.025 119.369 178.963C117.779 178.623 116.167 178.391 114.546 178.269C113.857 178.241 113.179 178.084 112.549 177.806C113.229 177.79 113.909 177.822 114.584 177.902C116.235 177.916 117.881 178.1 119.494 178.452C119.98 178.573 120.439 178.786 120.845 179.079C121.222 179.374 121.515 179.763 121.694 180.208C121.957 180.924 122.085 181.683 122.07 182.446C122.118 183.7 122.321 184.433 122.234 184.462Z" fill="#FF9A6C"/>
<path d="M127.269 168.507L87.4485 209.63L88.9823 211.183L117.507 207.971L155.89 171.401L155.852 169.645L127.269 168.507Z" fill="#455A64"/>
<g opacity="0.3">
<path opacity="0.3" d="M134.726 187.684C133.788 186.828 132.681 186.178 131.476 185.776C130.272 185.374 128.996 185.229 127.732 185.349C125.2 185.609 122.802 186.616 120.845 188.243C119.187 189.458 117.979 191.188 117.411 193.163C116.6 196.616 119.446 201.449 122.581 203.128C126.555 199.935 130.424 195.034 134.398 191.851C135.043 191.434 135.529 190.812 135.777 190.086C135.811 189.63 135.733 189.173 135.549 188.754C135.366 188.336 135.084 187.968 134.726 187.684Z" fill="black"/>
</g>
<path d="M155.736 171.323C155.563 171.335 155.389 171.335 155.215 171.323H153.691L147.98 171.256L128.109 170.908L128.292 170.831L118.317 181.182L97.6256 202.472L91.3167 208.877L89.5804 210.604C89.3844 210.81 89.1749 211.004 88.9533 211.183C89.1235 210.96 89.314 210.753 89.5225 210.565L91.1913 208.771L97.3844 202.25C102.68 196.742 109.925 189.189 117.96 180.854C121.481 177.208 124.867 173.716 127.954 170.532L128.031 170.455H128.109L147.951 171.024L153.652 171.227L155.177 171.304C155.363 171.29 155.551 171.296 155.736 171.323Z" fill="#263238"/>
<path d="M130.81 183.381C130.81 183.381 134.668 183.459 135.932 184.086C137.196 184.713 140.649 188.378 140.649 188.378C140.649 188.378 140.649 190.886 139.684 190.983C139.808 191.544 139.876 192.116 139.887 192.69C139.983 194.099 140.186 194.899 138.276 196.105C138.276 196.105 138.479 198.411 137.774 198.999C137.298 199.399 136.795 199.767 136.27 200.099C136.27 200.099 136.163 202.636 132.758 202.607L129.565 204.015C129.565 204.015 122.465 203.35 123.218 202.51C123.97 201.671 125.678 197.513 125.678 197.513C125.678 197.513 120.854 193.973 120.912 192.874C120.97 191.774 121.414 191.668 121.414 191.668C121.414 191.668 121.221 189.565 122.919 189.362C122.919 189.362 124.231 186.748 125.533 186.652C126.835 186.555 135.671 189.758 135.671 189.758L132.363 186.951C132.363 186.951 129.044 186.449 129.15 185.34C129.257 184.23 130.81 183.381 130.81 183.381Z" fill="#FFBF9D"/>
<path d="M130.231 196.607C128.699 195.961 127.202 195.237 125.745 194.436C124.213 193.78 122.716 193.046 121.26 192.237C122.912 192.544 124.504 193.114 125.977 193.925C127.526 194.591 128.962 195.496 130.231 196.607Z" fill="#FF9A6C"/>
<path d="M134.861 193.539C132.882 193.081 130.946 192.455 129.073 191.668C127.149 191.043 125.284 190.253 123.497 189.304C125.477 189.762 127.413 190.388 129.285 191.176C131.209 191.8 133.075 192.591 134.861 193.539Z" fill="#FF9A6C"/>
<path d="M71.9851 104.646C70.7014 100.272 69.7913 95.7956 69.2648 91.2668C68.7388 86.7161 69.3486 82.1059 71.0398 77.8485C71.3195 77.2118 73.5961 73.0252 74.2714 73.0831C74.7633 73.1506 73.3067 77.1346 73.5189 77.5784C75.6797 81.765 76.0656 86.6943 75.4482 91.3729C74.8041 95.9111 73.6555 100.363 72.0237 104.646" fill="#263238"/>
<path d="M72.4386 87.2538C72.6508 75.813 79.4902 66.4173 90.9116 66.9961L91.9631 67.1119C97.0785 67.6396 101.807 70.077 105.204 73.9375C108.602 77.798 110.418 82.7977 110.291 87.9387C110.05 97.8456 109.655 108.785 109.037 114.052C107.754 124.943 96.6609 125.493 96.6609 125.493L94.1336 142.297L70.7986 126.071L72.4386 87.2538Z" fill="#FFBF9D"/>
<path d="M96.6223 125.531C91.5836 124.984 86.807 123.006 82.8567 119.83C82.8567 119.83 85.0368 129.158 96.0242 129.322L96.6223 125.531Z" fill="#FF9A6C"/>
<path d="M106.095 97.0166C106.056 97.4228 105.859 97.7975 105.548 98.0607C105.236 98.3238 104.833 98.4546 104.426 98.425C104.227 98.4201 104.03 98.3752 103.848 98.293C103.666 98.2108 103.502 98.0929 103.366 97.9464C103.23 97.7998 103.125 97.6275 103.057 97.4396C102.989 97.2518 102.959 97.0522 102.97 96.8526C103.009 96.4457 103.205 96.07 103.517 95.8053C103.828 95.5406 104.231 95.4076 104.639 95.4346C104.839 95.4407 105.036 95.4868 105.218 95.57C105.4 95.6533 105.564 95.7721 105.699 95.9194C105.835 96.0668 105.94 96.2397 106.008 96.4281C106.076 96.6165 106.106 96.8166 106.095 97.0166Z" fill="#263238"/>
<path d="M107.446 92.1739C107.234 92.3476 106.143 91.354 104.465 91.2093C102.786 91.0646 101.475 91.7495 101.311 91.5276C101.147 91.3057 101.465 91.0742 102.044 90.7463C102.822 90.3158 103.716 90.1404 104.6 90.2446C105.471 90.3328 106.291 90.6941 106.944 91.2768C107.417 91.7013 107.552 92.0871 107.446 92.1739Z" fill="#263238"/>
<path d="M91.7508 96.3413C91.7116 96.7482 91.5154 97.1239 91.2039 97.3886C90.8923 97.6533 90.4899 97.7863 90.082 97.7593C89.8818 97.7532 89.6848 97.7071 89.5027 97.6239C89.3205 97.5406 89.1568 97.4218 89.0211 97.2745C88.8855 97.1272 88.7806 96.9542 88.7126 96.7658C88.6447 96.5774 88.615 96.3773 88.6254 96.1773C88.6761 95.7791 88.8772 95.4154 89.1875 95.1607C89.4978 94.906 89.8938 94.7797 90.2942 94.8075C90.4906 94.8125 90.6841 94.8562 90.8636 94.936C91.043 95.0158 91.2051 95.1301 91.3403 95.2726C91.4756 95.415 91.5815 95.5827 91.6519 95.7661C91.7224 95.9495 91.756 96.1449 91.7508 96.3413Z" fill="#263238"/>
<path d="M90.9502 91.1124C90.738 91.2957 89.6479 90.3021 87.9694 90.1478C86.2909 89.9934 84.979 90.688 84.815 90.4564C84.651 90.2249 84.9694 90.0127 85.5481 89.6847C86.3268 89.2543 87.2209 89.0789 88.1045 89.1831C88.9752 89.2713 89.7957 89.6326 90.4486 90.2153C90.9212 90.6494 91.0563 91.0352 90.9502 91.1124Z" fill="#263238"/>
<path d="M95.6094 104.637C96.5227 104.448 97.4567 104.38 98.3876 104.434C98.8121 104.434 99.2269 104.434 99.3523 104.106C99.4345 103.667 99.3806 103.212 99.1979 102.804L98.2815 99.4085C97.0082 94.5853 96.14 90.6302 96.3522 90.582C96.5644 90.5338 97.7317 94.4406 99.005 99.2638C99.3041 100.45 99.5934 101.589 99.8732 102.669C100.073 103.221 100.073 103.825 99.8732 104.376C99.7963 104.52 99.6878 104.644 99.5557 104.739C99.4237 104.835 99.2716 104.899 99.1111 104.926C98.8646 104.958 98.6149 104.958 98.3683 104.926C97.4403 104.943 96.5137 104.846 95.6094 104.637Z" fill="#263238"/>
<path d="M90.5547 105.274C90.8248 105.274 90.6415 107.106 92.0595 108.563C93.4775 110.02 95.4358 110.02 95.4261 110.28C95.4165 110.541 94.9535 110.589 94.1335 110.521C93.0666 110.425 92.0684 109.953 91.3167 109.19C90.5909 108.462 90.1789 107.479 90.1688 106.45C90.1784 105.679 90.4293 105.254 90.5547 105.274Z" fill="#263238"/>
<path d="M91.5772 84.3023C91.365 84.7364 89.7154 84.3023 87.7186 84.3795C85.7218 84.4567 84.0818 84.775 83.86 84.3795C83.7635 84.1673 84.0915 83.7718 84.8246 83.4149C85.7214 82.9593 86.7128 82.7214 87.7186 82.7203C88.7218 82.7149 89.7125 82.9428 90.6125 83.3859C91.3457 83.6946 91.6737 84.0901 91.5772 84.3023Z" fill="#263238"/>
<path d="M107.34 86.521C107.002 86.8683 105.893 86.357 104.503 86.193C103.114 86.029 101.918 86.193 101.687 85.7493C101.59 85.5467 101.812 85.1801 102.362 84.8714C103.095 84.5042 103.924 84.3728 104.735 84.4952C105.549 84.5766 106.316 84.9144 106.925 85.4599C107.369 85.9422 107.494 86.3474 107.34 86.521Z" fill="#263238"/>
<path d="M72.4772 95.4248C72.2939 95.3187 65.2133 92.4151 64.6635 99.9008C64.1136 107.386 71.744 106.393 71.773 106.181C71.8019 105.968 72.4772 95.4248 72.4772 95.4248Z" fill="#FFBF9D"/>
<path d="M69.6892 103.17C69.6892 103.17 69.5542 103.257 69.3226 103.344C69.0051 103.445 68.6612 103.425 68.358 103.286C67.5959 102.939 67.0171 101.637 67.075 100.286C67.1071 99.643 67.2783 99.0144 67.5766 98.4437C67.6593 98.2073 67.7996 97.9953 67.9849 97.8268C68.1702 97.6584 68.3946 97.5388 68.6377 97.479C68.7906 97.4486 68.9494 97.4737 69.0855 97.5497C69.2216 97.6257 69.3262 97.7477 69.3805 97.8938C69.4673 98.106 69.3805 98.2507 69.448 98.27C69.5156 98.2893 69.612 98.1543 69.5734 97.8456C69.5459 97.6565 69.4539 97.4827 69.313 97.3536C69.2174 97.2688 69.106 97.2038 68.9851 97.1624C68.8642 97.121 68.7363 97.104 68.6088 97.1125C68.296 97.1477 67.9979 97.2642 67.744 97.4503C67.4902 97.6365 67.2895 97.8858 67.1618 98.1736C66.7981 98.7966 66.5896 99.4981 66.5541 100.219C66.4962 101.733 67.1618 103.199 68.2229 103.595C68.4196 103.668 68.6303 103.695 68.8391 103.675C69.048 103.655 69.2495 103.588 69.4287 103.479C69.6699 103.354 69.7181 103.19 69.6892 103.17Z" fill="#FF9A6C"/>
<path d="M106.211 75.1667C107.465 74.5783 104.079 70.4207 101.185 68.8772C96.8152 66.5428 90.0241 64.845 85.7507 65.7517C80.6573 66.8515 76.3453 69.0701 73.5479 73.469C70.834 77.9449 69.3591 83.0619 69.2744 88.2957C69.1092 89.8858 69.3723 91.4911 70.0365 92.9453C71.0012 94.6623 72.9305 95.8392 72.6797 98.1158C72.625 98.527 72.6523 98.945 72.7599 99.3457C72.8675 99.7463 73.0534 100.122 73.3067 100.45C74.5897 102.003 76.3453 100.74 77.2135 99.4181C79.0464 96.582 79.4515 93.0996 79.8181 89.7716C80.2089 87.4049 80.2089 84.9902 79.8181 82.6235C79.5287 81.3502 79.0174 80.1347 78.8534 78.8421C78.7057 78.2056 78.6983 77.5446 78.8315 76.905C78.9648 76.2653 79.2356 75.6623 79.6252 75.1378C79.8226 74.9286 80.039 74.7381 80.2715 74.5687C81.3755 73.7263 82.6838 73.193 84.062 73.0234C85.4403 72.8539 86.8389 73.0543 88.1141 73.604C92.2331 75.3693 99.2944 78.0607 101.272 76.7488C104.108 74.8677 104.841 73.5654 104.841 73.5654L106.211 75.1667Z" fill="#263238"/>
</svg>
