<?xml version="1.0" standalone="no"?>
<!DOCTYPE svg PUBLIC "-//W3C//DTD SVG 20010904//EN"
 "http://www.w3.org/TR/2001/REC-SVG-20010904/DTD/svg10.dtd">
<svg version="1.0" xmlns="http://www.w3.org/2000/svg"
 width="1173.000000pt" height="1173.000000pt" viewBox="0 0 1173.000000 1173.000000"
 preserveAspectRatio="xMidYMid meet">
<metadata>
Created by potrace 1.14, written by Peter Selinger 2001-2017
</metadata>
<g transform="translate(0.000000,1173.000000) scale(0.100000,-0.100000)"
fill="#000000" stroke="none">
<path d="M1970 8113 c-33 -3 -203 -28 -266 -39 -195 -34 -572 -177 -696 -265
-14 -11 -29 -19 -32 -19 -3 0 -36 -21 -73 -46 -336 -229 -597 -526 -773 -875
-33 -66 -60 -126 -60 -132 0 -9 64 -12 261 -12 282 0 367 -9 482 -50 262 -93
443 -327 474 -610 36 -326 -69 -600 -292 -760 -90 -64 -144 -89 -260 -121 -63
-18 -178 -24 -427 -24 -182 0 -298 -4 -298 -10 0 -9 9 -34 36 -97 8 -17 14
-34 14 -38 0 -7 33 -80 70 -155 174 -349 459 -671 775 -875 149 -96 270 -159
412 -216 95 -38 286 -95 343 -104 25 -4 47 -8 51 -10 26 -17 234 -37 399 -40
195 -3 337 9 480 40 14 3 46 10 72 15 218 43 549 189 758 335 l45 32 2 1126
c1 1043 0 1127 -15 1128 -10 1 -108 1 -219 1 l-203 1 -1 101 c0 103 0 289 1
316 0 13 72 15 596 15 328 0 597 2 599 5 2 3 -16 47 -40 98 -210 442 -565 810
-995 1034 -252 131 -520 212 -805 244 -59 6 -365 11 -415 7z m454 -1418 c48
-14 108 -37 133 -50 185 -104 321 -273 378 -468 24 -82 26 -98 29 -223 4 -131
-22 -254 -80 -369 -109 -218 -335 -384 -562 -411 -297 -36 -550 66 -719 291
-149 198 -196 459 -127 710 74 272 338 508 604 542 25 3 47 7 48 8 2 2 49 2
105 0 71 -3 129 -12 191 -30z"/>
<path d="M2152 6268 c-124 -18 -216 -107 -246 -235 -33 -144 16 -289 124 -362
57 -39 99 -51 176 -51 118 0 211 56 269 161 49 91 45 265 -8 344 -78 116 -181
163 -315 143z"/>
<path d="M11067 7022 c-11 -2 -17 -13 -17 -31 0 -26 1 -27 58 -26 l57 0 2
-105 c0 -58 2 -113 2 -122 1 -12 9 -18 26 -18 19 0 25 5 26 23 0 12 1 67 2
122 l2 100 50 0 c61 0 77 9 66 37 -7 19 -15 21 -132 22 -69 0 -132 0 -142 -2z"/>
<path d="M11393 7023 c-10 -3 -13 -44 -13 -154 l0 -150 28 3 27 3 0 82 c0 45
1 80 4 78 2 -3 25 -40 50 -82 46 -79 73 -97 92 -63 5 8 27 46 49 85 l40 70 0
-87 0 -87 28 1 28 1 1 138 c1 99 -2 143 -12 155 -18 26 -34 10 -91 -89 -75
-131 -68 -125 -97 -81 -13 22 -39 68 -58 102 -34 64 -53 83 -76 75z"/>
<path d="M9590 6757 c-3 -3 -25 -8 -50 -11 -132 -18 -260 -71 -375 -156 -237
-175 -359 -438 -342 -734 14 -228 98 -403 273 -564 173 -159 384 -235 639
-227 288 9 523 127 692 349 215 282 217 707 3 991 -135 180 -320 296 -542 339
-64 13 -288 22 -298 13z m263 -507 c123 -62 195 -186 195 -340 0 -159 -82
-291 -214 -345 -120 -49 -273 -20 -362 66 -103 101 -141 289 -86 429 38 100
134 191 218 207 11 2 22 6 25 9 3 3 44 4 91 2 64 -3 97 -10 133 -28z"/>
<path d="M4935 6720 c-2 -3 -3 -369 -3 -813 l0 -807 269 0 269 0 1 33 c0 17 1
151 2 296 l2 264 225 -1 c124 0 235 -1 248 -1 l22 -1 0 -295 0 -295 269 0 270
0 0 810 c0 446 -3 811 -7 811 -4 1 -125 2 -269 3 l-263 1 0 -286 c0 -221 -3
-288 -12 -291 -11 -4 -461 -3 -479 1 -4 0 -7 124 -7 274 0 149 -1 279 -1 287
-1 13 -37 15 -267 15 -146 0 -267 -2 -269 -5z"/>
<path d="M6680 6720 c-4 -3 -8 -368 -8 -812 l0 -808 264 0 264 0 0 318 1 317
20 -40 c17 -34 178 -384 253 -547 l21 -48 180 0 c177 0 180 1 190 23 6 12 71
154 145 315 l135 294 3 -316 2 -316 264 0 263 0 0 809 c0 735 -1 810 -16 813
-9 2 -143 4 -299 3 l-283 0 -55 -105 c-68 -128 -168 -319 -221 -420 -22 -41
-59 -112 -83 -158 -23 -46 -44 -81 -46 -79 -4 3 -18 30 -121 227 -228 434
-276 526 -280 530 -6 6 -582 7 -593 0z"/>
<path d="M340 5941 l0 -363 114 5 c93 4 124 9 168 29 131 60 199 185 193 353
-5 137 -73 249 -181 300 -57 27 -99 34 -222 38 l-72 2 0 -364z"/>
<path d="M3940 5402 c0 -557 4 -891 9 -887 6 3 42 54 81 113 142 213 266 507
318 752 42 196 50 288 47 525 -3 190 -21 364 -39 382 -3 3 -98 7 -211 7 l-205
1 0 -893z"/>
</g>
</svg>
